<svg xmlns="http://www.w3.org/2000/svg" viewBox="0 0 500 500">
  <g id="_424" data-name="424">
    <path id="outline" d="M9.9,105.3V394.7a45.5,45.5,0,0,0,45.5,45.5H444.6a45.5,45.5,0,0,0,45.5-45.5V105.3a45.5,45.5,0,0,0-45.5-45.5H55.4A45.5,45.5,0,0,0,9.9,105.3Zm295-23.7H444.6a23.7,23.7,0,0,1,23.6,23.7V394.7a23.7,23.7,0,0,1-23.6,23.7H55.4a23.7,23.7,0,0,1-23.6-23.7V105.3A23.7,23.7,0,0,1,55.4,81.6H304.9Z"/>
    <path id="_4-2" data-name="4-2" d="M137.1,321.5V288H74.9V266.5l53.2-85.6h40.2v82.4h16.9V288H168.3v33.5Zm0-58.2V232.2c0-8.5.5-17.1,1.1-26.2h-.8c-4.6,9.1-8.3,17.3-13,26.2l-18.8,30.7v.4Z"/>
    <path id="_2" data-name="2" d="M199,321.5V301.6l18.1-16.5c30.7-27.4,45.7-43.2,46.1-59.6,0-11.5-6.9-20.6-23.1-20.6-12.2,0-22.8,6.1-30.1,11.7L200.7,193c10.6-8,27-14.5,46.1-14.5,31.7,0,49.3,18.6,49.3,44.1,0,23.6-17.1,42.4-37.4,60.6l-13,10.8v.4h53v27.1Z"/>
    <path id="_4" data-name="4" d="M377.1,321.5V288H314.8V266.5L368,180.9h40.3v82.4h16.8V288H408.3v33.5Zm0-58.2V232.2c0-8.5.5-17.1,1.1-26.2h-.9c-4.5,9.1-8.2,17.3-12.9,26.2l-18.8,30.7v.4Z"/>
  </g>
</svg>
