<svg
  xmlns="http://www.w3.org/2000/svg"
  viewBox="0 0 500 500"
  width="500"
  height="500"
  fill="#ffffff"
>
  <path d="M267.3 349.6H235c0 70.3-75.3 96.1-75.3 96.1h182.9s-75.3-25.8-75.3-96.1z" />
  <path d="M394.1 54.3H95v.4H5v10.1c.5 51.6 21.5 147.1 96 155.8 18.7 58.8 78.8 101.8 150.1 101.8s132-43.4 150.4-102.5c72.4-10.7 92.9-104.5 93.4-155.6v-10zM25.5 74.6H95v111h.1c.2 4.7.6 9.4 1.2 14-57.1-13.1-68.5-95.9-70.8-125zm269.8 151.2l-44.1-23.2-44.1 23.2 8.4-49.1-35.7-34.8 49.3-7.2L251.2 90l22 44.7 49.4 7.2-35.7 34.8zm110.9-27.2c.5-4.3.9-8.6 1.1-13h.1V74.2h67.1c-2.2 28.6-13.3 109.5-68.3 124.4z" />
</svg>
