<svg xmlns="http://www.w3.org/2000/svg" viewBox="0 0 500 500">
  <g id="accomplishments">
    <path id="bottom" d="M267.3,349.6H235c0,70.3-75.3,96.1-75.3,96.1H342.6S267.3,419.9,267.3,349.6Z"/>
    <path id="top" d="M394.1,54.3H95v.4H5V64.8c.5,51.6,21.5,147.1,96,155.8,18.7,58.8,78.8,101.8,150.1,101.8S383.1,279,401.5,219.9c72.4-10.7,92.9-104.5,93.4-155.6v-10ZM25.5,74.6H95v111h.1c.2,4.7.6,9.4,1.2,14C39.2,186.5,27.8,103.7,25.5,74.6ZM295.3,225.8l-44.1-23.2-44.1,23.2,8.4-49.1-35.7-34.8,49.3-7.2L251.2,90l22,44.7,49.4,7.2-35.7,34.8Zm110.9-27.2c.5-4.3.9-8.6,1.1-13h.1V74.2h67.1C472.3,102.8,461.2,183.7,406.2,198.6Z"/>
  </g>
</svg>
