<svg
  xmlns="http://www.w3.org/2000/svg"
  viewBox="0 0 500 500"
  width="500"
  height="500"
  fill="#ffffff"
>
  <path d="M477.5 417.1v-17.2h-321l.8 19c.4 8.3-1.4 28.2-9 36.2-1.7 1.7-3.9 3.4-8.8 3.4s-6.8-1-9.3-3.6c-7.8-8.1-9.7-27.9-9.4-36.1V56.7a62.1 62.1 0 0 0-2.4-15.3h237.7c4.9 1.2 13.7 5 13.7 17.6v309.5h36.3V59c0-37-29.7-51.4-45.4-53.8l-1.3-.2H73.8c-34 0-48.6 29.5-51.6 45.1l-.4 1.7v60.8h62.6v305.2c-.2 5.8-.5 41.5 19.5 62.4a48.4 48.4 0 0 0 35.6 14.8h283.9c20.6 0 32.9-9.3 39.6-17 18-20.8 15.4-52.9 14.5-60.9z" />
  <path d="M242.8 164.4a57.4 57.4 0 0 1-27.2-7.2l-4.9 19.2c6.2 3.6 16.9 6.5 27.8 7v15.5h16v-16.7c18.8-3.2 29.1-15.6 29.1-30.2s-7.9-23.7-27.3-30.5c-13.9-5.3-19.6-8.7-19.6-14.1s3.4-9.1 14.1-9.1 19.2 3.7 23.5 5.5l4.7-18.4c-5.4-2.6-12.7-4.9-23.7-5.4V65.6h-16v15.5c-17.5 3.5-27.6 14.7-27.6 29.1s11.9 24 29.4 29.9c12.1 4.1 17.3 8 17.3 14.2s-6.3 10.1-15.6 10.1z" />
  <path d="M207.8 248.8c0 6.1 3.9 11.1 8.7 11.1H346c4.8 0 8.7-5 8.7-11.1s-3.9-11.2-8.7-11.2H216.5c-4.8 0-8.7 5-8.7 11.2z" />
  <path d="M191.4 276.3h-52.7v-52.6h52.7zm-33.1-19.6h13.5v-13.4h-13.5z" />
  <path d="M208.3 332.8c0 6.2 3.9 11.2 8.7 11.2h129.5c4.8 0 8.7-5 8.7-11.2s-3.9-11.1-8.7-11.1H217c-4.8 0-8.7 4.9-8.7 11.1z" />
  <path d="M191.8 360.3h-52.6v-52.6h52.6zm-33-19.6h13.4v-13.4h-13.4z" />
</svg>
