<svg xmlns="http://www.w3.org/2000/svg" viewBox="0 0 500 500">
  <g id="action-progress-reports">
    <path id="outline" d="M400.3,495H99.7a78.7,78.7,0,0,1-78.6-78.5V83.5A78.7,78.7,0,0,1,99.7,5H400.3a78.7,78.7,0,0,1,78.6,78.5v333A78.7,78.7,0,0,1,400.3,495ZM99.7,41.3A42.3,42.3,0,0,0,57.4,83.5v333a42.3,42.3,0,0,0,42.3,42.2H400.3a42.3,42.3,0,0,0,42.3-42.2V83.5a42.3,42.3,0,0,0-42.3-42.2Z"/>
    <rect id="bar-1" x="125.4" y="355" width="36.3" height="49.67"/>
    <rect id="bar-2" x="202.3" y="305.3" width="36.3" height="99.34"/>
    <rect id="bar-3" x="279.2" y="203.1" width="36.3" height="198.67"/>
    <rect id="bar-4" x="356.1" y="124" width="36.3" height="277.72"/>
    <polygon id="arrow" points="287.2 95.4 217.3 114.1 230 126.8 112.9 243.9 138.6 269.6 255.7 152.5 268.4 165.3 287.2 95.4"/>
  </g>
</svg>
