<svg
  xmlns="http://www.w3.org/2000/svg"
  viewBox="0 0 500 500"
  width="500"
  height="500"
  fill="#ffffff"
>
  <path d="M416.6 120.8l-223.1 223L83.4 233.7a16.7 16.7 0 0 0-23.5 0 17 17 0 0 0-4.9 11.8 16.8 16.8 0 0 0 4.9 11.8l121.9 121.9a16.8 16.8 0 0 0 23.5 0l234.8-234.8a16.8 16.8 0 0 0 4.9-11.8 17 17 0 0 0-4.9-11.8 16.6 16.6 0 0 0-23.5 0z" />
  <path d="M437.2 10.6h-.3A88.2 88.2 0 0 0 406.4 5H93.6A88.6 88.6 0 0 0 5 93.6v312.8A88.6 88.6 0 0 0 93.6 495h312.8a88.6 88.6 0 0 0 88.6-88.6V93.6a88.8 88.8 0 0 0-57.8-83zm-30.8 451.1H93.6a55.4 55.4 0 0 1-55.3-55.3V93.6a55.4 55.4 0 0 1 55.3-55.3h312.8a55.4 55.4 0 0 1 55.3 55.3v312.8a55.4 55.4 0 0 1-55.3 55.3z" />
</svg>
