<svg
  xmlns="http://www.w3.org/2000/svg"
  viewBox="0 0 500 500"
  width="500"
  height="500"
  fill="#000000"
>
  <path d="M132.8 183.5a17.3 17.3 0 1 0 17.3 17.3 17.3 17.3 0 0 0-17.3-17.3z" />
  <path d="M283.7 411.5h-67.4a16.1 16.1 0 0 0 0 32.1h67.4a16.1 16.1 0 0 0 0-32.1z" />
  <path d="M283.7 350.5h-67.4a16.1 16.1 0 0 0 0 32.1h67.4a16.1 16.1 0 0 0 0-32.1z" />
  <path d="M380.4 114.1h-25.1V40.4L319.9 5H186.8a42.1 42.1 0 0 0-42.1 42.1v67h-25.1a68.5 68.5 0 0 0-68.4 68.5v151.9a68.5 68.5 0 0 0 68.4 68.4h25.1v50a42.1 42.1 0 0 0 42.1 42.1h126.4a42.1 42.1 0 0 0 42.1-42.1v-50h25.1a68.5 68.5 0 0 0 68.4-68.4V182.6a68.5 68.5 0 0 0-68.4-68.5zm-203.6-67a10 10 0 0 1 10-10H290v32.7h33.2v44.3H176.8zm136.4 415.8H186.8a10 10 0 0 1-10-10V335.6h146.4v117.3a10 10 0 0 1-10 10zm103.5-128.4a36.4 36.4 0 0 1-36.3 36.3h-25.1v-35.2h27.4V301H117.3v34.6h27.4v35.2h-25.1a36.4 36.4 0 0 1-36.3-36.3V182.6a36.4 36.4 0 0 1 36.3-36.4h260.8a36.4 36.4 0 0 1 36.3 36.4z" />
</svg>
