<svg xmlns="http://www.w3.org/2000/svg" viewBox="0 0 500 500" fill="#000000">
  <path d="M490.55 89.94L455.5 125h.3v258.09a24.26 24.26 0 0 1-24.22 24.23h-258.4L134 446.52h297.6a63.49 63.49 0 0 0 63.4-63.43v-270a63 63 0 0 0-4.45-23.15z" />
  <path d="M427 186.14a19.55 19.55 0 0 0-14-18.69l-38.28 38.29h32.67a19.61 19.61 0 0 0 19.61-19.6z" />
  <path d="M201.47 379H410a19.6 19.6 0 0 0 0-39.2H240.67z" />
  <path d="M460.89 8.92L420.11 49.7H68.42A63.49 63.49 0 0 0 5 113.12v270a63.41 63.41 0 0 0 28.7 53L6.44 463.37l27.72 27.71L488.61 36.63zM184.76 285.05l-73 .31c1.85-10.33 6.08-27.79 14.44-35 12.2-10.53 32.8-10.31 32.8-10.31s20.55-.4 32.89 10c4.51 3.81 7.83 10.56 10.26 17.59zm-52.31-88.72A26.63 26.63 0 1 1 159.08 223a26.62 26.62 0 0 1-26.63-26.67zm170.82-29.79h-18.36a19.53 19.53 0 0 0-14.42 32.78l-32.57 32.57v-52.82A28 28 0 0 0 210 151.12H106.09a28 28 0 0 0-27.95 27.95v103.87a28 28 0 0 0 28 28h52.82L130 339.82H92.67a19.55 19.55 0 0 0-1.71 39l-27.84 27.87a24.24 24.24 0 0 1-18.92-23.6V125h300.61z" />
  <path d="M407.43 254h-80.94l-39.2 39.2h120.14a19.6 19.6 0 0 0 0-39.2z" />
</svg>
