<svg xmlns="http://www.w3.org/2000/svg" viewBox="0 0 500 500">
  <g id="view-snapshot-action">
    <g id="snapshotIcon">
      <path id="cameraOutline" d="M426.8,95.3H375.9l-32.1-52a43.9,43.9,0,0,0-37.6-20.9H193.8a43.9,43.9,0,0,0-37.6,20.9l-32.1,52H73.2A68.3,68.3,0,0,0,5,163.5V409.4a68.3,68.3,0,0,0,68.2,68.2H426.8A68.3,68.3,0,0,0,495,409.4V163.5A68.3,68.3,0,0,0,426.8,95.3ZM184.3,60.6a11.3,11.3,0,0,1,9.5-5.3H306.2a11.1,11.1,0,0,1,9.5,5.3l21.5,34.7H162.8ZM37.9,163.5a35.4,35.4,0,0,1,35.3-35.3H426.8a35.4,35.4,0,0,1,35.3,35.3V409.4a36.5,36.5,0,0,1-2,11.5H39.9a36.5,36.5,0,0,1-2-11.5Z"/>
      <path id="lense" d="M250,410.8A124.5,124.5,0,0,0,374.4,286.4c0-68.5-55.8-124.3-124.4-124.3S125.6,217.9,125.6,286.4A124.5,124.5,0,0,0,250,410.8ZM250,195a91.5,91.5,0,1,1-91.4,91.4A91.5,91.5,0,0,1,250,195Z"/>
      <path id="lenseReflection" d="M264,356.9V324a50.3,50.3,0,0,1-50.2-50.3H180.9A83.2,83.2,0,0,0,264,356.9Z"/>
      <rect id="rightDash" x="340.6" y="152.1" width="58.6" height="32.94" transform="translate(-10.9 311) rotate(-45)"/>
      <rect id="leftDash" x="109.2" y="143.8" width="32.9" height="58.63" transform="translate(-85.6 139.6) rotate(-45)"/>
    </g>
  </g>
</svg>
