<svg
  xmlns="http://www.w3.org/2000/svg"
  viewBox="0 0 500 500"
  width="500"
  height="500"
  fill="#ffffff"
>
  <path d="M441.5 81.5H241.9L219.3 56c-8.1-9.2-21.6-14.6-36.1-14.6H107a34.8 34.8 0 0 0-34.8 34.8v29.9H39.8A34.8 34.8 0 0 0 5 140.9v264.3a53.5 53.5 0 0 0 53.5 53.4h315.8a53.5 53.5 0 0 0 53.5-53.4v-11.3h13.7a53.5 53.5 0 0 0 53.5-53.4V135a53.6 53.6 0 0 0-53.5-53.5zm-50.2 323.7a17 17 0 0 1-17 17H58.5a17.1 17.1 0 0 1-17.1-17V142.5h74.5c4.9 0 8.2 1.6 8.9 2.4l33.5 37.8h216a17 17 0 0 1 17 17zm67.3-64.7a17.1 17.1 0 0 1-17.1 17h-13.7V199.7a53.6 53.6 0 0 0-53.5-53.5H174.7l-22.6-25.5c-8.1-9.2-21.6-14.6-36.2-14.6h-7.2V77.8h74.5c4.9 0 8.1 1.6 8.8 2.4l33.5 37.8h216a17.1 17.1 0 0 1 17.1 17z" />
</svg>
