<svg
  xmlns="http://www.w3.org/2000/svg"
  viewBox="0 0 500 500"
  width="500"
  height="500"
  fill="#000000"
>
  <path d="M252.64 127.9a66.31 66.31 0 0 1 32.85 8.59l-14.59 7.56 51.73 33.1 2.82-61.35-17.13 8.86c-15-12.46-34.94-19.57-55.68-19.57-44.88 0-81.4 32.33-81.4 72.06h22.81c0-27.15 26.29-49.25 58.59-49.25z" />
  <path d="M311.23 207.54c0 27.16-26.28 49.25-58.59 49.25a66.34 66.34 0 0 1-32.85-8.59l14.59-7.56-51.73-33.1-2.82 61.35L197 260c15 12.47 34.95 19.58 55.68 19.58 44.89 0 81.4-32.32 81.4-72.06z" />
  <path d="M179.75 384.46a49.19 49.19 0 0 0-11.05.94v35.32a39.48 39.48 0 0 0 9.7.94c14.15 0 22.78-6.87 22.78-19.4 0-12-8.49-17.8-21.43-17.8z" />
  <path d="M254.15 384.46a66.09 66.09 0 0 0-13.75 1.22v71.7a74 74 0 0 0 11.86.67c25.07 0 38.69-14 38.69-38.54.13-21.43-11.95-35.05-36.8-35.05z" />
  <path d="M408.93 5H99C64.73 5 36.81 34.5 36.81 70.77v358.46C36.81 465.5 64.73 495 99 495h302c34.31 0 62.23-29.5 62.23-65.77V63.61zm-203 416.12c-6.2 6.61-16.31 10-27.77 10a40.52 40.52 0 0 1-9.43-.81v36.39H157v-89.79a136.29 136.29 0 0 1 22.51-1.75c11.59 0 20.08 2.7 25.47 7.55 5 4.31 8 10.92 8 19-.07 8.23-2.5 14.7-7.08 19.41zm84.24 33.29c-8.5 8.5-22.51 13.08-40.17 13.08a187.63 187.63 0 0 1-21.29-1.08v-89.36a167.59 167.59 0 0 1 24.93-1.89c16.85 0 28.85 3.91 36.79 11.32 8.1 7.42 12.81 17.93 12.81 32.62s-4.61 26.96-13.1 35.31zm77.23-68.73h-37.2v30.19h34.37v9.7h-34.4v41.11h-11.73v-90.85h48.93zm59.32-40.78H73.31V70.77C73.31 54.63 84.85 41.5 99 41.5h276v49.3h51.66z" />
</svg>
