<svg
  xmlns="http://www.w3.org/2000/svg"
  viewBox="0 0 500 500"
  width="500"
  height="500"
  fill="#ffffff"
>
  <path d="M451.5 467.9h-403a43.5 43.5 0 0 1-37.6-65.2L212.4 53.8a43.5 43.5 0 0 1 75.3 0l201.4 348.9a43.5 43.5 0 0 1-37.6 65.2zM250 68.4a6.8 6.8 0 0 0-6.2 3.5l-201.5 349a7.2 7.2 0 0 0 6.2 10.7h403a7 7 0 0 0 6.2-3.5 7.1 7.1 0 0 0 0-7.2l-201.5-349a6.8 6.8 0 0 0-6.2-3.5z" />
  <path d="M230.3 368.5c0-12 8.3-20.7 19.7-20.7s19.7 8.7 19.7 20.7-7.7 20.8-19.7 20.8-19.7-9.1-19.7-20.8zm8.3-47.8l-4.7-160.5h32.2l-4.7 160.5z" />
</svg>
