<svg
  xmlns="http://www.w3.org/2000/svg"
  viewBox="0 0 500 500"
  width="500"
  height="500"
  fill="#ffffff"
>
  <path d="M379.62 481.05a16.58 16.58 0 0 1-3.13-.29l-20.66-3.86a17.07 17.07 0 0 1-13-11.1l-6.32-17.88-18.92 1.47a17 17 0 0 1-15.39-7.34l-11.93-17.32a17.09 17.09 0 0 1-1.27-17.08l8.2-17.08-14.42-12.36a17.07 17.07 0 0 1-5.67-16.1l3.89-20.65a17.09 17.09 0 0 1 11.12-13L310 322.2l-1.46-18.82a17.07 17.07 0 0 1 7.34-15.38l17.38-11.94a17.08 17.08 0 0 1 17-1.32l17.16 8.21 12.34-14.39a17.07 17.07 0 0 1 16.09-5.66l20.71 3.86a17.07 17.07 0 0 1 13 11.09l6.32 17.88 19-1.48a17.15 17.15 0 0 1 15.45 7.42L482.07 319a17.06 17.06 0 0 1 1.27 17L475 353.27l14 12.05a17.06 17.06 0 0 1 5.66 16.08l-3.86 20.66a17.08 17.08 0 0 1-11.11 13l-17.87 6.29 1.48 18.84a17.06 17.06 0 0 1-7.3 15.41l-17.32 11.85a17 17 0 0 1-17 1.32l-16.81-8-12.27 14.3a17.06 17.06 0 0 1-12.98 5.98zm-7.83-35.9l1.27.23 11.12-13a17 17 0 0 1 9.76-5.66l7.2-1.52a17.1 17.1 0 0 1 11.09 1.25l15.25 7.28 1-.73-1.3-16.55a17.05 17.05 0 0 1 2.89-10.93l1.61-2.38c.52-.75.92-1.4 1.33-2.05l1.54-2.44a17 17 0 0 1 8.78-7l15.71-5.53.24-1.28L446.73 374a17 17 0 0 1-5.64-9.73l-.49-2.51c-.12-.56-.24-1.13-.35-1.71l-.72-3.28a17.1 17.1 0 0 1 1.28-11.11l7.5-15.61-.67-1-17.12 1.34a17.15 17.15 0 0 1-10.92-2.9l-6.24-4.14a17.08 17.08 0 0 1-7-8.76l-5.69-16.08-1.35-.26-11 12.79a17 17 0 0 1-10 5.7l-7.67 1.55a17.06 17.06 0 0 1-11.07-1.29l-15.13-7.24-1.12.77 1.28 16.54a17.15 17.15 0 0 1-3 11l-4.4 6.66a17 17 0 0 1-8.87 7.13l-15.65 5.49-.24 1.27 12.64 10.82a17.05 17.05 0 0 1 5.65 9.74l.54 2.82c.19 1 .36 1.8.54 2.63l.6 2.49a17 17 0 0 1-1.21 11.37l-7.17 14.94.74 1.08 16.77-1.31a17 17 0 0 1 10.91 2.89l6.54 4.31a17 17 0 0 1 7.13 8.84z" />
  <path d="M314.58 129.42H93.81c-9 0-16.24-8.73-16.24-19.51S84.84 90.4 93.81 90.4h220.77c9 0 16.24 8.73 16.24 19.51s-7.27 19.51-16.24 19.51z" />
  <path d="M314.58 210.8H93.81c-9 0-16.24-8.73-16.24-19.51s7.27-19.51 16.24-19.51h220.77c9 0 16.24 8.73 16.24 19.51s-7.27 19.51-16.24 19.51z" />
  <path d="M192.31 373.56h-98.5c-9 0-16.24-8.74-16.24-19.52s7.27-19.51 16.24-19.51h98.5c9 0 16.25 8.74 16.25 19.51s-7.28 19.52-16.25 19.52z" />
  <path d="M244.7 410.16H89.44A45.46 45.46 0 0 1 44 364.75V103.39A45.46 45.46 0 0 1 89.44 58H323a45.47 45.47 0 0 1 45.42 45.42v123.4a145.31 145.31 0 0 1 39-.3V103.39A84.54 84.54 0 0 0 323 19H89.44A84.54 84.54 0 0 0 5 103.39v261.36a84.54 84.54 0 0 0 84.44 84.44h171.22a148.21 148.21 0 0 1-15.96-39.03z" />
  <path d="M302.62 253.15H93.81c-9 0-16.24 8.74-16.24 19.52s7.27 19.51 16.24 19.51H265a150.16 150.16 0 0 1 37.62-39.03z" />
  <circle cx="385.94" cy="371.77" r="25.63" />
</svg>
