<svg
  xmlns="http://www.w3.org/2000/svg"
  viewBox="0 0 500 500"
  width="500"
  height="500"
  fill="#000000"
>
  <path d="M439.2 269.8C439.2 374.1 354.3 459 250 459S60.8 374.1 60.8 269.8c0-102.1 81.4-185.6 182.6-189.1l.2 39.4L343 62.2 243.1 5l.2 39.7C122.2 48.3 24.8 147.9 24.8 269.8 24.8 394 125.8 495 250 495s225.2-101 225.2-225.2z" />
  <path d="M186.5 158.6a45 45 0 0 0-44.9 44.9v136.9a45 45 0 0 0 44.9 44.9h127a45 45 0 0 0 44.9-44.9V203.5a45 45 0 0 0-44.9-44.9zm135.8 44.9v136.9a8.8 8.8 0 0 1-8.8 8.8h-127a8.8 8.8 0 0 1-8.8-8.8V203.5a8.8 8.8 0 0 1 8.8-8.9h127a8.8 8.8 0 0 1 8.8 8.9z" />
  <rect x="193.9" y="211.2" width="112" height="36.04" />
  <rect x="195" y="266.3" width="18" height="13.39" />
  <rect data-name="button-sm" x="195" y="292" width="18" height="13.39" />
  <rect data-name="button-sm" x="195" y="318.2" width="18" height="13.39" />
  <rect data-name="button-sm" x="226" y="266.3" width="18" height="13.39" />
  <rect data-name="button-sm" x="226" y="292" width="18" height="13.39" />
  <rect data-name="button-sm" x="226" y="318.2" width="18" height="13.39" />
  <rect data-name="button-sm" x="257.1" y="266.3" width="18" height="13.39" />
  <rect data-name="button-sm" x="257.1" y="292" width="18" height="13.39" />
  <rect data-name="button-sm" x="257.1" y="318.2" width="18" height="13.39" />
  <rect data-name="button-sm" x="288.1" y="266.3" width="18" height="13.39" />
  <rect x="288.1" y="292" width="18" height="39.66" />
</svg>
