<svg xmlns="http://www.w3.org/2000/svg" viewBox="0 0 500 500">
  <defs>
    <style>
      .cls-1 {
        fill: #231f20;
      }
    </style>
  </defs>
  <g id="link">
    <path class="cls-1" d="M290.65,113.58,342,64c20.7-20.69,58.63-16.44,84.55,9.49s30.2,63.86,9.5,84.56L296.9,297.15c-20.69,20.69-58.63,16.44-84.56-9.5-11.48-11.47-12.66-16.24-14.89-26.94l-36.08,36.08c3,8,7.73,12.75,18.41,23.43,43.89,43.88,111,48.14,150,9.13L468.58,190.59C507.23,151.94,503,84.8,459.09,40.91s-111-48.14-150-9.14l-78.71,77A132,132,0,0,1,290.65,113.58Z"/>
    <path class="cls-1" d="M207.53,385.87,158,436c-20.69,20.69-58.63,16.44-84.56-9.5S43.29,362.66,64,342L203.1,202.85c20.69-20.69,58.8-16.61,84.55,9.49,4.13,4.19,14.46,14.16,16.64,24.91L340.6,201c-3.17-4.54-9.49-10.27-20.39-21.17-43.88-43.88-111-48.14-150-9.13L31.42,309.41C-7.23,348.06-3,415.2,40.91,459.09s111,48.14,150,9.14l76.38-77A132.32,132.32,0,0,1,207.53,385.87Z"/>
  </g>
</svg>
