<svg xmlns="http://www.w3.org/2000/svg" viewBox="0 0 500 500">
  <g id="duplicate-action">
    <g id="duplicateIcon">
      <g id="frontSquare">
        <path d="M309.3,487.6H71.8A66.9,66.9,0,0,1,5,420.8V183.3a66.9,66.9,0,0,1,66.8-66.8H309.3a66.9,66.9,0,0,1,66.8,66.8V420.8A66.9,66.9,0,0,1,309.3,487.6ZM71.8,157.4A25.8,25.8,0,0,0,46,183.3V420.8a25.8,25.8,0,0,0,25.8,25.8H309.3a25.9,25.9,0,0,0,25.8-25.8V183.3a25.9,25.9,0,0,0-25.8-25.9Z"/>
      </g>
      <path id="behindSquare" d="M428.2,12.4H190.7a66.9,66.9,0,0,0-66.8,66.8V96h41V79.2a25.9,25.9,0,0,1,25.8-25.8H428.2A25.8,25.8,0,0,1,454,79.2V316.7a25.8,25.8,0,0,1-25.8,25.9H396.6v40.9h31.6A66.9,66.9,0,0,0,495,316.7V79.2A66.9,66.9,0,0,0,428.2,12.4Z"/>
    </g>
  </g>
</svg>
