<svg xmlns="http://www.w3.org/2000/svg" viewBox="0 0 500 500">
  <g id="upload-action">
    <path d="M468.4,200.8c-15.8-16-34.8-23.4-46.8-26.7,1.9-31.7-7.8-60.6-28.2-84.1-15.3-17.7-37.2-32.3-58.6-39.2-42.6-13.1-80.3-10.2-112,8.4-23.8,14-39.3,34.2-48.6,50-14.3-7.6-42.5-17.8-71.4.4s-36.1,41.1-38.1,55C35.4,178.5,5,209.7,5,257.3c0,32,15.1,59.7,43.7,80a111.9,111.9,0,0,0,65.4,20.6H145a18.3,18.3,0,1,0,0-36.5H114.1a75.9,75.9,0,0,1-44.3-13.9C51,294.2,41.5,277.3,41.5,257.3c0-48,44.2-62,46.1-62.5a18.1,18.1,0,0,0,12.9-19.9c-.1-1.3-1.5-19.7,21.8-34.4s44.8,8.1,45.7,9a17.9,17.9,0,0,0,17,4.9,18.4,18.4,0,0,0,13.3-11.8A106,106,0,0,1,226,101.8c25.4-22.9,58.3-28.3,97.9-16.2,3,1,73.7,24.7,59.5,99.9a18.2,18.2,0,0,0,3.5,14.4,18.4,18.4,0,0,0,13,7.2c6,.5,58.6,6.5,58.6,63,0,15-4.2,26.3-13,34.4-19.5,18.1-55.1,15.8-55.5,15.8H363.3a18.3,18.3,0,1,0,0,36.5H388c6,.4,52.4,2.2,82.2-25.3,16.5-15.2,24.8-35.9,24.8-61.3C495,241.9,486.1,218.6,468.4,200.8Z"/>
    <path id="arrow" d="M141.1,294a18.7,18.7,0,0,0,26.3,0l67.4-67.4V457.3h37.1V226.6L339.3,294h0a18.6,18.6,0,1,0,26.3-26.3l-.4-.3L275.8,178a31.9,31.9,0,0,0-45,0l-89.7,89.7A18.5,18.5,0,0,0,141.1,294Z"/>
  </g>
</svg>
