<svg
  xmlns="http://www.w3.org/2000/svg"
  viewBox="0 0 500 500"
  width="500"
  height="500"
  fill="#ffffff"
>
  <path d="M320.2 101.5a95.5 95.5 0 0 0-7.6-37.5h-.2A95.9 95.9 0 0 0 136 64h-.2a95.5 95.5 0 0 0-7.6 37.5v.4a95.5 95.5 0 0 0 7.6 37.5h.2a96 96 0 0 0 176.4 0h.2a95.5 95.5 0 0 0 7.6-37.5v-.4z" />
  <path d="M247.9 354h71.5v-81.3h43.1a87.7 87.7 0 0 0-15.3-17.5C301.1 215.7 224 216.9 224 216.9s-77.1-1.2-123.3 38.3-59.3 161.3-59.3 161.3c74.6 19 146.5 23.1 206.5 21.1z" />
  <path
    d="M384.1 304.1v78.4h74.5v33.3h-74.5v78.4h-35.3v-78.4h-74.4v-33.3h74.4v-78.4z"
    data-name="plus"
  />
</svg>
