<svg
  xmlns="http://www.w3.org/2000/svg"
  viewBox="0 0 500 500"
  width="500"
  height="500"
  fill="#000000"
>
  <circle cx="90.3" cy="223.3" r="21.1" />
  <circle cx="90.3" cy="132.1" r="21.1" />
  <path d="M408.9 202.2a21.1 21.1 0 1 0 21.1 21.1 21 21 0 0 0-21.1-21.1z" />
  <rect
    x="-77.3"
    y="231.4"
    width="655.8"
    height="37.16"
    transform="rotate(-45 250.68 250.065)"
  />
  <path d="M209.5 225.4l88.6-88.6a62.8 62.8 0 1 0-88.6 88.6z" />
  <path d="M53.1 380.5l37.1-37H55.8a14.9 14.9 0 0 1-14.9-14.9H3.8a52 52 0 0 0 49.3 51.9z" />
  <path d="M55.8 307.3h70.5l37.2-37.2H55.8a14.9 14.9 0 0 1-14.9-14.8V100.6a14.9 14.9 0 0 1 14.9-14.9h292.1l37.2-37.1H55.8a52 52 0 0 0-52 52v154.7a52 52 0 0 0 52 52z" />
  <path d="M35.6 398.1H3.8a51.9 51.9 0 0 0 6.5 25.2z" />
  <path d="M459.1 106v149.3a14.9 14.9 0 0 1-14.9 14.8H294.9l-37.2 37.2h186.5a53.2 53.2 0 0 0 14.9-2.2v23.5a14.9 14.9 0 0 1-14.9 14.9H221.6l-37.2 37.2h259.8a53.2 53.2 0 0 0 14.9-2.2v19.6a14.9 14.9 0 0 1-14.9 14.9H152.1l-37.2 37.2h329.3a52.1 52.1 0 0 0 52-52.1V100.6a52.5 52.5 0 0 0-6.5-25.2z" />
</svg>
