<svg xmlns="http://www.w3.org/2000/svg" viewBox="0 0 500 500">
  <g id="action-new-earning">
    <g>
      <path d="M284.28,271.68c0-45.39-24.2-73.09-84.2-94.28-42.84-16.15-60.5-26.72-60.5-43.34,0-14.14,10.61-28.24,43.38-28.24,36.29,0,59.49,11.59,72.59,17.13l14.6-57c-16.62-8.06-39.31-15.11-73.09-16.62V5H147.67V52.88C93.72,63.45,62.46,98.27,62.46,142.62c0,48.88,36.8,74.1,90.75,92.26,37.3,12.59,53.42,24.68,53.42,43.85,0,20.18-19.64,31.26-48.38,31.26-32.77,0-62.52-10.58-83.7-22.2l-15.11,59c19.14,11.12,51.91,20.18,85.71,21.69v47.88h49.39V365C252.52,354.84,284.28,316.53,284.28,271.68Z"/>
      <polygon points="440.56 383.64 368.35 383.64 368.35 311.44 329.2 311.44 329.2 383.64 256.99 383.64 256.99 422.79 329.2 422.79 329.2 495 368.35 495 368.35 422.79 440.56 422.79 440.56 383.64"/>
    </g>
  </g>
</svg>
