<svg xmlns="http://www.w3.org/2000/svg" viewBox="0 0 500 500">
  <g id="action-tasks">
    <path id="line-3" d="M472.31,412.73h-.1L206,414a20.95,20.95,0,0,0,.1,41.89h.1l266.23-1.27a20.94,20.94,0,0,0-.09-41.88Z"/>
    <path id="line-2" d="M472.31,220.05h-.1L206,221.32a20.95,20.95,0,0,0,.1,41.89h.1l266.23-1.27a20.95,20.95,0,0,0-.09-41.89Z"/>
    <path id="line-1" d="M206.07,79.25h.1L472.4,78a20.95,20.95,0,0,0-.09-41.89h-.1L206,37.36a20.95,20.95,0,0,0,.1,41.89Z"/>
    <path id="x-2" d="M117.93,375.23a20.94,20.94,0,0,0-29.63,0L69.54,394,50.77,375.23a20.94,20.94,0,1,0-29.62,29.61l18.77,18.77L21.15,442.38A20.94,20.94,0,1,0,50.77,472l18.77-18.77L88.3,472a20.95,20.95,0,1,0,29.63-29.62L99.16,423.61l18.77-18.77A20.94,20.94,0,0,0,117.93,375.23Z"/>
    <path id="x-1" d="M117.93,193.38a20.94,20.94,0,0,0-29.62,0L69.54,212.14,50.77,193.38A20.94,20.94,0,0,0,21.15,223l18.77,18.77L21.15,260.53a20.94,20.94,0,0,0,29.62,29.62l18.77-18.77,18.77,18.77a20.94,20.94,0,0,0,29.62-29.62L99.16,241.76,117.93,223A20.93,20.93,0,0,0,117.93,193.38Z"/>
    <path id="check" d="M100,22.86,54.43,69.1,38.89,53.79A20.95,20.95,0,0,0,9.5,83.65l30.47,30a20.93,20.93,0,0,0,29.61-.23l60.23-61.16A20.95,20.95,0,0,0,100,22.86Z"/>
  </g>
</svg>
