<svg
  xmlns="http://www.w3.org/2000/svg"
  viewBox="0 0 500 500"
  width="500"
  height="500"
  fill="#ffffff"
>
  <rect x="288.3" y="63.8" width="39.2" height="95.06" />
  <path d="M366.4 5H47.2v457.3A32.7 32.7 0 0 0 79.9 495h344.2a32.7 32.7 0 0 0 32.7-32.7V95.5zM145.2 44.2h200.9v134.3H145.2zm272.4 429.2H86.4V319.6h331.2z" />
  <path d="M114.8 367.6h274.3a9.8 9.8 0 1 0 .2-19.6H115.1a9.8 9.8 0 1 0-.3 19.6z" />
  <path d="M114.8 406.8h274.3a9.8 9.8 0 1 0 .2-19.6H115.1a9.8 9.8 0 1 0-.3 19.6z" />
  <path d="M115.3 444h131.3a9.8 9.8 0 1 0 .2-19.6H115.5a10 10 0 0 0-9.8 7.6 9.8 9.8 0 0 0 9.6 12z" />
</svg>
