<svg
  xmlns="http://www.w3.org/2000/svg"
  viewBox="0 0 500 500"
  width="500"
  height="500"
  fill="#ffffff"
>
  <path d="M356.4 236.2a101.9 101.9 0 1 0-36.7 78.1l92.6 92.6 23.2-23.3-94.3-94.3a100.4 100.4 0 0 0 15.2-53.1zM254.6 305a68.9 68.9 0 1 1 68.8-68.8 68.9 68.9 0 0 1-68.8 68.8z" />
  <path d="M485.4 211.7C411.6 133 333 93.1 251.7 93.1h-1.8c-116.2.8-203.5 83-235.6 118.3a36 36 0 0 0 .3 48.6c84 89.6 164.6 118.6 233.7 118.6 33.8 0 64.7-6.9 92-17l-25.9-25.9c-94.7 29.1-187.3-3.8-275.8-98.2a3 3 0 0 1 0-4C67.8 201.4 147 126.7 250.1 126h1.6c71.8 0 142.3 36.4 209.6 108.2a3 3 0 0 1 0 4.1 383.9 383.9 0 0 1-78.7 65.8l23.8 23.8a419 419 0 0 0 79.2-67.4 36.1 36.1 0 0 0-.2-48.8z" />
</svg>
