<svg xmlns="http://www.w3.org/2000/svg" viewBox="0 0 500 500">
  <g id="view-history-action">
    <g id="historyIcon">
      <polygon id="clockHands" points="238.3 140.2 238.3 249.7 329.7 341.2 355.8 315.1 275.2 234.4 275.2 140.2 238.3 140.2"/>
      <path id="circleArrow" d="M256.7,11.7A237.7,237.7,0,0,0,34,165.2L5,159.8,36.9,250l62.2-72.7L71,172.1A200.8,200.8,0,0,1,256.7,48.6C367.8,48.6,458.1,139,458.1,250S367.8,451.4,256.7,451.4A200.5,200.5,0,0,1,60.9,296.9L25,305.5C50.6,413.1,145.9,488.3,256.7,488.3,388.1,488.3,495,381.4,495,250S388.1,11.7,256.7,11.7Z"/>
    </g>
  </g>
</svg>
