<svg
  xmlns="http://www.w3.org/2000/svg"
  viewBox="0 0 500 500"
  width="500"
  height="500"
  fill="#ffffff"
>
  <path d="M463.1 447.4H251.8a31.9 31.9 0 0 1-27.7-47.6l105.6-186.1a32 32 0 0 1 55.5 0l105.6 186.1a31.9 31.9 0 0 1-27.7 47.6zM254 414.3h206.9L357.5 232z" />
  <path d="M343.9 381.6c0-7.2 5.1-12.4 12.3-12.4s12.1 5.2 12.2 12.4-4.8 12.5-12.2 12.5-12.3-5.3-12.3-12.5zm4.5-30.1l-3.1-62h21.8l-3.1 62z" />
  <path d="M232.6 346.7H46.3a13 13 0 0 1-13.1-13.1V130.7h57.5c3.8 0 6.3 1.3 6.8 1.8l25.9 29.2h166.9a13.2 13.2 0 0 1 13.1 13.2V222l10.2-18a52 52 0 0 1 18-18.4v-10.7a41.3 41.3 0 0 0-41.3-41.3H136.1l-17.5-19.7c-6.2-7.1-16.7-11.3-27.9-11.3h-5.6V80.8h57.5c3.8 0 6.3 1.2 6.9 1.7l25.9 29.3h166.8a13.2 13.2 0 0 1 13.2 13.1v53.5h2.4a50.8 50.8 0 0 1 25.7 7v-60.5a41.3 41.3 0 0 0-41.3-41.3H188l-17.5-19.7c-6.2-7.1-16.6-11.3-27.9-11.3H83.8a27 27 0 0 0-26.9 26.9v23.1h-25A26.9 26.9 0 0 0 5 129.5v204.1a41.3 41.3 0 0 0 41.3 41.3h170.3z" />
</svg>
