<svg
  xmlns="http://www.w3.org/2000/svg"
  viewBox="0 0 500 500"
  width="500"
  height="500"
  fill="#ffffff"
>
  <rect x="171.7" y="320.6" width="38" height="104.89" />
  <rect x="306.8" y="320.6" width="38" height="104.89" />
  <rect x="239.2" y="320.6" width="38" height="104.89" />
  <path d="M452 254.6H73.6v38.1h27.6v159.5A42.8 42.8 0 0 0 144 495h228.5a42.8 42.8 0 0 0 42.8-42.8V292.7H452zm-74.8 197.6a4.8 4.8 0 0 1-4.7 4.8H144a4.8 4.8 0 0 1-4.7-4.8V292.7h237.9z" />
  <polygon points="390.4 235.9 347.8 193.4 320.2 221 262.4 163.2 205 220.6 177.7 193.4 135.2 235.9 390.4 235.9" />
  <path d="M86.1 192a38 38 0 0 0 3.7 3.3L48 237.1h53.3L306.8 31.7 280.1 5l-53.3 53.3a39 39 0 0 0-3.3-3.8l-17.8-17.8a43 43 0 0 0-60.8 0l-76.6 76.6a43.1 43.1 0 0 0 0 60.9zm9.1-51.8l76.6-76.6a5 5 0 0 1 7 0l17.8 17.8a5 5 0 0 1 0 7.1L120 165.1a5 5 0 0 1-7 0l-17.8-17.8a5 5 0 0 1 0-7.1z" />
</svg>
