<svg
  xmlns="http://www.w3.org/2000/svg"
  viewBox="0 0 500 500"
  width="500"
  height="500"
  fill="#000000"
>
  <path d="M313 286.55l-83.5 83.5-37.73-37.73a13.87 13.87 0 1 0-19.61 19.61l47.54 47.54a13.87 13.87 0 0 0 19.61 0l93.3-93.31A13.87 13.87 0 0 0 313 286.55z" />
  <path d="M415.91 203.08H400.2l-109-109a49.58 49.58 0 1 0-82.47 0l-109 109H84.1A79.18 79.18 0 0 0 5 282.17v121.67a79.18 79.18 0 0 0 79.1 79.09h331.81A79.18 79.18 0 0 0 495 403.84V282.17a79.18 79.18 0 0 0-79.09-79.09zM250 36.53a30.11 30.11 0 1 1-30.11 30.11A30.15 30.15 0 0 1 250 36.53zm-27.47 71.35a49.46 49.46 0 0 0 54.94 0l95.21 95.2H127.32zm244.73 296a51.4 51.4 0 0 1-51.35 51.35H84.1a51.41 51.41 0 0 1-51.36-51.35V282.17a51.41 51.41 0 0 1 51.36-51.35h15.23l.13.12.12-.12h316.33a51.4 51.4 0 0 1 51.35 51.35z" />
</svg>
