<svg xmlns="http://www.w3.org/2000/svg" viewBox="0 0 500 500">
  <g id="notes-with-previous-existing-action">
    <g id="notesWithPreviousIcon">
      <path id="noteBubble" d="M229.7,474.7C105.8,474.7,5,373.9,5,250S105.8,25.3,229.7,25.3,454.5,126.1,454.5,250a224.7,224.7,0,0,1-13,75.4L495,472.8,340.7,445.5A225,225,0,0,1,229.7,474.7Zm0-413.8C125.4,60.9,40.6,145.7,40.6,250s84.8,189.1,189.1,189.1a189.2,189.2,0,0,0,98.4-27.5l5.7-3.5L440.5,427l-37-101.9,2.4-6.3a188.1,188.1,0,0,0,13-68.8C418.9,145.7,334,60.9,229.7,60.9Z"/>
      <path id="fullLine2" d="M346.8,189.3h-232A19.9,19.9,0,0,1,95,172.5a19.7,19.7,0,0,1,19.5-22.6H346.4a19.9,19.9,0,0,1,19.8,16.8A19.6,19.6,0,0,1,346.8,189.3Z"/>
      <path id="fullLine1" d="M346.8,270h-232A19.9,19.9,0,0,1,95,253.2a19.7,19.7,0,0,1,19.5-22.6H346.4a19.9,19.9,0,0,1,19.8,16.8A19.7,19.7,0,0,1,346.8,270Z"/>
      <path id="halfLine" d="M230.8,350.7H115a19.7,19.7,0,1,1-.3-39.4H230.5a19.9,19.9,0,0,1,19.8,16.8A19.7,19.7,0,0,1,230.8,350.7Z"/>
    </g>
  </g>
</svg>
