<svg xmlns="http://www.w3.org/2000/svg" viewBox="0 0 500 500">
  <g id="action-files-discrepency">
    <g id="error-triangle">
      <path id="triangle" d="M463.1,447.4H251.8a31.9,31.9,0,0,1-27.7-47.6L329.7,213.7a32,32,0,0,1,55.5,0L490.8,399.8a31.9,31.9,0,0,1-27.7,47.6ZM254,414.3H460.9L357.5,232Z"/>
      <path id="excamation-point" d="M343.9,381.6c0-7.2,5.1-12.4,12.3-12.4s12.1,5.2,12.2,12.4-4.8,12.5-12.2,12.5S343.9,388.8,343.9,381.6Zm4.5-30.1-3.1-62h21.8l-3.1,62Z"/>
    </g>
    <path id="outline" d="M232.6,346.7H46.3a13,13,0,0,1-13.1-13.1V130.7H90.7c3.8,0,6.3,1.3,6.8,1.8l25.9,29.2H290.3a13.2,13.2,0,0,1,13.1,13.2V222l10.2-18a52,52,0,0,1,18-18.4V174.9a41.3,41.3,0,0,0-41.3-41.3H136.1l-17.5-19.7c-6.2-7.1-16.7-11.3-27.9-11.3H85.1V80.8h57.5c3.8,0,6.3,1.2,6.9,1.7l25.9,29.3H342.2a13.2,13.2,0,0,1,13.2,13.1v53.5h2.4a50.8,50.8,0,0,1,25.7,7V124.9a41.3,41.3,0,0,0-41.3-41.3H188L170.5,63.9c-6.2-7.1-16.6-11.3-27.9-11.3H83.8A27,27,0,0,0,56.9,79.5v23.1h-25A26.9,26.9,0,0,0,5,129.5V333.6a41.3,41.3,0,0,0,41.3,41.3H216.6Z"/>
  </g>
</svg>
