<svg xmlns="http://www.w3.org/2000/svg" viewBox="0 0 500 500">
  <defs>
    <style>
      .cls-1 {
        fill: #231f20;
      }
    </style>
  </defs>
  <g id="action-flip">
    <polygon id="double-arrow" class="cls-1" points="178.1 94.94 312.95 94.94 312.95 137.74 420.89 75.41 312.95 13.08 312.95 55.88 178.1 55.88 178.1 13.08 70.16 75.41 178.1 137.74 178.1 94.94"/>
    <path id="left-shape" class="cls-1" d="M195.81,175H161.26a29.4,29.4,0,0,0-26,15.69L8.43,443.83a29.39,29.39,0,0,0,26,43.09H195.81a29.39,29.39,0,0,0,29.39-29.39V204.37A29.39,29.39,0,0,0,195.81,175Z"/>
    <path id="right-shape" class="cls-1" d="M491.57,443.83,364.74,190.67a29.4,29.4,0,0,0-26-15.69H304.19a29.39,29.39,0,0,0-29.39,29.39V457.53a29.39,29.39,0,0,0,29.39,29.39H465.57A29.39,29.39,0,0,0,491.57,443.83Z"/>
  </g>
</svg>
