<svg
  xmlns="http://www.w3.org/2000/svg"
  viewBox="0 0 500 500"
  width="500"
  height="500"
  fill="#ffffff"
>
  <polygon points="238.3 140.2 238.3 249.7 329.7 341.2 355.8 315.1 275.2 234.4 275.2 140.2 238.3 140.2" />
  <path d="M256.7 11.7A237.7 237.7 0 0 0 34 165.2l-29-5.4L36.9 250l62.2-72.7-28.1-5.2A200.8 200.8 0 0 1 256.7 48.6c111.1 0 201.4 90.4 201.4 201.4s-90.3 201.4-201.4 201.4A200.5 200.5 0 0 1 60.9 296.9L25 305.5c25.6 107.6 120.9 182.8 231.7 182.8C388.1 488.3 495 381.4 495 250S388.1 11.7 256.7 11.7z" />
</svg>
