<svg
  xmlns="http://www.w3.org/2000/svg"
  viewBox="0 0 500 500"
  width="500"
  height="500"
  fill="#000000"
>
  <path d="M247.7 495c-58.4 0-125.4-5.3-194.9-21.1L35.6 470l2.1-17.6c1.6-12.6 16.6-124.8 70.3-165.9s138.8-40.3 142.3-40.3 88.3-.7 141.8 40.3c5.6 4.3 55.7 45.8 70.2 165.9l2.1 17.2-16.8 4.2c-5 1.3-86.4 21.2-199.9 21.2zM79.4 439.5c152.9 30.9 293.3 9.3 341.2 0-6.7-37-23.3-99.6-52.4-121.9-42.6-32.6-117.1-32.1-117.9-32.2s-75.9-.5-118.5 32.2c-29.1 22.3-45.7 84.9-52.4 121.9z" />
  <path d="M250 216.9c-58.4 0-105.9-47.6-105.9-106A106 106 0 0 1 250 5c58.4 0 106 47.5 106 105.9a106.2 106.2 0 0 1-106 106zm0-172.7a66.8 66.8 0 1 0 66.7 66.7A66.7 66.7 0 0 0 250 44.2z" />
</svg>
