<svg
  xmlns="http://www.w3.org/2000/svg"
  viewBox="0 0 500 500"
  width="500"
  height="500"
  fill="#000000"
>
  <rect x="302.4" y="114" width="41.4" height="273.41" />
  <rect x="189.2" y="114" width="42.2" height="273.41" />
  <path d="M440.1 7H85.9a55 55 0 0 0-54.5 48.9h-3.7a22.8 22.8 0 0 0 0 45.5h3.4v12.3h-3.4a22.8 22.8 0 0 0 0 45.5h3.4v12.3h-3.4a22.8 22.8 0 0 0 0 45.5h3.4v12.3h-3.4a22.8 22.8 0 0 0 0 45.5h3.4v12.3h-3.4a22.8 22.8 0 0 0 0 45.5h3.4v12.3h-3.4a22.8 22.8 0 0 0 0 45.5h3.4v12.3h-3.4a22.8 22.8 0 0 0 0 45.5H32A55 55 0 0 0 85.9 493h354.2a54.9 54.9 0 0 0 54.9-54.9V61.9A54.9 54.9 0 0 0 440.1 7zM69.3 448.2a22.8 22.8 0 0 0 0-45.5h-3.1v-12.3h3.1a22.8 22.8 0 0 0 0-45.5h-3.1v-12.3h3.1a22.8 22.8 0 0 0 0-45.5h-3.1v-12.3h3.1a22.8 22.8 0 0 0 0-45.5h-3.1V217h3.1a22.8 22.8 0 0 0 0-45.5h-3.1v-12.3h3.1a22.8 22.8 0 0 0 0-45.5h-3.1v-12.3h3.1a22.8 22.8 0 0 0 0-45.5h-2.2a19.7 19.7 0 0 1 18.8-13.8h354.2a19.8 19.8 0 0 1 19.8 19.8v376.2a19.8 19.8 0 0 1-19.8 19.8H85.9a19.7 19.7 0 0 1-17-9.7z" />
</svg>
