<svg xmlns="http://www.w3.org/2000/svg" viewBox="0 0 500 500">
  <g id="preferences-action">
    <path id="cog" d="M248.9,495l-87.7-16.4-21.5-60.7-64.3,5L25,349.4l28.2-58.6L5,249.6l16.4-87.5,60.8-21.4L77.3,76.5l73.6-50.2,57.3,27.3L250,5l87.7,16.4,21.4,60.7,64.3-5,50.5,73.5-27.9,58,49,42-16.4,87.5-60.9,21.3,5,64.2-73.6,50.3-58.2-27.8Zm-60.2-48.5,46.1,8.6L273.5,410l6.3-1.1,6.2-1.3,6.3-1.4,53.5,25.6,38.7-26.5-4.6-58.7,3.7-5.3,3.8-5.7,3.4-5.5,55.6-19.5,8.6-46-44.8-38.3L409,220c-.4-2.3-.9-4.5-1.4-6.8l-1.5-6.3,25.5-53.1-26.5-38.6-59.2,4.6-5.3-3.6-5.2-3.3-5.5-3.4-19.8-56-46-8.6L225,90.4l-6.3,1.2-4.7,1L207.8,94,154.1,68.4,115.5,94.8l4.5,58.8-3.6,5.3c-1.3,1.9-2.5,3.8-3.7,5.7l-3.4,5.4L53.6,189.6l-8.6,46,44.7,38.3,1.2,6.3c.4,1.7.7,3.5,1.1,5.3l1.4,6.2L67.2,346.2l26.5,38.6,60.1-4.7,5.3,3.6,4.3,2.9,5.4,3.4Z"/>
    <path id="circle" d="M250.2,339.1a84.9,84.9,0,0,1-16.6-1.6,89,89,0,1,1,104-71h0a89.1,89.1,0,0,1-87.4,72.6Zm-.3-141.4a52.3,52.3,0,1,0,51.7,62h0a52.2,52.2,0,0,0-42-61A45.7,45.7,0,0,0,249.9,197.7Z"/>
  </g>
</svg>
