<svg xmlns="http://www.w3.org/2000/svg" viewBox="0 0 500 500" fill="#000000">
  <path d="M392.15 495h-284.3A84.92 84.92 0 0 1 23 410.18V89.82A84.92 84.92 0 0 1 107.85 5h284.3A84.92 84.92 0 0 1 477 89.82v320.36A84.92 84.92 0 0 1 392.15 495zM107.85 44.2a45.67 45.67 0 0 0-45.62 45.62v320.36a45.67 45.67 0 0 0 45.62 45.62h284.3a45.67 45.67 0 0 0 45.62-45.62V89.82a45.67 45.67 0 0 0-45.62-45.62z" />
  <path d="M391.89 135.83h-.08l-148.87-.55a19.6 19.6 0 0 1 .07-39.2h.08l148.91.55a19.6 19.6 0 0 1-.07 39.2z" />
  <path d="M147.76 173.36h-.21a55.78 55.78 0 1 1 56-55.57 55.84 55.84 0 0 1-55.79 55.57zm0-72.36a16.58 16.58 0 0 0-.06 33.16h.06a16.6 16.6 0 0 0 16.59-16.51A16.59 16.59 0 0 0 147.82 101zm36.19 16.72z" />
  <path d="M391.87 267.26h-.08l-148.87-.55a19.6 19.6 0 0 1 .07-39.2h.08l148.87.55a19.6 19.6 0 0 1-.07 39.2z" />
  <path d="M147.76 304.79h-.21a55.78 55.78 0 0 1 .2-111.55h.25a55.77 55.77 0 0 1 55.58 56 55.84 55.84 0 0 1-55.82 55.55zm0-72.35a16.58 16.58 0 0 0-.06 33.15h.06a16.6 16.6 0 0 0 16.59-16.51 16.59 16.59 0 0 0-16.52-16.64zm36.19 16.71z" />
  <path d="M391.92 358.3l-148.87-.55H243a19.6 19.6 0 0 0-.07 39.2l148.87.55h.08a19.6 19.6 0 0 0 .07-39.2z" />
  <path d="M147.76 435h-.21a55.78 55.78 0 0 1 .2-111.55h.25a55.77 55.77 0 0 1 55.58 56A55.84 55.84 0 0 1 147.76 435zm0-72.35a16.58 16.58 0 0 0-.06 33.15h.06a16.6 16.6 0 0 0 16.59-16.51 16.59 16.59 0 0 0-16.52-16.64zm36.19 16.71z" />
</svg>
