<svg xmlns="http://www.w3.org/2000/svg" viewBox="0 0 500 500">
  <g id="activate-action">
    <g id="activateIcon">
      <path id="ring" d="M250,5C114.9,5,5,114.9,5,250S114.9,495,250,495,495,385.1,495,250,385.1,5,250,5Zm0,450.7C136.6,455.7,44.3,363.5,44.3,250S136.6,44.3,250,44.3,455.7,136.5,455.7,250,363.4,455.7,250,455.7Z"/>
      <path id="playTriangle" d="M376.5,234,193.6,104.8a19.6,19.6,0,0,0-30.9,16.1V379.1a19.7,19.7,0,0,0,10.6,17.5,20.3,20.3,0,0,0,9,2.2,20,20,0,0,0,11.3-3.6L376.5,266a19.6,19.6,0,0,0,0-32Z"/>
    </g>
  </g>
</svg>
