<svg xmlns="http://www.w3.org/2000/svg" viewBox="0 0 500 500">
  <g id="edit-action">
    <path id="editIcon" d="M396.8,5l-.6.6-19,19L258.3,143.5,137,264.8,59.1,342.7,42.8,359l-3.4,3.4L23.2,378.6,5,495l116.4-18.2,16.2-16.2,3.4-3.4,16.3-16.3,78.3-78.3L356.5,241.7,475.4,122.8l19-19,.6-.6C470.5,21.2,396.8,5,396.8,5ZM63.2,455.6c-1.9-13.2-10.6-17.7-18.7-19l7.2-46.4a141.8,141.8,0,0,1,58,58.1ZM336.8,222.1,216,342.9l-86.4,86.4A140,140,0,0,0,114,405.7L317.2,202.5l-19.7-19.7L94.3,386.1a146.5,146.5,0,0,0-23.5-15.8L277.9,163.2h0l29.9-29.9,58.9,58.9Zm49.6-49.6-58.9-58.9L347.1,94,406,152.9Zm39.3-39.2-59-59,38.5-38.4a141.7,141.7,0,0,1,58.8,59Z"/>
  </g>
</svg>
