<svg
  xmlns="http://www.w3.org/2000/svg"
  viewBox="0 0 500 500"
  width="500"
  height="500"
  fill="#000000"
>
  <rect x="158.9" y="154" width="40.2" height="268.52" />
  <rect x="301" y="154" width="40.2" height="268.52" />
  <rect x="230.4" y="154" width="40.2" height="268.52" />
  <path d="M478.3 81.4H351.6a44.1 44.1 0 0 0 .3-5.2V50a45 45 0 0 0-45-45H193.1a45 45 0 0 0-45 45v26.2a45.3 45.3 0 0 0 .3 5.2H21.7v40.2h65.1a44.6 44.6 0 0 0-.5 6.3v322.4a44.8 44.8 0 0 0 44.8 44.7h238.8a44.7 44.7 0 0 0 44.7-44.7V128a44.8 44.8 0 0 0-.5-6.4h64.2zm-290-5.2V49.4a5.2 5.2 0 0 1 5.2-5.2h113a5.2 5.2 0 0 1 5.2 5.2v26.8a5.2 5.2 0 0 1-5.2 5.2h-113a5.2 5.2 0 0 1-5.2-5.2zm181.2 378.6h-239a5 5 0 0 1-5-4.9V127.5a5 5 0 0 1 5-4.9h239a5 5 0 0 1 5 4.9v322.4a5 5 0 0 1-5 4.9z" />
</svg>
