<svg
  xmlns="http://www.w3.org/2000/svg"
  viewBox="0 0 500 500"
  width="500"
  height="500"
  fill="#000000"
>
  <path d="M396.8 5l-.6.6-19 19-118.9 118.9L137 264.8l-77.9 77.9L42.8 359l-3.4 3.4-16.2 16.2L5 495l116.4-18.2 16.2-16.2 3.4-3.4 16.3-16.3 78.3-78.3 120.9-120.9 118.9-118.9 19-19 .6-.6C470.5 21.2 396.8 5 396.8 5zM63.2 455.6c-1.9-13.2-10.6-17.7-18.7-19l7.2-46.4a141.8 141.8 0 0 1 58 58.1zm273.6-233.5L216 342.9l-86.4 86.4a140 140 0 0 0-15.6-23.6l203.2-203.2-19.7-19.7L94.3 386.1a146.5 146.5 0 0 0-23.5-15.8l207.1-207.1 29.9-29.9 58.9 58.9zm49.6-49.6l-58.9-58.9L347.1 94l58.9 58.9zm39.3-39.2l-59-59 38.5-38.4a141.7 141.7 0 0 1 58.8 59z" />
</svg>
