<svg xmlns="http://www.w3.org/2000/svg" viewBox="0 0 500 500">
  <g id="post-to-applicant-pool">
    <path id="applicants-outline" d="M339.4,5H160.6A78.61,78.61,0,0,0,82.07,83.53V285.3a78.61,78.61,0,0,0,78.53,78.53H339.4a78,78,0,0,0,42.24-12.43v.6a38.94,38.94,0,0,1-38.89,38.89H157.25c-30.53,0-38.89-5.16-38.89-24H82.07c0,60.3,56.59,60.3,75.18,60.3h185.5a74.63,74.63,0,0,0,38.89-11v3.59a38.93,38.93,0,0,1-38.89,38.89H157.25c-30.53,0-38.89-5.16-38.89-24H82.07c0,60.3,56.59,60.3,75.18,60.3h185.5a75.27,75.27,0,0,0,75.18-75.19V83.53A78.61,78.61,0,0,0,339.4,5Zm42.24,206.36V285.3a42.29,42.29,0,0,1-42.24,42.24H160.6a42.29,42.29,0,0,1-42.24-42.24V83.53A42.28,42.28,0,0,1,160.6,41.3H339.4a42.28,42.28,0,0,1,42.24,42.23V211.36Z"/>
    <path id="body" d="M295.34,172.71s-3.28-30.26-14.73-40S250,123.19,250,123.19s-19.17-.29-30.61,9.49-14.73,40-14.73,40C252.21,184.77,295.34,172.71,295.34,172.71Z"/>
    <path id="head" d="M228.23,99.62a23.67,23.67,0,0,0,43.54,0h.05a23.78,23.78,0,0,0,1.88-9.27v-.09A23.85,23.85,0,0,0,271.82,81h-.05a23.69,23.69,0,0,0-43.54,0h0a23.85,23.85,0,0,0-1.88,9.27v.09a23.78,23.78,0,0,0,1.88,9.27Z"/>
    <path id="top-line" d="M337.92,203.78H162.08a18.15,18.15,0,1,0,0,36.3H337.92a18.15,18.15,0,0,0,0-36.3Z"/>
    <path id="bottom-line" d="M252.75,261.5H162.08a18.15,18.15,0,1,0,0,36.29h90.67a18.15,18.15,0,1,0,0-36.29Z"/>
  </g>
</svg>
