<svg xmlns="http://www.w3.org/2000/svg" viewBox="0 0 500 500">
  <g id="inactive-contact-action">
    <rect id="line2" x="302.4" y="114" width="41.4" height="273.41"/>
    <rect id="line1" x="189.2" y="114" width="42.2" height="273.41"/>
    <path id="outline" d="M440.1,7H85.9A55,55,0,0,0,31.4,55.9H27.7a22.8,22.8,0,0,0,0,45.5h3.4v12.3H27.7a22.8,22.8,0,0,0,0,45.5h3.4v12.3H27.7a22.8,22.8,0,0,0,0,45.5h3.4v12.3H27.7a22.8,22.8,0,0,0,0,45.5h3.4v12.3H27.7a22.8,22.8,0,0,0,0,45.5h3.4v12.3H27.7a22.8,22.8,0,0,0,0,45.5h3.4v12.3H27.7a22.8,22.8,0,0,0,0,45.5H32A55,55,0,0,0,85.9,493H440.1A54.9,54.9,0,0,0,495,438.1V61.9A54.9,54.9,0,0,0,440.1,7ZM69.3,448.2a22.8,22.8,0,0,0,0-45.5H66.2V390.4h3.1a22.8,22.8,0,0,0,0-45.5H66.2V332.6h3.1a22.8,22.8,0,0,0,0-45.5H66.2V274.8h3.1a22.8,22.8,0,0,0,0-45.5H66.2V217h3.1a22.8,22.8,0,0,0,0-45.5H66.2V159.2h3.1a22.8,22.8,0,0,0,0-45.5H66.2V101.4h3.1a22.8,22.8,0,0,0,0-45.5H67.1A19.7,19.7,0,0,1,85.9,42.1H440.1a19.8,19.8,0,0,1,19.8,19.8V438.1a19.8,19.8,0,0,1-19.8,19.8H85.9a19.7,19.7,0,0,1-17-9.7Z"/>
  </g>
</svg>
