<svg
  xmlns="http://www.w3.org/2000/svg"
  viewBox="0 0 500 500"
  width="500"
  height="500"
  fill="#ffffff"
>
  <path d="M214.1 336.8h-89c-12.6-44-18.1-104.4 3.9-177.6h82.3a15.3 15.3 0 0 0 15.2-15.2V20.3a15.4 15.4 0 0 0-15.2-15.2H87.6A15.1 15.1 0 0 0 73 16.3c-139.2 248.6-26.3 425.7 3.1 465a16.6 16.6 0 0 0 5.2 6.8l1.2 1.1.4-.3a14.6 14.6 0 0 0 7.4 1.9h123.6a15.2 15.2 0 0 0 15.1-15V352.1a15.1 15.1 0 0 0-14.9-15.3z" />
  <polygon points="495 360.7 399.6 360.7 399.6 265.3 360.8 265.3 360.8 360.7 265.4 360.7 265.4 399.5 360.8 399.5 360.8 494.9 399.6 494.9 399.6 399.5 495 399.5 495 360.7" />
</svg>
