<svg xmlns="http://www.w3.org/2000/svg" viewBox="0 0 500 500">
  <g id="action-apply-to-all">
    <path id="box-outline" d="M382.09,286.62V411.39a37.37,37.37,0,0,1-37.33,37.33H82.31A37.36,37.36,0,0,1,45,411.39V148.94a37.37,37.37,0,0,1,37.33-37.33H243.7l40-40H82.31A77.4,77.4,0,0,0,5,148.94V411.39A77.4,77.4,0,0,0,82.31,488.7H344.76a77.4,77.4,0,0,0,77.31-77.31V246.64Z"/>
    <path id="pencil" d="M475,91.42l-180,180a143.6,143.6,0,0,0-16-24l176-176-20-20-176,176a149.45,149.45,0,0,0-24-16.09L374.66,71.55l40.22-40.22-20-20L223,183.14l-16.65,16.65-3.5,3.5-16.53,16.53L167.8,338.5,286.48,320,303,303.44l3.5-3.5,16.65-16.65L403,203.42l92-92ZM227.21,298.27c-2-13.4-10.87-18-19.16-19.32l7.39-47.33a144.39,144.39,0,0,1,59.1,59.26Z"/>
  </g>
</svg>
