<svg
  xmlns="http://www.w3.org/2000/svg"
  viewBox="0 0 500 500"
  width="500"
  height="500"
  fill="#000000"
>
  <path d="M400.3 495H99.7a78.7 78.7 0 0 1-78.6-78.5v-333A78.7 78.7 0 0 1 99.7 5h300.6a78.7 78.7 0 0 1 78.6 78.5v333a78.7 78.7 0 0 1-78.6 78.5zM99.7 41.3a42.3 42.3 0 0 0-42.3 42.2v333a42.3 42.3 0 0 0 42.3 42.2h300.6a42.3 42.3 0 0 0 42.3-42.2v-333a42.3 42.3 0 0 0-42.3-42.2z" />
  <rect x="125.4" y="355" width="36.3" height="49.67" />
  <rect x="202.3" y="305.3" width="36.3" height="99.34" />
  <rect x="279.2" y="203.1" width="36.3" height="198.67" />
  <rect x="356.1" y="124" width="36.3" height="277.72" />
  <polygon points="287.2 95.4 217.3 114.1 230 126.8 112.9 243.9 138.6 269.6 255.7 152.5 268.4 165.3 287.2 95.4" />
</svg>
