<svg
  xmlns="http://www.w3.org/2000/svg"
  viewBox="0 0 500 500"
  width="500"
  height="500"
  fill="#ffffff"
>
  <path d="M363.33 495a18 18 0 0 1-3.17-.29l-22.25-4.16a17.26 17.26 0 0 1-13.1-11.22l-7.09-20.08-21.26 1.65a17.25 17.25 0 0 1-15.55-7.42l-12.86-18.66a17.28 17.28 0 0 1-1.34-17.26l9.21-19.19-16.19-13.88a17.27 17.27 0 0 1-5.73-16.27l4.15-22.22a17.23 17.23 0 0 1 11.25-13.11l20.11-7.06-1.64-21.14a17.24 17.24 0 0 1 7.44-15.56l18.69-12.9a17.28 17.28 0 0 1 17.22-1.34l19.27 9.23 13.9-16.12a17.24 17.24 0 0 1 16.26-5.73l22.3 4.15a17.25 17.25 0 0 1 13.11 11.21l7.11 20.1 21.3-1.67a17.26 17.26 0 0 1 15.61 7.5l12.68 18.64a17.27 17.27 0 0 1 1.29 17.18l-9.34 19.44 15.77 13.54a17.25 17.25 0 0 1 5.72 16.26l-4.2 22.21a17.25 17.25 0 0 1-11.23 13.11L450.73 431l1.67 21.18a17.25 17.25 0 0 1-7.46 15.6l-18.66 12.77a17.27 17.27 0 0 1-17.18 1.33l-18.89-9L376.45 489a17.26 17.26 0 0 1-13.12 6zM354 458.45l2.66.5 12.41-14.52a17.28 17.28 0 0 1 9.93-5.73l7.81-1.63a17.24 17.24 0 0 1 11.2 1.26l17 8.12 2.22-1.52-1.46-18.49a17.36 17.36 0 0 1 2.92-11l1.74-2.57c.56-.8 1-1.52 1.45-2.23l1.65-2.63a17.23 17.23 0 0 1 8.89-7.1l17.58-6.22.49-2.67-14.07-12.08a17.21 17.21 0 0 1-5.7-9.84l-.53-2.72c-.13-.6-.26-1.22-.38-1.84L429 362a17.22 17.22 0 0 1 1.28-11.24l8.36-17.41-1.45-2.14-19.1 1.49a17.21 17.21 0 0 1-11-2.92l-6.77-4.49a17.31 17.31 0 0 1-7.09-8.85l-6.34-17.95-2.74-.51-12.25 14.27a17.31 17.31 0 0 1-10.18 5.75l-8.32 1.68a17.22 17.22 0 0 1-11.17-1.29l-16.88-8.08-2.3 1.58 1.43 18.47a17.2 17.2 0 0 1-3 11.17l-4.77 7.22a17.3 17.3 0 0 1-9 7.21l-17.48 6.13-.49 2.65 14.1 12.09a17.3 17.3 0 0 1 5.72 9.84l.58 3c.21 1.12.39 2 .59 2.87l.65 2.7a17.27 17.27 0 0 1-1.23 11.49l-8 16.69 1.55 2.24 18.72-1.46a17.22 17.22 0 0 1 11 2.92l7.14 4.59a17.28 17.28 0 0 1 7.19 8.93z" />
  <path d="M370.1 409.4a30.93 30.93 0 1 1 30.9-30.93 31 31 0 0 1-30.9 30.93zm0-39.45a8.52 8.52 0 1 0 8.51 8.52 8.53 8.53 0 0 0-8.51-8.47z" />
  <path d="M283.83 97.49a92.59 92.59 0 0 0-7.38-36.31h-.16a92.81 92.81 0 0 0-170.55 0h-.16a92.42 92.42 0 0 0-7.38 36.31v.32a92.42 92.42 0 0 0 7.38 36.31h.16a92.81 92.81 0 0 0 170.55 0h.16a92.59 92.59 0 0 0 7.38-36.31v-.32z" />
  <path d="M211 378.25a158.19 158.19 0 0 1 86.86-141C252.91 208.65 191 209.59 191 209.59s-75-1.15-119.8 37.14-57.7 156.7-57.7 156.7c74 18.8 145.21 22.61 204.23 20.43a157.32 157.32 0 0 1-6.73-45.61z" />
</svg>
