<svg xmlns="http://www.w3.org/2000/svg" viewBox="0 0 500 500">
  <g id="action-prioritize-posting">
    <rect id="bottom-innerbox" x="58.87" y="394.95" width="30.18" height="30.18"/>
    <path id="bottom-line" d="M248.87,395H117.75a15.09,15.09,0,0,0,0,30.18H248.87a15.09,15.09,0,0,0,0-30.18Z"/>
    <path id="bottom-box" d="M494.29,143.57c0-38.13-29.29-69.14-65.31-69.14h-20V44.37L330.75,89.52l78.19,45.15V104.61h20c19.37,0,35.13,17.48,35.13,39l.71,216.54c0,21.48-15.76,38.95-35.13,38.95H343.48A43.74,43.74,0,0,0,304.9,367,51.36,51.36,0,0,0,262,343.83H56.47A51.53,51.53,0,0,0,5,395.3v30.36a51.53,51.53,0,0,0,51.47,51.47H262A51.36,51.36,0,0,0,304.9,454a43.73,43.73,0,0,0,35.81-24.7h89c36,0,65.31-31,65.31-69.19Zm-211,282.09A21.31,21.31,0,0,1,262,446.94H56.47a21.32,21.32,0,0,1-21.29-21.28V395.3A21.32,21.32,0,0,1,56.47,374H262a21.31,21.31,0,0,1,21.29,21.28Zm18-1.66V397a13.52,13.52,0,1,1,0,27Z"/>
    <rect id="mid-innerbox" x="58.87" y="234.69" width="30.18" height="30.18"/>
    <rect id="mid-line" x="102.66" y="234.69" width="161.3" height="30.18" rx="15.09"/>
    <path id="mid-box" d="M56.47,316.43H262A51.53,51.53,0,0,0,313.51,265V234.61A51.53,51.53,0,0,0,262,183.13H56.47A51.53,51.53,0,0,0,5,234.61V265A51.53,51.53,0,0,0,56.47,316.43ZM35.18,234.61a21.32,21.32,0,0,1,21.29-21.29H262a21.31,21.31,0,0,1,21.29,21.29V265A21.31,21.31,0,0,1,262,286.25H56.47A21.32,21.32,0,0,1,35.18,265Z"/>
    <rect id="top-line" x="58.87" y="74.43" width="30.18" height="30.18"/>
    <path id="top-innerbox" d="M117.75,104.61H248.87a15.09,15.09,0,0,0,0-30.18H117.75a15.09,15.09,0,0,0,0,30.18Z"/>
    <path id="top-box" d="M56.47,156.17H262a51.53,51.53,0,0,0,51.47-51.48V74.34A51.53,51.53,0,0,0,262,22.87H56.47A51.53,51.53,0,0,0,5,74.34v30.35A51.53,51.53,0,0,0,56.47,156.17ZM35.18,74.34A21.32,21.32,0,0,1,56.47,53.06H262a21.31,21.31,0,0,1,21.29,21.28v30.35A21.31,21.31,0,0,1,262,126H56.47a21.32,21.32,0,0,1-21.29-21.29Z"/>
  </g>
</svg>
