<svg xmlns="http://www.w3.org/2000/svg" viewBox="0 0 500 500" fill="#000000">
  <path d="M431.58 51.59H68.42A63.49 63.49 0 0 0 5 115v270a63.49 63.49 0 0 0 63.42 63.43h363.16A63.49 63.49 0 0 0 495 385V115a63.49 63.49 0 0 0-63.42-63.41zm0 357.62H68.42A24.26 24.26 0 0 1 44.2 385V126.89h411.6V385a24.26 24.26 0 0 1-24.22 24.21z" />
  <path d="M284.91 207.63h122.52a19.6 19.6 0 0 0 0-39.2H284.91a19.6 19.6 0 0 0 0 39.2z" />
  <path d="M284.91 295.1h122.52a19.6 19.6 0 0 0 0-39.2H284.91a19.6 19.6 0 0 0 0 39.2z" />
  <path d="M410 341.71H92.67a19.6 19.6 0 1 0 0 39.2H410a19.6 19.6 0 0 0 0-39.2z" />
  <path d="M213.55 153h-111a24.37 24.37 0 0 0-24.37 24.37v111a24.37 24.37 0 0 0 24.37 24.37h111a24.37 24.37 0 0 0 24.37-24.37v-111A24.37 24.37 0 0 0 213.55 153zm-54.47 18.6a26.62 26.62 0 1 1-26.63 26.62 26.62 26.62 0 0 1 26.63-26.62zm-47.44 115.45c1.89-10.32 6.19-27.76 14.58-34.93 12.28-10.49 32.85-10.18 32.85-10.18s20.56-.31 32.86 10.18c8.4 7.17 12.7 24.61 14.58 34.93z" />
</svg>
