<svg
  xmlns="http://www.w3.org/2000/svg"
  viewBox="0 0 500 500"
  width="500"
  height="500"
  fill="#ffffff"
>
  <path d="M174.9 66.1c50.2-20.5 104.3-20.3 149.6-.5l-41.8 33.2 139.1 39.1L400.7 5l-44.8 35.6c-57.1-30-128.2-32.3-193.7-5.6C49.6 81-9.2 198.8 31.1 297.5l35.4-14.4c-33.3-81.7 15.3-179 108.4-217z" />
  <path d="M468.9 202.5l-35.4 14.4c33.3 81.7-15.3 179-108.4 217-50.2 20.5-104.3 20.3-149.6.5l41.8-33.2-139.1-39.1 21 132.9 44.9-35.6c57.1 30 128.2 32.3 193.7 5.6 112.6-46 171.4-163.8 131.1-262.5z" />
</svg>
