<svg xmlns="http://www.w3.org/2000/svg" viewBox="0 0 500 500">
  <g id="files-action">
    <path id="filesActionIcon" d="M441.5,81.5H241.9L219.3,56c-8.1-9.2-21.6-14.6-36.1-14.6H107A34.8,34.8,0,0,0,72.2,76.2v29.9H39.8A34.8,34.8,0,0,0,5,140.9V405.2a53.5,53.5,0,0,0,53.5,53.4H374.3a53.5,53.5,0,0,0,53.5-53.4V393.9h13.7A53.5,53.5,0,0,0,495,340.5V135A53.6,53.6,0,0,0,441.5,81.5ZM391.3,405.2a17,17,0,0,1-17,17H58.5a17.1,17.1,0,0,1-17.1-17V142.5h74.5c4.9,0,8.2,1.6,8.9,2.4l33.5,37.8h216a17,17,0,0,1,17,17Zm67.3-64.7a17.1,17.1,0,0,1-17.1,17H427.8V199.7a53.6,53.6,0,0,0-53.5-53.5H174.7l-22.6-25.5c-8.1-9.2-21.6-14.6-36.2-14.6h-7.2V77.8h74.5c4.9,0,8.1,1.6,8.8,2.4L225.5,118h216a17.1,17.1,0,0,1,17.1,17Z"/>
  </g>
</svg>
