<svg
  xmlns="http://www.w3.org/2000/svg"
  viewBox="0 0 500 500"
  width="500"
  height="500"
  fill="#ffffff"
>
  <path d="M437.2 10.6h-.3A88.2 88.2 0 0 0 406.4 5H93.6A88.6 88.6 0 0 0 5 93.6v312.8A88.6 88.6 0 0 0 93.6 495h312.8a88.6 88.6 0 0 0 88.6-88.6V93.6a88.8 88.8 0 0 0-57.8-83zm-30.8 451.1H93.6a55.4 55.4 0 0 1-55.3-55.3V93.6a55.4 55.4 0 0 1 55.3-55.3h312.8a55.4 55.4 0 0 1 55.3 55.3v312.8a55.4 55.4 0 0 1-55.3 55.3z" />
  <path d="M126.2 234.8a19.3 19.3 0 0 1-13.5-5.5l-45.1-45.1a19 19 0 0 1 26.9-26.9l31.7 31.6 75-75a19 19 0 0 1 26.9 26.9l-88.5 88.5a19.1 19.1 0 0 1-13.4 5.5z" />
  <path d="M330.4 234.8a18.9 18.9 0 0 1-13.4-5.5l-45.1-45.1a19 19 0 0 1 26.9-26.9l31.6 31.6 75.1-75a19 19 0 0 1 26.9 26.9l-88.5 88.5a19 19 0 0 1-13.5 5.5z" />
  <path d="M126.2 411.5a19 19 0 0 1-13.5-5.6l-45.1-45.1a19 19 0 0 1 26.9-26.9l31.7 31.6 75-75a19 19 0 0 1 26.9 26.9l-88.5 88.5a18.8 18.8 0 0 1-13.4 5.6z" />
  <path d="M330.4 411.5a19 19 0 0 1-13.4-5.6l-45.1-45.1a19 19 0 0 1 26.9-26.9l31.6 31.6 75.1-75a19 19 0 0 1 26.9 26.9l-88.5 88.5a19.1 19.1 0 0 1-13.5 5.6z" />
</svg>
