<svg
  xmlns="http://www.w3.org/2000/svg"
  viewBox="0 0 500 500"
  width="500"
  height="500"
  fill="#ffffff"
>
  <path d="M25.31 456.67a20.05 20.05 0 0 1-7.47-1.42A20.46 20.46 0 0 1 5 435.93C5.26 422.29 8.51 351 47.27 283c33.54-58.87 102-128.61 238.9-134.7V63.73A20.39 20.39 0 0 1 321 49.32l168.07 168.07a20.51 20.51 0 0 1 .08 28.76L321.21 414.08a20.39 20.39 0 0 1-34.81-14.42v-95.89c-7.71-2.3-20.83-4.31-39.88-1-39.93 7-108.09 38.2-205.95 147.12a20.57 20.57 0 0 1-15.26 6.78zm18.89-20zm281.17-327.53v57.53A20.41 20.41 0 0 1 305 187.06c-104.9.19-180.15 39-223.65 115.34-15.73 27.61-24.8 55.81-30 79.34C120.24 313.52 183.49 274 239.76 264.17c44.91-7.86 70.14 6.08 76.81 10.54a20.33 20.33 0 0 1 9 16.93v62.62l122.48-122.45zm-20.43 38.72zM293.27 77z" />
</svg>
