<svg
  xmlns="http://www.w3.org/2000/svg"
  viewBox="0 0 500 500"
  width="500"
  height="500"
  fill="#ffffff"
>
  <path d="M477.46 417.15v-17.21h-302l-19 .06.84 19c.37 8.35-1.35 28.22-9 36.25-1.61 1.68-3.89 3.39-8.71 3.39-4.08 0-6.87-1.08-9.31-3.61-7.83-8.12-9.75-27.88-9.45-36.13V56.73a62.36 62.36 0 0 0-2.42-15.36h237.72c4.87 1.19 13.62 5.07 13.62 17.63v309.52h36.37V59c0-37-29.69-51.34-45.38-53.75L359.37 5H73.83c-34 0-48.67 29.48-51.66 45.06l-.33 1.7v60.88h62.59v305.15c-.2 5.8-.53 41.46 19.52 62.36 9.31 9.72 21.62 14.85 35.59 14.85h283.82c20.61 0 32.94-9.26 39.65-17 17.99-20.85 15.42-52.9 14.45-60.85z" />
  <path d="M211.19 331.8c0 6.16 3.62 11.16 8.07 11.16h120.38c4.46 0 8.07-5 8.07-11.16s-3.61-11.15-8.07-11.15H219.26c-4.45 0-8.07 5-8.07 11.15z" />
  <path d="M194.7 359.35h-52.65v-52.66h52.65zm-33-19.6h13.4v-13.46h-13.45z" />
  <g data-name="lineItem1">
    <path
      d="M211.19 101c0 6.15 3.62 11.15 8.07 11.15h120.38c4.46 0 8.07-5 8.07-11.15s-3.61-11.16-8.07-11.16H219.26c-4.45-.05-8.07 4.95-8.07 11.16z"
      data-name="line1"
    />
    <path
      d="M194.7 128.49h-52.65V75.84h52.65zm-33-19.6h13.4V95.44h-13.45z"
      data-name="square1"
    />
  </g>
  <g data-name="lineItem1">
    <path
      d="M211.19 216.88c0 6.15 3.62 11.15 8.07 11.15h120.38c4.46 0 8.07-5 8.07-11.15s-3.61-11.16-8.07-11.16H219.26c-4.45 0-8.07 5-8.07 11.16z"
      data-name="line1"
    />
    <path
      d="M194.7 244.42h-52.65v-52.66h52.65zm-33-19.6h13.4v-13.46h-13.45z"
      data-name="square1"
    />
  </g>
</svg>
