<svg xmlns="http://www.w3.org/2000/svg" viewBox="0 0 500 500">
  <g id="new-phone-number-action">
    <path id="phone" d="M214.1,336.8h-89c-12.6-44-18.1-104.4,3.9-177.6h82.3A15.3,15.3,0,0,0,226.5,144V20.3A15.4,15.4,0,0,0,211.3,5.1H87.6A15.1,15.1,0,0,0,73,16.3C-66.2,264.9,46.7,442,76.1,481.3a16.6,16.6,0,0,0,5.2,6.8l1.2,1.1.4-.3a14.6,14.6,0,0,0,7.4,1.9H213.9A15.2,15.2,0,0,0,229,475.8V352.1A15.1,15.1,0,0,0,214.1,336.8Z"/>
    <polygon id="plus" points="495 360.7 399.6 360.7 399.6 265.3 360.8 265.3 360.8 360.7 265.4 360.7 265.4 399.5 360.8 399.5 360.8 494.9 399.6 494.9 399.6 399.5 495 399.5 495 360.7"/>
  </g>
</svg>
