<svg
  xmlns="http://www.w3.org/2000/svg"
  viewBox="0 0 500 500"
  width="500"
  height="500"
  fill="#000000"
>
  <path d="M358.77 208.23c0-94.81-75.66-172.39-169.76-175.54L189.2 5l-85.11 48.38 84.45 49.53.2-30.18c72.16 3 130 62.66 130 135.5 0 74.8-60.86 135.66-135.66 135.66S47.42 283 47.42 208.23h-40c0 96.88 78.82 175.7 175.69 175.7s175.66-78.82 175.66-175.7z" />
  <path d="M175.74 256.91a77.24 77.24 0 0 1-36.4-9.65l-6.57 25.65c8.32 4.84 22.57 8.78 37.27 9.43v20.82h21.47v-22.35c25.22-4.39 39-21.05 39-40.55 0-19.74-10.53-31.78-36.62-41-18.62-7-26.3-11.63-26.3-18.85 0-6.15 4.61-12.28 18.86-12.28 15.78 0 25.87 5 31.56 7.45l6.35-24.78c-7.23-3.5-17.09-6.57-31.78-7.22V124.3h-21.44v20.82c-23.46 4.6-37 19.74-37 39 0 21.26 16 32.22 39.45 40.12 16.22 5.47 23.23 10.73 23.23 19.06-.05 8.8-8.59 13.61-21.08 13.61z" />
  <polygon points="418.76 381.1 418.76 307.24 378.72 307.24 378.72 381.1 304.86 381.1 304.86 421.14 378.72 421.14 378.72 495 418.76 495 418.76 421.14 492.62 421.14 492.62 381.1 418.76 381.1" />
</svg>
