<svg
  xmlns="http://www.w3.org/2000/svg"
  viewBox="0 0 500 500"
  width="500"
  height="500"
  fill="#000000"
>
  <path d="M426.8 95.3h-50.9l-32.1-52a43.9 43.9 0 0 0-37.6-20.9H193.8a43.9 43.9 0 0 0-37.6 20.9l-32.1 52H73.2A68.3 68.3 0 0 0 5 163.5v245.9a68.3 68.3 0 0 0 68.2 68.2h353.6a68.3 68.3 0 0 0 68.2-68.2V163.5a68.3 68.3 0 0 0-68.2-68.2zM184.3 60.6a11.3 11.3 0 0 1 9.5-5.3h112.4a11.1 11.1 0 0 1 9.5 5.3l21.5 34.7H162.8zM37.9 163.5a35.4 35.4 0 0 1 35.3-35.3h353.6a35.4 35.4 0 0 1 35.3 35.3v245.9a36.5 36.5 0 0 1-2 11.5H39.9a36.5 36.5 0 0 1-2-11.5z" />
  <path d="M250 410.8a124.5 124.5 0 0 0 124.4-124.4c0-68.5-55.8-124.3-124.4-124.3s-124.4 55.8-124.4 124.3A124.5 124.5 0 0 0 250 410.8zm0-215.8a91.5 91.5 0 1 1-91.4 91.4A91.5 91.5 0 0 1 250 195z" />
  <path d="M264 356.9V324a50.3 50.3 0 0 1-50.2-50.3h-32.9a83.2 83.2 0 0 0 83.1 83.2z" />
  <rect
    x="340.6"
    y="152.1"
    width="58.6"
    height="32.94"
    transform="rotate(-45 369.96 168.657)"
  />
  <rect
    x="109.2"
    y="143.8"
    width="32.9"
    height="58.63"
    transform="rotate(-45 125.712 173.128)"
  />
</svg>
