<svg id="action-mark-as-final" xmlns="http://www.w3.org/2000/svg" viewBox="0 0 500 500">
  <path id="stamp" d="M495,296.82H323c-8.14,0-20-16.18-20-41.54s11.74-41.44,19.88-41.54h9.42V85.37c0-28.49-35.44-50-82.44-50s-82.44,21.49-82.44,50V213.74h9.68c8.14.1,19.88,16.26,19.88,41.54s-11.82,41.54-20,41.54H5V418.93H26.3c2.35,25.6,22.85,45.68,47.71,45.68a46.41,46.41,0,0,0,32.93-13.89,46.45,46.45,0,0,0,32.94,13.89c15.18,0,28.72-7.5,37.51-19.16,8.79,11.66,22.34,19.16,37.52,19.16a46.45,46.45,0,0,0,32.94-13.89,46.09,46.09,0,0,0,68.59-2.94A46.09,46.09,0,0,0,385,450.72,46.45,46.45,0,0,0,418,464.61c24.86,0,45.35-20.08,47.71-45.68H495ZM249.87,65.41c32.52,0,52.43,12.92,52.43,20v98.36H197.45V85.37C197.45,78.33,217.35,65.41,249.87,65.41ZM218,213.74H282c-5.71,11.64-9.05,25.92-9.05,41.54s3.34,29.9,9.05,41.54H218c5.71-11.64,9-25.93,9-41.54S223.67,225.38,218,213.74ZM35,326.84H465v62.08H35ZM74,434.59c-8.4,0-15.45-6.68-17.39-15.66H91.39C89.46,427.91,82.41,434.59,74,434.59Zm65.87,0c-8.41,0-15.46-6.68-17.39-15.66h34.77C155.33,427.91,148.28,434.59,139.88,434.59Zm75,0c-8.4,0-15.45-6.68-17.38-15.66H232.3C230.36,427.91,223.31,434.59,214.91,434.59Zm65.87,0c-8.4,0-15.45-6.68-17.38-15.66h34.76C296.23,427.91,289.18,434.59,280.78,434.59Zm71.32,0c-8.4,0-15.45-6.68-17.39-15.66h34.77C367.55,427.91,360.5,434.59,352.1,434.59Zm65.87,0c-8.4,0-15.46-6.68-17.39-15.66h34.77C433.42,427.91,426.37,434.59,418,434.59Z"/>
</svg>
