<svg xmlns="http://www.w3.org/2000/svg" viewBox="0 0 500 500">
  <g id="action-build">
    <path id="top-arrow" d="M174.9,66.1c50.2-20.5,104.3-20.3,149.6-.5L282.7,98.8l139.1,39.1L400.7,5,355.9,40.6C298.8,10.6,227.7,8.3,162.2,35,49.6,81-9.2,198.8,31.1,297.5l35.4-14.4C33.2,201.4,81.8,104.1,174.9,66.1Z"/>
    <path id="bottom-arrow" d="M468.9,202.5l-35.4,14.4c33.3,81.7-15.3,179-108.4,217-50.2,20.5-104.3,20.3-149.6.5l41.8-33.2L78.2,362.1,99.2,495l44.9-35.6c57.1,30,128.2,32.3,193.7,5.6C450.4,419,509.2,301.2,468.9,202.5Z"/>
  </g>
</svg>
