<?xml version="1.0" encoding="utf-8"?>
<!-- Generator: Adobe Illustrator 24.0.2, SVG Export Plug-In . SVG Version: 6.00 Build 0)  -->
<svg version="1.1" id="Layer_1" xmlns="http://www.w3.org/2000/svg" xmlns:xlink="http://www.w3.org/1999/xlink" x="0px" y="0px"
	 viewBox="0 0 500 500" style="enable-background:new 0 0 500 500;" xml:space="preserve">
<g id="action-active-contact">
	<path id="outline" d="M440.1,7H85.9c-28,0.1-51.4,21.1-54.5,48.9h-3.7C15.1,56.7,5.6,67.6,6.5,80.2c0.8,11.4,9.8,20.5,21.2,21.2
		h3.4v12.3h-3.4C15.1,114.5,5.6,125.4,6.5,138c0.8,11.4,9.8,20.5,21.2,21.2h3.4v12.3h-3.4c-12.6,0.8-22.1,11.7-21.2,24.3
		c0.8,11.4,9.8,20.5,21.2,21.2h3.4v12.3h-3.4C15.1,230.1,5.6,241,6.5,253.6c0.8,11.4,9.8,20.5,21.2,21.2h3.4v12.3h-3.4
		c-12.6,0.8-22.1,11.7-21.2,24.3c0.8,11.4,9.8,20.5,21.2,21.2h3.4v12.3h-3.4c-12.6,0.8-22.1,11.7-21.2,24.3
		c0.8,11.4,9.8,20.5,21.2,21.2h3.4v12.3h-3.4C15.1,403.5,5.6,414.4,6.5,427c0.8,11.4,9.8,20.5,21.2,21.2H32
		c4.9,25.9,27.5,44.7,53.9,44.8h354.2c30.3,0,54.9-24.6,54.9-54.9V61.9C495,31.6,470.4,7,440.1,7z M69.3,448.2
		c12.6-0.8,22.1-11.7,21.2-24.3c-0.8-11.4-9.8-20.5-21.2-21.2h-3.1v-12.3h3.1c12.6-0.8,22.1-11.7,21.2-24.3
		c-0.8-11.4-9.8-20.5-21.2-21.2h-3.1v-12.3h3.1c12.6-0.8,22.1-11.7,21.2-24.3c-0.8-11.4-9.8-20.5-21.2-21.2h-3.1v-12.3h3.1
		c12.6-0.8,22.1-11.7,21.2-24.3c-0.8-11.4-9.8-20.5-21.2-21.2h-3.1V217h3.1c12.6-0.8,22.1-11.7,21.2-24.3
		c-0.8-11.4-9.8-20.5-21.2-21.2h-3.1v-12.3h3.1c12.6-0.8,22.1-11.7,21.2-24.3c-0.8-11.4-9.8-20.5-21.2-21.2h-3.1v-12.3h3.1
		c12.6-0.8,22.1-11.7,21.2-24.3c-0.8-11.4-9.8-20.5-21.2-21.2h-2.2c2.6-8.2,10.2-13.8,18.8-13.8h354.2c10.9,0,19.8,8.9,19.8,19.8
		v376.2c0,10.9-8.9,19.8-19.8,19.8H85.9c-7,0-13.5-3.7-17-9.7L69.3,448.2z"/>
	<path id="play" d="M184.1,408c-3.1,0-6.2-0.7-8.9-2.2c-6.3-3.3-10.3-9.9-10.3-17V109.3c-0.1-10.5,8.4-19.2,18.9-19.3
		c4,0,8,1.2,11.3,3.6l198,139.7c8.7,6.2,10.7,18.3,4.5,26.9c-1.2,1.7-2.7,3.2-4.5,4.5l-198,139.8C191.9,406.8,188,408,184.1,408z
		 M203.3,146.4v205.3L348.7,249L203.3,146.4z"/>
</g>
</svg>
