<svg
  xmlns="http://www.w3.org/2000/svg"
  viewBox="0 0 500 500"
  width="500"
  height="500"
  fill="#000000"
>
  <path
    class="cls-1"
    d="M468.4 171.7c-15.8-16-34.8-23.4-46.8-26.7 1.9-31.6-7.8-60.6-28.2-84.1-15.3-17.6-37.2-32.3-58.6-39.2-42.6-13-80.3-10.2-112 8.4-23.8 14-39.3 34.2-48.6 50-14.3-7.6-42.5-17.7-71.4.5s-36.1 41-38.1 54.9C35.4 149.4 5 180.6 5 228.2c0 32 15.1 59.7 43.7 80a111.9 111.9 0 0 0 65.4 20.6H145a18.3 18.3 0 1 0 0-36.5h-30.9a75.9 75.9 0 0 1-44.3-13.9c-18.8-13.3-28.3-30.2-28.3-50.2 0-47.9 44.2-61.9 46.1-62.5a18.1 18.1 0 0 0 12.9-19.8c-.1-1.4-1.5-19.8 21.8-34.5s44.8 8.1 45.7 9a18.2 18.2 0 0 0 17 5 18.8 18.8 0 0 0 13.3-11.9A106.8 106.8 0 0 1 226 72.7c25.4-22.8 58.3-28.3 97.9-16.2 3 1 73.7 24.7 59.5 99.9a18.2 18.2 0 0 0 3.5 14.4 18.4 18.4 0 0 0 13 7.2c6 .5 58.6 6.6 58.6 63 0 15-4.2 26.3-13 34.4-19.5 18.1-55.1 15.8-55.5 15.8h-26.7a18.3 18.3 0 1 0 0 36.5H388c6 .3 52.4 2.1 82.2-25.4 16.5-15.2 24.8-35.8 24.8-61.3 0-28.1-8.9-51.4-26.6-69.3z"
  />
  <path d="M365.6 361.1a18.5 18.5 0 0 0-26.3 0l-67.4 67.4V197.8h-37.1v230.6l-67.4-67.3a18.6 18.6 0 0 0-26.3 26.3l.4.3 89.4 89.3a31.9 31.9 0 0 0 45 0l89.7-89.7a18.4 18.4 0 0 0 0-26.2z" />
</svg>
