<svg xmlns="http://www.w3.org/2000/svg" viewBox="0 0 500 500">
  <g id="new-address-action">
    <path id="house" d="M180.3,192.9c3.5,0,6.4-3.8,6.4-8.4V132.9h0V117.1L143.5,73.2l-43.4,44v9.9c0,.2.1.4.1.6v56.8c0,4.6,2.9,8.4,6.4,8.4h28V154h17.7v38.9Z"/>
    <path id="location-arrow" d="M278.7,140.2a135.3,135.3,0,0,0-270.5,0c0,154.1,135.3,308.9,135.3,308.9S278.7,294.3,278.7,140.2ZM82.4,184.5V136.6H77.3A8.8,8.8,0,0,1,71,121.5l66.1-67.2a9.2,9.2,0,0,1,12.7,0l66.1,67.2a8.8,8.8,0,0,1-6.3,15.1h-5.1v47.9c0,14.5-10.9,26.2-24.2,26.2H106.6C93.3,210.7,82.4,199,82.4,184.5Z"/>
    <path id="ellipses" d="M201.5,403.9c-3.9,5.7-7.6,11.1-11.1,16,37,6.2,56.2,19.1,56.2,26.9,0,10.6-34.7,30.4-101.2,30.4S44.1,457.4,44.1,446.8c0-7.8,19.1-20.7,56.1-26.9Q95,412.6,89.1,404c-35.7,7.2-62.8,21.6-62.8,42.8,0,31.7,59.9,48.2,119.1,48.2s119-16.5,119-48.2C264.4,425.6,237.3,411.1,201.5,403.9Z"/>
    <polygon id="plus" points="491.8 340.7 395.6 340.7 395.6 244.5 356.4 244.5 356.4 340.7 260.2 340.7 260.2 379.9 356.4 379.9 356.4 476 395.6 476 395.6 379.9 491.8 379.9 491.8 340.7"/>
  </g>
</svg>
