<svg xmlns="http://www.w3.org/2000/svg" viewBox="0 0 500 500">
  <g id="issues-and-warnings-action">
    <path id="triangle" d="M451.5,467.9H48.5a43.5,43.5,0,0,1-37.6-65.2L212.4,53.8a43.5,43.5,0,0,1,75.3,0L489.1,402.7a43.5,43.5,0,0,1-37.6,65.2ZM250,68.4a6.8,6.8,0,0,0-6.2,3.5L42.3,420.9a7.2,7.2,0,0,0,6.2,10.7h403a7,7,0,0,0,6.2-3.5,7.1,7.1,0,0,0,0-7.2h0L256.2,71.9A6.8,6.8,0,0,0,250,68.4Z"/>
    <path id="exclamationMark" d="M230.3,368.5c0-12,8.3-20.7,19.7-20.7s19.7,8.7,19.7,20.7S262,389.3,250,389.3,230.3,380.2,230.3,368.5Zm8.3-47.8-4.7-160.5h32.2l-4.7,160.5Z"/>
  </g>
</svg>
