<svg xmlns="http://www.w3.org/2000/svg" viewBox="0 0 500 500" fill="#000000">
  <path d="M391.89 135.84h-.07l-148.88-.56a19.6 19.6 0 0 1 .08-39.2h.07l148.91.56a19.6 19.6 0 0 1-.07 39.2z" />
  <circle cx="147.76" cy="117.59" r="36.18" />
  <path d="M391.87 267.27h-.07l-148.88-.56a19.6 19.6 0 0 1 .07-39.2h.08l148.87.56a19.6 19.6 0 0 1-.07 39.2z" />
  <circle cx="147.76" cy="249.02" r="36.18" />
  <path d="M392.15 5h-284.3A84.92 84.92 0 0 0 23 89.82v320.36A84.92 84.92 0 0 0 107.85 495h284.3A84.92 84.92 0 0 0 477 410.18V89.82A84.92 84.92 0 0 0 392.15 5zm45.62 405.18a45.67 45.67 0 0 1-45.62 45.62h-284.3a45.67 45.67 0 0 1-45.62-45.62V89.82a45.68 45.68 0 0 1 45.62-45.62h284.3a45.67 45.67 0 0 1 45.62 45.62z" />
  <path d="M391.92 358.31l-148.87-.56H243a19.6 19.6 0 0 0-.07 39.2l148.87.56h.07a19.6 19.6 0 0 0 .08-39.2z" />
  <circle cx="147.76" cy="379.26" r="36.18" />
</svg>
