<svg
  xmlns="http://www.w3.org/2000/svg"
  viewBox="0 0 500 500"
  width="500"
  height="500"
  fill="#ffffff"
>
  <path d="M440.1 7H85.9c-28 .1-51.4 21.1-54.5 48.9h-3.7c-12.6.8-22.1 11.7-21.2 24.3.8 11.4 9.8 20.5 21.2 21.2h3.4v12.3h-3.4c-12.6.8-22.1 11.7-21.2 24.3.8 11.4 9.8 20.5 21.2 21.2h3.4v12.3h-3.4c-12.6.8-22.1 11.7-21.2 24.3.8 11.4 9.8 20.5 21.2 21.2h3.4v12.3h-3.4c-12.6.8-22.1 11.7-21.2 24.3.8 11.4 9.8 20.5 21.2 21.2h3.4v12.3h-3.4c-12.6.8-22.1 11.7-21.2 24.3.8 11.4 9.8 20.5 21.2 21.2h3.4v12.3h-3.4c-12.6.8-22.1 11.7-21.2 24.3.8 11.4 9.8 20.5 21.2 21.2h3.4v12.3h-3.4c-12.6.8-22.1 11.7-21.2 24.3.8 11.4 9.8 20.5 21.2 21.2H32c4.9 25.9 27.5 44.7 53.9 44.8h354.2c30.3 0 54.9-24.6 54.9-54.9V61.9C495 31.6 470.4 7 440.1 7zM69.3 448.2c12.6-.8 22.1-11.7 21.2-24.3-.8-11.4-9.8-20.5-21.2-21.2h-3.1v-12.3h3.1c12.6-.8 22.1-11.7 21.2-24.3-.8-11.4-9.8-20.5-21.2-21.2h-3.1v-12.3h3.1c12.6-.8 22.1-11.7 21.2-24.3-.8-11.4-9.8-20.5-21.2-21.2h-3.1v-12.3h3.1c12.6-.8 22.1-11.7 21.2-24.3-.8-11.4-9.8-20.5-21.2-21.2h-3.1V217h3.1c12.6-.8 22.1-11.7 21.2-24.3-.8-11.4-9.8-20.5-21.2-21.2h-3.1v-12.3h3.1c12.6-.8 22.1-11.7 21.2-24.3-.8-11.4-9.8-20.5-21.2-21.2h-3.1v-12.3h3.1c12.6-.8 22.1-11.7 21.2-24.3-.8-11.4-9.8-20.5-21.2-21.2h-2.2c2.6-8.2 10.2-13.8 18.8-13.8h354.2c10.9 0 19.8 8.9 19.8 19.8v376.2c0 10.9-8.9 19.8-19.8 19.8H85.9c-7 0-13.5-3.7-17-9.7h.4z" />
  <path d="M184.1 408c-3.1 0-6.2-.7-8.9-2.2-6.3-3.3-10.3-9.9-10.3-17V109.3c-.1-10.5 8.4-19.2 18.9-19.3 4 0 8 1.2 11.3 3.6l198 139.7c8.7 6.2 10.7 18.3 4.5 26.9-1.2 1.7-2.7 3.2-4.5 4.5l-198 139.8c-3.2 2.3-7.1 3.5-11 3.5zm19.2-261.6v205.3L348.7 249 203.3 146.4z" />
</svg>
