<svg
  xmlns="http://www.w3.org/2000/svg"
  viewBox="0 0 500 500"
  width="500"
  height="500"
  fill="#ffffff"
>
  <polygon
    class="cls-1"
    points="178.1 94.94 312.95 94.94 312.95 137.74 420.89 75.41 312.95 13.08 312.95 55.88 178.1 55.88 178.1 13.08 70.16 75.41 178.1 137.74 178.1 94.94"
  />
  <path
    class="cls-1"
    d="M195.81 175h-34.55a29.4 29.4 0 0 0-26 15.69L8.43 443.83a29.39 29.39 0 0 0 26 43.09h161.38a29.39 29.39 0 0 0 29.39-29.39V204.37A29.39 29.39 0 0 0 195.81 175z"
  />
  <path
    class="cls-1"
    d="M491.57 443.83L364.74 190.67a29.4 29.4 0 0 0-26-15.69h-34.55a29.39 29.39 0 0 0-29.39 29.39v253.16a29.39 29.39 0 0 0 29.39 29.39h161.38a29.39 29.39 0 0 0 26-43.09z"
  />
</svg>
