<svg
  xmlns="http://www.w3.org/2000/svg"
  viewBox="0 0 500 500"
  width="500"
  height="500"
  fill="#000000"
>
  <path d="M472.31 412.73h-.1L206 414a20.95 20.95 0 0 0 .1 41.89h.1l266.23-1.27a20.94 20.94 0 0 0-.09-41.88z" />
  <path d="M472.31 220.05h-.1L206 221.32a20.95 20.95 0 0 0 .1 41.89h.1l266.23-1.27a20.95 20.95 0 0 0-.09-41.89z" />
  <path d="M206.07 79.25h.1L472.4 78a20.95 20.95 0 0 0-.09-41.89h-.1L206 37.36a20.95 20.95 0 0 0 .1 41.89z" />
  <path d="M117.93 375.23a20.94 20.94 0 0 0-29.63 0L69.54 394l-18.77-18.77a20.94 20.94 0 1 0-29.62 29.61l18.77 18.77-18.77 18.77A20.94 20.94 0 1 0 50.77 472l18.77-18.77L88.3 472a20.95 20.95 0 1 0 29.63-29.62l-18.77-18.77 18.77-18.77a20.94 20.94 0 0 0 0-29.61z" />
  <path d="M117.93 193.38a20.94 20.94 0 0 0-29.62 0l-18.77 18.76-18.77-18.76A20.94 20.94 0 0 0 21.15 223l18.77 18.77-18.77 18.76a20.94 20.94 0 0 0 29.62 29.62l18.77-18.77 18.77 18.77a20.94 20.94 0 0 0 29.62-29.62l-18.77-18.77L117.93 223a20.93 20.93 0 0 0 0-29.62z" />
  <path d="M100 22.86L54.43 69.1 38.89 53.79A20.95 20.95 0 0 0 9.5 83.65l30.47 30a20.93 20.93 0 0 0 29.61-.23l60.23-61.16A20.95 20.95 0 0 0 100 22.86z" />
</svg>
