<svg xmlns="http://www.w3.org/2000/svg" viewBox="0 0 500 500">
  <g id="delete-action">
    <g id="trashcanIcon">
      <rect id="innerLine3" x="158.9" y="154" width="40.2" height="268.52"/>
      <rect id="innerLine2" x="301" y="154" width="40.2" height="268.52"/>
      <rect id="innerLine1" x="230.4" y="154" width="40.2" height="268.52"/>
      <path id="trashcanOutline" d="M478.3,81.4H351.6a44.1,44.1,0,0,0,.3-5.2V50a45,45,0,0,0-45-45H193.1a45,45,0,0,0-45,45V76.2a45.3,45.3,0,0,0,.3,5.2H21.7v40.2H86.8a44.6,44.6,0,0,0-.5,6.3V450.3A44.8,44.8,0,0,0,131.1,495H369.9a44.7,44.7,0,0,0,44.7-44.7V128a44.8,44.8,0,0,0-.5-6.4h64.2Zm-290-5.2V49.4a5.2,5.2,0,0,1,5.2-5.2h113a5.2,5.2,0,0,1,5.2,5.2V76.2a5.2,5.2,0,0,1-5.2,5.2h-113A5.2,5.2,0,0,1,188.3,76.2ZM369.5,454.8h-239a5,5,0,0,1-5-4.9V127.5a5,5,0,0,1,5-4.9h239a5,5,0,0,1,5,4.9V449.9A5,5,0,0,1,369.5,454.8Z"/>
    </g>
  </g>
</svg>
