<svg
  xmlns="http://www.w3.org/2000/svg"
  viewBox="0 0 500 500"
  width="500"
  height="500"
  fill="#ffffff"
>
  <path d="M495 296.82H323c-8.14 0-20-16.18-20-41.54s11.74-41.44 19.88-41.54h9.42V85.37c0-28.49-35.44-50-82.44-50s-82.44 21.49-82.44 50v128.37h9.68c8.14.1 19.88 16.26 19.88 41.54s-11.82 41.54-20 41.54H5v122.11h21.3c2.35 25.6 22.85 45.68 47.71 45.68a46.41 46.41 0 0 0 32.93-13.89 46.45 46.45 0 0 0 32.94 13.89c15.18 0 28.72-7.5 37.51-19.16 8.79 11.66 22.34 19.16 37.52 19.16a46.45 46.45 0 0 0 32.94-13.89 46.09 46.09 0 0 0 68.59-2.94 46.09 46.09 0 0 0 68.56 2.94 46.45 46.45 0 0 0 33 13.89c24.86 0 45.35-20.08 47.71-45.68H495zM249.87 65.41c32.52 0 52.43 12.92 52.43 20v98.36H197.45v-98.4c0-7.04 19.9-19.96 52.42-19.96zM218 213.74h64c-5.71 11.64-9.05 25.92-9.05 41.54s3.34 29.9 9.05 41.54h-64c5.71-11.64 9-25.93 9-41.54s-3.33-29.9-9-41.54zM35 326.84h430v62.08H35zm39 107.75c-8.4 0-15.45-6.68-17.39-15.66h34.78c-1.93 8.98-8.98 15.66-17.39 15.66zm65.87 0c-8.41 0-15.46-6.68-17.39-15.66h34.77c-1.92 8.98-8.97 15.66-17.37 15.66zm75 0c-8.4 0-15.45-6.68-17.38-15.66h34.81c-1.94 8.98-8.99 15.66-17.39 15.66zm65.87 0c-8.4 0-15.45-6.68-17.38-15.66h34.76c-1.89 8.98-8.94 15.66-17.34 15.66zm71.32 0c-8.4 0-15.45-6.68-17.39-15.66h34.77c-1.89 8.98-8.94 15.66-17.34 15.66zm65.87 0c-8.4 0-15.46-6.68-17.39-15.66h34.77c-1.89 8.98-8.94 15.66-17.31 15.66z" />
</svg>
