<svg
  xmlns="http://www.w3.org/2000/svg"
  viewBox="0 0 500 500"
  width="500"
  height="500"
  fill="#000000"
>
  <path d="M250 8.27a136.25 136.25 0 0 0-136.25 136.25C113.75 299.77 250 455.7 250 455.7s136.25-155.93 136.25-311.18A136.25 136.25 0 0 0 250 8.27zm0 186.24a51.08 51.08 0 1 1 51.08-51.08A51.08 51.08 0 0 1 250 194.51z" />
  <path d="M331.45 374.9q-5.85 9.8-11.6 18.75c35.26 2.35 67.54 6.49 94.35 12.21 50.69 10.81 61.05 23.12 61.05 25.82s-10.36 15-61.05 25.82C370.45 466.84 312.13 472 250 472s-120.45-5.16-164.2-14.5c-50.69-10.82-61-23.12-61-25.82s10.36-15 61.05-25.82c26.8-5.72 59.08-9.86 94.34-12.21q-5.73-9-11.59-18.75C89.73 381.09 5 397.14 5 431.68c0 47.5 160.26 60.05 245 60.05s245-12.55 245-60.05c0-34.54-84.73-50.59-163.55-56.78z" />
</svg>
