<svg xmlns="http://www.w3.org/2000/svg" viewBox="0 0 500 500">
  <g id="address">
    <path id="location-pointer" d="M250,8.27A136.25,136.25,0,0,0,113.75,144.52C113.75,299.77,250,455.7,250,455.7S386.25,299.77,386.25,144.52A136.25,136.25,0,0,0,250,8.27Zm0,186.24a51.08,51.08,0,1,1,51.08-51.08A51.08,51.08,0,0,1,250,194.51Z"/>
    <path id="ring" d="M331.45,374.9q-5.85,9.8-11.6,18.75c35.26,2.35,67.54,6.49,94.35,12.21,50.69,10.81,61.05,23.12,61.05,25.82s-10.36,15-61.05,25.82C370.45,466.84,312.13,472,250,472S129.55,466.84,85.8,457.5c-50.69-10.82-61-23.12-61-25.82s10.36-15,61.05-25.82c26.8-5.72,59.08-9.86,94.34-12.21q-5.73-9-11.59-18.75C89.73,381.09,5,397.14,5,431.68c0,47.5,160.26,60.05,245,60.05s245-12.55,245-60.05C495,397.14,410.27,381.09,331.45,374.9Z"/>
  </g>
</svg>
