<svg xmlns="http://www.w3.org/2000/svg" viewBox="0 0 500 500" fill="#000000">
  <circle cx="249.9" cy="250" r="244.9" fill="#7291ca" />
  <circle cx="149.52" cy="176.42" r="71.84" fill="#faf39a" />
  <path
    d="M247.6 104.79l115.72 1.83s-25.65-5.23-35.46-13.94c-10.83-9.6-11.51-18.22-26.28-21.37s-18.05 15.36-18.05 15.36-13.32-6.88-16.78 5.38c0 0-18.37-2.77-19.94 8.23"
    fill="#fff"
  />
  <path
    d="M206.46 377c-8.23-29.18-45.66-11.8-45.66-11.8s-25.91-44.68-61.08-37.2-41.26 53.87-41.26 53.87-11.72-11.87-20.11-8.15a245.58 245.58 0 0 0 31.5 42.55l157.39-.09s11.91-5.84 11.68-17.2c-.53-26.45-32.46-21.98-32.46-21.98z"
    fill="#fff"
  />
  <path
    d="M450.56 258.1c-1.5-58.36-25.92-74.24-64.21-74.24-45 0-62 47.15-62 47.15-44.77 0-36.34 43.25-36.55 43.36-12.52 6.82-49.79 13.88-66.45 13.88-8 0-8.14 5.31-8.14 5.31L491 294.7a245.9 245.9 0 0 0 4-44c0-2.07-.1-4.11-.16-6.16-21.68-2.33-44.28 13.56-44.28 13.56z"
    fill="#fff"
  />
</svg>
