<svg
  xmlns="http://www.w3.org/2000/svg"
  viewBox="0 0 500 500"
  width="500"
  height="500"
  fill="#000000"
>
  <path d="M259.54 54.62V43.16h-19v11.46a122.45 122.45 0 0 0-112.99 122.06h244.94A122.45 122.45 0 0 0 259.54 54.62z" />
  <rect x="18.4" y="437.8" width="463.62" height="19.04" />
  <polygon points="327.01 215.72 352.63 225.66 371.67 233.05 371.67 215.72 384.78 215.72 384.78 196.68 277.93 196.68 327.01 215.72" />
  <polygon points="127.83 233.23 146.87 225.82 172.83 215.72 221.77 196.68 115.27 196.68 115.27 215.72 127.83 215.72 127.83 233.23" />
  <path d="M372.32 253.73L249.81 206.2l-122.13 47.53H5v19h13.19v146h463.62v-146H495v-19zM73.87 399.25H43.13v-82.74h30.74zm53.28 0H96.41v-82.74h30.74zM250.21 241a18.37 18.37 0 1 1-18.38 18.37A18.37 18.37 0 0 1 250.21 241zm30.36 158.27h-61.9v-63.6a31 31 0 0 1 61.9 0zm122.85 0h-30.74v-82.76h30.74zm52.36 0H425v-82.76h30.74z" />
</svg>
