<svg xmlns="http://www.w3.org/2000/svg" viewBox="0 0 500 500">
  <g id="agency">
    <path id="agency-top" d="M259.54,54.62V43.16h-19V54.62A122.45,122.45,0,0,0,127.55,176.68H372.49A122.45,122.45,0,0,0,259.54,54.62Z"/>
    <rect id="agency-bottom" x="18.4" y="437.8" width="463.62" height="19.04"/>
    <polygon id="agency-right" points="327.01 215.72 352.63 225.66 371.67 233.05 371.67 215.72 384.78 215.72 384.78 196.68 277.93 196.68 327.01 215.72"/>
    <polygon id="agency-left" points="127.83 233.23 146.87 225.82 172.83 215.72 221.77 196.68 115.27 196.68 115.27 215.72 127.83 215.72 127.83 233.23"/>
    <path id="agency-bottom-2" data-name="agency-bottom" d="M372.32,253.73,249.81,206.2,127.68,253.73H5v19H18.19v146H481.81v-146H495v-19ZM73.87,399.25H43.13V316.51H73.87Zm53.28,0H96.41V316.51h30.74ZM250.21,241a18.37,18.37,0,1,1-18.38,18.37A18.37,18.37,0,0,1,250.21,241Zm30.36,158.27h-61.9v-63.6a31,31,0,0,1,61.9,0Zm122.85,0H372.68V316.51h30.74Zm52.36,0H425V316.51h30.74Z"/>
  </g>
</svg>
