<svg
  xmlns="http://www.w3.org/2000/svg"
  viewBox="0 0 500 500"
  width="500"
  height="500"
  fill="#ffffff"
>
  <path d="M173.4 196.8a11.4 11.4 0 0 0 7.6 2.8h1a11.6 11.6 0 0 0 8.3-4.5l6.9-8.9v-.2a11.1 11.1 0 0 0 2-7.6 11.6 11.6 0 0 0-4.1-8.1 12 12 0 0 0-8.7-2.7 5.4 5.4 0 0 0-2.1.5 14.1 14.1 0 0 0 .1-2.9 13.9 13.9 0 0 0-5-9.2 13.6 13.6 0 0 0-14.2-1.9 13.5 13.5 0 0 0-4.9-11.3 13.7 13.7 0 0 0-15.9-1 11.7 11.7 0 0 0-21-5.7l-4.1 5.3a11.1 11.1 0 0 0-2.3 8 11.6 11.6 0 0 0 4.1 8.1 11.8 11.8 0 0 0 7.6 2.7h1l2.4-.4a13.6 13.6 0 0 0 13.6 14.4 13 13 0 0 0 5.5-1.2 13.6 13.6 0 0 0 5 11.3 13.5 13.5 0 0 0 8.7 3.1 12.9 12.9 0 0 0 4.3-.7 14.8 14.8 0 0 0-.1 2.1 11.7 11.7 0 0 0 4.3 8zm-37.5-51.1l-4.1 5.2a3.8 3.8 0 0 1-2.6 1.4 3.9 3.9 0 0 1-4.2-3.5 3.7 3.7 0 0 1 .7-2.6l4.1-5.3a3.7 3.7 0 0 1 2.7-1.5h.3a3.7 3.7 0 0 1 2.5.9 4 4 0 0 1 1.4 2.6 4 4 0 0 1-.8 2.8zm42 39.9l6.6-8.6a13.2 13.2 0 0 1 2.7-1.5 3.9 3.9 0 0 1 4.2 3.5 3.8 3.8 0 0 1-.6 2.4l-6.8 8.8a3.7 3.7 0 0 1-2.7 1.5 3.8 3.8 0 0 1-4.1-3.6 3.6 3.6 0 0 1 .7-2.5zM156.1 157l-3.4 4.2-2.4 3a5.8 5.8 0 0 1-8.1.8 5.7 5.7 0 0 1-.8-8.1l5.8-7.2a5.8 5.8 0 0 1 4.5-2.1 5.3 5.3 0 0 1 3.6 1.3 5.7 5.7 0 0 1 .8 8.1zm5.2 21.2a5.8 5.8 0 0 1-.8-8.1l2.3-2.8 1.2-1.4 2.4-3a5.8 5.8 0 0 1 8.1-.8 6.1 6.1 0 0 1 2.1 3.9 5.9 5.9 0 0 1-1.3 4.2l-2.6 3.2-3.3 4a5.8 5.8 0 0 1-8.1.8z" />
  <path d="M186.9 78a20.4 20.4 0 0 0-3.2-.8l-17 2.5-30.8 2.4-24.5 38.5 6.2 4c-.9 3.3 2.5 4.5 4.5 6.6l2.4-2.8c2.3-2.9 6.4-3.6 10.1-3.9 7.3-.6 13.6 4.4 14.5 11.1a14.7 14.7 0 0 1 16.2 1.1 13.8 13.8 0 0 1 5.2 9.4v1.3a11.8 11.8 0 0 1 3.7-.9 13.9 13.9 0 0 1 10.5 3.2 14.7 14.7 0 0 1 5.1 12.6c4.6-.3 8.4.7 11.2 3.1a12.8 12.8 0 0 1 4.3 8.7 78.6 78.6 0 0 1 0 8.9l-3.7 6a25.2 25.2 0 0 0 5.2 2.8c4.2 2.7 8.8 1.9 9.9 1.1s.4-2.4.4-2.4l-1.9-1.2 3.6-5.8 6.5 4.1c3.7.4 6.4-.7 8.1-2.5s.2-5.2.2-5.2l-7.9-5.1 3.8-6 12.7 8.1c4 .6 6.6 0 8.3-2s.7-5.9.6-6l-14.6-9.3 3.6-5.3 15.2 9.7s4.4 2.7 6.6-.5l-68.8-43.9 7.5-4.9a13.9 13.9 0 0 0 1.9 1.5l52.9 33.7a14.3 14.3 0 0 0 7.5 2.2l2.2-.2h.2a13.8 13.8 0 0 0 6.7-3.1l.6-.5 13.6-26.7-25.3-39-47.1-6.5-3.7-.7h-.3a13.7 13.7 0 0 0-8.9 2l-21.4 13.5c-.6.3-10.7 11.3-11.2 11.7l-6.9-4.1 11-11.3zm-19.8 44.8l14-22 .3-.5a6.7 6.7 0 0 1 2.3-2.7l21.4-13.5a6.1 6.1 0 0 1 3.7-.8l3.7.7 43.7 6 20.8 32-10.7 21.1a5.3 5.3 0 0 1-2.1.9h-.3a5.8 5.8 0 0 1-4.2-.8l-53-33.7a7.3 7.3 0 0 1-1.9-2l-2.1-3.5-11.1 7-13.9 17.6-.3.5a5.9 5.9 0 0 1-3.9 2.8 6.2 6.2 0 0 1-5.8-1.7 6 6 0 0 1-.6-7.4z" />
  <path d="M104.3 53.5l-7.8 12.2h-.1L79.8 91.9l-9.2 14.5 29.7 18.9 8-12.5 17.8-28.1a14.4 14.4 0 0 0-4.4-20.1l-1.4-.9zm-10.5 52.7a4.7 4.7 0 0 1-4.8-4.8 4.8 4.8 0 1 1 9.6 0 4.7 4.7 0 0 1-4.8 4.8z" />
  <path d="M268.2 82.9l17.9 28 8 12.6 29.7-19-9.3-14.5-16.6-26.1-7.8-12.3-16 10.2-1.4.9a14.6 14.6 0 0 0-4.5 20.2zm32.4 11.9a4.8 4.8 0 0 1 4.8 4.8 4.9 4.9 0 1 1-4.8-4.8z" />
  <path d="M259.8 309.6h-179a10 10 0 0 0-10 10v1a10 10 0 0 0 10 10h166.3a127.5 127.5 0 0 1 12.7-21z" />
  <path d="M326.1 264.8a9.9 9.9 0 0 0-6.2-2.3H81.2a10.1 10.1 0 0 0-10.1 10v1a10.1 10.1 0 0 0 10.1 10h205.4a121.8 121.8 0 0 1 39.5-18.7z" />
  <path d="M65.6 420.5a21.4 21.4 0 0 1-21.4-21.4V46.3a21.4 21.4 0 0 1 21.4-21.5H328a21.5 21.5 0 0 1 21.5 21.5v214.6c2.8-.2 5.6-.3 8.5-.3s7.6.2 11.3.5V46.3A41.3 41.3 0 0 0 328 5H65.6a41.4 41.4 0 0 0-41.3 41.3v352.8a41.4 41.4 0 0 0 41.3 41.3h183.8a124.6 124.6 0 0 1-8.3-19.9z" />
  <path d="M81.8 363.2a10.5 10.5 0 0 0 0 20.9h109.8a10.5 10.5 0 1 0 0-20.9z" />
  <polygon
    data-name="cross"
    points="376.5 364.4 399.1 341.9 387.4 330.2 364.9 352.7 342.1 329.9 330.4 341.6 353.2 364.4 330.4 387.2 342.1 398.9 364.9 376.1 387.4 398.7 399.1 387 376.5 364.4"
  />
  <path d="M364.7 273.1a111 111 0 1 0 111 111 111 111 0 0 0-111-111zM404 438.2l-4.1 18.9-29-39.7c-2 .2-4.1.4-6.2.4a60.5 60.5 0 0 1-6.1-.4l-29 39.7-4.1-18.9-20.8 3.8 26.4-36.2a53.4 53.4 0 1 1 67.3 0l26.3 36.2z" />
</svg>
