<svg xmlns="http://www.w3.org/2000/svg" viewBox="0 0 500 500">
  <g id="agreement-inactive">
    <g id="agreement-inactive-icon">
      <path id="pause" d="M364.1,277.3A108.9,108.9,0,1,0,472.9,386.2,109,109,0,0,0,364.1,277.3ZM349.9,446.1H328.6V326.2h21.3Zm48.8,0H378.2V326.2h20.5Z"/>
      <path id="fingers" d="M176.7,197.5a11.7,11.7,0,0,0,7.6,2.8h1a11.8,11.8,0,0,0,8.3-4.4l6.9-9,.2-.2a12.4,12.4,0,0,0,2-7.7,11.9,11.9,0,0,0-4.2-8,11.8,11.8,0,0,0-8.6-2.8l-2.2.5a12.9,12.9,0,0,0-4.9-12.1,13.7,13.7,0,0,0-14.2-1.9,13.9,13.9,0,0,0-5-11.4,13.7,13.7,0,0,0-15.9-1A11.9,11.9,0,0,0,135,131.9a12.1,12.1,0,0,0-8.4,4.6l-4.1,5.4a11.1,11.1,0,0,0-2.3,8,11.6,11.6,0,0,0,4.1,8.1,12.1,12.1,0,0,0,7.6,2.8H133l2.3-.4A13.7,13.7,0,0,0,149,174.8a14.7,14.7,0,0,0,5.5-1.2A13.7,13.7,0,0,0,168.2,188a12.5,12.5,0,0,0,4.3-.7,14.7,14.7,0,0,0,0,2.1A12.2,12.2,0,0,0,176.7,197.5ZM139,146.1l-4,5.2a3.7,3.7,0,0,1-2.7,1.5,3.9,3.9,0,0,1-4.2-3.6,4.1,4.1,0,0,1,.7-2.5l4.1-5.3a4.1,4.1,0,0,1,2.7-1.6h.4a3.9,3.9,0,0,1,2.5,1,3.8,3.8,0,0,1,1.4,2.6A4.4,4.4,0,0,1,139,146.1Zm42.2,40.1,6.6-8.6a7.5,7.5,0,0,1,2.7-1.5,3.8,3.8,0,0,1,4.2,3.5,3.4,3.4,0,0,1-.6,2.4l-6.8,8.8a3.5,3.5,0,0,1-2.6,1.5,4,4,0,0,1-4.3-3.6A3.6,3.6,0,0,1,181.2,186.2Zm-21.8-28.7-3.5,4.2h0l-2.4,3a5.9,5.9,0,0,1-8.2.8,5.8,5.8,0,0,1-.8-8.1l5.9-7.2a5.8,5.8,0,0,1,4.5-2.1,5.3,5.3,0,0,1,3.6,1.3A5.7,5.7,0,0,1,159.4,157.5Zm5.2,21.3a5.8,5.8,0,0,1-.8-8.2l2.2-2.8,1.2-1.4h0l2.4-2.9a5.9,5.9,0,0,1,8.2-.9,6.1,6.1,0,0,1,.8,8.2l-2.7,3.2h0l-3.2,4A5.8,5.8,0,0,1,164.6,178.8Z"/>
      <path id="hands" d="M190.2,78.2a20.4,20.4,0,0,0-3.2-.8L169.9,80l-30.8,2.3L114.4,121l6.3,4c-.9,3.3,2.5,4.5,4.5,6.6l2.4-2.8c2.3-2.9,6.5-3.6,10.2-3.9,7.2-.6,13.6,4.4,14.5,11.2a14.5,14.5,0,0,1,16.3,1.1,13.7,13.7,0,0,1,5.2,9.3v1.3a22.2,22.2,0,0,1,3.7-.9,14,14,0,0,1,10.5,3.3,14.7,14.7,0,0,1,5.1,12.6c4.7-.2,8.5.8,11.3,3.1a12.8,12.8,0,0,1,4.3,8.8,78.6,78.6,0,0,1,0,8.9l-3.7,6c2.8,2.1,4.2,2.2,5.1,2.8,4.3,2.7,9,1.9,10,1.1s.4-2.4.4-2.4l-1.9-1.2,3.6-5.9,6.5,4.2c3.8.4,6.5-.7,8.1-2.5s.3-5.3.3-5.3l-8-5,3.9-6,12.7,8.1c4,.6,6.6,0,8.4-2.1s.6-5.8.6-6L240,160.1l3.6-5.3,15.3,9.7s4.4,2.8,6.5-.5l-69-44,7.6-4.9a12.4,12.4,0,0,0,1.8,1.4L259,150.4a13.9,13.9,0,0,0,7.5,2.1h2.4a13.8,13.8,0,0,0,6.7-3.1l.6-.5,13.6-26.8-25.4-39-47.2-6.6-3.7-.6h-.3a14.2,14.2,0,0,0-9,2.1L182.8,91.2c-.6.3-10.8,11.3-11.2,11.7l-7-4,11.1-11.5Zm-19.9,45,14.1-22,.3-.6a6.7,6.7,0,0,1,2.3-2.7l21.5-13.5a5.5,5.5,0,0,1,3.7-.9l3.7.7,43.8,6.1,20.9,32.1-10.7,21.1a5.3,5.3,0,0,1-2.1.9h-.3a5.3,5.3,0,0,1-4.2-.9l-53.2-33.8a6.1,6.1,0,0,1-1.9-2l-2.1-3.5-11.2,7.1L181,129l-.3.5a5.9,5.9,0,0,1-3.9,2.8,6.2,6.2,0,0,1-5.8-1.7A6,6,0,0,1,170.3,123.2Z"/>
      <path id="left-cuff" d="M107.3,53.7,99.5,65.9h0L82.8,92.1l-9.3,14.6,29.8,19,8-12.6h0l18-28.1a14.7,14.7,0,0,0-4.5-20.2l-1.4-.9h0ZM96.8,106.6a4.9,4.9,0,1,1,4.8-4.9A4.8,4.8,0,0,1,96.8,106.6Z"/>
      <path id="right-cuff" d="M271.8,83.1l17.9,28.2h0l8,12.5,29.9-19-9.3-14.5L301.6,64.1h0l-7.9-12.3L277.7,62h0l-1.4.9A14.7,14.7,0,0,0,271.8,83.1Zm32.5,12a4.8,4.8,0,0,1,4.8,4.8,4.9,4.9,0,1,1-4.8-4.8Z"/>
      <path id="middle-line" d="M263.4,310.6H83.8a10,10,0,0,0-10,10.1v.9a10,10,0,0,0,10,10.1H250.7A121.8,121.8,0,0,1,263.4,310.6Z"/>
      <path id="top-line" d="M329.9,265.6a10.4,10.4,0,0,0-6.3-2.2H84.1a10,10,0,0,0-10,10v1a10,10,0,0,0,10,10H290.2A123,123,0,0,1,329.9,265.6Z"/>
      <path id="outline" d="M68.5,421.9A21.5,21.5,0,0,1,47,400.4V46.4A21.5,21.5,0,0,1,68.5,24.9H331.8a21.5,21.5,0,0,1,21.5,21.5V261.7l8.5-.3a106,106,0,0,1,11.4.6V46.4A41.5,41.5,0,0,0,331.8,5H68.5A41.5,41.5,0,0,0,27.1,46.4v354a41.5,41.5,0,0,0,41.4,41.4H252.9a124.6,124.6,0,0,1-8.3-19.9Z"/>
      <path id="bottom-line" d="M84.8,364.4a10.5,10.5,0,1,0,0,20.9H195a10.5,10.5,0,0,0,0-20.9Z"/>
    </g>
  </g>
</svg>
