<svg xmlns="http://www.w3.org/2000/svg" viewBox="0 0 500 500">
  <g id="agreements">
    <path id="fingers" d="M246.1,336.5a22.6,22.6,0,0,0-16.7-5.3,21.7,21.7,0,0,0-4.1.9,25.2,25.2,0,0,0,.1-5.5,26.4,26.4,0,0,0-37.1-21.5,26.2,26.2,0,0,0-40.2-23.9,22.7,22.7,0,0,0-40.7-10.9l-8,10.2A23,23,0,0,0,95,296.1a22.5,22.5,0,0,0,8,15.5,22.8,22.8,0,0,0,14.7,5.4h2a16.3,16.3,0,0,0,4.5-.9,26.4,26.4,0,0,0,37.1,25.7,26.4,26.4,0,0,0,26.3,27.9,26.4,26.4,0,0,0,8.4-1.4,18,18,0,0,0-.1,4,23,23,0,0,0,22.8,21h2a22.5,22.5,0,0,0,15.9-8.6L250,367.1l.3-.4a22.6,22.6,0,0,0-4.2-30.2ZM131.4,288.8l-7.8,10a7.7,7.7,0,0,1-5.2,2.8,7.4,7.4,0,0,1-8.1-6.9,7.2,7.2,0,0,1,1.4-4.9l7.9-10.2a7.1,7.1,0,0,1,5.3-2.9h.6a7,7,0,0,1,4.8,1.8,7.4,7.4,0,0,1,2.7,5.1A7.9,7.9,0,0,1,131.4,288.8Zm39.2,21.9-6.7,8.2h0l-4.7,5.7A11.1,11.1,0,0,1,142,310.5l11.4-13.9a11.1,11.1,0,0,1,8.6-4.1,10.9,10.9,0,0,1,7,2.5A11.1,11.1,0,0,1,170.6,310.7Zm37,25.6-5.1,6.2h.1l-6.3,7.7a11.2,11.2,0,0,1-15.7,1.5,11.1,11.1,0,0,1-1.5-15.6l4.4-5.5,2.3-2.7h0l4.6-5.7a11.1,11.1,0,0,1,19.7,5.9A11,11,0,0,1,207.6,336.3Zm30,21.7-13.1,17a7.4,7.4,0,0,1-13.2-4.1,7.2,7.2,0,0,1,1.4-4.9l12.7-16.6a22.4,22.4,0,0,1,5.3-2.9,7.4,7.4,0,0,1,8.1,6.8A7.3,7.3,0,0,1,237.6,358Z"/>
    <path id="hands" d="M282.1,154.2l-7.1-1.4h-.6a26.4,26.4,0,0,0-17.2,3.9l-41.5,26.1c-1,.7-20.7,21.8-21.6,22.5l-13.4-7.7,21.4-22.1L230,157.8a34.5,34.5,0,0,0-6.1-1.6l-32.9,5-59.5,4.5L83.9,240.3,96,248c-1.7,6.3,4.9,8.8,8.7,12.8l4.6-5.5c4.5-5.5,12.5-6.9,19.7-7.5,14-1.1,26.2,8.5,27.9,21.6a28.4,28.4,0,0,1,31.5,2.1,26.1,26.1,0,0,1,10,18v2.6a28.5,28.5,0,0,1,7.1-1.8,27.2,27.2,0,0,1,20.3,6.3,28.1,28.1,0,0,1,9.8,24.3c9.1-.4,16.5,1.5,21.8,6,6.9,5.9,8.1,13.8,8.4,16.9a137,137,0,0,1-.1,17.2l-7,11.5c5.4,4.1,8,4.4,9.8,5.5,8.3,5.3,17.2,3.6,19.3,2.1s.7-4.5.7-4.5l-3.7-2.4,7.1-11.3,12.4,7.9c7.4.9,12.6-1.2,15.7-4.6s.5-10.2.5-10.2l-15.3-9.8,7.4-11.6,24.5,15.6c7.7,1.2,12.8.1,16.1-3.9s1.3-11.3,1.2-11.7l-28.2-17.9,6.9-10.3,29.5,18.8s8.4,5.3,12.6-.9l-133.1-85,14.5-9.4a24.8,24.8,0,0,0,3.6,2.8l102.5,65.2a26.4,26.4,0,0,0,14.5,4.2l4.3-.3h.4a27.4,27.4,0,0,0,12.9-6l1.1-1,26.3-51.6-49-75.4ZM383.7,283.8a10.5,10.5,0,0,1-4,1.7h-.5A11.9,11.9,0,0,1,371,284L268.5,218.7a11.2,11.2,0,0,1-3.7-3.8l-4-6.8-21.6,13.6-26.9,34.1-.6.9a11.2,11.2,0,0,1-7.5,5.5,11.8,11.8,0,0,1-11.2-3.4,11.6,11.6,0,0,1-1.3-14.3L218.9,202l.6-1.1a10.9,10.9,0,0,1,4.4-5.1l41.4-26.1a12.5,12.5,0,0,1,7.2-1.7l7.2,1.3L364.2,181l40.3,62Z"/>
    <path id="left-cuff" d="M103.9,131.9l-2.7-1.7h0l-31-19.7L55.1,134.1H55L22.9,184.6,5,212.7l57.5,36.7,15.4-24.2h0l34.6-54.2A28.2,28.2,0,0,0,103.9,131.9Zm-54,80.5a9.3,9.3,0,1,1,9.4-9.3A9.3,9.3,0,0,1,49.9,212.4Z"/>
    <path id="right-cuff" d="M477.1,181.1,445,130.6h-.1l-15.1-23.7-31,19.8h0l-2.7,1.7a28.2,28.2,0,0,0-8.6,39l34.6,54.3h0l15.4,24.2L495,209.1Zm-27,27.8a9.3,9.3,0,1,1,9.3-9.3A9.4,9.4,0,0,1,450.1,208.9Z"/>
  </g>
</svg>
