<svg
  xmlns="http://www.w3.org/2000/svg"
  viewBox="0 0 500 500"
  width="500"
  height="500"
  fill="#000000"
>
  <path d="M172.1 195.2a11.4 11.4 0 0 0 7.6 2.8h1.1a11.6 11.6 0 0 0 8.2-4.5l6.9-8.9v-.2a11 11 0 0 0 2-7.6 11.6 11.6 0 0 0-12.6-10.8l-2.1.5a14 14 0 0 0 0-2.9 13.5 13.5 0 0 0-5-9.2 13.6 13.6 0 0 0-14.2-1.9 13.4 13.4 0 0 0-4.9-11.3 13.6 13.6 0 0 0-15.8-1 11.9 11.9 0 0 0-12.7-10.3 12.1 12.1 0 0 0-8.4 4.6l-4.1 5.3a12.4 12.4 0 0 0-2.3 8.1 11.9 11.9 0 0 0 4.2 8 11.7 11.7 0 0 0 7.6 2.8h1a8.5 8.5 0 0 0 2.3-.4 13.6 13.6 0 0 0 5 11.3 13.4 13.4 0 0 0 8.6 3.1 13.8 13.8 0 0 0 5.6-1.2 13.3 13.3 0 0 0 4.9 11.3 13.6 13.6 0 0 0 8.7 3.1 12.9 12.9 0 0 0 4.3-.7 7.4 7.4 0 0 0 0 2.1 11.2 11.2 0 0 0 4.1 7.9zm-37.5-51.1l-4 5.2a4 4 0 0 1-2.7 1.4 3.9 3.9 0 0 1-4.2-3.5 3.7 3.7 0 0 1 .8-2.6l4-5.2a4 4 0 0 1 2.8-1.6h.3a3.8 3.8 0 0 1 2.5.9 4 4 0 0 1 1.4 2.7 4.6 4.6 0 0 1-.9 2.7zm42 39.9l6.6-8.6a13.2 13.2 0 0 1 2.7-1.5 3.8 3.8 0 0 1 4.2 3.5 3.3 3.3 0 0 1-.6 2.4l-6.8 8.8a3.5 3.5 0 0 1-2.6 1.5 3.9 3.9 0 0 1-4.2-3.6 3.6 3.6 0 0 1 .7-2.5zm-21.7-28.6l-3.5 4.2-2.4 3a5.8 5.8 0 1 1-8.9-7.3l5.9-7.2a6 6 0 0 1 4.4-2.1 6.4 6.4 0 0 1 3.7 1.3 5.8 5.8 0 0 1 .8 8.1zm5.2 21.2a5.7 5.7 0 0 1-.8-8.1l2.2-2.8 1.2-1.4 2.4-2.9a5.7 5.7 0 0 1 8.1-.8 5.6 5.6 0 0 1 .8 8l-2.6 3.2-3.3 4a5.6 5.6 0 0 1-8 .8z" />
  <path d="M185.6 76.5a14.8 14.8 0 0 0-3.2-.9l-17 2.6-30.7 2.3-24.6 38.6 6.2 3.9c-.8 3.3 2.6 4.6 4.6 6.7l2.4-2.9c2.2-2.8 6.4-3.6 10.1-3.9 7.2-.5 13.5 4.4 14.4 11.2a14.5 14.5 0 0 1 16.3 1.1 13.3 13.3 0 0 1 5.1 9.3 5.7 5.7 0 0 1 0 1.3 15.4 15.4 0 0 1 3.7-.9 14.3 14.3 0 0 1 10.5 3.2 14.8 14.8 0 0 1 5.1 12.6c4.7-.2 8.5.8 11.2 3.1a12.4 12.4 0 0 1 4.3 8.7 59 59 0 0 1 0 8.9l-3.6 6a23 23 0 0 0 5.1 2.8c4.2 2.7 8.9 1.9 9.9 1.1s.4-2.4.4-2.4l-1.9-1.2 3.6-5.8 6.5 4.1c3.7.4 6.4-.7 8.1-2.4s.2-5.3.2-5.3l-7.9-5 3.8-6 12.7 8c4 .6 6.6.1 8.3-2s.7-5.9.6-6l-14.6-9.3 3.6-5.3 15.2 9.7s4.4 2.8 6.6-.5L191.8 118l7.5-4.8a13.3 13.3 0 0 0 1.9 1.4l52.9 33.7a14 14 0 0 0 7.5 2.2l2.2-.2h.2a14 14 0 0 0 6.7-3.2l.6-.5 13.6-26.6-25.4-38.9-47-6.5-3.7-.7h-.3a13.1 13.1 0 0 0-8.9 2l-21.4 13.5c-.5.3-10.7 11.2-11.2 11.6l-6.9-4 11-11.4zm-19.8 44.7l14-21.9.3-.6a5.8 5.8 0 0 1 2.3-2.6l21.4-13.5a7.1 7.1 0 0 1 3.7-.9l3.7.7 43.7 6 20.8 32.1-10.7 21a5.3 5.3 0 0 1-2.1.9h-.3a6.3 6.3 0 0 1-4.2-.9l-53-33.7a7.3 7.3 0 0 1-1.9-2l-2-3.5-11.2 7.1-13.9 17.6-.3.5a5.7 5.7 0 0 1-3.9 2.8 6.3 6.3 0 0 1-5.7-1.8 6 6 0 0 1-.7-7.3z" />
  <path d="M103 52l-7.8 12.2-16.6 26-9.2 14.5 29.7 19 7.9-12.6 17.9-28a14.6 14.6 0 0 0-4.5-20.1l-1.4-.9zm-10.4 52.7a4.8 4.8 0 0 1-4.8-4.8 4.7 4.7 0 0 1 4.8-4.8 4.8 4.8 0 0 1 4.8 4.8 4.9 4.9 0 0 1-4.8 4.8z" />
  <path d="M266.9 81.3l17.9 28.1 7.9 12.5 29.7-18.9-9.2-14.5-16.6-26.1h-.1l-7.8-12.3-15.9 10.2-1.5.9a14.7 14.7 0 0 0-4.4 20.1zm32.3 11.9A4.8 4.8 0 0 1 304 98a4.7 4.7 0 0 1-4.8 4.8 4.8 4.8 0 0 1-4.8-4.8 4.9 4.9 0 0 1 4.8-4.8z" />
  <path d="M258.5 308H79.6a10 10 0 0 0-10 10v.9a10 10 0 0 0 10 10h166.2a126.6 126.6 0 0 1 12.7-20.9z" />
  <path d="M324.8 263.2a10.1 10.1 0 0 0-6.3-2.3H79.9a10 10 0 0 0-10 10v1a10 10 0 0 0 10 10h205.4a118.8 118.8 0 0 1 39.5-18.7z" />
  <path d="M64.4 418.8a21.5 21.5 0 0 1-21.5-21.4V44.8a21.5 21.5 0 0 1 21.5-21.5h262.3a21.4 21.4 0 0 1 21.4 21.5v214.5c2.8-.2 5.6-.3 8.5-.3s7.6.2 11.3.5V44.8a41.3 41.3 0 0 0-41.2-41.3H64.4a41.3 41.3 0 0 0-41.3 41.3v352.6a41.3 41.3 0 0 0 41.3 41.2h183.7a123.5 123.5 0 0 1-8.3-19.8z" />
  <path d="M80.6 361.5a10.5 10.5 0 1 0 0 20.9h109.8a10.5 10.5 0 0 0 0-20.9z" />
  <path d="M362.2 332.6a15.6 15.6 0 0 1-8.6-2.6l-33 33h83.3l-33-33a16.2 16.2 0 0 1-8.7 2.6z" />
  <polygon
    data-name="cross"
    points="388.6 383.8 388.7 383.7 384.3 379.4 384.3 379.4 381.3 376.4 363.8 393.9 346.1 376.3 335.6 386.7 353.3 404.4 335.6 422.1 346.1 432.5 363.8 414.8 381.3 432.3 384.3 429.3 384.3 429.4 388.7 425 388.6 425 391.7 421.9 374.2 404.4 391.7 386.9 388.6 383.8"
  />
  <circle cx="362.2" cy="317" r="9.5" />
  <path d="M362.2 271.7a110.9 110.9 0 1 0 110.9 110.9 111 111 0 0 0-110.9-110.9zm73 150.3a20.6 20.6 0 0 1-20.6 20.6H309.8a20.7 20.7 0 0 1-20.6-20.6v-38.4a20.6 20.6 0 0 1 20.6-20.6h2.1l37.3-37.4a15.7 15.7 0 1 1 28.7-8.6 14.9 14.9 0 0 1-2.7 8.6l37.4 37.4h2a20.6 20.6 0 0 1 20.6 20.6z" />
</svg>
