<svg xmlns="http://www.w3.org/2000/svg" viewBox="0 0 500 500">
  <g id="agreement-accepted">
    <path id="outline" d="M386,24.4H114A42.8,42.8,0,0,0,71.2,67.2V432.8A42.8,42.8,0,0,0,114,475.6H386a42.8,42.8,0,0,0,42.8-42.8V67.2A42.8,42.8,0,0,0,386,24.4Zm22.2,265.7V432.8A22.3,22.3,0,0,1,386,455.1H114a22.3,22.3,0,0,1-22.2-22.3V67.2A22.3,22.3,0,0,1,114,44.9H386a22.3,22.3,0,0,1,22.2,22.3Z"/>
    <rect id="bottom-line" x="120.1" y="377.7" width="144" height="21.72" rx="10.4"/>
    <rect id="middle-line" x="119.4" y="334.3" width="268.1" height="21.72" rx="10.4"/>
    <rect id="top-line" x="119.4" y="289.8" width="268.1" height="21.72" rx="10.4"/>
    <path id="fingers" d="M226,223.7a11.7,11.7,0,0,0,7.6,2.8h1a11.8,11.8,0,0,0,8.2-4.4l6.8-8.9.2-.2a11.7,11.7,0,0,0-2.2-15.6,11.9,11.9,0,0,0-8.5-2.7l-2.1.5a13.1,13.1,0,0,0,0-2.8,13.8,13.8,0,0,0-4.9-9.2,13.5,13.5,0,0,0-14.1-1.9A13.6,13.6,0,0,0,197.3,169a11.7,11.7,0,0,0-12.6-10.2,11.4,11.4,0,0,0-8.3,4.5l-4.1,5.3a11.7,11.7,0,0,0,1.9,16,11.3,11.3,0,0,0,7.5,2.7h1l2.4-.4a13.5,13.5,0,0,0,19,13.1,13.4,13.4,0,0,0,4.9,11.3,13.9,13.9,0,0,0,8.6,3,15.4,15.4,0,0,0,4.3-.6,6.7,6.7,0,0,0,0,2A11.4,11.4,0,0,0,226,223.7Zm-37.3-50.9-4,5.2a4,4,0,0,1-2.7,1.4,3.9,3.9,0,0,1-4.1-3.5,3.4,3.4,0,0,1,.7-2.5l4-5.3a4.3,4.3,0,0,1,2.8-1.5h.3a3.7,3.7,0,0,1,3.8,3.5A3.6,3.6,0,0,1,188.7,172.8Zm41.8,39.7L237,204a13.2,13.2,0,0,1,2.7-1.5,3.9,3.9,0,0,1,4.2,3.5,4.3,4.3,0,0,1-.6,2.4l-6.7,8.7a3.7,3.7,0,0,1-2.7,1.5,3.9,3.9,0,0,1-4.2-3.6A3.6,3.6,0,0,1,230.5,212.5Zm-21.7-28.4-3.4,4.2h0l-2.4,2.9a5.7,5.7,0,0,1-8.8-7.2l5.8-7.1a5.6,5.6,0,0,1,4.4-2.1,5.3,5.3,0,0,1,3.6,1.3A5.6,5.6,0,0,1,208.8,184.1Zm5.2,21.1a5.8,5.8,0,0,1-.8-8.1l2.3-2.8,1.1-1.4h0L219,190a5.8,5.8,0,0,1,8.1-.8,5.3,5.3,0,0,1,2,3.9,5.4,5.4,0,0,1-1.2,4.1l-2.6,3.2h0l-3.3,4A5.7,5.7,0,0,1,214,205.2Z"/>
    <path id="hands" d="M170.5,151.9c-.8,3.2,2.6,4.5,4.5,6.6l2.4-2.9c2.3-2.8,6.4-3.5,10.1-3.8,7.2-.6,13.5,4.4,14.3,11.1A14.5,14.5,0,0,1,218,164a13.2,13.2,0,0,1,5.1,9.2,5.6,5.6,0,0,1,0,1.3,22.2,22.2,0,0,1,3.7-.9,14.4,14.4,0,0,1,10.4,3.2,14.8,14.8,0,0,1,5.1,12.6c4.6-.3,8.4.7,11.1,3.1a12.1,12.1,0,0,1,4.3,8.6,57.1,57.1,0,0,1,0,8.8l-3.6,6a23,23,0,0,0,5.1,2.8c4.2,2.7,8.8,1.8,9.9,1s.3-2.3.3-2.3l-1.9-1.2,3.6-5.8,6.4,4.1c3.8.4,6.5-.6,8.1-2.4s.2-5.3.2-5.3l-7.8-5,3.8-5.9,12.5,8c4,.6,6.6,0,8.4-2s.6-5.9.5-6l-14.4-9.2,3.5-5.3,15.1,9.6s4.4,2.8,6.5-.4l-68.3-43.7,7.4-4.8a13.3,13.3,0,0,0,1.9,1.4L307.5,177a13.9,13.9,0,0,0,7.4,2.2l2.3-.2h.2a13.9,13.9,0,0,0,6.6-3.1l.6-.5,13.5-26.5-25.2-38.7-46.8-6.5-3.6-.7h-.3a14.3,14.3,0,0,0-8.9,2L232,118.4c-.5.4-10.6,11.2-11.1,11.6l-6.8-4L225,114.7l14.4-9.1a20.4,20.4,0,0,0-3.2-.8l-16.9,2.5-30.5,2.3L164.3,148Zm49.2-1.8,14-21.8.3-.6a5.1,5.1,0,0,1,2.2-2.6l21.3-13.4a7.1,7.1,0,0,1,3.7-.9l3.7.7,43.4,6L329,149.4l-10.7,20.9a6.4,6.4,0,0,1-2.1.9H316a5.7,5.7,0,0,1-4.2-.8l-52.7-33.5a7.3,7.3,0,0,1-1.9-2l-2-3.5-11.1,7-13.8,17.5-.3.5a5.9,5.9,0,0,1-3.9,2.8,6,6,0,0,1-5.7-1.8A5.8,5.8,0,0,1,219.7,150.1Z"/>
    <path id="left-cuff" d="M161.3,140.2h0L179,112.3a14.4,14.4,0,0,0-4.4-20l-1.4-.9h0L157.3,81.2l-7.7,12.2h-.1L133,119.4l-9.2,14.4,29.5,18.8Zm-14.4-6.6a4.8,4.8,0,1,1,4.8-4.7A4.8,4.8,0,0,1,146.9,133.6Z"/>
    <path id="right-cuff" d="M338,138.3l7.9,12.5L375.5,132l-9.2-14.5L349.8,91.6h-.1L342,79.4,326.1,89.5h0l-1.4.9a14.5,14.5,0,0,0-4.5,20Zm14.4-16a4.8,4.8,0,1,1-4.8,4.7A4.7,4.7,0,0,1,352.4,122.3Z"/>
  </g>
</svg>
