<svg xmlns="http://www.w3.org/2000/svg" viewBox="0 0 500 500">
  <g id="agreement-funding">
    <path id="outline" d="M397.7,5H102.3A46.5,46.5,0,0,0,55.9,51.5v397A46.5,46.5,0,0,0,102.3,495H397.7a46.5,46.5,0,0,0,46.4-46.5V51.5A46.5,46.5,0,0,0,397.7,5Zm24.1,301V448.5a24.1,24.1,0,0,1-24.1,24.2H102.3a24.1,24.1,0,0,1-24.1-24.2V51.5a24.1,24.1,0,0,1,24.1-24.2H397.7a24.1,24.1,0,0,1,24.1,24.2V306Z"/>
    <path id="fingers" d="M252.3,201.5a12.8,12.8,0,0,0-4.5-8.7,12.5,12.5,0,0,0-9.3-2.9,6.8,6.8,0,0,0-2.3.5,15.8,15.8,0,0,0,.1-3.1,14.9,14.9,0,0,0-5.4-10,14.7,14.7,0,0,0-15.3-2,15,15,0,0,0-5.3-12.2,14.8,14.8,0,0,0-17.1-1.1,12.8,12.8,0,0,0-13.7-11.1,12.3,12.3,0,0,0-9,5l-4.5,5.7a13.5,13.5,0,0,0-2.5,8.7,12.6,12.6,0,0,0,4.5,8.6,12.4,12.4,0,0,0,8.2,3h1.1a11.9,11.9,0,0,0,2.6-.5,14.5,14.5,0,0,0,5.3,12.3,15,15,0,0,0,9.4,3.3,13.7,13.7,0,0,0,5.9-1.3,14.6,14.6,0,0,0,5.4,12.2,14.3,14.3,0,0,0,9.3,3.4,15,15,0,0,0,4.7-.8,8.9,8.9,0,0,0,0,2.3,12.1,12.1,0,0,0,4.4,8.6,12.6,12.6,0,0,0,8.2,3h1.1a12.6,12.6,0,0,0,8.9-4.8l7.5-9.7v-.2A12.2,12.2,0,0,0,252.3,201.5Zm-75.7-28.1a4.2,4.2,0,0,1-4.5-3.9,4,4,0,0,1,.8-2.7l4.4-5.7a3.7,3.7,0,0,1,2.9-1.6h.4a4.1,4.1,0,0,1,4.1,3.9,3.9,3.9,0,0,1-.9,2.9l-4.3,5.6A4.3,4.3,0,0,1,176.6,173.4Zm14,13.6a6.2,6.2,0,0,1-.8-8.7l6.3-7.7a6.2,6.2,0,1,1,9.6,7.8L202,183h0l-2.6,3.2A6.3,6.3,0,0,1,190.6,187Zm20.7,14.3a6.3,6.3,0,0,1-.9-8.7l2.5-3,1.3-1.6h0l2.6-3.2a6.2,6.2,0,0,1,8.7-.8,5.7,5.7,0,0,1,2.2,4.2,6.1,6.1,0,0,1-1.3,4.5l-2.9,3.5h0l-3.5,4.2A6.1,6.1,0,0,1,211.3,201.3Zm31.8,3.5-7.3,9.5a4.1,4.1,0,0,1-7.4-2.3,4,4,0,0,1,.8-2.7l7.1-9.3a18.8,18.8,0,0,1,2.9-1.6,4.2,4.2,0,0,1,4.6,3.8A4,4,0,0,1,243.1,204.8Z"/>
    <path id="hands" d="M254.8,212.9a26.7,26.7,0,0,0,5.5,3.1c4.7,2.9,9.6,2,10.8,1.1s.4-2.5.4-2.5l-2.1-1.3,4-6.3,6.9,4.4c4.1.5,7-.6,8.8-2.6s.2-5.7.2-5.7l-8.5-5.4,4.1-6.5,13.7,8.7c4.3.7,7.1.1,9-2.2s.7-6.3.6-6.5l-15.7-10,3.9-5.7L312.8,186s4.7,2.9,7-.6l-74.2-47.3,8.1-5.3a15.6,15.6,0,0,0,2,1.6l57.2,36.4a15.2,15.2,0,0,0,8,2.3l2.4-.2h.3a15.7,15.7,0,0,0,7.1-3.4l.7-.6,14.7-28.7-27.4-42-50.8-7.1-4-.7h-.3a14.6,14.6,0,0,0-9.6,2.2l-23.1,14.5c-.6.4-11.6,12.2-12.1,12.6l-7.4-4.3,11.9-12.3,15.6-9.9a17.6,17.6,0,0,0-3.5-.9L217.1,95l-33.2,2.6-26.5,41.6,6.7,4.3c-.9,3.5,2.8,4.9,4.9,7.1l2.6-3.1c2.4-3,6.9-3.8,10.9-4.1a14.3,14.3,0,0,1,15.6,12,15.6,15.6,0,0,1,17.5,1.2,14.6,14.6,0,0,1,5.6,10v1.5a13.8,13.8,0,0,1,4-1,15.1,15.1,0,0,1,11.3,3.5,15.8,15.8,0,0,1,5.5,13.6c5-.3,9.2.8,12.1,3.3a13.4,13.4,0,0,1,4.7,9.4,91.4,91.4,0,0,1,0,9.6m65.8-43.1a6.4,6.4,0,0,1-2.3,1H322a6.2,6.2,0,0,1-4.5-.9l-57.2-36.3a7,7,0,0,1-2-2.2l-2.3-3.8-12,7.6-15,19-.4.6a6,6,0,0,1-4.1,3,6.9,6.9,0,0,1-6.3-1.9,6.6,6.6,0,0,1-.7-8l15.1-23.7.4-.6a6.6,6.6,0,0,1,2.4-2.8l23.2-14.6a6.3,6.3,0,0,1,4-.9l4,.7,47.1,6.5,22.5,34.6Z"/>
    <path id="left-cuff" d="M168.5,78.7l-1.5-.9h0l-17.3-11-8.4,13.2h0l-18,28.1-9.9,15.7,32,20.4,8.6-13.5h0l19.3-30.3A15.6,15.6,0,0,0,168.5,78.7Zm-30.1,44.9a5.2,5.2,0,1,1,5.2-5.1A5.1,5.1,0,0,1,138.4,123.6Z"/>
    <path id="right-cuff" d="M331.5,76.7l1.5-.9h0l17.3-11,8.4,13.2h0l18,28.1,9.9,15.7-32,20.4L346,128.7h0L326.7,98.5A15.7,15.7,0,0,1,331.5,76.7Zm30.1,44.9a5.2,5.2,0,1,0-5.2-5.1A5.1,5.1,0,0,0,361.6,121.6Z"/>
    <path id="dollar-sign" d="M244.5,384.2a72.5,72.5,0,0,1-34-9l-6.2,23.9c7.8,4.6,21.1,8.2,34.8,8.9v19.4h20.1V406.5c23.6-4.1,36.5-19.6,36.5-37.9s-9.9-29.7-34.2-38.3c-17.4-6.5-24.6-10.8-24.6-17.6s4.3-11.5,17.6-11.5c14.8,0,24.2,4.7,29.5,7l5.9-23.2c-6.7-3.2-15.9-6.1-29.7-6.7v-18h-20v19.4c-22,4.3-34.7,18.5-34.7,36.5,0,19.9,15,30.1,36.9,37.5,15.2,5.1,21.7,10,21.7,17.8S256.1,384.2,244.5,384.2Z"/>
  </g>
</svg>
