<svg xmlns="http://www.w3.org/2000/svg" viewBox="0 0 500 500">
  <g id="agreement-quoted">
    <path id="fingers" d="M174,196.7a11.4,11.4,0,0,0,7.6,2.8h1a11.6,11.6,0,0,0,8.3-4.5l6.9-8.9v-.2a11.5,11.5,0,0,0,2-7.6,11.7,11.7,0,0,0-12.8-10.8,8,8,0,0,0-2.1.5,12.9,12.9,0,0,0-4.9-12.1,13.6,13.6,0,0,0-14.2-1.9,13.6,13.6,0,0,0-20.8-12.3,11.8,11.8,0,0,0-12.6-10.3,12.1,12.1,0,0,0-8.4,4.6l-4.1,5.3a12.4,12.4,0,0,0-2.3,8.1,11.9,11.9,0,0,0,11.7,10.8h1.1a8.5,8.5,0,0,0,2.3-.4,13.6,13.6,0,0,0,5,11.3,13.4,13.4,0,0,0,8.6,3.1,13,13,0,0,0,5.5-1.2,13.6,13.6,0,0,0,5,11.3,13.5,13.5,0,0,0,8.7,3.1,12.9,12.9,0,0,0,4.3-.7,7.4,7.4,0,0,0,0,2.1A11.2,11.2,0,0,0,174,196.7Zm-37.5-51.1-4,5.2a4,4,0,0,1-2.7,1.4,3.9,3.9,0,0,1-4.2-3.5,4.3,4.3,0,0,1,.7-2.6l4.1-5.2a4.1,4.1,0,0,1,2.7-1.6h.4a3.7,3.7,0,0,1,3.8,3.6A3.9,3.9,0,0,1,136.5,145.6Zm42,39.9,6.6-8.6a13.2,13.2,0,0,1,2.7-1.5,3.9,3.9,0,0,1,4.2,3.5,3.8,3.8,0,0,1-.6,2.4l-6.8,8.8a3.5,3.5,0,0,1-2.6,1.5,3.9,3.9,0,0,1-4.2-3.6A3.6,3.6,0,0,1,178.5,185.5Zm-21.8-28.6-3.4,4.2h0l-2.4,3a5.8,5.8,0,0,1-8.1.8,5.7,5.7,0,0,1-.8-8.1l5.9-7.2a5.8,5.8,0,0,1,4.4-2.1,5.9,5.9,0,0,1,3.6,1.3A5.6,5.6,0,0,1,156.7,156.9Zm5.2,21.2a5.8,5.8,0,0,1-.8-8.1l2.3-2.8,1.2-1.4h0l2.4-2.9a5.8,5.8,0,0,1,10.2,3,5.7,5.7,0,0,1-1.3,4.2l-2.6,3.2h0l-3.3,4A5.8,5.8,0,0,1,161.9,178.1Z"/>
    <path id="hands" d="M187.5,78a14.8,14.8,0,0,0-3.2-.9l-17,2.6L136.6,82,112,120.6l6.2,3.9c-.9,3.3,2.6,4.6,4.6,6.7l2.3-2.9c2.3-2.8,6.5-3.6,10.2-3.9,7.2-.5,13.5,4.4,14.4,11.2a14.4,14.4,0,0,1,16.2,1.1,13.4,13.4,0,0,1,5.2,9.3v1.3a15.4,15.4,0,0,1,3.7-.9,14.3,14.3,0,0,1,10.5,3.2,14.8,14.8,0,0,1,5.1,12.6c4.6-.2,8.4.8,11.2,3.1a12.8,12.8,0,0,1,4.3,8.7,78.6,78.6,0,0,1,0,8.9l-3.7,6c2.8,2.1,4.2,2.2,5.1,2.8,4.3,2.7,8.9,1.9,10,1.1s.4-2.4.4-2.4l-1.9-1.2,3.6-5.8,6.4,4.1c3.8.4,6.5-.7,8.1-2.4s.3-5.3.3-5.3l-7.9-5.1,3.8-5.9,12.6,8c4,.6,6.7.1,8.4-2s.6-5.9.6-6l-14.6-9.3,3.6-5.3,15.2,9.7s4.4,2.7,6.5-.5l-68.7-43.9,7.5-4.8a13.3,13.3,0,0,0,1.9,1.4L256,149.8a14,14,0,0,0,7.5,2.2l2.2-.2h.2a14.1,14.1,0,0,0,6.6-3.2l.7-.5,13.5-26.6L261.4,82.6l-47-6.5-3.7-.7h-.3a13.8,13.8,0,0,0-8.9,2.1L180.1,90.9c-.6.3-10.7,11.2-11.2,11.6l-6.9-4,11-11.4Zm-19.8,44.7,14-21.9.3-.6a5.8,5.8,0,0,1,2.3-2.6l21.4-13.5a7.1,7.1,0,0,1,3.7-.9l3.7.7,43.6,6L277.6,122l-10.8,21a4.3,4.3,0,0,1-2.1.9h-.2a6.3,6.3,0,0,1-4.2-.9l-53-33.7a6.1,6.1,0,0,1-1.9-2l-2.1-3.5L192.2,111l-13.9,17.6-.3.5a5.7,5.7,0,0,1-3.9,2.8,6.3,6.3,0,0,1-5.7-1.8A5.8,5.8,0,0,1,167.7,122.7Z"/>
    <path id="left-cuff" d="M104.9,53.5,97.1,65.7h0l-16.6,26-9.3,14.5,29.7,18.9,8-12.5h0l17.9-28a14.6,14.6,0,0,0-4.5-20.1l-1.4-.9h0ZM94.4,106.2a4.9,4.9,0,0,1-4.8-4.8,4.9,4.9,0,0,1,9.7,0A4.9,4.9,0,0,1,94.4,106.2Z"/>
    <path id="right-cuff" d="M268.8,82.8l17.8,28.1h0l8,12.5,29.7-18.9L315.1,90,298.5,63.9h-.1l-7.8-12.3-16,10.2h0l-1.4.9A14.5,14.5,0,0,0,268.8,82.8Zm32.3,11.9a4.8,4.8,0,0,1,4.8,4.8,4.8,4.8,0,1,1-9.6,0A4.8,4.8,0,0,1,301.1,94.7Z"/>
    <path id="middle-line" d="M260.4,309.5H81.5a10,10,0,0,0-10,10v.9a9.9,9.9,0,0,0,10,10H247.7A120.1,120.1,0,0,1,260.4,309.5Z"/>
    <path id="top-line" d="M326.6,264.6a10.2,10.2,0,0,0-6.2-2.2H81.8a10,10,0,0,0-10,10v1a10,10,0,0,0,10,10H287.1A123,123,0,0,1,326.6,264.6Z"/>
    <path id="outline" d="M66.3,420.3a21.4,21.4,0,0,1-21.5-21.4V46.3A21.5,21.5,0,0,1,66.3,24.8H328.5A21.5,21.5,0,0,1,350,46.3V260.8c2.8-.2,5.6-.4,8.5-.4a105.5,105.5,0,0,1,11.3.6V46.3A41.3,41.3,0,0,0,328.5,5H66.3A41.3,41.3,0,0,0,25,46.3V398.9a41.3,41.3,0,0,0,41.3,41.2H250a115.4,115.4,0,0,1-8.4-19.8Z"/>
    <path id="bottom-line" d="M82.5,363a10.5,10.5,0,1,0,0,20.9H192.2a10.5,10.5,0,1,0,0-20.9Z"/>
    <path id="quotes" d="M364.1,273.2A110.9,110.9,0,1,0,475,384.1,111,111,0,0,0,364.1,273.2ZM351.5,384q0,44.3-50.1,50.1V408.9q24.3-.7,25.2-24.9H301.4V333.7h50.1Zm75.3,0q0,44.3-50.1,50.1V408.9q24.2-.7,25.2-24.9H376.7V333.7h50.1Z"/>
  </g>
</svg>
