<svg
  xmlns="http://www.w3.org/2000/svg"
  viewBox="0 0 500 500"
  width="500"
  height="500"
  fill="#ffffff"
>
  <path d="M468.7 340.3l-2.8-6.1h-.2a111.1 111.1 0 0 0-198.4 0h-.4l-2.6 6.1a110.7 110.7 0 0 0-8.8 43.4v.4a111.5 111.5 0 0 0 8.8 43.4l2.8 6h.2a111 111 0 0 0 198.4 0h.4l2.6-6a111.1 111.1 0 0 0 8.8-43.4v-.4a111.5 111.5 0 0 0-8.8-43.4zm-11.1 44.1a92.9 92.9 0 0 1-5.4 30.6l-2 4.7a91.1 91.1 0 0 1-167.4 0l-1.4-3.1a92.8 92.8 0 0 1-6-32.2v-1a92.4 92.4 0 0 1 5.4-30.5l2-4.7a91.1 91.1 0 0 1 167.4 0l1.4 3.1a92.8 92.8 0 0 1 6 32.2z" />
  <polygon points="370.1 321.4 350.2 321.4 350.2 384.1 401.4 435.3 415.5 421.2 370.1 375.8 370.1 321.4" />
  <path d="M80.8 360.7a10.4 10.4 0 1 0 0 20.7h109.1a10.4 10.4 0 1 0 0-20.7z" />
  <path d="M257.7 307.5H79.8a9.9 9.9 0 0 0-9.9 9.9v1a9.9 9.9 0 0 0 9.9 9.9h165.3a115.2 115.2 0 0 1 12.6-20.8z" />
  <path d="M323.6 262.9a9.8 9.8 0 0 0-6.2-2.2H80.1a9.9 9.9 0 0 0-9.9 9.9v.9a9.9 9.9 0 0 0 9.9 10h204.2a120.6 120.6 0 0 1 39.3-18.6z" />
  <path d="M171.8 195.4a11.8 11.8 0 0 0 7.6 2.7h1a11.8 11.8 0 0 0 8.2-4.4l6.8-9 .2-.2a11.7 11.7 0 0 0 2-7.5 11.9 11.9 0 0 0-4.2-8 11.5 11.5 0 0 0-8.5-2.7 5.4 5.4 0 0 0-2.1.5 14.1 14.1 0 0 0 0-2.9 13.6 13.6 0 0 0-19-11 13.7 13.7 0 0 0-5-11.3 13.6 13.6 0 0 0-15.7-1 11.7 11.7 0 0 0-12.6-10.2 11.9 11.9 0 0 0-8.3 4.6l-4.1 5.3a11.9 11.9 0 0 0-2.3 7.9 11.7 11.7 0 0 0 4.2 8 11.4 11.4 0 0 0 7.5 2.8h1a10 10 0 0 0 2.4-.4 13.4 13.4 0 0 0 4.9 11.3 13.2 13.2 0 0 0 8.6 3.1 15.1 15.1 0 0 0 5.5-1.2 13.1 13.1 0 0 0 4.9 11.2 13.4 13.4 0 0 0 8.6 3.1 12.5 12.5 0 0 0 4.3-.7 7.4 7.4 0 0 0 0 2.1 11.6 11.6 0 0 0 4.1 7.9zm-37.3-50.9l-4 5.2a4 4 0 0 1-2.6 1.4 3.9 3.9 0 0 1-4.2-3.5 3.7 3.7 0 0 1 .7-2.6l4.1-5.2a3.6 3.6 0 0 1 2.7-1.5h.3a3.8 3.8 0 0 1 2.5.9 3.3 3.3 0 0 1 1.3 2.6 3.8 3.8 0 0 1-.8 2.7zm41.8 39.7l6.5-8.5a10.7 10.7 0 0 1 2.7-1.6 3.9 3.9 0 0 1 4.2 3.6 3.7 3.7 0 0 1-.6 2.3l-6.7 8.8a4 4 0 0 1-2.7 1.4 3.9 3.9 0 0 1-4.2-3.5 3.2 3.2 0 0 1 .8-2.5zm-21.6-28.4l-3.5 4.2-2.4 2.9a5.7 5.7 0 1 1-8.8-7.3l5.8-7.1a5.6 5.6 0 0 1 4.4-2.1 6.4 6.4 0 0 1 3.7 1.3 5.9 5.9 0 0 1 .8 8.1zm5.1 21a5.7 5.7 0 0 1-.8-8l2.3-2.8 1.1-1.4h.1l2.3-2.9a5.7 5.7 0 0 1 8.1-.8 5.1 5.1 0 0 1 2 3.8 5.8 5.8 0 0 1-1.2 4.2l-2.6 3.2-3.3 3.9a5.6 5.6 0 0 1-8 .8z" />
  <path
    data-name="hands"
    d="M185.2 77.2a20.4 20.4 0 0 0-3.2-.8L165.1 79l-30.5 2.3-24.4 38.3 6.1 4c-.8 3.2 2.6 4.5 4.5 6.6l2.4-2.9c2.3-2.8 6.4-3.5 10.1-3.8 7.2-.6 13.5 4.3 14.3 11a14.7 14.7 0 0 1 16.2 1.1 13.3 13.3 0 0 1 5.1 9.3 5.7 5.7 0 0 1 0 1.3 15.4 15.4 0 0 1 3.7-.9 14 14 0 0 1 10.4 3.2 14.6 14.6 0 0 1 5.1 12.5c4.6-.2 8.4.8 11.2 3.1a12.6 12.6 0 0 1 4.2 8.7 57.9 57.9 0 0 1 0 8.8l-3.6 5.9a19.2 19.2 0 0 0 5.1 2.8c4.2 2.8 8.8 1.9 9.9 1.1s.3-2.3.3-2.3l-1.9-1.2 3.6-5.8 6.5 4c3.7.5 6.4-.6 8-2.4s.2-5.2.2-5.2l-7.8-5 3.8-6 12.6 8c3.9.7 6.5.1 8.3-2s.6-5.8.6-5.9l-14.5-9.3 3.5-5.2 15.1 9.6s4.4 2.7 6.5-.5l-68.3-43.6 7.4-4.8a13.3 13.3 0 0 0 1.9 1.4l52.6 33.5a13.8 13.8 0 0 0 7.4 2.1h2.5a13.9 13.9 0 0 0 6.6-3.1l.6-.5 13.5-26.5-25.2-38.9-46.8-6.4-3.6-.7h-.3a13.1 13.1 0 0 0-8.9 2l-21.3 13.4c-.5.3-10.6 11.2-11.1 11.6l-6.8-4 10.9-11.4zm-19.7 44.6l14-21.9.3-.5a5.1 5.1 0 0 1 2.2-2.6l21.3-13.4a5.6 5.6 0 0 1 3.7-.9l3.7.7 43.4 6 20.7 31.8-10.7 20.9a4.8 4.8 0 0 1-2.1.9h-.2a6.3 6.3 0 0 1-4.2-.9l-52.7-33.5a6.1 6.1 0 0 1-1.9-2l-2-3.4-11.1 7-13.8 17.5-.3.5a5.8 5.8 0 0 1-3.9 2.7 6 6 0 0 1-6.4-9z"
  />
  <path d="M103.1 52.9l-7.7 12.2h-.1L78.8 91l-9.2 14.4 29.6 18.9 7.9-12.5 17.7-27.9a14.4 14.4 0 0 0-4.4-20L119 63zm-10.4 52.4a4.8 4.8 0 0 1-4.8-4.8 4.8 4.8 0 1 1 9.6 0 4.8 4.8 0 0 1-4.8 4.8z" />
  <path d="M266 82.1l17.8 27.9 7.9 12.4 29.6-18.8-9.2-14.4-16.5-25.9h-.1l-7.7-12.1-15.9 10-1.4.9a14.5 14.5 0 0 0-4.5 20zm32.2 11.8a4.8 4.8 0 1 1 0 9.6 4.8 4.8 0 0 1 0-9.6z" />
  <path d="M64.7 417.7a21.3 21.3 0 0 1-21.3-21.3V45.7a21.3 21.3 0 0 1 21.3-21.3h260.8a21.4 21.4 0 0 1 21.3 21.3V259q4.2-.3 8.4-.3c3.8 0 7.6.2 11.3.5V45.7a41.1 41.1 0 0 0-41-41H64.7a41.1 41.1 0 0 0-41 41v350.7a41.1 41.1 0 0 0 41 41h182.6a117 117 0 0 1-8.2-19.7z" />
</svg>
