<svg xmlns="http://www.w3.org/2000/svg" viewBox="0 0 500 500">
  <g id="agreement-prequoted">
    <path id="fingers" d="M169.5,192.8a11.3,11.3,0,0,0,7.4,2.7h1a11.9,11.9,0,0,0,8.1-4.3l6.8-8.8v-.2a11.8,11.8,0,0,0,2-7.5,11.7,11.7,0,0,0-12.5-10.5,5.4,5.4,0,0,0-2.1.5,13.1,13.1,0,0,0,0-2.8A13.2,13.2,0,0,0,161.6,151a13.4,13.4,0,0,0-20.4-12.1,11.6,11.6,0,0,0-12.4-10.1,11.8,11.8,0,0,0-8.2,4.6l-4,5.1a11.9,11.9,0,0,0-2.3,7.9,11.6,11.6,0,0,0,4.1,7.9,11.8,11.8,0,0,0,7.4,2.7h1l2.3-.5a13.6,13.6,0,0,0,4.9,11.1,13.1,13.1,0,0,0,8.5,3.1,12.9,12.9,0,0,0,5.4-1.2,13.2,13.2,0,0,0,13.3,14.1,12,12,0,0,0,4.2-.7V185A11.6,11.6,0,0,0,169.5,192.8Zm-36.8-50.1-3.9,5.1a4,4,0,0,1-2.6,1.4,3.8,3.8,0,0,1-4.1-3.5,3.6,3.6,0,0,1,.7-2.5l4-5.1a3.6,3.6,0,0,1,2.7-1.5h.3a3.9,3.9,0,0,1,3.8,3.5A3.8,3.8,0,0,1,132.7,142.7Zm41.2,39.1,6.4-8.4a13.2,13.2,0,0,1,2.7-1.5,3.8,3.8,0,0,1,4.1,3.5,3.2,3.2,0,0,1-.6,2.3l-6.6,8.7a4,4,0,0,1-2.6,1.4,3.7,3.7,0,0,1-4.1-3.5A3.6,3.6,0,0,1,173.9,181.8Zm-21.3-28-3.4,4.2h0l-2.4,2.8a5.6,5.6,0,0,1-7.9.8,5.7,5.7,0,0,1-.8-7.9l5.8-7a5.4,5.4,0,0,1,4.3-2.1,5.3,5.3,0,0,1,3.6,1.3A5.7,5.7,0,0,1,152.6,153.8Zm5.1,20.8a5.7,5.7,0,0,1-.8-8l2.2-2.7,1.2-1.4h0l2.3-2.9a5.7,5.7,0,0,1,7.9-.8,5.6,5.6,0,0,1,.8,8l-2.5,3.1h0l-3.2,3.9A5.7,5.7,0,0,1,157.7,174.6Z"/>
    <path id="hands" d="M182.7,76.5a13,13,0,0,0-3.2-.8l-16.6,2.5-30.1,2.3-24.1,37.7,6.1,3.9c-.8,3.2,2.5,4.4,4.5,6.5l2.3-2.8c2.3-2.8,6.3-3.5,9.9-3.8a13,13,0,0,1,14.2,10.9,14.3,14.3,0,0,1,15.9,1.1,12.9,12.9,0,0,1,5,9.1,5.7,5.7,0,0,1,.1,1.3,13.4,13.4,0,0,1,13.8,2.3,14.4,14.4,0,0,1,5,12.3c4.6-.2,8.3.7,11,3a12.4,12.4,0,0,1,4.2,8.6,54.6,54.6,0,0,1,0,8.6l-3.6,5.9c2.8,2.1,4.1,2.2,5,2.8,4.2,2.7,8.8,1.8,9.8,1s.3-2.3.3-2.3l-1.8-1.2,3.6-5.7,6.3,4c3.7.5,6.3-.6,7.9-2.3s.2-5.2.2-5.2l-7.7-4.9,3.7-5.9,12.4,7.9c3.9.6,6.5,0,8.2-2s.6-5.7.6-5.9l-14.3-9.1,3.5-5.1,14.9,9.4s4.3,2.7,6.4-.4l-67.3-43,7.3-4.8a11,11,0,0,0,1.8,1.4l51.9,33.1a14.4,14.4,0,0,0,7.3,2.1l2.2-.2h.2a13.6,13.6,0,0,0,6.5-3.1l.6-.5,13.3-26.1L255.1,81,209,74.6l-3.6-.6h-.3a13.9,13.9,0,0,0-8.7,2l-21,13.2c-.5.3-10.5,11-10.9,11.4l-6.8-3.9,10.8-11.2Zm-19.4,43.8L177,98.8l.3-.5a5.8,5.8,0,0,1,2.3-2.6l20.9-13.2a7.1,7.1,0,0,1,3.7-.9l3.6.7,42.7,5.9,20.4,31.4-10.5,20.6a4.5,4.5,0,0,1-2,.9h-.3a5.5,5.5,0,0,1-4.1-.8l-51.9-33a5.9,5.9,0,0,1-1.8-2l-2.1-3.4-10.9,6.9-13.6,17.3-.3.4a5.7,5.7,0,0,1-3.8,2.8,6.2,6.2,0,0,1-5.7-1.7A6,6,0,0,1,163.3,120.3Z"/>
    <path id="left-line" d="M101.8,52.5l-7.6,12h-.1L77.9,90l-9.1,14.2,29.1,18.6,7.8-12.3h0l17.5-27.4a14.2,14.2,0,0,0-4.3-19.7l-1.4-.9h0ZM91.6,104.1a4.7,4.7,0,1,1,0-9.4,4.7,4.7,0,0,1,0,9.4Z"/>
    <path id="right-line" d="M262.3,81.3l17.5,27.4h0l7.8,12.3,29.1-18.6-9-14.2L291.4,62.7h0l-7.7-12-15.6,10h0l-1.4.8A14.4,14.4,0,0,0,262.3,81.3ZM294,92.9a4.7,4.7,0,1,1-4.7,4.7A4.7,4.7,0,0,1,294,92.9Z"/>
    <path id="middle-line" d="M254.1,303.3H78.8a9.8,9.8,0,0,0-9.8,9.8v.9a9.8,9.8,0,0,0,9.8,9.8H241.7A111.9,111.9,0,0,1,254.1,303.3Z"/>
    <path id="top-line" d="M319,259.3a10,10,0,0,0-6.1-2.1H79.2a9.7,9.7,0,0,0-9.8,9.7v1a9.8,9.8,0,0,0,9.8,9.8H280.3A120.1,120.1,0,0,1,319,259.3Z"/>
    <path id="outline" d="M64,411.8a21.1,21.1,0,0,1-21.1-21V45.4A21.1,21.1,0,0,1,64,24.4H320.9a21,21,0,0,1,21,21V255.5c2.7-.1,5.5-.3,8.3-.3a103.2,103.2,0,0,1,11.1.6V45.4A40.4,40.4,0,0,0,320.9,5H64A40.5,40.5,0,0,0,23.5,45.4V390.8A40.6,40.6,0,0,0,64,431.3H243.9a119.9,119.9,0,0,1-8.2-19.5Z"/>
    <path id="bottom-line" d="M79.8,355.7a10.2,10.2,0,1,0,0,20.4H187.3a10.2,10.2,0,1,0,0-20.4Z"/>
    <path id="circle" d="M363.1,267.3a113.9,113.9,0,0,0,0,227.7C425.9,495,477,443.9,477,381.2A114,114,0,0,0,363.1,267.3Zm0,208.4a94.6,94.6,0,1,1,94.6-94.5A94.6,94.6,0,0,1,363.1,475.7Z"/>
    <path id="quote-right" d="M371.6,384.9h21.5c-1.7,8.1-7,11.9-16.8,12.2l-4.7.2v32.2l5.4-.6c39.9-4.6,48.3-29.1,48.3-48.9V331H371.6Zm9.6-44.3h34.4V380c0,21.8-11.2,34.4-34.4,38.5V406.4c13.8-2.1,21.6-11.2,22.2-26.2l.2-5H381.2Z"/>
    <path id="quote-left" d="M305.4,384.9H327c-1.8,8.1-7.1,11.9-16.9,12.2l-4.7.2v32.2l5.4-.6c39.9-4.6,48.3-29.1,48.3-48.9V331H305.4Zm9.7-44.3h34.4V380c0,21.8-11.3,34.4-34.4,38.5V406.4c13.7-2.1,21.5-11.2,22.1-26.2l.2-5H315.1Z"/>
  </g>
</svg>
