<svg
  xmlns="http://www.w3.org/2000/svg"
  viewBox="0 0 500 500"
  width="500"
  height="500"
  fill="#000000"
>
  <path d="M221.4 296.2l-13.5 48.6h-44.4l57.9-189.6h56.3l58.8 189.6h-46.1l-14.7-48.6zm48.2-32.1l-11.9-40.3c-3.3-11.2-6.7-25.3-9.5-36.6h-.6c-2.8 11.3-5.6 25.7-8.7 36.6l-11.3 40.3z" />
  <path d="M250 495C114.9 495 5 385.1 5 250S114.9 5 250 5s245 109.9 245 245-109.9 245-245 245zm0-470.8C125.5 24.2 24.2 125.5 24.2 250S125.5 475.8 250 475.8 475.8 374.5 475.8 250 374.5 24.2 250 24.2z" />
</svg>
