<svg xmlns="http://www.w3.org/2000/svg" viewBox="0 0 500 500">
  <g id="americorps">
    <g id="a">
      <path d="M221.4,296.2l-13.5,48.6H163.5l57.9-189.6h56.3l58.8,189.6H290.4l-14.7-48.6Zm48.2-32.1-11.9-40.3c-3.3-11.2-6.7-25.3-9.5-36.6h-.6c-2.8,11.3-5.6,25.7-8.7,36.6l-11.3,40.3Z"/>
    </g>
    <path id="circle" d="M250,495C114.9,495,5,385.1,5,250S114.9,5,250,5,495,114.9,495,250,385.1,495,250,495Zm0-470.8C125.5,24.2,24.2,125.5,24.2,250S125.5,475.8,250,475.8,475.8,374.5,475.8,250,374.5,24.2,250,24.2Z"/>
  </g>
</svg>
