<svg
  xmlns="http://www.w3.org/2000/svg"
  viewBox="0 0 500 500"
  width="500"
  height="500"
  fill="#ffffff"
>
  <path d="M250 495C114.91 495 5 385.09 5 250S114.91 5 250 5s245 109.91 245 245-109.91 245-245 245zm0-470.4C125.72 24.6 24.6 125.72 24.6 250S125.72 475.4 250 475.4 475.4 374.28 475.4 250 374.28 24.6 250 24.6z" />
  <path d="M141.34 296.57L127.91 345H83.72l57.62-188.52h55.95L255.74 345h-45.87l-14.55-48.39zm47.83-31.89l-11.74-40c-3.36-11.18-6.72-25.17-9.52-36.36h-.56c-2.79 11.19-5.59 25.46-8.67 36.36l-11.18 40z" />
  <path d="M280.9 159c13.1-2.28 31.6-4 57.61-4 26.3 0 45 5 57.63 15.1 12 9.51 20.13 25.18 20.13 43.64s-6.15 34.12-17.34 44.75c-14.54 13.7-36.08 19.86-61.25 19.86a107.3 107.3 0 0 1-14.55-.84V345H280.9zm42.23 85.6c3.64.83 8.11 1.11 14.26 1.11 22.66 0 36.65-11.47 36.65-30.76 0-17.35-12-27.7-33.29-27.7-8.67 0-14.54.84-17.62 1.68z" />
</svg>
