<svg xmlns="http://www.w3.org/2000/svg" viewBox="0 0 500 500">
  <g id="approval-date">
    <rect id="square1" x="72.6" y="325.7" width="46.2" height="42.64"/>
    <rect id="square2" x="72.6" y="153" width="46.2" height="42.63"/>
    <rect id="square3" x="182.2" y="153" width="46.2" height="42.63"/>
    <rect id="square4" x="291.8" y="153" width="46.2" height="42.63"/>
    <rect id="square5" x="72.6" y="239.3" width="46.2" height="42.63"/>
    <rect id="square6" x="182.2" y="239.3" width="46.2" height="42.63"/>
    <rect id="square7" x="291.8" y="239.3" width="46.2" height="42.63"/>
    <rect id="square8" x="183.6" y="315.5" width="45.3" height="41.79"/>
    <path id="outline" d="M53.8,438.3a30.5,30.5,0,0,1-30.4-30.4V109.5A30.4,30.4,0,0,1,53.8,79.1H352.2a30.4,30.4,0,0,1,30.3,30.4V266.8l7-.2c3.8,0,7.7.2,11.4.5V109.5a48.8,48.8,0,0,0-48.7-48.8H281.5V12.8H263.1V60.7H139.3V12.8H121V60.7H53.8A48.9,48.9,0,0,0,5,109.5V407.9a48.8,48.8,0,0,0,48.8,48.7h237a123.4,123.4,0,0,1-10.7-18.3Z"/>
    <path id="check" d="M392.4,282A102.6,102.6,0,1,0,495,384.6,102.6,102.6,0,0,0,392.4,282Zm58.8,72.7-71.5,71.6a9.6,9.6,0,0,1-6.6,2.7,9.3,9.3,0,0,1-6.5-2.7l-37.8-37.9a9.2,9.2,0,0,1,13-13l31.3,31.3,65.1-65a9.2,9.2,0,0,1,13,13Z"/>
  </g>
</svg>
