<svg
  xmlns="http://www.w3.org/2000/svg"
  viewBox="0 0 500 500"
  width="500"
  height="500"
  fill="#000000"
>
  <rect x="72.6" y="325.7" width="46.2" height="42.64" />
  <rect x="72.6" y="153" width="46.2" height="42.63" />
  <rect x="182.2" y="153" width="46.2" height="42.63" />
  <rect x="291.8" y="153" width="46.2" height="42.63" />
  <rect x="72.6" y="239.3" width="46.2" height="42.63" />
  <rect x="182.2" y="239.3" width="46.2" height="42.63" />
  <rect x="291.8" y="239.3" width="46.2" height="42.63" />
  <rect x="183.6" y="315.5" width="45.3" height="41.79" />
  <path d="M53.8 438.3a30.5 30.5 0 0 1-30.4-30.4V109.5a30.4 30.4 0 0 1 30.4-30.4h298.4a30.4 30.4 0 0 1 30.3 30.4v157.3l7-.2c3.8 0 7.7.2 11.4.5V109.5a48.8 48.8 0 0 0-48.7-48.8h-70.7V12.8h-18.4v47.9H139.3V12.8H121v47.9H53.8A48.9 48.9 0 0 0 5 109.5v298.4a48.8 48.8 0 0 0 48.8 48.7h237a123.4 123.4 0 0 1-10.7-18.3z" />
  <path d="M392.4 282A102.6 102.6 0 1 0 495 384.6 102.6 102.6 0 0 0 392.4 282zm58.8 72.7l-71.5 71.6a9.6 9.6 0 0 1-6.6 2.7 9.3 9.3 0 0 1-6.5-2.7l-37.8-37.9a9.2 9.2 0 0 1 13-13l31.3 31.3 65.1-65a9.2 9.2 0 0 1 13 13z" />
</svg>
