<svg xmlns="http://www.w3.org/2000/svg" viewBox="0 0 500 500">
  <defs>
    <style>
      .cls-1 {
        fill: #fff;
      }

      .cls-2 {
        fill: #666766;
      }

      .cls-3 {
        fill: #cccccb;
      }
    </style>
  </defs>
  <g id="assignment-change-rates">
    <g id="coin-background">
      <path class="cls-1" d="M401.69,251.38a150.81,150.81,0,1,1-46.2-108.63A150.81,150.81,0,0,1,401.69,251.38Z"/>
    </g>
    <g id="outline-top">
      <path class="cls-2" d="M445,100.43C404,41.2,331.17,5,250.88,5,125.78,5,24,93.81,24,203a10.26,10.26,0,1,0,20.52,0c0-97.85,92.57-177.46,206.35-177.46,71.16,0,135.74,30.75,173.54,81.4L378.48,121.4l89,81.58L493.66,85.1Z"/>
    </g>
    <g id="outline-bottom">
      <path class="cls-2" d="M467.5,286.76A10.26,10.26,0,0,0,457.24,297c0,97.85-92.57,177.46-206.36,177.46-71.15,0-135.74-30.75-173.53-81.4l45.94-14.48L34.27,297,8.11,414.9l48.65-15.33C97.74,458.8,170.59,495,250.88,495c125.1,0,226.88-88.81,226.88-198A10.26,10.26,0,0,0,467.5,286.76Z"/>
    </g>
    <g id="coin-shadow">
      <path class="cls-3" d="M190.87,389.75A150.81,150.81,0,0,1,311,113.08"/>
    </g>
    <g id="coin-outline-2">
      <path class="cls-2" d="M250.88,412.44a10.26,10.26,0,1,1,0-20.52c77.5,0,140.55-63.05,140.55-140.54S328.38,110.83,250.88,110.83,110.34,173.88,110.34,251.38a10.26,10.26,0,0,1-20.52,0c0-88.82,72.25-161.07,161.06-161.07S412,162.56,412,251.38,339.7,412.44,250.88,412.44Z"/>
    </g>
    <g id="coin-dollar-sign">
      <path class="cls-2" d="M260.69,340.3V318.08c25.07-4.37,38.8-20.93,38.8-40.33,0-19.62-10.47-31.6-36.41-40.76-18.52-7-26.15-11.55-26.15-18.74,0-6.11,4.58-12.21,18.75-12.21,15.69,0,25.72,5,31.38,7.41l6.32-24.64c-7.19-3.48-17-6.53-31.6-7.18V162.45H240.42v20.7c-23.32,4.57-36.84,19.63-36.84,38.8,0,21.14,15.91,32,39.24,39.89,16.13,5.45,23.09,10.67,23.09,19,0,8.73-8.49,13.52-20.91,13.52a76.92,76.92,0,0,1-36.19-9.6l-6.53,25.51c8.27,4.8,22.44,8.72,37.06,9.37v20.7Z"/>
    </g>
    <circle class="cls-2" cx="209.64" cy="395.32" r="9.88"/>
  </g>
</svg>
