<svg xmlns="http://www.w3.org/2000/svg" viewBox="0 0 500 500">
  <g id="assistant-team-leader-discrepency">
    <g id="assistant-team-leader-discrepency-icon">
      <path id="head" d="M199,209.6a88.8,88.8,0,0,0,88.7-85.9,20.7,20.7,0,0,1-7.5,2.8l-5.1.8-3.6-3.6c-.4-.4-36-36.1-72.5-36.1s-72.1,35.7-72.4,36.1l-3.7,3.6-5-.8a21.2,21.2,0,0,1-7.6-2.8A88.8,88.8,0,0,0,199,209.6Z"/>
      <path id="hat" d="M119.5,109.4s38.2-39,79.5-39,79.6,39,79.6,39c7.6-1.2,8.2-9.1,7.1-16.1h0s-2.5-62.6-26-74S219.8,5,201.1,5s-35.2,2.8-58.6,14.3S112,92.5,112,92.5h0C110.8,99.3,110.9,108.1,119.5,109.4ZM227.4,36.8l-4.7,17.4c-10.4-3.6-31.3-4-44,0L174,36.7C188.8,31.1,213.2,31.6,227.4,36.8Z"/>
      <path id="body" d="M313.6,263.6C270.7,226.9,199,228,199,228s-71.7-1.1-114.6,35.6S29.2,413.5,29.2,413.5c78,19.8,152.9,22.3,212.5,18.8l87.1-151A83.1,83.1,0,0,0,313.6,263.6Z"/>
      <path id="error-triangle" d="M469.2,476.5,371,306.5a12.1,12.1,0,0,0-10.7-6.2h0a12.3,12.3,0,0,0-10.7,6.2l-98.1,170a11.8,11.8,0,0,0,0,12.3,12.1,12.1,0,0,0,10.7,6.2H458.5a12.4,12.4,0,0,0,10.7-18.5ZM372.8,357l-.8,63.5H350l-.5-63.5ZM361,475.8c-10.4,0-17.4-7.6-17.4-17.6s7.2-17.6,17.4-17.6,17,7.3,17.2,17.6S371.5,475.8,361,475.8Z"/>
    </g>
  </g>
</svg>
