<svg
  xmlns="http://www.w3.org/2000/svg"
  viewBox="0 0 500 500"
  width="500"
  height="500"
  fill="#000000"
>
  <path d="M223.45 153.31c-33.64 26.25-42.73 84.82-42.73 84.82-9.44-10.74-22.65-18.14-41.1-18.14v70L18.48 177 141.6 62.24v65.67s44-4.84 85.75 20.8z" />
  <path d="M202.54 322.18v92.07c0 10.7 9.3 19.38 20.78 19.38H278c11.48 0 20.79-13.86 20.79-24.56v-86.89s-2.37-98.05 64.79-98.05v70l121.16-112.97L361.62 66.37v65.68s-159.08-17.49-159.08 190.13z" />
  <polygon points="484.74 177.02 363.6 289.96 363.6 219.99 484.74 177.02" />
  <path d="M278 443.89h-54.7c-17.12 0-31-13.3-31-29.64v-92.07c0-73.68 19.48-128.51 57.91-162.94 36.93-33.09 80.79-37.69 101.17-37.83v-55a10.26 10.26 0 0 1 17.26-7.5l123.1 114.74a10.27 10.27 0 0 1 0 15l-121.15 113a10.27 10.27 0 0 1-17.26-7.51v-58.76A40.6 40.6 0 0 0 332 247.14c-23.74 24.26-22.91 74.3-22.9 74.81v51.22a10.26 10.26 0 0 1-20.52 0v-51c-.06-2.15-1.08-58.84 28.7-89.34 12.29-12.59 27.88-19 46.35-19a10.27 10.27 0 0 1 10.26 10.27v46.4l95.83-89.34L371.88 90v42.08a10.26 10.26 0 0 1-11.38 10.2c-.52-.05-54.88-5.29-96.82 32.46-33.76 30.39-50.88 80-50.88 147.47v92.07c0 5 4.72 9.12 10.52 9.12H278a10.26 10.26 0 1 1 0 20.52z" />
  <path d="M298.81 417.13a10.26 10.26 0 0 1-10.26-10.26V406a10.26 10.26 0 1 1 20.52 0v.9a10.26 10.26 0 0 1-10.26 10.23z" />
  <polygon points="136.41 219.99 136.41 289.96 15.26 177.02 136.41 219.99" />
  <path d="M136.41 304.36a10.29 10.29 0 0 1-7-2.75L8.26 188.66a10.27 10.27 0 0 1 0-15L131.38 58.87a10.26 10.26 0 0 1 17.26 7.5v55.05c15.74.13 45.53 2.93 75.34 19.46a10.26 10.26 0 1 1-9.98 17.94c-36.6-20.29-74.19-16.61-74.55-16.56a10.29 10.29 0 0 1-11.36-10.21V90l-97.78 91.16 95.83 89.34v-46.37a10.27 10.27 0 0 1 10.27-10.27c17 0 31.68 5.47 43.51 16.24a10.26 10.26 0 1 1-13.81 15.18 40.17 40.17 0 0 0-19.44-9.9v58.72a10.26 10.26 0 0 1-10.26 10.26z" />
</svg>
