<svg
  xmlns="http://www.w3.org/2000/svg"
  viewBox="0 0 500 500"
  width="500"
  height="500"
  fill="#ffffff"
>
  <path d="M15.25 445.93S12.57 164 307.85 164V54.08L484.75 231 308.09 407.63V292.8s-21.39-15.8-65.41-8.06c-48.17 8.44-123.45 45.01-227.43 161.19z" />
  <path d="M129.85 338.84c-33.35 24.47-71.51 58.94-114.6 107.09 0 0-.34-36.26 12.84-82.77" />
  <path d="M307.85 292.75v109.93l176.9-176.9" />
  <path d="M17.05 422.1a9.18 9.18 0 0 1-1.17-.07 10.25 10.25 0 0 1-9-11.34c3.87-34.09 16.93-99.62 60.89-155.49C119 190.07 196.28 156 297.6 153.87v-49.05a10.26 10.26 0 0 1 20.51 0V164a10.25 10.25 0 0 1-10.26 10.25c-228.8 0-272.47 167-280.62 238.74a10.26 10.26 0 0 1-10.18 9.11z" />
  <path d="M15.26 456.17A10.25 10.25 0 0 1 5 446.06v-2.08a10.31 10.31 0 0 1 10.44-10.08 11 11 0 0 1 1.92.22 10.25 10.25 0 0 1 7 17.07l-1.41 1.58a10.27 10.27 0 0 1-7.69 3.4z" />
  <path d="M43 426.7a10.25 10.25 0 0 1-7.45-17.29C134.6 304.49 197.33 282.27 240.9 274.64c47.8-8.37 72.25 9.16 73.27 9.91a10.25 10.25 0 0 1 4.17 8.25v90.08L470.25 231 300.6 61.32a10.25 10.25 0 1 1 14.51-14.48l14.81 14.81L492 223.72a10.26 10.26 0 0 1 0 14.5L315.34 414.88a10.25 10.25 0 0 1-17.5-7.25V298.8c-7.45-3.41-24.94-8.94-53.39-4C204 301.93 145.38 323 50.46 423.49A10.22 10.22 0 0 1 43 426.7z" />
</svg>
