<svg
  xmlns="http://www.w3.org/2000/svg"
  viewBox="0 0 500 500"
  width="500"
  height="500"
  fill="#000000"
>
  <path d="M306.3 290.9c-18.3-15.6-47.7-15.3-48.9-15.3s-30.7-.3-49 15.3-23.4 61.2-23.7 63.1l-.4 3.9 3.8.9a278.9 278.9 0 0 0 68.5 8.3c39.8 0 68.4-7.8 70.2-8.3l3.6-1-.4-3.8c-.2-1.9-5.3-47.4-23.7-63.1z" />
  <path d="M241.5 187.2a40.3 40.3 0 0 0-19.7 18.3l-1.4 2.7a40.5 40.5 0 0 0-3.1 15.8 40 40 0 0 0 3.1 15.7l1.4 2.7a39.4 39.4 0 0 0 20.6 18.8 40.2 40.2 0 0 0 30.7-.3 39.6 39.6 0 0 0 19.8-18.5l1.4-2.7a40.1 40.1 0 0 0 3.2-15.7 40.4 40.4 0 0 0-3.2-15.7l-1.4-2.7a40.2 40.2 0 0 0-51.4-18.4z" />
  <polygon points="326.4 104.2 314 93.7 266.1 141 266.1 42.9 248.6 42.9 248.6 141 200.7 93.7 188.3 104.2 257.4 172.5 326.4 104.2" />
  <path d="M413.9 5H86.1a57.4 57.4 0 0 0-57.3 57.3v286.6a57.4 57.4 0 0 0 57.3 57.4h327.8a57.1 57.1 0 0 0 40.3-16.7v4c0 22.2-26.2 40.3-58.3 40.3H104.1c-23.4 0-58.3-12.8-58.3-21.4h-17c0 8.3 5.3 20.2 30.9 29.7 14.1 5.2 31.9 8.7 44.4 8.7h291.8c23.5 0 44.5-8.2 58.3-21.1v7.9c0 22.2-26.2 40.3-58.3 40.3H104.1c-23.4 0-58.3-12.9-58.3-21.5h-17c0 27.1 53.9 38.5 75.3 38.5h291.8c41.5 0 75.3-25.7 75.3-57.3V62.3A57.4 57.4 0 0 0 413.9 5zm40.3 133.6v210.3a40.4 40.4 0 0 1-40.3 40.3H86.1a40.4 40.4 0 0 1-40.3-40.3V62.3A40.4 40.4 0 0 1 86.1 22h327.8a40.4 40.4 0 0 1 40.3 40.3v76.3z" />
</svg>
