<svg
  xmlns="http://www.w3.org/2000/svg"
  viewBox="0 0 500 500"
  width="500"
  height="500"
  fill="#000000"
>
  <path d="M199 209.6a88.8 88.8 0 0 0 88.7-85.9 20.7 20.7 0 0 1-7.5 2.8l-5.1.8-3.6-3.6c-.4-.4-36-36.1-72.5-36.1s-72.1 35.7-72.4 36.1l-3.7 3.6-5-.8a21.2 21.2 0 0 1-7.6-2.8 88.8 88.8 0 0 0 88.7 85.9z" />
  <path d="M119.5 109.4s38.2-39 79.5-39 79.6 39 79.6 39c7.6-1.2 8.2-9.1 7.1-16.1s-2.5-62.6-26-74S219.8 5 201.1 5s-35.2 2.8-58.6 14.3S112 92.5 112 92.5c-1.2 6.8-1.1 15.6 7.5 16.9zm107.9-72.6l-4.7 17.4c-10.4-3.6-31.3-4-44 0L174 36.7c14.8-5.6 39.2-5.1 53.4.1z" />
  <path d="M313.6 263.6C270.7 226.9 199 228 199 228s-71.7-1.1-114.6 35.6-55.2 149.9-55.2 149.9c78 19.8 152.9 22.3 212.5 18.8l87.1-151a83.1 83.1 0 0 0-15.2-17.7z" />
  <path d="M469.2 476.5l-98.2-170a12.1 12.1 0 0 0-10.7-6.2 12.3 12.3 0 0 0-10.7 6.2l-98.1 170a11.8 11.8 0 0 0 0 12.3 12.1 12.1 0 0 0 10.7 6.2h196.3a12.4 12.4 0 0 0 10.7-18.5zM372.8 357l-.8 63.5h-22l-.5-63.5zM361 475.8c-10.4 0-17.4-7.6-17.4-17.6s7.2-17.6 17.4-17.6 17 7.3 17.2 17.6-6.7 17.6-17.2 17.6z" />
</svg>
