<svg
  xmlns="http://www.w3.org/2000/svg"
  viewBox="0 0 500 500"
  width="500"
  height="500"
  fill="#000000"
>
  <circle cx="250" cy="250.17" r="244.99" />
  <path d="M250 494.79c-135 0-244.89-109.86-244.89-244.9a9.49 9.49 0 0 1 19 0c0 124.58 101.34 225.93 225.92 225.93S476 374.47 476 249.89 374.62 24 250 24a9.49 9.49 0 0 1 0-19c135 0 244.9 109.86 244.9 244.89S385.08 494.79 250 494.79z" />
  <circle cx="250" cy="250.17" r="216.64" />
  <path d="M429.88 357.46l-128-253.11s-7-12.33-24.13-12.19-59.38-.36-59.38-.36l53.89 106.82-37.43.3s-14.81 1.49-14.72 12.6l.11 13.19s.77 8-20.33 8.22-49.79-.07-49.79-.07l-10.31 21.33 68.83-.27s12.45-2.22 12.31-20.21c-.12-15 13.76-14 13.76-14l48.37.31 7.65 15.17-51 .41s-18.84 1.51-18.75 12.63l.11 13.18s1 8.06-25.87 8.27-63.33 0-63.33 0l-13.16 21.35 87.55-.42s15.83-2.25 15.69-20.24c-.12-15 17.54-14 17.54-14l62 .21 8 15.86-.1-.06-63.89.51s-23.56 1.55-23.47 12.67l.1 13.18s1.2 8.05-32.37 8.32-79.2.17-79.2.17l-16.5 21.38-24.15 32.51 18.87-.12 22.83-32.43 92-.5s19.81-2.28 19.66-20.27c-.12-14.95 22-14 22-14l75.06.08 32.43 64.28z" />
</svg>
