<svg xmlns="http://www.w3.org/2000/svg" viewBox="0 0 500 500">
  <defs>
    <style>
      .cls-1 {
        fill: #fff;
      }

      .cls-2 {
        fill: #cccccb;
      }

      .cls-3 {
        fill: #666766;
      }
    </style>
  </defs>
  <g id="assignment-migrate">
    <path id="arrow-background" class="cls-1" d="M15.25,445.93S12.57,164,307.85,164V54.08L484.75,231,308.09,407.63V292.8S286.7,277,242.68,284.74C194.51,293.18,119.23,329.75,15.25,445.93Z"/>
    <path id="arrow-shadow-2" class="cls-2" d="M129.85,338.84C96.5,363.31,58.34,397.78,15.25,445.93c0,0-.34-36.26,12.84-82.77"/>
    <path id="arrow-shadow-1" class="cls-2" d="M307.85,292.75V402.68l176.9-176.9"/>
    <path id="arrow-outline-3" class="cls-3" d="M17.05,422.1a9.18,9.18,0,0,1-1.17-.07,10.25,10.25,0,0,1-9-11.34c3.87-34.09,16.93-99.62,60.89-155.49C119,190.07,196.28,156,297.6,153.87V104.82a10.26,10.26,0,0,1,20.51,0V164a10.25,10.25,0,0,1-10.26,10.25c-228.8,0-272.47,167-280.62,238.74A10.26,10.26,0,0,1,17.05,422.1Z"/>
    <path id="arrow-outline-2" class="cls-3" d="M15.26,456.17A10.25,10.25,0,0,1,5,446.06s0-.72,0-2.08A10.31,10.31,0,0,1,15.44,433.9a11,11,0,0,1,1.92.22,10.25,10.25,0,0,1,7,17.07l-1.41,1.58A10.27,10.27,0,0,1,15.26,456.17Z"/>
    <path id="arrow-outline-1" class="cls-3" d="M43,426.7a10.25,10.25,0,0,1-7.45-17.29c99.05-104.92,161.78-127.14,205.35-134.77,47.8-8.37,72.25,9.16,73.27,9.91a10.25,10.25,0,0,1,4.17,8.25v90.08L470.25,231,300.6,61.32a10.25,10.25,0,1,1,14.51-14.48l14.81,14.81L492,223.72a10.26,10.26,0,0,1,0,14.5L315.34,414.88a10.25,10.25,0,0,1-17.5-7.25V298.8c-7.45-3.41-24.94-8.94-53.39-4C204,301.93,145.38,323,50.46,423.49A10.22,10.22,0,0,1,43,426.7Z"/>
  </g>
</svg>
