<svg xmlns="http://www.w3.org/2000/svg" viewBox="0 0 500 500">
  <g id="assigned-color">
    <path id="body" d="M370.18,294.29c-44.42-37.89-115.8-37.22-118.6-37.23-3,0-74.59-.66-118.94,37.23s-57,148.52-57.52,153.2l-1,9.37,9.13,2.32c59.29,15.05,116.4,20.07,166.24,20.07,96.76,0,166.06-18.93,170.38-20.14l8.86-2.47-1-9.14C427.21,442.81,414.77,332.32,370.18,294.29Z" style="fill: #478ecc"/>
    <circle id="head" cx="251.44" cy="117.96" r="95.05" style="fill: #478ecc"/>
    <path id="head-highlight" d="M182.75,176.76c-35-112.7,104-147,104-147a95,95,0,1,0-70.59,176.5Z" style="fill: #9ec8ea"/>
    <path id="body-highlight" d="M80.58,409.84l8.09,0S161.25,305,331.72,271.76c3.35-.65-140.88-8.66-191.58,27.58" style="fill: #9ec8ea"/>
    <path id="body-outline" d="M247.7,495c-39,0-81.31-1.07-125.72-8.83a18.2,18.2,0,0,1,6.27-35.86c41.68,7.28,82,8.28,119.45,8.28,77.56,0,136.57-12.76,155.42-17.38-4.47-33.36-19.65-106.25-49.18-131.44C317.45,278.64,257,277.71,250,277.71c-.07,0-.23,0-.45,0-6.3,0-67.7.79-104.27,32.05-17.93,15.32-33.2,49.44-43,96.07a18.21,18.21,0,0,1-35.63-7.5c11.78-56,30.27-95.13,55-116.25,47.07-40.22,120.13-40.8,128.26-40.77H250c13.58,0,82.17,2,127.61,40.76,48.19,41.1,61.22,149.49,62.55,161.71l2.63,24.29-23.52,6.57C416.26,475.46,345.37,495,247.7,495Z" style="fill: #1c3664"/>
    <path id="head-outline" d="M249.71,231.67A113.38,113.38,0,0,1,183,210l-6.85-5.21a112.84,112.84,0,0,1-27.85-35.66,114.15,114.15,0,0,1-11.9-43.91,18.21,18.21,0,0,1,36.34-2.33,78.18,78.18,0,0,0,26.67,53.88l5.3,4a76.78,76.78,0,0,0,102.55-11.32,75.77,75.77,0,0,0,19.39-49.86l0-6.34a76.75,76.75,0,0,0-8-29.18A78,78,0,0,0,300,59.87l-5.31-4a76.87,76.87,0,0,0-49.33-14.33,18.2,18.2,0,1,1-2.09-36.34A113.42,113.42,0,0,1,316.32,26.6l6.91,5.26A114.35,114.35,0,0,1,363,111.44l0,1.07,0,7.22a113.19,113.19,0,0,1-106.6,111.74Q253.07,231.67,249.71,231.67Z" style="fill: #1c3664"/>
    <circle id="outline-circle" cx="76.45" cy="455.48" r="19.19" style="fill: #1c3664"/>
    <path id="check" d="M235,431.24a11.36,11.36,0,0,1-8-3.33l-44.38-44.38a11.38,11.38,0,0,1,16.09-16.09L235,403.78,314,324.71A11.38,11.38,0,0,1,330.1,340.8L243,427.91A11.33,11.33,0,0,1,235,431.24Z" style="fill: #1c3664"/>
  </g>
</svg>
