<svg
  xmlns="http://www.w3.org/2000/svg"
  viewBox="0 0 500 500"
  width="500"
  height="500"
  fill="#000000"
>
  <path d="M401.69 251.38a150.81 150.81 0 1 1-46.2-108.63 150.81 150.81 0 0 1 46.2 108.63z" />
  <path d="M445 100.43C404 41.2 331.17 5 250.88 5 125.78 5 24 93.81 24 203a10.26 10.26 0 1 0 20.52 0c0-97.85 92.57-177.46 206.35-177.46 71.16 0 135.74 30.75 173.54 81.4l-45.93 14.46 89 81.58L493.66 85.1z" />
  <path d="M467.5 286.76A10.26 10.26 0 0 0 457.24 297c0 97.85-92.57 177.46-206.36 177.46-71.15 0-135.74-30.75-173.53-81.4l45.94-14.48L34.27 297 8.11 414.9l48.65-15.33C97.74 458.8 170.59 495 250.88 495c125.1 0 226.88-88.81 226.88-198a10.26 10.26 0 0 0-10.26-10.24z" />
  <path d="M190.87 389.75A150.81 150.81 0 0 1 311 113.08" />
  <path d="M250.88 412.44a10.26 10.26 0 1 1 0-20.52c77.5 0 140.55-63.05 140.55-140.54s-63.05-140.55-140.55-140.55-140.54 63.05-140.54 140.55a10.26 10.26 0 0 1-20.52 0c0-88.82 72.25-161.07 161.06-161.07S412 162.56 412 251.38s-72.3 161.06-161.12 161.06z" />
  <path d="M260.69 340.3v-22.22c25.07-4.37 38.8-20.93 38.8-40.33 0-19.62-10.47-31.6-36.41-40.76-18.52-7-26.15-11.55-26.15-18.74 0-6.11 4.58-12.21 18.75-12.21 15.69 0 25.72 5 31.38 7.41l6.32-24.64c-7.19-3.48-17-6.53-31.6-7.18v-19.18h-21.36v20.7c-23.32 4.57-36.84 19.63-36.84 38.8 0 21.14 15.91 32 39.24 39.89 16.13 5.45 23.09 10.67 23.09 19 0 8.73-8.49 13.52-20.91 13.52a76.92 76.92 0 0 1-36.19-9.6l-6.53 25.51c8.27 4.8 22.44 8.72 37.06 9.37v20.7z" />
  <circle cx="209.64" cy="395.32" r="9.88" />
</svg>
