<svg
  xmlns="http://www.w3.org/2000/svg"
  viewBox="0 0 500 500"
  width="500"
  height="500"
  fill="#ffffff"
>
  <path d="M214.8 215a91.1 91.1 0 0 0 91-88.1 23 23 0 0 1-7.7 2.8l-5.2.9-3.7-3.8c-.4-.4-36.9-37-74.4-37s-74 36.6-74.3 37l-3.8 3.8-5.2-.9a23 23 0 0 1-7.7-2.8 91.1 91.1 0 0 0 91 88.1z" />
  <path d="M133.2 112.2s39.2-40.1 81.6-40.1 81.7 40.1 81.7 40.1c7.8-1.3 8.4-9.4 7.3-16.6 0-1.4-2.8-64.3-26.7-75.9S236.1 5 217 5s-36.1 2.9-60.2 14.7-31.2 73.8-31.3 75.1c-1.3 7-1.1 16 7.7 17.4zm110.7-74.5l-4.8 17.8c-10.7-3.7-32.1-4.1-45.1 0l-4.8-17.9c15.1-5.8 40.1-5.3 54.7.1z" />
  <path d="M317.8 286.6v-26.7c-44-26.9-103-26-103-26s-73.6-1.1-117.6 36.5-56.7 153.9-56.7 153.9c75.5 19.2 148.1 22.5 207.4 19.8v-22.9h-.1V320.6a16.9 16.9 0 0 1 .1-2.3 34 34 0 0 1 33.8-31.6z" />
  <path d="M308.4 401.6a43.4 43.4 0 1 0 43.4 43.4 43.4 43.4 0 0 0-43.4-43.4zm3 63.1v6.9h-6.6v-6.4c-4.5-.2-8.9-1.4-11.4-2.9l2-7.9a24.3 24.3 0 0 0 11.2 3c3.8 0 6.4-1.5 6.4-4.2s-2.1-4.2-7.1-5.9c-7.2-2.4-12.1-5.8-12.1-12.3s4.2-10.6 11.4-12v-6.4h6.6v5.9a25.2 25.2 0 0 1 9.7 2.2l-1.9 7.6a23.7 23.7 0 0 0-9.7-2.2c-4.4 0-5.8 1.8-5.8 3.7s2.3 3.7 8.1 5.8c8 2.9 11.2 6.6 11.2 12.6s-4.2 11.2-12 12.5z" />
  <path d="M412.7 339c-6-2.3-8.4-3.8-8.4-6.1s1.4-3.9 6-3.9a22.5 22.5 0 0 1 10.1 2.4l2.1-8a25.6 25.6 0 0 0-10.2-2.3v-6.2h-6.9v6.7c-7.5 1.5-11.9 6.3-11.9 12.5s5.1 10.4 12.7 12.9c5.2 1.7 7.4 3.4 7.4 6.1s-2.7 4.4-6.7 4.4a24.9 24.9 0 0 1-11.7-3.1l-2.1 8.2c2.7 1.6 7.2 2.8 11.9 3v6.7h6.9v-7.2c8.1-1.4 12.6-6.7 12.6-13s-3.4-10.2-11.8-13.1z" />
  <path d="M298.5 315.8a25.3 25.3 0 0 0-25.3 25.2v48h18.9v-48a6.4 6.4 0 0 1 6.4-6.4h23.9v19.3l28.6-28.7-28.6-28.6v19.2z" />
  <path d="M423.5 450.5a6.4 6.4 0 0 1-6.4 6.4h-23.9v-19.2l-28.7 28.7 28.7 28.6v-19.2h23.9a25.3 25.3 0 0 0 25.2-25.3V403h-18.8z" />
  <path d="M408.8 292.7a50.8 50.8 0 1 0 50.7 50.8 50.9 50.9 0 0 0-50.7-50.8zm0 87.4a36.6 36.6 0 1 1 36.6-36.6 36.7 36.7 0 0 1-36.6 36.6z" />
</svg>
