<svg
  xmlns="http://www.w3.org/2000/svg"
  viewBox="0 0 500 500"
  width="500"
  height="500"
  fill="#000000"
>
  <path d="M381 300.6C332 258.7 250 260 250 260s-82-1.3-131 40.6S55.8 472 55.8 472c203.6 51.7 388.4 0 388.4 0S430.1 342.5 381 300.6z" />
  <path d="M250 238.9a101.6 101.6 0 0 0 101.4-98.2 24.2 24.2 0 0 1-8.6 3.2l-5.8 1-4.2-4.2c-.4-.4-41-41.3-82.8-41.3s-82.4 40.9-82.8 41.3l-4.2 4.2-5.8-1a24.2 24.2 0 0 1-8.6-3.2A101.6 101.6 0 0 0 250 238.9z" />
  <path d="M159.1 124.4s43.7-44.6 90.9-44.6 90.9 44.6 90.9 44.6c8.8-1.4 9.5-10.5 8.2-18.5 0-1.6-3.1-71.6-29.7-84.6S273.7 5 252.4 5s-40.2 3.2-67 16.3-34.7 82.2-34.9 83.7c-1.4 7.8-1.2 17.8 8.6 19.4zm123.3-83l-5.3 19.9c-11.9-4.1-35.8-4.6-50.3-.1l-5.4-19.9c16.9-6.4 44.8-5.9 61 .1z" />
</svg>
