<svg
  xmlns="http://www.w3.org/2000/svg"
  viewBox="0 0 500 500"
  width="500"
  height="500"
  fill="#ffffff"
>
  <path d="M438.52 196.65C440.23 92.7 357.06 6.74 253.11 5S63.19 86.49 61.48 190.44a188.49 188.49 0 0 0 81.8 158.44l-70.15 97.3 53.63-11.12 9.72 59.94 76.4-116.63a186.46 186.46 0 0 0 68.5 1.06l69.76 114.87 11.69-59.58 53.23 12.87-64.22-95.46a188.52 188.52 0 0 0 86.68-155.48zm-359.09-5.91C81 96.69 158.76 21.43 252.81 23s169.31 79.33 167.76 173.38-79.33 169.29-173.38 167.74S77.88 284.79 79.43 190.74z" />
  <path d="M140.14 159.94h-.35l-21.88 10.41-4.41-20.11 30.35-14.12h22.23v114.7h-25.94z" />
  <path d="M288.55 192.94c0 35.47-14.29 59.82-43.58 59.82-29.64 0-42.7-26.64-42.88-59.12 0-33.17 14.12-59.46 43.76-59.46 30.71 0 42.7 27.35 42.7 58.76zm-59.46.7c-.18 26.3 6.18 38.83 16.58 38.83s16.06-13.06 16.06-39.18c0-25.41-5.47-38.82-16.23-38.82-9.88 0-16.59 12.53-16.41 39.17z" />
  <path d="M386.5 192.94c0 35.47-14.29 59.82-43.59 59.82-29.64 0-42.69-26.64-42.87-59.12 0-33.17 14.11-59.46 43.76-59.46 30.7 0 42.7 27.35 42.7 58.76zm-59.46.7c-.18 26.3 6.17 38.83 16.58 38.83s16.06-13.06 16.06-39.18c0-25.41-5.47-38.82-16.24-38.82-9.88 0-16.58 12.53-16.44 39.17z" />
</svg>
