<svg
  xmlns="http://www.w3.org/2000/svg"
  viewBox="0 0 500 500"
  width="500"
  height="500"
  fill="#000000"
>
  <path d="M360.6 321.5a175.3 175.3 0 0 0 64.9-136.1C425.5 88.6 346.8 9.9 250 9.9S74.5 88.6 74.5 185.4a175.3 175.3 0 0 0 64.9 136.1L52.7 440.4l68.2-12.5 13.6 62.2 95.2-130.4a172.3 172.3 0 0 0 40.6 0l95.2 130.4 13.6-62.2 68.2 12.5zM250 302.7a117.4 117.4 0 0 1-117.3-117.3C132.7 120.7 185.3 68 250 68a117.6 117.6 0 0 1 117.4 117.4c0 64.7-52.7 117.3-117.4 117.3z" />
  <path d="M250 87.2a98.2 98.2 0 1 0 98.1 98.2A98.3 98.3 0 0 0 250 87.2z" />
</svg>
