<svg
  xmlns="http://www.w3.org/2000/svg"
  viewBox="0 0 500 500"
  width="500"
  height="500"
  fill="#000000"
>
  <path d="M250 103.86h-.15v83.35l51.64-54.56a9.38 9.38 0 0 1 13-.54l37.81-41.57a140.52 140.52 0 0 0-102.43-44.76v10.75h.15a9.38 9.38 0 0 1 9.38 9.38v28.57a9.38 9.38 0 0 1-9.4 9.38z" />
  <path d="M251.21 354.61a9.38 9.38 0 0 1-9.38-9.38v-28.58a9.38 9.38 0 1 1 18.76 0v28.58a9.38 9.38 0 0 1-9.38 9.38z" />
  <path d="M388.87 208.53h-27.06a9.38 9.38 0 0 1 0-18.76h27.06a9.38 9.38 0 0 1 0 18.76z" />
  <path d="M136.72 208.63h-27a9.38 9.38 0 0 1 0-18.76h27.05a9.38 9.38 0 1 1 0 18.76z" />
  <path d="M249.76 56.24a9.45 9.45 0 0 0-9.38 9.51v28.41a9.44 9.44 0 0 0 9.38 9.51z" />
  <path d="M314.53 132a9.76 9.76 0 0 1 .47 13.33l-52.45 55.41 27.9 29.47a9.38 9.38 0 1 1-13.63 12.89l-33.55-35.44a10.74 10.74 0 0 1 0-13.85l6.58-6.95v13.23" />
  <path d="M447 202C447 93.37 358.63 5 250 5S53 93.37 53 202a197 197 0 0 0 88.18 164.12l-48.49 79 55.83-12.54L159.71 495l54.69-99.27a194.63 194.63 0 0 0 71.59-.08L340.72 495l11.19-62.45 55.84 12.54-48.62-79.17A197 197 0 0 0 447 202zm-375.24 0c0-98.28 80-178.24 178.24-178.24s178.24 80 178.24 178.24S348.28 380.25 250 380.25 71.76 300.29 71.76 202z" />
</svg>
