<svg
  xmlns="http://www.w3.org/2000/svg"
  viewBox="0 0 500 500"
  width="500"
  height="500"
  fill="#ffffff"
>
  <path d="M250.15 46.19v10.58a9.28 9.28 0 0 1 9.2 9.22v28.17a9.28 9.28 0 0 1-9.32 9.23l-.29 83.74L303 132.61a9.32 9.32 0 0 1 13.33 13l-53.86 55 28.6 29.23a9.32 9.32 0 0 1-13.33 13l-34.51-35.26a9.26 9.26 0 0 1-2.62-7v-.44h-83.78a9.29 9.29 0 0 1-9.19 8.06h-27.83a9.29 9.29 0 0 1-9.19-8.06H99.38c0 85.1 67.5 154.08 150.77 154.08s150.77-69 150.77-154.08-67.5-153.95-150.77-153.95zm10.11 288.73a9.32 9.32 0 0 1-18.64 0v-28.44a9.32 9.32 0 0 1 18.64 0zm122.62-126.7h-27.83a9.32 9.32 0 0 1 0-18.64h27.83a9.32 9.32 0 0 1 0 18.64z" />
  <path d="M249.65 200.29v-13.24l-6.44 6.49a9.22 9.22 0 0 0-2.66 6.75z" />
  <path d="M250.16 56.89a9.32 9.32 0 0 0-9.32 9.32V94a9.32 9.32 0 0 0 9.32 9.32z" />
  <path d="M156.94 200.36a9.32 9.32 0 0 0-9.32-9.32h-27.83a9.32 9.32 0 0 0-9.32 9.32z" />
  <path d="M445.72 200.72C445.72 92.8 357.92 5 250 5S54.28 92.8 54.28 200.72a195.65 195.65 0 0 0 88.8 163.81l-49.67 80.88L148.88 433 160 495l56-101.58a193.08 193.08 0 0 0 67.92 0L339.83 495 351 433l55.46 12.45-49.62-80.8a195.66 195.66 0 0 0 88.88-163.93zm-372.8 0c0-97.64 79.44-177.08 177.08-177.08s177.08 79.44 177.08 177.08S347.64 377.8 250 377.8 72.92 298.36 72.92 200.72z" />
</svg>
