<svg xmlns="http://www.w3.org/2000/svg" viewBox="0 0 500 500">
  <g id="award-100-number">
    <path d="M438.52,196.65C440.23,92.7,357.06,6.74,253.11,5S63.19,86.49,61.48,190.44a188.49,188.49,0,0,0,81.8,158.44l-70.15,97.3,53.63-11.12L136.48,495l76.4-116.63a186.46,186.46,0,0,0,68.5,1.06L351.14,494.3l11.69-59.58,53.23,12.87-64.22-95.46A188.52,188.52,0,0,0,438.52,196.65ZM79.43,190.74C81,96.69,158.76,21.43,252.81,23s169.31,79.33,167.76,173.38S341.24,365.67,247.19,364.12,77.88,284.79,79.43,190.74Z"/>
    <g>
      <path d="M140.14,159.94h-.35l-21.88,10.41-4.41-20.11,30.35-14.12h22.23v114.7H140.14Z"/>
      <path d="M288.55,192.94c0,35.47-14.29,59.82-43.58,59.82-29.64,0-42.7-26.64-42.88-59.12,0-33.17,14.12-59.46,43.76-59.46C276.56,134.18,288.55,161.53,288.55,192.94Zm-59.46.7c-.18,26.3,6.18,38.83,16.58,38.83s16.06-13.06,16.06-39.18c0-25.41-5.47-38.82-16.23-38.82C235.62,154.47,228.91,167,229.09,193.64Z"/>
      <path d="M386.5,192.94c0,35.47-14.29,59.82-43.59,59.82-29.64,0-42.69-26.64-42.87-59.12,0-33.17,14.11-59.46,43.76-59.46C374.5,134.18,386.5,161.53,386.5,192.94Zm-59.46.7c-.18,26.3,6.17,38.83,16.58,38.83s16.06-13.06,16.06-39.18c0-25.41-5.47-38.82-16.24-38.82C333.56,154.47,326.86,167,327,193.64Z"/>
    </g>
  </g>
</svg>
