<svg xmlns="http://www.w3.org/2000/svg" viewBox="0 0 500 500">
  <g id="award-1700-number">
    <path d="M438.52,196.65C440.23,92.7,357.06,6.74,253.11,5S63.19,86.49,61.48,190.44a188.49,188.49,0,0,0,81.8,158.44l-70.15,97.3,53.63-11.12L136.48,495l76.4-116.63a186.46,186.46,0,0,0,68.5,1.06L351.14,494.3l11.69-59.58,53.23,12.87-64.22-95.46A188.52,188.52,0,0,0,438.52,196.65ZM79.43,190.74C81,96.69,158.76,21.43,252.81,23s169.31,79.33,167.76,173.38S341.24,365.67,247.19,364.12,77.88,284.79,79.43,190.74Z"/>
    <g>
      <path d="M121.5,160.89h-.28l-17.71,8.43L99.94,153l24.56-11.43h18v92.83h-21Z"/>
      <path d="M239.59,141.61v13.71l-38.28,79.12h-23l38.27-74.69v-.29H174V141.61Z"/>
      <path d="M320.82,187.59c0,28.71-11.57,48.42-35.27,48.42-24,0-34.56-21.57-34.7-47.84,0-26.85,11.42-48.13,35.41-48.13C311.11,140,320.82,162.18,320.82,187.59Zm-48.12.58c-.15,21.27,5,31.41,13.42,31.41s13-10.56,13-31.7c0-20.56-4.42-31.42-13.13-31.42C278,156.46,272.55,166.6,272.7,188.17Z"/>
      <path d="M400.06,187.59c0,28.71-11.57,48.42-35.27,48.42-24,0-34.56-21.57-34.71-47.84,0-26.85,11.43-48.13,35.42-48.13C390.35,140,400.06,162.18,400.06,187.59Zm-48.13.58c-.14,21.27,5,31.41,13.43,31.41s13-10.56,13-31.7c0-20.56-4.42-31.42-13.14-31.42C357.22,156.46,351.79,166.6,351.93,188.17Z"/>
    </g>
  </g>
</svg>
