<svg
  xmlns="http://www.w3.org/2000/svg"
  viewBox="0 0 500 500"
  width="500"
  height="500"
  fill="#ffffff"
>
  <path d="M250.2 44.53V55h.31a9.3 9.3 0 0 1 9.3 9.3v28.38a9.3 9.3 0 0 1-9.3 9.3h-.31v82.64l52.8-53.93a9.3 9.3 0 1 1 13.29 13l-53.77 54.91 1.19 1.22 81.88-.68v-.29a9.3 9.3 0 0 1 9.3-9.3h27.77a9.28 9.28 0 0 1 9.28 9.2l9.13-.08C401 113.54 333.51 44.53 250.2 44.53z" />
  <path d="M251 341.82a9.3 9.3 0 0 1-9.3-9.29v-28.38a9.3 9.3 0 0 1 18.6 0v28.38a9.29 9.29 0 0 1-9.3 9.29z" />
  <path d="M147.94 206.22h-27.77a9.3 9.3 0 1 1 0-18.59h27.77a9.3 9.3 0 1 1 0 18.59z" />
  <path d="M250.24 55a9.37 9.37 0 0 0-9.3 9.43v28.14a9.37 9.37 0 0 0 9.3 9.43z" />
  <path d="M345.59 198.72a9.3 9.3 0 0 0 9.29 9.3h27.76a9.3 9.3 0 0 0 9.29-9.3z" />
  <path d="M264.43 200.14l-14.51.12V185l-6.35 6.48a10.61 10.61 0 0 0 0 13.95L278 240.6a9.3 9.3 0 1 0 13.29-13z" />
  <path d="M445.26 200.26C445.26 92.59 357.67 5 250 5S54.74 92.59 54.74 200.26A195.21 195.21 0 0 0 143.88 364l-50 81.49 55.34-12.43L160.26 495l56.41-102.38a193 193 0 0 0 66.6 0L339.68 495l11.09-61.9 55.33 12.43-50-81.46a195.21 195.21 0 0 0 89.16-163.81zm-371.92 0C73.34 102.85 152.59 23.6 250 23.6s176.66 79.25 176.66 176.66S347.41 376.93 250 376.93 73.34 297.67 73.34 200.26z" />
</svg>
