<svg
  xmlns="http://www.w3.org/2000/svg"
  viewBox="0 0 500 500"
  width="500"
  height="500"
  fill="#000000"
>
  <path d="M145 452.09l-50.16 29.16-61-104.87 33.63-19.55a19.44 19.44 0 0 1 26.37 6.9L145 452.09" />
  <path d="M467.11 344.24a23.83 23.83 0 0 0-13.71-43.31 23.27 23.27 0 0 0-14.4 5.12l-.06-.11-.94.55c-7.92 6.35-73.52 60.15-77.21 62.47h-63.88a10.17 10.17 0 0 1-8-9.22c-.81-7.8 7.85-13.6 7.85-13.6l54.4.11a24 24 0 0 0 4.33-47.71c-.53-.05-1.06-.08-1.6-.1h-2.65l-117.89.08a49.81 49.81 0 0 0-21.35 7.4c-10.28 6.62-40.82 34.15-40.82 34.15l-41 24.66 37 62.75 4-2.86 69.1 1 107.54 1.66s11.74.39 21.12-5.14 86.87-68.72 98.17-77.9z" />
  <path d="M96.57 495a10 10 0 0 1-2.48-.32 9.72 9.72 0 0 1-5.9-4.5L24.1 379.94a9.7 9.7 0 1 1 16.77-9.75L100.08 472l36-20.9-48.91-84.47a10.77 10.77 0 0 0-14.51-3.7A9.7 9.7 0 0 1 63 346.1a30.3 30.3 0 0 1 40.88 10.7l53.79 93a9.7 9.7 0 0 1-3.51 13.2l-52.71 30.65a9.78 9.78 0 0 1-4.88 1.35z" />
  <circle cx="106.52" cy="449.17" r="7.86" />
  <path d="M98.49 243.77a9.71 9.71 0 0 1-7.84-4l-27.91-38.1a9.7 9.7 0 1 1 15.65-11.47l27.92 38.14a9.7 9.7 0 0 1-7.82 15.43z" />
  <path d="M426.26 243.24a9.7 9.7 0 0 1-7.6-15.71L448 190.45a9.7 9.7 0 0 1 15.22 12l-29.31 37.08a9.68 9.68 0 0 1-7.65 3.71z" />
  <circle cx="271.27" cy="111.38" r="96.5" />
  <rect x="260.98" y="17.43" width="19.4" height="37.26" />
  <rect x="260.91" y="168.42" width="19.4" height="37.26" />
  <rect x="176.22" y="100.86" width="37.26" height="19.4" />
  <rect x="327.21" y="100.92" width="37.26" height="19.4" />
  <path d="M309.22 63.73a9.7 9.7 0 0 0-13.72 0l-38.36 38.36a10.5 10.5 0 0 0 0 14.32l22.15 22.14A9.69 9.69 0 1 0 293 124.84l-15.59-15.59 31.81-31.8a9.7 9.7 0 0 0 0-13.72z" />
  <path d="M269.65 218.38a106.69 106.69 0 1 1 39-206 9.7 9.7 0 0 1-7.1 18.06A87.17 87.17 0 1 0 352 82.74a9.7 9.7 0 1 1 18.3-6.43 106.76 106.76 0 0 1-100.65 142.07z" />
  <polygon points="351.02 241.43 322.16 234.95 316.38 267.23 284.84 209.99 321.92 194.03 351.02 241.43" />
  <polygon points="188.16 241.43 217.02 234.95 222.8 267.23 254.34 209.99 217.26 194.03 188.16 241.43" />
  <circle cx="346.27" cy="50.09" r="9.44" />
</svg>
