<svg
  xmlns="http://www.w3.org/2000/svg"
  viewBox="0 0 500 500"
  width="500"
  height="500"
  fill="#000000"
>
  <path d="M250 42a156.89 156.89 0 1 0 156.89 156.93A156.89 156.89 0 0 0 250 42zm-10.19 20a9.23 9.23 0 1 1 18.46 0v29a9.23 9.23 0 1 1-18.46 0zm-99.52 144.83h-29a9.24 9.24 0 1 1 0-18.47h29a9.24 9.24 0 1 1 0 18.47zm117.88 129.64a9.24 9.24 0 1 1-18.47 0v-29a9.24 9.24 0 0 1 18.47 0zm60.73-193.38l-56.32 56.32 30 30a9.23 9.23 0 0 1-13.06 13.06l-36-36a10.58 10.58 0 0 1 0-14L305.84 130a9.23 9.23 0 1 1 13.06 13.06zm66.85 63.84h-29a9.24 9.24 0 0 1 0-18.47h29a9.24 9.24 0 1 1 0 18.47z" />
  <path d="M443.93 198.93C443.93 92 356.93 5 250 5S56.07 92 56.07 198.93c0 68.72 36 129.16 90 163.62l-51.13 83.32 55-12.34 11 61.47 57.7-104.73a192.25 192.25 0 0 0 62.78 0L339.09 495l11-61.47 55 12.34-51.19-83.33c54.1-34.45 90.03-94.89 90.03-163.61zm-369.39 0c0-96.75 78.71-175.46 175.46-175.46s175.46 78.71 175.46 175.46S346.75 374.38 250 374.38 74.54 295.67 74.54 198.93z" />
</svg>
