<svg xmlns="http://www.w3.org/2000/svg" viewBox="0 0 500 500">
  <g id="award-450">
    <path id="clock-face" d="M250.2,44.53V55c.11,0,.21,0,.31,0a9.3,9.3,0,0,1,9.3,9.3V92.68a9.3,9.3,0,0,1-9.3,9.3l-.31,0v82.64L303,130.69a9.3,9.3,0,1,1,13.29,13L262.52,198.6l1.19,1.22,81.88-.68c0-.1,0-.19,0-.29a9.3,9.3,0,0,1,9.3-9.3h27.77a9.28,9.28,0,0,1,9.28,9.2l9.13-.08C401,113.54,333.51,44.53,250.2,44.53Z"/>
    <path id="minute-4" d="M251,341.82a9.3,9.3,0,0,1-9.3-9.29V304.15a9.3,9.3,0,0,1,18.6,0v28.38A9.29,9.29,0,0,1,251,341.82Z"/>
    <path id="minute-3" d="M147.94,206.22H120.17a9.3,9.3,0,1,1,0-18.59h27.77a9.3,9.3,0,1,1,0,18.59Z"/>
    <path id="minute-2" d="M250.24,55a9.37,9.37,0,0,0-9.3,9.43V92.57a9.37,9.37,0,0,0,9.3,9.43Z"/>
    <path id="minute-1" d="M345.59,198.72a9.3,9.3,0,0,0,9.29,9.3h27.76a9.3,9.3,0,0,0,9.29-9.3Z"/>
    <path id="clock-hand" d="M264.43,200.14l-14.51.12V185l-6.35,6.48a10.61,10.61,0,0,0,0,13.95L278,240.6a9.3,9.3,0,1,0,13.29-13Z"/>
    <path id="award-outline" d="M445.26,200.26C445.26,92.59,357.67,5,250,5S54.74,92.59,54.74,200.26A195.21,195.21,0,0,0,143.88,364l-50,81.49,55.34-12.43L160.26,495l56.41-102.38a193,193,0,0,0,66.6,0L339.68,495l11.09-61.9,55.33,12.43-50-81.46A195.21,195.21,0,0,0,445.26,200.26Zm-371.92,0C73.34,102.85,152.59,23.6,250,23.6s176.66,79.25,176.66,176.66S347.41,376.93,250,376.93,73.34,297.67,73.34,200.26Z"/>
  </g>
</svg>
