<svg xmlns="http://www.w3.org/2000/svg" viewBox="0 0 500 500">
  <g id="award-1200-number">
    <path d="M438.52,196.65C440.23,92.7,357.06,6.74,253.11,5S63.19,86.49,61.48,190.44a188.49,188.49,0,0,0,81.8,158.44l-70.15,97.3,53.63-11.12L136.48,495l76.4-116.63a186.46,186.46,0,0,0,68.5,1.06L351.14,494.3l11.69-59.58,53.23,12.87-64.22-95.46A188.52,188.52,0,0,0,438.52,196.65ZM79.43,190.74C81,96.69,158.76,21.43,252.81,23s169.31,79.33,167.76,173.38S341.24,365.67,247.19,364.12,77.88,284.79,79.43,190.74Z"/>
    <g>
      <path d="M121.5,160.89h-.28l-17.71,8.43L99.94,153l24.56-11.42h18v92.82h-21Z"/>
      <path d="M173,234.44V221.3l12-10.85c20.28-18.14,30.14-28.56,30.42-39.42,0-7.56-4.57-13.56-15.28-13.56-8,0-15,4-19.85,7.71l-6.14-15.56c7-5.29,17.85-9.57,30.42-9.57,21,0,32.56,12.28,32.56,29.13,0,15.56-11.28,28-24.71,40l-8.57,7.14v.28h35v17.85Z"/>
      <path d="M320.82,187.6c0,28.71-11.57,48.41-35.27,48.41-24,0-34.56-21.56-34.7-47.84,0-26.85,11.42-48.12,35.41-48.12C311.11,140.05,320.82,162.18,320.82,187.6Zm-48.12.57c-.15,21.28,5,31.42,13.42,31.42s13-10.57,13-31.7c0-20.57-4.42-31.42-13.13-31.42C278,156.47,272.55,166.61,272.7,188.17Z"/>
      <path d="M400.06,187.6c0,28.71-11.57,48.41-35.27,48.41-24,0-34.56-21.56-34.71-47.84,0-26.85,11.43-48.12,35.42-48.12C390.35,140.05,400.06,162.18,400.06,187.6Zm-48.13.57c-.14,21.28,5,31.42,13.43,31.42s13-10.57,13-31.7c0-20.57-4.42-31.42-13.14-31.42C357.22,156.47,351.79,166.61,351.93,188.17Z"/>
    </g>
  </g>
</svg>
