<svg
  xmlns="http://www.w3.org/2000/svg"
  viewBox="0 0 500 500"
  width="500"
  height="500"
  fill="#ffffff"
>
  <path d="M438.52 196.65C440.23 92.7 357.06 6.74 253.11 5S63.19 86.49 61.48 190.44a188.49 188.49 0 0 0 81.8 158.44l-70.15 97.3 53.63-11.12 9.72 59.94 76.4-116.63a186.46 186.46 0 0 0 68.5 1.06l69.76 114.87 11.69-59.58 53.23 12.87-64.22-95.46a188.52 188.52 0 0 0 86.68-155.48zm-359.09-5.91C81 96.69 158.76 21.43 252.81 23s169.31 79.33 167.76 173.38-79.33 169.29-173.38 167.74S77.88 284.79 79.43 190.74z" />
  <path d="M114.82 224.53c4.77 2.46 15.71 7.05 26.65 7.05 13.93 0 21-6.71 21-15.35 0-11.29-11.29-16.41-23.11-16.41h-10.95v-19.23h10.41c9-.18 20.47-3.53 20.47-13.24 0-6.88-5.65-12-16.94-12-9.35 0-19.24 4-24 6.88l-5.47-19.42c6.88-4.4 20.64-8.64 35.47-8.64 24.53 0 38.11 12.88 38.11 28.58 0 12.18-6.88 21.71-21 26.65v.35c13.77 2.48 24.88 12.88 24.88 27.88 0 20.29-17.82 35.12-46.93 35.12-14.83 0-27.35-3.89-34.06-8.12z" />
  <path d="M292.7 192.94c0 35.47-14.29 59.82-43.58 59.82-29.65 0-42.7-26.65-42.88-59.12 0-33.17 14.12-59.46 43.76-59.46 30.7 0 42.7 27.35 42.7 58.76zm-59.46.7c-.18 26.3 6.17 38.82 16.58 38.82s16.06-13.05 16.06-39.17c0-25.41-5.47-38.82-16.23-38.82-9.88 0-16.59 12.53-16.41 39.17z" />
  <path d="M390.65 192.94c0 35.47-14.3 59.82-43.59 59.82-29.64 0-42.7-26.65-42.88-59.12 0-33.17 14.12-59.46 43.76-59.46 30.71 0 42.71 27.35 42.71 58.76zm-59.47.7c-.17 26.3 6.18 38.82 16.59 38.82s16.06-13.05 16.06-39.17c0-25.41-5.47-38.82-16.24-38.82-9.88 0-16.59 12.53-16.41 39.17z" />
</svg>
