<svg
  xmlns="http://www.w3.org/2000/svg"
  viewBox="0 0 500 500"
  width="500"
  height="500"
  fill="#000000"
>
  <path d="M250.1 345.15a9.29 9.29 0 0 1-9.29-9.3v-28.37a9.3 9.3 0 0 1 18.59 0v28.37a9.3 9.3 0 0 1-9.3 9.3z" />
  <path d="M147.08 209.58h-27.76a9.3 9.3 0 1 1 0-18.59h27.76a9.3 9.3 0 0 1 0 18.59z" />
  <path d="M249.23 47.86v10.56h.15a9.23 9.23 0 0 1 9.29 9.16v28a9.23 9.23 0 0 1-9.29 9.16h-.15v83.39l52.82-54a9.3 9.3 0 1 1 13.29 13L261.63 202l28.52 29.14a9.28 9.28 0 0 1 1.19 11.46L357 309.66a155.26 155.26 0 0 0 43-107.72c0-85.1-67.5-154.08-150.77-154.08zm132.48 161.62H354a9.3 9.3 0 0 1 0-18.6h27.76a9.3 9.3 0 1 1 0 18.6z" />
  <path d="M249.33 58.31a9.3 9.3 0 0 0-9.3 9.3v27.76a9.3 9.3 0 0 0 9.3 9.3z" />
  <path d="M249.36 199.72v-11.88l-6.92 7.08a10.61 10.61 0 0 0 0 13.94L276.86 244a9.28 9.28 0 0 0 13.14.15 9.73 9.73 0 0 0 1.29-1.6z" />
  <path d="M445.22 200.22C445.22 92.57 357.64 5 250 5S54.78 92.57 54.78 200.22c0 68.82 35.84 129.39 89.79 164.16l-49.84 81.16 55.32-12.42L161.14 495l56.37-102.32a193 193 0 0 0 66.48-.27L340.51 495l11.09-61.88 55.32 12.42-50.3-81.92a195.17 195.17 0 0 0 88.6-163.4zm-371.84 0c0-97.39 79.23-176.63 176.62-176.63s176.62 79.24 176.62 176.63S347.39 376.84 250 376.84 73.38 297.61 73.38 200.22z" />
</svg>
