<svg
  xmlns="http://www.w3.org/2000/svg"
  viewBox="0 0 500 500"
  width="500"
  height="500"
  fill="#ffffff"
>
  <path d="M147.93 189.9h-27.85a9.33 9.33 0 0 0 0 18.65h27.85a9.33 9.33 0 0 0 0-18.65z" />
  <path d="M250.68 46.47V57a9.23 9.23 0 0 1 9.05 9.16v28.08a9.24 9.24 0 0 1-9 9.16V57a9.33 9.33 0 0 0-9.32 9.33V94.2a9.33 9.33 0 0 0 9.27 9.32v83.05l-7.19 7.35a10.63 10.63 0 0 0 0 14l7.19 7.34v82.42a9.23 9.23 0 0 1 9.11 9.16v28a9.23 9.23 0 0 1-9.11 9.16v10.86c83.33 0 150.88-69 150.88-154.2S334 46.47 250.68 46.47zm66 99.37l-53.87 55.06 28.61 29.23a9.32 9.32 0 0 1-13.33 13l-27.35-27.95v-28.6l52.62-53.78a9.32 9.32 0 0 1 13.33 13zm66.56 62.6h-27.83a9.33 9.33 0 0 1 0-18.65h27.84a9.33 9.33 0 1 1 0 18.65z" />
  <path d="M241.22 306.92v27.84a9.33 9.33 0 0 0 9.32 9.33V297.6a9.32 9.32 0 0 0-9.32 9.32z" />
  <path d="M445.79 200.79C445.79 92.83 358 5 250 5S54.21 92.83 54.21 200.79a195.76 195.76 0 0 0 89 164L93.68 445.4l55.49-12.46L160.28 495l55.88-101.41a192.9 192.9 0 0 0 68.11-.08L340.18 495l11.12-62.06 55.49 12.46-49.65-80.86a195.75 195.75 0 0 0 88.65-163.75zm-372.93 0c0-97.68 79.46-177.14 177.14-177.14s177.14 79.46 177.14 177.14S347.68 377.93 250 377.93 72.86 298.46 72.86 200.79z" />
</svg>
