<svg xmlns="http://www.w3.org/2000/svg" viewBox="0 0 500 500">
  <g id="award-450-number">
    <path d="M438.08,196.65C439.79,92.7,356.61,6.74,252.66,5S62.75,86.49,61,190.44a188.47,188.47,0,0,0,81.81,158.44l-70.15,97.3,53.63-11.12L136,495l76.4-116.63a186.46,186.46,0,0,0,68.5,1.06L350.69,494.3l11.69-59.58,53.23,12.87L351.4,352.13A188.52,188.52,0,0,0,438.08,196.65ZM79,190.74C80.54,96.69,158.32,21.43,252.37,23s169.3,79.33,167.75,173.38S340.79,365.67,246.74,364.12,77.44,284.79,79,190.74Z"/>
    <g>
      <path d="M158.4,250.81V223.46H107.58V206L151,136.12h32.82v67.23h13.76v20.11H183.81v27.35Zm0-47.46V177.94c0-6.88.36-13.94.88-21.35h-.7c-3.71,7.41-6.71,14.12-10.59,21.35L132.64,203v.35Z"/>
      <path d="M285.46,158.18H241l-2.47,17.64a50.11,50.11,0,0,1,7.41-.35c10.94,0,22.06,2.47,30.17,8.29,8.65,5.82,13.94,15.36,13.94,28.76,0,21.35-18.35,40.24-49.23,40.24-13.94,0-25.58-3.18-31.94-6.53l4.77-20.12a65.88,65.88,0,0,0,25.94,5.65c11.11,0,22.93-5.3,22.93-17.47,0-11.83-9.35-19.06-32.29-19.06a98.38,98.38,0,0,0-15.52,1.06l7.59-60.17h63.16Z"/>
      <path d="M391.53,192.94c0,35.47-14.3,59.82-43.59,59.82-29.64,0-42.7-26.65-42.88-59.12,0-33.17,14.12-59.46,43.76-59.46C379.53,134.18,391.53,161.53,391.53,192.94Zm-59.47.7c-.18,26.3,6.18,38.82,16.59,38.82s16.06-13.06,16.06-39.17c0-25.41-5.48-38.82-16.24-38.82C338.59,154.47,331.88,167,332.06,193.64Z"/>
    </g>
  </g>
</svg>
