<svg xmlns="http://www.w3.org/2000/svg" viewBox="0 0 500 500">
  <g id="award-300-number">
    <path d="M438.52,196.65C440.23,92.7,357.06,6.74,253.11,5S63.19,86.49,61.48,190.44a188.49,188.49,0,0,0,81.8,158.44l-70.15,97.3,53.63-11.12L136.48,495l76.4-116.63a186.46,186.46,0,0,0,68.5,1.06L351.14,494.3l11.69-59.58,53.23,12.87-64.22-95.46A188.52,188.52,0,0,0,438.52,196.65ZM79.43,190.74C81,96.69,158.76,21.43,252.81,23s169.31,79.33,167.76,173.38S341.24,365.67,247.19,364.12,77.88,284.79,79.43,190.74Z"/>
    <g>
      <path d="M114.82,224.53c4.77,2.46,15.71,7.05,26.65,7.05,13.93,0,21-6.71,21-15.35,0-11.29-11.29-16.41-23.11-16.41H128.41V180.59h10.41c9-.18,20.47-3.53,20.47-13.24,0-6.88-5.65-12-16.94-12-9.35,0-19.24,4-24,6.88l-5.47-19.42c6.88-4.4,20.64-8.64,35.47-8.64,24.53,0,38.11,12.88,38.11,28.58,0,12.18-6.88,21.71-21,26.65v.35c13.77,2.48,24.88,12.88,24.88,27.88,0,20.29-17.82,35.12-46.93,35.12-14.83,0-27.35-3.89-34.06-8.12Z"/>
      <path d="M292.7,192.94c0,35.47-14.29,59.82-43.58,59.82-29.65,0-42.7-26.65-42.88-59.12,0-33.17,14.12-59.46,43.76-59.46C280.7,134.18,292.7,161.53,292.7,192.94Zm-59.46.7c-.18,26.3,6.17,38.82,16.58,38.82s16.06-13.05,16.06-39.17c0-25.41-5.47-38.82-16.23-38.82C239.77,154.47,233.06,167,233.24,193.64Z"/>
      <path d="M390.65,192.94c0,35.47-14.3,59.82-43.59,59.82-29.64,0-42.7-26.65-42.88-59.12,0-33.17,14.12-59.46,43.76-59.46C378.65,134.18,390.65,161.53,390.65,192.94Zm-59.47.7c-.17,26.3,6.18,38.82,16.59,38.82s16.06-13.05,16.06-39.17c0-25.41-5.47-38.82-16.24-38.82C337.71,154.47,331,167,331.18,193.64Z"/>
    </g>
  </g>
</svg>
