<svg xmlns="http://www.w3.org/2000/svg" viewBox="0 0 500 500">
  <g id="award-1200">
    <path id="clock-face" d="M250.15,46.19l0,10.58a9.28,9.28,0,0,1,9.2,9.22V94.16a9.28,9.28,0,0,1-9.32,9.23h0l-.29,83.74L303,132.61a9.32,9.32,0,0,1,13.33,13l-53.86,55,28.6,29.23a9.32,9.32,0,0,1-13.33,13l-34.51-35.26a9.26,9.26,0,0,1-2.62-7c0-.15,0-.29,0-.44H156.83a9.29,9.29,0,0,1-9.19,8.06H119.81a9.29,9.29,0,0,1-9.19-8.06H99.38c0,85.1,67.5,154.08,150.77,154.08s150.77-69,150.77-154.08S333.42,46.19,250.15,46.19Zm10.11,288.73a9.32,9.32,0,0,1-18.64,0V306.48a9.32,9.32,0,0,1,18.64,0Zm122.62-126.7H355.05a9.32,9.32,0,0,1,0-18.64h27.83a9.32,9.32,0,0,1,0,18.64Z"/>
    <path id="intersection" d="M249.65,200.29l0-13.24-6.44,6.49a9.22,9.22,0,0,0-2.66,6.75Z"/>
    <path id="minute-2" d="M250.16,56.89a9.32,9.32,0,0,0-9.32,9.32V94a9.32,9.32,0,0,0,9.32,9.32Z"/>
    <path id="minute-1" d="M156.94,200.36a9.32,9.32,0,0,0-9.32-9.32H119.79a9.32,9.32,0,0,0-9.32,9.32Z"/>
    <path id="award-outline" d="M445.72,200.72C445.72,92.8,357.92,5,250,5S54.28,92.8,54.28,200.72a195.65,195.65,0,0,0,88.8,163.81L93.41,445.41,148.88,433,160,495l56-101.58a193.08,193.08,0,0,0,67.92,0L339.83,495,351,433l55.46,12.45-49.62-80.8A195.66,195.66,0,0,0,445.72,200.72Zm-372.8,0c0-97.64,79.44-177.08,177.08-177.08s177.08,79.44,177.08,177.08S347.64,377.8,250,377.8,72.92,298.36,72.92,200.72Z"/>
  </g>
</svg>
