<svg
  xmlns="http://www.w3.org/2000/svg"
  viewBox="0 0 500 500"
  width="500"
  height="500"
  fill="#000000"
>
  <path d="M251.21 354.61a9.38 9.38 0 0 1-9.38-9.38v-28.58a9.38 9.38 0 1 1 18.76 0v28.58a9.38 9.38 0 0 1-9.38 9.38z" />
  <path d="M388.86 208.53h-27.05a9.38 9.38 0 0 1 0-18.76h27.05a9.38 9.38 0 1 1 0 18.76z" />
  <path d="M136.72 208.64h-27a9.39 9.39 0 1 1 0-18.77h27.05a9.39 9.39 0 0 1 0 18.77z" />
  <path d="M249.76 56.24a9.45 9.45 0 0 0-9.38 9.51v28.41a9.45 9.45 0 0 0 9.38 9.52z" />
  <path d="M447 202C447 93.37 358.63 5 250 5S53 93.37 53 202a197 197 0 0 0 88.19 164.12l-48.5 79 55.83-12.54L159.71 495l54.69-99.28a194.34 194.34 0 0 0 71.59-.07L340.72 495l11.19-62.45 55.83 12.54-48.62-79.17A196.93 196.93 0 0 0 447 202zm-375.24 0c0-98.28 80-178.24 178.24-178.24s178.24 80 178.24 178.24S348.28 380.24 250 380.24 71.76 300.29 71.76 202z" />
  <path d="M321.09 136.66a9.39 9.39 0 0 0-13.27 0l-50.77 50.78 45.13-133a161.35 161.35 0 0 0-52.35-8.71v10.49a9.44 9.44 0 0 1 9.32 9.5v28.42a9.44 9.44 0 0 1-9.32 9.5v91l-6.08 6.08a10.76 10.76 0 0 0 0 14.26l37 37A9.38 9.38 0 1 0 294 238.73l-30.86-30.86 57.94-57.94a9.39 9.39 0 0 0 .01-13.27z" />
</svg>
