<svg id="award-1700" xmlns="http://www.w3.org/2000/svg" viewBox="0 0 500 500">
  <path id="clock-face" d="M250,42A156.89,156.89,0,1,0,406.89,198.93,156.89,156.89,0,0,0,250,42ZM239.81,62a9.23,9.23,0,1,1,18.46,0V91a9.23,9.23,0,1,1-18.46,0ZM140.29,206.83h-29a9.24,9.24,0,1,1,0-18.47h29a9.24,9.24,0,1,1,0,18.47ZM258.17,336.47a9.24,9.24,0,1,1-18.47,0v-29a9.24,9.24,0,0,1,18.47,0ZM318.9,143.09l-56.32,56.32,30,30a9.23,9.23,0,0,1-13.06,13.06l-36-36a10.58,10.58,0,0,1,0-14L305.84,130a9.23,9.23,0,1,1,13.06,13.06Zm66.85,63.84h-29a9.24,9.24,0,0,1,0-18.47h29a9.24,9.24,0,1,1,0,18.47Z"/>
  <path id="award-outline" d="M443.93,198.93C443.93,92,356.93,5,250,5S56.07,92,56.07,198.93c0,68.72,36,129.16,90,163.62L94.94,445.87l55-12.34,11,61.47,57.7-104.73a192.25,192.25,0,0,0,62.78,0L339.09,495l11-61.47,55,12.34L353.9,362.54C408,328.09,443.93,267.65,443.93,198.93Zm-369.39,0c0-96.75,78.71-175.46,175.46-175.46s175.46,78.71,175.46,175.46S346.75,374.38,250,374.38,74.54,295.67,74.54,198.93Z"/>
</svg>
