<svg
  xmlns="http://www.w3.org/2000/svg"
  viewBox="0 0 500 500"
  width="500"
  height="500"
  fill="#ffffff"
>
  <path d="M438.52 196.65C440.23 92.7 357.06 6.74 253.11 5S63.19 86.49 61.48 190.44a188.49 188.49 0 0 0 81.8 158.44l-70.15 97.3 53.63-11.12 9.72 59.94 76.4-116.63a186.46 186.46 0 0 0 68.5 1.06l69.76 114.87 11.69-59.58 53.23 12.87-64.22-95.46a188.52 188.52 0 0 0 86.68-155.48zm-359.09-5.91C81 96.69 158.76 21.43 252.81 23s169.31 79.33 167.76 173.38-79.33 169.29-173.38 167.74S77.88 284.79 79.43 190.74z" />
  <path d="M185.76 155.18a73.55 73.55 0 0 0-10.41.35c-23.83 1.94-34.41 14.12-37.41 27.53h.53c5.64-5.83 13.58-9.18 24.35-9.18 19.23 0 35.46 13.59 35.46 37.41 0 22.76-17.46 41.47-42.34 41.47-30.53 0-45.53-22.77-45.53-50.12 0-21.53 7.94-39.52 20.29-51 11.47-10.41 26.3-16.06 44.29-16.94a75.22 75.22 0 0 1 10.77-.18zm-14.65 57.52c0-10.59-5.64-19.76-17.11-19.76a17.51 17.51 0 0 0-15.89 10.23c-.7 1.42-1.05 3.53-1.05 6.71.52 12.17 6.35 23.11 18.52 23.11 9.53.01 15.53-8.64 15.53-20.29z" />
  <path d="M292.7 136.12v16.94l-47.29 97.75H217l47.29-92.28v-.35h-52.58v-22.06z" />
  <path d="M385 158.18h-44.46l-2.47 17.64a50 50 0 0 1 7.41-.35c10.94 0 22 2.47 30.17 8.3 8.65 5.81 13.94 15.35 13.94 28.75 0 21.36-18.35 40.24-49.23 40.24-13.94 0-25.59-3.18-31.94-6.53l4.77-20.12a65.83 65.83 0 0 0 25.93 5.65c11.12 0 22.94-5.3 22.94-17.47 0-11.82-9.35-19.06-32.29-19.06a98.61 98.61 0 0 0-15.53 1.06l7.59-60.17H385z" />
</svg>
