<svg
  xmlns="http://www.w3.org/2000/svg"
  viewBox="0 0 500 500"
  width="500"
  height="500"
  fill="#ffffff"
>
  <path d="M417 136.6h-3.7l-19.6 19.5H417a9.8 9.8 0 0 0 0-19.5z" />
  <path d="M417 190.9h-58l-19.5 19.5H417a9.8 9.8 0 0 0 0-19.5z" />
  <path d="M418 308.3H241.1l-20 20H418a10 10 0 0 0 0-20z" />
  <rect
    x="-84.7"
    y="238.2"
    width="669.4"
    height="23.59"
    transform="rotate(-45 249.977 250.056)"
  />
  <path d="M253.3 156.1H294l19.5-19.5h-60.2a9.8 9.8 0 0 0 0 19.5z" />
  <path d="M417 245.1H304.7l-19.5 19.5H417a9.8 9.8 0 0 0 0-19.5z" />
  <path d="M455.6 94.3a34.5 34.5 0 0 1 1.6 9.6v273.6a31.6 31.6 0 0 1-31.6 31.6H140.7l-19.5 19.6h304.4a51.2 51.2 0 0 0 51.1-51.2V103.9a50.6 50.6 0 0 0-6.2-24.5z" />
  <path d="M67.2 328.3h54.6l20.1-20H67.2a10 10 0 1 0 0 20z" />
  <path d="M66.6 378.3h5.2l19.5-19.5H66.6a9.8 9.8 0 0 0 0 19.5z" />
  <path d="M83.5 278.2h88.4l41.4-41.4v-88.4a25.6 25.6 0 0 0-25.6-25.6H83.5a25.6 25.6 0 0 0-25.6 25.6v104.2a25.6 25.6 0 0 0 25.6 25.6zm17.6-97.7a34 34 0 0 1 2.8-13.5 34.5 34.5 0 0 1 63.4 0 34 34 0 0 1 2.8 13.5 33.6 33.6 0 0 1-2.8 13.5 34.5 34.5 0 0 1-63.4 0 33.6 33.6 0 0 1-2.8-13.5zm-10 55.5c16.6-14.3 44.5-13.8 44.5-13.8s27.8-.5 44.5 13.8c5 4.2 8.9 11.2 12 18.9h-113c3.1-7.7 7-14.7 12-18.9z" />
  <path d="M30.2 420l14.3-14.4A31.6 31.6 0 0 1 27 377.5V103.9a30 30 0 0 1 2.3-11.6h328.6l39.5-39.5H58.6a51.1 51.1 0 0 0-51.1 51.1v273.6A51.1 51.1 0 0 0 30.2 420z" />
</svg>
