<svg xmlns="http://www.w3.org/2000/svg" viewBox="0 0 500 500">
  <g id="background-check-not-applicable">
    <path id="line1-1" d="M417,136.6h-3.7l-19.6,19.5H417a9.8,9.8,0,0,0,0-19.5Z"/>
    <path id="line2" d="M417,190.9H359l-19.5,19.5H417a9.8,9.8,0,0,0,0-19.5Z"/>
    <path id="line4-2" d="M418,308.3H241.1l-20,20H418a10,10,0,0,0,0-20Z"/>
    <rect id="diagonal-line" x="-84.7" y="238.2" width="669.4" height="23.59" transform="translate(-103.6 250) rotate(-45)"/>
    <path id="line1" d="M253.3,156.1H294l19.5-19.5H253.3a9.8,9.8,0,0,0,0,19.5Z"/>
    <path id="line3" d="M417,245.1H304.7l-19.5,19.5H417a9.8,9.8,0,0,0,0-19.5Z"/>
    <path id="outline-bottom" d="M455.6,94.3a34.5,34.5,0,0,1,1.6,9.6V377.5a31.6,31.6,0,0,1-31.6,31.6H140.7l-19.5,19.6H425.6a51.2,51.2,0,0,0,51.1-51.2V103.9a50.6,50.6,0,0,0-6.2-24.5Z"/>
    <path id="line4-1" d="M67.2,328.3h54.6l20.1-20H67.2a10,10,0,1,0,0,20Z"/>
    <path id="line5" d="M66.6,378.3h5.2l19.5-19.5H66.6a9.8,9.8,0,0,0,0,19.5Z"/>
    <path id="person" d="M83.5,278.2h88.4l41.4-41.4V148.4a25.6,25.6,0,0,0-25.6-25.6H83.5a25.6,25.6,0,0,0-25.6,25.6V252.6A25.6,25.6,0,0,0,83.5,278.2Zm17.6-97.7a34,34,0,0,1,2.8-13.5h0a34.5,34.5,0,0,1,63.4,0h0a34,34,0,0,1,2.8,13.5h0a33.6,33.6,0,0,1-2.8,13.5h0a34.5,34.5,0,0,1-63.4,0h0a33.6,33.6,0,0,1-2.8-13.5h0ZM91.1,236c16.6-14.3,44.5-13.8,44.5-13.8s27.8-.5,44.5,13.8c5,4.2,8.9,11.2,12,18.9H79.1C82.2,247.2,86.1,240.2,91.1,236Z"/>
    <path id="outline-top" d="M30.2,420l14.3-14.4A31.6,31.6,0,0,1,27,377.5V103.9a30,30,0,0,1,2.3-11.6H357.9l39.5-39.5H58.6A51.1,51.1,0,0,0,7.5,103.9V377.5A51.1,51.1,0,0,0,30.2,420Z"/>
  </g>
</svg>
