<svg
  xmlns="http://www.w3.org/2000/svg"
  viewBox="0 0 500 500"
  width="500"
  height="500"
  fill="#000000"
>
  <path d="M250 495C114.9 495 5 385.1 5 250S114.9 5 250 5s245 109.9 245 245-109.9 245-245 245zm0-470.4C125.7 24.6 24.6 125.7 24.6 250S125.7 475.4 250 475.4 475.4 374.3 475.4 250 374.3 24.6 250 24.6z" />
  <path d="M181.3 159.6c11-2.2 33.3-3.8 54.1-3.8 25.6 0 41.3 2.4 54.7 10.4s22.3 19.5 22.3 36.3-9.6 31.8-30.5 39.5v.6c21.1 5.8 36.8 21.7 36.8 45.6 0 16.8-7.7 29.9-19.2 39.3-13.5 10.7-36 16.7-72.9 16.7-20.6 0-36-1.3-45.3-2.7zm41.5 70.9h13.7c22 0 33.8-9.1 33.8-22.8s-10.7-21.4-29.6-21.4a108.7 108.7 0 0 0-17.9 1.1zm0 82.1c4.1.6 9.1.6 16.2.6 19 0 35.7-7.1 35.7-26.7s-16.7-26.1-37.6-26.1h-14.3z" />
</svg>
