<svg xmlns="http://www.w3.org/2000/svg" viewBox="0 0 500 500">
  <g id="background-check-disqualified">
    <path id="person" d="M158,132.8H69.6a21.7,21.7,0,0,0-21.8,21.8V243a21.8,21.8,0,0,0,21.8,21.8H158A21.9,21.9,0,0,0,179.8,243V154.6A21.8,21.8,0,0,0,158,132.8Zm-73.5,49a29.1,29.1,0,0,1,2.3-11.5h.1a29.3,29.3,0,0,1,53.8,0h0a29.2,29.2,0,0,1,2.4,11.5h0a29.1,29.1,0,0,1-2.4,11.4h0a29.2,29.2,0,0,1-53.8,0h-.1a29,29,0,0,1-2.3-11.4ZM65.8,244.9c2.6-6.5,5.9-12.4,10.2-16,14.1-12.1,37.8-11.7,37.8-11.7s23.6-.4,37.8,11.7c4.2,3.6,7.6,9.5,10.2,16Z"/>
    <path id="cross-2" data-name="cross" d="M404.9,246.5A90.1,90.1,0,1,0,495,336.6,90,90,0,0,0,404.9,246.5Zm44.2,121.4a9.8,9.8,0,0,1-13.8,13.9l-31.4-31.4-31.3,31.4a9.8,9.8,0,0,1-13.8-13.9l31.3-31.3-31.3-31.3a9.8,9.8,0,0,1,13.8-13.9l31.3,31.3,31.4-31.3a9.8,9.8,0,1,1,13.8,13.9l-31.3,31.3Z"/>
    <path id="line5" d="M136.4,349.8H55.2a8.3,8.3,0,0,1,0-16.6h81.2a8.3,8.3,0,0,1,0,16.6Z"/>
    <path id="line4" d="M305.1,290.7H55.2a8.3,8.3,0,0,0,0,16.6H299.1A102.4,102.4,0,0,1,305.1,290.7Z"/>
    <path id="line3" d="M359.2,240a8.1,8.1,0,0,0-6.4-3.4H213.7a8.3,8.3,0,0,0,0,16.6H335.6A102.8,102.8,0,0,1,359.2,240Z"/>
    <path id="line2" d="M352.8,207.2H213.7a8.3,8.3,0,0,1,0-16.6H352.8a8.3,8.3,0,0,1,0,16.6Z"/>
    <path id="line1" d="M352.8,161.1H213.7a8.3,8.3,0,0,1,0-16.6H352.8a8.3,8.3,0,0,1,0,16.6Z"/>
    <path id="outline" d="M305.3,375.9H48.4a26.8,26.8,0,0,1-26.8-26.8V116.7a26.7,26.7,0,0,1,1.9-9.8H385a26.7,26.7,0,0,1,1.9,9.8V233.5c2.9-.2,5.8-.4,8.8-.4s5.2.2,7.8.4V116.7a43.5,43.5,0,0,0-43.4-43.4H48.4A43.5,43.5,0,0,0,5,116.7V349.1a43.5,43.5,0,0,0,43.4,43.4H315.2A95.8,95.8,0,0,1,305.3,375.9Z"/>
  </g>
</svg>
