<svg xmlns="http://www.w3.org/2000/svg" viewBox="0 0 500 500">
  <g id="background-check-pending">
    <path id="person" d="M158.5,132.9H69.8a21.9,21.9,0,0,0-21.9,21.8v88.8a21.8,21.8,0,0,0,21.9,21.8h88.7a21.8,21.8,0,0,0,21.9-21.8V154.7A21.9,21.9,0,0,0,158.5,132.9ZM84.8,182.1a29.1,29.1,0,0,1,2.3-11.5h.1a29.4,29.4,0,0,1,54,0h0a29.1,29.1,0,0,1,2.3,11.5h0a29.5,29.5,0,0,1-2.3,11.5h0a29.4,29.4,0,0,1-54,0h-.1a29.5,29.5,0,0,1-2.3-11.5ZM66,245.4c2.6-6.5,6-12.4,10.2-16.1,14.2-12.1,38-11.7,38-11.7s23.7-.4,37.9,11.7c4.3,3.7,7.6,9.6,10.2,16.1Z"/>
    <path id="ellipses" d="M404.9,246.5A90.2,90.2,0,1,0,495,336.6,90.1,90.1,0,0,0,404.9,246.5Zm-54.5,107a16.9,16.9,0,1,1,16.9-16.9A16.9,16.9,0,0,1,350.4,353.5Zm53.6,0a16.9,16.9,0,1,1,0-33.7,16.9,16.9,0,0,1,0,33.7Zm53.5,0a16.9,16.9,0,1,1,16.9-16.9A16.9,16.9,0,0,1,457.5,353.5Z"/>
    <path id="line5" d="M136.8,350.6H55.3a8.3,8.3,0,0,1,0-16.6h81.5a8.3,8.3,0,0,1,0,16.6Z"/>
    <path id="line4" d="M306.2,291.3H55.4a8.3,8.3,0,0,0-8.1,8.4,8.2,8.2,0,0,0,8.1,8.3H300.1A98.1,98.1,0,0,1,306.2,291.3Z"/>
    <path id="line3" d="M360.4,240.5a8,8,0,0,0-6.4-3.4H214.4a8.2,8.2,0,0,0-8,8.3,8.2,8.2,0,0,0,8,8.4H336.7A100.2,100.2,0,0,1,360.4,240.5Z"/>
    <path id="line2" d="M354,207.5H214.4a8.3,8.3,0,0,1,0-16.6H354a8.3,8.3,0,0,1,0,16.6Z"/>
    <path id="line1" d="M354,161.3H214.4a8.3,8.3,0,0,1,0-16.6H354a8.3,8.3,0,0,1,0,16.6Z"/>
    <path id="outline" d="M306.3,376.9H48.6a27,27,0,0,1-27-26.9V116.8a25.4,25.4,0,0,1,2-9.9H386.3a27.2,27.2,0,0,1,1.9,9.9V234c2.9-.2,5.9-.4,8.9-.4s5.2.1,7.8.3V116.8a43.7,43.7,0,0,0-43.6-43.6H48.6A43.6,43.6,0,0,0,5,116.8V350a43.6,43.6,0,0,0,43.6,43.5H316.2A102.5,102.5,0,0,1,306.3,376.9Z"/>
  </g>
</svg>
