<svg xmlns="http://www.w3.org/2000/svg" viewBox="0 0 500 500">
  <g id="background-check-all-results">
    <path id="person" d="M193.1,126.9H84.4a26.7,26.7,0,0,0-26.8,26.7V262.4a26.8,26.8,0,0,0,26.8,26.8H193.1a26.8,26.8,0,0,0,26.8-26.8V153.6A26.7,26.7,0,0,0,193.1,126.9Zm-90.3,60.2a36.9,36.9,0,0,1,2.8-14.1h.1a36,36,0,0,1,66.1,0h.1a35.2,35.2,0,0,1,2.9,14.1h0a34.9,34.9,0,0,1-2.9,14.1h-.1a36,36,0,0,1-66.1,0h-.1a36.6,36.6,0,0,1-2.8-14.1h0Zm-23,77.7c3.2-8,7.3-15.3,12.5-19.8,17.4-14.8,46.5-14.4,46.5-14.4s29-.4,46.4,14.4c5.3,4.5,9.4,11.8,12.6,19.8Z"/>
    <path id="line5" d="M166.5,393.7H66.7a10.2,10.2,0,0,1,0-20.4h99.8a10.2,10.2,0,0,1,0,20.4Z"/>
    <path id="line4" d="M433.6,341.5H67.3a10.5,10.5,0,0,1,0-21H433.6a10.5,10.5,0,0,1,0,21Z"/>
    <path id="line3" d="M432.6,275h-171a10.2,10.2,0,0,1,0-20.4h171a10.2,10.2,0,0,1,0,20.4Z"/>
    <path id="line2" d="M432.6,218.3h-171a10.2,10.2,0,0,1,0-20.4h171a10.2,10.2,0,0,1,0,20.4Z"/>
    <path id="line1" d="M432.6,161.7h-171a10.2,10.2,0,0,1,0-20.4h171a10.2,10.2,0,0,1,0,20.4Z"/>
    <path id="outline" d="M441.6,53.8H58.4A53.5,53.5,0,0,0,5,107.2V392.8a53.5,53.5,0,0,0,53.4,53.4H441.6A53.5,53.5,0,0,0,495,392.8V107.2A53.5,53.5,0,0,0,441.6,53.8Zm33,339a33.1,33.1,0,0,1-33,33.1H58.4a33.1,33.1,0,0,1-33-33.1V107.2A33.1,33.1,0,0,1,27.8,95H472.2a33.1,33.1,0,0,1,2.4,12.2Z"/>
  </g>
</svg>
