<svg xmlns="http://www.w3.org/2000/svg" viewBox="0 0 500 500">
  <g id="billing-actual">
    <g id="billing-actual-icon">
      <path id="outline" d="M435.2,193.4H64.8c-33,0-59.8,24.2-59.8,54V387.8c0,29.8,26.8,54,59.8,54H435.2c33,0,59.8-24.2,59.8-54V247.4C495,217.6,468.2,193.4,435.2,193.4Zm34.2,194.4c0,17.1-15.3,30.9-34.2,30.9H64.8c-18.9,0-34.2-13.8-34.2-30.9V247.4c0-17,15.3-30.9,34.2-30.9H435.2c18.9,0,34.2,13.9,34.2,30.9Z"/>
      <path id="circle4" d="M430.4,234.1A17.6,17.6,0,1,0,448,251.7,17.6,17.6,0,0,0,430.4,234.1Z"/>
      <path id="circle3" d="M430.4,363.1A17.6,17.6,0,1,0,448,380.7,17.6,17.6,0,0,0,430.4,363.1Z"/>
      <path id="circle2" d="M65,233.6a17.6,17.6,0,1,0,17.6,17.6A17.6,17.6,0,0,0,65,233.6Z"/>
      <path id="circle1" d="M65,362.6a17.6,17.6,0,1,0,17.6,17.6A17.6,17.6,0,0,0,65,362.6Z"/>
      <rect id="middle-ray" x="242.7" y="21.7" width="18.3" height="86.6" transform="translate(-0.2 1) rotate(-0.2)"/>
      <rect id="right-ray" x="415.8" y="144.9" width="41.9" height="18.27" transform="translate(21.5 359.1) rotate(-45.7)"/>
      <rect id="middle-ray2" x="322.8" y="93.5" width="66.6" height="18.27" transform="translate(131.2 397.1) rotate(-68.7)"/>
      <rect id="left-ray" x="58.2" y="133.9" width="18.3" height="41.89" transform="translate(-89 91) rotate(-44.3)"/>
      <rect id="middle-ray1" x="138.9" y="70.1" width="18.3" height="66.57" transform="translate(-27.5 60.8) rotate(-21.3)"/>
      <rect id="bottom-line" x="111.1" y="460.1" width="281.4" height="18.27"/>
      <path id="dollar-sign-2" data-name="dollar-sign" d="M252.8,247.8a69.8,69.8,0,1,0,69.8,69.8A69.9,69.9,0,0,0,252.8,247.8Zm4.9,101.5v11.1H247V350.1c-7.2-.3-14.3-2.3-18.4-4.7l3.3-12.6a39.1,39.1,0,0,0,18,4.7c6.1,0,10.4-2.4,10.4-6.7s-3.5-6.7-11.5-9.4c-11.6-3.9-19.5-9.3-19.5-19.8s6.7-17.1,18.3-19.3V272h10.6v9.5c7.3.3,12.1,1.8,15.7,3.6l-3.1,12.2a35.7,35.7,0,0,0-15.6-3.7c-7.1,0-9.4,3.1-9.4,6.1s3.8,5.9,13.1,9.3c12.8,4.6,18,10.5,18,20.3S270.1,347.2,257.7,349.3Z"/>
    </g>
  </g>
</svg>
