<svg xmlns="http://www.w3.org/2000/svg" viewBox="0 0 500 500">
  <g id="billing-info">
    <path id="screen" d="M143.1,235.8V324H410.5V235.8M158.2,308.9v-58H395.4v58Z"/>
    <path id="calculator" d="M437.9,177.5h-170c-4.8-19.5-2.4-43-1.5-53.3h0V69.4h37.7V54.3H266.4V5H126.7c-8.3,0-18.1,10.3-18.1,59.6,0,44.9,8.2,57.4,15.9,59.3-.8,11-1.4,33,3.1,53.6H97.7V495H440.8V177.5ZM140.6,125.8H248.5c-1.1,14.7-1.7,44.9,7.5,68H150.6C140,175.3,139.4,143.7,140.6,125.8ZM124.9,64.6c0-23,2.9-38.1,5-43.3H250.1V92.7H126.6A208.7,208.7,0,0,1,124.9,64.6Zm56.9,400.2H143.1V419.4h38.7Zm0-89.8H143.1V359.9h38.7Zm30.3,89.8H196.9V449.6h15.2Zm0-30.3H196.9V419.4h15.2Zm0-30.2H196.9V390.1h15.2Zm0-29.3H196.9V359.9h15.2Zm30.2,89.8H227.2V449.6h15.1Zm0-30.3H227.2V419.4h15.1Zm0-30.2H227.2V390.1h15.1Zm0-29.3H227.2V359.9h15.1Zm30.3,89.8H257.5V449.6h15.1Zm0-30.3H257.5V419.4h15.1Zm0-30.2H257.5V390.1h15.1Zm0-29.3H257.5V359.9h15.1Zm31.2,89.8H287.7V449.6h16.1Zm0-30.3H287.7V419.4h16.1Zm0-30.2H287.7V390.1h16.1Zm0-29.3H287.7V359.9h16.1Zm45.3,89.8H334V419.4h15.1Zm0-60.5H334V389.2h15.1Zm0-30.3H334V359.9h15.1Zm31.2,60.5v30.3H364.2V419.4h16.1Zm0-30.2H364.2V389.2h16.1Zm0-30.3H364.2V359.9h16.1Zm30.2,90.8H395.4V449.6h15.1Zm0-30.3H395.4V419.4h15.1Zm0-30.2H395.4V389.2h15.1Zm0-30.3H395.4V359.9h15.1ZM421,337.2H127.9V192.6h4.2c3.2,8.4,7.7,15.9,13.9,21.5l2.8,2.4h125a8.7,8.7,0,0,0,8.1-5.5l1.9-5.6-4-3.8a38.5,38.5,0,0,1-6.5-9H425.7V337.2Z"/>
    <path id="top-handle" d="M59.2,54.3V221.2h.1c0,10.9,6,26.6,22,29.2V234.8c-6.4-2.9-7-11.6-7-13.6h0V69.4h20V54.3H59.2Z"/>
  </g>
</svg>
