<svg xmlns="http://www.w3.org/2000/svg" viewBox="0 0 500 500">
  <g id="billing-discrepency">
    <g id="billing-discrepency-icon">
      <path id="error-triangle" d="M493.6,436.2,409.9,291.3a10.3,10.3,0,0,0-9.1-5.2h0a10.3,10.3,0,0,0-9.1,5.2L308,436.2a10.6,10.6,0,0,0,9.2,15.8H484.5a10.6,10.6,0,0,0,9.1-15.8ZM411.4,334.4l-.6,54.1H392l-.4-54.1Zm-10,101.2c-8.9,0-14.8-6.4-14.8-15s6.1-15,14.8-15,14.5,6.3,14.7,15S410.3,435.6,401.4,435.6Z"/>
      <path id="circle3" d="M352.6,244.1a15,15,0,1,0,15-15A15,15,0,0,0,352.6,244.1Z"/>
      <circle id="circle2" cx="56.1" cy="243.6" r="15"/>
      <circle id="circle1" cx="56.1" cy="353.6" r="15"/>
      <rect id="middle-ray" x="207.6" y="48" width="15.6" height="73.81" transform="translate(-0.3 0.8) rotate(-0.2)"/>
      <rect id="right-ray" x="355.2" y="153.1" width="35.7" height="15.57" transform="translate(-2.7 315.5) rotate(-45.7)"/>
      <rect id="middle-ray2" x="275.9" y="109.2" width="56.7" height="15.57" transform="translate(84.7 358) rotate(-68.7)"/>
      <rect id="left-ray" x="50.3" y="143.7" width="15.6" height="35.7" transform="translate(-96.3 86.5) rotate(-44.3)"/>
      <rect id="middle-ray1" x="119.1" y="89.3" width="15.6" height="56.74" transform="translate(-34.1 54.1) rotate(-21.3)"/>
      <path id="dollar-sign-2" data-name="dollar-sign" d="M156.7,300.3a59.5,59.5,0,1,0,59.5-59.5A59.5,59.5,0,0,0,156.7,300.3Zm77.5-27.8L231.5,283a30.5,30.5,0,0,0-13.3-3.2c-6,0-7.9,2.6-7.9,5.2s3.2,5,11.1,8c11,3.8,15.4,8.9,15.4,17.2s-5.8,15.3-16.5,17.1v9.4h-9V328c-6.2-.3-12.2-2-15.7-4l2.8-10.8a32.5,32.5,0,0,0,15.3,4c5.3,0,8.9-2,8.9-5.7s-3-5.7-9.8-8c-9.9-3.3-16.6-8-16.6-16.9s5.7-14.5,15.6-16.5v-8.7h9v8.1A34.9,34.9,0,0,1,234.2,272.5Z"/>
      <path id="outline" d="M318.7,386.4H56c-16.1,0-29.2-11.8-29.2-26.3V240.4c0-14.5,13.1-26.3,29.2-26.3H371.7c16,0,29.1,11.8,29.1,26.3v29H402a26.8,26.8,0,0,1,20.6,9.5V240.4c0-25.4-22.8-46-50.9-46H56c-28.1,0-51,20.6-51,46V360.1c0,25.4,22.9,46.1,51,46.1H307.3Z"/>
      <path id="bottom-line" d="M95.4,437.3H291a27.1,27.1,0,0,1,3.3-9.4l3.5-6.2H95.4Z"/>
    </g>
  </g>
</svg>
