<svg
  xmlns="http://www.w3.org/2000/svg"
  viewBox="0 0 500 500"
  width="500"
  height="500"
  fill="#000000"
>
  <path
    data-name="dollar-sign"
    d="M239.1 341.1c-23.2 0-44.6-6.7-60.9-14.7a5.3 5.3 0 0 0-7.5 3.5l-9.4 36.5a5.5 5.5 0 0 0 2.9 6.2c14.5 7.3 36.4 13.2 59.4 14.9a5.4 5.4 0 0 1 5.1 5.3v27.8a5.4 5.4 0 0 0 5.4 5.4h28.6a5.4 5.4 0 0 0 5.4-5.4v-31.2a5.4 5.4 0 0 1 4.4-5.3c43.5-9.2 67.2-38.9 67.2-73.6s-19.3-58.3-67.2-75.2c-34.2-12.9-48.3-21.4-48.3-34.6 0-11.3 8.5-22.6 34.7-22.6 24.2 0 41.1 6.5 52.1 11.2a5.4 5.4 0 0 0 7.4-3.6l8.9-35a5.3 5.3 0 0 0-3.1-6.3c-11.9-5.2-27.5-9.6-49-11a5.5 5.5 0 0 1-5.1-5.4v-24.9a5.4 5.4 0 0 0-5.4-5.4h-28.6a5.4 5.4 0 0 0-5.4 5.4v28.4a5.5 5.5 0 0 1-4.3 5.3c-40.4 9.4-63.7 36.5-63.7 70.7 0 39 29.4 59.2 72.4 73.7 29.8 10 42.6 19.6 42.6 34.9s-15.6 25-38.6 25z"
  />
  <path d="M451.3 495H48.7a5.4 5.4 0 0 1-5.4-5.4V10.4a5.4 5.4 0 0 1 9-4l47.2 42.7a5.4 5.4 0 0 0 7.3 0l41.7-37.7a5.5 5.5 0 0 1 7.2 0l41.7 37.7a5.4 5.4 0 0 0 7.3 0l41.7-37.7a5.5 5.5 0 0 1 7.2 0l41.7 37.7a5.4 5.4 0 0 0 7.3 0l41.7-37.7a5.5 5.5 0 0 1 7.2 0l41.7 37.7a5.4 5.4 0 0 0 7.3 0l47.2-42.7a5.4 5.4 0 0 1 9 4v479.2a5.4 5.4 0 0 1-5.4 5.4zM70.6 473.1h358.8a5.4 5.4 0 0 0 5.4-5.4v-408a5.4 5.4 0 0 0-9-4l-25.3 22.9a5.4 5.4 0 0 1-7.3 0l-41.7-37.7a5.5 5.5 0 0 0-7.2 0l-41.7 37.7a5.4 5.4 0 0 1-7.3 0l-41.7-37.7a5.5 5.5 0 0 0-7.2 0l-41.7 37.7a5.4 5.4 0 0 1-7.3 0l-41.7-37.7a5.5 5.5 0 0 0-7.2 0l-41.7 37.7a5.4 5.4 0 0 1-7.3 0L74.2 55.7a5.4 5.4 0 0 0-9 4v408a5.4 5.4 0 0 0 5.4 5.4z" />
</svg>
