<svg
  xmlns="http://www.w3.org/2000/svg"
  viewBox="0 0 500 500"
  width="500"
  height="500"
  fill="#ffffff"
>
  <path d="M435.2 193.4H64.8c-33 0-59.8 24.2-59.8 54v140.4c0 29.8 26.8 54 59.8 54h370.4c33 0 59.8-24.2 59.8-54V247.4c0-29.8-26.8-54-59.8-54zm34.2 194.4c0 17.1-15.3 30.9-34.2 30.9H64.8c-18.9 0-34.2-13.8-34.2-30.9V247.4c0-17 15.3-30.9 34.2-30.9h370.4c18.9 0 34.2 13.9 34.2 30.9z" />
  <path d="M430.4 234.1a17.6 17.6 0 1 0 17.6 17.6 17.6 17.6 0 0 0-17.6-17.6z" />
  <path d="M430.4 363.1a17.6 17.6 0 1 0 17.6 17.6 17.6 17.6 0 0 0-17.6-17.6z" />
  <path d="M65 233.6a17.6 17.6 0 1 0 17.6 17.6A17.6 17.6 0 0 0 65 233.6z" />
  <path d="M65 362.6a17.6 17.6 0 1 0 17.6 17.6A17.6 17.6 0 0 0 65 362.6z" />
  <rect
    x="242.7"
    y="21.7"
    width="18.3"
    height="86.6"
    transform="rotate(-.2 286.379 57.796)"
  />
  <rect
    x="415.8"
    y="144.9"
    width="41.9"
    height="18.27"
    transform="rotate(-45.7 436.841 154.04)"
  />
  <rect
    x="322.8"
    y="93.5"
    width="66.6"
    height="18.27"
    transform="rotate(-68.7 356.118 102.564)"
  />
  <rect
    x="58.2"
    y="133.9"
    width="18.3"
    height="41.89"
    transform="rotate(-44.3 67.273 154.817)"
  />
  <rect
    x="138.9"
    y="70.1"
    width="18.3"
    height="66.57"
    transform="rotate(-21.3 147.91 103.52)"
  />
  <rect x="111.1" y="460.1" width="281.4" height="18.27" />
  <path
    data-name="dollar-sign"
    d="M252.8 247.8a69.8 69.8 0 1 0 69.8 69.8 69.9 69.9 0 0 0-69.8-69.8zm4.9 101.5v11.1H247v-10.3c-7.2-.3-14.3-2.3-18.4-4.7l3.3-12.6a39.1 39.1 0 0 0 18 4.7c6.1 0 10.4-2.4 10.4-6.7s-3.5-6.7-11.5-9.4c-11.6-3.9-19.5-9.3-19.5-19.8s6.7-17.1 18.3-19.3V272h10.6v9.5c7.3.3 12.1 1.8 15.7 3.6l-3.1 12.2a35.7 35.7 0 0 0-15.6-3.7c-7.1 0-9.4 3.1-9.4 6.1s3.8 5.9 13.1 9.3c12.8 4.6 18 10.5 18 20.3s-6.8 17.9-19.2 20z"
  />
</svg>
