<svg
  xmlns="http://www.w3.org/2000/svg"
  viewBox="0 0 500 500"
  width="500"
  height="500"
  fill="#000000"
>
  <path d="M493.6 436.2l-83.7-144.9a10.3 10.3 0 0 0-9.1-5.2 10.3 10.3 0 0 0-9.1 5.2L308 436.2a10.6 10.6 0 0 0 9.2 15.8h167.3a10.6 10.6 0 0 0 9.1-15.8zm-82.2-101.8l-.6 54.1H392l-.4-54.1zm-10 101.2c-8.9 0-14.8-6.4-14.8-15s6.1-15 14.8-15 14.5 6.3 14.7 15-5.8 15-14.7 15z" />
  <path d="M352.6 244.1a15 15 0 1 0 15-15 15 15 0 0 0-15 15z" />
  <circle cx="56.1" cy="243.6" r="15" />
  <circle cx="56.1" cy="353.6" r="15" />
  <rect
    x="207.6"
    y="48"
    width="15.6"
    height="73.81"
    transform="rotate(-.2 229.033 86.344)"
  />
  <rect
    x="355.2"
    y="153.1"
    width="35.7"
    height="15.57"
    transform="rotate(-45.7 373.008 160.954)"
  />
  <rect
    x="275.9"
    y="109.2"
    width="56.7"
    height="15.57"
    transform="rotate(-68.7 304.263 117.033)"
  />
  <rect
    x="50.3"
    y="143.7"
    width="15.6"
    height="35.7"
    transform="rotate(-44.3 58.096 161.533)"
  />
  <rect
    x="119.1"
    y="89.3"
    width="15.6"
    height="56.74"
    transform="rotate(-21.3 126.796 117.718)"
  />
  <path
    data-name="dollar-sign"
    d="M156.7 300.3a59.5 59.5 0 1 0 59.5-59.5 59.5 59.5 0 0 0-59.5 59.5zm77.5-27.8l-2.7 10.5a30.5 30.5 0 0 0-13.3-3.2c-6 0-7.9 2.6-7.9 5.2s3.2 5 11.1 8c11 3.8 15.4 8.9 15.4 17.2s-5.8 15.3-16.5 17.1v9.4h-9V328c-6.2-.3-12.2-2-15.7-4l2.8-10.8a32.5 32.5 0 0 0 15.3 4c5.3 0 8.9-2 8.9-5.7s-3-5.7-9.8-8c-9.9-3.3-16.6-8-16.6-16.9s5.7-14.5 15.6-16.5v-8.7h9v8.1a34.9 34.9 0 0 1 13.4 3z"
  />
  <path d="M318.7 386.4H56c-16.1 0-29.2-11.8-29.2-26.3V240.4c0-14.5 13.1-26.3 29.2-26.3h315.7c16 0 29.1 11.8 29.1 26.3v29h1.2a26.8 26.8 0 0 1 20.6 9.5v-38.5c0-25.4-22.8-46-50.9-46H56c-28.1 0-51 20.6-51 46v119.7c0 25.4 22.9 46.1 51 46.1h251.3z" />
  <path d="M95.4 437.3H291a27.1 27.1 0 0 1 3.3-9.4l3.5-6.2H95.4z" />
</svg>
