<svg xmlns="http://www.w3.org/2000/svg" viewBox="0 0 500 500">
  <g id="billing-estimated">
    <g id="billing-estimated-2" data-name="billing-estimated">
      <path id="circle4" d="M411.2,276.2a17.4,17.4,0,1,0,17.4-17.4A17.4,17.4,0,0,0,411.2,276.2Z"/>
      <path id="circle3" d="M428.6,386.5A17.4,17.4,0,1,0,446,403.9,17.4,17.4,0,0,0,428.6,386.5Z"/>
      <path id="outline" d="M291.7,229.1l11-10.9,2.3-2.3,11-11.1,103.2-103L405.9,88.6,297.3,197a95.5,95.5,0,0,0-10.6-15.9L392.6,75.3,379.4,62.1l-106,105.7a96.9,96.9,0,0,0-15.8-10.6L366.1,48.8,352.8,35.5l-103.1,103-11,11.1-2.4,2.3-10.9,10.9-8.7,55.7H66.6c-32.6,0-59.2,24-59.2,53.4V411c0,29.5,26.6,53.5,59.2,53.5H433.4c32.6,0,59.2-24,59.2-53.5V271.9c0-16.9-8.9-32-22.6-41.8l-17,17c8.5,5.6,14.2,14.6,14.2,24.8V411c0,16.9-15.2,30.6-33.8,30.6H66.6c-18.6,0-33.8-13.7-33.8-30.6V271.9c0-16.8,15.2-30.5,33.8-30.5h151m27.1-70.8a95.6,95.6,0,0,1,39.1,39.3l-31.3,4.9c-1.3-8.9-7.2-12-12.7-12.8Z"/>
      <path id="circle2" d="M66.8,258.3a17.4,17.4,0,1,0,17.4,17.4A17.4,17.4,0,0,0,66.8,258.3Z"/>
      <path id="circle1" d="M66.8,386a17.4,17.4,0,1,0,17.4,17.4A17.4,17.4,0,0,0,66.8,386Z"/>
      <path id="dollar-sign-2" data-name="dollar-sign" d="M257.8,271.7a69.1,69.1,0,1,0,69.1,69A69.1,69.1,0,0,0,257.8,271.7Zm4.8,100.5v10.9H252.1V372.9c-7.2-.3-14.1-2.2-18.2-4.6l3.2-12.6a37.7,37.7,0,0,0,17.8,4.8c6.1,0,10.3-2.4,10.3-6.7s-3.4-6.6-11.3-9.3c-11.5-3.9-19.4-9.3-19.4-19.7s6.7-16.8,18.2-19V295.6h10.5V305c7.2.3,12,1.8,15.5,3.5l-3.1,12.2a35,35,0,0,0-15.4-3.7c-7,0-9.2,3-9.2,6s3.7,5.8,12.8,9.2c12.8,4.6,17.9,10.5,17.9,20.1S275,370,262.6,372.2Z"/>
    </g>
  </g>
</svg>
