<svg xmlns="http://www.w3.org/2000/svg" viewBox="0 0 500 500">
  <g id="billing">
    <path id="dollar-sign-2" data-name="dollar-sign" d="M239.1,341.1c-23.2,0-44.6-6.7-60.9-14.7a5.3,5.3,0,0,0-7.5,3.5l-9.4,36.5a5.5,5.5,0,0,0,2.9,6.2c14.5,7.3,36.4,13.2,59.4,14.9a5.4,5.4,0,0,1,5.1,5.3v27.8a5.4,5.4,0,0,0,5.4,5.4h28.6a5.4,5.4,0,0,0,5.4-5.4V389.4a5.4,5.4,0,0,1,4.4-5.3c43.5-9.2,67.2-38.9,67.2-73.6s-19.3-58.3-67.2-75.2c-34.2-12.9-48.3-21.4-48.3-34.6,0-11.3,8.5-22.6,34.7-22.6,24.2,0,41.1,6.5,52.1,11.2a5.4,5.4,0,0,0,7.4-3.6l8.9-35a5.3,5.3,0,0,0-3.1-6.3c-11.9-5.2-27.5-9.6-49-11a5.5,5.5,0,0,1-5.1-5.4V103.1a5.4,5.4,0,0,0-5.4-5.4H236.1a5.4,5.4,0,0,0-5.4,5.4v28.4a5.5,5.5,0,0,1-4.3,5.3c-40.4,9.4-63.7,36.5-63.7,70.7,0,39,29.4,59.2,72.4,73.7,29.8,10,42.6,19.6,42.6,34.9S262.1,341.1,239.1,341.1Z"/>
    <path id="outline" d="M451.3,495H48.7a5.4,5.4,0,0,1-5.4-5.4V10.4a5.4,5.4,0,0,1,9-4L99.5,49.1a5.4,5.4,0,0,0,7.3,0l41.7-37.7a5.5,5.5,0,0,1,7.2,0l41.7,37.7a5.4,5.4,0,0,0,7.3,0l41.7-37.7a5.5,5.5,0,0,1,7.2,0l41.7,37.7a5.4,5.4,0,0,0,7.3,0l41.7-37.7a5.5,5.5,0,0,1,7.2,0l41.7,37.7a5.4,5.4,0,0,0,7.3,0L447.7,6.4a5.4,5.4,0,0,1,9,4V489.6A5.4,5.4,0,0,1,451.3,495ZM70.6,473.1H429.4a5.4,5.4,0,0,0,5.4-5.4V59.7a5.4,5.4,0,0,0-9-4L400.5,78.6a5.4,5.4,0,0,1-7.3,0L351.5,40.9a5.5,5.5,0,0,0-7.2,0L302.6,78.6a5.4,5.4,0,0,1-7.3,0L253.6,40.9a5.5,5.5,0,0,0-7.2,0L204.7,78.6a5.4,5.4,0,0,1-7.3,0L155.7,40.9a5.5,5.5,0,0,0-7.2,0L106.8,78.6a5.4,5.4,0,0,1-7.3,0L74.2,55.7a5.4,5.4,0,0,0-9,4v408A5.4,5.4,0,0,0,70.6,473.1Z"/>
  </g>
</svg>
