<svg
  xmlns="http://www.w3.org/2000/svg"
  viewBox="0 0 500 500"
  width="500"
  height="500"
  fill="#ffffff"
>
  <path d="M143.1 235.8V324h267.4v-88.2m-252.3 73.1v-58h237.2v58z" />
  <path d="M437.9 177.5h-170c-4.8-19.5-2.4-43-1.5-53.3V69.4h37.7V54.3h-37.7V5H126.7c-8.3 0-18.1 10.3-18.1 59.6 0 44.9 8.2 57.4 15.9 59.3-.8 11-1.4 33 3.1 53.6H97.7V495h343.1V177.5zm-297.3-51.7h107.9c-1.1 14.7-1.7 44.9 7.5 68H150.6c-10.6-18.5-11.2-50.1-10-68zm-15.7-61.2c0-23 2.9-38.1 5-43.3h120.2v71.4H126.6a208.7 208.7 0 0 1-1.7-28.1zm56.9 400.2h-38.7v-45.4h38.7zm0-89.8h-38.7v-15.1h38.7zm30.3 89.8h-15.2v-15.2h15.2zm0-30.3h-15.2v-15.1h15.2zm0-30.2h-15.2v-14.2h15.2zm0-29.3h-15.2v-15.1h15.2zm30.2 89.8h-15.1v-15.2h15.1zm0-30.3h-15.1v-15.1h15.1zm0-30.2h-15.1v-14.2h15.1zm0-29.3h-15.1v-15.1h15.1zm30.3 89.8h-15.1v-15.2h15.1zm0-30.3h-15.1v-15.1h15.1zm0-30.2h-15.1v-14.2h15.1zm0-29.3h-15.1v-15.1h15.1zm31.2 89.8h-16.1v-15.2h16.1zm0-30.3h-16.1v-15.1h16.1zm0-30.2h-16.1v-14.2h16.1zm0-29.3h-16.1v-15.1h16.1zm45.3 89.8H334v-45.4h15.1zm0-60.5H334v-15.1h15.1zm0-30.3H334v-14.1h15.1zm31.2 60.5v30.3h-16.1v-45.4h16.1zm0-30.2h-16.1v-15.1h16.1zm0-30.3h-16.1v-14.1h16.1zm30.2 90.8h-15.1v-15.2h15.1zm0-30.3h-15.1v-15.1h15.1zm0-30.2h-15.1v-15.1h15.1zm0-30.3h-15.1v-14.1h15.1zm10.5-36.8H127.9V192.6h4.2c3.2 8.4 7.7 15.9 13.9 21.5l2.8 2.4h125a8.7 8.7 0 0 0 8.1-5.5l1.9-5.6-4-3.8a38.5 38.5 0 0 1-6.5-9h152.4v144.6z" />
  <path d="M59.2 54.3v166.9h.1c0 10.9 6 26.6 22 29.2v-15.6c-6.4-2.9-7-11.6-7-13.6V69.4h20V54.3H59.2z" />
</svg>
