<svg
  xmlns="http://www.w3.org/2000/svg"
  viewBox="0 0 500 500"
  width="500"
  height="500"
  fill="#000000"
>
  <path d="M396.8 254.9L170.4 28.5h-.1A81.1 81.1 0 0 0 55.7 143.2l226.4 226.4a23.9 23.9 0 0 0 24.4 5.8l-9-9s4.5-100.7 96.1-96.1l-67.3 67.3 11 11 59.5-59.5a24.3 24.3 0 0 0 0-34.2zm-274-169.6c-23 21.1-24.7 58-24.7 58.4l-18.8-.7c.1-1.8 1.9-44.9 30.7-71.4 15.6-14.3 35.7-21 60.1-19.8l-1 18.8c-19-.9-34.6 4-46.3 14.7zm82.8 82.4c-23.1 21.2-24.6 57.9-24.6 58.2l-18.7-.6c0-1.8 1.8-45 30.6-71.5 15.6-14.3 35.9-20.9 60.1-19.7l-.9 18.7c-19.1-.9-34.7 4.1-46.5 14.9zM335 235.1c-19-.9-34.6 4-46.3 14.7-23.1 21.1-24.7 58-24.7 58.4l-18.8-.7c.1-1.8 1.9-44.9 30.7-71.4 15.5-14.3 35.8-20.9 60.1-19.8z" />
  <rect
    x="425.8"
    y="474"
    width="17.4"
    height="17.42"
    transform="rotate(45 434.559 482.7)"
  />
  <rect
    x="355"
    y="369"
    width="45.6"
    height="45.58"
    transform="rotate(45 377.813 391.795)"
  />
  <rect
    x="432"
    y="406.2"
    width="29.7"
    height="29.67"
    transform="rotate(45 446.91 421.016)"
  />
</svg>
