<svg xmlns="http://www.w3.org/2000/svg" viewBox="0 0 500 500">
  <g id="breadcrumb">
    <g id="breadcrumbIcon">
      <path id="bread" d="M396.8,254.9,170.4,28.5h-.1A81.1,81.1,0,0,0,55.7,143.2h0L282.1,369.6a23.9,23.9,0,0,0,24.4,5.8l-9-9s4.5-100.7,96.1-96.1l-67.3,67.3,11,11,59.5-59.5A24.3,24.3,0,0,0,396.8,254.9ZM122.8,85.3c-23,21.1-24.7,58-24.7,58.4L79.3,143c.1-1.8,1.9-44.9,30.7-71.4,15.6-14.3,35.7-21,60.1-19.8l-1,18.8C150.1,69.7,134.5,74.6,122.8,85.3Zm82.8,82.4c-23.1,21.2-24.6,57.9-24.6,58.2l-18.7-.6c0-1.8,1.8-45,30.6-71.5,15.6-14.3,35.9-20.9,60.1-19.7l-.9,18.7C233,151.9,217.4,156.9,205.6,167.7ZM335,235.1c-19-.9-34.6,4-46.3,14.7-23.1,21.1-24.7,58-24.7,58.4l-18.8-.7c.1-1.8,1.9-44.9,30.7-71.4,15.5-14.3,35.8-20.9,60.1-19.8Z"/>
      <rect id="smallCrumb" x="425.8" y="474" width="17.4" height="17.42" transform="translate(468.6 -165.9) rotate(45)"/>
      <rect id="medCrumb" x="355" y="369" width="45.6" height="45.58" transform="translate(387.7 -152.4) rotate(45)"/>
      <rect id="largeCrumb" x="432" y="406.2" width="29.7" height="29.67" transform="translate(428.6 -192.7) rotate(45)"/>
    </g>
  </g>
</svg>
