<svg
  xmlns="http://www.w3.org/2000/svg"
  viewBox="0 0 500 500"
  width="500"
  height="500"
  fill="#000000"
>
  <path d="M212.8 225.6H5v-8.2c0-110 89.5-199.6 199.5-199.6h8.3zM21.7 209.1h174.5V34.6c-94.3 4.2-170.3 80.2-174.5 174.5z" />
  <path d="M400.2 292.5a94.9 94.9 0 1 0 94.8 94.8 94.8 94.8 0 0 0-94.8-94.8zm-7.2 43c-21.4 0-41.9 8.8-43.1 8.6s-.6-1.1-.6-1.1 21-18.9 43.7-19.9v-2.7a.4.4 0 0 1 .4-.4h13.7a.4.4 0 0 1 .4.4v2.6c23.4.3 43.5 20 43.5 20s.7.9-.5 1.1-21.2-9.1-43.1-8.6m1.5 5.7v111.9h-17.3v-6.7h.1a1.3 1.3 0 0 1-.1-.6V341.2" />
  <path d="M283.3 384.3a115.1 115.1 0 0 1 115-115 114 114 0 0 1 44.2 8.9 208.2 208.2 0 0 0 2.1-28.6c0-113.8-92.3-206-206-206v206H32.5c0 113.7 92.3 206 206.1 206a206.1 206.1 0 0 0 62.7-9.7 114 114 0 0 1-18-61.6z" />
</svg>
