<svg
  xmlns="http://www.w3.org/2000/svg"
  viewBox="0 0 500 500"
  width="500"
  height="500"
  fill="#ffffff"
>
  <g data-name="Layer 12">
    <path d="M134.76 198.09h.71a130.63 130.63 0 0 0 229.06 0h.9l4.82-11.34a129.81 129.81 0 0 0 10.39-50.86v-.64a129.79 129.79 0 0 0-10.39-51.12l-5-11.33h-.71a130.63 130.63 0 0 0-229.06 0h-.9l-4.82 11.33a129.74 129.74 0 0 0-10.39 50.69v.82a129.75 129.75 0 0 0 10.39 51.11zm21.85-63.58a92.76 92.76 0 0 1 5.47-30.81l2.11-4.91a93.39 93.39 0 0 1 171.62 0l1.74 3.89a93 93 0 0 1 5.84 32v1.54a93 93 0 0 1-5.47 31l-2.11 4.92a93.39 93.39 0 0 1-171.62 0l-1.74-3.9a92.75 92.75 0 0 1-5.84-31.84v-1.85z" />
    <path d="M406.68 390.32C348.91 341 257 340.89 250 341c-6.94-.09-98.92 0-156.69 49.29-21.06 18-38.88 49.38-53 93.3L75.82 495c11.77-36.71 26.19-63.11 41.69-76.35 48-41 131.42-40.56 132.2-40.36h.55c.86-.07 84.25-.61 132.23 40.36C398 431.89 412.4 458.29 424.18 495l35.47-11.38c-14.08-43.92-31.91-75.31-52.97-93.3z" />
  </g>
</svg>
