<svg
  xmlns="http://www.w3.org/2000/svg"
  viewBox="0 0 500 500"
  width="500"
  height="500"
  fill="#000000"
>
  <path d="M240.94 20.62a92.8 92.8 0 0 0-92.8 92.8h185.59a92.79 92.79 0 0 0-92.79-92.8z" />
  <path d="M476.56 246.26H383.3v-88.47l57.54-57.55a18.43 18.43 0 0 0-26.07-26.07l-70.43 70.43h-206.8L67.1 74.17A18.43 18.43 0 0 0 41 100.24l57.54 57.55v88.47h-75.1a18.44 18.44 0 0 0 0 36.88h75.13v24.15a141.71 141.71 0 0 0 16.52 66.56L41 447.9A18.44 18.44 0 1 0 67.1 474l69.68-69.68a142 142 0 0 0 85.72 44.12V184.1h36.88v264.32a142 142 0 0 0 85.71-44.12l69.68 69.7a18.44 18.44 0 0 0 26.07-26.08l-74.06-74a141.71 141.71 0 0 0 16.52-66.56v-24.22h93.26a18.44 18.44 0 0 0 0-36.88z" />
</svg>
