<svg xmlns="http://www.w3.org/2000/svg" viewBox="0 0 500 500">
  <g id="bug">
    <path id="bug-head" d="M240.94,20.62a92.8,92.8,0,0,0-92.8,92.8H333.73A92.79,92.79,0,0,0,240.94,20.62Z"/>
    <path id="bug-body" d="M476.56,246.26H383.3V157.79l57.54-57.55a18.43,18.43,0,0,0-26.07-26.07L344.34,144.6H137.54L67.1,74.17A18.43,18.43,0,0,0,41,100.24l57.54,57.55v88.47H23.44a18.44,18.44,0,0,0,0,36.88H98.57v24.15a141.71,141.71,0,0,0,16.52,66.56L41,447.9A18.44,18.44,0,1,0,67.1,474l69.68-69.68a142,142,0,0,0,85.72,44.12V184.1h36.88V448.42a142,142,0,0,0,85.71-44.12L414.77,474a18.44,18.44,0,0,0,26.07-26.08l-74.06-74a141.71,141.71,0,0,0,16.52-66.56V283.14h93.26a18.44,18.44,0,0,0,0-36.88Z"/>
  </g>
</svg>
