<svg xmlns="http://www.w3.org/2000/svg" viewBox="0 0 500 500">
  <g id="calendar-date-15">
    <path id="outline" d="M382.5,47.2H365.8V5H341.4V47.2H158.6V5H134.2V47.2H117.5a91.5,91.5,0,0,0-91.4,91.4v265A91.5,91.5,0,0,0,117.5,495h265a91.5,91.5,0,0,0,91.4-91.4v-265A91.5,91.5,0,0,0,382.5,47.2Zm67,356.4a67.1,67.1,0,0,1-67,67h-265a67.1,67.1,0,0,1-67-67v-265c0-2.2.1-4.3.3-6.4H449.2c.2,2.1.3,4.2.3,6.4Z"/>
    <polygon id="_1" data-name="1" points="121.9 215.7 127.3 236.9 163.1 217.6 163.7 217.6 163.7 397.3 190.6 397.3 190.6 191.6 166.9 191.6 121.9 215.7"/>
    <path id="_5" data-name="5" d="M363,277.7c-12.7-7.6-28.5-11.1-44.3-11.1a102.2,102.2,0,0,0-16.8,1.3l7.9-52.9h78.5V191.6H289.9l-13.3,98.7c7.6-.9,16.8-2.2,28.5-2.2,41.1,0,58.8,19,59.2,45.6s-22.5,44.6-48.8,44.6c-18.6,0-35.4-6.3-43.9-11.4l-7,21.2c9.8,6.3,28.8,12.6,51.3,12.6,44.6,0,76.5-30,76.5-70.2C392.4,304.6,379.1,286.9,363,277.7Z"/>
  </g>
</svg>
