<svg xmlns="http://www.w3.org/2000/svg" viewBox="0 0 500 500">
  <g id="calendar-date-5">
    <path id="outline" d="M382.5,47.2H365.8V5H341.4V47.2H158.6V5H134.2V47.2H117.5a91.5,91.5,0,0,0-91.4,91.4v265A91.5,91.5,0,0,0,117.5,495h265a91.5,91.5,0,0,0,91.4-91.4v-265A91.5,91.5,0,0,0,382.5,47.2Zm67,356.4a67.1,67.1,0,0,1-67,67h-265a67.1,67.1,0,0,1-67-67v-265c0-2.2.1-4.3.3-6.4H449.2c.2,2.1.3,4.2.3,6.4Z"/>
    <path id="_5" data-name="5" d="M280.5,277.7c-12.6-7.6-28.4-11.1-44.3-11.1a100.8,100.8,0,0,0-16.7,1.3l7.9-52.9h78.4V191.6H207.5l-13.3,98.7c7.6-.9,16.7-2.2,28.4-2.2,41.2,0,58.9,19,59.2,45.6s-22.5,44.6-48.7,44.6c-18.7,0-35.4-6.3-44-11.4l-6.9,21.2c9.8,6.3,28.7,12.6,51.2,12.6,44.6,0,76.6-30,76.6-70.2C310,304.6,296.7,286.9,280.5,277.7Z"/>
  </g>
</svg>
