<svg
  xmlns="http://www.w3.org/2000/svg"
  viewBox="0 0 500 500"
  width="500"
  height="500"
  fill="#ffffff"
>
  <path d="M382.5 47.2h-16.7V5h-24.4v42.2H158.6V5h-24.4v42.2h-16.7a91.5 91.5 0 0 0-91.4 91.4v265a91.5 91.5 0 0 0 91.4 91.4h265a91.5 91.5 0 0 0 91.4-91.4v-265a91.5 91.5 0 0 0-91.4-91.4zm67 356.4a67.1 67.1 0 0 1-67 67h-265a67.1 67.1 0 0 1-67-67v-265c0-2.2.1-4.3.3-6.4h398.4c.2 2.1.3 4.2.3 6.4z" />
  <polygon
    data-name="1"
    points="121.9 215.7 127.3 236.9 163.1 217.6 163.7 217.6 163.7 397.3 190.6 397.3 190.6 191.6 166.9 191.6 121.9 215.7"
  />
  <path
    data-name="0"
    d="M334.2 188.2c-41.8 0-71.5 37.9-71.5 106.9s27.8 105.6 68 105.6c45.6 0 71.5-38.5 71.5-108.5 0-65.4-24.7-104-68-104zm-1.9 191c-25.3 0-41.8-30.3-41.8-83.8 0-56 17.8-85.7 42.1-85.7 28.8 0 41.8 33.2 41.8 83.8 0 52.5-13.6 85.7-42.1 85.7z"
  />
</svg>
