<svg
  xmlns="http://www.w3.org/2000/svg"
  viewBox="0 0 500 500"
  width="500"
  height="500"
  fill="#ffffff"
>
  <path d="M382.5 47.2h-16.7V5h-24.4v42.2H158.6V5h-24.4v42.2h-16.7a91.5 91.5 0 0 0-91.4 91.4v265a91.5 91.5 0 0 0 91.4 91.4h265a91.5 91.5 0 0 0 91.4-91.4v-265a91.5 91.5 0 0 0-91.4-91.4zm67 356.4a67.1 67.1 0 0 1-67 67h-265a67.1 67.1 0 0 1-67-67v-265c0-2.2.1-4.3.3-6.4h398.4c.2 2.1.3 4.2.3 6.4z" />
  <path
    data-name="4"
    d="M295.4 191.6h-30.1l-91.7 131.3v18.4h95.5v56h26.3v-56h28.8v-21.9h-28.8zm-26.3 59.2v68.6h-67.3v-.6l50.3-69.9c5.7-9.5 10.7-18.4 17-30.4h1c-.6 10.8-1 21.5-1 32.3z"
  />
</svg>
