<svg
  xmlns="http://www.w3.org/2000/svg"
  viewBox="0 0 500 500"
  width="500"
  height="500"
  fill="#ffffff"
>
  <path d="M382.5 47.2h-16.7V5h-24.4v42.2H158.6V5h-24.4v42.2h-16.7a91.5 91.5 0 0 0-91.4 91.4v265a91.5 91.5 0 0 0 91.4 91.4h265a91.5 91.5 0 0 0 91.4-91.4v-265a91.5 91.5 0 0 0-91.4-91.4zm67 356.4a67.1 67.1 0 0 1-67 67h-265a67.1 67.1 0 0 1-67-67v-265c0-2.2.1-4.3.3-6.4h398.4c.2 2.1.3 4.2.3 6.4z" />
  <polygon
    data-name="1"
    points="119 215.7 124.4 236.9 160.1 217.6 160.8 217.6 160.8 397.3 187.6 397.3 187.6 191.6 163.9 191.6 119 215.7"
  />
  <path
    data-name="8"
    d="M357.5 287.8v-.9c25.3-12.1 33.9-30.7 33.9-48.1 0-25.7-20-50.6-59.8-50.6-36.1 0-63.6 22.1-63.6 54.7 0 17.7 9.8 35.4 32.6 46.2l.3.9c-25.3 10.8-40.8 29.1-40.8 55.1 0 30 25.9 55.6 68.9 55.6 39.3 0 70-24 70-59.7 0-25-15.9-43.1-41.5-53.2zM294.2 241c0-17.7 12.7-32.9 35.8-32.9 25 0 34.8 17.1 34.8 33.5 0 18.7-13.6 31.3-31.3 37.4-23.8-6.4-39.3-17.4-39.3-38zm35.5 139.5c-26.3 0-42.1-18.3-41.2-39.2s13-35.5 37.1-42.4c27.8 7.9 45.2 19.9 45.2 44.9 0 21.2-16.1 36.7-41.1 36.7z"
  />
</svg>
