<svg xmlns="http://www.w3.org/2000/svg" viewBox="0 0 500 500">
  <g id="calendar-date-18">
    <path id="outline" d="M382.5,47.2H365.8V5H341.4V47.2H158.6V5H134.2V47.2H117.5a91.5,91.5,0,0,0-91.4,91.4v265A91.5,91.5,0,0,0,117.5,495h265a91.5,91.5,0,0,0,91.4-91.4v-265A91.5,91.5,0,0,0,382.5,47.2Zm67,356.4a67.1,67.1,0,0,1-67,67h-265a67.1,67.1,0,0,1-67-67v-265c0-2.2.1-4.3.3-6.4H449.2c.2,2.1.3,4.2.3,6.4Z"/>
    <polygon id="_1" data-name="1" points="119 215.7 124.4 236.9 160.1 217.6 160.8 217.6 160.8 397.3 187.6 397.3 187.6 191.6 163.9 191.6 119 215.7"/>
    <path id="_8" data-name="8" d="M357.5,287.8v-.9c25.3-12.1,33.9-30.7,33.9-48.1,0-25.7-20-50.6-59.8-50.6-36.1,0-63.6,22.1-63.6,54.7,0,17.7,9.8,35.4,32.6,46.2l.3.9c-25.3,10.8-40.8,29.1-40.8,55.1,0,30,25.9,55.6,68.9,55.6,39.3,0,70-24,70-59.7C399,316,383.1,297.9,357.5,287.8ZM294.2,241c0-17.7,12.7-32.9,35.8-32.9,25,0,34.8,17.1,34.8,33.5,0,18.7-13.6,31.3-31.3,37.4C309.7,272.6,294.2,261.6,294.2,241Zm35.5,139.5c-26.3,0-42.1-18.3-41.2-39.2s13-35.5,37.1-42.4c27.8,7.9,45.2,19.9,45.2,44.9C370.8,365,354.7,380.5,329.7,380.5Z"/>
  </g>
</svg>
