<svg xmlns="http://www.w3.org/2000/svg" viewBox="0 0 500 500">
  <g id="calendar-date-30">
    <path id="outline" d="M382.5,47.2H365.8V5H341.4V47.2H158.6V5H134.2V47.2H117.5a91.5,91.5,0,0,0-91.4,91.4v265A91.5,91.5,0,0,0,117.5,495h265a91.5,91.5,0,0,0,91.4-91.4v-265A91.5,91.5,0,0,0,382.5,47.2Zm67,356.4a67.1,67.1,0,0,1-67,67h-265a67.1,67.1,0,0,1-67-67v-265c0-2.2.1-4.3.3-6.4H449.2c.2,2.1.3,4.2.3,6.4Z"/>
    <path id="_3" data-name="3" d="M184.9,286.2v-.6c25.3-9.2,38-27.2,38-48.4,0-25-18.4-49-58.9-49-22.1,0-43,7.9-53.8,15.8l7.3,20.2c8.9-6.3,24.7-13.6,41.1-13.6,25.7,0,36.1,14.6,36.1,31,0,24.4-25.6,34.8-45.9,34.8H133.3v20.9h15.5c26.9,0,52.9,12.3,53.2,41.1.3,17.1-10.8,39.9-46.5,39.9-19.3,0-37.7-7.9-45.6-13l-7.6,21.5c10.1,6.7,30.4,13.9,53.5,13.9,49.3,0,75-28.7,75-61.6C230.8,310.3,210.2,291.3,184.9,286.2Z"/>
    <path id="_0" data-name="0" d="M334.2,188.2c-41.8,0-71.5,37.9-71.5,106.9s27.8,105.6,68,105.6c45.6,0,71.5-38.6,71.5-108.5C402.2,226.8,377.5,188.2,334.2,188.2Zm-1.9,191c-25.3,0-41.8-30.3-41.8-83.8,0-56,17.8-85.7,42.1-85.7,28.8,0,41.8,33.2,41.8,83.8C374.4,346,360.8,379.2,332.3,379.2Z"/>
  </g>
</svg>
