<svg xmlns="http://www.w3.org/2000/svg" viewBox="0 0 500 500">
  <g id="calendar-date-8">
    <path id="outline" d="M382.5,47.2H365.8V5H341.4V47.2H158.6V5H134.2V47.2H117.5a91.5,91.5,0,0,0-91.4,91.4v265A91.5,91.5,0,0,0,117.5,495h265a91.5,91.5,0,0,0,91.4-91.4v-265A91.5,91.5,0,0,0,382.5,47.2Zm67,356.4a67.1,67.1,0,0,1-67,67h-265a67.1,67.1,0,0,1-67-67v-265c0-2.2.1-4.3.3-6.4H449.2c.2,2.1.3,4.2.3,6.4Z"/>
    <path id="_8" data-name="8" d="M278,287.8v-.9c25.3-12.1,33.8-30.7,33.8-48.1,0-25.6-19.9-50.6-59.7-50.6-36.1,0-63.6,22.1-63.6,54.7,0,17.7,9.8,35.4,32.6,46.2l.3.9c-25.3,10.8-40.8,29.1-40.8,55.1,0,30,25.9,55.6,68.9,55.6,39.3,0,69.9-24,69.9-59.7C319.4,316,303.6,297.9,278,287.8ZM214.7,241c0-17.7,12.7-32.9,35.8-32.9,25,0,34.8,17.1,34.8,33.5,0,18.7-13.6,31.3-31.3,37.4C230.2,272.6,214.7,261.6,214.7,241Zm35.5,139.5c-26.3,0-42.1-18.3-41.2-39.2s13-35.5,37.1-42.4c27.8,7.9,45.2,19.9,45.2,44.9C291.3,365,275.2,380.5,250.2,380.5Z"/>
  </g>
</svg>
