<svg xmlns="http://www.w3.org/2000/svg" viewBox="0 0 500 500">
  <g id="calendar-date-26">
    <path id="outline" d="M382.5,47.2H365.8V5H341.4V47.2H158.6V5H134.2V47.2H117.5a91.5,91.5,0,0,0-91.4,91.4v265A91.5,91.5,0,0,0,117.5,495h265a91.5,91.5,0,0,0,91.4-91.4v-265A91.5,91.5,0,0,0,382.5,47.2Zm67,356.4a67.1,67.1,0,0,1-67,67h-265a67.1,67.1,0,0,1-67-67v-265c0-2.2.1-4.3.3-6.4H449.2c.2,2.1.3,4.2.3,6.4Z"/>
    <path id="_2" data-name="2" d="M139.2,373.5l16.5-15.1c43.3-41.8,70.9-72.5,70.9-110.5,0-29.4-18.7-59.7-63-59.7A90.3,90.3,0,0,0,105.4,209l8.8,19.7c9.5-8,25-17.5,43.7-17.5,30.7,0,40.8,19.3,40.8,40.2-.3,31-24,57.6-76.5,107.6l-21.9,21.2v17.1H231.6V374.2H139.2Z"/>
    <path id="_6" data-name="6" d="M338.2,261.9c-22.8,0-39.8,10.7-49.7,23.7h-.9c4.7-33.9,27.8-65.8,71.5-73.1a99.7,99.7,0,0,1,20.9-1.3V188.5a130.6,130.6,0,0,0-20.3,1.6c-25.9,3.1-48.7,13.6-65.8,30.3-20.2,20.3-34.8,52.2-34.8,92.7,0,53.5,28.8,87.6,72.8,87.6s68.3-34.8,68.3-72.4C400.2,288.1,374.6,261.9,338.2,261.9Zm-6.3,117.3c-29.1,0-44.6-25-45.2-58.8a23.3,23.3,0,0,1,3.1-12.3c7.6-14.9,23.1-25.4,39.9-25.4,25.6,0,42.4,17.8,42.4,47.2S355.9,379.2,331.9,379.2Z"/>
  </g>
</svg>
