<svg
  xmlns="http://www.w3.org/2000/svg"
  viewBox="0 0 500 500"
  width="500"
  height="500"
  fill="#ffffff"
>
  <rect x="105.9" y="159.8" width="51" height="47.04" />
  <rect x="227.5" y="159.8" width="51" height="47.04" />
  <rect x="348" y="159.8" width="51" height="47.04" />
  <rect x="105.9" y="254.9" width="51" height="47.04" />
  <rect x="227.5" y="254.9" width="51" height="47.04" />
  <rect x="348" y="254.9" width="51" height="47.04" />
  <rect x="105.9" y="350" width="51" height="47.04" />
  <rect x="227.5" y="350" width="51" height="47.04" />
  <rect x="348" y="350" width="51" height="47.04" />
  <path d="M414.7 57.9h-77.5V5h-20.6v52.9H180.4V5h-20.6v52.9H85.3a53.8 53.8 0 0 0-53.8 53.9v329.4A53.8 53.8 0 0 0 85.3 495h329.4a53.8 53.8 0 0 0 53.8-53.8V111.8a53.8 53.8 0 0 0-53.8-53.9zm.7 416.5H85.6A33.6 33.6 0 0 1 52 440.9V111.1a33.6 33.6 0 0 1 33.6-33.6h329.8a33.5 33.5 0 0 1 33.5 33.6v329.8a33.5 33.5 0 0 1-33.5 33.5z" />
</svg>
