<svg xmlns="http://www.w3.org/2000/svg" viewBox="0 0 500 500">
  <g id="calendar-date-2">
    <path id="outline" d="M382.5,47.2H365.8V5H341.4V47.2H158.6V5H134.2V47.2H117.5a91.5,91.5,0,0,0-91.4,91.4v265A91.5,91.5,0,0,0,117.5,495h265a91.5,91.5,0,0,0,91.4-91.4v-265A91.5,91.5,0,0,0,382.5,47.2Zm67,356.4a67.1,67.1,0,0,1-67,67h-265a67.1,67.1,0,0,1-67-67v-265c0-2.2.1-4.3.3-6.4H449.2c.2,2.1.3,4.2.3,6.4Z"/>
    <path id="_2" data-name="2" d="M222,373.5l16.5-15.1c43.3-41.8,70.8-72.5,70.8-110.5,0-29.4-18.6-59.7-62.9-59.7A90,90,0,0,0,188.2,209l8.8,19.7c9.5-8,25-17.4,43.7-17.4,30.7,0,40.8,19.2,40.8,40.1-.3,31-24.1,57.6-76.6,107.6l-21.8,21.2v17.1H314.4V374.2H222Z"/>
  </g>
</svg>
