<svg
  xmlns="http://www.w3.org/2000/svg"
  viewBox="0 0 500 500"
  width="500"
  height="500"
  fill="#ffffff"
>
  <path d="M382.5 47.2h-16.7V5h-24.4v42.2H158.6V5h-24.4v42.2h-16.7a91.5 91.5 0 0 0-91.4 91.4v265a91.5 91.5 0 0 0 91.4 91.4h265a91.5 91.5 0 0 0 91.4-91.4v-265a91.5 91.5 0 0 0-91.4-91.4zm67 356.4a67.1 67.1 0 0 1-67 67h-265a67.1 67.1 0 0 1-67-67v-265c0-2.2.1-4.3.3-6.4h398.4c.2 2.1.3 4.2.3 6.4z" />
  <polygon
    data-name="1"
    points="113.9 215.7 119.3 236.9 155 217.6 155.7 217.6 155.7 397.3 182.6 397.3 182.6 191.6 158.8 191.6 113.9 215.7"
  />
  <path
    data-name="3"
    d="M339.2 286.2v-.6c25.3-9.2 37.9-27.2 37.9-48.4 0-25-18.3-49-58.8-49-22.2 0-43 7.9-53.8 15.8l7.3 20.2c8.8-6.3 24.6-13.6 41.1-13.6 25.6 0 36.1 14.6 36.1 31 0 24.4-25.7 34.8-45.9 34.8h-15.5v20.9h15.5c26.9 0 52.8 12.3 53.1 41.1.4 17.1-10.7 39.9-46.5 39.9-19.3 0-37.6-7.9-45.5-13l-7.6 21.5c10.1 6.7 30.4 13.9 53.4 13.9 49.4 0 75-28.7 75-61.6 0-28.8-20.5-47.8-45.8-52.9z"
  />
</svg>
