<svg
  xmlns="http://www.w3.org/2000/svg"
  viewBox="0 0 500 500"
  width="500"
  height="500"
  fill="#ffffff"
>
  <path d="M460.4 335.2l-161.2-.2a34.6 34.6 0 0 0-34.5 34.5v36.1a34.4 34.4 0 0 0 34.4 34.5l161.2.2a34.5 34.5 0 0 0 34.5-34.5v-36.1a34.6 34.6 0 0 0-34.4-34.5zm-5.7 65l-108.5-.2v-24.8h108.5z" />
  <path d="M200.7 334.9l-161.1-.2A34.7 34.7 0 0 0 5 369.2v36.1a34.5 34.5 0 0 0 34.5 34.5l161.1.2a34.6 34.6 0 0 0 34.6-34.4v-36.2a34.6 34.6 0 0 0-34.5-34.5zm-5.7 65l-110.7-.2v-24.8H195z" />
  <path d="M460.5 197.7l-161.1-.2a34.7 34.7 0 0 0-34.6 34.5v36.1a34.6 34.6 0 0 0 34.5 34.5l161.1.2a34.7 34.7 0 0 0 34.6-34.5v-36.1a34.5 34.5 0 0 0-34.5-34.5zm-5.7 64.9H346.2v-24.9h108.7z" />
  <path d="M200.9 197.4l-161.2-.2a34.6 34.6 0 0 0-34.5 34.5v36.1a34.6 34.6 0 0 0 34.5 34.5l161.2.2a34.5 34.5 0 0 0 34.4-34.5v-36.1a34.4 34.4 0 0 0-34.4-34.5zm-5.7 64.9H86.6v-24.9h108.6z" />
  <path d="M299.1 165.1l161.2.2a34.6 34.6 0 0 0 34.5-34.5V94.7a34.6 34.6 0 0 0-34.5-34.5L299.2 60a34.5 34.5 0 0 0-34.5 34.4v36.2a34.4 34.4 0 0 0 34.4 34.5zm155.6-40H346.2v-24.9h108.5z" />
  <path d="M39.5 164.8l161.1.2a34.7 34.7 0 0 0 34.6-34.5V94.4a34.6 34.6 0 0 0-34.5-34.5l-161.1-.2A34.7 34.7 0 0 0 5 94.2v36.1a34.5 34.5 0 0 0 34.5 34.5zm155.5-40H86.6V99.9H195z" />
</svg>
