<svg
  xmlns="http://www.w3.org/2000/svg"
  viewBox="0 0 500 500"
  width="500"
  height="500"
  fill="#000000"
>
  <path d="M495 260.3L372.5 58.8h-245L5 260.3v148.6c0 17.9 15.2 32.3 34 32.3h422c18.8 0 34-14.4 34-32.3V260.3zm-166.7-3.4l-32.4 39.5h-91.8l-32.4-39.5H40L145 84h210l105 172.9z" />
  <path d="M345.1 128.1H154.9a10.4 10.4 0 1 0 0 20.7h190.2a10.4 10.4 0 1 0 0-20.7z" />
  <path d="M103.7 210a10.4 10.4 0 0 0 10.4 10.3h271.8a10.4 10.4 0 1 0 0-20.7H114.1a10.4 10.4 0 0 0-10.4 10.4z" />
</svg>
