<svg xmlns="http://www.w3.org/2000/svg" viewBox="0 0 500 500">
  <g id="category">
    <path id="box" d="M495,260.3,372.5,58.8h-245L5,260.3H5V408.9c0,17.9,15.2,32.3,34,32.3H461c18.8,0,34-14.4,34-32.3V260.3Zm-166.7-3.4-32.4,39.5H204.1l-32.4-39.5H40L145,84H355L460,256.9Z"/>
    <path id="line2" d="M345.1,128.1H154.9a10.4,10.4,0,1,0,0,20.7H345.1a10.4,10.4,0,1,0,0-20.7Z"/>
    <path id="line1" d="M103.7,210a10.4,10.4,0,0,0,10.4,10.3H385.9a10.4,10.4,0,1,0,0-20.7H114.1A10.4,10.4,0,0,0,103.7,210Z"/>
  </g>
</svg>
