<svg
  xmlns="http://www.w3.org/2000/svg"
  viewBox="0 0 500 500"
  width="500"
  height="500"
  fill="#000000"
>
  <path d="M425.6 103.6H69.5a9.9 9.9 0 1 1 0-19.7h356.1a9.9 9.9 0 1 1 0 19.7z" />
  <path d="M425.6 160.8H69.5a9.9 9.9 0 1 1 0-19.7h356.1a9.9 9.9 0 1 1 0 19.7z" />
  <path d="M247.6 218H69.5a9.9 9.9 0 1 1 0-19.7h178.1a9.9 9.9 0 1 1 0 19.7z" />
  <path d="M247.6 275.2H69.5a9.9 9.9 0 0 1 0-19.8h178.1a9.9 9.9 0 0 1 0 19.8z" />
  <path d="M247.6 332.4H69.5a9.9 9.9 0 0 1 0-19.8h178.1a9.9 9.9 0 1 1 0 19.8z" />
  <circle cx="358.9" cy="268.8" r="74.9" />
  <path d="M358.9 363.5a94.6 94.6 0 0 1-41.8-9.9v137.2l41.8-24.5 41.9 24.5V353.6a94.7 94.7 0 0 1-41.9 9.9z" />
  <path d="M438.7 9.2H61.3A56.4 56.4 0 0 0 5 65.5v280.7a56.4 56.4 0 0 0 56.3 56.3h236.4v-19.8H61.3a36.6 36.6 0 0 1-36.5-36.5V65.5A36.6 36.6 0 0 1 61.3 29h377.4a36.6 36.6 0 0 1 36.5 36.5v280.7a36.6 36.6 0 0 1-36.5 36.5h-17.8v19.8h17.8a56.4 56.4 0 0 0 56.3-56.3V65.5a56.4 56.4 0 0 0-56.3-56.3z" />
</svg>
