<svg xmlns="http://www.w3.org/2000/svg" viewBox="0 0 500 500">
  <g id="certifications">
    <path id="line1" d="M425.6,103.6H69.5a9.9,9.9,0,1,1,0-19.7H425.6a9.9,9.9,0,1,1,0,19.7Z"/>
    <path id="line2" d="M425.6,160.8H69.5a9.9,9.9,0,1,1,0-19.7H425.6a9.9,9.9,0,1,1,0,19.7Z"/>
    <path id="line3" d="M247.6,218H69.5a9.9,9.9,0,1,1,0-19.7H247.6a9.9,9.9,0,1,1,0,19.7Z"/>
    <path id="line4" d="M247.6,275.2H69.5a9.9,9.9,0,0,1,0-19.8H247.6a9.9,9.9,0,0,1,0,19.8Z"/>
    <path id="line5" d="M247.6,332.4H69.5a9.9,9.9,0,0,1,0-19.8H247.6a9.9,9.9,0,1,1,0,19.8Z"/>
    <circle id="ribbon-top" cx="358.9" cy="268.8" r="74.9"/>
    <path id="ribbon-bottom" d="M358.9,363.5a94.6,94.6,0,0,1-41.8-9.9V490.8l41.8-24.5,41.9,24.5V353.6A94.7,94.7,0,0,1,358.9,363.5Z"/>
    <path id="outline" d="M438.7,9.2H61.3A56.4,56.4,0,0,0,5,65.5V346.2a56.4,56.4,0,0,0,56.3,56.3H297.7V382.7H61.3a36.6,36.6,0,0,1-36.5-36.5V65.5A36.6,36.6,0,0,1,61.3,29H438.7a36.6,36.6,0,0,1,36.5,36.5V346.2a36.6,36.6,0,0,1-36.5,36.5H420.9v19.8h17.8A56.4,56.4,0,0,0,495,346.2V65.5A56.4,56.4,0,0,0,438.7,9.2Z"/>
  </g>
</svg>
