<svg xmlns="http://www.w3.org/2000/svg" viewBox="0 0 500 500">
  <g id="expense-cfda">
    <path id="bucket" d="M430.94,204.45c0-70.48-37.63-132-93.12-164.09A21,21,0,0,0,325.26,20.8a187.12,187.12,0,0,0-143.58-2.88,21,21,0,0,0-13.33,19c-58.11,30.63-98.2,92.86-99.19,164.76h-.1c0,.34,0,.68.06,1,0,.57-.06,1.13-.06,1.7v2l.87,3.12a38.84,38.84,0,0,0,1.26,4.51l66.42,238.34C139.47,480.38,195.07,495,250,495s110.53-14.62,112.39-42.59L427,220.72a38.79,38.79,0,0,0,2.87-10.3l1.11-4v-1.28c0-.24-.05-.47-.06-.71Zm-21.61,9.92c-12.09,24.81-73.91,49.3-158.78,49.3C166,263.67,99,235.38,89,208.53L88,204.73c-.06-.35-.09-.7-.13-1,1.59-15.05,27.41-34.6,83-45.69l-3.66-18.32c-33.11,6.61-58.93,16.79-75.79,29.25,10.35-50.23,42.2-92.24,85-115.06a21,21,0,0,0,20.72,3.18,145.12,145.12,0,0,1,111.27,2.24A20.85,20.85,0,0,0,329.19,57C369,80.25,398.41,120.5,408.46,168.25,392.55,156.61,369.82,147.47,339,141l-3.82,18.3c46.55,9.7,75.8,26.94,77,44.68A23,23,0,0,1,409.33,214.37ZM343.75,449.68V451c0,8.93-35.59,25.35-93.75,25.35S156.25,459.89,156.25,451v-1.28L99.61,246.43c32.58,21.64,88.07,35.92,150.94,35.92,63.45,0,117.21-12.67,149-32.71Z"/>
    <path id="expense-dollar-sign" d="M265.16,365.51c-17-6.42-24.05-10.62-24.05-17.24,0-5.61,4.21-11.22,17.24-11.22,14.43,0,23.65,4.61,28.86,6.82L293,321.21c-6.61-3.2-15.63-6-29.06-6.62V297H244.32v19c-21.45,4.21-33.88,18-33.88,35.68,0,19.44,14.63,29.47,36.08,36.69,14.83,5,21.25,9.81,21.25,17.43,0,8-7.82,12.43-19.25,12.43a70.76,70.76,0,0,1-33.27-8.82l-6,23.46c7.61,4.4,20.64,8,34.07,8.61v19H263V440.08c23.05-4,35.68-19.24,35.68-37.09C298.64,385,289,373.93,265.16,365.51Z"/>
    <path id="dollar-right" d="M288.31,94.22a9.34,9.34,0,1,0,9.33,9.34A9.34,9.34,0,0,0,288.31,94.22Z"/>
    <circle id="dollar-left" cx="219.92" cy="103.56" r="9.34"/>
    <path id="dollar-center" d="M253.08,166.16a37,37,0,1,0,37,37A37,37,0,0,0,253.08,166.16Z"/>
    <path id="dollar-outline" d="M199.45,103.45c0-10,7.32-18.14,16.39-18.14h74.48c9.07,0,16.39,8.12,16.39,18.14V241c4.24-.64,8.34-1.33,12.26-2.09V103.45c0-17.5-12.84-31.72-28.65-31.72H215.84c-15.81,0-28.65,14.22-28.65,31.72V240c3.93.67,8,1.28,12.26,1.83Z"/>
  </g>
</svg>
