<svg xmlns="http://www.w3.org/2000/svg" viewBox="0 0 500 500">
  <g id="checkbox-checked">
    <path id="check" d="M191.9,380.7a9.8,9.8,0,0,1-7-2.9L59.4,252.3a9.8,9.8,0,1,1,13.9-13.8L191.9,357,426.7,122.2A9.8,9.8,0,0,1,440.6,136L198.8,377.8A9.6,9.6,0,0,1,191.9,380.7Z"/>
    <path id="box" d="M411.1,495H88.9A83.9,83.9,0,0,1,5,411.1V88.9A83.9,83.9,0,0,1,88.9,5H411.1A83.9,83.9,0,0,1,495,88.9V411.1A83.9,83.9,0,0,1,411.1,495ZM88.9,24.6A64.3,64.3,0,0,0,24.6,88.9V411.1a64.3,64.3,0,0,0,64.3,64.3H411.1a64.3,64.3,0,0,0,64.3-64.3V88.9a64.3,64.3,0,0,0-64.3-64.3Z"/>
  </g>
</svg>
