<svg
  xmlns="http://www.w3.org/2000/svg"
  viewBox="0 0 500 500"
  width="500"
  height="500"
  fill="#ffffff"
>
  <path d="M191.9 380.7a9.8 9.8 0 0 1-7-2.9L59.4 252.3a9.8 9.8 0 1 1 13.9-13.8L191.9 357l234.8-234.8a9.8 9.8 0 0 1 13.9 13.8L198.8 377.8a9.6 9.6 0 0 1-6.9 2.9z" />
  <path d="M411.1 495H88.9A83.9 83.9 0 0 1 5 411.1V88.9A83.9 83.9 0 0 1 88.9 5h322.2A83.9 83.9 0 0 1 495 88.9v322.2a83.9 83.9 0 0 1-83.9 83.9zM88.9 24.6a64.3 64.3 0 0 0-64.3 64.3v322.2a64.3 64.3 0 0 0 64.3 64.3h322.2a64.3 64.3 0 0 0 64.3-64.3V88.9a64.3 64.3 0 0 0-64.3-64.3z" />
</svg>
