<svg
  xmlns="http://www.w3.org/2000/svg"
  viewBox="0 0 500 500"
  width="500"
  height="500"
  fill="#000000"
>
  <path d="M250 5C114.9 5 5 114.9 5 250s109.9 245 245 245 245-109.9 245-245S385.1 5 250 5zm0 457.9c-117.4 0-212.9-95.5-212.9-212.9S132.6 37.1 250 37.1 462.9 132.6 462.9 250 367.4 462.9 250 462.9z" />
  <path d="M367.7 210.5l-78.3-77.6a42.6 42.6 0 0 0 4.2-18.5 43.6 43.6 0 0 0-87.2 0 42.6 42.6 0 0 0 4.2 18.5l-78.3 77.6a42.6 42.6 0 0 0-33 41.4v79.4a42.6 42.6 0 0 0 42.5 42.5h216.4a42.6 42.6 0 0 0 42.5-42.5v-79.4a42.6 42.6 0 0 0-33-41.4zM250 100.2a14.2 14.2 0 1 1-14.2 14.2 14.3 14.3 0 0 1 14.2-14.2zm-18.7 53.6A43.4 43.4 0 0 0 250 158a42.7 42.7 0 0 0 18.6-4.2l56.2 55.6H175.2zM310.9 331l-6.4 6.4h.1l-9 9h-.1l-6.2 6.2-36.1-36.1-36.5 36.5-21.6-21.6 36.5-36.5-36.5-36.5 21.6-21.6 36.5 36.5 36.1-36.1 6.2 6.2h.1l9 9h-.1l6.4 6.4-36.1 36.1z" />
</svg>
