<svg xmlns="http://www.w3.org/2000/svg" viewBox="0 0 500 500">
  <g id="close-action">
    <g id="closeIcon">
      <path id="ring" d="M250,5C114.9,5,5,114.9,5,250S114.9,495,250,495,495,385.1,495,250,385.1,5,250,5Zm0,457.9C132.6,462.9,37.1,367.4,37.1,250S132.6,37.1,250,37.1,462.9,132.6,462.9,250,367.4,462.9,250,462.9Z"/>
      <path id="closeSign" d="M367.7,210.5l-78.3-77.6a42.6,42.6,0,0,0,4.2-18.5,43.6,43.6,0,0,0-87.2,0,42.6,42.6,0,0,0,4.2,18.5l-78.3,77.6a42.6,42.6,0,0,0-33,41.4v79.4a42.6,42.6,0,0,0,42.5,42.5H358.2a42.6,42.6,0,0,0,42.5-42.5V251.9A42.6,42.6,0,0,0,367.7,210.5ZM250,100.2a14.2,14.2,0,1,1-14.2,14.2A14.3,14.3,0,0,1,250,100.2Zm-18.7,53.6A43.4,43.4,0,0,0,250,158a42.7,42.7,0,0,0,18.6-4.2l56.2,55.6H175.2ZM310.9,331l-6.4,6.4h.1l-9,9h-.1l-6.2,6.2-36.1-36.1L216.7,353l-21.6-21.6,36.5-36.5-36.5-36.5,21.6-21.6,36.5,36.5,36.1-36.1,6.2,6.2h.1l9,9h-.1l6.4,6.4-36.1,36.1Z"/>
    </g>
  </g>
</svg>
