<svg
  xmlns="http://www.w3.org/2000/svg"
  viewBox="0 0 500 500"
  width="500"
  height="500"
  fill="#ffffff"
>
  <path d="M417.68 182.3c12.17-95.2-81.25-126.49-82.34-126.84C234.33 24.54 188.79 92.91 174.8 121c-16.88-12-45.14-22.68-72.67-5.35-30 18.91-35.09 43.73-35.62 55.81C49.61 178.61 5 203 5 260.79c0 29.87 14.23 55.78 41.16 74.93a106.74 106.74 0 0 0 62.27 19.59h72.07a8.7 8.7 0 0 0 0-17.39h-72.07a89.4 89.4 0 0 1-52.19-16.37c-22.46-16-33.85-36.41-33.85-60.76 0-57.76 53.16-74.39 55.4-75.06a8.76 8.76 0 0 0 6.21-9.51c-.13-1.08-3-26.69 27.45-45.86 30.19-19 59.28 9.62 60.49 10.83a8.69 8.69 0 0 0 14.43-3.33c1.37-4.06 34.82-99.17 143.81-65.82 3.5 1.13 85.54 28.64 69.07 115.82a8.71 8.71 0 0 0 7.87 10.29c2.88.22 70.54 6.22 70.54 75.94 0 18.49-5.67 33.12-16.86 43.49-23.8 22.06-65.22 19.19-65.62 19.16H319.5a8.7 8.7 0 0 0 0 17.39h74.63c4.91.32 49.94 2.57 78.36-23.69 14.94-13.8 22.51-32.75 22.51-56.32 0-68.6-55-87.12-77.32-91.82z" />
  <path d="M259 386.31V266.83c13.71 0 35.88-.08 45.54 0a4.23 4.23 0 0 0 4.26-4.72c-1.69-15.07-1.53-49-23.4-77.75-10.28-13.53-23.76-22.54-31.09-28.36a4.12 4.12 0 0 0-2.65-.91h-2.1a4.1 4.1 0 0 0-2.55.9 285.38 285.38 0 0 0-31.09 28.36c-22.56 24.23-21.72 62.68-23.41 77.75a4.24 4.24 0 0 0 4.26 4.72h42.41v119.86c-21.53 2.76-49.2 12.87-49.71 38v17.79a9.9 9.9 0 0 0 9.91 9.91h.06l101.65-.6a9.91 9.91 0 0 0 9.85-9.91V424.1a10 10 0 0 0-.24-2.13c-2.24-23.97-30.57-33.39-51.7-35.66zm-31.23-183.72c-7.84 8.31-13 32.41-15.25 52.2a4.94 4.94 0 0 1-4.91 4.4h-.56a5 5 0 0 1-4.37-5.48c1.5-13.29 6.23-45.55 17.89-57.89a5 5 0 1 1 7.2 6.8zM291.14 432l-81.83.49v-7.59c.3-14.73 31.74-18.89 40.14-19.2a8.18 8.18 0 0 0 1.21-.16 1.81 1.81 0 0 0 .23 0c8.41.31 39.86 4.48 40.15 19.2 0 .28.07.54.1.81z" />
</svg>
