<svg xmlns="http://www.w3.org/2000/svg" viewBox="0 0 500 500" fill="#000000">
  <path
    d="M28.85 442.3c0-32.38 24.28-52.41 46.59-52.41 17.75 0 30.68 8.1 39.91 17.47l-8 14.92c-7.81-7.53-17.33-14.77-31.24-14.77-14.88 0-29.11 13.35-29.11 35.22 0 21.31 14.2 35.08 29 35.08 13.92 0 24-7.38 32-15.05l9 12.92C111.74 483.21 97 495 76 495c-20.73 0-47.15-18-47.15-52.7z"
    fill="#fff"
  />
  <path
    d="M158.27 421.71c14.91 0 26.13 10.51 26.13 24.43v46.3h-16.05v-42.61c0-5.82-2.84-12.07-11.08-12.07-6.1 0-12.64 5.4-17.33 9.8v44.88h-16.19v-69.6h16.19v8.24c3.98-4.4 9.8-9.37 18.33-9.37z"
    fill="#fff"
  />
  <path
    d="M191.61 484.21l5.54-12.79c8.38 5.54 13.91 7.95 23.43 7.95 3.41 0 15.34-1.13 15.34-7.95 0-5.54-10.93-6.11-14.63-6.11-11.08 0-31.67-1.56-31.67-20.45 0-19.46 19-23.44 31.53-23.44 12.93 0 21.16 3.84 28.26 11.51l-6 10.79c-6.68-5.11-13.64-8.09-22.3-8.09-4.83 0-16.33-.14-16.33 8.38 0 6 13.06 6.39 16.47 6.39 11.08 0 30.68 3 30.68 20.88s-20 22.16-31.39 22.16c-11.61 0-18.85-2.44-28.93-9.23z"
    fill="#fff"
  />
  <path
    d="M337.74 492.44l-30.11-67.89v-1.71h16.76l18.61 45.6 18.75-45.6h16.76v1.71l-30 67.89z"
    fill="#fff"
  />
  <g fill="#48c1c4">
    <path d="M400.42 412.58a9.39 9.39 0 1 0-9.38-9.39 9.38 9.38 0 0 0 9.38 9.39z" />
    <path d="M465.19 469.43c-3.7 4.26-9.38 5.83-11.08 5.83-3 0-4.83-.57-6.39-1.85-2.28-2.27-3.7-6-3.7-10.23v-27h22.73v-13.34H444V401.4l-15.9 7.81v13.63h-35.52v69.6h16.19V436.2h19.35v30.11c0 7.67 3.69 16.76 8.95 21a20 20 0 0 0 13.93 5.13c6.68 0 12.93-4 20.17-11.65z" />
  </g>
  <g fill="#4ac1c4">
    <path d="M260.67 371.09c-100.67 0-182.73-81.73-183-182.48A183 183 0 0 1 260.13 5h.57a183.06 183.06 0 0 1 129.82 312.09 181.85 181.85 0 0 1-129.27 54h-.58zm0-350.42h-.53A167.37 167.37 0 0 0 93.3 188.56c.28 92.12 75.32 166.87 167.38 166.87h.52a167.38 167.38 0 0 0 117.48-286.1A166.24 166.24 0 0 0 260.7 20.67z" />
    <path d="M356.16 137.41c3.39-52.19-48.33-68.91-48.92-69.1-53.6-15.9-80.17 17.3-89.71 33.92-13.46-7.43-28.12-7.44-40.08.24-15.74 10.1-20 22.92-21 31.2-10.49 5.2-33.34 20.19-33.08 51.81.15 17.8 8.68 33.11 24.68 44.28A62.08 62.08 0 0 0 183.88 241h.73l39.11-.33a9.57 9.57 0 0 0 9.17-10 9.63 9.63 0 0 0-9.49-9.18l-39 .32a42.44 42.44 0 0 1-25.4-7.73c-11-7.69-16.39-17.09-16.49-28.72-.23-27.6 25.09-35.78 26.14-36.11a9.57 9.57 0 0 0 6.74-10.47c-.06-.47-1.23-11.41 12.42-20.16 12.91-8.29 26.12 4.41 26.65 4.92a9.58 9.58 0 0 0 15.87-3.79c.67-2 16.86-49.26 71.32-33.09 1.73.54 42.26 13.76 34.51 56.76a9.61 9.61 0 0 0 7.8 11.14c.34.06.69.1 1 .12 3.45.24 33.66 3.31 33.93 35.89.07 8.58-2.41 15.31-7.39 20-11.1 10.46-31.51 9.37-31.73 9.33h-.54l-40.85.35a9.58 9.58 0 0 0-9.18 10 9.64 9.64 0 0 0 9.49 9.18l40-.34c2.94.16 29.17 1.21 45.86-14.47 9-8.5 13.57-20 13.45-34.14-.31-37.12-28.19-49.32-41.84-53.07z" />
    <path d="M296.63 275.81c-1.58-15.52-19.79-19.81-28.11-21l-.5-60 5.91-.05c6.18-.06 12.77-.09 16.23-.13a5.48 5.48 0 0 0 3.35-1.37 4.58 4.58 0 0 0 1.39-3.24v-.69c-.12-1-.23-2.28-.36-3.65-.86-9.54-2.31-25.5-13.12-39.46-4.84-6.26-10.73-10.65-15-13.85-.86-.65-1.66-1.23-2.33-1.76a4.45 4.45 0 0 0-3-1h-1.15a4.54 4.54 0 0 0-2.86 1 156.28 156.28 0 0 0-17 15.72c-10.88 11.89-12 29-12.61 39.27-.1 1.64-.19 3.07-.31 4.25a4.71 4.71 0 0 0 4.23 5.19h.41l20.61-.17.5 60.22c-16.61 2.83-26.53 11.26-26.67 22.87l.09 12.8a7.78 7.78 0 0 0 7.86 7.73l54.94-.78a7.81 7.81 0 0 0 7.68-7.85l-.09-12.81a6.5 6.5 0 0 0-.09-1.24zm-15.4 6.53l-39.34.57v-4.78c.06-4.86 12.39-7.84 19.33-8.16.33 0 .65-.07.54-.08 6.9.19 19.28 3 19.47 8.2z" />
  </g>
  <path
    d="M299.28 422.62a26.2 26.2 0 0 0-7.17-1.05c-6.11 0-12.78 4.68-17 9.65v-8.38h-16.2v69.6h16.2V449c5.71-8.85 17.05-13.35 21.76-13.65 3.34-.21 6.44.09 9.49 2.71z"
    fill="#fff"
  />
</svg>
