<svg
  xmlns="http://www.w3.org/2000/svg"
  viewBox="0 0 500 500"
  width="500"
  height="500"
  fill="#ffffff"
>
  <path d="M5 444.7s10.6-97.2 47.3-128.6 98.3-30.5 98.3-30.5 61.5-.9 98.3 30.5 47.3 128.6 47.3 128.6-138.5 38.8-291.2 0z" />
  <path d="M226.8 193.6c0-10.6-2.2-20.6-6.1-29.8h-.1c-11.7-27.1-38.6-46.1-70-46.1s-58.3 19-70 46.1h-.1c-3.9 9.2-6.1 19.2-6.1 29.8v.2c0 10.6 2.2 20.6 6.1 29.8h.1c11.7 27.1 38.6 46.1 70 46.1s58.3-19 70-46.1h.1c3.9-9.2 6.1-19.2 6.1-29.8v-.2z" />
  <path d="M251.2 229.8l15.3-61.8c-10.2-13.4-15.5-28.6-15.5-44.2 0-49.7 54.7-90.2 122-90.2S495 74 495 123.8c0 49.7-54.7 90.2-122 90.2-14 0-27.8-1.7-41-5.2l-80.8 21zM373 52.8c-56.7 0-102.8 31.8-102.8 70.9 0 12.5 4.9 24.8 14.1 35.7l3.2 3.8-9.8 39.9 54.6-14.2 2.5.7c12.2 3.4 25.1 5.2 38.3 5.2 56.7 0 102.8-31.8 102.8-70.9S429.7 52.8 373 52.8z" />
</svg>
