<?xml version="1.0" encoding="utf-8"?>
<!-- Generator: Adobe Illustrator 24.3.0, SVG Export Plug-In . SVG Version: 6.00 Build 0)  -->
<svg version="1.1" xmlns="http://www.w3.org/2000/svg" xmlns:xlink="http://www.w3.org/1999/xlink" x="0px" y="0px"
	 viewBox="0 0 500 500" style="enable-background:new 0 0 500 500;" xml:space="preserve">
<style type="text/css">
	.st0{fill:#005487;}
	.st1{fill:#FFFFFF;}
	.st2{fill:#7B7931;}
	.st3{fill:#359846;}
	.st4{fill:#016A4C;}
</style>
<g id="onboarding">
</g>
<g id="terms">
</g>
<g id="human-resources">
</g>
<g id="welcome-packet">
</g>
<g id="tax-information">
</g>
<g id="pay-roll">
</g>
<g id="compensation-history">
</g>
<g id="volunteer-service-projects">
</g>
<g id="economic-status-data">
</g>
<g id="demographics">
</g>
<g id="emergency-contact">
</g>
<g id="medical-info">
</g>
<g id="workforce-development">
</g>
<g id="offboarding">
</g>
<g id="term-active-status">
</g>
<g id="term-complete-status">
</g>
<g id="term-exited-early-status">
</g>
<g id="term-no-show-status">
</g>
<g id="term-pending-status">
</g>
<g id="term-suspended-status">
</g>
<g id="term-expired-status">
</g>
<g id="incomplete-status">
</g>
<g id="mid-term-check-in">
</g>
<g id="permissions">
</g>
<g id="checkbox-unchecked">
</g>
<g id="checkbox-checked">
</g>
<g id="notifications">
</g>
<g id="report-generator">
</g>
<g id="grants">
</g>
<g id="new-address-action">
</g>
<g id="new-phone-number-action">
</g>
<g id="navbar-reports">
</g>
<g id="navbar-money">
</g>
<g id="navbar-people">
</g>
<g id="navbar-time">
</g>
<g id="navbar-work">
</g>
<g id="navbar-messages-empty">
</g>
<g id="navbar-messages">
</g>
<g id="navbar-notifications-empty">
</g>
<g id="navbar-notifications_1_">
</g>
<g id="navbar-profile">
</g>
<g id="add-assignment-action">
</g>
<g id="health-wellness-status">
</g>
<g id="living-expense-status">
</g>
<g id="timesheet-ac">
</g>
<g id="timesheet-non-ac">
</g>
<g id="timesheet-unsubmitted">
</g>
<g id="timesheets">
</g>
<g id="assignments">
</g>
<g id="profile">
</g>
<g id="certifications">
</g>
<g id="identifications">
</g>
<g id="navbar-admin">
</g>
<g id="contact-email-primary">
</g>
<g id="contact-phone-primary">
</g>
<g id="contact-address-primary">
</g>
<g id="contact-phone-mobile">
</g>
<g id="contact-phone-work">
</g>
<g id="contact-phone-home">
</g>
<g id="action-progress-reports">
</g>
<g id="contact-primary-phone-home">
</g>
<g id="contact-primary-phone-office">
</g>
<g id="contact-primary-phone-mobile">
</g>
<g id="contact-email-work">
</g>
<g id="contact-email-personal">
</g>
<g id="contact-email-school">
</g>
<g id="contact-primary-email-work">
</g>
<g id="contact-primary-email-personal">
</g>
<g id="contact-primary-email-school">
</g>
<g id="action-approve">
</g>
<g id="action-approve-all">
</g>
<g id="action-build">
</g>
<g id="action-files-discrepency">
</g>
<g id="action-mark-as-final">
</g>
<g id="action-create-closeout">
</g>
<g id="action-batch-delete">
</g>
<g id="action-recalculate">
</g>
<g id="hourly">
</g>
<g id="daily">
</g>
<g id="weekly">
</g>
<g id="monthly">
</g>
<g id="hours-worked">
</g>
<g id="hours-served">
</g>
<g id="hours-vsp">
</g>
<g id="backpaid">
</g>
<g id="budget-worked">
</g>
<g id="data-tbl-arrows">
</g>
<g id="data-tbl-descending">
</g>
<g id="data-tbl-ascending">
</g>
<g id="filter-clear">
</g>
<g id="filter">
</g>
<g id="profile-default-1">
</g>
<g id="profile-default-2">
</g>
<g id="profile-default-3">
</g>
<g id="profile-default-4">
</g>
<g id="leopold">
</g>
<g id="required">
</g>
<g id="link">
</g>
<g id="comment-author">
	<g id="body_8_">
		<path d="M5,444.7c0,0,10.6-97.2,47.3-128.6s98.3-30.5,98.3-30.5s61.5-0.9,98.3,30.5s47.3,128.6,47.3,128.6S157.7,483.5,5,444.7z"
			/>
	</g>
	<g id="head_9_">
		<path d="M226.8,193.6c0-10.6-2.2-20.6-6.1-29.8h-0.1c-11.7-27.1-38.6-46.1-70-46.1c-31.4,0-58.3,19-70,46.1h-0.1
			c-3.9,9.2-6.1,19.2-6.1,29.8c0,0,0,0.1,0,0.1s0,0.1,0,0.1c0,10.6,2.2,20.6,6.1,29.8h0.1c11.7,27.1,38.6,46.1,70,46.1
			c31.4,0,58.3-19,70-46.1h0.1c3.9-9.2,6.1-19.2,6.1-29.8c0,0,0-0.1,0-0.1S226.8,193.7,226.8,193.6z"/>
	</g>
	<path id="text-bubble" d="M251.2,229.8l15.3-61.8c-10.2-13.4-15.5-28.6-15.5-44.2c0-49.7,54.7-90.2,122-90.2S495,74,495,123.8
		c0,49.7-54.7,90.2-122,90.2c-14,0-27.8-1.7-41-5.2L251.2,229.8z M373,52.8c-56.7,0-102.8,31.8-102.8,70.9
		c0,12.5,4.9,24.8,14.1,35.7l3.2,3.8l-9.8,39.9l54.6-14.2l2.5,0.7c12.2,3.4,25.1,5.2,38.3,5.2c56.7,0,102.8-31.8,102.8-70.9
		S429.7,52.8,373,52.8z"/>
</g>
</svg>
