<svg
  xmlns="http://www.w3.org/2000/svg"
  viewBox="0 0 500 500"
  width="500"
  height="500"
  fill="#ffffff"
>
  <path d="M482.8 229.1C482.8 105.5 382.2 5 258.6 5S34.4 105.5 34.4 229.1h21.9c0-111.4 90.7-202.2 202.3-202.2s202.3 90.8 202.3 202.2a201.5 201.5 0 0 1-197.5 202.3v-40.8l-83.5 48.3 83.5 48.1v-33.7c121.4-2.5 219.4-102.1 219.4-224.2z" />
  <polygon points="247.7 109.2 247.7 237 350.4 339.8 365.9 324.3 269.6 228 269.6 109.2 247.7 109.2" />
  <path d="M62.5 495v-25.3c-17.8-.8-35.1-5.6-45.3-11.5l8-31.2c11.2 6.2 26.9 11.8 44.3 11.8 15.2 0 25.6-5.9 25.6-16.6s-8.6-16.5-28.3-23.1c-28.5-9.6-48-23-48-48.8 0-23.5 16.6-41.8 45.1-47.4v-25.4H90V301c17.8.8 29.8 4.5 38.6 8.8l-7.7 30.1c-6.9-2.9-19.2-9.1-38.4-9.1-17.3 0-22.9 7.5-22.9 15s9.3 14.4 32 22.9c31.7 11.2 44.5 25.8 44.5 49.8s-16.8 44-47.4 49.3V495z" />
</svg>
