<svg
  xmlns="http://www.w3.org/2000/svg"
  viewBox="0 0 500 500"
  width="500"
  height="500"
  fill="#000000"
>
  <path d="M103.9 145.6H167v-28.2h89.4v28.2h63.2v3.1l79.6-79.6a42.5 42.5 0 0 0-26.9-9.5H47.8a42 42 0 0 0-25.4 8.3l81.5 81.5z" />
  <rect x="183.4" y="133.8" width="56.6" height="11.81" />
  <polygon points="303.2 221.1 219.9 221.1 219.9 238.7 203.5 238.7 203.5 221.1 120.3 221.1 120.3 299.6 303.2 299.6 303.2 221.1" />
  <rect x="120.3" y="162" width="182.9" height="42.72" />
  <path d="M415.1 280.6a79.9 79.9 0 1 0 79.9 79.9 79.9 79.9 0 0 0-79.9-79.9zm35.1 133.9l-35.1-18.4-35.1 18.4 6.7-39-28.4-27.7 39.2-5.7 17.6-35.6 17.5 35.6 39.3 5.7-28.4 27.7z" />
  <path d="M318.1 360.5a97.1 97.1 0 0 1 97-96.9V102.3a42.8 42.8 0 0 0-5-20.1l-90.5 90.5V316H103.9V173.4L11 80.6a42.5 42.5 0 0 0-6 21.7v233a42.8 42.8 0 0 0 42.8 42.8h271.9a101.9 101.9 0 0 1-1.6-17.6z" />
</svg>
