<svg
  xmlns="http://www.w3.org/2000/svg"
  viewBox="0 0 500 500"
  width="500"
  height="500"
  fill="#000000"
>
  <path d="M489 86.7L345.7 230l15.3 14.5a9.8 9.8 0 0 1-6.7 16.9h-10.6v110.7a9.8 9.8 0 0 1-9.8 9.8H166.1a9.8 9.8 0 0 1-9.8-9.8V261.4h-10.6a9.8 9.8 0 0 1-6.7-16.9l16.9-16L12.2 84.8a50.4 50.4 0 0 0-7.2 26v278.4a51.1 51.1 0 0 0 51.1 51.1h387.8a51.1 51.1 0 0 0 51.1-51.1V110.8a51.8 51.8 0 0 0-6-24.1z" />
  <path d="M243.3 145.9a9.7 9.7 0 0 1 13.4 0l74.3 70.2 145-145a50.8 50.8 0 0 0-32.1-11.4H56.1a51 51 0 0 0-30.3 10l144.9 144.9z" />
  <path d="M324.1 362.3V236.5l-74.1-70-74.1 70v125.8h64.3v-71.4h19.6v71.4z" />
</svg>
