<svg xmlns="http://www.w3.org/2000/svg" viewBox="0 0 500 500">
  <g id="contact-primary-email-school">
    <polygon id="mid" points="147.6 183.2 278.5 183.2 213.3 148.4 147.6 183.2"/>
    <path id="top" d="M124.5,176.8l85-45a8.1,8.1,0,0,1,7.7,0l83.5,44.6,101-101a42.8,42.8,0,0,0-27-9.6H48a42.6,42.6,0,0,0-25.5,8.4l102,102Z"/>
    <path id="primary-star" d="M417.7,279.6A77.3,77.3,0,1,0,495,356.9,77.3,77.3,0,0,0,417.7,279.6Zm33.9,129.6-33.9-17.9-33.9,17.9,6.4-37.8-27.4-26.8,37.9-5.5,17-34.4,17,34.4,37.9,5.5-27.4,26.8Z"/>
    <path id="bottom" d="M323.9,356.9a93.9,93.9,0,0,1,93.8-93.8h0V108.8a42.5,42.5,0,0,0-5.1-20.3l-96.2,96.3a8.4,8.4,0,0,1,3.1,8.6,8.2,8.2,0,0,1-8,6.3H114.4a8.2,8.2,0,0,1-5.2-14.7L11.1,86.9A42.3,42.3,0,0,0,5,108.8V343.3a43,43,0,0,0,43,43H328.7A92,92,0,0,1,323.9,356.9ZM192.6,293h12.5V232.7H192.6V216.2h40.6v16.5H221.6V293h11.6v16.5H192.6Zm-78.2,0h12.4V232.7H114.4V216.2h40.5v16.5H143.3V293h11.6v16.5H114.4Zm197.1,47.4H114.4V324H311.5Zm0-107.7H299.9V293h11.6v16.5H270.9V293h12.5V232.7H270.9V216.2h40.6Z"/>
  </g>
</svg>
