<svg
  xmlns="http://www.w3.org/2000/svg"
  viewBox="0 0 500 500"
  width="500"
  height="500"
  fill="#ffffff"
>
  <path d="M319.4 76.5h-209a42.3 42.3 0 0 0-42.3 42.3v333.9a42.3 42.3 0 0 0 42.3 42.3h209a42.2 42.2 0 0 0 42.2-42.3V118.8a42.2 42.2 0 0 0-42.2-42.3zM174.6 97.3h80.6v16.8h-80.6zm40.3 382.6a23.1 23.1 0 1 1 23-23.1 23 23 0 0 1-23 23.1zm123.6-61.4H91.3V139.6h247.2z" />
  <path d="M391.9 109.5h-16.7a47 47 0 0 0-46.9-46.9V45.9a63.6 63.6 0 0 1 63.6 63.6z" />
  <path d="M431.9 108.6h-16.8a86.9 86.9 0 0 0-86.8-86.9V5a103.7 103.7 0 0 1 103.6 103.6z" />
  <rect
    x="92.5"
    y="270.7"
    width="244.8"
    height="16.74"
    transform="rotate(-45 214.9 279.085)"
  />
  <rect
    x="192"
    y="295"
    width="116.2"
    height="16.74"
    transform="rotate(-45 250.128 303.293)"
  />
</svg>
