<svg
  xmlns="http://www.w3.org/2000/svg"
  viewBox="0 0 500 500"
  width="500"
  height="500"
  fill="#000000"
>
  <path d="M211.2 268.2L399.9 79.5a43.6 43.6 0 0 0-27-9.6H46.8a42.7 42.7 0 0 0-25.5 8.5z" />
  <path d="M277.6 336.4a118.3 118.3 0 0 1 138.3-116.8V112.9a44.9 44.9 0 0 0-5.1-20.3L211.2 292.3 9.9 91a42.3 42.3 0 0 0-6.1 21.9V347a43.1 43.1 0 0 0 43 43h243.6a119 119 0 0 1-12.8-53.6z" />
  <path d="M396.8 236.1a97 97 0 1 0 97 97 96.9 96.9 0 0 0-97-97zm42.6 162.5l-42.6-22.4-42.5 22.4 8.1-47.4-34.5-33.6 47.6-6.9 21.3-43.2 21.3 43.2 47.7 6.9-34.5 33.6z" />
</svg>
