<svg
  xmlns="http://www.w3.org/2000/svg"
  viewBox="0 0 500 500"
  width="500"
  height="500"
  fill="#ffffff"
>
  <path d="M213.9 193.7h.1a67.2 67.2 0 0 0 123.5 0h.1a67.5 67.5 0 0 0 5.3-26.3 67.9 67.9 0 0 0-5.3-26.3h-.1a67.2 67.2 0 0 0-123.5 0h-.1a66.2 66.2 0 0 0-5.4 26.3 65.8 65.8 0 0 0 5.4 26.3z" />
  <path d="M443.9 9.5H82.6A48.7 48.7 0 0 0 34 58.1v1.3H23.3a15.9 15.9 0 0 0 0 31.7H34v27.3H23.3a15.8 15.8 0 0 0 0 31.6H34v27.3H23.3a15.9 15.9 0 0 0 0 31.7H34v27.3H23.3a15.8 15.8 0 0 0 0 31.6H34v27.3H23.3a15.9 15.9 0 0 0 0 31.7H34v27.3H23.3a15.8 15.8 0 1 0 0 31.6H34v27.3H23.3a15.9 15.9 0 0 0 0 31.7h10.9a48.6 48.6 0 0 0 48.4 45.7h361.3a48.7 48.7 0 0 0 48.6-48.6V58.1a48.7 48.7 0 0 0-48.6-48.6zm27.5 432.4a27.5 27.5 0 0 1-27.5 27.5H82.6a27.6 27.6 0 0 1-27.3-24.6h10.4a15.9 15.9 0 0 0 0-31.7H55.1v-27.3h10.6a15.8 15.8 0 0 0 0-31.6H55.1v-27.3h10.6a15.9 15.9 0 0 0 0-31.7H55.1v-27.3h10.6a15.8 15.8 0 1 0 0-31.6H55.1V209h10.6a15.9 15.9 0 0 0 0-31.7H55.1V150h10.6a15.8 15.8 0 0 0 0-31.6H55.1V91.1h10.6a15.9 15.9 0 0 0 0-31.7H55.1v-1.3a27.6 27.6 0 0 1 27.5-27.5h361.3a27.5 27.5 0 0 1 27.5 27.5z" />
  <path d="M362.5 275.3c-32.5-27.8-86.8-26.9-86.8-26.9s-54.3-.9-86.7 26.9-41.8 113.4-41.8 113.4c134.8 34.3 257.1 0 257.1 0s-9.4-85.7-41.8-113.4zm-41.2 85.3a16.2 16.2 0 0 1-16.2 16.2h-58.7a16.1 16.1 0 0 1-16.2-16.2V302a16.1 16.1 0 0 1 16.2-16.2h58.7a16.2 16.2 0 0 1 16.2 16.2z" />
  <path d="M305.1 295.6h-58.7a6.4 6.4 0 0 0-6.4 6.4v58.6a6.4 6.4 0 0 0 6.4 6.4h58.7a6.4 6.4 0 0 0 6.4-6.4V302a6.4 6.4 0 0 0-6.4-6.4zm-29.4 62.5h-22.1a4.9 4.9 0 1 1 0-9.8h22.1a4.9 4.9 0 1 1 0 9.8zm22.2-21.9h-44.3a4.9 4.9 0 1 1 0-9.8h44.3a4.9 4.9 0 0 1 0 9.8zm0-21.9h-44.3a4.9 4.9 0 1 1 0-9.8h44.3a4.9 4.9 0 1 1 0 9.8z" />
</svg>
