<svg xmlns="http://www.w3.org/2000/svg" viewBox="0 0 500 500">
  <g id="contact-phone-primary">
    <path id="primary-star" d="M397.8,236.4A100.3,100.3,0,1,0,498.1,336.6,100.2,100.2,0,0,0,397.8,236.4Zm44,168-44-23.2-44,23.2,8.4-49-35.6-34.8,49.2-7.1,22-44.6,22,44.6,49.3,7.1-35.7,34.8Z"/>
    <path id="phone" d="M333.3,432.7h-.1a115.6,115.6,0,0,1-51.1-96,114.3,114.3,0,0,1,7.2-40.3l-43.6,43.6c-35.9-19.9-77.6-54.7-110-114.9l52.1-52a13.7,13.7,0,0,0,0-19.3L109.5,75.4a13.6,13.6,0,0,0-19.2,0L12.1,153.7A13.5,13.5,0,0,0,9.8,170C79.1,415.4,262.6,456.1,306.1,462.4a14.1,14.1,0,0,0,7.6.9h1.5v-.5a14.1,14.1,0,0,0,5.9-3.4l21.2-21.2A103,103,0,0,1,333.3,432.7Z"/>
    <path id="first-arch" d="M276.9,259.5h38.9a96.2,96.2,0,0,0-96.1-96.2v38.9A57.3,57.3,0,0,1,276.9,259.5Z"/>
    <path id="second-arch" d="M346.8,232.3a115,115,0,0,1,37.4-11.1C366.8,146.5,299.7,90.6,219.7,90.6v38.9A130.1,130.1,0,0,1,346.8,232.3Z"/>
    <path id="third-arch" d="M419.4,222.9a114.3,114.3,0,0,1,41.3,16.6c-10.1-124-114.3-221.9-241-221.9V56.4C319.2,56.4,402.1,128.3,419.4,222.9Z"/>
  </g>
</svg>
