<svg xmlns="http://www.w3.org/2000/svg" viewBox="0 0 500 500">
  <g id="contact-primary-phone-mobile">
    <path id="arch-1" d="M349.3,102H333.8a43.6,43.6,0,0,0-43.5-43.5V43A59.1,59.1,0,0,1,349.3,102Z"/>
    <path id="arch-2" d="M386.4,101.1H370.9a80.7,80.7,0,0,0-80.6-80.6V5A96.2,96.2,0,0,1,386.4,101.1Z"/>
    <rect id="screen-line-bottom" x="71.3" y="251.7" width="227.3" height="15.54" transform="translate(-129.3 206.8) rotate(-45)"/>
    <rect id="screen-line-top" x="163.7" y="274.2" width="107.9" height="15.54" transform="translate(-135.6 236.5) rotate(-45)"/>
    <path id="primary-star" d="M358.2,308.8a93.1,93.1,0,1,0,93.1,93.1A93.1,93.1,0,0,0,358.2,308.8Zm40.9,156-40.9-21.5-40.9,21.5,7.8-45.5-33-32.2,45.7-6.7L358.2,339l20.4,41.4,45.7,6.7-33,32.2Z"/>
    <path id="outline" d="M245.2,401.9a112,112,0,0,1,.8-13H70.2V130H299.7V305.3a120.5,120.5,0,0,1,21.5-10.1V110.6A39.3,39.3,0,0,0,282,71.4H88a39.3,39.3,0,0,0-39.3,39.2V420.7A39.2,39.2,0,0,0,88,459.9H261.3A112,112,0,0,1,245.2,401.9ZM147.6,90.7h74.8v15.6H147.6ZM185,445.9a21.4,21.4,0,1,1,21.4-21.4A21.4,21.4,0,0,1,185,445.9Z"/>
  </g>
</svg>
