<svg
  xmlns="http://www.w3.org/2000/svg"
  viewBox="0 0 500 500"
  width="500"
  height="500"
  fill="#000000"
>
  <path d="M123.1 162.5h75.5v-33.7h106.8v33.7h75.5v3.7L476 71.1a50.8 50.8 0 0 0-32.1-11.4H56.1a51 51 0 0 0-30.3 10l97.3 97.3z" />
  <rect x="218.2" y="148.4" width="67.7" height="14.11" />
  <polygon points="361.3 252.7 261.8 252.7 261.8 273.7 242.2 273.7 242.2 252.7 142.7 252.7 142.7 346.5 361.3 346.5 361.3 252.7" />
  <rect x="142.7" y="182.1" width="218.6" height="51.04" />
  <path d="M489 86.7L380.9 194.8v171.3H123.1V195.7L12.2 84.8a50.4 50.4 0 0 0-7.2 26v278.4a51.1 51.1 0 0 0 51.1 51.1h387.8a51.1 51.1 0 0 0 51.1-51.1V110.8a51.8 51.8 0 0 0-6-24.1z" />
</svg>
