<svg
  xmlns="http://www.w3.org/2000/svg"
  viewBox="0 0 500 500"
  width="500"
  height="500"
  fill="#ffffff"
>
  <path d="M65.5 21.1A60.5 60.5 0 0 0 5 81.6v267.7a60.5 60.5 0 0 0 121 0V81.6a60.5 60.5 0 0 0-60.5-60.5z" />
  <path d="M406.4 301.7a88.6 88.6 0 1 0 88.6 88.6 88.6 88.6 0 0 0-88.6-88.6zm38.9 148.5l-38.9-20.5-38.9 20.5 7.4-43.4-31.5-30.7 43.5-6.3 19.5-39.4 19.5 39.4 43.5 6.3-31.5 30.7z" />
  <path d="M136.2 382h163a107.7 107.7 0 0 1 107.2-99.2 91 91 0 0 1 9.1.4V41.3H132.1a77.2 77.2 0 0 1 11.4 40.3v267.7a77.9 77.9 0 0 1-7.3 32.7zm88.7-34.2a4.6 4.6 0 0 1-4.6 4.6h-30.1a4.6 4.6 0 0 1-4.6-4.6v-30a4.6 4.6 0 0 1 4.6-4.6h30.1a4.6 4.6 0 0 1 4.6 4.6zm0-71.4a4.7 4.7 0 0 1-4.6 4.6h-30.1a4.7 4.7 0 0 1-4.6-4.6v-30.1a4.7 4.7 0 0 1 4.6-4.6h30.1a4.7 4.7 0 0 1 4.6 4.6zm0-71.5a4.6 4.6 0 0 1-4.6 4.6h-30.1a4.6 4.6 0 0 1-4.6-4.6v-30a4.6 4.6 0 0 1 4.6-4.6h30.1a4.6 4.6 0 0 1 4.6 4.6zm74.4 142.9a4.6 4.6 0 0 1-4.6 4.6h-30.1a4.6 4.6 0 0 1-4.6-4.6v-30a4.6 4.6 0 0 1 4.6-4.6h30.1a4.6 4.6 0 0 1 4.6 4.6zm0-71.4a4.7 4.7 0 0 1-4.6 4.6h-30.1a4.7 4.7 0 0 1-4.6-4.6v-30.1a4.7 4.7 0 0 1 4.6-4.6h30.1a4.7 4.7 0 0 1 4.6 4.6zm0-71.5a4.6 4.6 0 0 1-4.6 4.6h-30.1a4.6 4.6 0 0 1-4.6-4.6v-30a4.6 4.6 0 0 1 4.6-4.6h30.1a4.6 4.6 0 0 1 4.6 4.6zm74.4 71.5a4.7 4.7 0 0 1-4.6 4.6H339a4.7 4.7 0 0 1-4.6-4.6v-30.1a4.7 4.7 0 0 1 4.6-4.6h30.1a4.7 4.7 0 0 1 4.6 4.6zm0-71.5a4.6 4.6 0 0 1-4.6 4.6H339a4.6 4.6 0 0 1-4.6-4.6v-30a4.6 4.6 0 0 1 4.6-4.6h30.1a4.6 4.6 0 0 1 4.6 4.6zm-207.9-117a15 15 0 0 1 15-15h194.1a15 15 0 0 1 15 15v42.2a15 15 0 0 1-15 15H180.8a15 15 0 0 1-15-15z" />
</svg>
