<svg xmlns="http://www.w3.org/2000/svg" viewBox="0 0 500 500">
  <g id="contact-email-personal">
    <path id="bottom" d="M489,86.7,345.7,230,361,244.5a9.8,9.8,0,0,1-6.7,16.9H343.7V372.1a9.8,9.8,0,0,1-9.8,9.8H166.1a9.8,9.8,0,0,1-9.8-9.8V261.4H145.7a9.8,9.8,0,0,1-6.7-16.9l16.9-16L12.2,84.8a50.4,50.4,0,0,0-7.2,26V389.2a51.1,51.1,0,0,0,51.1,51.1H443.9A51.1,51.1,0,0,0,495,389.2V110.8A51.8,51.8,0,0,0,489,86.7Z"/>
    <path id="top" d="M243.3,145.9a9.7,9.7,0,0,1,13.4,0L331,216.1l145-145a50.8,50.8,0,0,0-32.1-11.4H56.1a51,51,0,0,0-30.3,10L170.7,214.6Z"/>
    <path id="mid" d="M324.1,362.3V236.5l-74.1-70-74.1,70v14.8h0v111h64.3V290.9h19.6v71.4Z"/>
  </g>
</svg>
