<svg
  xmlns="http://www.w3.org/2000/svg"
  viewBox="0 0 500 500"
  width="500"
  height="500"
  fill="#000000"
>
  <path d="M403.2 307.6a91.8 91.8 0 1 0 91.8 91.8 91.8 91.8 0 0 0-91.8-91.8zm40.3 153.9l-40.3-21.2-40.3 21.2 7.7-44.9-32.7-31.8 45.1-6.6 20.2-40.8 20.1 40.8 45.1 6.6-32.6 31.8z" />
  <path d="M138 189.2v-76.8c38-10.9 90.1-15.6 153.3 3.4v71a13.2 13.2 0 0 0 13.2 13.1h106.6a13.2 13.2 0 0 0 13.2-13.1V80.1a13 13 0 0 0-9.6-12.6C200.1-52.7 47.2 44.7 13.3 70.1a13.1 13.1 0 0 0-5.8 4.6l-1 1 .3.3a12.7 12.7 0 0 0-1.7 6.3v106.8a13.1 13.1 0 0 0 13.1 13h106.6a13.1 13.1 0 0 0 13.2-12.9z" />
  <path d="M291.8 399.4a119 119 0 0 1 1.1-15.9h-11.1a9 9 0 0 1-9.1-9v-17.8a9.1 9.1 0 0 1 9.1-9.1h17.8a9.3 9.3 0 0 1 4.4 1.2 111.6 111.6 0 0 1 85.9-60l-15-69.3h-70.5a33 33 0 0 1-32.8-32.6v-11.3h-24.8v44.5h-64.3v-44.5h-24.9v13.7a32.6 32.6 0 0 1-32.7 32.4H53.7L21.2 372.8v72.4a12.3 12.3 0 0 0 12.3 12.3h274.7a110.5 110.5 0 0 1-16.4-58.1zm-19.1-136.3a9 9 0 0 1 9.1-9h17.8a9 9 0 0 1 9.1 9v17.8a9.1 9.1 0 0 1-9.1 9.1h-17.8a9.1 9.1 0 0 1-9.1-9.1zm0 46.8a9.1 9.1 0 0 1 9.1-9.1h17.8a9.1 9.1 0 0 1 9.1 9.1v17.8a9.1 9.1 0 0 1-9.1 9.1h-17.8a9.1 9.1 0 0 1-9.1-9.1zm-110.2 64.6a9 9 0 0 1-9 9h-17.8a9 9 0 0 1-9.1-9v-17.8a9.1 9.1 0 0 1 9.1-9.1h17.8a9 9 0 0 1 9 9.1zm0-46.8a9 9 0 0 1-9 9.1h-17.8a9.1 9.1 0 0 1-9.1-9.1v-17.8a9.1 9.1 0 0 1 9.1-9.1h17.8a9 9 0 0 1 9 9.1zm0-46.8a9 9 0 0 1-9 9.1h-17.8a9.1 9.1 0 0 1-9.1-9.1v-17.8a9 9 0 0 1 9.1-9h17.8a9 9 0 0 1 9 9zm73.1 93.6a9 9 0 0 1-9.1 9h-17.7a9 9 0 0 1-9.1-9v-17.8a9.1 9.1 0 0 1 9.1-9.1h17.7a9.1 9.1 0 0 1 9.1 9.1zm0-46.8a9.1 9.1 0 0 1-9.1 9.1h-17.7a9.1 9.1 0 0 1-9.1-9.1v-17.8a9.1 9.1 0 0 1 9.1-9.1h17.7a9.1 9.1 0 0 1 9.1 9.1zm0-46.8a9.1 9.1 0 0 1-9.1 9.1h-17.7a9.1 9.1 0 0 1-9.1-9.1v-17.8a9 9 0 0 1 9.1-9h17.7a9 9 0 0 1 9.1 9z" />
</svg>
