<svg xmlns="http://www.w3.org/2000/svg" viewBox="0 0 500 500">
  <g id="contact-phone-work">
    <path id="phone" d="M77.2,18.1A72.2,72.2,0,0,0,5,90.3V409.7a72.3,72.3,0,0,0,144.5,0V90.3A72.3,72.3,0,0,0,77.2,18.1Z"/>
    <path id="keypad" d="M156.7,42.1a92.1,92.1,0,0,1,13.6,48.2V409.7a92.4,92.4,0,0,1-8.7,39H495V42.1ZM267.4,408a5.5,5.5,0,0,1-5.5,5.5H226.1a5.5,5.5,0,0,1-5.5-5.5V372.1a5.5,5.5,0,0,1,5.5-5.5h35.8a5.5,5.5,0,0,1,5.5,5.5Zm0-85.3a5.5,5.5,0,0,1-5.5,5.5H226.1a5.5,5.5,0,0,1-5.5-5.5V286.8a5.4,5.4,0,0,1,5.5-5.4h35.8a5.4,5.4,0,0,1,5.5,5.4Zm0-85.3a5.4,5.4,0,0,1-5.5,5.5H226.1a5.4,5.4,0,0,1-5.5-5.5V201.6a5.4,5.4,0,0,1,5.5-5.5h35.8a5.4,5.4,0,0,1,5.5,5.5ZM356.2,408a5.5,5.5,0,0,1-5.5,5.5H314.9a5.5,5.5,0,0,1-5.5-5.5V372.1a5.5,5.5,0,0,1,5.5-5.5h35.8a5.5,5.5,0,0,1,5.5,5.5Zm0-85.3a5.5,5.5,0,0,1-5.5,5.5H314.9a5.5,5.5,0,0,1-5.5-5.5V286.8a5.4,5.4,0,0,1,5.5-5.4h35.8a5.4,5.4,0,0,1,5.5,5.4Zm0-85.3a5.4,5.4,0,0,1-5.5,5.5H314.9a5.4,5.4,0,0,1-5.5-5.5V201.6a5.4,5.4,0,0,1,5.5-5.5h35.8a5.4,5.4,0,0,1,5.5,5.5ZM445,408a5.5,5.5,0,0,1-5.4,5.5H403.7a5.5,5.5,0,0,1-5.5-5.5V372.1a5.5,5.5,0,0,1,5.5-5.5h35.9a5.5,5.5,0,0,1,5.4,5.5Zm0-85.3a5.5,5.5,0,0,1-5.4,5.5H403.7a5.5,5.5,0,0,1-5.5-5.5V286.8a5.5,5.5,0,0,1,5.5-5.4h35.9a5.4,5.4,0,0,1,5.4,5.4Zm0-85.3a5.4,5.4,0,0,1-5.4,5.5H403.7a5.5,5.5,0,0,1-5.5-5.5V201.6a5.5,5.5,0,0,1,5.5-5.5h35.9a5.4,5.4,0,0,1,5.4,5.5Zm19.4-89.3a18,18,0,0,1-17.9,18H214.8a18,18,0,0,1-17.9-18V97.7a17.9,17.9,0,0,1,17.9-17.9H446.5a17.9,17.9,0,0,1,17.9,17.9Z"/>
  </g>
</svg>
