<svg
  xmlns="http://www.w3.org/2000/svg"
  viewBox="0 0 500 500"
  width="500"
  height="500"
  fill="#000000"
>
  <polygon points="147.6 183.2 278.5 183.2 213.3 148.4 147.6 183.2" />
  <path d="M124.5 176.8l85-45a8.1 8.1 0 0 1 7.7 0l83.5 44.6 101-101a42.8 42.8 0 0 0-27-9.6H48a42.6 42.6 0 0 0-25.5 8.4l102 102z" />
  <path d="M417.7 279.6a77.3 77.3 0 1 0 77.3 77.3 77.3 77.3 0 0 0-77.3-77.3zm33.9 129.6l-33.9-17.9-33.9 17.9 6.4-37.8-27.4-26.8 37.9-5.5 17-34.4 17 34.4 37.9 5.5-27.4 26.8z" />
  <path d="M323.9 356.9a93.9 93.9 0 0 1 93.8-93.8V108.8a42.5 42.5 0 0 0-5.1-20.3l-96.2 96.3a8.4 8.4 0 0 1 3.1 8.6 8.2 8.2 0 0 1-8 6.3H114.4a8.2 8.2 0 0 1-5.2-14.7L11.1 86.9A42.3 42.3 0 0 0 5 108.8v234.5a43 43 0 0 0 43 43h280.7a92 92 0 0 1-4.8-29.4zM192.6 293h12.5v-60.3h-12.5v-16.5h40.6v16.5h-11.6V293h11.6v16.5h-40.6zm-78.2 0h12.4v-60.3h-12.4v-16.5h40.5v16.5h-11.6V293h11.6v16.5h-40.5zm197.1 47.4H114.4V324h197.1zm0-107.7h-11.6V293h11.6v16.5h-40.6V293h12.5v-60.3h-12.5v-16.5h40.6z" />
</svg>
