<svg xmlns="http://www.w3.org/2000/svg" viewBox="0 0 500 500">
  <g id="contact-contract">
    <path id="head" d="M213.9,193.7h.1a67.2,67.2,0,0,0,123.5,0h.1a67.5,67.5,0,0,0,5.3-26.3h0a67.9,67.9,0,0,0-5.3-26.3h-.1a67.2,67.2,0,0,0-123.5,0h-.1a66.2,66.2,0,0,0-5.4,26.3h0A65.8,65.8,0,0,0,213.9,193.7Z"/>
    <path id="outline" d="M443.9,9.5H82.6A48.7,48.7,0,0,0,34,58.1v1.3H23.3a15.9,15.9,0,0,0,0,31.7H34v27.3H23.3a15.8,15.8,0,0,0,0,31.6H34v27.3H23.3a15.9,15.9,0,0,0,0,31.7H34v27.3H23.3a15.8,15.8,0,0,0,0,31.6H34v27.3H23.3a15.9,15.9,0,0,0,0,31.7H34v27.3H23.3a15.8,15.8,0,1,0,0,31.6H34v27.3H23.3a15.9,15.9,0,0,0,0,31.7H34.2a48.6,48.6,0,0,0,48.4,45.7H443.9a48.7,48.7,0,0,0,48.6-48.6V58.1A48.7,48.7,0,0,0,443.9,9.5Zm27.5,432.4a27.5,27.5,0,0,1-27.5,27.5H82.6a27.6,27.6,0,0,1-27.3-24.6H65.7a15.9,15.9,0,0,0,0-31.7H55.1V385.8H65.7a15.8,15.8,0,0,0,0-31.6H55.1V326.9H65.7a15.9,15.9,0,0,0,0-31.7H55.1V267.9H65.7a15.8,15.8,0,1,0,0-31.6H55.1V209H65.7a15.9,15.9,0,0,0,0-31.7H55.1V150H65.7a15.8,15.8,0,0,0,0-31.6H55.1V91.1H65.7a15.9,15.9,0,0,0,0-31.7H55.1V58.1A27.6,27.6,0,0,1,82.6,30.6H443.9a27.5,27.5,0,0,1,27.5,27.5Z"/>
    <path id="body" d="M362.5,275.3c-32.5-27.8-86.8-26.9-86.8-26.9s-54.3-.9-86.7,26.9-41.8,113.4-41.8,113.4c134.8,34.3,257.1,0,257.1,0S394.9,303,362.5,275.3Zm-41.2,85.3a16.2,16.2,0,0,1-16.2,16.2H246.4a16.1,16.1,0,0,1-16.2-16.2V302a16.1,16.1,0,0,1,16.2-16.2h58.7A16.2,16.2,0,0,1,321.3,302Z"/>
    <path id="paper" d="M305.1,295.6H246.4A6.4,6.4,0,0,0,240,302v58.6a6.4,6.4,0,0,0,6.4,6.4h58.7a6.4,6.4,0,0,0,6.4-6.4V302A6.4,6.4,0,0,0,305.1,295.6Zm-29.4,62.5H253.6a4.9,4.9,0,1,1,0-9.8h22.1a4.9,4.9,0,1,1,0,9.8Zm22.2-21.9H253.6a4.9,4.9,0,1,1,0-9.8h44.3a4.9,4.9,0,0,1,0,9.8Zm0-21.9H253.6a4.9,4.9,0,1,1,0-9.8h44.3a4.9,4.9,0,1,1,0,9.8Z"/>
  </g>
</svg>
