<svg
  xmlns="http://www.w3.org/2000/svg"
  viewBox="0 0 500 500"
  width="500"
  height="500"
  fill="#ffffff"
>
  <path d="M188.9 192.9c3.5 0 6.5-3.8 6.5-8.4v-67.4l-43.3-43.9-43.3 44v67.3c0 4.6 3 8.4 6.5 8.4h27.9V154H161v38.9z" />
  <path d="M287.3 140.2a135.2 135.2 0 0 0-270.4 0c0 154.1 135.2 308.9 135.2 308.9s135.2-154.8 135.2-308.9zM91.1 184.5v-47.9H86a8.7 8.7 0 0 1-8.2-5.4 8.9 8.9 0 0 1 1.8-9.7l66.2-67.2a9.1 9.1 0 0 1 12.6 0l66.2 67.2a8.9 8.9 0 0 1 1.8 9.7 8.7 8.7 0 0 1-8.2 5.4h-5.1v47.9c0 14.5-10.8 26.2-24.2 26.2h-73.6c-13.4 0-24.2-11.7-24.2-26.2z" />
  <path d="M210.1 403.9c-3.8 5.7-7.5 11.1-11.1 16 37.1 6.2 56.3 19.1 56.3 26.9 0 10.6-34.8 30.4-101.3 30.4S52.7 457.4 52.7 446.8c0-7.8 19.2-20.7 56.2-26.9-3.6-4.9-7.3-10.2-11.2-15.9-35.7 7.2-62.8 21.6-62.8 42.8 0 31.7 59.9 48.2 119.1 48.2s119.1-16.5 119.1-48.2c0-21.2-27.2-35.7-63-42.9z" />
  <path d="M382.9 236.4a100.3 100.3 0 1 0 100.2 100.2 100.3 100.3 0 0 0-100.2-100.2zm44 168l-44-23.2-44.1 23.2 8.4-49-35.6-34.8 49.3-7.1 22-44.6 22 44.6 49.2 7.1-35.6 34.8z" />
</svg>
