<svg
  xmlns="http://www.w3.org/2000/svg"
  viewBox="0 0 500 500"
  width="500"
  height="500"
  fill="#ffffff"
>
  <path d="M397.8 236.4a100.3 100.3 0 1 0 100.3 100.2 100.2 100.2 0 0 0-100.3-100.2zm44 168l-44-23.2-44 23.2 8.4-49-35.6-34.8 49.2-7.1 22-44.6 22 44.6 49.3 7.1-35.7 34.8z" />
  <path d="M333.3 432.7h-.1a115.6 115.6 0 0 1-51.1-96 114.3 114.3 0 0 1 7.2-40.3L245.7 340c-35.9-19.9-77.6-54.7-110-114.9l52.1-52a13.7 13.7 0 0 0 0-19.3l-78.3-78.4a13.6 13.6 0 0 0-19.2 0l-78.2 78.3A13.5 13.5 0 0 0 9.8 170c69.3 245.4 252.8 286.1 296.3 292.4a14.1 14.1 0 0 0 7.6.9h1.5v-.5a14.1 14.1 0 0 0 5.9-3.4l21.2-21.2a103 103 0 0 1-9-5.5z" />
  <path d="M276.9 259.5h38.9a96.2 96.2 0 0 0-96.1-96.2v38.9a57.3 57.3 0 0 1 57.2 57.3z" />
  <path d="M346.8 232.3a115 115 0 0 1 37.4-11.1c-17.4-74.7-84.5-130.6-164.5-130.6v38.9a130.1 130.1 0 0 1 127.1 102.8z" />
  <path d="M419.4 222.9a114.3 114.3 0 0 1 41.3 16.6c-10.1-124-114.3-221.9-241-221.9v38.8c99.5 0 182.4 71.9 199.7 166.5z" />
</svg>
