<svg xmlns="http://www.w3.org/2000/svg" viewBox="0 0 500 500">
  <g id="contact-primary-phone-office">
    <path id="phone" d="M65.5,21.1A60.5,60.5,0,0,0,5,81.6V349.3a60.5,60.5,0,0,0,121,0V81.6A60.5,60.5,0,0,0,65.5,21.1Z"/>
    <path id="primary-star" d="M406.4,301.7A88.6,88.6,0,1,0,495,390.3,88.6,88.6,0,0,0,406.4,301.7Zm38.9,148.5-38.9-20.5-38.9,20.5,7.4-43.4-31.5-30.7,43.5-6.3,19.5-39.4,19.5,39.4,43.5,6.3-31.5,30.7Z"/>
    <path id="keypad" d="M136.2,382h163a107.7,107.7,0,0,1,107.2-99.2,91,91,0,0,1,9.1.4V41.3H132.1a77.2,77.2,0,0,1,11.4,40.3V349.3A77.9,77.9,0,0,1,136.2,382Zm88.7-34.2a4.6,4.6,0,0,1-4.6,4.6H190.2a4.6,4.6,0,0,1-4.6-4.6v-30a4.6,4.6,0,0,1,4.6-4.6h30.1a4.6,4.6,0,0,1,4.6,4.6Zm0-71.4a4.7,4.7,0,0,1-4.6,4.6H190.2a4.7,4.7,0,0,1-4.6-4.6V246.3a4.7,4.7,0,0,1,4.6-4.6h30.1a4.7,4.7,0,0,1,4.6,4.6Zm0-71.5a4.6,4.6,0,0,1-4.6,4.6H190.2a4.6,4.6,0,0,1-4.6-4.6v-30a4.6,4.6,0,0,1,4.6-4.6h30.1a4.6,4.6,0,0,1,4.6,4.6Zm74.4,142.9a4.6,4.6,0,0,1-4.6,4.6H264.6a4.6,4.6,0,0,1-4.6-4.6v-30a4.6,4.6,0,0,1,4.6-4.6h30.1a4.6,4.6,0,0,1,4.6,4.6Zm0-71.4a4.7,4.7,0,0,1-4.6,4.6H264.6a4.7,4.7,0,0,1-4.6-4.6V246.3a4.7,4.7,0,0,1,4.6-4.6h30.1a4.7,4.7,0,0,1,4.6,4.6Zm0-71.5a4.6,4.6,0,0,1-4.6,4.6H264.6a4.6,4.6,0,0,1-4.6-4.6v-30a4.6,4.6,0,0,1,4.6-4.6h30.1a4.6,4.6,0,0,1,4.6,4.6Zm74.4,71.5a4.7,4.7,0,0,1-4.6,4.6H339a4.7,4.7,0,0,1-4.6-4.6V246.3a4.7,4.7,0,0,1,4.6-4.6h30.1a4.7,4.7,0,0,1,4.6,4.6Zm0-71.5a4.6,4.6,0,0,1-4.6,4.6H339a4.6,4.6,0,0,1-4.6-4.6v-30a4.6,4.6,0,0,1,4.6-4.6h30.1a4.6,4.6,0,0,1,4.6,4.6ZM165.8,87.9a15,15,0,0,1,15-15H374.9a15,15,0,0,1,15,15v42.2a15,15,0,0,1-15,15H180.8a15,15,0,0,1-15-15Z"/>
  </g>
</svg>
