<svg
  xmlns="http://www.w3.org/2000/svg"
  viewBox="0 0 500 500"
  width="500"
  height="500"
  fill="#000000"
>
  <path d="M443.9 9.5H82.6A48.7 48.7 0 0 0 34 58.1v1.3H23.3a15.9 15.9 0 0 0 0 31.7H34v27.3H23.3a15.8 15.8 0 0 0 0 31.6H34v27.3H23.3a15.9 15.9 0 0 0 0 31.7H34v27.3H23.3a15.8 15.8 0 0 0 0 31.6H34v27.3H23.3a15.9 15.9 0 0 0 0 31.7H34v27.3H23.3a15.8 15.8 0 1 0 0 31.6H34v27.3H23.3a15.9 15.9 0 0 0 0 31.7h10.9a48.6 48.6 0 0 0 48.4 45.7h361.3a48.7 48.7 0 0 0 48.6-48.6V58.1a48.7 48.7 0 0 0-48.6-48.6zm27.5 432.4a27.5 27.5 0 0 1-27.5 27.5H82.6a27.6 27.6 0 0 1-27.3-24.6h10.4a15.9 15.9 0 0 0 0-31.7H55.1v-27.3h10.6a15.8 15.8 0 0 0 0-31.6H55.1v-27.3h10.6a15.9 15.9 0 0 0 0-31.7H55.1v-27.3h10.6a15.8 15.8 0 1 0 0-31.6H55.1V209h10.6a15.9 15.9 0 0 0 0-31.7H55.1V150h10.6a15.8 15.8 0 0 0 0-31.6H55.1V91.1h10.6a15.9 15.9 0 0 0 0-31.7H55.1v-1.3a27.6 27.6 0 0 1 27.5-27.5h361.3a27.5 27.5 0 0 1 27.5 27.5z" />
  <path d="M275.7 241.1a66 66 0 0 0 66-63.9 17.1 17.1 0 0 1-5.6 2.1l-3.7.6-2.7-2.7c-.3-.3-26.8-26.9-54-26.9s-53.7 26.6-53.9 26.9l-2.7 2.7-3.8-.6a18 18 0 0 1-5.6-2.1 66 66 0 0 0 66 63.9z" />
  <path d="M216.5 166.6s28.5-29.1 59.2-29.1 59.3 29.1 59.3 29.1c5.7-1 6.1-6.8 5.3-12.1s-1.9-46.6-19.4-55.1-29.7-10.6-43.6-10.6-26.2 2.1-43.7 10.6-22.7 54.6-22.7 54.6c-.9 5-.8 11.5 5.6 12.6zm59.1-71.8a13.8 13.8 0 1 1-13.8 13.8 13.7 13.7 0 0 1 13.8-13.8z" />
  <path d="M361.1 281.3c-32-27.2-85.4-26.4-85.4-26.4s-53.4-.8-85.3 26.4S149.2 393 149.2 393c132.7 33.7 253 0 253 0s-9.2-84.4-41.1-111.7zm-116.7 43.6h-43.1v-26h43.1z" />
</svg>
