<svg xmlns="http://www.w3.org/2000/svg" viewBox="0 0 500 500">
  <g id="contact-grant">
    <path id="head" d="M213.9,193.7h.1a67.2,67.2,0,0,0,123.5,0h.1a67.5,67.5,0,0,0,5.3-26.3h0a67.9,67.9,0,0,0-5.3-26.3h-.1a67.2,67.2,0,0,0-123.5,0h-.1a66.2,66.2,0,0,0-5.4,26.3h0A65.8,65.8,0,0,0,213.9,193.7Z"/>
    <path id="outline" d="M443.9,9.5H82.6A48.7,48.7,0,0,0,34,58.1v1.3H23.3a15.9,15.9,0,0,0,0,31.7H34v27.3H23.3a15.8,15.8,0,0,0,0,31.6H34v27.3H23.3a15.9,15.9,0,0,0,0,31.7H34v27.3H23.3a15.8,15.8,0,0,0,0,31.6H34v27.3H23.3a15.9,15.9,0,0,0,0,31.7H34v27.3H23.3a15.8,15.8,0,1,0,0,31.6H34v27.3H23.3a15.9,15.9,0,0,0,0,31.7H34.2a48.6,48.6,0,0,0,48.4,45.7H443.9a48.7,48.7,0,0,0,48.6-48.6V58.1A48.7,48.7,0,0,0,443.9,9.5Zm27.5,432.4a27.5,27.5,0,0,1-27.5,27.5H82.6a27.6,27.6,0,0,1-27.3-24.6H65.7a15.9,15.9,0,0,0,0-31.7H55.1V385.8H65.7a15.8,15.8,0,0,0,0-31.6H55.1V326.9H65.7a15.9,15.9,0,0,0,0-31.7H55.1V267.9H65.7a15.8,15.8,0,1,0,0-31.6H55.1V209H65.7a15.9,15.9,0,0,0,0-31.7H55.1V150H65.7a15.8,15.8,0,0,0,0-31.6H55.1V91.1H65.7a15.9,15.9,0,0,0,0-31.7H55.1V58.1A27.6,27.6,0,0,1,82.6,30.6H443.9a27.5,27.5,0,0,1,27.5,27.5Z"/>
    <path id="cuff" d="M240.8,354.7l-.9-.5a5.5,5.5,0,0,0-2.9-.9,6.2,6.2,0,0,0-6.2,6.2,6.2,6.2,0,0,0,6.2,6.2,6.1,6.1,0,0,0,3.8-11Z"/>
    <path id="body" d="M362.5,275.3c-32.5-27.8-86.8-26.9-86.8-26.9s-54.3-.9-86.7,26.9-41.8,113.4-41.8,113.4c134.8,34.3,257.1,0,257.1,0S394.9,303,362.5,275.3ZM245.8,364.9h-.1l-6,4.8-.4.3-5.6,4.4-4.3-5.5h0l-.4-.4-19.4-24.3-.8-1-1.2-1.6-1-1.2-2.5-3.2,5.9-4.7.4-.3,5.6-4.5a7.6,7.6,0,0,1,10.7,1.2l20.2,25.4a2.1,2.1,0,0,0,.4.6l4.3,5.3Zm95.4-41.5c-4.2,3.4-33.4,27.1-36.6,29.1a17.3,17.3,0,0,1-7.9,1.9l-40.1-.7-25.8-31.9s11.5-10.2,15.3-12.7a18.7,18.7,0,0,1,8-2.8H298a9,9,0,0,1,0,17.9H277.7s-3.2,2.1-2.9,5.1a3.8,3.8,0,0,0,3,3.4h23.8c1.4-.8,25.9-20.9,28.8-23.3h.2v-.2h0a9.2,9.2,0,0,1,5.4-1.8,8.9,8.9,0,0,1,8.9,8.9A8.7,8.7,0,0,1,341.2,323.4Z"/>
  </g>
</svg>
