<svg
  xmlns="http://www.w3.org/2000/svg"
  viewBox="0 0 500 500"
  width="500"
  height="500"
  fill="#000000"
>
  <path d="M77.2 18.1A72.2 72.2 0 0 0 5 90.3v319.4a72.3 72.3 0 0 0 144.5 0V90.3a72.3 72.3 0 0 0-72.3-72.2z" />
  <path d="M156.7 42.1a92.1 92.1 0 0 1 13.6 48.2v319.4a92.4 92.4 0 0 1-8.7 39H495V42.1zM267.4 408a5.5 5.5 0 0 1-5.5 5.5h-35.8a5.5 5.5 0 0 1-5.5-5.5v-35.9a5.5 5.5 0 0 1 5.5-5.5h35.8a5.5 5.5 0 0 1 5.5 5.5zm0-85.3a5.5 5.5 0 0 1-5.5 5.5h-35.8a5.5 5.5 0 0 1-5.5-5.5v-35.9a5.4 5.4 0 0 1 5.5-5.4h35.8a5.4 5.4 0 0 1 5.5 5.4zm0-85.3a5.4 5.4 0 0 1-5.5 5.5h-35.8a5.4 5.4 0 0 1-5.5-5.5v-35.8a5.4 5.4 0 0 1 5.5-5.5h35.8a5.4 5.4 0 0 1 5.5 5.5zM356.2 408a5.5 5.5 0 0 1-5.5 5.5h-35.8a5.5 5.5 0 0 1-5.5-5.5v-35.9a5.5 5.5 0 0 1 5.5-5.5h35.8a5.5 5.5 0 0 1 5.5 5.5zm0-85.3a5.5 5.5 0 0 1-5.5 5.5h-35.8a5.5 5.5 0 0 1-5.5-5.5v-35.9a5.4 5.4 0 0 1 5.5-5.4h35.8a5.4 5.4 0 0 1 5.5 5.4zm0-85.3a5.4 5.4 0 0 1-5.5 5.5h-35.8a5.4 5.4 0 0 1-5.5-5.5v-35.8a5.4 5.4 0 0 1 5.5-5.5h35.8a5.4 5.4 0 0 1 5.5 5.5zM445 408a5.5 5.5 0 0 1-5.4 5.5h-35.9a5.5 5.5 0 0 1-5.5-5.5v-35.9a5.5 5.5 0 0 1 5.5-5.5h35.9a5.5 5.5 0 0 1 5.4 5.5zm0-85.3a5.5 5.5 0 0 1-5.4 5.5h-35.9a5.5 5.5 0 0 1-5.5-5.5v-35.9a5.5 5.5 0 0 1 5.5-5.4h35.9a5.4 5.4 0 0 1 5.4 5.4zm0-85.3a5.4 5.4 0 0 1-5.4 5.5h-35.9a5.5 5.5 0 0 1-5.5-5.5v-35.8a5.5 5.5 0 0 1 5.5-5.5h35.9a5.4 5.4 0 0 1 5.4 5.5zm19.4-89.3a18 18 0 0 1-17.9 18H214.8a18 18 0 0 1-17.9-18V97.7a17.9 17.9 0 0 1 17.9-17.9h231.7a17.9 17.9 0 0 1 17.9 17.9z" />
</svg>
