<svg xmlns="http://www.w3.org/2000/svg" viewBox="0 0 500 500">
  <g id="contact-email-work">
    <path id="top" d="M123.1,162.5h75.5V128.8H305.4v33.7h75.5v3.7L476,71.1a50.8,50.8,0,0,0-32.1-11.4H56.1a51,51,0,0,0-30.3,10L123.1,167Z"/>
    <rect id="mid-3" x="218.2" y="148.4" width="67.7" height="14.11"/>
    <polygon id="mid-2" points="361.3 252.7 261.8 252.7 261.8 273.7 242.2 273.7 242.2 252.7 142.7 252.7 142.7 346.5 361.3 346.5 361.3 252.7"/>
    <rect id="mid-1" x="142.7" y="182.1" width="218.6" height="51.04"/>
    <path id="bottom" d="M489,86.7,380.9,194.8V366.1H123.1V195.7L12.2,84.8a50.4,50.4,0,0,0-7.2,26V389.2a51.1,51.1,0,0,0,51.1,51.1H443.9A51.1,51.1,0,0,0,495,389.2V110.8A51.8,51.8,0,0,0,489,86.7Z"/>
  </g>
</svg>
