<svg xmlns="http://www.w3.org/2000/svg" viewBox="0 0 500 500">
  <g id="contact-primary-phone-home">
    <path id="primary-star" d="M403.2,307.6A91.8,91.8,0,1,0,495,399.4,91.8,91.8,0,0,0,403.2,307.6Zm40.3,153.9-40.3-21.2-40.3,21.2,7.7-44.9-32.7-31.8,45.1-6.6,20.2-40.8,20.1,40.8,45.1,6.6-32.6,31.8Z"/>
    <path id="phone" d="M138,189.2V112.4c38-10.9,90.1-15.6,153.3,3.4v71a13.2,13.2,0,0,0,13.2,13.1H411.1a13.2,13.2,0,0,0,13.2-13.1V80.1a13,13,0,0,0-9.6-12.6C200.1-52.7,47.2,44.7,13.3,70.1a13.1,13.1,0,0,0-5.8,4.6l-1,1,.3.3a12.7,12.7,0,0,0-1.7,6.3V189.1a13.1,13.1,0,0,0,13.1,13H124.8A13.1,13.1,0,0,0,138,189.2Z"/>
    <path id="keypad" d="M291.8,399.4a119,119,0,0,1,1.1-15.9H281.8a9,9,0,0,1-9.1-9V356.7a9.1,9.1,0,0,1,9.1-9.1h17.8a9.3,9.3,0,0,1,4.4,1.2,111.6,111.6,0,0,1,85.9-60l-15-69.3H304.4a33,33,0,0,1-32.8-32.6V175.6H246.8v44.5H182.5V175.6H157.6v13.7a32.6,32.6,0,0,1-32.7,32.4H53.7L21.2,372.8v72.4a12.3,12.3,0,0,0,12.3,12.3H308.2A110.5,110.5,0,0,1,291.8,399.4ZM272.7,263.1a9,9,0,0,1,9.1-9h17.8a9,9,0,0,1,9.1,9v17.8a9.1,9.1,0,0,1-9.1,9.1H281.8a9.1,9.1,0,0,1-9.1-9.1Zm0,46.8a9.1,9.1,0,0,1,9.1-9.1h17.8a9.1,9.1,0,0,1,9.1,9.1v17.8a9.1,9.1,0,0,1-9.1,9.1H281.8a9.1,9.1,0,0,1-9.1-9.1ZM162.5,374.5a9,9,0,0,1-9,9H135.7a9,9,0,0,1-9.1-9V356.7a9.1,9.1,0,0,1,9.1-9.1h17.8a9,9,0,0,1,9,9.1Zm0-46.8a9,9,0,0,1-9,9.1H135.7a9.1,9.1,0,0,1-9.1-9.1V309.9a9.1,9.1,0,0,1,9.1-9.1h17.8a9,9,0,0,1,9,9.1Zm0-46.8a9,9,0,0,1-9,9.1H135.7a9.1,9.1,0,0,1-9.1-9.1V263.1a9,9,0,0,1,9.1-9h17.8a9,9,0,0,1,9,9Zm73.1,93.6a9,9,0,0,1-9.1,9H208.8a9,9,0,0,1-9.1-9V356.7a9.1,9.1,0,0,1,9.1-9.1h17.7a9.1,9.1,0,0,1,9.1,9.1Zm0-46.8a9.1,9.1,0,0,1-9.1,9.1H208.8a9.1,9.1,0,0,1-9.1-9.1V309.9a9.1,9.1,0,0,1,9.1-9.1h17.7a9.1,9.1,0,0,1,9.1,9.1Zm0-46.8a9.1,9.1,0,0,1-9.1,9.1H208.8a9.1,9.1,0,0,1-9.1-9.1V263.1a9,9,0,0,1,9.1-9h17.7a9,9,0,0,1,9.1,9Z"/>
  </g>
</svg>
