<svg xmlns="http://www.w3.org/2000/svg" viewBox="0 0 500 500">
  <g id="contact-billing">
    <path id="head" d="M213.9,193.7h.1a67.2,67.2,0,0,0,123.5,0h.1a67.5,67.5,0,0,0,5.3-26.3h0a67.9,67.9,0,0,0-5.3-26.3h-.1a67.2,67.2,0,0,0-123.5,0h-.1a66.2,66.2,0,0,0-5.4,26.3h0A65.8,65.8,0,0,0,213.9,193.7Z"/>
    <path id="outline" d="M443.9,9.5H82.6A48.7,48.7,0,0,0,34,58.1v1.3H23.3a15.9,15.9,0,0,0,0,31.7H34v27.3H23.3a15.8,15.8,0,0,0,0,31.6H34v27.3H23.3a15.9,15.9,0,0,0,0,31.7H34v27.3H23.3a15.8,15.8,0,0,0,0,31.6H34v27.3H23.3a15.9,15.9,0,0,0,0,31.7H34v27.3H23.3a15.8,15.8,0,1,0,0,31.6H34v27.3H23.3a15.9,15.9,0,0,0,0,31.7H34.2a48.6,48.6,0,0,0,48.4,45.7H443.9a48.7,48.7,0,0,0,48.6-48.6V58.1A48.7,48.7,0,0,0,443.9,9.5Zm27.5,432.4a27.5,27.5,0,0,1-27.5,27.5H82.6a27.6,27.6,0,0,1-27.3-24.6H65.7a15.9,15.9,0,0,0,0-31.7H55.1V385.8H65.7a15.8,15.8,0,0,0,0-31.6H55.1V326.9H65.7a15.9,15.9,0,0,0,0-31.7H55.1V267.9H65.7a15.8,15.8,0,1,0,0-31.6H55.1V209H65.7a15.9,15.9,0,0,0,0-31.7H55.1V150H65.7a15.8,15.8,0,0,0,0-31.6H55.1V91.1H65.7a15.9,15.9,0,0,0,0-31.7H55.1V58.1A27.6,27.6,0,0,1,82.6,30.6H443.9a27.5,27.5,0,0,1,27.5,27.5Z"/>
    <path id="body" d="M362.5,275.3c-32.5-27.8-86.8-26.9-86.8-26.9s-54.3-.9-86.7,26.9-41.8,113.4-41.8,113.4c134.8,34.3,257.1,0,257.1,0S394.9,303,362.5,275.3Zm-80.8,93.9v13.6h-13V370.1c-8.9-.4-17.6-2.8-22.6-5.7l3.9-15.5a48,48,0,0,0,22.1,5.8c7.6,0,12.8-2.9,12.8-8.2s-4.3-8.3-14.1-11.6c-14.2-4.8-23.9-11.5-23.9-24.4s8.2-20.8,22.4-23.6V274.2h13.1v11.7c8.9.4,14.9,2.3,19.3,4.4l-3.9,15.1c-3.5-1.5-9.6-4.6-19.2-4.6s-11.4,3.8-11.4,7.5,4.7,7.2,16,11.4c15.8,5.6,22.2,12.9,22.2,24.9S297,366.5,281.7,369.2Z"/>
  </g>
</svg>
