<svg
  xmlns="http://www.w3.org/2000/svg"
  viewBox="0 0 500 500"
  width="500"
  height="500"
  fill="#000000"
>
  <path d="M213.9 193.7h.1a67.2 67.2 0 0 0 123.5 0h.1a67.5 67.5 0 0 0 5.3-26.3 67.9 67.9 0 0 0-5.3-26.3h-.1a67.2 67.2 0 0 0-123.5 0h-.1a66.2 66.2 0 0 0-5.4 26.3 65.8 65.8 0 0 0 5.4 26.3z" />
  <path d="M443.9 9.5H82.6A48.7 48.7 0 0 0 34 58.1v1.3H23.3a15.9 15.9 0 0 0 0 31.7H34v27.3H23.3a15.8 15.8 0 0 0 0 31.6H34v27.3H23.3a15.9 15.9 0 0 0 0 31.7H34v27.3H23.3a15.8 15.8 0 0 0 0 31.6H34v27.3H23.3a15.9 15.9 0 0 0 0 31.7H34v27.3H23.3a15.8 15.8 0 1 0 0 31.6H34v27.3H23.3a15.9 15.9 0 0 0 0 31.7h10.9a48.6 48.6 0 0 0 48.4 45.7h361.3a48.7 48.7 0 0 0 48.6-48.6V58.1a48.7 48.7 0 0 0-48.6-48.6zm27.5 432.4a27.5 27.5 0 0 1-27.5 27.5H82.6a27.6 27.6 0 0 1-27.3-24.6h10.4a15.9 15.9 0 0 0 0-31.7H55.1v-27.3h10.6a15.8 15.8 0 0 0 0-31.6H55.1v-27.3h10.6a15.9 15.9 0 0 0 0-31.7H55.1v-27.3h10.6a15.8 15.8 0 1 0 0-31.6H55.1V209h10.6a15.9 15.9 0 0 0 0-31.7H55.1V150h10.6a15.8 15.8 0 0 0 0-31.6H55.1V91.1h10.6a15.9 15.9 0 0 0 0-31.7H55.1v-1.3a27.6 27.6 0 0 1 27.5-27.5h361.3a27.5 27.5 0 0 1 27.5 27.5z" />
  <path d="M240.8 354.7l-.9-.5a5.5 5.5 0 0 0-2.9-.9 6.2 6.2 0 0 0-6.2 6.2 6.2 6.2 0 0 0 6.2 6.2 6.1 6.1 0 0 0 3.8-11z" />
  <path d="M362.5 275.3c-32.5-27.8-86.8-26.9-86.8-26.9s-54.3-.9-86.7 26.9-41.8 113.4-41.8 113.4c134.8 34.3 257.1 0 257.1 0s-9.4-85.7-41.8-113.4zm-116.7 89.6h-.1l-6 4.8-.4.3-5.6 4.4-4.3-5.5-.4-.4-19.4-24.3-.8-1-1.2-1.6-1-1.2-2.5-3.2 5.9-4.7.4-.3 5.6-4.5a7.6 7.6 0 0 1 10.7 1.2l20.2 25.4a2.1 2.1 0 0 0 .4.6l4.3 5.3zm95.4-41.5c-4.2 3.4-33.4 27.1-36.6 29.1a17.3 17.3 0 0 1-7.9 1.9l-40.1-.7-25.8-31.9s11.5-10.2 15.3-12.7a18.7 18.7 0 0 1 8-2.8H298a9 9 0 0 1 0 17.9h-20.3s-3.2 2.1-2.9 5.1a3.8 3.8 0 0 0 3 3.4h23.8c1.4-.8 25.9-20.9 28.8-23.3h.2v-.2a9.2 9.2 0 0 1 5.4-1.8 8.9 8.9 0 0 1 8.9 8.9 8.7 8.7 0 0 1-3.7 7.1z" />
</svg>
