<svg xmlns="http://www.w3.org/2000/svg" viewBox="0 0 500 500">
  <g id="contact-staff">
    <path id="outline" d="M443.9,9.5H82.6A48.7,48.7,0,0,0,34,58.1v1.3H23.3a15.9,15.9,0,0,0,0,31.7H34v27.3H23.3a15.8,15.8,0,0,0,0,31.6H34v27.3H23.3a15.9,15.9,0,0,0,0,31.7H34v27.3H23.3a15.8,15.8,0,0,0,0,31.6H34v27.3H23.3a15.9,15.9,0,0,0,0,31.7H34v27.3H23.3a15.8,15.8,0,1,0,0,31.6H34v27.3H23.3a15.9,15.9,0,0,0,0,31.7H34.2a48.6,48.6,0,0,0,48.4,45.7H443.9a48.7,48.7,0,0,0,48.6-48.6V58.1A48.7,48.7,0,0,0,443.9,9.5Zm27.5,432.4a27.5,27.5,0,0,1-27.5,27.5H82.6a27.6,27.6,0,0,1-27.3-24.6H65.7a15.9,15.9,0,0,0,0-31.7H55.1V385.8H65.7a15.8,15.8,0,0,0,0-31.6H55.1V326.9H65.7a15.9,15.9,0,0,0,0-31.7H55.1V267.9H65.7a15.8,15.8,0,1,0,0-31.6H55.1V209H65.7a15.9,15.9,0,0,0,0-31.7H55.1V150H65.7a15.8,15.8,0,0,0,0-31.6H55.1V91.1H65.7a15.9,15.9,0,0,0,0-31.7H55.1V58.1A27.6,27.6,0,0,1,82.6,30.6H443.9a27.5,27.5,0,0,1,27.5,27.5Z"/>
    <path id="head" d="M275.7,241.1a66,66,0,0,0,66-63.9,17.1,17.1,0,0,1-5.6,2.1l-3.7.6-2.7-2.7c-.3-.3-26.8-26.9-54-26.9s-53.7,26.6-53.9,26.9l-2.7,2.7-3.8-.6a18,18,0,0,1-5.6-2.1A66,66,0,0,0,275.7,241.1Z"/>
    <path id="hat" d="M216.5,166.6s28.5-29.1,59.2-29.1S335,166.6,335,166.6c5.7-1,6.1-6.8,5.3-12.1h0s-1.9-46.6-19.4-55.1-29.7-10.6-43.6-10.6-26.2,2.1-43.7,10.6S210.9,154,210.9,154h0C210,159,210.1,165.5,216.5,166.6Zm59.1-71.8a13.8,13.8,0,1,1-13.8,13.8A13.7,13.7,0,0,1,275.6,94.8Z"/>
    <path id="body" d="M361.1,281.3c-32-27.2-85.4-26.4-85.4-26.4s-53.4-.8-85.3,26.4S149.2,393,149.2,393c132.7,33.7,253,0,253,0S393,308.6,361.1,281.3ZM244.4,324.9H201.3v-26h43.1Z"/>
  </g>
</svg>
