<svg xmlns="http://www.w3.org/2000/svg" viewBox="0 0 500 500">
  <g id="contact-site">
    <path id="body" d="M363.6,275.5c-32.8-28-87.6-27.1-87.6-27.1s-54.9-.9-87.6,27.1-42.3,114.6-42.3,114.6c136.2,34.6,259.7,0,259.7,0S396.4,303.5,363.6,275.5Z"/>
    <path id="head" d="M213.5,193.2h.1a68,68,0,0,0,124.8,0h.1a69.4,69.4,0,0,0,5.4-26.6h0a69,69,0,0,0-5.4-26.6h-.1a67.9,67.9,0,0,0-124.8,0h-.1a67.3,67.3,0,0,0-5.4,26.6h0A67.6,67.6,0,0,0,213.5,193.2Z"/>
    <path id="outline" d="M445.9,7.1H81A49.1,49.1,0,0,0,31.9,56.2v1.3H21a16,16,0,0,0,0,32H31.9V117H21a16,16,0,0,0,0,32H31.9v27.6H21a16,16,0,0,0,0,32H31.9v27.5H21a16,16,0,0,0,0,32H31.9v27.6H21a16,16,0,1,0,0,31.9H31.9v27.6H21a16,16,0,0,0,0,32H31.9v27.6H21a16,16,0,1,0,0,31.9H31.9A49.3,49.3,0,0,0,81,492.9H445.9A49.1,49.1,0,0,0,495,443.8V56.2A49.1,49.1,0,0,0,445.9,7.1Zm27.8,436.7a27.9,27.9,0,0,1-27.8,27.8H81a27.9,27.9,0,0,1-27.7-24.9H63.8a16,16,0,1,0,0-31.9H53.2V387.2H63.8a16,16,0,1,0,0-32H53.2V327.6H63.8a16,16,0,1,0,0-31.9H53.2V268.1H63.8a16,16,0,0,0,0-32H53.2V208.6H63.8a16,16,0,0,0,0-32H53.2V149H63.8a16,16,0,1,0,0-32H53.2V89.5H63.8a16,16,0,1,0,0-32H53.2V56.2A27.8,27.8,0,0,1,81,28.4H445.9a27.9,27.9,0,0,1,27.8,27.8Z"/>
  </g>
</svg>
