<svg
  xmlns="http://www.w3.org/2000/svg"
  viewBox="0 0 500 500"
  width="500"
  height="500"
  fill="#ffffff"
>
  <path d="M363.6 275.5c-32.8-28-87.6-27.1-87.6-27.1s-54.9-.9-87.6 27.1-42.3 114.6-42.3 114.6c136.2 34.6 259.7 0 259.7 0s-9.4-86.6-42.2-114.6z" />
  <path d="M213.5 193.2h.1a68 68 0 0 0 124.8 0h.1a69.4 69.4 0 0 0 5.4-26.6 69 69 0 0 0-5.4-26.6h-.1a67.9 67.9 0 0 0-124.8 0h-.1a67.3 67.3 0 0 0-5.4 26.6 67.6 67.6 0 0 0 5.4 26.6z" />
  <path d="M445.9 7.1H81a49.1 49.1 0 0 0-49.1 49.1v1.3H21a16 16 0 0 0 0 32h10.9V117H21a16 16 0 0 0 0 32h10.9v27.6H21a16 16 0 0 0 0 32h10.9v27.5H21a16 16 0 0 0 0 32h10.9v27.6H21a16 16 0 1 0 0 31.9h10.9v27.6H21a16 16 0 0 0 0 32h10.9v27.6H21a16 16 0 1 0 0 31.9h10.9A49.3 49.3 0 0 0 81 492.9h364.9a49.1 49.1 0 0 0 49.1-49.1V56.2a49.1 49.1 0 0 0-49.1-49.1zm27.8 436.7a27.9 27.9 0 0 1-27.8 27.8H81a27.9 27.9 0 0 1-27.7-24.9h10.5a16 16 0 1 0 0-31.9H53.2v-27.6h10.6a16 16 0 1 0 0-32H53.2v-27.6h10.6a16 16 0 1 0 0-31.9H53.2v-27.6h10.6a16 16 0 0 0 0-32H53.2v-27.5h10.6a16 16 0 0 0 0-32H53.2V149h10.6a16 16 0 1 0 0-32H53.2V89.5h10.6a16 16 0 1 0 0-32H53.2v-1.3A27.8 27.8 0 0 1 81 28.4h364.9a27.9 27.9 0 0 1 27.8 27.8z" />
</svg>
