<svg
  xmlns="http://www.w3.org/2000/svg"
  viewBox="0 0 500 500"
  width="500"
  height="500"
  fill="#000000"
>
  <path d="M205.9 130.8a8.3 8.3 0 0 1 11.4 0l62.6 59.2L402.2 67.7a43.3 43.3 0 0 0-27.1-9.6h-327a43 43 0 0 0-25.6 8.5l122.2 122.1z" />
  <path d="M274.1 313.3V207.2l-62.5-59-62.5 59v106.1h54.2v-60.2h16.5v60.2z" />
  <path d="M414.5 280.9a80.5 80.5 0 1 0 80.5 80.5 80.4 80.4 0 0 0-80.5-80.5zm35.3 134.9l-35.3-18.6-35.4 18.6 6.8-39.4-28.6-27.9 39.5-5.7 17.7-35.8 17.7 35.8 39.5 5.7-28.6 27.9z" />
  <path d="M316.8 361.4a97.8 97.8 0 0 1 97.7-97.7h3.7V101.2a43.6 43.6 0 0 0-5.1-20.3L292.3 201.8l12.9 12.1a8.5 8.5 0 0 1 2 9.1 8.4 8.4 0 0 1-7.7 5.2h-8.9v93.3a8.3 8.3 0 0 1-8.3 8.3H140.9a8.3 8.3 0 0 1-8.3-8.3v-93.3h-8.9a8.3 8.3 0 0 1-5.7-14.3l14.2-13.4L11.1 79.3A42.3 42.3 0 0 0 5 101.2V336a43.1 43.1 0 0 0 43.1 43.1h270.3a104 104 0 0 1-1.6-17.7z" />
</svg>
