<svg
  xmlns="http://www.w3.org/2000/svg"
  viewBox="0 0 500 500"
  width="500"
  height="500"
  fill="#ffffff"
>
  <path d="M349.3 102h-15.5a43.6 43.6 0 0 0-43.5-43.5V43a59.1 59.1 0 0 1 59 59z" />
  <path d="M386.4 101.1h-15.5a80.7 80.7 0 0 0-80.6-80.6V5a96.2 96.2 0 0 1 96.1 96.1z" />
  <rect
    x="71.3"
    y="251.7"
    width="227.3"
    height="15.54"
    transform="rotate(-45 184.98 259.479)"
  />
  <rect
    x="163.7"
    y="274.2"
    width="107.9"
    height="15.54"
    transform="rotate(-45 217.68 281.934)"
  />
  <path d="M358.2 308.8a93.1 93.1 0 1 0 93.1 93.1 93.1 93.1 0 0 0-93.1-93.1zm40.9 156l-40.9-21.5-40.9 21.5 7.8-45.5-33-32.2 45.7-6.7 20.4-41.4 20.4 41.4 45.7 6.7-33 32.2z" />
  <path d="M245.2 401.9a112 112 0 0 1 .8-13H70.2V130h229.5v175.3a120.5 120.5 0 0 1 21.5-10.1V110.6A39.3 39.3 0 0 0 282 71.4H88a39.3 39.3 0 0 0-39.3 39.2v310.1A39.2 39.2 0 0 0 88 459.9h173.3a112 112 0 0 1-16.1-58zM147.6 90.7h74.8v15.6h-74.8zM185 445.9a21.4 21.4 0 1 1 21.4-21.4 21.4 21.4 0 0 1-21.4 21.4z" />
</svg>
