<svg
  xmlns="http://www.w3.org/2000/svg"
  viewBox="0 0 500 500"
  width="500"
  height="500"
  fill="#000000"
>
  <circle cx="107.4" cy="232.6" r="57.9" />
  <path d="M361.1 108.3h-25.4c0-.3.1-.6.1-1V83a12.6 12.6 0 0 0-.5-3.3c1.4-10.5.6-21.8-16.9-36.9A69.2 69.2 0 0 0 288 28v80.4h-15.6V26.2h-.1V23a8.9 8.9 0 0 0-8.9-9h-26.8a8.9 8.9 0 0 0-8.9 9v3.2a.1.1 0 0 0-.1.1v82.1H212V28a68.7 68.7 0 0 0-30.4 14.8c-17.5 15.1-18.3 26.4-16.9 36.9a12.6 12.6 0 0 0-.5 3.3v24.3c0 .4.1.7.1 1h-25.4l-.2.2v33.7c0 .1.1.1.2.1h222.2c.1 0 .2 0 .2-.1v-33.7z" />
  <path d="M180.9 157.9a76 76 0 0 0-5.9 29.4 75 75 0 0 0 150 0 76 76 0 0 0-5.9-29.4z" />
  <path d="M122 465.6s9.3-114.6 41.6-151.7 86.4-36 86.4-36 54-1.1 86.4 36S378 465.6 378 465.6s-121.8 45.8-256 0z" />
  <path d="M138.7 325.2c-21.3-20.1-48.3-19.4-48.3-19.4s-36-.9-57.6 30.3S5.5 442.4 5.5 442.4c-6.6 2.4 51 28.8 99.7 21.6 1.1-12.5 9.5-97.3 33.5-138.8z" />
  <circle cx="394.1" cy="232.6" r="57.9" />
  <path d="M361.3 325.2c21.3-20.1 48.3-19.4 48.3-19.4s36-.9 57.6 30.3 27.3 106.3 27.3 106.3c6.6 2.4-51 28.8-99.7 21.6-1.1-12.5-9.5-97.3-33.5-138.8z" />
</svg>
