<svg
  xmlns="http://www.w3.org/2000/svg"
  viewBox="0 0 500 500"
  width="500"
  height="500"
  fill="#ffffff"
>
  <path d="M374.5 110.6H346c0-.4.1-.7.1-1.1V78.6c0-13.2.2-24.5-19.4-41.4a77.2 77.2 0 0 0-34.1-16.6v90H275V15a10 10 0 0 0-10-10h-30a10 10 0 0 0-10 10v3.6h-.1v91.9h-17.5V20.7a75.6 75.6 0 0 0-34 16.5c-19.6 16.9-19.5 29.3-19.5 41.4v30.9c0 .4.1.7.1 1.1h-28.5c-.1 0-.1.1-.1.2v37.7c0 .1 0 .2.1.2h249c.1 0 .1-.1.1-.2v-37.7c0-.1 0-.2-.1-.2z" />
  <path d="M172.7 166.1a84 84 0 1 0 154.6 0z" />
  <path d="M89.3 476s11.6-107.2 52.2-141.9S250 300.5 250 300.5s67.9-1 108.5 33.6S410.7 476 410.7 476s-152.9 42.8-321.4 0z" />
</svg>
