<svg xmlns="http://www.w3.org/2000/svg" viewBox="0 0 500 500">
  <g id="crew-leader">
    <path id="hat" d="M374.5,110.6H346c0-.4.1-.7.1-1.1V78.6c0-13.2.2-24.5-19.4-41.4a77.2,77.2,0,0,0-34.1-16.6v90H275v-92h0V15A10,10,0,0,0,265,5H235a10,10,0,0,0-10,10v3.6h-.1v91.9H207.4V20.7a75.6,75.6,0,0,0-34,16.5c-19.6,16.9-19.5,29.3-19.5,41.4v30.9c0,.4.1.7.1,1.1H125.5c-.1,0-.1.1-.1.2v37.7c0,.1,0,.2.1.2h249c.1,0,.1-.1.1-.2V110.8C374.6,110.7,374.6,110.6,374.5,110.6Z"/>
    <path id="head" d="M172.7,166.1a84,84,0,1,0,154.6,0Z"/>
    <path id="body" d="M89.3,476s11.6-107.2,52.2-141.9S250,300.5,250,300.5s67.9-1,108.5,33.6S410.7,476,410.7,476,257.8,518.8,89.3,476Z"/>
  </g>
</svg>
