<svg xmlns="http://www.w3.org/2000/svg" viewBox="0 0 500 500">
  <g id="crew-leader-discrepency">
    <path id="hat" d="M308.2,96.6H283.5c0-.3.1-.6.1-.9V68.8c0-10.4.1-21.2-17-35.8a65.8,65.8,0,0,0-29.5-14.4V96.7H221.9V16.8h0V13.7A8.7,8.7,0,0,0,213.2,5h-26a8.7,8.7,0,0,0-8.7,8.7v3.1h-.1V96.7H163.2V18.6A65.5,65.5,0,0,0,133.8,33c-17.1,14.6-17,25.4-17,35.8V95.7c0,.3.1.6.1.9H92.2a.2.2,0,0,0-.2.2v32.7l.2.2h216a.2.2,0,0,0,.2-.2V96.8A.2.2,0,0,0,308.2,96.6Z"/>
    <path id="head" d="M133.1,144.8a72.9,72.9,0,1,0,140,28.6,71.7,71.7,0,0,0-5.8-28.6Z"/>
    <path id="body" d="M307.1,305.6a70.2,70.2,0,0,0-12.8-15c-35.2-30.1-94.1-29.2-94.1-29.2s-58.9-.9-94.1,29.2S60.8,413.7,60.8,413.7C125.2,430.1,187,432,235.9,429.1Z"/>
    <path id="error-triangle" d="M437.7,478,347.8,322.3a11.4,11.4,0,0,0-9.8-5.7h0a11.6,11.6,0,0,0-9.8,5.7L238.3,478a10.9,10.9,0,0,0,0,11.3,11.1,11.1,0,0,0,9.8,5.7H427.9a11.1,11.1,0,0,0,9.8-5.7A11.4,11.4,0,0,0,437.7,478ZM349.9,358.4l-.8,63.6h-22l-.5-63.6ZM338.1,477.2c-10.4,0-17.4-7.5-17.4-17.6s7.2-17.5,17.4-17.5,17,7.3,17.2,17.5S348.5,477.2,338.1,477.2Z"/>
  </g>
</svg>
