<svg xmlns="http://www.w3.org/2000/svg" viewBox="0 0 500 500">
  <g id="daily">
    <path id="timer-outline" d="M148.5,267.2A107,107,0,0,0,255.4,374.1c59,0,107-48,107-106.9,0-56.5-44.1-102.8-99.7-106.6v-9.8H270V130.3H235v20.5h7.3v10.3C189.5,167.7,148.5,212.7,148.5,267.2Zm193.4,0a86.5,86.5,0,1,1-86.5-86.5A86.5,86.5,0,0,1,341.9,267.2Z"/>
    <path id="top-arrow" d="M268.2,60.8,250.1,95.6l102-4.4L297.3,5,278.2,41.7C217,30.1,150.3,52.3,101.3,101.3c-76,76-83.8,191.8-17.4,258.1l14.4-14.5C40,286.6,47.8,183.8,115.8,115.8,158.4,73.2,215.3,53.1,268.2,60.8Z"/>
    <path id="bottom-arrow" d="M416,140.6l-14.5,14.5c28.1,28,41.9,67.2,38.8,110.2s-23.1,85.8-56.2,118.9c-42.6,42.6-99.5,62.7-152.4,55l18.1-34.8-102,4.4L202.6,495l19.1-36.7a176.1,176.1,0,0,0,32.4,3.1c51.5,0,104-22.2,144.5-62.7,36.6-36.6,58.7-83.5,62.1-132S448.4,172.9,416,140.6Z"/>
    <rect id="timer-button" x="333.9" y="160.9" width="20.5" height="34.97" transform="translate(-25.3 295.7) rotate(-45)"/>
    <path id="two" d="M217.2,289.9l6.9-5.7c10.8-9.7,19.9-19.7,19.9-32.3s-9.3-23.4-26.3-23.4a41.3,41.3,0,0,0-24.5,7.7l5,12.5c3.9-3,9.5-6.2,16-6.2,8.6,0,12.3,4.8,12.3,10.9-.2,8.8-8.2,17.2-24.5,31.8l-9.7,8.8v10.5h53.1V290.2H217.2Z"/>
    <path id="four" d="M254,286.7h33.2v17.8h16.5V286.7h9V273.6h-9V229.7H282.3L254,275.3Zm16.4-13.3,10-16.4c2.5-4.7,4.5-9.1,6.9-13.9h.4c-.3,4.8-.5,9.4-.5,13.9v16.6H270.4Z"/>
  </g>
</svg>
