<svg xmlns="http://www.w3.org/2000/svg" viewBox="0 0 500 500">
  <g id="dash-exiting-early">
    <path id="body" d="M259.62,439.66a23.36,23.36,0,1,0,45.06-12.31l-25.06-91.73a23.41,23.41,0,0,0-22.53-17.19h-55.4L221.8,250.7l63.62,20.7A23.34,23.34,0,0,0,311.56,263L358,199.15a23.36,23.36,0,1,0-37.75-27.51L283.8,221.73l-157.13-50.9a22.8,22.8,0,0,0-4.69-1,23.35,23.35,0,0,0-21.73,9.39L52.41,244.87a23.36,23.36,0,1,0,37.76,27.5l37.7-51.78,20,6.82-28.49,94.06L99.59,374.2,28.5,377.86a23.36,23.36,0,0,0,1.19,46.68c.36,0,.74,0,1.21,0l86.38-4.45A23.35,23.35,0,0,0,138,405l14.93-39.81h86.38Z" style="fill: #231f20"/>
    <path id="head" d="M218.05,188.52a40.94,40.94,0,1,0-40.94-40.94A40.93,40.93,0,0,0,218.05,188.52Z" style="fill: #231f20"/>
    <path id="door" d="M446.28,5h-193a47.44,47.44,0,0,0-47.38,47.38V87.89h22.4V52.38a25,25,0,0,1,25-25H402.72V281l66.41,68.81v15.55l-66.41,68.81V472.6H213.09A47.34,47.34,0,0,0,253.27,495h193a47.44,47.44,0,0,0,47.38-47.38V52.38A47.44,47.44,0,0,0,446.28,5Z" style="fill: #231f20"/>
    <polygon id="arrow" points="402.72 313.27 402.72 313.27 386.57 296.54 386.57 336.14 331.52 336.14 331.52 379.06 386.57 379.06 386.57 418.66 445.51 357.6 445.51 357.6 445.51 357.6 402.72 313.27" style="fill: #231f20"/>
  </g>
</svg>
