<svg xmlns="http://www.w3.org/2000/svg" viewBox="0 0 500 500">
  <g id="dash-revenue-to-date">
    <rect id="outline-l" x="112.28" y="5" width="22.43" height="38.57"/>
    <rect id="outline-r" x="302.52" y="5" width="22.43" height="38.57"/>
    <rect id="date-1" x="89.21" y="136.42" width="68.56" height="68.31"/>
    <rect id="date-2" x="184.33" y="136.42" width="68.56" height="68.31"/>
    <rect id="date-3" x="279.45" y="136.42" width="68.56" height="68.31"/>
    <rect id="date-7" x="89.21" y="323.73" width="68.56" height="68.31"/>
    <rect id="date-4" x="89.21" y="230.07" width="68.56" height="68.31"/>
    <rect id="date-5" x="184.33" y="230.07" width="68.56" height="68.31"/>
    <path id="date-6" d="M348,251.78V230.07H279.45v54.28A127.9,127.9,0,0,1,348,251.78Z"/>
    <path id="outline" d="M258.4,446.74H96.93a61.46,61.46,0,0,1-61.49-61.27V143A61.46,61.46,0,0,1,96.93,81.72H340.29A61.46,61.46,0,0,1,401.79,143V255.45a127.15,127.15,0,0,1,22.42,8.79V143c0-46.1-37.65-83.62-83.92-83.62H96.93C50.66,59.37,13,96.89,13,143V385.47c0,46.11,37.65,83.62,83.92,83.62H276.58A128.21,128.21,0,0,1,258.4,446.74Z"/>
    <path id="dollar" d="M375.55,272.13A111.44,111.44,0,1,0,487,383.57,111.43,111.43,0,0,0,375.55,272.13Zm9.79,178v22.18H364V451.67c-14.59-.65-28.74-4.57-37-9.36l6.53-25.46a76.78,76.78,0,0,0,36.12,9.58c12.4,0,20.88-4.78,20.88-13.49,0-8.28-7-13.49-23.05-18.93-23.29-7.84-39.17-18.72-39.17-39.81,0-19.15,13.49-34.17,36.77-38.74V294.8h21.32v19.14c14.58.65,24.37,3.7,31.55,7.17l-6.31,24.59c-5.65-2.39-15.66-7.39-31.33-7.39-14.14,0-18.72,6.09-18.72,12.19,0,7.17,7.62,11.74,26.11,18.71,25.9,9.14,36.34,21.09,36.34,40.68C424.07,429.25,410.37,445.79,385.34,450.15Z"/>
  </g>
</svg>
