<svg xmlns="http://www.w3.org/2000/svg" viewBox="0 0 500 500">
  <g id="demographics">
    <g id="member">
      <path id="body" d="M188.5,181.8s4.6-41.7,20.3-55.1S251,113.6,251,113.6s26.3-.4,42.1,13.1,20.3,55.1,20.3,55.1S254,198.4,188.5,181.8Z"/>
      <path id="head" d="M283.6,74.2A33.3,33.3,0,0,0,281,61.4h-.1a32.6,32.6,0,0,0-59.9,0h-.1a33.3,33.3,0,0,0-2.6,12.8h0a33.3,33.3,0,0,0,2.6,12.8h.1a32.5,32.5,0,0,0,59.9,0h.1a33.3,33.3,0,0,0,2.6-12.8Z"/>
    </g>
    <path id="bottom-arch" d="M249.9,442.5a166.8,166.8,0,0,1-97.5-31.4,97.6,97.6,0,0,1-12.7,10.4,183,183,0,0,0,222.5-1.8,93.7,93.7,0,0,1-12.1-10.6A166.4,166.4,0,0,1,249.9,442.5Z"/>
    <path id="right-arch" d="M340.3,115.4a84.5,84.5,0,0,1-4.2,15.9A167.8,167.8,0,0,1,416,253.6h.2a94.2,94.2,0,0,1,16,1.4A183.9,183.9,0,0,0,340.3,115.4Z"/>
    <path id="left-arch" d="M159.4,115.4c-50.3,28.7-85.8,80.3-92,140.6a87.7,87.7,0,0,1,16.3-2.3,168,168,0,0,1,79.9-122.4A84.5,84.5,0,0,1,159.4,115.4Z"/>
    <g id="member-2" data-name="member">
      <path id="body-2" data-name="body" d="M5,409.1S9.5,367.5,25.3,354s42.1-13,42.1-13,26.4-.4,42.2,13,20.2,55.1,20.2,55.1S70.5,425.8,5,409.1Z"/>
      <path id="head-2" data-name="head" d="M100,301.5a32.7,32.7,0,0,0-2.5-12.7h-.1a32.7,32.7,0,0,0-60,0h0a32.8,32.8,0,0,0-2.6,12.7v.2a32.8,32.8,0,0,0,2.6,12.7h0a32.6,32.6,0,0,0,60,0h.1a31,31,0,0,0,2.5-12.7Z"/>
    </g>
    <g id="member-3" data-name="member">
      <path id="body-3" data-name="body" d="M370.2,409.1s4.5-41.6,20.2-55.1,42.2-13,42.2-13,26.3-.4,42.1,13S495,409.1,495,409.1,435.6,425.8,370.2,409.1Z"/>
      <path id="head-3" data-name="head" d="M465.2,301.5a32.8,32.8,0,0,0-2.6-12.7h0a32.7,32.7,0,0,0-60,0h-.1a32.7,32.7,0,0,0-2.5,12.7v.2a31,31,0,0,0,2.5,12.7h.1a32.6,32.6,0,0,0,60,0h0a32.8,32.8,0,0,0,2.6-12.7Z"/>
    </g>
  </g>
</svg>
