<svg
  xmlns="http://www.w3.org/2000/svg"
  viewBox="0 0 500 500"
  width="500"
  height="500"
  fill="#000000"
>
  <path d="M188.5 181.8s4.6-41.7 20.3-55.1 42.2-13.1 42.2-13.1 26.3-.4 42.1 13.1 20.3 55.1 20.3 55.1-59.4 16.6-124.9 0z" />
  <path d="M283.6 74.2a33.3 33.3 0 0 0-2.6-12.8h-.1a32.6 32.6 0 0 0-59.9 0h-.1a33.3 33.3 0 0 0-2.6 12.8 33.3 33.3 0 0 0 2.6 12.8h.1a32.5 32.5 0 0 0 59.9 0h.1a33.3 33.3 0 0 0 2.6-12.8z" />
  <path d="M249.9 442.5a166.8 166.8 0 0 1-97.5-31.4 97.6 97.6 0 0 1-12.7 10.4 183 183 0 0 0 222.5-1.8 93.7 93.7 0 0 1-12.1-10.6 166.4 166.4 0 0 1-100.2 33.4z" />
  <path d="M340.3 115.4a84.5 84.5 0 0 1-4.2 15.9A167.8 167.8 0 0 1 416 253.6h.2a94.2 94.2 0 0 1 16 1.4 183.9 183.9 0 0 0-91.9-139.6z" />
  <path d="M159.4 115.4c-50.3 28.7-85.8 80.3-92 140.6a87.7 87.7 0 0 1 16.3-2.3 168 168 0 0 1 79.9-122.4 84.5 84.5 0 0 1-4.2-15.9z" />
  <g data-name="member">
    <path
      data-name="body"
      d="M5 409.1s4.5-41.6 20.3-55.1 42.1-13 42.1-13 26.4-.4 42.2 13 20.2 55.1 20.2 55.1-59.3 16.7-124.8 0z"
    />
    <path
      data-name="head"
      d="M100 301.5a32.7 32.7 0 0 0-2.5-12.7h-.1a32.7 32.7 0 0 0-60 0 32.8 32.8 0 0 0-2.6 12.7v.2a32.8 32.8 0 0 0 2.6 12.7 32.6 32.6 0 0 0 60 0h.1a31 31 0 0 0 2.5-12.7z"
    />
  </g>
  <g data-name="member">
    <path
      data-name="body"
      d="M370.2 409.1s4.5-41.6 20.2-55.1 42.2-13 42.2-13 26.3-.4 42.1 13 20.3 55.1 20.3 55.1-59.4 16.7-124.8 0z"
    />
    <path
      data-name="head"
      d="M465.2 301.5a32.8 32.8 0 0 0-2.6-12.7 32.7 32.7 0 0 0-60 0h-.1a32.7 32.7 0 0 0-2.5 12.7v.2a31 31 0 0 0 2.5 12.7h.1a32.6 32.6 0 0 0 60 0 32.8 32.8 0 0 0 2.6-12.7z"
    />
  </g>
</svg>
