<svg
  xmlns="http://www.w3.org/2000/svg"
  viewBox="0 0 500 500"
  width="500"
  height="500"
  fill="#000000"
>
  <path d="M21.7 98.7h99.8a14 14 0 1 0 0-27.9H21.7a14 14 0 1 0 0 27.9z" />
  <path d="M297.2 189.2c0-12.8-9.1-23.2-20.4-23.2h-69.9a71.7 71.7 0 0 0-3 6.9c0 .2-.1.3-.1.5-.8 2.2-1.4 4.4-2 6.6-.1.2-.1.4-.2.6 0 .2-.1.4-.1.6a61.7 61.7 0 0 0-1.1 6.2 2.5 2.5 0 0 0-.1.8.9.9 0 0 0-.1.5c0 .1-.1.2-.1.3a68.5 68.5 0 0 0-.4 7.9 50.2 50.2 0 0 0 .4 6.7v1.1a.4.4 0 0 1 .1.3l.3 1.8c.1.6.1 1.1.2 1.7h.1c.2 1.3.4 2.7.7 4h75.3c11.3 0 20.4-10.4 20.4-23.3z" />
  <path d="M282.4 225.2h-76.8a71.8 71.8 0 0 0 15 21.5l2.2 2.2a51.9 51.9 0 0 0 4.5 3.7l3 2.3a50.9 50.9 0 0 0 5 3 18.3 18.3 0 0 0 2.6 1.6h.1a69.5 69.5 0 0 0 61.3 1.7 25.9 25.9 0 0 0 3.3-12.8c0-12.8-9-23.2-20.2-23.2z" />
  <path d="M375.4 265.3A125 125 0 0 0 324 82.8c-10-5.2-27.9-9.4-27.9-9.4a123.8 123.8 0 0 0-25.2-2.6c-63.8 0-116.5 48-124.3 109.8H21.7a14 14 0 1 0 0 27.9h124.5a120.2 120.2 0 0 0 5.4 26H21.7a13.9 13.9 0 1 0 0 27.8h142.9a126.1 126.1 0 0 0 22.2 26.6H21.7a14 14 0 1 0 0 27.9h207.9a12.7 12.7 0 0 0 4.4-.8 125.3 125.3 0 0 0 36.9 5.5 123.8 123.8 0 0 0 25.2-2.5c6.8-1.2 27.9-9.4 27.9-9.4a127.8 127.8 0 0 0 34.8-24.2l115.7 115.7 18.3-18.3zm-104.5 28.4a97.5 97.5 0 1 1 97.5-97.5 97.7 97.7 0 0 1-97.5 97.5z" />
  <path d="M279.3 344.6H21.2a14 14 0 0 0 0 28h258.1a14 14 0 1 0 0-28z" />
  <path d="M89 415.1a14.1 14.1 0 0 0-9-13.1 11.2 11.2 0 0 0-4.4-.9H21.2a14 14 0 1 0 0 28h54.4a10.4 10.4 0 0 0 4.3-1 14 14 0 0 0 9.1-13z" />
</svg>
