<svg xmlns="http://www.w3.org/2000/svg" viewBox="0 0 500 500">
  <g id="details">
    <path id="line1" d="M21.7,98.7h99.8a14,14,0,1,0,0-27.9H21.7a14,14,0,1,0,0,27.9Z"/>
    <path id="line2" d="M297.2,189.2c0-12.8-9.1-23.2-20.4-23.2H206.9a71.7,71.7,0,0,0-3,6.9c0,.2-.1.3-.1.5-.8,2.2-1.4,4.4-2,6.6-.1.2-.1.4-.2.6h0c0,.2-.1.4-.1.6a61.7,61.7,0,0,0-1.1,6.2,2.5,2.5,0,0,0-.1.8.9.9,0,0,0-.1.5c0,.1-.1.2-.1.3a68.5,68.5,0,0,0-.4,7.9,50.2,50.2,0,0,0,.4,6.7v1.1a.4.4,0,0,1,.1.3l.3,1.8c.1.6.1,1.1.2,1.7h.1c.2,1.3.4,2.7.7,4h75.3C288.1,212.5,297.2,202.1,297.2,189.2Z"/>
    <path id="line3" d="M282.4,225.2H205.6a71.8,71.8,0,0,0,15,21.5l2.2,2.2a51.9,51.9,0,0,0,4.5,3.7l3,2.3a50.9,50.9,0,0,0,5,3,18.3,18.3,0,0,0,2.6,1.6h.1a69.5,69.5,0,0,0,61.3,1.7,25.9,25.9,0,0,0,3.3-12.8C302.6,235.6,293.6,225.2,282.4,225.2Z"/>
    <path id="line-and-glass" d="M375.4,265.3A125,125,0,0,0,324,82.8c-10-5.2-27.9-9.4-27.9-9.4a123.8,123.8,0,0,0-25.2-2.6c-63.8,0-116.5,48-124.3,109.8H21.7a14,14,0,1,0,0,27.9H146.2a120.2,120.2,0,0,0,5.4,26H21.7a13.9,13.9,0,1,0,0,27.8H164.6a126.1,126.1,0,0,0,22.2,26.6H21.7a14,14,0,1,0,0,27.9H229.6a12.7,12.7,0,0,0,4.4-.8,125.3,125.3,0,0,0,36.9,5.5,123.8,123.8,0,0,0,25.2-2.5c6.8-1.2,27.9-9.4,27.9-9.4a127.8,127.8,0,0,0,34.8-24.2L474.5,401.1l18.3-18.3ZM270.9,293.7a97.5,97.5,0,1,1,97.5-97.5A97.7,97.7,0,0,1,270.9,293.7Z"/>
    <path id="line5" d="M279.3,344.6H21.2a14,14,0,0,0,0,28H279.3a14,14,0,1,0,0-28Z"/>
    <path id="line6" d="M89,415.1A14.1,14.1,0,0,0,80,402a11.2,11.2,0,0,0-4.4-.9H21.2a14,14,0,1,0,0,28H75.6a10.4,10.4,0,0,0,4.3-1A14,14,0,0,0,89,415.1Z"/>
  </g>
</svg>
