<svg xmlns="http://www.w3.org/2000/svg" viewBox="0 0 500 500">
  <g id="division-bor">
    <path id="division-outline" d="M431.54,390.49H68.46A63.53,63.53,0,0,1,5,327V173a63.53,63.53,0,0,1,63.46-63.46H431.54A63.53,63.53,0,0,1,495,173V327A63.53,63.53,0,0,1,431.54,390.49ZM68.46,128.36A44.66,44.66,0,0,0,23.85,173V327a44.66,44.66,0,0,0,44.61,44.61H431.54A44.66,44.66,0,0,0,476.15,327V173a44.66,44.66,0,0,0-44.61-44.61Z"/>
    <path id="division-b" d="M48.32,173.94c9-1.79,27.08-3.14,44.09-3.14,20.81,0,33.57,2,44.54,8.51,10.51,5.59,18.12,15.89,18.12,29.54,0,13.43-7.83,26-24.84,32.23v.44c17.23,4.7,30,17.68,30,37.16,0,13.65-6.26,24.39-15.66,32-11,8.73-29.32,13.65-59.31,13.65a263.68,263.68,0,0,1-36.93-2.24Zm33.79,57.74H93.3c17.91,0,27.53-7.39,27.53-18.58,0-11.41-8.73-17.46-24.17-17.46a92.76,92.76,0,0,0-14.55.9Zm0,66.91a107.17,107.17,0,0,0,13.21.45c15.44,0,29.09-5.82,29.09-21.71,0-15.22-13.65-21.26-30.66-21.26H82.11Z"/>
    <path id="division-o" d="M321.57,245.78c0,49.46-30,79.45-74.09,79.45-44.76,0-70.94-33.8-70.94-76.77,0-45.2,28.87-79,73.41-79C296.27,169.46,321.57,204.15,321.57,245.78Zm-109,2c0,29.54,13.88,50.36,36.71,50.36,23,0,36.25-21.94,36.25-51.25,0-27.09-13-50.36-36.48-50.36C226,196.54,212.57,218.47,212.57,247.79Z"/>
    <path id="division-r" d="M343.93,173.94c11-1.79,27.3-3.14,45.43-3.14,22.38,0,38.05,3.36,48.79,11.87,9,7.15,13.88,17.68,13.88,31.55,0,19.25-13.66,32.45-26.64,37.15v.68c10.52,4.25,16.34,14.32,20.14,28.19,4.71,17,9.4,36.7,12.31,42.52H422.93c-2.46-4.25-6-16.56-10.52-35.13-4-18.8-10.52-23.95-24.4-24.17H377.72v59.3H343.93Zm33.79,64.9h13.43c17,0,27.08-8.51,27.08-21.71,0-13.87-9.4-20.81-25.07-21a84.93,84.93,0,0,0-15.44,1.12Z"/>
  </g>
</svg>
