<svg xmlns="http://www.w3.org/2000/svg" viewBox="0 0 500 500">
  <g id="division-spe">
    <path id="division-outline" d="M431.54,390.49H68.46A63.53,63.53,0,0,1,5,327V173a63.53,63.53,0,0,1,63.46-63.46H431.54A63.53,63.53,0,0,1,495,173V327A63.53,63.53,0,0,1,431.54,390.49ZM68.46,128.36A44.66,44.66,0,0,0,23.85,173V327a44.66,44.66,0,0,0,44.61,44.61H431.54A44.66,44.66,0,0,0,476.15,327V173a44.66,44.66,0,0,0-44.61-44.61Z"/>
    <path id="division-s" d="M52,292.42c10.61,5.44,26.93,10.88,43.76,10.88,18.12,0,27.71-7.51,27.71-18.9,0-10.88-8.29-17.09-29.26-24.61-29-10.1-47.91-26.15-47.91-51.53,0-29.78,24.86-52.57,66-52.57,19.68,0,34.19,4.15,44.54,8.81L148,196.35a83,83,0,0,0-36.51-8.29c-17.1,0-25.38,7.77-25.38,16.84,0,11.13,9.84,16,32.37,24.6,30.81,11.39,45.31,27.45,45.31,52.05,0,29.26-22.53,54.12-70.43,54.12-19.94,0-39.62-5.18-49.46-10.62Z"/>
    <path id="division-p" d="M190.47,160.87c12.17-2.07,29.26-3.62,53.34-3.62,24.35,0,41.7,4.66,53.35,14,11.14,8.81,18.65,23.31,18.65,40.4s-5.71,31.59-16.06,41.43c-13.47,12.69-33.41,18.39-56.71,18.39a99.09,99.09,0,0,1-13.47-.78v62.41h-39.1Zm39.1,79.24a60.13,60.13,0,0,0,13.21,1c21,0,33.92-10.62,33.92-28.49,0-16-11.13-25.63-30.81-25.63-8,0-13.47.77-16.32,1.55Z"/>
    <path id="division-e" d="M444.75,259.28H380.53v41.43h71.73v32.37H340.91V158.54H448.63v32.37h-68.1v36.26h64.22Z"/>
  </g>
</svg>
