<svg xmlns="http://www.w3.org/2000/svg" viewBox="0 0 500 500">
  <g id="division-unk">
    <path id="division-outline" d="M431.54,390.49H68.46A63.53,63.53,0,0,1,5,327V173a63.53,63.53,0,0,1,63.46-63.46H431.54A63.53,63.53,0,0,1,495,173V327A63.53,63.53,0,0,1,431.54,390.49ZM68.46,128.36A44.66,44.66,0,0,0,23.85,173V327a44.66,44.66,0,0,0,44.61,44.61H431.54A44.66,44.66,0,0,0,476.15,327V173a44.66,44.66,0,0,0-44.61-44.61Z"/>
    <path id="division-u" d="M79.9,176.17v82.51c0,24.67,9.36,37.21,25.94,37.21,17,0,26.38-11.91,26.38-37.21V176.17h32.32v80.38c0,44.24-22.33,65.29-59.76,65.29-36.15,0-57.42-20-57.42-65.71v-80Z"/>
    <path id="division-n" d="M192.6,319.5V176.17h37.85l29.77,52.53a415.34,415.34,0,0,1,23.4,49.12h.64c-2.13-18.93-2.77-38.28-2.77-59.76V176.17h29.77V319.5h-34l-30.62-55.29a535.63,535.63,0,0,1-24.88-50.62l-.63.22c.85,18.93,1.27,39.13,1.27,62.52V319.5Z"/>
    <path id="division-k" d="M339.32,176.17h32.11v63.37h.64c3.19-5.53,6.59-10.63,9.78-15.74l32.54-47.63h39.77l-47.43,61,50,82.3H418.85l-35.09-61.89-12.33,15.1V319.5H339.32Z"/>
  </g>
</svg>
