<svg xmlns="http://www.w3.org/2000/svg" viewBox="0 0 500 500">
  <g id="division-swa">
    <path id="division-outline" d="M431.54,390.49H68.46A63.53,63.53,0,0,1,5,327V173a63.53,63.53,0,0,1,63.46-63.46H431.54A63.53,63.53,0,0,1,495,173V327A63.53,63.53,0,0,1,431.54,390.49ZM68.46,128.36A44.66,44.66,0,0,0,23.85,173V327a44.66,44.66,0,0,0,44.61,44.61H431.54A44.66,44.66,0,0,0,476.15,327V173a44.66,44.66,0,0,0-44.61-44.61Z"/>
    <path id="division-s" d="M48.61,286c8.7,4.46,22.07,8.91,35.86,8.91,14.85,0,22.7-6.15,22.7-15.49,0-8.91-6.79-14-24-20.15C59.43,251,43.94,237.88,43.94,217.09,43.94,192.69,64.31,174,98,174c16.13,0,28,3.4,36.5,7.22l-7.22,26.09a67.94,67.94,0,0,0-29.91-6.79c-14,0-20.79,6.37-20.79,13.79,0,9.13,8.06,13.16,26.52,20.16,25.24,9.33,37.12,22.49,37.12,42.64,0,24-18.45,44.34-57.7,44.34-16.34,0-32.46-4.24-40.53-8.7Z"/>
    <path id="division-w" d="M185.23,319.35l-33.94-143h34.58l10.82,59c3.19,17,6.15,35.43,8.49,49.85h.42c2.34-15.48,5.73-32.67,9.33-50.28L227,176.36H261.4l11.45,60.25c3.19,16.76,5.52,32,7.64,47.95h.42c2.13-15.92,5.31-32.68,8.28-49.65l11.67-58.55h32.88l-36.91,143h-35l-12.09-61.52c-2.76-14.43-5.09-27.8-6.79-44.13h-.42c-2.55,16.12-4.88,29.7-8.28,44.13l-13.58,61.52Z"/>
    <path id="division-a" d="M372.34,282.65l-10.18,36.7H328.64l43.7-143h42.44l44.34,143h-34.8l-11-36.7Zm36.28-24.19-8.9-30.34c-2.55-8.48-5.1-19.09-7.22-27.58h-.42c-2.13,8.49-4.25,19.31-6.58,27.58L377,258.46Z"/>
  </g>
</svg>
