<svg
  xmlns="http://www.w3.org/2000/svg"
  viewBox="0 0 500 500"
  width="500"
  height="500"
  fill="#ffffff"
>
  <path d="M431.54 390.49H68.46A63.53 63.53 0 0 1 5 327V173a63.53 63.53 0 0 1 63.46-63.46h363.08A63.53 63.53 0 0 1 495 173v154a63.53 63.53 0 0 1-63.46 63.49zM68.46 128.36A44.66 44.66 0 0 0 23.85 173v154a44.66 44.66 0 0 0 44.61 44.61h363.08A44.66 44.66 0 0 0 476.15 327V173a44.66 44.66 0 0 0-44.61-44.61z" />
  <path d="M48.55 285.94c8.66 4.44 22 8.88 35.72 8.88 14.8 0 22.61-6.13 22.61-15.43 0-8.88-6.76-13.95-23.88-20.08-23.67-8.24-39.1-21.31-39.1-42.06 0-24.31 20.29-42.91 53.9-42.91 16.06 0 27.9 3.38 36.35 7.19l-7.19 26a67.64 67.64 0 0 0-29.8-6.77c-14 0-20.71 6.34-20.71 13.74 0 9.09 8 13.11 26.42 20.08 25.15 9.3 37 22.41 37 42.48 0 23.89-18.39 44.18-57.49 44.18-16.29 0-32.38-4.24-40.38-8.67z" />
  <path d="M194.81 282.56l-10.15 36.57h-33.39l43.54-142.46h42.27l44.18 142.46H246.6l-11-36.57zm36.19-24.1l-8.87-30.22c-2.54-8.45-5.07-19-7.19-27.48h-.42c-2.12 8.46-4.23 19.24-6.56 27.48l-8.45 30.22z" />
  <path d="M420.75 264.59c-.63-17.12-1.26-37.83-1.26-58.54h-.64c-4.44 18.17-10.36 38.46-15.85 55.16l-17.33 55.59h-25.16l-15.21-55.16c-4.65-16.7-9.52-37-12.9-55.59h-.4c-.84 19.23-1.48 41.21-2.54 59l-2.53 54.11h-29.8l9.08-142.46h42.89l13.95 47.55c4.44 16.49 8.88 34.24 12.05 50.94h.63c4-16.48 8.88-35.3 13.53-51.15l15.22-47.34h42.06l7.82 142.46h-31.49z" />
</svg>
