<svg
  xmlns="http://www.w3.org/2000/svg"
  viewBox="0 0 500 500"
  width="500"
  height="500"
  fill="#000000"
>
  <path d="M431.54 390.49H68.46A63.53 63.53 0 0 1 5 327V173a63.53 63.53 0 0 1 63.46-63.46h363.08A63.53 63.53 0 0 1 495 173v154a63.53 63.53 0 0 1-63.46 63.49zM68.46 128.36A44.66 44.66 0 0 0 23.85 173v154a44.66 44.66 0 0 0 44.61 44.61h363.08A44.66 44.66 0 0 0 476.15 327V173a44.66 44.66 0 0 0-44.61-44.61z" />
  <path d="M48.85 325.1V168.92H90.1l32.44 57.24A453.74 453.74 0 0 1 148 279.68h.69c-2.31-20.62-3-41.71-3-65.11v-45.65h32.43V325.1h-37.04l-33.37-60.25A579.68 579.68 0 0 1 80.6 209.7l-.7.23c.93 20.63 1.39 42.64 1.39 68.13v47z" />
  <path d="M208.74 171c11.35-1.85 28.27-3.24 47-3.24 23.18 0 39.4 3.47 50.52 12.28 9.26 7.41 14.36 18.3 14.36 32.67 0 19.93-14.13 33.6-27.57 38.46v.69c10.89 4.41 16.91 14.83 20.85 29.2 4.87 17.61 9.74 38 12.75 44h-36.12c-2.55-4.41-6.26-17.15-10.89-36.38-4.17-19.47-10.89-24.8-25.26-25h-10.65v61.42h-35zm35 67.19h13.9c17.61 0 28-8.8 28-22.47 0-14.37-9.72-21.55-26-21.78a88.37 88.37 0 0 0-16 1.16z" />
  <path d="M459.92 320.69c-6.49 3.25-21.09 6.72-40.09 6.72-54 0-81.79-33.6-81.79-78.09 0-53.29 38-82.94 85.27-82.94 18.3 0 32.21 3.7 38.46 7l-7.18 28a76.36 76.36 0 0 0-29.66-5.79c-28 0-49.82 16.91-49.82 51.67 0 31.28 18.54 51 50.05 51 10.66 0 22.48-2.32 29.43-5.1z" />
</svg>
