<svg
  xmlns="http://www.w3.org/2000/svg"
  viewBox="0 0 500 500"
  width="500"
  height="500"
  fill="#000000"
>
  <path d="M431.54 390.49H68.46A63.53 63.53 0 0 1 5 327V173a63.53 63.53 0 0 1 63.46-63.46h363.08A63.53 63.53 0 0 1 495 173v154a63.53 63.53 0 0 1-63.46 63.49zM68.46 128.36A44.66 44.66 0 0 0 23.85 173v154a44.66 44.66 0 0 0 44.61 44.61h363.08A44.66 44.66 0 0 0 476.15 327V173a44.66 44.66 0 0 0-44.61-44.61z" />
  <path d="M46.8 182.52c9.44-1.61 22.68-2.82 41.35-2.82 18.87 0 32.32 3.62 41.35 10.84 8.63 6.83 14.45 18.07 14.45 31.32s-4.41 24.48-12.44 32.11c-10.44 9.84-25.9 14.26-44 14.26a77.22 77.22 0 0 1-10.44-.61V316H46.8zm30.31 61.42a46.94 46.94 0 0 0 10.24.8c16.26 0 26.29-8.23 26.29-22.08 0-12.45-8.63-19.87-23.88-19.87A52.37 52.37 0 0 0 77.11 204z" />
  <path d="M183.89 316l-32.12-135.29h32.72l10.24 55.8c3 16.06 5.82 33.52 8 47.17h.4c2.2-14.65 5.42-30.91 8.83-47.57l11.44-55.4H256l10.83 57c3 15.85 5.23 30.3 7.23 45.36h.4c2-15.06 5-30.91 7.83-47l11-55.4h31.11L289.47 316h-33.12l-11.44-58.21c-2.61-13.65-4.82-26.3-6.43-41.76h-.4c-2.4 15.26-4.61 28.11-7.82 41.76L217.41 316z" />
  <path d="M340.23 316V180.71H376l28.1 49.58a392 392 0 0 1 22.08 46.36h.6c-2-17.86-2.61-36.13-2.61-56.4v-39.54h28.1V316h-32.15l-28.91-52.19A500.89 500.89 0 0 1 367.73 216l-.6.21c.8 17.86 1.2 36.93 1.2 59V316z" />
</svg>
