<svg
  xmlns="http://www.w3.org/2000/svg"
  viewBox="0 0 500 500"
  width="500"
  height="500"
  fill="#000000"
>
  <path d="M431.54 390.49H68.46A63.53 63.53 0 0 1 5 327V173a63.53 63.53 0 0 1 63.46-63.46h363.08A63.53 63.53 0 0 1 495 173v154a63.53 63.53 0 0 1-63.46 63.49zM68.46 128.36A44.66 44.66 0 0 0 23.85 173v154a44.66 44.66 0 0 0 44.61 44.61h363.08A44.66 44.66 0 0 0 476.15 327V173a44.66 44.66 0 0 0-44.61-44.61z" />
  <path d="M47.73 177.28c10.1-1.72 24.28-3 44.25-3 20.2 0 34.59 3.86 44.26 11.6 9.23 7.3 15.46 19.33 15.46 33.51s-4.72 26.21-13.31 34.37c-11.18 10.52-27.72 15.25-47 15.25a82.44 82.44 0 0 1-11.17-.64v51.77H47.73zM80.17 243a50.28 50.28 0 0 0 11 .86c17.41 0 28.14-8.81 28.14-23.63C119.26 206.92 110 199 93.7 199a55.93 55.93 0 0 0-13.53 1.29z" />
  <path d="M194.43 320.13l-34.37-144.79h35L206 235.06c3.23 17.19 6.23 35.87 8.6 50.48h.42c2.37-15.68 5.81-33.08 9.46-50.91l12.24-59.29h34.8l11.6 61c3.23 17 5.59 32.44 7.74 48.55h.42c2.15-16.11 5.38-33.08 8.38-50.27l11.82-59.29h33.3l-37.35 144.8H272l-12.24-62.3c-2.8-14.61-5.16-28.14-6.88-44.68h-.43c-2.57 16.33-4.94 30.07-8.37 44.68l-13.75 62.3z" />
  <path d="M361.1 286.4c8.8 4.51 22.34 9 36.3 9 15 0 23-6.23 23-15.68 0-9-6.88-14.18-24.28-20.41-24.06-8.37-39.74-21.69-39.74-42.74 0-24.71 20.63-43.61 54.78-43.61 16.32 0 28.36 3.44 37 7.3l-7.31 26.42a68.86 68.86 0 0 0-30.28-6.87c-14.18 0-21.05 6.44-21.05 14 0 9.24 8.16 13.32 26.84 20.41 25.57 9.45 37.6 22.77 37.6 43.18 0 24.27-18.69 44.9-58.43 44.9-16.54 0-32.87-4.3-41-8.81z" />
</svg>
