<svg
  xmlns="http://www.w3.org/2000/svg"
  viewBox="0 0 500 500"
  width="500"
  height="500"
  fill="#ffffff"
>
  <path d="M431.54 390.49H68.46A63.53 63.53 0 0 1 5 327V173a63.53 63.53 0 0 1 63.46-63.46h363.08A63.53 63.53 0 0 1 495 173v154a63.53 63.53 0 0 1-63.46 63.49zM68.46 128.36A44.66 44.66 0 0 0 23.85 173v154a44.66 44.66 0 0 0 44.61 44.61h363.08A44.66 44.66 0 0 0 476.15 327V173a44.66 44.66 0 0 0-44.61-44.61z" />
  <path d="M50.76 290.17c9.93 5.09 25.2 10.18 40.95 10.18 17 0 25.93-7 25.93-17.7 0-10.17-7.75-16-27.38-23-27.14-9.45-44.83-24.48-44.83-48.23 0-27.87 23.26-49.19 61.79-49.19 18.42 0 32 3.87 41.69 8.24l-8.24 29.81a77.65 77.65 0 0 0-34.17-7.76c-16 0-23.76 7.27-23.76 15.75 0 10.43 9.22 15 30.3 23 28.84 10.67 42.41 25.73 42.41 48.73 0 27.38-21.08 50.65-65.92 50.65-18.66 0-37.08-4.85-46.29-9.94z" />
  <path d="M330 244.85c0 53.56-32.48 86-80.22 86-48.47 0-76.82-36.59-76.82-83.12 0-49 31.26-85.55 79.49-85.55 50.11.03 77.55 37.59 77.55 82.67zm-118 2.18c0 32 15 54.53 39.74 54.53 25 0 39.26-23.75 39.26-55.5 0-29.32-14.05-54.53-39.5-54.53-25.03 0-39.57 23.75-39.57 55.47z" />
  <path d="M354.19 164.87h37.08V297.2h65v31h-102z" />
</svg>
