<svg
  xmlns="http://www.w3.org/2000/svg"
  viewBox="0 0 500 500"
  width="500"
  height="500"
  fill="#000000"
>
  <path d="M380.51 426.34h-22.14c-79 0-126.68 0-144.16-11.93-13.58-9.28-14.15-34.39-14.15-90.52 0-32-9-56.48-26.78-72.82-.3-.27-.61-.51-.92-.78.53-.46 1.06-.88 1.58-1.36 17.77-16.34 26.78-40.84 26.78-73 0-55.92.57-81 14.16-90.31C232.35 73.66 280 73.66 359 73.66h22.14v32.45l87.55-50.56L381.17 5v32.45H359c-94.66 0-137.86 0-164.57 18.24-30 20.45-30 55.88-30 120.42 0 21.23-5 36.68-14.8 45.91-6.76 6.36-15 8.82-20.78 9.77a69.89 69.89 0 0 0-10.25-.28H31.28v36.21h.66v.77h87.4c.75.05 1.81.09 3.14.09 1.69 0 3.83-.08 6.29-.28a39.32 39.32 0 0 1 20 9.43c10 9.19 15.08 24.73 15.08 46.37 0 64.33 0 99.76 29.94 120.21 26.72 18.24 69.92 18.24 164.58 18.24h22.14V495l87.55-50.55-87.55-50.56z" />
</svg>
