<svg
  xmlns="http://www.w3.org/2000/svg"
  viewBox="0 0 500 500"
  width="500"
  height="500"
  fill="#000000"
>
  <path d="M431.54 390.49H68.46A63.53 63.53 0 0 1 5 327V173a63.53 63.53 0 0 1 63.46-63.46h363.08A63.53 63.53 0 0 1 495 173v154a63.53 63.53 0 0 1-63.46 63.49zM68.46 128.36A44.66 44.66 0 0 0 23.85 173v154a44.66 44.66 0 0 0 44.61 44.61h363.08A44.66 44.66 0 0 0 476.15 327V173a44.66 44.66 0 0 0-44.61-44.61z" />
  <path d="M49.06 326.07v-158.4h41.83l32.91 58.05A458.91 458.91 0 0 1 149.65 280h.7c-2.35-20.92-3-42.31-3-66v-46.3h32.9v158.4H142.6L108.76 265a584.4 584.4 0 0 1-27.5-56l-.71.24c.94 20.91 1.41 43.24 1.41 69.09v47.71z" />
  <path d="M211.24 169.79c11-1.88 26.56-3.29 48.41-3.29 22.1 0 37.84 4.23 48.42 12.69 10.1 8 16.92 21.15 16.92 36.66s-5.17 28.67-14.57 37.6C298.2 265 280.1 270.14 259 270.14a90.1 90.1 0 0 1-12.22-.71v56.64h-35.54zm35.49 71.91a55 55 0 0 0 12 .94c19 0 30.79-9.64 30.79-25.85 0-14.57-10.1-23.27-28-23.27-7.28 0-12.22.71-14.8 1.41z" />
  <path d="M349 289.17c9.64 4.94 24.45 9.87 39.72 9.87 16.45 0 25.15-6.81 25.15-17.15 0-9.87-7.52-15.51-26.56-22.33-26.31-9.16-43.51-23.73-43.51-46.77 0-27 22.56-47.7 59.93-47.7 17.86 0 31 3.75 40.42 8l-8 28.9a75.41 75.41 0 0 0-33.15-7.53c-15.52 0-23 7-23 15.28 0 10.1 8.93 14.57 29.37 22.32 28 10.34 41.13 24.92 41.13 47.24 0 26.56-20.45 49.12-63.93 49.12-18.09 0-35.95-4.7-44.88-9.63z" />
</svg>
