<svg
  xmlns="http://www.w3.org/2000/svg"
  viewBox="0 0 500 500"
  width="500"
  height="500"
  fill="#000000"
>
  <path d="M431.54 390.49H68.46A63.53 63.53 0 0 1 5 327V173a63.53 63.53 0 0 1 63.46-63.46h363.08A63.53 63.53 0 0 1 495 173v154a63.53 63.53 0 0 1-63.46 63.49zM68.46 128.36A44.66 44.66 0 0 0 23.85 173v154a44.66 44.66 0 0 0 44.61 44.61h363.08A44.66 44.66 0 0 0 476.15 327V173a44.66 44.66 0 0 0-44.61-44.61z" />
  <path d="M88.73 330v-68.56l-52.94-98.92H79l17.14 40.26c5.22 12.18 8.7 21.13 12.93 32.07h.5c3.72-10.44 7.7-20.13 12.67-32.07l16.9-40.26h42.5l-55.13 97.68V330z" />
  <path d="M311.17 325.31c-7 3.48-22.62 7.21-43 7.21-57.91 0-87.73-36-87.73-83.76 0-57.16 40.76-89 91.46-89 19.63 0 34.54 4 41.25 7.46l-7.7 30.07a81.6 81.6 0 0 0-31.81-6.22c-30.07 0-53.44 18.14-53.44 55.43 0 33.55 19.88 54.67 53.68 54.67 11.44 0 24.11-2.48 31.57-5.46z" />
  <path d="M451.59 325.31c-7 3.48-22.62 7.21-43 7.21-57.91 0-87.73-36-87.73-83.76 0-57.16 40.76-89 91.46-89 19.64 0 34.54 4 41.26 7.46l-7.71 30.07a81.6 81.6 0 0 0-31.81-6.22c-30.07 0-53.44 18.14-53.44 55.43 0 33.55 19.89 54.67 53.69 54.67 11.43 0 24.11-2.48 31.56-5.46z" />
</svg>
