<svg xmlns="http://www.w3.org/2000/svg" viewBox="0 0 500 500">
  <g id="division-cbbp">
    <path id="division-outline" d="M431.54,390.49H68.46A63.53,63.53,0,0,1,5,327V173a63.53,63.53,0,0,1,63.46-63.46H431.54A63.53,63.53,0,0,1,495,173V327A63.53,63.53,0,0,1,431.54,390.49ZM68.46,128.36A44.66,44.66,0,0,0,23.85,173V327a44.66,44.66,0,0,0,44.61,44.61H431.54A44.66,44.66,0,0,0,476.15,327V173a44.66,44.66,0,0,0-44.61-44.61Z"/>
    <path id="division-c" d="M135.06,304.4c-5.07,2.53-16.47,5.24-31.31,5.24-42.16,0-63.87-26.24-63.87-61,0-41.62,29.67-64.78,66.59-64.78,14.29,0,25.15,2.89,30,5.43L130.9,211.2a59.61,59.61,0,0,0-23.16-4.52c-21.9,0-38.91,13.21-38.91,40.35,0,24.43,14.48,39.81,39.09,39.81,8.32,0,17.55-1.81,23-4Z"/>
    <path id="division-b" d="M153.17,187.5c7.24-1.45,21.9-2.54,35.65-2.54,16.83,0,27.15,1.63,36,6.88,8.5,4.53,14.66,12.85,14.66,23.89,0,10.85-6.33,21-20.09,26.05v.37c13.93,3.8,24.25,14.29,24.25,30,0,11-5.07,19.72-12.67,25.87-8.86,7.06-23.7,11-47.95,11a214.27,214.27,0,0,1-29.86-1.81Zm27.33,46.68h9.05c14.47,0,22.25-6,22.25-15,0-9.22-7.06-14.11-19.54-14.11a74,74,0,0,0-11.76.73Zm0,54.11a87.36,87.36,0,0,0,10.67.36c12.49,0,23.53-4.7,23.53-17.55,0-12.31-11-17.19-24.8-17.19h-9.4Z"/>
    <path id="division-b-2" data-name="division-b" d="M262.49,187.5c7.23-1.45,21.89-2.54,35.64-2.54,16.83,0,27.15,1.63,36,6.88,8.5,4.53,14.65,12.85,14.65,23.89,0,10.85-6.33,21-20.08,26.05v.37c13.93,3.8,24.24,14.29,24.24,30,0,11-5.06,19.72-12.66,25.87-8.87,7.06-23.71,11-48,11a214,214,0,0,1-29.85-1.81Zm27.32,46.68h9.05c14.47,0,22.25-6,22.25-15,0-9.22-7.05-14.11-19.54-14.11a74,74,0,0,0-11.76.73Zm0,54.11a87.46,87.46,0,0,0,10.68.36C313,288.65,324,284,324,271.1c0-12.31-11-17.19-24.79-17.19h-9.41Z"/>
    <path id="division-p" d="M371.81,187.5c8.5-1.45,20.44-2.54,37.27-2.54,17,0,29.13,3.26,37.28,9.78,7.78,6.15,13,16.28,13,28.23s-4,22.07-11.21,28.95c-9.41,8.86-23.35,12.85-39.63,12.85a69.59,69.59,0,0,1-9.41-.55v43.61H371.81Zm27.32,55.37a42.38,42.38,0,0,0,9.23.72c14.66,0,23.7-7.42,23.7-19.9,0-11.22-7.78-17.91-21.53-17.91a47.22,47.22,0,0,0-11.4,1.08Z"/>
  </g>
</svg>
