<svg xmlns="http://www.w3.org/2000/svg" viewBox="0 0 500 500">
  <g id="division-oop">
    <path id="division-outline" d="M431.54,390.49H68.46A63.53,63.53,0,0,1,5,327V173a63.53,63.53,0,0,1,63.46-63.46H431.54A63.53,63.53,0,0,1,495,173V327A63.53,63.53,0,0,1,431.54,390.49ZM68.46,128.36A44.66,44.66,0,0,0,23.85,173V327a44.66,44.66,0,0,0,44.61,44.61H431.54A44.66,44.66,0,0,0,476.15,327V173a44.66,44.66,0,0,0-44.61-44.61Z"/>
    <path id="division-o2" d="M179.23,246.31c0,47.14-28.59,75.72-70.61,75.72C66,322,41,289.82,41,248.86c0-43.08,27.51-75.29,70-75.29C155.13,173.57,179.23,206.63,179.23,246.31ZM75.35,248.22c0,28.16,13.22,48,35,48,22,0,34.56-20.9,34.56-48.85,0-25.81-12.37-48-34.77-48C88.15,199.38,75.35,220.28,75.35,248.22Z"/>
    <path id="division-o1" d="M332.15,246.31c0,47.14-28.58,75.72-70.61,75.72-42.65,0-67.61-32.21-67.61-73.17,0-43.08,27.52-75.29,70-75.29C308.05,173.57,332.15,206.63,332.15,246.31Zm-103.88,1.91c0,28.16,13.23,48,35,48,22,0,34.56-20.9,34.56-48.85,0-25.81-12.37-48-34.77-48C241.07,199.38,228.27,220.28,228.27,248.22Z"/>
    <path id="division-p" d="M353.47,177.83c10-1.7,24.1-3,43.94-3,20,0,34.34,3.84,43.94,11.52,9.17,7.25,15.36,19.19,15.36,33.27s-4.69,26-13.23,34.13c-11.09,10.45-27.51,15.15-46.71,15.15a82.82,82.82,0,0,1-11.09-.64v51.4H353.47Zm32.21,65.28a50.26,50.26,0,0,0,10.87.85c17.28,0,27.95-8.75,27.95-23.46,0-13.23-9.17-21.12-25.38-21.12a55.3,55.3,0,0,0-13.44,1.28Z"/>
  </g>
</svg>
