<svg xmlns="http://www.w3.org/2000/svg" viewBox="0 0 500 500">
  <g id="division-fws">
    <path id="division-outline" d="M431.54,390.49H68.46A63.53,63.53,0,0,1,5,327V173a63.53,63.53,0,0,1,63.46-63.46H431.54A63.53,63.53,0,0,1,495,173V327A63.53,63.53,0,0,1,431.54,390.49ZM68.46,128.36A44.66,44.66,0,0,0,23.85,173V327a44.66,44.66,0,0,0,44.61,44.61H431.54A44.66,44.66,0,0,0,476.15,327V173a44.66,44.66,0,0,0-44.61-44.61Z"/>
    <path id="division-f" d="M48,173.54H138.5V201H81.63v33.81h53.14V262H81.63v59.51H48Z"/>
    <path id="division-w" d="M187.66,321.52l-35.13-148h35.79l11.2,61c3.29,17.57,6.36,36.67,8.78,51.6h.44c2.42-16,5.93-33.81,9.66-52l12.51-60.59h35.58l11.85,62.35c3.29,17.34,5.71,33.15,7.9,49.62h.44c2.2-16.47,5.49-33.82,8.57-51.38l12.08-60.59h34l-38.21,148H266.92l-12.51-63.67c-2.85-14.93-5.27-28.77-7-45.67h-.44c-2.63,16.68-5.05,30.74-8.56,45.67l-14,63.67Z"/>
    <path id="division-s" d="M358,287c9,4.62,22.83,9.23,37.1,9.23,15.37,0,23.49-6.37,23.49-16,0-9.22-7-14.49-24.81-20.86-24.58-8.56-40.61-22.17-40.61-43.69,0-25.25,21.07-44.57,56-44.57,16.68,0,29,3.51,37.76,7.46l-7.47,27a70.26,70.26,0,0,0-31-7c-14.49,0-21.51,6.58-21.51,14.26,0,9.44,8.34,13.62,27.44,20.86,26.13,9.66,38.43,23.28,38.43,44.13,0,24.81-19.11,45.89-59.72,45.89-16.91,0-33.6-4.39-41.94-9Z"/>
  </g>
</svg>
