<svg xmlns="http://www.w3.org/2000/svg" viewBox="0 0 500 500">
  <g id="division-ops">
    <path id="division-outline" d="M431.54,390.49H68.46A63.53,63.53,0,0,1,5,327V173a63.53,63.53,0,0,1,63.46-63.46H431.54A63.53,63.53,0,0,1,495,173V327A63.53,63.53,0,0,1,431.54,390.49ZM68.46,128.36A44.66,44.66,0,0,0,23.85,173V327a44.66,44.66,0,0,0,44.61,44.61H431.54A44.66,44.66,0,0,0,476.15,327V173a44.66,44.66,0,0,0-44.61-44.61Z"/>
    <path id="division-o" d="M193.91,245.24c0,51.89-31.46,83.35-77.72,83.35-47,0-74.43-35.45-74.43-80.53,0-47.43,30.29-82.89,77-82.89C167.38,165.17,193.91,201.57,193.91,245.24ZM79.56,247.35c0,31,14.56,52.83,38.51,52.83,24.18,0,38-23,38-53.77,0-28.41-13.62-52.83-38.28-52.83C93.65,193.58,79.56,216.59,79.56,247.35Z"/>
    <path id="division-p" d="M217.41,169.87c11-1.88,26.53-3.29,48.37-3.29,22.06,0,37.8,4.23,48.36,12.68,10.1,8,16.91,21.13,16.91,36.63s-5.16,28.64-14.56,37.57c-12.21,11.5-30.29,16.67-51.42,16.67a90,90,0,0,1-12.21-.71V326H217.41Zm35.45,71.85a54.94,54.94,0,0,0,12,.94c19,0,30.76-9.63,30.76-25.83,0-14.56-10.09-23.25-27.94-23.25-7.27,0-12.21.71-14.79,1.41Z"/>
    <path id="division-s" d="M355,289.15c9.63,4.93,24.41,9.86,39.68,9.86,16.44,0,25.12-6.81,25.12-17.14,0-9.86-7.51-15.5-26.53-22.31-26.3-9.16-43.44-23.71-43.44-46.72,0-27,22.54-47.67,59.88-47.67,17.84,0,31,3.76,40.38,8l-8,28.89A75.11,75.11,0,0,0,409,194.52c-15.5,0-23,7-23,15.26,0,10.1,8.93,14.56,29.35,22.31,27.94,10.33,41.09,24.89,41.09,47.2,0,26.53-20.43,49.07-63.87,49.07-18.07,0-35.92-4.7-44.84-9.63Z"/>
  </g>
</svg>
