<svg xmlns="http://www.w3.org/2000/svg" viewBox="0 0 500 500">
  <g id="division-mtw">
    <path id="division-outline" d="M431.54,390.49H68.46A63.53,63.53,0,0,1,5,327V173a63.53,63.53,0,0,1,63.46-63.46H431.54A63.53,63.53,0,0,1,495,173V327A63.53,63.53,0,0,1,431.54,390.49ZM68.46,128.36A44.66,44.66,0,0,0,23.85,173V327a44.66,44.66,0,0,0,44.61,44.61H431.54A44.66,44.66,0,0,0,476.15,327V173a44.66,44.66,0,0,0-44.61-44.61Z"/>
    <path id="division-m" d="M151.75,263.68c-.56-15.05-1.12-33.26-1.12-51.47h-.56c-3.9,16-9.1,33.82-13.93,48.5L120.9,309.59H98.78L85.4,261.09C81.31,246.4,77,228.56,74.06,212.21h-.37c-.74,16.91-1.29,36.24-2.22,51.85l-2.24,47.57H43l8-125.26H88.75L101,228.19c3.9,14.5,7.8,30.11,10.59,44.79h.55c3.53-14.5,7.81-31,11.9-45l13.38-41.63h37l6.88,125.26H153.61Z"/>
    <path id="division-t" d="M224.8,210.16H191.15V186.37h96.27v23.79h-34.2V311.63H224.8Z"/>
    <path id="division-w" d="M327.93,311.63,298.2,186.37h30.29L338,238c2.79,14.87,5.4,31,7.44,43.67h.38c2-13.56,5-28.62,8.17-44l10.59-51.3h30.11l10,52.78c2.79,14.69,4.83,28.07,6.69,42h.37c1.86-13.94,4.64-28.62,7.25-43.49l10.21-51.3H458L425.69,311.63H395l-10.59-53.89c-2.41-12.64-4.46-24.35-5.95-38.66h-.37c-2.23,14.13-4.28,26-7.25,38.66L359,311.63Z"/>
  </g>
</svg>
