<svg
  xmlns="http://www.w3.org/2000/svg"
  viewBox="0 0 500 500"
  width="500"
  height="500"
  fill="#000000"
>
  <path d="M431.54 390.49H68.46A63.53 63.53 0 0 1 5 327V173a63.53 63.53 0 0 1 63.46-63.46h363.08A63.53 63.53 0 0 1 495 173v154a63.53 63.53 0 0 1-63.46 63.49zM68.46 128.36A44.66 44.66 0 0 0 23.85 173v154a44.66 44.66 0 0 0 44.61 44.61h363.08A44.66 44.66 0 0 0 476.15 327V173a44.66 44.66 0 0 0-44.61-44.61z" />
  <path d="M179.23 246.31c0 47.14-28.59 75.72-70.61 75.72C66 322 41 289.82 41 248.86c0-43.08 27.51-75.29 70-75.29 44.13 0 68.23 33.06 68.23 72.74zm-103.88 1.91c0 28.16 13.22 48 35 48 22 0 34.56-20.9 34.56-48.85 0-25.81-12.37-48-34.77-48-21.99.01-34.79 20.91-34.79 48.85z" />
  <path d="M332.15 246.31c0 47.14-28.58 75.72-70.61 75.72-42.65 0-67.61-32.21-67.61-73.17 0-43.08 27.52-75.29 70-75.29 44.12 0 68.22 33.06 68.22 72.74zm-103.88 1.91c0 28.16 13.23 48 35 48 22 0 34.56-20.9 34.56-48.85 0-25.81-12.37-48-34.77-48-21.99.01-34.79 20.91-34.79 48.85z" />
  <path d="M353.47 177.83c10-1.7 24.1-3 43.94-3 20 0 34.34 3.84 43.94 11.52 9.17 7.25 15.36 19.19 15.36 33.27s-4.69 26-13.23 34.13c-11.09 10.45-27.51 15.15-46.71 15.15a82.82 82.82 0 0 1-11.09-.64v51.4h-32.21zm32.21 65.28a50.26 50.26 0 0 0 10.87.85c17.28 0 27.95-8.75 27.95-23.46 0-13.23-9.17-21.12-25.38-21.12a55.3 55.3 0 0 0-13.44 1.28z" />
</svg>
