<svg xmlns="http://www.w3.org/2000/svg" viewBox="0 0 500 500">
  <g id="division-blm">
    <path id="division-outline" d="M431.54,390.49H68.46A63.53,63.53,0,0,1,5,327V173a63.53,63.53,0,0,1,63.46-63.46H431.54A63.53,63.53,0,0,1,495,173V327A63.53,63.53,0,0,1,431.54,390.49ZM68.46,128.36A44.66,44.66,0,0,0,23.85,173V327a44.66,44.66,0,0,0,44.61,44.61H431.54A44.66,44.66,0,0,0,476.15,327V173a44.66,44.66,0,0,0-44.61-44.61Z"/>
    <path id="division-b" d="M47.87,176.48c8.68-1.73,26.25-3,42.74-3,20.18,0,32.55,2,43.18,8.24,10.2,5.43,17.58,15.41,17.58,28.64,0,13-7.6,25.17-24.09,31.25V242c16.71,4.56,29.07,17.14,29.07,36,0,13.23-6.07,23.65-15.18,31-10.63,8.46-28.43,13.23-57.5,13.23a256.67,256.67,0,0,1-35.8-2.17Zm32.76,56H91.48c17.36,0,26.69-7.16,26.69-18,0-11.06-8.46-16.92-23.43-16.92a90.83,90.83,0,0,0-14.11.87Zm0,64.88a105.32,105.32,0,0,0,12.8.43c15,0,28.21-5.64,28.21-21,0-14.75-13.23-20.61-29.72-20.61H80.63Z"/>
    <path id="division-l" d="M178.92,174.53h33.2V293h58.15v27.77H178.92Z"/>
    <path id="division-m" d="M413.47,264.79c-.65-17.57-1.3-38.84-1.3-60.1h-.65c-4.56,18.66-10.64,39.49-16.28,56.63l-17.79,57.06H351.63L336,261.75c-4.77-17.14-9.76-38-13.23-57.06h-.44c-.87,19.75-1.52,42.31-2.6,60.54l-2.61,55.54H286.54l9.33-146.24h44l14.33,48.82c4.55,16.92,9.11,35.15,12.37,52.29h.64c4.13-16.93,9.12-36.24,13.89-52.51l15.62-48.6h43.18l8,146.24H415.64Z"/>
  </g>
</svg>
