<svg
  xmlns="http://www.w3.org/2000/svg"
  viewBox="0 0 500 500"
  width="500"
  height="500"
  fill="#000000"
>
  <path d="M431.54 390.49H68.46A63.53 63.53 0 0 1 5 327V173a63.53 63.53 0 0 1 63.46-63.46h363.08A63.53 63.53 0 0 1 495 173v154a63.53 63.53 0 0 1-63.46 63.49zM68.46 128.36A44.66 44.66 0 0 0 23.85 173v154a44.66 44.66 0 0 0 44.61 44.61h363.08A44.66 44.66 0 0 0 476.15 327V173a44.66 44.66 0 0 0-44.61-44.61z" />
  <path d="M151.75 263.68c-.56-15.05-1.12-33.26-1.12-51.47h-.56c-3.9 16-9.1 33.82-13.93 48.5l-15.24 48.88H98.78l-13.38-48.5c-4.09-14.69-8.4-32.53-11.34-48.88h-.37c-.74 16.91-1.29 36.24-2.22 51.85l-2.24 47.57H43l8-125.26h37.75L101 228.19c3.9 14.5 7.8 30.11 10.59 44.79h.55c3.53-14.5 7.81-31 11.9-45l13.38-41.63h37l6.88 125.26h-27.69z" />
  <path d="M224.8 210.16h-33.65v-23.79h96.27v23.79h-34.2v101.47H224.8z" />
  <path d="M327.93 311.63L298.2 186.37h30.29L338 238c2.79 14.87 5.4 31 7.44 43.67h.38c2-13.56 5-28.62 8.17-44l10.59-51.3h30.11l10 52.78c2.79 14.69 4.83 28.07 6.69 42h.37c1.86-13.94 4.64-28.62 7.25-43.49l10.21-51.3H458l-32.31 125.27H395l-10.59-53.89c-2.41-12.64-4.46-24.35-5.95-38.66h-.37c-2.23 14.13-4.28 26-7.25 38.66L359 311.63z" />
</svg>
