<svg
  xmlns="http://www.w3.org/2000/svg"
  viewBox="0 0 500 500"
  width="500"
  height="500"
  fill="#ffffff"
>
  <path d="M431.54 390.49H68.46A63.53 63.53 0 0 1 5 327V173a63.53 63.53 0 0 1 63.46-63.46h363.08A63.53 63.53 0 0 1 495 173v154a63.53 63.53 0 0 1-63.46 63.49zM68.46 128.36A44.66 44.66 0 0 0 23.85 173v154a44.66 44.66 0 0 0 44.61 44.61h363.08A44.66 44.66 0 0 0 476.15 327V173a44.66 44.66 0 0 0-44.61-44.61z" />
  <path d="M48.86 170.87c10.91-1.86 26.22-3.25 47.81-3.25 21.81 0 37.36 4.18 47.8 12.53 10 7.89 16.71 20.89 16.71 36.21s-5.1 28.31-14.39 37.13C134.73 264.86 116.86 270 96 270a89.92 89.92 0 0 1-12.07-.69v55.89h-35zm35 71a53.9 53.9 0 0 0 11.84.93c18.8 0 30.4-9.51 30.4-25.53 0-14.38-10-23-27.61-23-7.2 0-12.07.7-14.63 1.39z" />
  <path d="M183.69 170.87c11.37-1.86 28.31-3.25 47.11-3.25 23.2 0 39.45 3.48 50.59 12.3 9.28 7.43 14.39 18.33 14.39 32.72 0 20-14.16 33.65-27.62 38.53v.69c10.91 4.41 16.94 14.86 20.89 29.24 4.87 17.64 9.74 38.06 12.76 44.1h-36.2c-2.56-4.41-6.27-17.18-10.91-36.44-4.18-19.49-10.91-24.83-25.29-25.06h-10.68v61.5h-35zm35 67.3h13.92c17.64 0 28.08-8.82 28.08-22.51 0-14.39-9.74-21.58-26-21.81a87.74 87.74 0 0 0-16 1.16z" />
  <path d="M451 318c-10.9 3.72-31.56 8.82-52.21 8.82-28.55 0-49.2-7.19-63.59-21.12-14.39-13.46-22.28-33.88-22.05-56.85.24-52 38.06-81.69 89.35-81.69 20.19 0 35.74 3.94 43.4 7.66l-7.43 28.31c-8.59-3.71-19.26-6.73-36.43-6.73-29.48 0-51.76 16.71-51.76 50.59 0 32.26 20.19 51.28 49.2 51.28 8.12 0 14.63-.92 17.41-2.31v-32.73h-24.12v-27.61H451z" />
</svg>
