<svg
  xmlns="http://www.w3.org/2000/svg"
  viewBox="0 0 500 500"
  width="500"
  height="500"
  fill="#000000"
>
  <path d="M431.54 390.49H68.46A63.53 63.53 0 0 1 5 327V173a63.53 63.53 0 0 1 63.46-63.46h363.08A63.53 63.53 0 0 1 495 173v154a63.53 63.53 0 0 1-63.46 63.49zM68.46 128.36A44.66 44.66 0 0 0 23.85 173v154a44.66 44.66 0 0 0 44.61 44.61h363.08A44.66 44.66 0 0 0 476.15 327V173a44.66 44.66 0 0 0-44.61-44.61z" />
  <path d="M48.61 286c8.7 4.46 22.07 8.91 35.86 8.91 14.85 0 22.7-6.15 22.7-15.49 0-8.91-6.79-14-24-20.15-23.74-8.27-39.23-21.39-39.23-42.18C43.94 192.69 64.31 174 98 174c16.13 0 28 3.4 36.5 7.22l-7.22 26.09a67.94 67.94 0 0 0-29.91-6.79c-14 0-20.79 6.37-20.79 13.79 0 9.13 8.06 13.16 26.52 20.16 25.24 9.33 37.12 22.49 37.12 42.64 0 24-18.45 44.34-57.7 44.34-16.34 0-32.46-4.24-40.53-8.7z" />
  <path d="M185.23 319.35l-33.94-143h34.58l10.82 59c3.19 17 6.15 35.43 8.49 49.85h.42c2.34-15.48 5.73-32.67 9.33-50.28L227 176.36h34.4l11.45 60.25c3.19 16.76 5.52 32 7.64 47.95h.42c2.13-15.92 5.31-32.68 8.28-49.65l11.67-58.55h32.88l-36.91 143h-35l-12.09-61.52c-2.76-14.43-5.09-27.8-6.79-44.13h-.42c-2.55 16.12-4.88 29.7-8.28 44.13l-13.58 61.52z" />
  <path d="M372.34 282.65l-10.18 36.7h-33.52l43.7-143h42.44l44.34 143h-34.8l-11-36.7zm36.28-24.19l-8.9-30.34c-2.55-8.48-5.1-19.09-7.22-27.58h-.42c-2.13 8.49-4.25 19.31-6.58 27.58l-8.5 30.34z" />
</svg>
