<svg
  xmlns="http://www.w3.org/2000/svg"
  viewBox="0 0 500 500"
  width="500"
  height="500"
  fill="#000000"
>
  <path d="M431.54 390.49H68.46A63.53 63.53 0 0 1 5 327V173a63.53 63.53 0 0 1 63.46-63.46h363.08A63.53 63.53 0 0 1 495 173v154a63.53 63.53 0 0 1-63.46 63.49zM68.46 128.36A44.66 44.66 0 0 0 23.85 173v154a44.66 44.66 0 0 0 44.61 44.61h363.08A44.66 44.66 0 0 0 476.15 327V173a44.66 44.66 0 0 0-44.61-44.61z" />
  <path d="M77.51 280.83l-9.46 34.1H36.9l40.61-132.86h39.42l41.2 132.86H125.8l-10.25-34.1zm33.71-22.47l-8.29-28.19c-2.36-7.89-4.73-17.74-6.69-25.63h-.4c-2 7.89-3.94 17.94-6.11 25.63l-7.89 28.19z" />
  <path d="M175.85 183.84a268.94 268.94 0 0 1 40.61-2.76c25.23 0 41.6 4.54 54.41 14.2 13.8 10.25 22.48 26.61 22.48 50.07 0 25.43-9.27 43-22.09 53.81-14 11.63-35.28 17.15-61.3 17.15a259.6 259.6 0 0 1-34.11-2zM206 292.26c2.56.59 6.7.59 10.44.59 27.2.2 45-14.78 45-46.52.2-27.59-16-42.18-41.79-42.18a62.52 62.52 0 0 0-13.6 1.18z" />
  <path d="M425.4 264.07c-.6-16-1.19-35.28-1.19-54.6h-.59c-4.14 16.95-9.66 35.88-14.79 51.45l-16.15 51.84h-23.47L355 261.31c-4.33-15.57-8.87-34.49-12-51.84h-.39c-.78 17.94-1.38 38.44-2.37 55l-2.36 50.46h-27.8l8.47-132.86h40l13 44.35c4.14 15.38 8.28 31.94 11.23 47.51h.6c3.74-15.38 8.27-32.92 12.62-47.7l14.19-44.16h39.22l7.3 132.86h-29.34z" />
</svg>
