<svg
  xmlns="http://www.w3.org/2000/svg"
  viewBox="0 0 500 500"
  width="500"
  height="500"
  fill="#ffffff"
>
  <path d="M431.54 390.49H68.46A63.53 63.53 0 0 1 5 327V173a63.53 63.53 0 0 1 63.46-63.46h363.08A63.53 63.53 0 0 1 495 173v154a63.53 63.53 0 0 1-63.46 63.49zM68.46 128.36A44.66 44.66 0 0 0 23.85 173v154a44.66 44.66 0 0 0 44.61 44.61h363.08A44.66 44.66 0 0 0 476.15 327V173a44.66 44.66 0 0 0-44.61-44.61z" />
  <path d="M51 290.62c10.07 5.15 25.54 10.31 41.5 10.31 17.19 0 26.28-7.12 26.28-17.93 0-10.31-7.86-16.2-27.75-23.33-27.51-9.58-45.44-24.8-45.44-48.87 0-28.24 23.58-49.85 62.63-49.85 18.66 0 32.41 3.93 42.24 8.35l-8.35 30.2a78.75 78.75 0 0 0-34.63-7.85c-16.21 0-24.07 7.36-24.07 16 0 10.56 9.33 15.22 30.7 23.33 29.23 10.8 43 26 43 49.36 0 27.75-21.37 51.33-66.8 51.33-18.91 0-37.58-4.91-46.91-10.07z" />
  <path d="M280.87 259.18H220v39.29h68v30.7H182.39V163.65h102.16v30.7H220v34.38h60.91z" />
  <path d="M451.81 321.56c-11.54 3.93-33.4 9.33-55.26 9.33-30.2 0-52.06-7.61-67.28-22.35-15.23-14.24-23.58-35.85-23.33-60.17.24-55 40.27-86.44 94.54-86.44 21.37 0 37.83 4.17 45.93 8.1l-7.86 30c-9.08-3.93-20.38-7.13-38.55-7.13-31.19 0-54.77 17.69-54.77 53.54 0 34.14 21.37 54.27 52.07 54.27 8.59 0 15.46-1 18.41-2.45V263.6h-25.54v-29.22h61.64z" />
</svg>
