<svg
  xmlns="http://www.w3.org/2000/svg"
  viewBox="0 0 500 500"
  width="500"
  height="500"
  fill="#ffffff"
>
  <path d="M431.54 390.49H68.46A63.53 63.53 0 0 1 5 327V173a63.53 63.53 0 0 1 63.46-63.46h363.08A63.53 63.53 0 0 1 495 173v154a63.53 63.53 0 0 1-63.46 63.49zM68.46 128.36A44.66 44.66 0 0 0 23.85 173v154a44.66 44.66 0 0 0 44.61 44.61h363.08A44.66 44.66 0 0 0 476.15 327V173a44.66 44.66 0 0 0-44.61-44.61z" />
  <path d="M86.56 164.57v94.34c0 28.21 10.71 42.55 29.67 42.55 19.45 0 30.15-13.62 30.15-42.55v-94.34h37v91.91c0 50.57-25.52 74.64-68.31 74.64-41.34 0-65.65-22.85-65.65-75.13v-91.42z" />
  <path d="M216.65 290.28c10 5.1 25.28 10.21 41.08 10.21 17 0 26-7.06 26-17.75 0-10.21-7.78-16.05-27.48-23.1-27.23-9.48-45-24.56-45-48.39 0-28 23.35-49.35 62-49.35 18.47 0 32.09 3.89 41.82 8.26l-8.27 29.91a77.87 77.87 0 0 0-34.28-7.78c-16.05 0-23.84 7.29-23.84 15.8 0 10.46 9.24 15.08 30.4 23.1 28.93 10.7 42.55 25.77 42.55 48.87 0 27.48-21.16 50.82-66.14 50.82-18.71 0-37.19-4.86-46.43-10z" />
  <path d="M346.73 164.57H446.9V195h-63v37.45h58.84v30.15h-58.82v65.89h-37.19z" />
</svg>
