<svg xmlns="http://www.w3.org/2000/svg" viewBox="0 0 500 500">
  <g id="division-pwc">
    <path id="division-outline" d="M431.54,390.49H68.46A63.53,63.53,0,0,1,5,327V173a63.53,63.53,0,0,1,63.46-63.46H431.54A63.53,63.53,0,0,1,495,173V327A63.53,63.53,0,0,1,431.54,390.49ZM68.46,128.36A44.66,44.66,0,0,0,23.85,173V327a44.66,44.66,0,0,0,44.61,44.61H431.54A44.66,44.66,0,0,0,476.15,327V173a44.66,44.66,0,0,0-44.61-44.61Z"/>
    <path id="division-p" d="M47.33,179.56c9.81-1.67,23.58-2.92,43-2.92,19.62,0,33.6,3.75,43,11.27,9,7.09,15,18.78,15,32.56s-4.59,25.46-12.94,33.39c-10.85,10.22-26.92,14.82-45.7,14.82a79.64,79.64,0,0,1-10.86-.63v50.3H47.33Zm31.51,63.86a48.38,48.38,0,0,0,10.65.84c16.9,0,27.34-8.56,27.34-23,0-12.94-9-20.66-24.84-20.66a54.59,54.59,0,0,0-13.15,1.25Z"/>
    <path id="division-w" d="M189.88,318.35,156.49,177.68h34l10.64,58c3.13,16.7,6.06,34.85,8.35,49.05h.42c2.29-15.24,5.63-32.14,9.18-49.47l11.9-57.6h33.81L276.07,237c3.14,16.49,5.43,31.52,7.52,47.17H284c2.09-15.65,5.21-32.14,8.14-48.84l11.48-57.6H336L299.66,318.35H265.23l-11.9-60.53c-2.72-14.19-5-27.34-6.68-43.41h-.42c-2.5,15.87-4.8,29.22-8.14,43.41l-13.35,60.53Z"/>
    <path id="division-c" d="M454.11,314.38c-5.84,2.92-19,6.05-36.11,6.05-48.62,0-73.67-30.26-73.67-70.33,0-48,34.23-74.71,76.8-74.71,16.49,0,29,3.33,34.65,6.26l-6.47,25.25a68.74,68.74,0,0,0-26.72-5.22c-25.25,0-44.87,15.24-44.87,46.54,0,28.18,16.7,45.92,45.08,45.92,9.6,0,20.25-2.09,26.51-4.59Z"/>
  </g>
</svg>
