<svg
  xmlns="http://www.w3.org/2000/svg"
  viewBox="0 0 500 500"
  width="500"
  height="500"
  fill="#000000"
>
  <path d="M275 495v-61.2c69.1-12.1 106.9-57.7 106.9-111.1s-28.8-87.1-100.3-112.3c-51-19.3-72.1-31.9-72.1-51.7 0-16.8 12.7-33.6 51.7-33.6 43.3 0 70.9 13.8 86.5 20.4l17.4-67.9c-19.8-9.6-46.9-18-87.1-19.8V5h-58.8v57c-64.3 12.6-101.5 54.1-101.5 106.9 0 58.3 43.8 88.3 108.1 109.9 44.4 15 63.6 29.4 63.6 52.3s-23.4 37.2-57.6 37.2c-39.1 0-74.5-12.6-99.7-26.4l-18 70.2c22.8 13.3 61.8 24.1 102.1 25.9v57z" />
</svg>
