<svg xmlns="http://www.w3.org/2000/svg" viewBox="0 0 500 500">
  <g id="draft-status">
    <g id="status">
      <path d="M318,124.17,286.6,155.52l48.13,48.13L366,172.36A115.66,115.66,0,0,0,318,124.17Z"/>
      <path d="M151.31,291.32l-8.68,56.21,56-8.75A115.56,115.56,0,0,0,151.31,291.32Z"/>
      <path d="M187.69,254.43l-.08-.09L166.91,275a118.37,118.37,0,0,1,19.2,12.88l.06-.06,16,16.05-.05,0A114.4,114.4,0,0,1,215,323.23L317.28,221l-48.1-48.1Z"/>
      <path d="M252.13,5C115.13,3.84,3.84,115.13,5,252.14,6.14,385.15,114.85,493.86,247.87,495c137,1.17,248.29-110.12,247.12-247.12C493.86,114.85,385.15,6.14,252.13,5Zm136.48,174.6-15.56,15.56L250,318.27l-.09-.08-14.51,14.52L222,346l-2.8,2.8L206,362.09l-95.06,14.83,14.84-95.06L139,268.62l2.8-2.8,13.34-13.34L225.6,182l.08.08L292.83,115l15.56-15.57.48-.47s60.17,13.21,80.22,80.22Z"/>
    </g>
  </g>
</svg>
