<svg xmlns="http://www.w3.org/2000/svg" viewBox="0 0 500 500">
  <g id="emergency-contact">
    <path id="head" d="M214.5,193.3h.1a67.8,67.8,0,0,0,89.2,35.3A67.1,67.1,0,0,0,339,193.3h.1a67.2,67.2,0,0,0,5.4-26.5h0a67.2,67.2,0,0,0-5.4-26.5H339a67.6,67.6,0,0,0-124.4,0h-.1a67.2,67.2,0,0,0-5.4,26.5h0A66.8,66.8,0,0,0,214.5,193.3Z"/>
    <path id="outline" d="M446,7.7H82.1a49,49,0,0,0-49,49h0V58H22.2a16,16,0,0,0,0,31.9H33.1v27.4H22.2a16,16,0,0,0,0,32H33.1v27.5H22.2a16,16,0,0,0,0,31.9H33.1v27.4H22.2a16,16,0,0,0,0,32H33.1v27.5H22.2a15.9,15.9,0,0,0-2.5,31.8,10.5,10.5,0,0,0,2.5,0H33.1v27.5H22.2a16,16,0,0,0,0,31.9H33.1v27.6H22.2a15.9,15.9,0,0,0-2.5,31.8,10.5,10.5,0,0,0,2.5,0H33.1a49.1,49.1,0,0,0,49,46.1H446a49,49,0,0,0,49-49h0V56.7a49,49,0,0,0-49-49Zm27.8,435.6A27.8,27.8,0,0,1,446,471H82.1a27.9,27.9,0,0,1-27.7-24.8H64.9a15.9,15.9,0,1,0,2.5-31.8H54.3V386.8H64.9a16,16,0,1,0,0-31.9H54.3V327.4H64.9a15.9,15.9,0,1,0,2.5-31.8,10.5,10.5,0,0,0-2.5,0H54.3V268.1H64.9a16,16,0,0,0,0-32H54.3V208.7H64.9a16,16,0,1,0,0-31.9H54.3V149.3H64.9a16,16,0,0,0,0-32H54.3V89.9H64.9a16,16,0,1,0,0-31.9H54.3V56.7A27.8,27.8,0,0,1,82.1,29H446a27.8,27.8,0,0,1,27.8,27.7Z"/>
    <path id="body" d="M364.2,275.4c-32.7-27.9-87.3-27-87.3-27s-54.8-.9-87.4,27-42.2,114.3-42.2,114.3c135.8,34.6,259,0,259,0S396.9,303.4,364.2,275.4ZM276.8,379.6h0c-65.8-36.7-61.2-64.9-61.2-64.9a32.6,32.6,0,0,1,60.3-17.2,1,1,0,0,0,1.8,0A32.6,32.6,0,0,1,338,314.7S342.6,342.9,276.8,379.6Z"/>
  </g>
</svg>
