<svg
  xmlns="http://www.w3.org/2000/svg"
  viewBox="0 0 500 500"
  width="500"
  height="500"
  fill="#000000"
>
  <path d="M490.4 48a9.3 9.3 0 0 0-9.4-.3c-124.9 65.4-224.7 1.1-225.7.5l-.9-.5c-135.2-70.9-240.7-2.5-245.1.5a9.6 9.6 0 0 0-4.3 8v418.6a9.6 9.6 0 0 0 19.1 0V286.7c8.8-5 30.8-16 61.5-22.2 53.6-10.7 107.3-2.3 159.6 25 8.7 5.7 112.5 69.5 244.7.2a9.7 9.7 0 0 0 5.1-8.5v-225a9.6 9.6 0 0 0-4.6-8.2zM115.9 241.2A239.5 239.5 0 0 0 24.1 265v-87c2.6-1.7 37.9-24.7 91.8-30.3zM241.6 149c-38.8-16.8-75-22.3-106.6-21.7V35c35.9.7 71.6 9.9 106.6 27.6zm234.3 15.8c-32.3 15.4-62.5 22.1-89.5 23.8V95.7c27.3-2.3 57.4-9.4 89.5-24.2zM260.7 276.4v-96.1c16.4 9.3 54.6 27.2 106.6 28.3v93.5c-53.5.3-92.8-18.2-106.6-25.7z" />
</svg>
