<svg xmlns="http://www.w3.org/2000/svg" viewBox="0 0 500 500">
  <g id="end-date">
    <path id="flag" d="M490.4,48a9.3,9.3,0,0,0-9.4-.3c-124.9,65.4-224.7,1.1-225.7.5l-.9-.5C119.2-23.2,13.7,45.2,9.3,48.2a9.6,9.6,0,0,0-4.3,8V474.8a9.6,9.6,0,0,0,19.1,0V286.7c8.8-5,30.8-16,61.5-22.2,53.6-10.7,107.3-2.3,159.6,25,8.7,5.7,112.5,69.5,244.7.2a9.7,9.7,0,0,0,5.1-8.5V56.2A9.6,9.6,0,0,0,490.4,48ZM115.9,241.2A239.5,239.5,0,0,0,24.1,265V178c2.6-1.7,37.9-24.7,91.8-30.3ZM241.6,149c-38.8-16.8-75-22.3-106.6-21.7V35c35.9.7,71.6,9.9,106.6,27.6Zm234.3,15.8c-32.3,15.4-62.5,22.1-89.5,23.8V95.7c27.3-2.3,57.4-9.4,89.5-24.2ZM260.7,276.4V180.3c16.4,9.3,54.6,27.2,106.6,28.3v93.5C313.8,302.4,274.5,283.9,260.7,276.4Z"/>
  </g>
</svg>
