<svg xmlns="http://www.w3.org/2000/svg" viewBox="0 0 500 500" fill="#000000">
  <circle cx="250" cy="250" r="245" fill="#22205f" />
  <path
    d="M304.48 62.74a98.12 98.12 0 0 0-60.32 20.7 98.54 98.54 0 0 1 48.24 175.82 100.29 100.29 0 0 0 12.08.81 98.67 98.67 0 1 0 0-197.33z"
    fill="#fcf8cd"
  />
  <circle cx="446.76" cy="345.37" r="15" fill="#fff" />
  <circle cx="220.47" cy="231.62" r="15" fill="#fff" />
  <circle cx="320.43" cy="331.59" r="15" fill="#fff" />
  <circle cx="198.57" cy="384.51" r="15" fill="#fff" />
  <circle cx="81.37" cy="341.93" r="15" fill="#fcf8cd" />
  <circle cx="201.69" cy="38.59" r="15" fill="#fff" />
  <circle cx="138.22" cy="158.93" r="15" fill="#fcf8cd" />
  <path
    d="M476.62 180.22a14.87 14.87 0 0 0 7.86-2.28A241.57 241.57 0 0 0 474 150.48a15 15 0 0 0 2.67 29.74z"
    fill="#fcf8cd"
  />
  <path
    d="M295.69 467a15 15 0 0 0-10.7 25.5 242.94 242.94 0 0 0 24.59-4.86A15 15 0 0 0 295.69 467z"
    fill="#fcf8cd"
  />
  <path
    d="M18.45 244.39A15 15 0 1 0 6.84 220c-.65 5.49-1.19 11-1.47 16.6a14.92 14.92 0 0 0 13.08 7.79z"
    fill="#fff"
  />
</svg>
