<svg
  xmlns="http://www.w3.org/2000/svg"
  viewBox="0 0 500 500"
  width="500"
  height="500"
  fill="#000000"
>
  <path d="M249.8 174.6a75.4 75.4 0 1 0 75.4 75.4 75.5 75.5 0 0 0-75.4-75.4zm.2 129.8a54.4 54.4 0 1 1 54.4-54.4 54.5 54.5 0 0 1-54.4 54.4z" />
  <path d="M419.6 174.6A75.4 75.4 0 1 0 495 250a75.5 75.5 0 0 0-75.4-75.4zm.2 129.8a54.4 54.4 0 1 1 54.3-54.4 54.4 54.4 0 0 1-54.3 54.4z" />
  <path d="M80.4 174.6a75.4 75.4 0 1 0 75.4 75.4 75.5 75.5 0 0 0-75.4-75.4zm.2 129.8a54.4 54.4 0 1 1 54.3-54.4 54.4 54.4 0 0 1-54.3 54.4z" />
</svg>
