<svg
  xmlns="http://www.w3.org/2000/svg"
  viewBox="0 0 500 500"
  width="500"
  height="500"
  fill="#ffffff"
>
  <polygon points="369.8 24.3 348.4 24.3 347.7 24.3 326.3 24.3 326.3 54.6 369.8 98.1 369.8 24.3" />
  <polygon points="246.8 73.7 405.7 232.6 471.9 232.6 246.8 7.5 28.1 232.6 92.4 232.6 246.8 73.7" />
  <polygon points="282.9 414.3 401.7 414.3 401.7 335.9 401.7 270 401.7 269.6 246.8 114.7 98.3 267.6 98.3 270 98.3 333.8 98.3 414.3 217.1 414.3 217.1 330 238.5 330 239.3 330 260.7 330 282.9 330 282.9 381.3 282.9 414.3" />
  <path d="M410.2 433.2H89.8a19.6 19.6 0 0 0-19.6 19.6v20.1a19.6 19.6 0 0 0 19.6 19.6h320.4a19.6 19.6 0 0 0 19.6-19.6v-20.1a19.6 19.6 0 0 0-19.6-19.6z" />
</svg>
