<svg
  xmlns="http://www.w3.org/2000/svg"
  viewBox="0 0 500 500"
  width="500"
  height="500"
  fill="#000000"
>
  <path d="M202.8 143.2a36.7 36.7 0 0 1 1.4 5.6c8.2 3.4 21.8 1.1 38.4-7.2 21.3-10.6 40.4-10 55.2-5.3 11.9-16.6 24.2-40.8 24.2-52.7s5.6-43.2-25.4-70c0 0-6.3-7.6-19-8.5s-24.5 8.8-24.5 8.8-27.8 22.6-38.3 23.5-59.5 0-59.5 0-18.9-.6-20.2 15.4 8.2 68.5 67.7 90.4z" />
  <path d="M311 180.3h-.3s-12.5-12.8-16-26.2c-10.4-4-25.6-5.7-44.2 3.5-15.8 7.9-28.1 10.6-37.7 10.6a38.9 38.9 0 0 1-6.2-.5c-13.7-7.3-36.8-13.8-67.1-.6-34.6 15-42.8 3.8-42.9 3.7l.3.4-15.9 8.2c.9 1.8 7.7 13.4 28.2 13.4 9.3 0 21.5-2.4 37.4-9.3 18.7-8.2 33.7-6.8 44.1-3.3h-.3s-6.6 5.7-16.7 15.5c-11.9-.3-25.5 1.6-40.8 7.3-42.3 15.7-52.7 3.4-52.7 3.3s.2.4.2.4L65.1 216c1.1 1.8 8.7 12.8 31.6 12.8 10.6 0 24.4-2.3 42.4-9a106.2 106.2 0 0 1 15.3-4.4c-65 69.2-176.5 221.8 36 279.6H311c278.7-75.8 0-314.7 0-314.7zm-49.3 233.2V438H238v-22.9c-16.1-.7-31.8-5-40.9-10.3l7.2-28.2c10.1 5.5 24.4 10.6 40 10.6 13.7 0 23.1-5.3 23.1-14.9s-7.7-15-25.5-21c-25.8-8.7-43.4-20.7-43.4-44.1 0-21.2 15-37.8 40.7-42.8v-22.9h23.7v21.2c16.1.7 26.9 4.1 34.9 7.9l-7 27.2c-6.3-2.6-17.3-8.2-34.7-8.2-15.6 0-20.7 6.8-20.7 13.5s8.4 13 28.9 20.8c28.7 10.1 40.2 23.3 40.2 45s-15.1 39.7-42.8 44.6z" />
</svg>
