<svg xmlns="http://www.w3.org/2000/svg" viewBox="0 0 500 500">
  <g id="expense-per-diem">
    <g id="expensePerDiem">
      <rect id="line2" x="92.9" y="23.2" width="22.5" height="146.65" transform="translate(-37.8 101.9) rotate(-45)"/>
      <rect id="line1" x="124.7" y="-8.5" width="22.5" height="146.65" transform="translate(-6 115.1) rotate(-45)"/>
      <path id="fork" d="M186.8,163.4l-11.4-11.5c-33.9,33.7-43.2,20.3-43.2,20.3h0L28.5,68.5,12.6,84.4,116.3,188.1s22.1,26.2,56-7.5L474.7,483l15.9-15.9Z"/>
      <path id="handle1" d="M224.2,264.3l-45.4,45.4a33.4,33.4,0,0,0-42.1,4.3L19.2,431.5a33.4,33.4,0,0,0,0,47.3l6.4,6.4a33.6,33.6,0,0,0,47.4,0L190.5,367.7a33.3,33.3,0,0,0,4.2-42.1l45.4-45.4Zm-48.1,89.1L58.6,470.9a13.2,13.2,0,0,1-18.6,0l-6.5-6.4a13.4,13.4,0,0,1,0-18.7L151.1,328.3h0a13.2,13.2,0,0,1,18.6,0l6.4,6.4a13.2,13.2,0,0,1,0,18.7Z"/>
      <path id="spoon" d="M288,232.3,346.3,174c24.8,13.2,65.5,1.3,97-30.3,35.9-35.8,46.4-83.4,23.6-106.2S396.5,25.3,360.7,61.1c-31.6,31.6-43.5,72.2-30.3,97l-58.3,58.3Z"/>
    </g>
  </g>
</svg>
