<svg xmlns="http://www.w3.org/2000/svg" viewBox="0 0 500 500">
  <g id="expense-travel">
    <g id="expenseTravelIcon">
      <path id="cabin" d="M493.8,178.4c-3-9.3-11-15.9-21-18.6a21.9,21.9,0,0,1,.5,6.8c-1.6,19.4-24.6,36.8-27.3,38.7a8.9,8.9,0,0,1-4.9,1.6,8.1,8.1,0,0,1-6.7-3.5,8.3,8.3,0,0,1,1.8-11.7c7.5-5.5,19.7-17.5,20.4-26.5a8.2,8.2,0,0,0-2-6.1c-1.9.4-3.9.8-5.8,1.4l-58.2,9.4-234.8,90-40.3,18L27.9,234.6,5,241.8l62.4,57.5c-9.4,4.1-15.1,12.1-12.9,19,1.4,4.3,5.6,7.2,10.9,8.2L30,374.8l18.6-6,44.2-42.6,86.4-2.3,234-83L467.4,219C487.1,212.8,498.9,194.6,493.8,178.4Z"/>
      <polygon id="wing2" points="324.7 52.1 308 57.4 273.3 198 350 168.8 324.7 52.1"/>
      <polygon id="wing1" points="191.4 447.9 211.4 441.6 329.6 287.9 248.9 315.7 191.4 447.9"/>
      <polygon id="fin" points="100.6 231.2 89.5 234.8 87.6 255.5 105.3 264.3 100.6 231.2"/>
    </g>
  </g>
</svg>
