<svg
  xmlns="http://www.w3.org/2000/svg"
  viewBox="0 0 500 500"
  width="500"
  height="500"
  fill="#000000"
>
  <path d="M118.9 286a30.3 30.3 0 1 0 30.3 30.3 30.3 30.3 0 0 0-30.3-30.3z" />
  <path d="M414.5 286a30.3 30.3 0 1 0 30.3 30.3 30.3 30.3 0 0 0-30.3-30.3z" />
  <path d="M488.8 263.5c-8.5-13.8-45.7-39.7-122.6-43.7H227.6v-54.6c48.2-.8 86.6 23.5 107 39.9h18.3a188.4 188.4 0 0 0-66.4-41.5c-7.5-2.8-25.1-11.6-78.4-10-31.5.9-61.5 9.2-69.2 12.3S70.3 199.7 61.5 202s-53.4 6.9-53.4 6.9v10.9h28.3v15.6H8.1v65.8S-4 324.4 72.9 326.5a43.1 43.1 0 0 1-1.2-10.2 47.2 47.2 0 1 1 94.3 0 46.1 46.1 0 0 1-2.4 14.9h205.2l.7-.8a46.7 46.7 0 0 1-2.2-14.1 47.2 47.2 0 1 1 94.3 0 46.1 46.1 0 0 1-2.4 14.9h29.6s8.4-53.8 0-67.7zM93.5 219.8s47.7-55.8 116.6-54.6v54.6zm252 95.8H187.4a19.4 19.4 0 0 0 .2-2.4 63.5 63.5 0 0 0-1.4-13.2h161.7a54.1 54.1 0 0 0-2.4 15.6z" />
</svg>
