<svg xmlns="http://www.w3.org/2000/svg" viewBox="0 0 500 500">
  <g id="expense-supplies">
    <g id="expenseSuppliesIcon">
      <path id="line3" d="M45.7,347.2l50.4,18.2a7.5,7.5,0,0,0,9.4-4.4,7.3,7.3,0,0,0-4.4-9.4L50.7,333.4a7.3,7.3,0,0,0-9.4,4.4A7.3,7.3,0,0,0,45.7,347.2Z"/>
      <path id="line2" d="M45.7,303.9l30.4,11a7.3,7.3,0,0,0,2.5.4A7.4,7.4,0,0,0,81.1,301L50.7,290.1a7.3,7.3,0,0,0-9.4,4.4A7.3,7.3,0,0,0,45.7,303.9Z"/>
      <polygon id="line1" points="165.5 159 342.6 95 320.1 87.3 144.1 151 165.5 159"/>
      <polygon id="outline" points="495 118.5 362.9 70.5 333.9 81 465 128.7 257.1 204.4 178.4 175.7 149.4 186.2 247.5 222 247.5 446 25.5 365.2 25.5 141.1 120.4 175.7 149.4 165.2 41.4 125.9 250 50.4 304.9 70.4 333.9 59.9 250 29.4 250 29.4 250 29.4 250 29.4 250 29.4 5.8 117.7 5.7 117.7 5.7 377 5 378.8 248.8 467.6 248.8 467.6 257.1 470.6 265.4 467.6 265.4 467.5 455.4 398.4 455.4 152.2 475.2 144.9 475.2 391.2 494.7 384.1 494.7 384.1 495 384.1 495 118.7 495 118.7 495 118.5"/>
    </g>
  </g>
</svg>
