<svg xmlns="http://www.w3.org/2000/svg" viewBox="0 0 500 500">
  <g id="expense-background">
    <g id="expenseBackgroundIcon">
      <path id="circle4" d="M168.2,78.1a16.6,16.6,0,1,0,23.5,0A16.6,16.6,0,0,0,168.2,78.1Z"/>
      <path id="circle3" d="M300.9,136.9a16.6,16.6,0,1,0,22.2,7.6A16.6,16.6,0,0,0,300.9,136.9Z"/>
      <path id="circle2" d="M373.9,280.3a16.7,16.7,0,1,0-16.7-16.7A16.7,16.7,0,0,0,373.9,280.3Z"/>
      <path id="circle1" d="M373.9,376.2a16.7,16.7,0,1,0-16.7-16.6A16.7,16.7,0,0,0,373.9,376.2Z"/>
      <path id="dollarSign" d="M300.6,312a52.3,52.3,0,1,0-52.3,52.2A52.3,52.3,0,0,0,300.6,312Zm-70.3,19.7,2.4-9.5a29.5,29.5,0,0,0,13.5,3.5c4.6,0,7.8-1.8,7.8-5s-2.6-5-8.6-7.1c-8.7-2.9-14.6-6.9-14.6-14.8s5-12.8,13.7-14.5v-7.7h7.9v7.2a28.4,28.4,0,0,1,11.8,2.7l-2.3,9.1a27.6,27.6,0,0,0-11.7-2.7c-5.3,0-7,2.2-7,4.5s2.8,4.4,9.7,7c9.7,3.4,13.6,7.9,13.6,15.2s-5.1,13.4-14.5,15v8.3h-7.9v-7.8A33.6,33.6,0,0,1,230.3,331.7Z"/>
      <path id="corner2" d="M180.6,52.7A24.6,24.6,0,0,1,198.1,60l46.4,46.3,17.6-8.7L211.3,46.9a43.3,43.3,0,0,0-61.5,0L125.4,71.3V97L163,60A24.7,24.7,0,0,1,180.6,52.7Z"/>
      <rect id="line1" x="73.6" y="7.5" width="34.5" height="485.1"/>
      <path id="outline" d="M383,212H252a52.2,52.2,0,0,0-58-8.1,50,50,0,0,0-11.9,8.1H124.4v18.6H383a24.8,24.8,0,0,1,24.8,24.8V368.5A24.9,24.9,0,0,1,383,393.4H124.4V412H383a43.5,43.5,0,0,0,43.4-43.5V255.4A43.5,43.5,0,0,0,383,212Z"/>
      <path id="corner1" d="M312.7,115.6A24.8,24.8,0,0,1,335,129.4l32.2,65.3H388l-36.3-73.5a43.4,43.4,0,0,0-58.2-19.7L275,110.6h0l-17.6,8.7h0L154.5,170.1a51.5,51.5,0,0,0-30.1-9.6V185h0v20.7l177.4-87.5A23.3,23.3,0,0,1,312.7,115.6Z"/>
    </g>
  </g>
</svg>
