<svg xmlns="http://www.w3.org/2000/svg" viewBox="0 0 500 500">
  <g id="expense-equiptment">
    <path id="expenseEquiptmentIcon" d="M492.4,185.2c-6.7-33.5-28.8-55.6-63.9-63.8l-1.2-.3H349.4v-11c0-34.7-31.6-52.4-50.2-57.4l-2.5-.6H171l-2.5.6c-18.6,5-50.2,22.7-50.2,57.4v50.8H50.2A42.8,42.8,0,0,0,7.4,203.6V405.2a42.8,42.8,0,0,0,42.8,42.7H75.3L201.8,321.5,228,347.7,127.7,447.9H407.9a42.7,42.7,0,0,0,42.7-42.7V203.6a42.7,42.7,0,0,0-42.7-42.7H349.4V141.1H425c26.8,6.5,42.3,22,47.6,47.1V420.1a31.5,31.5,0,0,1-.3,4.4l20.3-8.7V187.2ZM354.5,320l8.4,9.8a8.3,8.3,0,0,1-1,11.8l-25.3,21.5a8.4,8.4,0,0,1-11.8-1l-8.3-9.8a8.3,8.3,0,0,1,.8-11.7l-3.4-4-23-22.6-40.6,26.3-39.5-40.4,27.4-37.6s-32.3-14.8-104.1-7c0,0-1.8-4.5,4.4-7.1,56.1-23.7,112.5-11.4,124.3-8.4a12,12,0,0,1,4.1,2c6.5,4.8,29.5,22.4,47,42.6v.3l28.9,34.2A8.2,8.2,0,0,1,354.5,320ZM309.4,160.9H158.3V110.1c0-10.2,13.4-16.2,18.5-18.1H290.9c5.1,1.9,18.5,7.9,18.5,18.1v11h0v20h0Z"/>
  </g>
</svg>
