<svg xmlns="http://www.w3.org/2000/svg" viewBox="0 0 500 500">
  <g id="expense-other">
    <g id="expenseOtherIcon">
      <path id="ring3" d="M249.8,174.6A75.4,75.4,0,1,0,325.2,250,75.5,75.5,0,0,0,249.8,174.6Zm.2,129.8A54.4,54.4,0,1,1,304.4,250,54.5,54.5,0,0,1,250,304.4Z"/>
      <path id="ring2" d="M419.6,174.6A75.4,75.4,0,1,0,495,250,75.5,75.5,0,0,0,419.6,174.6Zm.2,129.8A54.4,54.4,0,1,1,474.1,250,54.4,54.4,0,0,1,419.8,304.4Z"/>
      <path id="ring1" d="M80.4,174.6A75.4,75.4,0,1,0,155.8,250,75.5,75.5,0,0,0,80.4,174.6Zm.2,129.8A54.4,54.4,0,1,1,134.9,250,54.4,54.4,0,0,1,80.6,304.4Z"/>
    </g>
  </g>
</svg>
