<svg xmlns="http://www.w3.org/2000/svg" viewBox="0 0 500 500">
  <g id="expense-donated-nicra">
    <g id="expenseDonatedNicraIcon">
      <path id="coin" d="M250,173.3a72.1,72.1,0,1,0-72.1-72.1A72.1,72.1,0,0,0,250,173.3ZM225.6,69h17.1l13.5,23.8A180.7,180.7,0,0,1,266.8,115h.3a230.5,230.5,0,0,1-1.3-27V69h13.5v64.9H263.9l-13.9-25a244.7,244.7,0,0,1-11.2-23h-.3c.4,8.6.6,17.8.6,28.4v19.5H225.6Z"/>
      <path id="hand" d="M463.6,241.1a30.8,30.8,0,0,0-19,6.6h-.1l-.5.5-.5.4C433,257.1,346.4,328,341.6,331H257.3a13.5,13.5,0,0,1-10.6-12.2c-1-10.4,10.4-18,10.4-18h71.7a31.6,31.6,0,1,0,0-63.1H173.4a65,65,0,0,0-28.3,9.7c-13.5,8.8-53.9,45.1-53.9,45.1l91.1,112.9,142,2.3s15.5.5,27.8-6.8,114.6-90.6,129.5-102.7a31.4,31.4,0,0,0-18-57.1Z"/>
      <path id="cuff" d="M156.4,399.7,84.8,309.9a26.8,26.8,0,0,0-37.6-4.2l-20,16-1.3,1L5,339.4l8.8,11.1,3.5,4.3,4.4,5.5,2.8,3.5L93.3,450l1.3,1.4h-.1l15.4,19.3,19.5-15.6,1.5-.9,21.3-17,.4-.4,20.3-16.1-15.1-19.1A14.3,14.3,0,0,0,156.4,399.7Zm-30.3,26.6a11.6,11.6,0,1,1,1.8-16.2A11.6,11.6,0,0,1,126.1,426.3Z"/>
    </g>
  </g>
</svg>
