<svg
  xmlns="http://www.w3.org/2000/svg"
  viewBox="0 0 500 500"
  width="500"
  height="500"
  fill="#000000"
>
  <rect x="355.6" y="25.5" width="16.2" height="19.39" />
  <rect
    x="415.9"
    y="115.5"
    width="60.8"
    height="16.19"
    transform="rotate(-25.3 447.008 123.727)"
  />
  <rect
    x="468.5"
    y="258"
    width="16.2"
    height="21"
    transform="rotate(-70.8 476.73 268.483)"
  />
  <rect
    x="388.2"
    y="58.2"
    width="42"
    height="16.2"
    transform="rotate(-37.8 409.359 66.245)"
  />
  <rect
    x="444.6"
    y="183.8"
    width="40.6"
    height="16.2"
    transform="rotate(-25.3 465.61 192.017)"
  />
  <path d="M227.7 344.5a19.9 19.9 0 0 0-1.2-1.9 78.4 78.4 0 0 1-6.9 4.1A88.3 88.3 0 0 1 101 308.5a87.3 87.3 0 0 1-5.5-67.2 96.2 96.2 0 0 1 5.1-12.3l-51 26.1a71.4 71.4 0 0 0 65.3 127.1l48-24.7a35.4 35.4 0 0 0 3.7 18.4l51.6 100.4a34.3 34.3 0 1 0 61.1-31.3z" />
  <path d="M321.4 150.3c-11.4 38.7 29.8 57.9 29.8 57.9 22-11.3 33.2-33.5 25-49.5s-32.7-19.7-54.8-8.4z" />
  <path d="M271.6 7.3c-14.3 7.4-17.9 29.1-10.6 64.5-20 65.6-55.3 104.9-56 105.7l-55.2 28.3-2 .9a69.2 69.2 0 0 0-30 93.2 69.4 69.4 0 0 0 93.2 30 16.4 16.4 0 0 0 2.2-1.4l54.8-28.1s56.9-2.3 123.7 20.9c16 15.9 31.1 25.4 43.7 25a20 20 0 0 0 9-2.3c33.2-17 3.5-112-38.1-193.1S304.8-9.7 271.6 7.3zm161.8 315.3c-17.1 8.8-85.7-69.4-115.2-126.5-30.5-58.9-50.3-164.6-37.5-171.2 22-11.4 87.2 87.4 110.9 133.4 29.5 57 63.8 152.9 41.8 164.3z" />
</svg>
