<svg xmlns="http://www.w3.org/2000/svg" viewBox="0 0 500 500">
  <g id="expense-professional">
    <g id="expenseProfessional">
      <circle id="head" cx="250" cy="114.7" r="107.3" transform="translate(-7.9 210.4) rotate(-45)"/>
      <path id="body" d="M388.5,287.2C336.6,242.9,250,244.3,250,244.3s-86.6-1.4-138.5,42.9S44.9,468.3,44.9,468.3c215.1,54.6,410.2,0,410.2,0S440.3,331.4,388.5,287.2ZM250,477.5l-28.6-74.8,20.8-87.6-.2-.3a101,101,0,0,1,16,.6v.2l17.5,85.7Zm19.9-179.1c-17.2-3.2-30.5-2.8-40.2-1l-20.9-29.7s39.5-24.3,82.4,0Z"/>
    </g>
  </g>
</svg>
