<svg
  xmlns="http://www.w3.org/2000/svg"
  viewBox="0 0 500 500"
  width="500"
  height="500"
  fill="#000000"
>
  <path d="M435.2 374.2H64.8c-33 0-59.8-24.2-59.8-54V179.8c0-29.8 26.8-54 59.8-54h370.4c33 0 59.8 24.2 59.8 54v140.4c0 29.8-26.8 54-59.8 54zM64.8 148.9c-18.9 0-34.2 13.8-34.2 30.9v140.4c0 17.1 15.3 30.9 34.2 30.9h370.4c18.9 0 34.2-13.8 34.2-30.9V179.8c0-17.1-15.3-30.9-34.2-30.9z" />
  <circle cx="430.4" cy="184.1" r="17.6" />
  <circle cx="430.4" cy="313.1" r="17.6" />
  <circle cx="65" cy="183.6" r="17.6" />
  <circle cx="65" cy="312.5" r="17.6" />
  <path
    data-name="dollar-sign"
    d="M252.8 180.2a69.8 69.8 0 1 0 69.8 69.8 69.9 69.9 0 0 0-69.8-69.8zm4.9 101.5v11.1H247v-10.3c-7.2-.3-14.3-2.3-18.4-4.7l3.3-12.7a37.9 37.9 0 0 0 18 4.8c6.1 0 10.4-2.4 10.4-6.7s-3.5-6.7-11.5-9.4c-11.6-3.9-19.5-9.4-19.5-19.9s6.7-17 18.3-19.2v-10.3h10.6v9.5c7.3.3 12.1 1.8 15.7 3.6l-3.1 12.2a35.7 35.7 0 0 0-15.6-3.7c-7.1 0-9.4 3.1-9.4 6.1s3.8 5.8 13 9.3c12.9 4.6 18.1 10.5 18.1 20.3s-6.8 17.9-19.2 20z"
  />
</svg>
