<svg
  xmlns="http://www.w3.org/2000/svg"
  viewBox="0 0 500 500"
  width="500"
  height="500"
  fill="#ffffff"
>
  <path d="M383.1 495H116.9a70.3 70.3 0 0 1-70.3-70.3V75.3A70.3 70.3 0 0 1 116.9 5h266.2a70.3 70.3 0 0 1 70.3 70.3v349.4a70.3 70.3 0 0 1-70.3 70.3zM116.9 24.3a51 51 0 0 0-51 51v349.4a51 51 0 0 0 51 51h266.2a51 51 0 0 0 51-51V75.3a51 51 0 0 0-51-51z" />
  <path
    data-name="dollar-sign"
    d="M239 327c-22.6 0-43.3-6.5-59.2-14.3a5.2 5.2 0 0 0-7.3 3.5l-9.1 35.4a5.4 5.4 0 0 0 2.8 6c14.1 7.1 35.4 12.8 57.7 14.4a5.3 5.3 0 0 1 5 5.3v26.9a5.2 5.2 0 0 0 5.2 5.3h27.8a5.3 5.3 0 0 0 5.3-5.3v-30.3a5.2 5.2 0 0 1 4.2-5.1c42.3-8.9 65.3-37.8 65.3-71.5s-18.7-56.7-65.2-73.1c-33.3-12.5-47-20.7-47-33.6 0-11 8.3-21.9 33.7-21.9 23.5 0 40 6.3 50.7 10.9a5.2 5.2 0 0 0 7.1-3.6l8.7-33.9a5.4 5.4 0 0 0-3-6.2c-11.6-5-26.7-9.3-47.6-10.7a5.3 5.3 0 0 1-5-5.2V95.8a5.2 5.2 0 0 0-5.2-5.3h-27.8a5.3 5.3 0 0 0-5.3 5.3v27.6a5.2 5.2 0 0 1-4.1 5.1c-39.3 9.2-61.9 35.5-61.9 68.7 0 37.9 28.5 57.5 70.3 71.6 28.9 9.7 41.4 19.1 41.4 34S261.3 327 239 327z"
  />
</svg>
