<svg
  xmlns="http://www.w3.org/2000/svg"
  viewBox="0 0 500 500"
  width="500"
  height="500"
  fill="#000000"
>
  <path d="M168.2 78.1a16.6 16.6 0 1 0 23.5 0 16.6 16.6 0 0 0-23.5 0z" />
  <path d="M300.9 136.9a16.6 16.6 0 1 0 22.2 7.6 16.6 16.6 0 0 0-22.2-7.6z" />
  <path d="M373.9 280.3a16.7 16.7 0 1 0-16.7-16.7 16.7 16.7 0 0 0 16.7 16.7z" />
  <path d="M373.9 376.2a16.7 16.7 0 1 0-16.7-16.6 16.7 16.7 0 0 0 16.7 16.6z" />
  <path d="M300.6 312a52.3 52.3 0 1 0-52.3 52.2 52.3 52.3 0 0 0 52.3-52.2zm-70.3 19.7l2.4-9.5a29.5 29.5 0 0 0 13.5 3.5c4.6 0 7.8-1.8 7.8-5s-2.6-5-8.6-7.1c-8.7-2.9-14.6-6.9-14.6-14.8s5-12.8 13.7-14.5v-7.7h7.9v7.2a28.4 28.4 0 0 1 11.8 2.7l-2.3 9.1a27.6 27.6 0 0 0-11.7-2.7c-5.3 0-7 2.2-7 4.5s2.8 4.4 9.7 7c9.7 3.4 13.6 7.9 13.6 15.2s-5.1 13.4-14.5 15v8.3h-7.9v-7.8a33.6 33.6 0 0 1-13.8-3.4z" />
  <path d="M180.6 52.7a24.6 24.6 0 0 1 17.5 7.3l46.4 46.3 17.6-8.7-50.8-50.7a43.3 43.3 0 0 0-61.5 0l-24.4 24.4V97L163 60a24.7 24.7 0 0 1 17.6-7.3z" />
  <rect x="73.6" y="7.5" width="34.5" height="485.1" />
  <path d="M383 212H252a52.2 52.2 0 0 0-58-8.1 50 50 0 0 0-11.9 8.1h-57.7v18.6H383a24.8 24.8 0 0 1 24.8 24.8v113.1a24.9 24.9 0 0 1-24.8 24.9H124.4V412H383a43.5 43.5 0 0 0 43.4-43.5V255.4A43.5 43.5 0 0 0 383 212z" />
  <path d="M312.7 115.6a24.8 24.8 0 0 1 22.3 13.8l32.2 65.3H388l-36.3-73.5a43.4 43.4 0 0 0-58.2-19.7l-18.5 9.1-17.6 8.7-102.9 50.8a51.5 51.5 0 0 0-30.1-9.6v45.2l177.4-87.5a23.3 23.3 0 0 1 10.9-2.6z" />
</svg>
