<svg
  xmlns="http://www.w3.org/2000/svg"
  viewBox="0 0 500 500"
  width="500"
  height="500"
  fill="#ffffff"
>
  <path d="M250 494.61a244.8 244.8 0 0 1-218.91-135h-.54l-6.06-13.36A243.3 243.3 0 0 1 5 250.39v-.9a243.46 243.46 0 0 1 19.49-95.73l5.69-13.36h.91a245 245 0 0 1 437.82 0h.54l6.06 13.36A243.3 243.3 0 0 1 495 249.61v.91a243.59 243.59 0 0 1-19.49 95.72l-5.69 13.36h-.91A244.8 244.8 0 0 1 250 494.61zM62.12 322.1l3.14 6.9a201.05 201.05 0 0 0 369.48 0l4.39-10.21a200.07 200.07 0 0 0 11.93-67.54v-2.37a200.09 200.09 0 0 0-13.18-70.93l-3.14-6.85a201.05 201.05 0 0 0-369.48 0l-4.39 10.21a199.91 199.91 0 0 0-11.93 67.52v2.37a199.72 199.72 0 0 0 13.18 70.9z" />
  <polygon points="356.18 392.62 213.99 250.42 213.99 78.41 257.93 78.41 257.93 232.23 387.25 361.55 356.18 392.62" />
</svg>
