<svg
  xmlns="http://www.w3.org/2000/svg"
  viewBox="0 0 500 500"
  width="500"
  height="500"
  fill="#ffffff"
>
  <circle cx="253.1" cy="247.34" r="225.4" />
  <path d="M398.75 80.66c94.56 81 105.58 223.26 24.61 317.81S200.1 504.05 105.55 423.08" />
  <path d="M250 495C114.91 495 5 385.09 5 250a244.83 244.83 0 0 1 11.91-75.65 19.6 19.6 0 1 1 37.29 12.09 205.5 205.5 0 0 0-10 63.56c0 113.48 92.32 205.8 205.8 205.8S455.8 363.48 455.8 250 363.48 44.2 250 44.2A204.91 204.91 0 0 0 175.72 58a19.6 19.6 0 1 1-14.16-36.56A244.12 244.12 0 0 1 250 5c135.09 0 245 109.91 245 245S385.09 495 250 495z" />
  <circle cx="62.16" cy="127.04" r="20.15" />
  <polygon points="338.19 357.06 231.66 250.52 231.66 119.34 256.16 119.34 256.16 240.38 355.52 339.74 338.19 357.06" />
</svg>
