<svg
  xmlns="http://www.w3.org/2000/svg"
  viewBox="0 0 500 500"
  width="500"
  height="500"
  fill="#000000"
>
  <circle cx="253.1" cy="247.34" r="225.4" />
  <path d="M398.75 80.66c94.56 81 105.58 223.26 24.61 317.82s-223.26 105.57-317.81 24.6" />
  <path d="M250 495C114.91 495 5 385.09 5 250a244.83 244.83 0 0 1 11.91-75.65 19.6 19.6 0 1 1 37.29 12.09 205.5 205.5 0 0 0-10 63.56c0 113.48 92.32 205.8 205.8 205.8S455.8 363.48 455.8 250 363.48 44.2 250 44.2A204.91 204.91 0 0 0 175.72 58a19.6 19.6 0 1 1-14.16-36.56A244.12 244.12 0 0 1 250 5c135.09 0 245 109.91 245 245S385.09 495 250 495z" />
  <circle cx="62.16" cy="127.04" r="20.15" />
  <polygon points="343.74 354.85 237.2 248.31 237.2 117.13 261.7 117.13 261.7 238.17 361.06 337.52 343.74 354.85" />
  <path
    data-name="9"
    d="M125.6 352.83a41.68 41.68 0 0 0 8 0c5.55-.36 11.22-1.92 15.45-4.81a24.3 24.3 0 0 0 9.89-14.42l-.36-.12c-3.5 3.61-8.56 5.65-15.68 5.65-13.28 0-24.5-9.26-24.5-24.41s12.3-28.13 29.56-28.13c20.15 0 29.69 15.39 29.69 33.66 0 16.23-5.19 28.14-13.76 35.95-7.48 6.73-17.74 10.46-29.92 10.94a63.7 63.7 0 0 1-8.33 0zm11.1-39.19c0 6.74 3.62 12.51 11.1 12.51a11.58 11.58 0 0 0 10.14-5.15 8.61 8.61 0 0 0 1-4.57c0-8.29-3.13-16.47-11.46-16.47-6.32-.03-10.9 5.5-10.78 13.68z"
  />
  <path
    data-name="0"
    d="M244.7 326.62c0 24.17-9.77 40.76-29.8 40.76-20.28 0-29.21-18.15-29.32-40.28 0-22.6 9.65-40.51 29.92-40.51 21 0 29.2 18.64 29.2 40.03zm-40.7.48c-.13 17.92 4.22 26.46 11.34 26.46s11-8.9 11-26.7c0-17.31-3.75-26.44-11.11-26.44-6.72 0-11.32 8.58-11.23 26.68z"
  />
</svg>
