<svg xmlns="http://www.w3.org/2000/svg" viewBox="0 0 500 500">
  <g id="files-caption">
    <path id="quote4" d="M409.44,495a10.77,10.77,0,0,1-1.29-21.47c19.85-2.42,34.54-12.8,43.66-30.84a80.64,80.64,0,0,0,5.93-15.82H409.46a10.78,10.78,0,1,1,0-21.56h72.71l-.78,11.51c-1.65,24.24-18.54,71.74-70.63,78.1A11.69,11.69,0,0,1,409.44,495Z"/>
    <path id="quote3" d="M315.84,495a10.77,10.77,0,0,1-1.29-21.47c33.72-4.12,45.58-30.87,49.66-46.66H315.86a10.78,10.78,0,0,1,0-21.56h72.71l-.78,11.51c-1.65,24.24-18.53,71.74-70.63,78.1A11.69,11.69,0,0,1,315.84,495Z"/>
    <path id="line1" d="M480.39,94.68H229a10.78,10.78,0,0,1,0-21.55H480.39a10.78,10.78,0,1,1,0,21.55Z"/>
    <path id="line2" d="M480.39,177.73H19.61a10.78,10.78,0,1,1,0-21.56H480.39a10.78,10.78,0,1,1,0,21.56Z"/>
    <path id="line3" d="M480.39,260.77H19.61a10.78,10.78,0,1,1,0-21.55H480.39a10.78,10.78,0,1,1,0,21.55Z"/>
    <path id="line4" d="M271,426.87H19.61a10.78,10.78,0,0,1,0-21.56H271a10.78,10.78,0,1,1,0,21.56Z"/>
    <path id="line5" d="M480.39,343.82H19.61a10.78,10.78,0,1,1,0-21.55H480.39a10.78,10.78,0,1,1,0,21.55Z"/>
    <path id="quote2" d="M90.54,94.68H17.83l.78-11.5c1.65-24.24,18.54-71.75,70.63-78.1a10.77,10.77,0,0,1,2.61,21.39C58.13,30.58,46.27,57.34,42.18,73.13H90.54a10.78,10.78,0,1,1,0,21.55Z"/>
    <path id="quote1" d="M184.14,94.68H111.43l.78-11.5c1.65-24.24,18.53-71.75,70.63-78.1a10.77,10.77,0,0,1,2.61,21.39c-33.72,4.11-45.58,30.87-49.66,46.66h48.35a10.78,10.78,0,1,1,0,21.55Z"/>
  </g>
</svg>
