<svg
  xmlns="http://www.w3.org/2000/svg"
  viewBox="0 0 500 500"
  width="500"
  height="500"
  fill="#ffffff"
>
  <path d="M409.44 495a10.77 10.77 0 0 1-1.29-21.47c19.85-2.42 34.54-12.8 43.66-30.84a80.64 80.64 0 0 0 5.93-15.82h-48.28a10.78 10.78 0 1 1 0-21.56h72.71l-.78 11.51c-1.65 24.24-18.54 71.74-70.63 78.1a11.69 11.69 0 0 1-1.32.08z" />
  <path d="M315.84 495a10.77 10.77 0 0 1-1.29-21.47c33.72-4.12 45.58-30.87 49.66-46.66h-48.35a10.78 10.78 0 0 1 0-21.56h72.71l-.78 11.51c-1.65 24.24-18.53 71.74-70.63 78.1a11.69 11.69 0 0 1-1.32.08z" />
  <path d="M480.39 94.68H229a10.78 10.78 0 0 1 0-21.55h251.39a10.78 10.78 0 1 1 0 21.55z" />
  <path d="M480.39 177.73H19.61a10.78 10.78 0 1 1 0-21.56h460.78a10.78 10.78 0 1 1 0 21.56z" />
  <path d="M480.39 260.77H19.61a10.78 10.78 0 1 1 0-21.55h460.78a10.78 10.78 0 1 1 0 21.55z" />
  <path d="M271 426.87H19.61a10.78 10.78 0 0 1 0-21.56H271a10.78 10.78 0 1 1 0 21.56z" />
  <path d="M480.39 343.82H19.61a10.78 10.78 0 1 1 0-21.55h460.78a10.78 10.78 0 1 1 0 21.55z" />
  <path d="M90.54 94.68H17.83l.78-11.5c1.65-24.24 18.54-71.75 70.63-78.1a10.77 10.77 0 0 1 2.61 21.39c-33.72 4.11-45.58 30.87-49.67 46.66h48.36a10.78 10.78 0 1 1 0 21.55z" />
  <path d="M184.14 94.68h-72.71l.78-11.5c1.65-24.24 18.53-71.75 70.63-78.1a10.77 10.77 0 0 1 2.61 21.39c-33.72 4.11-45.58 30.87-49.66 46.66h48.35a10.78 10.78 0 1 1 0 21.55z" />
</svg>
