<svg
  xmlns="http://www.w3.org/2000/svg"
  viewBox="0 0 500 500"
  width="500"
  height="500"
  fill="#ffffff"
>
  <path d="M275.29 495a66.3 66.3 0 0 1-47-19.46L11.48 258.78A22.34 22.34 0 0 1 5 242.87L16.93 36.32l.72-1.74c3.53-8.58 9.23-14.17 17.41-17.12l1.53-.55 1.62-.1L242.37 5c6.6.15 12.22 2.28 16.41 6.46l216.77 216.78a66.6 66.6 0 0 1 0 94.08L322.33 475.54A66.31 66.31 0 0 1 275.29 495zM27.36 243.05l216.69 216.69a44.18 44.18 0 0 0 62.48 0l153.22-153.22a44.18 44.18 0 0 0 0-62.48l-216.7-216.7L41.38 39A5.66 5.66 0 0 0 39 41.59z" />
  <path d="M164.06 223a60.87 60.87 0 1 1 60.87-60.86A60.94 60.94 0 0 1 164.06 223zm0-99.38a38.52 38.52 0 1 0 38.52 38.52 38.56 38.56 0 0 0-38.52-38.48z" />
</svg>
