<svg xmlns="http://www.w3.org/2000/svg" viewBox="0 0 500 500">
  <g id="files-tags">
    <path id="outline" d="M275.29,495a66.3,66.3,0,0,1-47-19.46L11.48,258.78A22.34,22.34,0,0,1,5,242.87L16.93,36.32l.72-1.74C21.18,26,26.88,20.41,35.06,17.46l1.53-.55,1.62-.1L242.37,5c6.6.15,12.22,2.28,16.41,6.46L475.55,228.24a66.6,66.6,0,0,1,0,94.08L322.33,475.54A66.31,66.31,0,0,1,275.29,495ZM27.36,243.05,244.05,459.74a44.18,44.18,0,0,0,62.48,0L459.75,306.52a44.18,44.18,0,0,0,0-62.48L243.05,27.34,41.38,39A5.66,5.66,0,0,0,39,41.59Z"/>
    <path id="ring" d="M164.06,223a60.87,60.87,0,1,1,60.87-60.86A60.94,60.94,0,0,1,164.06,223Zm0-99.38a38.52,38.52,0,1,0,38.52,38.52A38.56,38.56,0,0,0,164.06,123.66Z"/>
  </g>
</svg>
