<svg xmlns="http://www.w3.org/2000/svg" viewBox="0 0 500 500">
  <g id="files-author">
    <path id="body" d="M5,449.64s10.8-99.4,48.44-131.55S154,286.91,154,286.91s62.93-1,100.58,31.18S303,449.64,303,449.64,161.25,489.33,5,449.64Z"/>
    <path id="head" d="M231.93,192.8a77.78,77.78,0,0,0-6.19-30.48h-.14a77.92,77.92,0,0,0-143.18,0h-.13A77.78,77.78,0,0,0,76.1,192.8v.28a77.78,77.78,0,0,0,6.19,30.48h.13a77.92,77.92,0,0,0,143.18,0h.14a77.78,77.78,0,0,0,6.19-30.48c0-.05,0-.09,0-.14S231.93,192.85,231.93,192.8Z"/>
    <path id="files" d="M461.42,52.38H374.91L355.56,32.72H300.35c-10.64,0-16.39,8.06-16.39,15.65v14h-9.44a16.4,16.4,0,0,0-16.3,14.3l-.09,127.08a33.61,33.61,0,0,0,33.58,33.57H430.38a33.62,33.62,0,0,0,32.95-27.19A33.58,33.58,0,0,0,495,176.6V86A33.61,33.61,0,0,0,461.42,52.38ZM444.3,203.7a13.93,13.93,0,0,1-13.92,13.91H291.71a13.93,13.93,0,0,1-13.92-13.91V82h43.7l19.35,19.66h94.55a8.92,8.92,0,0,1,8.91,8.91Zm31-27.1A13.91,13.91,0,0,1,464,190.26V110.55A28.61,28.61,0,0,0,435.39,82H349.07L329.73,62.32H303.62V52.38h43.71L366.67,72h94.75A13.93,13.93,0,0,1,475.34,86Z"/>
  </g>
</svg>
