<svg
  xmlns="http://www.w3.org/2000/svg"
  viewBox="0 0 500 500"
  width="500"
  height="500"
  fill="#ffffff"
>
  <path
    data-name="dollar-sign"
    d="M250 5C114.7 5 5 114.7 5 250s109.7 245 245 245 245-109.7 245-245S385.3 5 250 5zm17.1 356.4v38.8h-37.3v-36.1c-25.5-1.2-50.2-8-64.6-16.4l11.4-44.5c15.9 8.7 38.4 16.7 63.1 16.7 21.7 0 36.5-8.3 36.5-23.6s-12.1-23.6-40.3-33.1c-40.7-13.7-68.5-32.7-68.5-69.6 0-33.5 23.6-59.7 64.3-67.7V89.7H269v33.5c25.5 1.2 42.6 6.5 55.2 12.6l-11 43c-9.9-4.2-27.4-13-54.8-13-24.8 0-32.8 10.7-32.8 21.4 0 12.5 13.4 20.5 45.7 32.7 45.3 16 63.6 36.9 63.6 71.1s-24 62.8-67.8 70.4z"
  />
</svg>
