<svg
  xmlns="http://www.w3.org/2000/svg"
  viewBox="0 0 500 500"
  width="500"
  height="500"
  fill="#ffffff"
>
  <rect x="72.9" y="152" width="46.4" height="42.78" />
  <rect x="182.8" y="152" width="46.4" height="42.78" />
  <rect x="292.8" y="152" width="46.4" height="42.78" />
  <rect x="72.9" y="238.7" width="46.4" height="42.78" />
  <rect x="182.8" y="238.7" width="46.4" height="42.78" />
  <rect x="292.8" y="238.7" width="46.4" height="42.78" />
  <rect x="72.9" y="325.3" width="46.4" height="42.79" />
  <rect x="182.8" y="325.3" width="46.4" height="42.79" />
  <path
    data-name="dollar-sign"
    d="M392.3 283.3A102.7 102.7 0 1 0 495 386a102.7 102.7 0 0 0-102.7-102.7zm8 156.5v18H383v-16.7c-11.8-.6-23.2-3.7-29.9-7.6l5.3-20.6a61.6 61.6 0 0 0 29.2 7.8c10 0 16.9-3.9 16.9-11s-5.6-10.9-18.7-15.3c-18.8-6.3-31.6-15.1-31.6-32.2 0-15.5 10.9-27.6 29.7-31.3v-16.7h17.2v15.5c11.8.5 19.8 3 25.6 5.8l-5.1 19.9c-4.6-2-12.7-6-25.4-6s-15.1 4.9-15.1 9.8 6.1 9.5 21.1 15.2c20.9 7.4 29.4 17 29.4 32.9s-11.1 29-31.3 32.5z"
  />
  <path d="M53.9 438.3a30.6 30.6 0 0 1-30.5-30.5V108.3a30.5 30.5 0 0 1 30.5-30.4h299.5a30.4 30.4 0 0 1 30.4 30.4v157.9l7-.2a109.3 109.3 0 0 1 11.5.6V108.3a49 49 0 0 0-48.9-48.9h-71v-48H264v48H139.8v-48h-18.4v48H53.9A49 49 0 0 0 5 108.3v299.5a49 49 0 0 0 48.9 48.9h237.9a120.8 120.8 0 0 1-10.7-18.4z" />
</svg>
