<svg
  xmlns="http://www.w3.org/2000/svg"
  viewBox="0 0 500 500"
  width="500"
  height="500"
  fill="#ffffff"
>
  <path d="M358.4 113a109.2 109.2 0 0 0-8.6-42.4h-.2a108.4 108.4 0 0 0-199.2 0h-.2a109.2 109.2 0 0 0-8.6 42.4v.4a108.5 108.5 0 0 0 8.6 42.4h.2a108.3 108.3 0 0 0 199.2 0h.2a108.5 108.5 0 0 0 8.6-42.4v-.4z" />
  <path d="M355.7 326.1H144.3a7.1 7.1 0 0 0-7 7.1v90.5a7.1 7.1 0 0 0 7 7.1h211.4a7.1 7.1 0 0 0 7-7.1v-90.5a7.1 7.1 0 0 0-7-7.1zM160 419.9a10.3 10.3 0 1 1 10.3-10.3 10.3 10.3 0 0 1-10.3 10.3zm0-61a10.3 10.3 0 1 1 10.3-10.3 10.3 10.3 0 0 1-10.3 10.3zm90 54.7a35.2 35.2 0 1 1 35.2-35.1 35.2 35.2 0 0 1-35.2 35.1zm87.7 6.3a10.3 10.3 0 1 1 10.3-10.3 10.3 10.3 0 0 1-10.3 10.3zm0-61a10.3 10.3 0 1 1 10.3-10.3 10.3 10.3 0 0 1-10.3 10.3z" />
  <path d="M390 287.4C337.6 242.7 250 244 250 244s-87.6-1.3-140 43.4-67.4 183.1-67.4 183.1c217.5 55.2 414.8 0 414.8 0S442.3 332.1 390 287.4zm-7.7 136.3a26.7 26.7 0 0 1-26.6 26.7H144.3a26.7 26.7 0 0 1-26.6-26.7v-90.5a26.7 26.7 0 0 1 26.6-26.7h211.4a26.7 26.7 0 0 1 26.6 26.7z" />
</svg>
