<svg xmlns="http://www.w3.org/2000/svg" viewBox="0 0 500 500">
  <g id="funding-recipient">
    <path id="head" d="M358.4,113a109.2,109.2,0,0,0-8.6-42.4h-.2a108.4,108.4,0,0,0-199.2,0h-.2a109.2,109.2,0,0,0-8.6,42.4v.4a108.5,108.5,0,0,0,8.6,42.4h.2a108.3,108.3,0,0,0,199.2,0h.2a108.5,108.5,0,0,0,8.6-42.4V113Z"/>
    <path id="money" d="M355.7,326.1H144.3a7.1,7.1,0,0,0-7,7.1v90.5a7.1,7.1,0,0,0,7,7.1H355.7a7.1,7.1,0,0,0,7-7.1V333.2A7.1,7.1,0,0,0,355.7,326.1ZM160,419.9a10.3,10.3,0,1,1,10.3-10.3A10.3,10.3,0,0,1,160,419.9Zm0-61a10.3,10.3,0,1,1,10.3-10.3A10.3,10.3,0,0,1,160,358.9Zm90,54.7a35.2,35.2,0,1,1,35.2-35.1A35.2,35.2,0,0,1,250,413.6Zm87.7,6.3A10.3,10.3,0,1,1,348,409.6,10.3,10.3,0,0,1,337.7,419.9Zm0-61A10.3,10.3,0,1,1,348,348.6,10.3,10.3,0,0,1,337.7,358.9Z"/>
    <path id="body" d="M390,287.4C337.6,242.7,250,244,250,244s-87.6-1.3-140,43.4S42.6,470.5,42.6,470.5c217.5,55.2,414.8,0,414.8,0S442.3,332.1,390,287.4Zm-7.7,136.3a26.7,26.7,0,0,1-26.6,26.7H144.3a26.7,26.7,0,0,1-26.6-26.7V333.2a26.7,26.7,0,0,1,26.6-26.7H355.7a26.7,26.7,0,0,1,26.6,26.7Z"/>
  </g>
</svg>
