<svg
  xmlns="http://www.w3.org/2000/svg"
  viewBox="0 0 500 500"
  width="500"
  height="500"
  fill="#ffffff"
>
  <path d="M272 310.7c-31.5-11.9-44.5-19.7-44.5-31.9 0-10.4 7.8-20.8 31.9-20.8 26.7 0 43.7 8.6 53.3 12.6l10.8-41.8c-12.2-6-28.9-11.2-53.8-12.3v-32.6h-36.3v35.2c-39.6 7.8-62.6 33.4-62.6 66 0 35.9 27.1 54.5 66.7 67.8 27.4 9.3 39.3 18.1 39.3 32.2s-14.5 23-35.6 23c-24.1 0-45.9-7.8-61.5-16.3l-11.1 43.3c14.1 8.2 38.1 14.9 63 16v35.2h36.3v-37.8c42.6-7.4 66-35.6 66-68.6s-17.8-53.7-61.9-69.2z" />
  <path d="M249.5 13.7L5 258.3l15.3 15.2L165.8 128l38.8 38.8 38.2-38.2 38.3 38.2 45.5-45.5 153.1 153.2 15.3-15.3zm31.6 122.6L242.8 98l-38.2 38.3-23.5-23.6 68.4-68.4 61.8 61.7z" />
</svg>
