<svg xmlns="http://www.w3.org/2000/svg" viewBox="0 0 500 500" fill="#000000">
  <path d="M164.06 73.75a335.7 335.7 0 0 0 52.78-4.67 10.42 10.42 0 0 0 2.39-.76 9.76 9.76 0 0 0 2.43.8 335.18 335.18 0 0 0 52.87 5.06h.8c27.76 0 45.3-5.42 53.53-16.47 4-5.26 9.51-16.51 1.25-32.75a33.78 33.78 0 0 0-22.63-18c-15.2-3.82-35.22.77-61.22 14a280.85 280.85 0 0 0-26.87 15.84 280.55 280.55 0 0 0-26.82-16.08C166.7 7.26 146.71 2.53 131.65 6.2A33.76 33.76 0 0 0 108.78 24c-8.44 16.3-3 27.6.88 32.77 8.34 11.32 26.05 16.87 54.4 16.98zm91.29-35.07c26.4-13.47 40.28-14.21 47.45-12.4a14.05 14.05 0 0 1 9.49 7.6c2.57 5.06 2.82 9 .67 11.83-1.52 2-8.64 8.46-38.23 8.54A313.61 313.61 0 0 1 234.07 51c6.93-4.47 14.04-8.59 21.28-12.32zm-128.82-5.63a14.12 14.12 0 0 1 9.66-7.46 25.37 25.37 0 0 1 6-.65c8.06 0 20.94 2.92 41.18 13.44 7.23 3.79 14.35 8 21.21 12.44a315.83 315.83 0 0 1-40.55 3c-29.6-.11-36.79-6.78-38.36-8.93-2.09-2.74-1.81-6.68.86-11.84z" />
  <path d="M382 275.17a109.92 109.92 0 0 0-111.29 110.46C271 445.31 319.59 494.26 379.27 495a109.91 109.91 0 0 0 111.28-110.47c-.28-59.68-48.87-108.63-108.55-109.36zm-25.7 153.67l-3.56 3.53-.74.74-3.53 3.5-25.27 3.85 4-25.24 3.53-3.5.75-.74 3.56-3.53 52.64-50.79L408.94 378zm67-64.67l-21.2-21.39 13.65-13.17C433.05 333.92 438 350 438 350z" />
  <path d="M250.79 390.34v-5.98l.77-196.36 19.92.08-.48 127.4a130 130 0 0 1 110.44-60.23l.25-68.4 16.1.06h.1A27.09 27.09 0 0 0 425 160l.15-41a27.11 27.11 0 0 0-27-27.16L36.76 90.42a26.49 26.49 0 0 0-19.15 7.87 26.84 26.84 0 0 0-8 19.09l-.16 41a27.11 27.11 0 0 0 27 27.16l15.19.06-.77 201.4a25 25 0 0 0 24.89 25l178 .66a127.72 127.72 0 0 1-2.88-22.34zM254 111.15l144.07.53a7.21 7.21 0 0 1 7.11 7.17l-.15 41a7.15 7.15 0 0 1-7.14 7.12l-144.07-.54zm-217.52 54.5a7.14 7.14 0 0 1-7.11-7.17l.15-41a7.19 7.19 0 0 1 7.14-7.11l145.58.54-.21 55.31zM182.75 390.1l-19.92-.1.77-202.38 19.92.07z" />
</svg>
