<svg xmlns="http://www.w3.org/2000/svg" viewBox="0 0 500 500" fill="#000000">
  <path d="M379 271.71a111.65 111.65 0 1 0 111.6 111.65A111.64 111.64 0 0 0 379 271.71zm-30.6 91.69a9.93 9.93 0 0 1 14 0l6.65 6.65v-40.47a9.93 9.93 0 0 1 19.85 0v40.11l6.28-6.29a9.93 9.93 0 1 1 14 14l-22.43 22.42a12.7 12.7 0 0 1-7.82 3.08 10.22 10.22 0 0 1-2.22-.27 9.83 9.83 0 0 1-6-2.81l-22.43-22.42a9.92 9.92 0 0 1 .07-14zm79.94 73.73h-98.71a9.93 9.93 0 1 1 0-19.85h98.66a9.93 9.93 0 0 1 0 19.85z" />
  <path d="M163.42 73.48A333.29 333.29 0 0 0 216 68.83a9.75 9.75 0 0 0 2.37-.73 10.31 10.31 0 0 0 2.43.78 334.91 334.91 0 0 0 52.67 5h.8c27.65 0 45.12-5.4 53.32-16.41 4-5.24 9.47-16.45 1.24-32.62a33.63 33.63 0 0 0-22.53-18c-15.15-3.8-35.09.77-61 14a281.62 281.62 0 0 0-26.77 15.74 279.92 279.92 0 0 0-26.71-16c-25.76-13.34-45.68-18.05-60.67-14.4a33.64 33.64 0 0 0-22.79 17.74c-8.41 16.24-3 27.49.87 32.65 8.26 11.27 25.95 16.8 54.19 16.9zm91-34.92c26.3-13.43 40.13-14.17 47.27-12.37a14 14 0 0 1 9.45 7.58c2.57 5 2.82 9 .67 11.79-1.51 2-8.61 8.42-38.09 8.51a312.92 312.92 0 0 1-40.5-3.3c6.83-4.4 13.94-8.5 21.15-12.21zM126 32.94a14.06 14.06 0 0 1 9.62-7.42 24.73 24.73 0 0 1 6-.65c8 0 20.86 2.9 41 13.38 7.21 3.78 14.3 7.93 21.14 12.39a313.81 313.81 0 0 1-40.41 3c-29.48-.11-36.64-6.76-38.21-8.9-2.04-2.74-1.76-6.66.86-11.8z" />
  <path d="M249.83 388.88v-5.97l.74-195.67 19.85.07-.48 127a130.46 130.46 0 0 1 18.09-22.47A128.57 128.57 0 0 1 380 254.3l.25-68.14 16 .06h.1a27 27 0 0 0 27-26.86l.15-40.87a27 27 0 0 0-26.86-27.06l-360-1.33a26.35 26.35 0 0 0-19.08 7.84 26.77 26.77 0 0 0-8 19l-.16 40.89a27 27 0 0 0 26.86 27.06l15.14.05-.74 200.56a24.92 24.92 0 0 0 24.8 25l177.36.66a128.59 128.59 0 0 1-2.82-22.28zM253 110.75l143.53.53a7.15 7.15 0 0 1 7.08 7.13l-.15 40.87a7.11 7.11 0 0 1-7.11 7.09l-143.52-.53zM36.33 165a7.12 7.12 0 0 1-7.08-7.14L29.4 117a7.17 7.17 0 0 1 7.11-7.09l145 .54-.21 55.1zm145.72 223.6l-19.85-.08L163 187l19.84.08z" />
</svg>
