<svg xmlns="http://www.w3.org/2000/svg" viewBox="0 0 500 500">
  <g id="grant-details">
    <path id="magnifying-glass" d="M493.06,467,373.11,347a206.81,206.81,0,0,0,49.37-134.24C422.48,98.21,329.28,5,214.71,5S6.94,98.21,6.94,212.77s93.21,207.77,207.77,207.77a206.69,206.69,0,0,0,130-45.86L465,495ZM46.61,212.77c0-92.69,75.41-168.11,168.1-168.11s168.1,75.42,168.1,168.11-75.4,168.1-168.1,168.1S46.61,305.46,46.61,212.77Z"/>
    <path id="bow" d="M176.91,144.86a238.4,238.4,0,0,0,37.8-3.49,238.4,238.4,0,0,0,37.8,3.49c14.57,0,28.83-2.11,34.22-9.4,2.32-3.06,4.22-8.45.1-16.47a17.78,17.78,0,0,0-11.93-9.4c-9.29-2.32-22.81,1.06-40,9.93a200.17,200.17,0,0,0-20.17,12,199.07,199.07,0,0,0-20.17-12c-17.21-8.87-30.62-12.25-40-9.93a17.78,17.78,0,0,0-11.93,9.4c-4.12,8-2.22,13.41.11,16.47C148.08,142.75,162.34,144.86,176.91,144.86Zm96-27a9.08,9.08,0,0,1,6.44,5.07c2.54,5,1.06,6.86.64,7.49-5.39,7.18-32.21,6.87-54.28,4.12C239.31,126.06,261.07,114.87,272.89,117.83Zm-122.8,5.07a9.08,9.08,0,0,1,6.44-5.07,18.59,18.59,0,0,1,4.33-.53c12.25,0,30.72,9.71,42.87,17.21-22.07,2.75-48.89,3.06-54.28-4.12C149,129.76,147.55,127.86,150.09,122.9Z"/>
    <path id="present" d="M310.48,154.89H118.94A10.14,10.14,0,0,0,108.8,165v27a10.14,10.14,0,0,0,10.14,10.14h11.61a9.52,9.52,0,0,0-.21,1.69V306.52a10.14,10.14,0,0,0,10.14,10.14H288.94a10.14,10.14,0,0,0,10.14-10.14V203.89a9.52,9.52,0,0,0-.21-1.69h11.61a10.14,10.14,0,0,0,10.14-10.14V165A10.14,10.14,0,0,0,310.48,154.89ZM197,308.21h-9.29V202.3H197Zm0-114.57h-78a1.59,1.59,0,0,1-1.69-1.47V165a1.69,1.69,0,0,1,1.69-1.69h78Zm44.77,114.57h-8.23V202.3h8.23Zm70.43-116.15a1.59,1.59,0,0,1-1.58,1.59H233.51v-30.3h77a1.68,1.68,0,0,1,1.69,1.69Z"/>
  </g>
</svg>
