<svg xmlns="http://www.w3.org/2000/svg" viewBox="0 0 500 500">
  <g id="grants">
    <path id="right-hand" d="M480.7,132a19.7,19.7,0,0,0-36.6-8.4,18.9,18.9,0,0,0-2.4,12.3h-.1v.8c1.2,8.4,12,77.7,12.1,81.2l-26.8,45.5a8.4,8.4,0,0,1-9.9,1.9c-5.9-2.8-6.4-11.4-6.4-11.4l22.7-38.7a19.8,19.8,0,1,0-32.9-21.9,11.8,11.8,0,0,0-1.1,1.9l-49.4,83.9a41.5,41.5,0,0,0-3.7,18.4c.4,10.1,7.2,43.4,7.2,43.4v49.2h60.2V376.4l29.7-48.7,46.3-76s5.2-8.2,5.2-17.2S482.5,143.9,480.7,132Z"/>
    <path id="left-hand" d="M19.3,130.5a19.7,19.7,0,0,1,36.6-8.4,19.2,19.2,0,0,1,2.4,12.4h.1v.9c-1.2,8.3-12,77.6-12.1,81.2l26.8,45.5a8.4,8.4,0,0,0,9.9,1.8c5.9-2.7,6.4-11.3,6.4-11.3L66.5,213.9a19.8,19.8,0,1,1,32.9-22l1.1,1.9,49.4,84a41.1,41.1,0,0,1,3.7,18.3c-.4,10.1-7.2,43.4-7.2,43.4v49.2H86.2V375L56.5,326.2,10.2,250.3S5,242.1,5,233.1,17.5,142.4,19.3,130.5Z"/>
    <path id="left-cuff" d="M160.1,400l-88.7.2v50.4H176.8V416.8A16.9,16.9,0,0,0,160.1,400Z"/>
    <path id="right-cuff" d="M339.9,401.5a16.8,16.8,0,0,0-16.7,16.8v33.8H428.5V401.6Z"/>
    <path id="bow" d="M214.2,74.7A226.1,226.1,0,0,0,250,71.4a226.1,226.1,0,0,0,35.8,3.3c13.8,0,27.3-2,32.4-8.9,2.2-2.9,4-8,.1-15.6A16.8,16.8,0,0,0,307,41.3c-8.8-2.2-21.6,1-37.9,9.4A189,189,0,0,0,250,62.1a189,189,0,0,0-19.1-11.4c-16.3-8.4-29-11.6-37.9-9.4a16.8,16.8,0,0,0-11.3,8.9c-3.9,7.6-2.1,12.7.1,15.6C186.9,72.7,200.4,74.7,214.2,74.7Zm90.9-25.6a8.6,8.6,0,0,1,6.1,4.8c2.4,4.7,1,6.5.6,7.1-5.1,6.8-30.5,6.5-51.4,3.9C273.3,56.9,293.9,46.3,305.1,49.1ZM188.8,53.9a8.6,8.6,0,0,1,6.1-4.8,17.7,17.7,0,0,1,4.1-.5c11.6,0,29.1,9.2,40.6,16.3-20.9,2.6-46.3,2.9-51.4-3.9C187.8,60.4,186.4,58.6,188.8,53.9Z"/>
    <path id="present" d="M340.7,84.2H159.3a9.6,9.6,0,0,0-9.6,9.6v25.6a9.6,9.6,0,0,0,9.6,9.6h11a8.8,8.8,0,0,0-.2,1.6v97.2a9.6,9.6,0,0,0,9.6,9.6H320.3a9.6,9.6,0,0,0,9.6-9.6V130.6a8.8,8.8,0,0,0-.2-1.6h11a9.6,9.6,0,0,0,9.6-9.6V93.8A9.6,9.6,0,0,0,340.7,84.2ZM233.2,229.4h-8.8V129.1h8.8Zm0-108.5H159.3a1.5,1.5,0,0,1-1.6-1.5V93.8a1.6,1.6,0,0,1,1.6-1.6h73.9Zm34.6,8.2h7.8V229.4h-7.8Zm74.5-9.7a1.5,1.5,0,0,1-1.6,1.5H267.8V92.2h72.9a1.6,1.6,0,0,1,1.6,1.6Z"/>
  </g>
</svg>
