<svg
  xmlns="http://www.w3.org/2000/svg"
  viewBox="0 0 500 500"
  width="500"
  height="500"
  fill="#000000"
>
  <path d="M480.7 132a19.7 19.7 0 0 0-36.6-8.4 18.9 18.9 0 0 0-2.4 12.3h-.1v.8c1.2 8.4 12 77.7 12.1 81.2l-26.8 45.5a8.4 8.4 0 0 1-9.9 1.9c-5.9-2.8-6.4-11.4-6.4-11.4l22.7-38.7a19.8 19.8 0 1 0-32.9-21.9 11.8 11.8 0 0 0-1.1 1.9l-49.4 83.9a41.5 41.5 0 0 0-3.7 18.4c.4 10.1 7.2 43.4 7.2 43.4v49.2h60.2v-13.7l29.7-48.7 46.3-76s5.2-8.2 5.2-17.2-12.3-90.6-14.1-102.5z" />
  <path d="M19.3 130.5a19.7 19.7 0 0 1 36.6-8.4 19.2 19.2 0 0 1 2.4 12.4h.1v.9c-1.2 8.3-12 77.6-12.1 81.2l26.8 45.5a8.4 8.4 0 0 0 9.9 1.8c5.9-2.7 6.4-11.3 6.4-11.3l-22.9-38.7a19.8 19.8 0 1 1 32.9-22l1.1 1.9 49.4 84a41.1 41.1 0 0 1 3.7 18.3c-.4 10.1-7.2 43.4-7.2 43.4v49.2H86.2V375l-29.7-48.8-46.3-75.9S5 242.1 5 233.1s12.5-90.7 14.3-102.6z" />
  <path d="M160.1 400l-88.7.2v50.4h105.4v-33.8a16.9 16.9 0 0 0-16.7-16.8z" />
  <path d="M339.9 401.5a16.8 16.8 0 0 0-16.7 16.8v33.8h105.3v-50.5z" />
  <path d="M214.2 74.7a226.1 226.1 0 0 0 35.8-3.3 226.1 226.1 0 0 0 35.8 3.3c13.8 0 27.3-2 32.4-8.9 2.2-2.9 4-8 .1-15.6a16.8 16.8 0 0 0-11.3-8.9c-8.8-2.2-21.6 1-37.9 9.4A189 189 0 0 0 250 62.1a189 189 0 0 0-19.1-11.4c-16.3-8.4-29-11.6-37.9-9.4a16.8 16.8 0 0 0-11.3 8.9c-3.9 7.6-2.1 12.7.1 15.6 5.1 6.9 18.6 8.9 32.4 8.9zm90.9-25.6a8.6 8.6 0 0 1 6.1 4.8c2.4 4.7 1 6.5.6 7.1-5.1 6.8-30.5 6.5-51.4 3.9 12.9-8 33.5-18.6 44.7-15.8zm-116.3 4.8a8.6 8.6 0 0 1 6.1-4.8 17.7 17.7 0 0 1 4.1-.5c11.6 0 29.1 9.2 40.6 16.3-20.9 2.6-46.3 2.9-51.4-3.9-.4-.6-1.8-2.4.6-7.1z" />
  <path d="M340.7 84.2H159.3a9.6 9.6 0 0 0-9.6 9.6v25.6a9.6 9.6 0 0 0 9.6 9.6h11a8.8 8.8 0 0 0-.2 1.6v97.2a9.6 9.6 0 0 0 9.6 9.6h140.6a9.6 9.6 0 0 0 9.6-9.6v-97.2a8.8 8.8 0 0 0-.2-1.6h11a9.6 9.6 0 0 0 9.6-9.6V93.8a9.6 9.6 0 0 0-9.6-9.6zM233.2 229.4h-8.8V129.1h8.8zm0-108.5h-73.9a1.5 1.5 0 0 1-1.6-1.5V93.8a1.6 1.6 0 0 1 1.6-1.6h73.9zm34.6 8.2h7.8v100.3h-7.8zm74.5-9.7a1.5 1.5 0 0 1-1.6 1.5h-72.9V92.2h72.9a1.6 1.6 0 0 1 1.6 1.6z" />
</svg>
