<svg xmlns="http://www.w3.org/2000/svg" viewBox="0 0 500 500" fill="#000000">
  <polygon points="358.99 423.58 418.3 381.7 358.99 339.83 358.99 423.58" />
  <path d="M379.2 272.07a111.47 111.47 0 1 0 111.46 111.47A111.47 111.47 0 0 0 379.2 272.07zm54.05 123.34l-67.62 47.74a16.78 16.78 0 0 1-26.46-13.7V334a16.78 16.78 0 0 1 26.45-13.7l67.63 47.7a16.79 16.79 0 0 1 0 27.41z" />
  <path d="M163.11 73.37a333.33 333.33 0 0 0 52.5-4.64A9.75 9.75 0 0 0 218 68a9.77 9.77 0 0 0 2.42.77 332.82 332.82 0 0 0 52.59 5h.79c27.61 0 45.06-5.39 53.24-16.38 4-5.22 9.46-16.42 1.24-32.57a33.6 33.6 0 0 0-22.5-18c-15.13-3.8-35 .77-60.9 14a281.82 281.82 0 0 0-26.72 15.71 279.12 279.12 0 0 0-26.67-15.95c-25.75-13.34-45.63-18.03-60.6-14.39a33.58 33.58 0 0 0-22.75 17.71c-8.4 16.21-3 27.45.87 32.59 8.25 11.26 25.9 16.78 54.1 16.88zm90.8-34.87C280.17 25.1 294 24.36 301.1 26.16a14 14 0 0 1 9.44 7.56c2.56 5 2.81 9 .66 11.77-1.5 2-8.59 8.41-38 8.5a313.46 313.46 0 0 1-40.43-3.29c6.84-4.4 13.94-8.49 21.14-12.2zm-128.12-5.61a14.07 14.07 0 0 1 9.6-7.41 25.22 25.22 0 0 1 6-.65c8 0 20.83 2.9 41 13.37 7.19 3.77 14.27 7.92 21.1 12.37a314.51 314.51 0 0 1-40.34 3c-29.43-.11-36.58-6.75-38.15-8.89-2.14-2.68-1.87-6.68.79-11.79z" />
  <path d="M249.37 388.25v-5.97l.77-195.28 19.81.08-.48 126.75a130.65 130.65 0 0 1 18.06-22.44 128.33 128.33 0 0 1 91.78-37.46l.25-68h16.09a26.94 26.94 0 0 0 26.92-26.81l.15-40.8a27 27 0 0 0-26.81-27L36.5 90a26.34 26.34 0 0 0-19 7.82 26.77 26.77 0 0 0-8 19l-.15 40.81a27 27 0 0 0 26.82 27l15.11.06-.74 200.23a24.89 24.89 0 0 0 24.76 24.94l177.08.65a126.11 126.11 0 0 1-2.86-22.22zm3.19-277.68l143.29.53a7.17 7.17 0 0 1 7.08 7.13l-.15 40.8a7.12 7.12 0 0 1-7.11 7.08l-143.29-.53zM36.23 164.78a7.12 7.12 0 0 1-7.08-7.13l.16-40.81a7.15 7.15 0 0 1 7.09-7.07l144.79.54-.2 55zM181.71 388l-19.82-.07.76-201.29 19.82.08z" />
</svg>
