<svg xmlns="http://www.w3.org/2000/svg" viewBox="0 0 500 500" fill="#000000">
  <path d="M384 338.4a15.1 15.1 0 0 1-4.63.8 14.88 14.88 0 0 1-4.58-.79l-16.45 11.81h42.14z" />
  <circle cx="379.35" cy="324.09" r="5.18" />
  <path d="M379.46 271.64a111.68 111.68 0 1 0 111.68 111.68 111.68 111.68 0 0 0-111.68-111.68zm62.18 148.59a17.61 17.61 0 0 1-17.59 17.58h-89.19a17.6 17.6 0 0 1-17.58-17.58v-52.42a17.61 17.61 0 0 1 17.58-17.59h6.43l25.29-18.15a14.92 14.92 0 0 1-2.34-8 15.11 15.11 0 0 1 30.22 0 14.94 14.94 0 0 1-2.32 8l25.34 18.18h6.57a17.61 17.61 0 0 1 17.59 17.59z" />
  <path d="M337.14 418h84.64v-47.92h-84.64zm25.21-35.34l7-7 10.72 10.72 10.72-10.72 7 7-10.72 10.72 10.72 10.72-7 7-10.72-10.72-10.72 10.72-7-7 10.72-10.72z" />
  <path d="M162.94 73.5a333.29 333.29 0 0 0 52.59-4.65 10 10 0 0 0 2.38-.73 9.85 9.85 0 0 0 2.43.77 333.85 333.85 0 0 0 52.68 5h.8c27.66 0 45.14-5.4 53.34-16.42 4-5.23 9.48-16.45 1.24-32.63a33.67 33.67 0 0 0-22.54-18c-15.16-3.8-35.1.78-61 14a281.62 281.62 0 0 0-26.77 15.74 278.1 278.1 0 0 0-26.72-16c-25.78-13.41-45.7-18.12-60.7-14.47a33.68 33.68 0 0 0-22.8 17.74c-8.41 16.25-3 27.51.87 32.66 8.26 11.36 25.94 16.89 54.2 16.99zm91-34.93c26.31-13.44 40.15-14.17 47.29-12.37a14.06 14.06 0 0 1 9.46 7.58c2.56 5 2.81 9 .66 11.79-1.51 2-8.61 8.43-38.09 8.51a312.78 312.78 0 0 1-40.51-3.29c6.83-4.41 13.94-8.51 21.15-12.22zM125.54 33a14.08 14.08 0 0 1 9.62-7.43 25.25 25.25 0 0 1 6-.65c8 0 20.87 2.91 41 13.39 7.21 3.78 14.3 7.94 21.14 12.4a313.81 313.81 0 0 1-40.42 3c-29.49-.11-36.65-6.76-38.22-8.9-2.06-2.81-1.78-6.72.88-11.81z" />
  <path d="M249.36 389v-5.98l.75-195.73 19.85.08-.48 127a131.1 131.1 0 0 1 18.09-22.48 128.62 128.62 0 0 1 92-37.54l.26-68.17 16 .06h.1a27 27 0 0 0 27-26.86l.15-40.89a27 27 0 0 0-26.88-27.04L36.08 90.12A26.39 26.39 0 0 0 17 98a26.77 26.77 0 0 0-8 19l-.16 40.88a27 27 0 0 0 26.87 27.07l15.14.06-.73 200.62a24.92 24.92 0 0 0 24.8 25l177.42.66A127.63 127.63 0 0 1 249.5 389zm3.2-278.22l143.57.53a7.17 7.17 0 0 1 7.08 7.14l-.15 40.88a7.12 7.12 0 0 1-7.11 7.09l-143.56-.53zM35.81 165.09a7.12 7.12 0 0 1-7.09-7.09l.15-40.89A7.17 7.17 0 0 1 36 110l145.07.54-.2 55.11zm145.76 223.66l-19.86-.07.77-201.68 19.85.07z" />
</svg>
