<svg xmlns="http://www.w3.org/2000/svg" viewBox="0 0 500 500" fill="#000000">
  <path d="M471.55 114.7H28.45A23.45 23.45 0 0 0 5 138.15v62.53a23.45 23.45 0 0 0 23.45 23.45h26.87a21.56 21.56 0 0 0-.49 3.91v237.43a23.45 23.45 0 0 0 23.45 23.45h343.44a23.45 23.45 0 0 0 23.45-23.45V228a21.56 21.56 0 0 0-.49-3.91h26.87A23.45 23.45 0 0 0 495 200.68v-62.53a23.45 23.45 0 0 0-23.45-23.45zM209 469.38h-21.53v-245H209zm0-265H28.45a3.66 3.66 0 0 1-3.9-3.41 2.26 2.26 0 0 1 0-.26v-62.56a3.91 3.91 0 0 1 3.91-3.91H209zm103.57 265h-19v-245h19zm162.93-268.7a3.67 3.67 0 0 1-3.66 3.68H293.48v-70.12h178.07a3.91 3.91 0 0 1 3.91 3.91z" />
  <path d="M186.18 89a398.67 398.67 0 0 0 62.75-5.78 10 10 0 0 0 3.21-1.2 9.84 9.84 0 0 0 3.27 1.23A399.07 399.07 0 0 0 318.27 89c33 0 53.72-6.28 63.19-19.09C385.94 64 392 51.32 382.6 32.94a38.26 38.26 0 0 0-25.74-20.36c-17.68-4.36-41.11 1.15-71.65 16.89a331.57 331.57 0 0 0-33 19.67 335.37 335.37 0 0 0-33.09-19.73c-30.51-15.71-53.93-21.25-71.45-16.9a38.32 38.32 0 0 0-25.88 20.29c-9.49 18.49-3.39 31.16 1 37C132.34 82.67 153 89 186.18 89zm108-42.08c32.07-16.52 49.2-17.4 58.11-15.23a19 19 0 0 1 12.78 10.14c3.5 6.82 3.75 12.3.66 16.36-2.49 3.38-12.12 11.24-47.37 11.24a379.5 379.5 0 0 1-54.35-4.62 314.4 314.4 0 0 1 30.21-17.94zm-154.89-5.28a18.93 18.93 0 0 1 12.89-10.06 31.75 31.75 0 0 1 7.73-.86c10 0 25.75 3.52 50.17 16.1a313.51 313.51 0 0 1 30.2 17.91 375.82 375.82 0 0 1-54.22 4.62c-35.37 0-45-7.86-47.57-11.33-3.01-3.97-2.76-9.45.8-16.38z" />
</svg>
