<svg xmlns="http://www.w3.org/2000/svg" viewBox="0 0 500 500" fill="#000000">
  <path d="M378.9 271.93a111.54 111.54 0 1 0 111.54 111.53A111.53 111.53 0 0 0 378.9 271.93zm54.74 150.31a12.13 12.13 0 0 1-17.15 17.16l-38.78-38.78-38.78 38.78a12.13 12.13 0 0 1-17.16-17.16l38.78-38.78-38.78-38.78a12.13 12.13 0 0 1 17.16-17.15l38.78 38.77 38.78-38.77a12.13 12.13 0 0 1 17.15 17.15l-38.78 38.78z" />
  <path d="M163.44 73.42A333.72 333.72 0 0 0 216 68.77a9.75 9.75 0 0 0 2.37-.73 9.85 9.85 0 0 0 2.43.77 333.09 333.09 0 0 0 52.62 5h.79c27.63 0 45.09-5.39 53.28-16.39 4-5.23 9.46-16.43 1.24-32.59a33.58 33.58 0 0 0-22.52-18c-15.13-3.8-35.05.77-60.93 14a279.73 279.73 0 0 0-26.77 15.77 282 282 0 0 0-26.69-16C166.07 7.25 146.17 2.55 131.19 6.19a33.64 33.64 0 0 0-22.76 17.72c-8.4 16.23-3 27.47.87 32.62 8.25 11.26 25.92 16.79 54.14 16.89zm90.85-34.9c26.28-13.41 40.1-14.15 47.23-12.35a14 14 0 0 1 9.48 7.57c2.56 5 2.81 9 .66 11.78-1.51 2-8.6 8.42-38.05 8.5a312.3 312.3 0 0 1-40.46-3.29c6.85-4.4 13.94-8.49 21.14-12.21zm-128.2-5.61a14 14 0 0 1 9.61-7.41 24.73 24.73 0 0 1 6-.65c8 0 20.84 2.9 41 13.37 7.2 3.77 14.28 7.92 21.11 12.38a312.89 312.89 0 0 1-40.36 3c-29.46-.11-36.61-6.75-38.18-8.89-2.11-2.71-1.83-6.66.82-11.8z" />
  <path d="M249.76 388.51v-5.98l.75-195.48 19.82.08-.46 126.87a130.3 130.3 0 0 1 18.07-22.45 128.5 128.5 0 0 1 91.84-37.49L380 186h16.1a27 27 0 0 0 26.93-26.83l.15-40.83a27 27 0 0 0-26.83-27L36.75 90a26.37 26.37 0 0 0-19.06 7.84 26.67 26.67 0 0 0-8 19l-.16 40.83a27 27 0 0 0 26.84 27l15.12.06-.73 200.37a24.89 24.89 0 0 0 24.77 24.95l177.19.66a128.49 128.49 0 0 1-2.86-22.24zM253 110.64l143.39.53a7.15 7.15 0 0 1 7.07 7.13l-.15 40.83a7.12 7.12 0 0 1-7.1 7.09l-143.38-.53zM36.47 164.88a7.11 7.11 0 0 1-7.08-7.13l.15-40.83a7.17 7.17 0 0 1 7.11-7.08l144.88.54-.2 55zm145.58 223.39l-19.83-.08.78-201.41 19.83.07z" />
</svg>
