<svg
  xmlns="http://www.w3.org/2000/svg"
  viewBox="0 0 500 500"
  width="500"
  height="500"
  fill="#ffffff"
>
  <path d="M250 495C114.9 495 5 385.1 5 250S114.9 5 250 5s245 109.9 245 245-109.9 245-245 245zm0-470.4C125.7 24.6 24.6 125.7 24.6 250S125.7 475.4 250 475.4 475.4 374.3 475.4 250 374.3 24.6 250 24.6z" />
  <path d="M270.2 278h-6.4V147.8h-27.2v134a16.4 16.4 0 0 0-6.4 13.2v103.4a8.6 8.6 0 0 0 .1 1.6h-.1v15.4h40V400h-.1V278z" />
  <rect x="233.4" y="110.7" width="33.5" height="27.34" rx=".9" />
  <rect x="236.6" y="84.6" width="27.3" height="16.4" />
  <path d="M367.8 148.2s-36.8-30.7-91.9-30.7v15c51.6-1.8 87.7 18.7 90.6 18.3s1.3-2.6 1.3-2.6z" />
  <path d="M133.5 150.8c3 .4 38.9-20.2 90.6-18.3v-15c-55.1 0-91.9 30.7-91.9 30.7s-1.6 2.1 1.3 2.6z" />
</svg>
