<svg
  xmlns="http://www.w3.org/2000/svg"
  viewBox="0 0 500 500"
  width="500"
  height="500"
  fill="#000000"
>
  <path d="M250 495C114.9 495 5 385.1 5 250S114.9 5 250 5s245 109.9 245 245-109.9 245-245 245zm0-470.4C125.7 24.6 24.6 125.7 24.6 250S125.7 475.4 250 475.4 475.4 374.3 475.4 250 374.3 24.6 250 24.6z" />
  <path d="M322 379.2v38.3H221.6l-1.3-.2v.2h-17.5v-17.7l-.2-1.3v-38.2H303a18.9 18.9 0 0 1 19 18.9zm-101.7 9.6a8.2 8.2 0 1 0 8.3-8.1h-.1a8.2 8.2 0 0 0-8.2 8.1z" />
  <path d="M189 149.5h-.1l1.6 66.9v.2l.8 35.1-20.1-27.1a12 12 0 0 0-21.5 10.7l1.3 2.1 44 69.2h.2a22.1 22.1 0 0 0 19.8 11l11.9-.2v32.1h65.7v-32c.2-.8 10.6-6 10.6-50.3l-3.6-141.4c-.1-5.7-4.2-10.3-9.3-10.2s-8.9 4.9-8.7 10.7l1.8 65.8a31.5 31.5 0 0 0-4.4-.3h-2.6L274 96.5c-.2-6.9-5.1-12.4-11.1-12.3s-10.6 5.9-10.4 12.8l2.5 95.5-10.9.4-2.7-98.2c-.1-6.9-5.1-12.3-11-12.2s-10.7 6-10.5 12.9l2.6 98.1-10.3.3h-.7l-2.4-89.8c-.2-7-5.1-12.4-11-12.2s-9.2 4.3-10.2 9.8z" />
</svg>
