<svg xmlns="http://www.w3.org/2000/svg" viewBox="0 0 500 500">
  <g id="hours-worked">
    <path id="outline" d="M250,495C114.9,495,5,385.1,5,250S114.9,5,250,5,495,114.9,495,250,385.1,495,250,495Zm0-470.4C125.7,24.6,24.6,125.7,24.6,250S125.7,475.4,250,475.4,475.4,374.3,475.4,250,374.3,24.6,250,24.6Z"/>
    <g id="pick">
      <path id="pick-handle" d="M270.2,278h-6.4V147.8H236.6v134a16.4,16.4,0,0,0-6.4,13.2V398.4a8.6,8.6,0,0,0,.1,1.6h-.1v15.4h40V400h-.1V278Z"/>
      <rect id="pick-mid" x="233.4" y="110.7" width="33.5" height="27.34" rx="0.9"/>
      <rect id="pick-top" x="236.6" y="84.6" width="27.3" height="16.4"/>
      <path id="pick-right" d="M367.8,148.2s-36.8-30.7-91.9-30.7v15c51.6-1.8,87.7,18.7,90.6,18.3S367.8,148.2,367.8,148.2Z"/>
      <path id="pick-left" d="M133.5,150.8c3,.4,38.9-20.2,90.6-18.3v-15c-55.1,0-91.9,30.7-91.9,30.7S130.6,150.3,133.5,150.8Z"/>
    </g>
  </g>
</svg>
