<svg
  xmlns="http://www.w3.org/2000/svg"
  viewBox="0 0 500 500"
  width="500"
  height="500"
  fill="#000000"
>
  <path d="M5 53.7h84.1V208h1.1c8.8-11.6 19.9-20.5 33.2-27.7 12.2-6.6 28.2-10.5 43.7-10.5 53.6 0 94.6 37.1 94.6 118.4v158.2h-84.1V297.6c0-35.4-12.2-59.7-43.7-59.7-22.1 0-36 14.4-42 29.3-2.2 5.5-2.8 12.7-2.8 18.8v160.4H5V53.7z" />
  <path d="M329.1 264.9c0-39.8-1.1-65.8-2.2-89h72.5l2.8 49.8h2.2c13.8-39.3 47-55.9 73-55.9 7.8 0 11.6 0 17.7 1.1V250c-6.1-1.1-13.3-2.2-22.7-2.2-31 0-52 16.6-57.5 42.6-1.1 5.5-1.7 12.2-1.7 18.8v137.2h-84.1V264.9z" />
</svg>
