<svg xmlns="http://www.w3.org/2000/svg" viewBox="0 0 500 500">
  <defs>
    <style>
      .cls-1 {
        fill: #010101;
      }

      .cls-2 {
        fill: #231f20;
      }
    </style>
  </defs>
  <g id="hours-per-day-2" data-name="hours-per-day">
    <path id="top-suitcase" class="cls-1" d="M434.29,283.94V244.39H333.78v39.55H273.07v56.2H495v-56.2ZM353,263.61h62.08v20.33H353Z"/>
    <polygon id="bottom-suitcase" class="cls-1" points="393.64 378.42 374.43 378.42 374.43 359.36 273.06 359.36 273.06 455.38 495 455.38 495 359.36 393.64 359.36 393.64 378.42"/>
    <polygon id="hands" class="cls-2" points="232.44 294.88 172.14 234.73 172.14 143.48 191.22 143.48 191.22 226.83 245.93 281.39 232.44 294.88"/>
    <path id="outline" class="cls-2" d="M244.24,393.77a168.28,168.28,0,0,1-51.09,7.92C100,401.69,24.22,325.9,24.22,232.76S100,63.83,193.15,63.83c90.11,0,164,70.93,168.68,159.89h19.23c-4.73-99.56-87.2-179.11-187.91-179.11C89.4,44.61,5,129,5,232.76S89.4,420.9,193.15,420.9a187.35,187.35,0,0,0,51.09-7.11Z"/>
  </g>
</svg>
