<svg
  xmlns="http://www.w3.org/2000/svg"
  viewBox="0 0 500 500"
  width="500"
  height="500"
  fill="#ffffff"
>
  <path d="M434.29 283.94v-39.55H333.78v39.55h-60.71v56.2H495v-56.2zM353 263.61h62.08v20.33H353z" />
  <polygon points="393.64 378.42 374.43 378.42 374.43 359.36 273.06 359.36 273.06 455.38 495 455.38 495 359.36 393.64 359.36 393.64 378.42" />
  <polygon points="232.44 294.88 172.14 234.73 172.14 143.48 191.22 143.48 191.22 226.83 245.93 281.39 232.44 294.88" />
  <path d="M244.24 393.77a168.28 168.28 0 0 1-51.09 7.92c-93.15 0-168.93-75.79-168.93-168.93S100 63.83 193.15 63.83c90.11 0 164 70.93 168.68 159.89h19.23c-4.73-99.56-87.2-179.11-187.91-179.11C89.4 44.61 5 129 5 232.76S89.4 420.9 193.15 420.9a187.35 187.35 0 0 0 51.09-7.11z" />
</svg>
