<svg xmlns="http://www.w3.org/2000/svg" viewBox="0 0 500 500">
  <g id="hours-served">
    <path id="outline" d="M250,495C114.9,495,5,385.1,5,250S114.9,5,250,5,495,114.9,495,250,385.1,495,250,495Zm0-470.4C125.7,24.6,24.6,125.7,24.6,250S125.7,475.4,250,475.4,475.4,374.3,475.4,250,374.3,24.6,250,24.6Z"/>
    <path id="cuff" d="M322,379.2v38.3H221.6l-1.3-.2v.2H202.8V399.8l-.2-1.3V360.3H303A18.9,18.9,0,0,1,322,379.2Zm-101.7,9.6a8.2,8.2,0,1,0,8.3-8.1h-.1A8.2,8.2,0,0,0,220.3,388.8Z"/>
    <path id="hand" d="M189,149.5h-.1l1.6,66.9v.2l.8,35.1-20.1-27.1a12,12,0,0,0-21.5,10.7l1.3,2.1,44,69.2h.2a22.1,22.1,0,0,0,19.8,11l11.9-.2v32.1h65.7V317.5c.2-.8,10.6-6,10.6-50.3l-3.6-141.4c-.1-5.7-4.2-10.3-9.3-10.2s-8.9,4.9-8.7,10.7l1.8,65.8a31.5,31.5,0,0,0-4.4-.3h-2.6L274,96.5c-.2-6.9-5.1-12.4-11.1-12.3S252.3,90.1,252.5,97l2.5,95.5-10.9.4-2.7-98.2c-.1-6.9-5.1-12.3-11-12.2s-10.7,6-10.5,12.9l2.6,98.1-10.3.3h-.7L209.1,104c-.2-7-5.1-12.4-11-12.2s-9.2,4.3-10.2,9.8Z"/>
  </g>
</svg>
