<svg
  xmlns="http://www.w3.org/2000/svg"
  viewBox="0 0 500 500"
  width="500"
  height="500"
  fill="#ffffff"
>
  <path d="M463.7 246.4a31 31 0 0 0-19 6.5h-.1l-.6.5-.5.4c-10.5 8.6-97.1 79.5-101.8 82.5h-84.3s-9.7-1.8-10.6-12.2 10.4-18.1 10.4-18.1h71.6a31.7 31.7 0 0 0 3.6-63.2 21.6 21.6 0 0 0-3.6 0H173.5a65.5 65.5 0 0 0-28.4 9.7c-13.4 8.9-53.9 45.1-53.9 45.1l91.2 112.9 141.9 2.3s15.5.5 27.9-6.8 114.6-90.5 129.5-102.7a31.3 31.3 0 0 0-18-56.9z" />
  <path d="M157.8 407l-1.3-2.1-71.7-89.7a26.5 26.5 0 0 0-37.4-4.3c-.1 0-.1 0-.1.1l-20.1 15.9-1.3 1L5 344.6l8.9 11.1 3.4 4.4 4.4 5.5 2.8 3.4 68.8 86.3a8.6 8.6 0 0 0 1.4 1.3l-.2.2 15.4 19.3 19.5-15.6a5.6 5.6 0 0 0 1.5-1l21.4-17 .3-.3L173 426zM126 431.6a8.2 8.2 0 1 1 .1 0z" />
  <path d="M173.3 195.8s5.6-51.1 24.9-67.6 51.7-16 51.7-16 32.4-.5 51.7 16 24.9 67.6 24.9 67.6-72.8 20.4-153.2 0z" />
  <path d="M290 63.8a39.6 39.6 0 0 0-3.2-15.6h-.1a39.9 39.9 0 0 0-52.6-21 39.4 39.4 0 0 0-20.9 21h-.1a39.6 39.6 0 0 0-3.2 15.6v.2a39.9 39.9 0 0 0 3.2 15.6h.1a39.9 39.9 0 0 0 73.5 0h.1A39.9 39.9 0 0 0 290 64z" />
</svg>
