<svg xmlns="http://www.w3.org/2000/svg" viewBox="0 0 500 500">
  <g id="identifications">
    <path id="tag" d="M249.9,203.8a13.7,13.7,0,0,0,10.9-5.4l59.3-76.8.2-61a39.8,39.8,0,0,0-39.8-39.8h-61a39.8,39.8,0,0,0-39.8,39.8v61L239,198.4A13.7,13.7,0,0,0,249.9,203.8ZM199.3,60.6a20.1,20.1,0,0,1,20.2-20.2h61a20.1,20.1,0,0,1,20.2,20.1l-.2,54.4-50.6,65.6-50.6-65.6Z"/>
    <path id="body" d="M197.2,313.3c-20.7-17.6-51.7-18.5-57.8-18.5h0c-6.1,0-37.1.7-58,18.5S53.6,380.7,53,386.2l-1.3,12.5,12.2,3.1a301.7,301.7,0,0,0,74.5,9c43.7,0,75.3-8.7,76.6-9l11.8-3.4-1.3-12.2C224.9,380.7,219.1,332,197.2,313.3Zm-58.8,77.9a283.5,283.5,0,0,1-65.3-7.3c2.2-15.2,8.8-45.2,21-55.7,15.8-13.4,42.4-13.8,45.1-13.8h.2c3,0,29.3.4,45,13.8,12.3,10.5,18.9,40.6,21.1,55.7A299.9,299.9,0,0,1,138.4,391.2Z"/>
    <path id="head" d="M118.7,186.2h0A52.4,52.4,0,0,0,93,210.1l-1.7,3.4A53.2,53.2,0,0,0,87.2,234a52.2,52.2,0,0,0,4.1,20.3l1.8,3.6a51.9,51.9,0,0,0,92.4-.2l1.7-3.4a52.8,52.8,0,0,0,0-40.8l-1.8-3.6A52.2,52.2,0,0,0,118.7,186.2ZM168,218.8l1.2,2.6a31.8,31.8,0,0,1,2.5,12.6,30.9,30.9,0,0,1-2.5,12.4l-1.2,2.5a32.2,32.2,0,0,1-16,14.9,32.8,32.8,0,0,1-24.8.2,31.3,31.3,0,0,1-16.6-15l-1.3-2.6a30.9,30.9,0,0,1-2.5-12.4,31.8,31.8,0,0,1,2.5-12.6l1.2-2.4a32,32,0,0,1,16-14.8A32.5,32.5,0,0,1,168,218.8Z"/>
    <path id="line4" d="M430.7,378.2H301.8a9.8,9.8,0,1,0,0,19.6H430.7a9.8,9.8,0,1,0,0-19.6Z"/>
    <path id="line3" d="M430.7,318.4H301.8a9.8,9.8,0,0,0,0,19.6H430.7a9.8,9.8,0,0,0,0-19.6Z"/>
    <path id="line2" d="M430.7,258.6H301.8a9.8,9.8,0,1,0,0,19.6H430.7a9.8,9.8,0,1,0,0-19.6Z"/>
    <path id="line1" d="M430.7,198.7H301.8a9.8,9.8,0,1,0,0,19.6H430.7a9.8,9.8,0,1,0,0-19.6Z"/>
    <rect id="tag-line" x="218.9" y="81.1" width="62.1" height="19.6"/>
    <path id="outline" d="M448.5,90.9H339.8v37.4l-10.9,14.1H472.7V432.8a24.1,24.1,0,0,1-24.2,24.1H51.5a24.1,24.1,0,0,1-24.2-24.1V142.4H171l-10.9-14.1V90.9H51.5A46.7,46.7,0,0,0,5,137.4V432.8a46.5,46.5,0,0,0,46.5,46.4h397A46.5,46.5,0,0,0,495,432.8V137.4A46.5,46.5,0,0,0,448.5,90.9Z"/>
  </g>
</svg>
