<svg
  xmlns="http://www.w3.org/2000/svg"
  viewBox="0 0 500 500"
  width="500"
  height="500"
  fill="#000000"
>
  <path d="M249.9 203.8a13.7 13.7 0 0 0 10.9-5.4l59.3-76.8.2-61a39.8 39.8 0 0 0-39.8-39.8h-61a39.8 39.8 0 0 0-39.8 39.8v61l59.3 76.8a13.7 13.7 0 0 0 10.9 5.4zM199.3 60.6a20.1 20.1 0 0 1 20.2-20.2h61a20.1 20.1 0 0 1 20.2 20.1l-.2 54.4-50.6 65.6-50.6-65.6z" />
  <path d="M197.2 313.3c-20.7-17.6-51.7-18.5-57.8-18.5-6.1 0-37.1.7-58 18.5S53.6 380.7 53 386.2l-1.3 12.5 12.2 3.1a301.7 301.7 0 0 0 74.5 9c43.7 0 75.3-8.7 76.6-9l11.8-3.4-1.3-12.2c-.6-5.5-6.4-54.2-28.3-72.9zm-58.8 77.9a283.5 283.5 0 0 1-65.3-7.3c2.2-15.2 8.8-45.2 21-55.7 15.8-13.4 42.4-13.8 45.1-13.8h.2c3 0 29.3.4 45 13.8 12.3 10.5 18.9 40.6 21.1 55.7a299.9 299.9 0 0 1-67.1 7.3z" />
  <path d="M118.7 186.2A52.4 52.4 0 0 0 93 210.1l-1.7 3.4a53.2 53.2 0 0 0-4.1 20.5 52.2 52.2 0 0 0 4.1 20.3l1.8 3.6a51.9 51.9 0 0 0 92.4-.2l1.7-3.4a52.8 52.8 0 0 0 0-40.8l-1.8-3.6a52.2 52.2 0 0 0-66.7-23.7zm49.3 32.6l1.2 2.6a31.8 31.8 0 0 1 2.5 12.6 30.9 30.9 0 0 1-2.5 12.4l-1.2 2.5a32.2 32.2 0 0 1-16 14.9 32.8 32.8 0 0 1-24.8.2 31.3 31.3 0 0 1-16.6-15l-1.3-2.6a30.9 30.9 0 0 1-2.5-12.4 31.8 31.8 0 0 1 2.5-12.6l1.2-2.4a32 32 0 0 1 16-14.8 32.5 32.5 0 0 1 41.5 14.6z" />
  <path d="M430.7 378.2H301.8a9.8 9.8 0 1 0 0 19.6h128.9a9.8 9.8 0 1 0 0-19.6z" />
  <path d="M430.7 318.4H301.8a9.8 9.8 0 0 0 0 19.6h128.9a9.8 9.8 0 0 0 0-19.6z" />
  <path d="M430.7 258.6H301.8a9.8 9.8 0 1 0 0 19.6h128.9a9.8 9.8 0 1 0 0-19.6z" />
  <path d="M430.7 198.7H301.8a9.8 9.8 0 1 0 0 19.6h128.9a9.8 9.8 0 1 0 0-19.6z" />
  <rect x="218.9" y="81.1" width="62.1" height="19.6" />
  <path d="M448.5 90.9H339.8v37.4l-10.9 14.1h143.8v290.4a24.1 24.1 0 0 1-24.2 24.1h-397a24.1 24.1 0 0 1-24.2-24.1V142.4H171l-10.9-14.1V90.9H51.5A46.7 46.7 0 0 0 5 137.4v295.4a46.5 46.5 0 0 0 46.5 46.4h397a46.5 46.5 0 0 0 46.5-46.4V137.4a46.5 46.5 0 0 0-46.5-46.5z" />
</svg>
