<svg xmlns="http://www.w3.org/2000/svg" viewBox="0 0 500 500">
  <g id="intern">
    <g id="intern-icon">
      <path id="right-body" d="M390,287.4a139.7,139.7,0,0,0-23.2-15.8c-9.9,28.3-25.7,98.7,1.1,215.6,55.4-7.2,89.5-16.7,89.5-16.7S442.4,332.2,390,287.4Z"/>
      <path id="head" d="M150.2,155.9h.2a108.4,108.4,0,0,0,199.2,0h.2a107.6,107.6,0,0,0,8.6-42.5v-.2h0a107.6,107.6,0,0,0-8.6-42.5h-.2a108.4,108.4,0,0,0-199.2,0h-.2a107.6,107.6,0,0,0-8.6,42.5h0v.2A107.6,107.6,0,0,0,150.2,155.9Z"/>
      <path id="right-pack" d="M316.3,217.4l.6,12.6c24.7,6.1,51.8,16.7,73.1,34.9,6.7,5.7,12.8,11.2,18.3,19.5v-50a45.9,45.9,0,0,0-46-46H348.1C344.3,198.6,325.5,213.6,316.3,217.4Z"/>
      <path id="left-pack" d="M110,264.9c21.3-18.2,48.4-28.8,73.1-34.9l.5-12.6c-9.1-3.8-27.9-18.8-31.8-29H137.7a45.9,45.9,0,0,0-46,46v50C97.2,276.1,103.3,270.6,110,264.9Z"/>
      <path id="left-body" d="M110,287.4C57.6,332.2,42.6,470.5,42.6,470.5A775.1,775.1,0,0,0,135.8,488c27.6-119.9,10.5-191,.6-218.2A144.5,144.5,0,0,0,110,287.4Z"/>
      <path id="middle-body" d="M250,244s-45.8-.7-91,15.9c11.4,30,29.9,104.8,1.3,230.9a929.8,929.8,0,0,0,183.1-.7c-28-123.9-10.4-198.2,1-228.9C298.1,243.3,250,244,250,244Z"/>
    </g>
  </g>
</svg>
