<svg
  xmlns="http://www.w3.org/2000/svg"
  viewBox="0 0 500 500"
  width="500"
  height="500"
  fill="#000000"
>
  <path d="M379.6 146.1H120.4c-13.2 0-24 9.7-24 21.6V266c0 11.9 10.8 21.6 24 21.6h259.2c13.2 0 24-9.7 24-21.6v-98.3c0-11.9-10.8-21.6-24-21.6zM120.5 272.9a12.3 12.3 0 1 1 12.3-12.3 12.3 12.3 0 0 1-12.3 12.3zm0-90.3a12.3 12.3 0 1 1 12.3-12.3 12.3 12.3 0 0 1-12.3 12.3zm131.4 83.1a48.9 48.9 0 1 1 48.9-48.9 48.9 48.9 0 0 1-48.9 48.9zm124.4 7.6a12.3 12.3 0 1 1 12.3-12.3 12.3 12.3 0 0 1-12.3 12.3zm0-90.3a12.3 12.3 0 1 1 12.3-12.3 12.3 12.3 0 0 1-12.3 12.3z" />
  <path d="M256.2 210.8c-6.5-2.4-9.1-4-9.1-6.5s1.6-4.2 6.5-4.2a25.3 25.3 0 0 1 10.9 2.5l2.2-8.5c-2.5-1.3-5.9-2.3-11-2.5v-6.7h-7.4v7.2c-8.1 1.6-12.8 6.8-12.8 13.5s5.5 11.1 13.6 13.9c5.7 1.9 8.1 3.7 8.1 6.6s-3 4.7-7.3 4.7a26.3 26.3 0 0 1-12.6-3.4l-2.3 8.9c2.9 1.7 7.8 3 12.9 3.3v7.2h7.5V239c8.7-1.5 13.5-7.2 13.5-14s-3.7-11-12.7-14.2z" />
  <path d="M250 5C114.7 5 5 114.7 5 250s109.7 245 245 245 245-109.7 245-245S385.3 5 250 5zm171.5 251.4v75.9c0 20.9-18.8 37.8-41.9 37.8H120.4c-19.8 0-36.4-12.4-40.7-29.1h18.8c3.7 7.6 12.1 12.9 21.9 12.9h259.2c13.2 0 24-9.7 24-21.6v-1.7a45 45 0 0 1-24 6.9H120.4c-19.8 0-36.4-12.5-40.7-29.1h18.8c3.7 7.6 12.1 12.9 21.9 12.9h259.2c13.2 0 24-9.7 24-21.6V297a45.8 45.8 0 0 1-24 6.8H120.4c-23.1 0-41.9-17-41.9-37.8v-98.3c0-20.9 18.8-37.8 41.9-37.8h259.2c23.1 0 41.9 16.9 41.9 37.8z" />
</svg>
