<svg xmlns="http://www.w3.org/2000/svg" viewBox="0 0 500 500">
  <g id="invoice-unrecievable">
    <g id="invoiceUnreceivableIcon">
      <path id="circleCross" d="M479,343l-2.7-6a109.8,109.8,0,0,0-195.9,0l-2.6,6a109.4,109.4,0,0,0-8.7,42.7v.4a109.4,109.4,0,0,0,8.7,42.7l2.7,6a109.8,109.8,0,0,0,195.9,0l2.6-6a111.2,111.2,0,0,0,8.7-42.7v-.4A109.4,109.4,0,0,0,479,343ZM296,421.1l-1.4-3a90,90,0,0,1-5.9-31.7h0v-.9a92.5,92.5,0,0,1,5.3-30.1l2-4.6a89.6,89.6,0,0,1,136.7-35.9L307.2,440.3A91.1,91.1,0,0,1,296,421.1Zm172.1-34.7a91.1,91.1,0,0,1-5.4,30.2l-1.9,4.5a89.6,89.6,0,0,1-140,33.3L446.9,328.3a89.7,89.7,0,0,1,13.9,22.4l1.4,3.1a91.7,91.7,0,0,1,5.9,31.6H468Z"/>
      <path id="dollarSign" d="M212.4,141.6a53.7,53.7,0,0,1-24.9-6.6L183,152.5c5.7,3.3,15.5,6,25.5,6.4v14.3h14.7V157.9c17.2-3,26.7-14.4,26.7-27.7s-7.2-21.8-25-28.1c-12.8-4.8-18-7.9-18-12.9s3.1-8.4,12.9-8.4,17.7,3.5,21.5,5.1L245.7,69c-5-2.4-11.7-4.5-21.7-4.9V50.9H209.3V65.1c-16.1,3.1-25.4,13.5-25.4,26.7s11,22,27,27.4c11.1,3.8,15.9,7.4,15.9,13.1S221,141.6,212.4,141.6Z"/>
      <path id="line4" d="M292.8,237.3H140.2a10.2,10.2,0,1,0,0,20.4H292.8a10.2,10.2,0,0,0,0-20.4Z"/>
      <path id="line3" d="M129.9,208a10.2,10.2,0,0,0,10.2,10.2H292.8a10.3,10.3,0,0,0,0-20.5H140.1A10.3,10.3,0,0,0,129.9,208Z"/>
      <path id="line2" d="M302.6,284.6a10.2,10.2,0,0,0-9.8-7.4H140.2a10.3,10.3,0,1,0,0,20.5H287A122.9,122.9,0,0,1,302.6,284.6Z"/>
      <path id="line1" d="M209.3,327.2a10.3,10.3,0,0,0,10.2,10.3h40.4A126.4,126.4,0,0,1,271,317H219.5A10.2,10.2,0,0,0,209.3,327.2Z"/>
      <path id="outline" d="M250.2,378.7H140l.5,10.7c.4,7.6-.8,29.4-10.4,39.5-3.6,3.6-7.8,5.3-13.4,5.3s-10.1-1.7-13.8-5.5c-9.8-10.2-11.2-31.9-10.9-39.8V47.1a53.2,53.2,0,0,0-5.3-21.6H322.5c3.5.7,19,5,19,23.6v217a127.7,127.7,0,0,1,20.5-3.8V49.1c0-30.3-24.2-42-37-44H54.6C26.9,5,15,29.2,12.5,42l-.2,50.9H71.6V388.5c-.2,3.6-1,36,16.5,54.3a38.7,38.7,0,0,0,28.6,11.9H270.2a124.3,124.3,0,0,1-20.3-68.2Q249.9,382.6,250.2,378.7Z"/>
    </g>
  </g>
</svg>
