<svg xmlns="http://www.w3.org/2000/svg" viewBox="0 0 500 500">
  <g id="paid">
    <g id="paidIcon">
      <path id="stack" d="M435.2,78.4H64.8c-33,0-59.8,24.2-59.8,54V272.9c0,29.7,26.8,53.9,59.8,53.9H435.2a64.2,64.2,0,0,0,34.2-9.7V321c0,17-15.3,30.8-34.2,30.8H64.8c-13.9,0-25.9-7.6-31.2-18.4H6.7C12.9,357.2,36.6,375,64.8,375H435.2a64.3,64.3,0,0,0,34.2-9.8v2.4c0,17-15.3,30.9-34.2,30.9H64.8c-13.9,0-25.9-7.6-31.2-18.4H6.7c6.2,23.7,29.9,41.5,58.1,41.5H435.2c33,0,59.8-24.2,59.8-54V132.4C495,102.6,468.2,78.4,435.2,78.4Zm34.2,180.7v13.8c0,17-15.4,30.8-34.2,30.8H64.8c-18.9,0-34.2-13.8-34.2-30.8V132.4c0-17,15.3-30.9,34.2-30.9H435.2c18.9,0,34.2,13.9,34.2,30.9V259.1Z"/>
      <circle id="circle4" cx="430.4" cy="136.7" r="17.6"/>
      <circle id="circle3" cx="430.4" cy="265.7" r="17.6"/>
      <circle id="circle2" cx="65" cy="136.2" r="17.6"/>
      <circle id="circle1" cx="65" cy="265.2" r="17.6"/>
      <path id="dollar" d="M252.8,132.8a69.8,69.8,0,1,0,69.8,69.8A69.9,69.9,0,0,0,252.8,132.8Zm4.9,101.5v11.1H247V235.1c-7.2-.3-14.3-2.3-18.4-4.7l3.3-12.6a37.9,37.9,0,0,0,18,4.7c6.1,0,10.4-2.4,10.4-6.7s-3.5-6.7-11.5-9.4c-11.6-3.9-19.5-9.3-19.5-19.8s6.7-17.1,18.3-19.3V157h10.6v9.5a39,39,0,0,1,15.7,3.6l-3.1,12.2a35.7,35.7,0,0,0-15.6-3.7c-7.1,0-9.4,3.1-9.4,6.1s3.8,5.9,13,9.3c12.9,4.6,18.1,10.5,18.1,20.3S270.1,232.2,257.7,234.3Z"/>
    </g>
  </g>
</svg>
