<svg
  xmlns="http://www.w3.org/2000/svg"
  viewBox="0 0 500 500"
  width="500"
  height="500"
  fill="#000000"
>
  <path d="M250 6C114.7 6 5 115.7 5 251s109.7 245 245 245 245-109.7 245-245S385.3 6 250 6zm-93.1 398.4a27 27 0 0 1-20.1-8.4c-12.3-12.7-11.7-35.4-11.6-38V151.1H83.8v-35.6c1.7-9 10.1-25.9 29.4-25.9h189.4c9 1.3 26 9.5 26 30.7v149.4a85.2 85.2 0 0 0-14.4 2.7v-152c0-13-10.9-16-13.3-16.5H135.8a38.1 38.1 0 0 1 3.8 15.2v239.2c-.2 5.6.7 20.7 7.6 27.8 2.5 2.7 5.6 3.9 9.7 3.9a12.3 12.3 0 0 0 9.3-3.7c6.7-7.1 7.5-22.3 7.3-27.6l-.4-7.5h77.1c-.1 1.8-.1 3.6-.1 5.4a87.2 87.2 0 0 0 14.2 47.8zm16.3-109.9a7.2 7.2 0 0 1 0-14.4h106.9a7 7 0 0 1 6.8 5.2 94.8 94.8 0 0 0-10.9 9.2zm91.7 13.5a79.4 79.4 0 0 0-7.8 14.3h-28.3a7.2 7.2 0 1 1 0-14.3zm-42.1-138.5c-11.3-3.7-18.9-9-18.9-19.2s6.5-16.5 17.7-18.7v-9.9h10.3v9.2c7 .3 11.8 1.8 15.2 3.5l-3 11.8a35.9 35.9 0 0 0-15.1-3.5c-6.8 0-9.1 2.9-9.1 5.8s3.7 5.7 12.6 9.1c12.5 4.4 17.6 10.1 17.6 19.6s-6.6 17.3-18.7 19.4v10.7h-10.3v-10c-7-.3-13.9-2.2-17.8-4.5l3.1-12.3a36 36 0 0 0 17.4 4.7c6 0 10.1-2.3 10.1-6.5s-3.4-6.5-11.1-9.2zm57.3 55a7.2 7.2 0 1 1 0 14.3H173.2a7.2 7.2 0 0 1 0-14.3zm0 42H173.2a7.2 7.2 0 0 1 0-14.3h106.9a7.2 7.2 0 1 1 0 14.3zM339.9 432a76.4 76.4 0 1 1 76.3-76.3 76.4 76.4 0 0 1-76.3 76.3z" />
  <path d="M358.1 329a18.1 18.1 0 0 0-11.6-17 11 11 0 0 0 .2-1.8v-5.7a6.8 6.8 0 0 0-6.8-6.9 6.9 6.9 0 0 0-6.9 6.9v5.7a5.7 5.7 0 0 0 .3 1.8 18.2 18.2 0 0 0-11.7 17 17.6 17.6 0 0 0 1.7 7.6l-21.6 53.1 2.4 13.5 10.3-8.3h.1l9.4-23.4c3.7 2.9 9.6 4.8 16.6 4.8s12.3-1.7 16-4.4l9.1 23.1h.1l10.2 8.4 2.5-13.4-21.6-54.4a16.2 16.2 0 0 0 1.3-6.6zm-18.2-11.4a11.4 11.4 0 1 1-11.4 11.4 11.4 11.4 0 0 1 11.4-11.4zm.6 51.8c-8.4 0-13.6-3.3-13.6-5h-.1l7.4-18.1a18 18 0 0 0 5.7 1 19 19 0 0 0 6.3-1.2l7.6 19c-1.1 1.8-6 4.3-13.3 4.3z" />
</svg>
