<svg
  xmlns="http://www.w3.org/2000/svg"
  viewBox="0 0 500 500"
  width="500"
  height="500"
  fill="#000000"
>
  <path d="M122.88 211.18H93.5v7l7.39.8c.16 9.7.2 19.42.2 29.08v3.81c0 9.83 0 19.52-.2 29.08l-7.39.81v7h38.81v-7l-9.55-1c-.15-9.43-.2-18.89-.2-28.37h10l1.36 9.65h6.83v-25.85h-6.83l-1.27 8.57h-10.09q0-13.44.21-26.55h16.16l2 13.21h10.19l-.76-20.24z" />
  <path d="M164.08 211.18h-7.26v7l7.38.8c.16 9.7.21 19.42.21 29.08v3.81c0 9.83 0 19.52-.21 29.08l-7.38.81v7h36.74v-7l-7.49-.8c-.15-9.7-.2-19.44-.2-29.2v-3.7c0-9.82 0-19.52.2-29.09l7.49-.79v-7h-29.48z" />
  <polygon points="273.57 218.21 273.57 211.18 264.36 211.18 256.77 211.18 243.98 211.18 243.98 218.21 256.77 219.71 256.77 254.77 227.83 211.18 200.18 211.18 200.18 218.33 207.51 218.87 209.4 221.76 209.4 280.37 200.18 281.79 200.18 288.82 209.4 288.82 216.98 288.82 229.78 288.82 229.78 281.79 216.98 280.22 216.98 233.44 252.97 288.82 264.36 288.82 264.36 266.19 264.36 219.7 273.57 218.21" />
  <path d="M315 211.18h-13l-21.66 69.25-8.58 1.36v7h22.74v-7l-7.42-1.37 3.78-13h20.47l3.84 13.58-7.44 1.14v6.67h35v-6.67l-5.88-.75zm-22 48.7l8.2-28.23 8 28.23z" />
  <path d="M397 265.12l-3 16.55h-16.38c-.17-9.86-.18-19.56-.18-28.1v-5.48c0-9.78.05-19.44.2-29l8.58-.91v-7h-37.83v7l7.38.8c.16 9.7.21 19.42.21 29.08v7.27c0 7.08 0 16.22-.16 25.62l-7.43.81v7h57l1.08-23.7z" />
  <path d="M445.11 382.62H54.89A49.94 49.94 0 0 1 5 332.74V167.26a49.94 49.94 0 0 1 49.89-49.88h390.22A49.94 49.94 0 0 1 495 167.26v165.48a49.94 49.94 0 0 1-49.89 49.88zM54.89 136.22a31.08 31.08 0 0 0-31 31v165.52a31.08 31.08 0 0 0 31 31h390.22a31.08 31.08 0 0 0 31-31V167.26a31.08 31.08 0 0 0-31-31zm390.22 211.5H54.89a15 15 0 0 1-15-15V167.26a15 15 0 0 1 15-15h390.22a15 15 0 0 1 15 15v165.48a15 15 0 0 1-15 14.98zM58.75 328.88h382.5V171.12H58.75z" />
</svg>
