<svg xmlns="http://www.w3.org/2000/svg" viewBox="0 0 500 500">
  <g id="invoice-no-activity-status">
    <g id="invoiceNoActvityStatusIcon">
      <polygon id="line2" points="362.6 312.9 349.8 312.9 349.8 397 350.4 397 362.6 397 364.3 397 364.3 312.9 362.6 312.9 362.6 312.9"/>
      <polygon id="line1" points="317.3 312.9 315.1 312.9 315.1 397 317.3 397 328.9 397 330 397 330 312.9 317.3 312.9 317.3 312.9"/>
      <path id="invoiceNoActivityOutline" d="M250,5C114.7,5,5,114.7,5,250S114.7,495,250,495,495,385.3,495,250,385.3,5,250,5ZM156.8,403.1a27.5,27.5,0,0,1-20.1-8.3c-12.2-12.8-11.6-35.5-11.5-38v-207H83.7V114.2c1.8-9,10.1-25.9,29.5-25.9H302.6c8.9,1.4,25.9,9.6,25.9,30.8V268.4a87.1,87.1,0,0,0-14.4,2.7V119.2c0-13.1-10.9-16.1-13.3-16.6h-165a39.5,39.5,0,0,1,3.7,15.2V357.1c-.2,5.5.8,20.7,7.6,27.8a12.8,12.8,0,0,0,9.7,3.9,12,12,0,0,0,9.3-3.8c6.7-7.1,7.6-22.3,7.3-27.6l-.3-7.5h77.1c-.1,1.8-.2,3.6-.2,5.4a86.7,86.7,0,0,0,14.2,47.8Zm16.4-109.9a7.2,7.2,0,0,1,0-14.4H280a7.3,7.3,0,0,1,6.9,5.2,80.4,80.4,0,0,0-10.9,9.2Zm91.6,13.5A86.1,86.1,0,0,0,257,321H228.7a7.2,7.2,0,0,1,0-14.3ZM222.7,168.3c-11.2-3.8-18.9-9.1-18.9-19.2s6.5-16.5,17.7-18.7v-10h10.3v9.2c7.1.4,11.8,1.8,15.2,3.5L244,145a34.1,34.1,0,0,0-15.1-3.6c-6.8,0-9,2.9-9,5.9s3.6,5.6,12.6,9c12.4,4.4,17.5,10.2,17.5,19.6s-6.6,17.3-18.7,19.4V206H221v-9.9c-7-.4-13.8-2.2-17.8-4.6l3.1-12.2a37.3,37.3,0,0,0,17.5,4.6c5.9,0,10-2.3,10-6.5S230.5,170.9,222.7,168.3ZM280,223.2a7.2,7.2,0,1,1,0,14.3H173.2a7.2,7.2,0,1,1,0-14.3Zm0,42H173.2a7.2,7.2,0,1,1,0-14.3H280a7.2,7.2,0,1,1,0,14.3Zm59.9,166.1a76.4,76.4,0,1,1,76.4-76.4A76.4,76.4,0,0,1,339.9,431.3Z"/>
    </g>
  </g>
</svg>
