<svg
  xmlns="http://www.w3.org/2000/svg"
  viewBox="0 0 500 500"
  width="500"
  height="500"
  fill="#000000"
>
  <path d="M479 343l-2.7-6a109.82 109.82 0 0 0-195.93 0l-2.6 6a109.43 109.43 0 0 0-8.71 42.71v.4a109.39 109.39 0 0 0 8.71 42.71l2.7 6a109.82 109.82 0 0 0 195.93 0l2.6-6a111.29 111.29 0 0 0 8.71-42.71v-.4A109.43 109.43 0 0 0 479 343zm-183 78.08l-1.4-3a90 90 0 0 1-5.9-31.71v-.9a92.17 92.17 0 0 1 5.3-30.1l2-4.6a89.59 89.59 0 0 1 136.72-35.91L307.21 440.28a91.1 91.1 0 0 1-11.21-19.2zm172.13-34.71a91 91 0 0 1-5.4 30.21l-1.9 4.5a89.63 89.63 0 0 1-140 33.31l126.11-126.13a89.75 89.75 0 0 1 13.9 22.41l1.4 3.1a91.71 91.71 0 0 1 5.9 31.6H468z" />
  <path d="M212.39 141.53a53.72 53.72 0 0 1-24.9-6.61L183 152.43c5.7 3.3 15.5 6 25.5 6.4v14.3h14.7v-15.3c17.21-3 26.71-14.4 26.71-27.71s-7.2-21.8-25-28.1c-12.81-4.8-18-7.9-18-12.9s3.1-8.41 12.9-8.41 17.71 3.51 21.51 5.11l4.4-16.91c-5-2.4-11.7-4.5-21.7-4.9v-13.2h-14.73V65c-16.1 3.1-25.4 13.5-25.4 26.71s11 22 27 27.4c11.1 3.8 15.91 7.4 15.91 13.1s-5.8 9.32-14.41 9.32z" />
  <path d="M292.81 237.24H140.18a10.21 10.21 0 0 0 0 20.41h152.63a10.21 10.21 0 0 0 0-20.41z" />
  <path d="M129.88 207.94a10.2 10.2 0 0 0 10.2 10.2h152.73a10.3 10.3 0 0 0 0-20.5H140.08a10.3 10.3 0 0 0-10.2 10.3z" />
  <path d="M302.61 284.55a10.22 10.22 0 0 0-9.8-7.4H140.18a10.31 10.31 0 0 0-2 20.51 11.47 11.47 0 0 0 2 0H287a122.78 122.78 0 0 1 15.61-13.11z" />
  <path d="M209.29 327.16a10.3 10.3 0 0 0 10.2 10.3h40.41A126.79 126.79 0 0 1 271 317h-51.51a10.2 10.2 0 0 0-10.2 10.2z" />
  <path d="M250.2 378.67H140l.5 10.7c.4 7.6-.8 29.41-10.4 39.51-3.6 3.6-7.8 5.3-13.41 5.3s-10.1-1.7-13.8-5.5c-9.8-10.2-11.2-31.91-10.9-39.81V47a53.29 53.29 0 0 0-5.3-21.61h235.82c3.5.7 19 5 19 23.61v217a128.47 128.47 0 0 1 20.5-3.8V49c0-30.31-24.2-42-37-44H54.56C26.86 4.9 15 29.1 12.45 41.91l-.2 50.91h59.32v295.65c-.2 3.6-1 36 16.5 54.31a38.73 38.73 0 0 0 28.6 11.91H270.2a124.4 124.4 0 0 1-20.3-68.22q0-3.9.3-7.8z" />
  <path d="M391.13 410.72c0 7-7.12 11.42-17.68 11.42-2 0-4-.25-6.05-.47l-18.5 18.49a84.51 84.51 0 0 0 19.77 3.21v17.55h18v-18.78c21.11-3.68 32.77-17.67 32.77-34 0-10.83-3.93-19.06-12.93-25.64l-19.68 19.68c2.91 2.48 4.3 5.21 4.3 8.54z" />
  <path d="M366.7 357.83c0-6.14 3.81-10.31 15.84-10.31 1.19 0 2.34.07 3.49.15l18.3-18.28a76.24 76.24 0 0 0-16.64-2.39v-16.2h-18v17.42c-19.76 3.81-31.17 16.57-31.17 32.77 0 9.17 4.33 16.6 11.64 22.54l19.52-19.51a8.28 8.28 0 0 1-2.98-6.19z" />
</svg>
