<svg xmlns="http://www.w3.org/2000/svg" viewBox="0 0 500 500">
  <g id="invoice-in-review-status">
    <g id="invoiceInReviewStatusIcon">
      <path id="magnifyingGlass" d="M365.8,345a36.1,36.1,0,1,0-15.3,29.6L377,401.1l9.7-9.7L360,364.7A35.8,35.8,0,0,0,365.8,345Zm-19.9,15.5a22.5,22.5,0,1,1,6.2-15.5A22.4,22.4,0,0,1,345.9,360.5Z"/>
      <path id="invoiceStatusOutline" d="M250,5C114.7,5,5,114.7,5,250S114.7,495,250,495,495,385.3,495,250,385.3,5,250,5ZM156.7,403.1a27.3,27.3,0,0,1-20.1-8.3c-12.3-12.8-11.7-35.5-11.6-38v-207H83.6V114.2c1.7-9,10.1-25.9,29.4-25.9H302.4c9,1.4,25.9,9.6,25.9,30.8V268.4a84,84,0,0,0-14.3,2.7V119.2c0-13.1-10.9-16.1-13.3-16.6H135.6a38.1,38.1,0,0,1,3.8,15.2V357.1c-.3,5.5.7,20.7,7.6,27.8a12.7,12.7,0,0,0,9.7,3.9A12,12,0,0,0,166,385c6.7-7.1,7.5-22.3,7.3-27.6l-.4-7.5H250c-.1,1.8-.1,3.6-.1,5.4a86.7,86.7,0,0,0,14.2,47.8ZM173,293.2a7.2,7.2,0,0,1,0-14.4H279.9a7.2,7.2,0,0,1,6.8,5.2,94.8,94.8,0,0,0-10.9,9.2Zm91.6,13.5a85.6,85.6,0,0,0-7.7,14.3H228.6a7.2,7.2,0,1,1,0-14.3Zm-42-138.4c-11.3-3.8-18.9-9.1-18.9-19.2s6.5-16.5,17.7-18.7v-10h10.3v9.2c7,.4,11.8,1.8,15.2,3.5l-3,11.9a34.5,34.5,0,0,0-15.1-3.6c-6.9,0-9.1,2.9-9.1,5.9s3.7,5.6,12.6,9c12.5,4.4,17.6,10.2,17.6,19.6s-6.7,17.3-18.7,19.4V206H220.9v-9.9c-7-.4-13.9-2.2-17.8-4.6l3.1-12.2a37.2,37.2,0,0,0,17.4,4.6c6,0,10.1-2.3,10.1-6.5S230.3,170.9,222.6,168.3Zm57.3,54.9a7.2,7.2,0,0,1,0,14.3H173a7.2,7.2,0,0,1,0-14.3Zm0,42H173a7.2,7.2,0,0,1,0-14.3H279.9a7.2,7.2,0,0,1,0,14.3Zm60.2,166.1a76.4,76.4,0,1,1,76.3-76.4A76.4,76.4,0,0,1,340.1,431.3Z"/>
    </g>
  </g>
</svg>
