<svg xmlns="http://www.w3.org/2000/svg" viewBox="0 0 500 500">
  <g id="invoice-date">
    <rect id="square1" x="75.1" y="156" width="47.9" height="44.17"/>
    <rect id="square2" x="188.6" y="156" width="47.9" height="44.17"/>
    <rect id="square3" x="302.2" y="156" width="47.9" height="44.17"/>
    <rect id="square4" x="75.1" y="245.5" width="47.9" height="44.17"/>
    <rect id="square5" x="188.6" y="245.5" width="47.9" height="44.17"/>
    <rect id="square6" x="302.2" y="245.5" width="47.9" height="44.17"/>
    <rect id="square7" x="75.1" y="334.9" width="47.9" height="44.19"/>
    <rect id="square8" x="188.6" y="334.9" width="47.9" height="44.19"/>
    <path id="outline" d="M55.5,451.6A31.6,31.6,0,0,1,24,420.1V110.9A31.6,31.6,0,0,1,55.5,79.4H364.7a31.5,31.5,0,0,1,31.5,31.5V289.6h19V110.9a50.5,50.5,0,0,0-50.5-50.5H291.5V10.8H272.4V60.4H144.2V10.8h-19V60.4H55.5A50.6,50.6,0,0,0,5,110.9V420.1a50.6,50.6,0,0,0,50.5,50.5H329.4l-.2-19Z"/>
    <path id="invoice" d="M494.7,462.5v-4h-117l.2,4.4c.2,3-.3,11.8-4.2,15.9a6.9,6.9,0,0,1-5.4,2.2,7.2,7.2,0,0,1-5.6-2.3c-3.9-4.1-4.5-12.8-4.4-16V324.5a20.4,20.4,0,0,0-2.1-8.7h95.3a9.3,9.3,0,0,1,7.7,9.5V450.9h8.2V325.3c0-12.2-9.8-17-14.9-17.8H343.2c-11.2,0-16,9.8-17,14.9V343H350V462.5c0,1.5-.4,14.5,6.7,21.9a15.4,15.4,0,0,0,11.6,4.8H476.8c5.4,0,10-1.9,13.1-5.5C496.1,476.4,495,464.9,494.7,462.5Z"/>
    <path id="dollar-sign" d="M416.6,443V429.4c15.3-2.7,23.7-12.9,23.7-24.7s-6.4-19.4-22.3-25c-11.3-4.3-16-7.1-16-11.5s2.8-7.5,11.5-7.5,15.8,3.1,19.2,4.5l3.9-15.1c-4.4-2.1-10.4-4-19.4-4.4V334H404.1v12.7c-14.3,2.8-22.5,12-22.5,23.8s9.7,19.6,24,24.4c9.9,3.3,14.2,6.5,14.2,11.6s-5.2,8.3-12.9,8.3a46.8,46.8,0,0,1-22.1-5.9l-4,15.7c5,2.9,13.7,5.3,22.7,5.7V443Z"/>
  </g>
</svg>
