<svg
  xmlns="http://www.w3.org/2000/svg"
  viewBox="0 0 500 500"
  width="500"
  height="500"
  fill="#ffffff"
>
  <path d="M398.2 332.1l-1-2.2a60.9 60.9 0 0 0-8-13.5l-87.8 87.9a62.8 62.8 0 0 0 95.8-25.1l1.4-3.2a62.5 62.5 0 0 0 3.7-21.1v-.6a61.4 61.4 0 0 0-4.1-22.2z" />
  <path d="M339.5 291.9a62.6 62.6 0 0 0-57.6 38l-1.4 3.2a62.9 62.9 0 0 0-3.7 21.1v.6a62 62 0 0 0 4.1 22.2l1 2.1a59.8 59.8 0 0 0 6.2 11.1l87.2-87.2a63 63 0 0 0-35.8-11.1z" />
  <path d="M249.7 4.6c-135.3 0-245 109.7-245 245s109.7 245 245 245 245-109.7 245-245-109.7-245-245-245zm-93.3 398.1a27.5 27.5 0 0 1-20.1-8.3c-12.2-12.8-11.6-35.5-11.5-38V149.5H83.3v-35.7c1.8-8.9 10.1-25.9 29.5-25.9h189.4c8.9 1.4 25.9 9.6 25.9 30.8V268a98.8 98.8 0 0 0-14.4 2.7V118.8c0-13-10.9-16-13.3-16.5h-165a38.7 38.7 0 0 1 3.7 15.1v239.3c-.2 5.5.8 20.7 7.6 27.8a12.5 12.5 0 0 0 9.7 3.9 12 12 0 0 0 9.3-3.8c6.7-7 7.6-22.3 7.3-27.6l-.3-7.5h77.1c-.1 1.8-.2 3.6-.2 5.5a86.6 86.6 0 0 0 14.2 47.7zm16.4-109.9a7.2 7.2 0 1 1 0-14.3h106.8a7.2 7.2 0 0 1 6.9 5.2 79.7 79.7 0 0 0-10.9 9.1zm91.6 13.5a83.2 83.2 0 0 0-7.8 14.4h-28.3a7.2 7.2 0 0 1 0-14.4zm-42.1-138.4c-11.2-3.8-18.9-9-18.9-19.2s6.5-16.5 17.8-18.7v-10h10.2v9.3a38.4 38.4 0 0 1 15.2 3.4l-3 11.9a33.7 33.7 0 0 0-15.1-3.6c-6.8 0-9 3-9 5.9s3.6 5.7 12.6 9c12.5 4.4 17.5 10.2 17.5 19.6s-6.6 17.4-18.7 19.5v10.7h-10.3v-10c-7-.3-13.8-2.2-17.8-4.5l3.1-12.3a37.3 37.3 0 0 0 17.5 4.6c5.9 0 10-2.3 10-6.5s-3.3-6.5-11.1-9.1zm57.3 54.9a7.2 7.2 0 0 1 0 14.4H172.8a7.2 7.2 0 0 1 0-14.4zm0 42.1H172.8a7.2 7.2 0 0 1 0-14.4h106.8a7.2 7.2 0 1 1 0 14.4zM416 354.7a74.7 74.7 0 0 1-6.1 29.9l-1.7 4.2a76.9 76.9 0 0 1-137.2 0l-1.9-4.2a76.4 76.4 0 0 1-6-29.9v-.3a76.8 76.8 0 0 1 6-29.9l1.8-4.1a76.8 76.8 0 0 1 137.1 0l1.9 4.1a75.1 75.1 0 0 1 6.1 29.9z" />
</svg>
