<svg xmlns="http://www.w3.org/2000/svg" viewBox="0 0 500 500">
  <g id="invoice-draft">
    <g id="status">
      <path d="M408.69,329.62l-14,14,21.47,21.46,13.95-13.95A51.5,51.5,0,0,0,408.69,329.62Z"/>
      <path d="M334.38,404.16l-3.87,25.07,25-3.9A51.65,51.65,0,0,0,334.38,404.16Z"/>
      <path d="M350.6,387.71l0,0-9.23,9.23a53,53,0,0,1,8.57,5.75l0,0,7.16,7.16,0,0a51,51,0,0,1,5.72,8.6l45.63-45.58-21.46-21.46Z"/>
      <path d="M379.34,276.48A109.26,109.26,0,0,0,269.13,386.69c.51,59.32,49,107.8,108.31,108.31A109.27,109.27,0,0,0,487.65,384.79C487.14,325.46,438.66,277,379.34,276.48Zm60.87,77.86-6.95,6.94-54.89,54.9,0,0-6.48,6.47-5.94,5.95-1.25,1.25-5.91,5.9-42.39,6.62L323,400l5.9-5.91,1.25-1.25,5.95-6,31.43-31.43,0,0,29.95-29.94,6.94-6.94.21-.22a51.88,51.88,0,0,1,35.78,35.78Z"/>
    </g>
    <g id="outline">
      <path id="dollarSign" d="M212.74,141.78a53,53,0,0,1-24.93-6.61l-4.5,17.57c5.7,3.31,15.46,6,25.53,6.45v14.26h14.71V158.14c17.27-3,26.73-14.41,26.73-27.77,0-13.52-7.21-21.77-25.08-28.08-12.76-4.81-18-8-18-12.91,0-4.21,3.16-8.41,12.92-8.41,10.81,0,17.72,3.45,21.62,5.1l4.35-17c-4.95-2.4-11.71-4.5-21.77-4.95V50.94H209.59V65.2c-16.07,3.15-25.38,13.52-25.38,26.73,0,14.56,11,22.07,27,27.48,11.11,3.75,15.91,7.35,15.91,13.06C227.15,138.48,221.3,141.78,212.74,141.78Z"/>
      <path id="line4" d="M293.25,237.65H140.65a10.44,10.44,0,0,0-10.41,8.57,10.26,10.26,0,0,0,10.12,11.94H293a10.43,10.43,0,0,0,10.4-8.57A10.26,10.26,0,0,0,293.25,237.65Z"/>
      <path id="line3" d="M130.23,210a10.43,10.43,0,0,0,10.4,8.56H293A10.44,10.44,0,0,0,303.36,210,10.26,10.26,0,0,0,293.24,198H140.34A10.25,10.25,0,0,0,130.23,210Z"/>
      <path id="line2" d="M303.06,285.09a10.24,10.24,0,0,0-9.81-7.44H140.65a10.44,10.44,0,0,0-10.41,8.57,10.26,10.26,0,0,0,10.12,11.94H287.45A126,126,0,0,1,303.06,285.09Z"/>
      <path id="line1" d="M209.73,329.44a10.42,10.42,0,0,0,10.4,8.56H260.3a123.65,123.65,0,0,1,11.14-20.5h-51.6A10.25,10.25,0,0,0,209.73,329.44Z"/>
      <path id="outline-2" data-name="outline" d="M250.54,379.31H151l-10.74,0,.5,10.72c.35,7.56-.84,29.38-10.48,39.49-3.51,3.68-7.74,5.39-13.32,5.39-5.8,0-10.21-1.78-13.87-5.58-9.79-10.18-11.19-31.88-10.88-39.79V47.21a54.39,54.39,0,0,0-5.34-21.7H323c3.44.71,19.06,5,19.06,23.65v217.4a123.89,123.89,0,0,1,20.5-3.86V49.16c0-30.33-24.26-42.07-37.09-44L54.64,5C27,5,15,29.23,12.53,42.05l-.18,51H71.66V389.12c-.16,3.65-1,36.1,16.55,54.39a38.76,38.76,0,0,0,28.7,11.92H270.61a124.43,124.43,0,0,1-20.33-68.32C250.28,384.48,250.38,381.89,250.54,379.31Z"/>
    </g>
  </g>
</svg>
