<svg
  xmlns="http://www.w3.org/2000/svg"
  viewBox="0 0 500 500"
  width="500"
  height="500"
  fill="#000000"
>
  <rect x="75.1" y="156" width="47.9" height="44.17" />
  <rect x="188.6" y="156" width="47.9" height="44.17" />
  <rect x="302.2" y="156" width="47.9" height="44.17" />
  <rect x="75.1" y="245.5" width="47.9" height="44.17" />
  <rect x="188.6" y="245.5" width="47.9" height="44.17" />
  <rect x="302.2" y="245.5" width="47.9" height="44.17" />
  <rect x="75.1" y="334.9" width="47.9" height="44.19" />
  <rect x="188.6" y="334.9" width="47.9" height="44.19" />
  <path d="M55.5 451.6A31.6 31.6 0 0 1 24 420.1V110.9a31.6 31.6 0 0 1 31.5-31.5h309.2a31.5 31.5 0 0 1 31.5 31.5v178.7h19V110.9a50.5 50.5 0 0 0-50.5-50.5h-73.2V10.8h-19.1v49.6H144.2V10.8h-19v49.6H55.5A50.6 50.6 0 0 0 5 110.9v309.2a50.6 50.6 0 0 0 50.5 50.5h273.9l-.2-19z" />
  <path d="M494.7 462.5v-4h-117l.2 4.4c.2 3-.3 11.8-4.2 15.9a6.9 6.9 0 0 1-5.4 2.2 7.2 7.2 0 0 1-5.6-2.3c-3.9-4.1-4.5-12.8-4.4-16V324.5a20.4 20.4 0 0 0-2.1-8.7h95.3a9.3 9.3 0 0 1 7.7 9.5v125.6h8.2V325.3c0-12.2-9.8-17-14.9-17.8H343.2c-11.2 0-16 9.8-17 14.9V343H350v119.5c0 1.5-.4 14.5 6.7 21.9a15.4 15.4 0 0 0 11.6 4.8h108.5c5.4 0 10-1.9 13.1-5.5 6.2-7.3 5.1-18.8 4.8-21.2z" />
  <path d="M416.6 443v-13.6c15.3-2.7 23.7-12.9 23.7-24.7s-6.4-19.4-22.3-25c-11.3-4.3-16-7.1-16-11.5s2.8-7.5 11.5-7.5 15.8 3.1 19.2 4.5l3.9-15.1c-4.4-2.1-10.4-4-19.4-4.4V334h-13.1v12.7c-14.3 2.8-22.5 12-22.5 23.8s9.7 19.6 24 24.4c9.9 3.3 14.2 6.5 14.2 11.6s-5.2 8.3-12.9 8.3a46.8 46.8 0 0 1-22.1-5.9l-4 15.7c5 2.9 13.7 5.3 22.7 5.7V443z" />
</svg>
