<svg
  xmlns="http://www.w3.org/2000/svg"
  viewBox="0 0 500 500"
  width="500"
  height="500"
  fill="#ffffff"
>
  <path d="M476.9 412.2H161.5l.5 11.7c.4 8.2-.9 31.9-11.4 42.9-3.8 4-8.4 5.9-14.5 5.9s-11.1-1.9-15.1-6.1c-10.6-11-12.2-34.6-11.8-43.3V50.9a60.2 60.2 0 0 0-5.8-23.6h256.9c3.8.8 20.7 5.4 20.7 25.7v338.6h22.3V53c0-33-26.3-45.7-40.3-47.9H68.4C38.2 5 25.2 31.4 22.6 45.3l-.3 55.5h64.6v322.1c-.2 3.9-1.1 39.2 18 59.1 8.1 8.5 18.9 13 31.2 13h292.6c14.6 0 26.7-5.2 35.1-14.9 16.9-19.6 13.9-50.8 13.1-57.3z" />
  <path
    data-name="dollar-sign"
    d="M240.3 153.8a57.3 57.3 0 0 1-27.1-7.2l-4.9 19.1c6.2 3.6 16.8 6.5 27.8 7v15.6h16v-16.7c18.8-3.3 29.1-15.7 29.1-30.2s-7.9-23.7-27.3-30.6c-13.9-5.2-19.6-8.6-19.6-14s3.4-9.2 14-9.2 19.3 3.8 23.6 5.6l4.7-18.5c-5.4-2.6-12.7-4.9-23.7-5.4V55h-16v15.5c-17.5 3.4-27.6 14.7-27.6 29.1s11.9 24 29.4 29.9c12.1 4 17.3 8 17.3 14.2s-6.3 10.1-15.7 10.1z"
  />
  <path d="M327.9 258.1H161.6a11.2 11.2 0 1 0 0 22.3h166.3a11.2 11.2 0 1 0 0-22.3z" />
  <path d="M327.9 301.6H161.6a11.2 11.2 0 1 0 0 22.3h166.3a11.2 11.2 0 1 0 0-22.3z" />
  <path d="M150.4 226.1a11.2 11.2 0 0 0 11.2 11.2h166.3a11.2 11.2 0 1 0 0-22.3H161.6a11.2 11.2 0 0 0-11.2 11.1z" />
  <path d="M327.9 344.9h-79.8a11.2 11.2 0 1 0 0 22.4h79.8a11.2 11.2 0 1 0 0-22.4z" />
</svg>
