<svg
  xmlns="http://www.w3.org/2000/svg"
  viewBox="0 0 500 500"
  width="500"
  height="500"
  fill="#000000"
>
  <path d="M259.4 359.5v-26.3c29.6-5.2 45.9-24.8 45.9-47.7s-12.4-37.4-43.1-48.2c-21.9-8.3-30.9-13.7-30.9-22.2s5.4-14.4 22.2-14.4c18.5 0 30.4 5.9 37.1 8.7l7.5-29.1c-8.5-4.1-20.1-7.7-37.4-8.5v-22.7h-25.3v24.5c-27.6 5.4-43.5 23.2-43.5 45.9 0 25 18.8 37.9 46.4 47.2 19 6.4 27.3 12.6 27.3 22.4s-10.1 16-24.8 16c-16.7 0-31.9-5.4-42.8-11.4l-7.7 30.2c9.8 5.7 26.6 10.3 43.8 11.1v24.5z" />
  <path d="M294.3 60l-23.1 37.7 108.7 2.9L328.1 5l-24 39A204.4 204.4 0 0 0 96.9 94.2c-79.8 79.8-79.8 209.6 0 289.4l12.9-12.9c-72.7-72.7-72.7-190.9 0-263.6A186.3 186.3 0 0 1 294.3 60z" />
  <path d="M403.1 116.4l-12.9 12.9c72.7 72.7 72.7 190.9 0 263.6A186.3 186.3 0 0 1 205.7 440l23.1-37.7-108.7-2.9 51.8 95.6 24-39.1a203.9 203.9 0 0 0 207.2-50.1c79.8-79.8 79.8-209.6 0-289.4z" />
</svg>
