<svg xmlns="http://www.w3.org/2000/svg" viewBox="0 0 500 500">
  <g id="view-invoice-action">
    <g id="viewInvoiceIcon">
      <path d="M477.5,417.2V399.9h-321l.8,19c.4,8.3-1.4,28.2-9,36.2-1.7,1.7-3.9,3.4-8.8,3.4s-6.8-1-9.3-3.6c-7.8-8.1-9.7-27.9-9.4-36.1V56.7a62.1,62.1,0,0,0-2.4-15.3H356.1c4.9,1.2,13.7,5,13.7,17.6V368.5h36.3V59c0-37-29.7-51.4-45.4-53.8L359.4,5H73.8c-34,0-48.6,29.5-51.6,45.1l-.4,1.7v60.8H84.4V417.8c-.2,5.8-.5,41.5,19.5,62.4A48.4,48.4,0,0,0,139.5,495H423.4c20.6,0,32.9-9.3,39.6-17C481,457.2,478.4,425.1,477.5,417.2Z"/>
      <path id="dollarSign" d="M259.4,354V321.5C296,315.2,316,291,316,262.7s-15.3-46.1-53.1-59.5c-27-10.2-38.2-16.9-38.2-27.4,0-8.9,6.7-17.8,27.4-17.8,22.9,0,37.5,7.3,45.8,10.8l9.2-35.9c-10.5-5.1-24.8-9.5-46.1-10.5v-28H229.8v30.2c-34,6.7-53.7,28.7-53.7,56.7,0,30.8,23.2,46.7,57.2,58.2,23.6,7.9,33.7,15.5,33.7,27.6s-12.4,19.8-30.5,19.8c-20.7,0-39.5-6.7-52.8-14l-9.6,37.2c12.1,7,32.8,12.7,54.1,13.7V354Z"/>
    </g>
  </g>
</svg>
