<svg
  xmlns="http://www.w3.org/2000/svg"
  viewBox="0 0 500 500"
  width="500"
  height="500"
  fill="#ffffff"
>
  <path d="M479 343l-2.7-6a109.8 109.8 0 0 0-195.9 0l-2.6 6a109.4 109.4 0 0 0-8.7 42.7v.4a109.4 109.4 0 0 0 8.7 42.7l2.7 6a109.8 109.8 0 0 0 195.9 0l2.6-6a111.2 111.2 0 0 0 8.7-42.7v-.4A109.4 109.4 0 0 0 479 343zm-183 78.1l-1.4-3a90 90 0 0 1-5.9-31.7v-.9a92.5 92.5 0 0 1 5.3-30.1l2-4.6a89.6 89.6 0 0 1 136.7-35.9L307.2 440.3a91.1 91.1 0 0 1-11.2-19.2zm172.1-34.7a91.1 91.1 0 0 1-5.4 30.2l-1.9 4.5a89.6 89.6 0 0 1-140 33.3l126.1-126.1a89.7 89.7 0 0 1 13.9 22.4l1.4 3.1a91.7 91.7 0 0 1 5.9 31.6h-.1z" />
  <path d="M212.4 141.6a53.7 53.7 0 0 1-24.9-6.6l-4.5 17.5c5.7 3.3 15.5 6 25.5 6.4v14.3h14.7v-15.3c17.2-3 26.7-14.4 26.7-27.7s-7.2-21.8-25-28.1c-12.8-4.8-18-7.9-18-12.9s3.1-8.4 12.9-8.4 17.7 3.5 21.5 5.1l4.4-16.9c-5-2.4-11.7-4.5-21.7-4.9V50.9h-14.7v14.2c-16.1 3.1-25.4 13.5-25.4 26.7s11 22 27 27.4c11.1 3.8 15.9 7.4 15.9 13.1s-5.8 9.3-14.4 9.3z" />
  <path d="M292.8 237.3H140.2a10.2 10.2 0 1 0 0 20.4h152.6a10.2 10.2 0 0 0 0-20.4z" />
  <path d="M129.9 208a10.2 10.2 0 0 0 10.2 10.2h152.7a10.3 10.3 0 0 0 0-20.5H140.1a10.3 10.3 0 0 0-10.2 10.3z" />
  <path d="M302.6 284.6a10.2 10.2 0 0 0-9.8-7.4H140.2a10.3 10.3 0 1 0 0 20.5H287a122.9 122.9 0 0 1 15.6-13.1z" />
  <path d="M209.3 327.2a10.3 10.3 0 0 0 10.2 10.3h40.4A126.4 126.4 0 0 1 271 317h-51.5a10.2 10.2 0 0 0-10.2 10.2z" />
  <path d="M250.2 378.7H140l.5 10.7c.4 7.6-.8 29.4-10.4 39.5-3.6 3.6-7.8 5.3-13.4 5.3s-10.1-1.7-13.8-5.5c-9.8-10.2-11.2-31.9-10.9-39.8V47.1a53.2 53.2 0 0 0-5.3-21.6h235.8c3.5.7 19 5 19 23.6v217a127.7 127.7 0 0 1 20.5-3.8V49.1c0-30.3-24.2-42-37-44H54.6C26.9 5 15 29.2 12.5 42l-.2 50.9h59.3v295.6c-.2 3.6-1 36 16.5 54.3a38.7 38.7 0 0 0 28.6 11.9h153.5a124.3 124.3 0 0 1-20.3-68.2q0-3.9.3-7.8z" />
</svg>
