<svg xmlns="http://www.w3.org/2000/svg" viewBox="0 0 500 500">
  <g id="leopold">
    <path id="torso" d="M307.9,389.5C216.2,438.8,21.8,412.1,13.1,286.8c-21.5,158.3,275,201.9,334.6,68.3C336.2,369,322.9,380.8,307.9,389.5Z"/>
    <path id="wings" d="M380,259.3c-20.5-1.4-44.1-13.8-60.8-20.1s-25.5-17-83.9-17a275.5,275.5,0,0,0-47.7,3.9c-3.4.1-6.9.4-10.3.8a142.5,142.5,0,0,0-48.8,15c-15.2,8-29.4,19.2-39.4,34a75,75,0,0,0-10.7,24.2,53.2,53.2,0,0,0-1,18.6c0,2.4.2,4.7.4,7l3.3,3a290.2,290.2,0,0,0,43.3,25.4,287.9,287.9,0,0,0,51,19.3c17.2,4.7,34.1,7.3,50.2,6.8s34.4-3.8,52.1-8.5a394,394,0,0,0,52.8-18.4c5.2-2.2,10.4-4.6,15.6-7.1-3.9-.2-7.7-.6-11.4-1.1-41.8-5.9-28.8-33.5-87.7-39.4-42-4.2-83.6-32.3-98.1-49.4,3.5-1.7,7.1-3.2,10.7-4.7,16.7,17.2,55.8,42.2,95.1,46.1,58.9,5.9,46,33.6,87.8,39.5s96-10,111.3-6.5,34.2,9.8,39.9,20.7l1.3-.6C428.2,269.9,400.4,260.8,380,259.3Z"/>
    <path id="head" d="M11.6,159.3l50.7-18.9,3.2-1.3c-.4-5.4-.9-20.9,8.4-24.8,11.1-4.7,4.5-22.7,2-28.3a2.3,2.3,0,0,1,.8-2.9c3.3-2.1,10.9-5.7,17.1.5.5.5,17.2,25.7,6.9,29.5-7.2,2.7-2,14.2-1.5,15.2h0a39.6,39.6,0,0,1,8.9,3.9c5.4,3.4,11.6,9.2,11.6,24.3,0,27.1-22.8,35-30.1,36.8-32.2,3-77.7,27.6-77.7,85.4h0c30.9-21.2,55.9,0,55.9,0,0-15.1,6.3-20.9,11.7-24.2A40,40,0,0,1,95.6,249h1.2l2.1-.3c26.6-5,76.7-30.6,76.7-92.1,0-58.4-46.4-82.9-78.6-85.4-14.1-9.3-34.4-6.6-48.3,7.2a41.6,41.6,0,0,0-12.5,31.5L5.7,152.3A4.8,4.8,0,0,0,11.6,159.3Z"/>
    <path id="feather-right" d="M452.7,339.1c-2.5-.6-5.9-.6-10.2-.4,1.6.7,3.3,1.5,5.1,2.5,0,0,4.6,3.5,11,8.8,10.7,2.6,25.5,15.4,26.3,17.7l1.3-.5c-7.9-9.5-15.1-18-21.9-25.6Z"/>
    <path id="feather-mid" d="M432,340.3c-10.5.9-25.3,3.5-41.5,5.4,11.3,7.7,25.5,15.1,34,16.7s25.8,4.7,32.7,3.1C454.4,360.2,442.7,349.5,432,340.3Z"/>
    <path id="feather-left" d="M354.5,346.5c6.5,5.7,14.9,11.5,20.1,13.2s16,4.9,20.5,4.4c-1.4-3.5-8-11.2-14-17.8C374.4,346,364.8,346.5,354.5,346.5Z"/>
  </g>
</svg>
