<svg
  xmlns="http://www.w3.org/2000/svg"
  viewBox="0 0 500 500"
  width="500"
  height="500"
  fill="#ffffff"
>
  <path d="M474.1 217.4H25.9a20.1 20.1 0 0 1 0-40.1h448.2a20.1 20.1 0 0 1 0 40.1z" />
  <path d="M475 322.7H26.8a20.1 20.1 0 0 1 0-40.1H475a20.1 20.1 0 0 1 0 40.1z" />
  <path d="M475 427.9H26.8a20 20 0 0 1 0-40H475a20 20 0 0 1 0 40z" />
  <rect x="5" y="72.1" width="89.4" height="40.06" />
  <rect x="136.7" y="72.1" width="89.4" height="40.06" />
  <rect x="268.4" y="72.1" width="89.4" height="40.06" />
  <rect x="400" y="72.1" width="89.4" height="40.06" />
</svg>
