<svg
  xmlns="http://www.w3.org/2000/svg"
  viewBox="0 0 500 500"
  width="500"
  height="500"
  fill="#000000"
>
  <path d="M250.2 5C114.9 4.9 5.1 114.4 5 249.8S114.4 494.9 249.8 495 494.9 385.6 495 250.2v-.2C494.9 114.8 385.4 5.3 250.2 5zm19.9 381.1v45h-43.2v-41.9c-29.6-1.3-58.3-9.2-75-18.9l13.2-51.7c18.5 10.2 44.6 19.5 73.2 19.5 25.2 0 42.4-9.8 42.4-27.4s-14.1-27.4-46.8-38.4c-47.2-15.9-79.4-37.9-79.4-80.7 0-38.8 27.4-69.3 74.6-78.6V71.1h43.2V110c29.6 1.3 49.4 7.5 64 14.5l-12.8 49.9c-11.5-4.9-31.8-15-63.5-15-28.7 0-38 12.3-38 24.7 0 14.5 15.5 23.8 53 37.9 52.5 18.6 73.6 42.8 73.6 82.5s-27.8 72.8-78.5 81.6z" />
</svg>
