<svg
  xmlns="http://www.w3.org/2000/svg"
  viewBox="0 0 500 500"
  width="500"
  height="500"
  fill="#ffffff"
>
  <polygon points="390.5 196.2 321 196.2 321 41.8 179 41.8 179 196.2 109.5 196.2 250 395.1 390.5 196.2" />
  <path d="M358.7 273.8l-11.9 16.9c24.4 4.2 46.9 10 66.5 17.3 39.9 14.8 62.9 34.2 62.9 53.1s-23 38.3-62.9 53.2c-43.5 16.2-101.5 25.1-163.3 25.1s-119.8-8.9-163.3-25.1c-39.9-14.9-62.9-34.2-62.9-53.2s23-38.3 62.9-53.1c19.6-7.3 42.1-13.1 66.5-17.3l-11.9-16.9C59.9 289.4 5 322.3 5 361.1c0 54.5 107.6 97.1 245 97.1s245-42.6 245-97.1c0-38.8-54.9-71.7-136.3-87.3z" />
</svg>
