<svg
  xmlns="http://www.w3.org/2000/svg"
  viewBox="0 0 500 500"
  width="500"
  height="500"
  fill="#000000"
>
  <path d="M282.65 96.91a92.07 92.07 0 0 0-7.33-36.08h-.16a92.24 92.24 0 0 0-169.5 0h-.15a91.9 91.9 0 0 0-7.34 36.08v.33a91.87 91.87 0 0 0 7.34 36.08h.15a92.24 92.24 0 0 0 169.5 0h.16a92 92 0 0 0 7.33-36.08v-.33z" />
  <polygon points="391.78 424.34 346.15 384.04 346.15 321.68 375.27 321.68 375.27 370.92 411.06 402.52 391.78 424.34" />
  <path d="M367.75 495A118.25 118.25 0 1 1 486 376.76 118.37 118.37 0 0 1 367.75 495zm0-197.67a79.43 79.43 0 1 0 79.43 79.43 79.51 79.51 0 0 0-79.43-79.43z" />
  <path d="M210.27 375.94a157.21 157.21 0 0 1 86.33-140.17c-44.67-28.38-106.19-27.45-106.19-27.45s-74.5-1.14-119.06 36.92S14 401 14 401c73.54 18.68 144.31 22.48 203 20.3a156.4 156.4 0 0 1-6.73-45.36z" />
</svg>
