<svg xmlns="http://www.w3.org/2000/svg" viewBox="0 0 500 500">
  <g id="manage-member-times">
    <g>
      <path d="M282.65,96.91a92.07,92.07,0,0,0-7.33-36.08h-.16a92.24,92.24,0,0,0-169.5,0h-.15a91.9,91.9,0,0,0-7.34,36.08c0,.06,0,.11,0,.17s0,.1,0,.16a91.87,91.87,0,0,0,7.34,36.08h.15a92.24,92.24,0,0,0,169.5,0h.16a92,92,0,0,0,7.33-36.08c0-.06,0-.11,0-.16S282.65,97,282.65,96.91Z"/>
      <polygon points="391.78 424.34 346.15 384.04 346.15 321.68 375.27 321.68 375.27 370.92 411.06 402.52 391.78 424.34"/>
      <path d="M367.75,495A118.25,118.25,0,1,1,486,376.76,118.37,118.37,0,0,1,367.75,495Zm0-197.67a79.43,79.43,0,1,0,79.43,79.43A79.51,79.51,0,0,0,367.75,297.33Z"/>
      <path d="M210.27,375.94A157.21,157.21,0,0,1,296.6,235.77c-44.67-28.38-106.19-27.45-106.19-27.45s-74.5-1.14-119.06,36.92S14,401,14,401c73.54,18.68,144.31,22.48,203,20.3A156.4,156.4,0,0,1,210.27,375.94Z"/>
    </g>
  </g>
</svg>
