<svg xmlns="http://www.w3.org/2000/svg" viewBox="0 0 500 500">
  <g id="master-agreement-number">
    <path id="outline" d="M380.3,24.4h-272A42.8,42.8,0,0,0,65.5,67.2V432.8a42.8,42.8,0,0,0,42.8,42.8h272a42.8,42.8,0,0,0,42.8-42.8V67.2A42.8,42.8,0,0,0,380.3,24.4Zm22.2,277.2V432.8a22.2,22.2,0,0,1-22.2,22.3h-272a22.3,22.3,0,0,1-22.2-22.3V67.2a22.3,22.3,0,0,1,22.2-22.3h272a22.2,22.2,0,0,1,22.2,22.3V301.6Z"/>
    <path id="fingers" d="M246.4,205.3a11.6,11.6,0,0,0-4.1-8,12,12,0,0,0-8.6-2.7l-2.1.5a13.1,13.1,0,0,0,.1-2.8,13.8,13.8,0,0,0-4.9-9.2,13.6,13.6,0,0,0-14.2-1.9,13.1,13.1,0,0,0-4.9-11.2,13.4,13.4,0,0,0-15.7-1,11.7,11.7,0,0,0-12.6-10.2,11.2,11.2,0,0,0-8.3,4.5l-4.1,5.3a11.6,11.6,0,0,0-2.3,8,12,12,0,0,0,4.1,8,11.8,11.8,0,0,0,7.6,2.7h1l2.3-.4a13.8,13.8,0,0,0,4.9,11.2,13.6,13.6,0,0,0,8.6,3.1,13,13,0,0,0,5.5-1.2,13.5,13.5,0,0,0,13.6,14.3,15.9,15.9,0,0,0,4.3-.6,12.7,12.7,0,0,0-.1,2,11.9,11.9,0,0,0,4.2,8,11.6,11.6,0,0,0,7.5,2.8h1.1a11.6,11.6,0,0,0,8.1-4.4l6.9-8.9v-.2A11,11,0,0,0,246.4,205.3Zm-69.7-25.9a3.7,3.7,0,0,1-4.1-3.5,3.4,3.4,0,0,1,.7-2.5l4-5.3a4.3,4.3,0,0,1,2.7-1.5h.4a3.6,3.6,0,0,1,2.4.9,4,4,0,0,1,1.4,2.6,3.6,3.6,0,0,1-.8,2.7l-4,5.2A4,4,0,0,1,176.7,179.4ZM189.6,192a5.7,5.7,0,0,1-.8-8l5.9-7.1a5.5,5.5,0,0,1,4.4-2.1,5.3,5.3,0,0,1,3.6,1.3,5.6,5.6,0,0,1,.8,8l-3.4,4.2h0l-2.4,2.9A5.7,5.7,0,0,1,189.6,192Zm19.1,13.2a5.7,5.7,0,0,1-.8-8.1l2.2-2.8,1.2-1.4h0l2.4-2.9a5.7,5.7,0,0,1,8-.8,5.5,5.5,0,0,1,2.1,3.9,5.1,5.1,0,0,1-1.3,4.1l-2.6,3.2h0l-3.2,4A5.7,5.7,0,0,1,208.7,205.2Zm29.3,3.2-6.8,8.7a3.5,3.5,0,0,1-2.6,1.5,3.9,3.9,0,0,1-4.2-3.6,4.1,4.1,0,0,1,.7-2.5l6.6-8.5a13.2,13.2,0,0,1,2.7-1.5,3.9,3.9,0,0,1,4.2,3.5A4.3,4.3,0,0,1,238,208.4Z"/>
    <path id="hands" d="M248.8,215.9c2.7,2.1,4.1,2.2,5,2.8,4.3,2.7,8.9,1.8,9.9,1s.4-2.3.4-2.3l-1.9-1.2,3.6-5.8,6.4,4.1c3.8.4,6.4-.6,8.1-2.4s.2-5.3.2-5.3l-7.9-5,3.9-5.9,12.5,8c4,.6,6.6,0,8.3-2s.7-5.9.6-6l-14.5-9.2,3.6-5.3,15.1,9.6s4.4,2.8,6.5-.4l-68.4-43.7,7.5-4.8a13.3,13.3,0,0,0,1.9,1.4L302.2,177a13.9,13.9,0,0,0,7.4,2.2l2.2-.2h.2a13.8,13.8,0,0,0,6.7-3.1l.6-.5,13.5-26.5-25.2-38.7-46.8-6.5-3.7-.7h-.3a14.2,14.2,0,0,0-8.8,2l-21.3,13.4c-.5.4-10.6,11.2-11.1,11.6l-6.9-4,11-11.3,14.4-9.1a20.4,20.4,0,0,0-3.2-.8L214,107.3l-30.6,2.3L159,148l6.2,3.9c-.9,3.2,2.5,4.5,4.5,6.6l2.4-2.9c2.3-2.8,6.4-3.5,10.1-3.8a13.2,13.2,0,0,1,14.3,11.1,14.6,14.6,0,0,1,16.2,1.1,13.6,13.6,0,0,1,5.1,9.2v1.3a22.2,22.2,0,0,1,3.7-.9,14.3,14.3,0,0,1,15.4,15.8c4.7-.3,8.5.7,11.2,3.1a12.5,12.5,0,0,1,4.3,8.6,76.1,76.1,0,0,1,0,8.8M313,170.3a6.4,6.4,0,0,1-2.1.9h-.3a5.8,5.8,0,0,1-4.2-.8l-52.6-33.5a7.3,7.3,0,0,1-1.9-2l-2.1-3.5-11,7L225,155.9l-.4.5a5.5,5.5,0,0,1-3.8,2.8,5.9,5.9,0,0,1-5.7-1.8,5.7,5.7,0,0,1-.7-7.3l13.9-21.8.3-.6a5.8,5.8,0,0,1,2.3-2.6l21.3-13.4a6.9,6.9,0,0,1,3.7-.9l3.7.7,43.3,6,20.8,31.9Z"/>
    <path id="left-cuff" d="M169.3,92.3l-1.4-.9h0L152,81.2l-7.8,12.2h0l-16.5,25.9-9.2,14.4L148,152.6l7.9-12.4h0l17.8-27.9A14.5,14.5,0,0,0,169.3,92.3Zm-27.7,41.3a4.8,4.8,0,1,1,4.7-4.7A4.7,4.7,0,0,1,141.6,133.6Z"/>
    <path id="right-cuff" d="M319.3,90.4l1.4-.9h0l15.9-10.1,7.8,12.2h0l16.5,25.9,9.2,14.5-29.5,18.8-7.9-12.5h0l-17.8-27.9A14.5,14.5,0,0,1,319.3,90.4ZM347,131.8a4.8,4.8,0,1,0-4.7-4.8A4.7,4.7,0,0,0,347,131.8Z"/>
    <path id="number" d="M199.2,413.4l6.4-44.2h-20V346.5h23.9l4-27.6h-21V296h24.4l6.2-43H245l-6.1,43h22.4l6.4-43h22l-6.4,43H303v22.9H279.8l-3.9,27.6h20.5v22.7H272.2L266,413.4H243.8l6.2-44.2H227.5l-6.1,44.2Zm54.7-66.9,4-27.6H235.4l-3.9,27.6Z"/>
  </g>
</svg>
