<svg
  xmlns="http://www.w3.org/2000/svg"
  viewBox="0 0 500 500"
  width="500"
  height="500"
  fill="#000000"
>
  <path d="M349.2 243.4a95 95 0 1 0-95-95 95.1 95.1 0 0 0 95 95zm0-180.2a85.2 85.2 0 1 1-85.2 85.2 85.3 85.3 0 0 1 85.2-85.2z" />
  <path d="M141 269.4a90.1 90.1 0 1 0 90.1 90.1 90 90 0 0 0-90.1-90.1zm6.3 131v14.3h-13.7v-13.3c-9.4-.4-18.5-2.9-23.8-6L114 379a49.6 49.6 0 0 0 23.2 6.2c8 0 13.4-3.1 13.4-8.7s-4.4-8.7-14.8-12.2c-15-5-25.2-12-25.2-25.6s8.7-21.9 23.7-24.9v-13.3H148v12.3c9.4.5 15.6 2.4 20.3 4.7l-4.1 15.8a45.3 45.3 0 0 0-20.1-4.8c-9.1 0-12.1 3.9-12.1 7.8s4.9 7.6 16.8 12.1c16.7 5.9 23.4 13.5 23.4 26.1s-8.8 23.1-24.9 25.9z" />
  <path
    data-name="dollar-sign"
    d="M345.3 177.9a51.9 51.9 0 0 1-24.2-6.4l-4.4 17c5.6 3.3 15 5.9 24.8 6.3v13.9h14.3v-14.9c16.8-2.9 26-14 26-27s-7-21.2-24.4-27.3c-12.4-4.7-17.5-7.7-17.5-12.5s3.1-8.2 12.6-8.2 17.2 3.3 21 4.9l4.2-16.4c-4.8-2.4-11.4-4.4-21.2-4.9V89.6h-14.3v13.9c-15.6 3-24.6 13.1-24.6 25.9s10.6 21.5 26.3 26.7c10.7 3.7 15.4 7.2 15.4 12.7s-5.7 9.1-14 9.1z"
  />
  <path d="M71 81.5a18.9 18.9 0 0 1 18.9-18.9h109.2v29.3l67.7-39.1-67.7-39V43H89.9a38.6 38.6 0 0 0-38.5 38.5v176.9H71z" />
  <path d="M429.5 241.6v176.9a18.9 18.9 0 0 1-18.9 18.9H301.4v-29.3l-67.7 39.1 67.7 39V457h109.2a38.6 38.6 0 0 0 38.5-38.5V241.6z" />
</svg>
