<svg xmlns="http://www.w3.org/2000/svg" viewBox="0 0 500 500">
  <g id="medical-info">
    <path id="outline" d="M426.4,495H73.6a48.5,48.5,0,0,1-48.4-48.5V53.5A48.5,48.5,0,0,1,73.6,5H426.4a48.5,48.5,0,0,1,48.4,48.5v393A48.5,48.5,0,0,1,426.4,495ZM73.6,23.5a30,30,0,0,0-30,30v393a30,30,0,0,0,30,30H426.4a30,30,0,0,0,30-30V53.5a30,30,0,0,0-30-30Z"/>
    <path id="line1" d="M419.9,206.3H70.2a9.9,9.9,0,0,0,0,19.8H419.9a9.9,9.9,0,1,0,0-19.8Z"/>
    <path id="line2" d="M419.9,279H70.2a10,10,0,0,0,0,19.9H419.9a10,10,0,0,0,0-19.9Z"/>
    <path id="line3" d="M419.9,351.7H70.2a10,10,0,0,0,0,19.9H419.9a10,10,0,0,0,0-19.9Z"/>
    <path id="line4" d="M238.9,424.5H70.2a9.9,9.9,0,0,0,0,19.8H238.9a9.9,9.9,0,1,0,0-19.8Z"/>
    <path id="plus" d="M186,54.9v118H304V54.9Zm94.3,68.2H254.2v26.1H235.7V123.1H209.6V104.6h26.1V78.5h18.5v26.1h26.1Z"/>
  </g>
</svg>
