<svg
  xmlns="http://www.w3.org/2000/svg"
  viewBox="0 0 500 500"
  width="500"
  height="500"
  fill="#000000"
>
  <path d="M426.4 495H73.6a48.5 48.5 0 0 1-48.4-48.5v-393A48.5 48.5 0 0 1 73.6 5h352.8a48.5 48.5 0 0 1 48.4 48.5v393a48.5 48.5 0 0 1-48.4 48.5zM73.6 23.5a30 30 0 0 0-30 30v393a30 30 0 0 0 30 30h352.8a30 30 0 0 0 30-30v-393a30 30 0 0 0-30-30z" />
  <path d="M419.9 206.3H70.2a9.9 9.9 0 0 0 0 19.8h349.7a9.9 9.9 0 1 0 0-19.8z" />
  <path d="M419.9 279H70.2a10 10 0 0 0 0 19.9h349.7a10 10 0 0 0 0-19.9z" />
  <path d="M419.9 351.7H70.2a10 10 0 0 0 0 19.9h349.7a10 10 0 0 0 0-19.9z" />
  <path d="M238.9 424.5H70.2a9.9 9.9 0 0 0 0 19.8h168.7a9.9 9.9 0 1 0 0-19.8z" />
  <path d="M186 54.9v118h118v-118zm94.3 68.2h-26.1v26.1h-18.5v-26.1h-26.1v-18.5h26.1V78.5h18.5v26.1h26.1z" />
</svg>
