<svg
  xmlns="http://www.w3.org/2000/svg"
  viewBox="0 0 500 500"
  width="500"
  height="500"
  fill="#ffffff"
>
  <path d="M352.39 101.07H210.21a9.62 9.62 0 0 1 0-19.24h142.18a9.62 9.62 0 0 1 0 19.24z" />
  <path d="M352.39 188.57H210.21a9.62 9.62 0 0 1 0-19.24h142.18a9.62 9.62 0 0 1 0 19.24z" />
  <path d="M194.53 363.58H67.35a9.62 9.62 0 0 1 0-19.24h127.18a9.62 9.62 0 0 1 0 19.24z" />
  <path d="M265.43 425.66H78.59a54.43 54.43 0 0 1-54.36-54.39V78.63a54.43 54.43 0 0 1 54.36-54.39h262.56a54.43 54.43 0 0 1 54.36 54.39V260.4a126.71 126.71 0 0 1 19.23 2.77V78.63A73.69 73.69 0 0 0 341.15 5H78.59A73.69 73.69 0 0 0 5 78.63v292.64a73.69 73.69 0 0 0 73.59 73.63h194.7a127.45 127.45 0 0 1-7.86-19.24z" />
  <path d="M163 192.51s-3.47-32.09-15.62-42.45S115 140 115 140s-20.32-.31-32.44 10.06-15.62 42.45-15.62 42.45c50.38 12.8 96.06 0 96.06 0z" />
  <path d="M91.9 115a25.09 25.09 0 0 0 46.16 0h.05a25.14 25.14 0 0 0 2-9.83v-.09a25.32 25.32 0 0 0-2-9.83h-.05a25.11 25.11 0 0 0-46.16 0h-.05a25.32 25.32 0 0 0-2 9.83v.09a25.32 25.32 0 0 0 2 9.83z" />
  <path
    d="M386.85 278.58A108.21 108.21 0 1 0 495 386.79a108.18 108.18 0 0 0-108.15-108.21zm62 76.74l-75.41 75.45a9.69 9.69 0 0 1-13.73 0l-39.88-39.9a9.72 9.72 0 0 1 13.74-13.74l33 33 68.53-68.57a9.72 9.72 0 0 1 13.74 13.74z"
    data-name="check"
  />
  <path d="M361.21 262.65a9.6 9.6 0 0 0-8.82-5.82h-285a9.62 9.62 0 0 0 0 19.24h258a126.28 126.28 0 0 1 35.82-13.42z" />
</svg>
