<svg
  xmlns="http://www.w3.org/2000/svg"
  viewBox="0 0 500 500"
  width="500"
  height="500"
  fill="#ffffff"
>
  <path d="M352.31 101H210.16a9.62 9.62 0 0 1 0-19.23h142.15a9.62 9.62 0 0 1 0 19.23z" />
  <path d="M352.31 188.51H210.16a9.62 9.62 0 0 1 0-19.23h142.15a9.62 9.62 0 0 1 0 19.23z" />
  <path d="M194.48 363.47H67.33a9.62 9.62 0 0 1 0-19.24h127.15a9.62 9.62 0 0 1 0 19.24z" />
  <path d="M265.37 425.54H78.57a54.43 54.43 0 0 1-54.35-54.38V78.61a54.42 54.42 0 0 1 54.35-54.38h262.5a54.42 54.42 0 0 1 54.35 54.38v181.71a126.58 126.58 0 0 1 19.22 2.77V78.61A73.67 73.67 0 0 0 341.07 5H78.57A73.67 73.67 0 0 0 5 78.61v292.55a73.67 73.67 0 0 0 73.57 73.61h194.66a127.76 127.76 0 0 1-7.86-19.23z" />
  <path d="M163 192.45s-3.48-32.07-15.62-42.44S115 140 115 140s-20.32-.31-32.44 10-15.61 42.44-15.61 42.44c50.35 12.81 96.05.01 96.05.01z" />
  <path d="M91.88 115a25.08 25.08 0 0 0 46.12 0h.05a25.32 25.32 0 0 0 2-9.83v-.09a25.32 25.32 0 0 0-2-9.83H138a25.11 25.11 0 0 0-46.15 0 25.32 25.32 0 0 0-2 9.83v.09a25.32 25.32 0 0 0 2 9.83z" />
  <polygon points="367.26 425.69 424.8 385.04 367.26 344.4 367.26 425.69" />
  <path d="M386.87 278.65A108.18 108.18 0 1 0 495 386.82a108.15 108.15 0 0 0-108.13-108.17zm52.43 119.69l-65.59 46.34a16.28 16.28 0 0 1-25.71-13.3v-92.67a16.27 16.27 0 0 1 25.66-13.3l65.6 46.33a16.28 16.28 0 0 1 0 26.6z" />
  <path d="M361.16 262.62a9.62 9.62 0 0 0-8.85-5.86h-285a9.62 9.62 0 0 0 0 19.23h257.76a126.18 126.18 0 0 1 36.09-13.37z" />
</svg>
