<svg
  xmlns="http://www.w3.org/2000/svg"
  viewBox="0 0 500 500"
  width="500"
  height="500"
  fill="#000000"
>
  <path d="M352.41 101.08H210.22a9.62 9.62 0 0 1 0-19.24h142.19a9.62 9.62 0 0 1 0 19.24z" />
  <path d="M352.41 188.58H210.22a9.62 9.62 0 0 1 0-19.23h142.19a9.62 9.62 0 0 1 0 19.23z" />
  <path d="M194.54 363.6H67.35a9.62 9.62 0 0 1 0-19.24h127.19a9.62 9.62 0 0 1 0 19.24z" />
  <path d="M265.45 425.7H78.59a54.45 54.45 0 0 1-54.36-54.4V78.63a54.44 54.44 0 0 1 54.36-54.39h262.58a54.43 54.43 0 0 1 54.36 54.39v181.79a126.71 126.71 0 0 1 19.23 2.76V78.63A73.69 73.69 0 0 0 341.17 5H78.59A73.69 73.69 0 0 0 5 78.63V371.3a73.69 73.69 0 0 0 73.59 73.63h194.72a126.72 126.72 0 0 1-7.86-19.23z" />
  <path d="M163.05 192.53s-3.47-32.1-15.62-42.46S115 140 115 140s-20.33-.31-32.45 10.06-15.62 42.46-15.62 42.46c50.4 12.81 96.12.01 96.12.01z" />
  <path d="M91.91 115a25.09 25.09 0 0 0 46.16 0 25.15 25.15 0 0 0 2-9.83v-.09a25.23 25.23 0 0 0-2-9.84 25.11 25.11 0 0 0-46.16 0 25.41 25.41 0 0 0-2 9.84v.09a25 25 0 0 0 2 9.83z" />
  <path d="M386.84 278.57A108.22 108.22 0 1 0 495 386.78a108.19 108.19 0 0 0-108.16-108.21zm53.09 145.83a11.77 11.77 0 0 1-16.64 16.66l-37.6-37.63-37.61 37.63a11.77 11.77 0 1 1-16.63-16.66l37.6-37.62-37.6-37.62a11.77 11.77 0 0 1 16.63-16.65l37.61 37.63 37.6-37.63a11.77 11.77 0 0 1 16.64 16.65l-37.61 37.62z" />
  <path d="M361.19 262.59a9.62 9.62 0 0 0-8.78-5.74H67.35a9.62 9.62 0 0 0 0 19.24h257.47a126.48 126.48 0 0 1 36.37-13.5z" />
</svg>
