<svg xmlns="http://www.w3.org/2000/svg" viewBox="0 0 500 500">
  <g id="member-intake-cancelled">
    <path d="M352.41,101.08H210.22a9.62,9.62,0,0,1,0-19.24H352.41a9.62,9.62,0,0,1,0,19.24Z"/>
    <path d="M352.41,188.58H210.22a9.62,9.62,0,0,1,0-19.23H352.41a9.62,9.62,0,0,1,0,19.23Z"/>
    <path d="M194.54,363.6H67.35a9.62,9.62,0,0,1,0-19.24H194.54a9.62,9.62,0,0,1,0,19.24Z"/>
    <path d="M265.45,425.7H78.59a54.45,54.45,0,0,1-54.36-54.4V78.63A54.44,54.44,0,0,1,78.59,24.24H341.17a54.43,54.43,0,0,1,54.36,54.39V260.42a126.71,126.71,0,0,1,19.23,2.76V78.63A73.69,73.69,0,0,0,341.17,5H78.59A73.69,73.69,0,0,0,5,78.63V371.3a73.69,73.69,0,0,0,73.59,73.63H273.31A126.72,126.72,0,0,1,265.45,425.7Z"/>
    <g id="body">
      <path d="M163.05,192.53s-3.47-32.1-15.62-42.46S115,140,115,140s-20.33-.31-32.45,10.06-15.62,42.46-15.62,42.46C117.33,205.33,163.05,192.53,163.05,192.53Z"/>
    </g>
    <g id="head">
      <path d="M91.91,115a25.09,25.09,0,0,0,46.16,0h0a25.15,25.15,0,0,0,2-9.83v-.09a25.23,25.23,0,0,0-2-9.84h0a25.11,25.11,0,0,0-46.16,0h0a25.41,25.41,0,0,0-2,9.84v.09a25,25,0,0,0,2,9.83Z"/>
    </g>
    <g id="cross">
      <path d="M386.84,278.57A108.22,108.22,0,1,0,495,386.78,108.19,108.19,0,0,0,386.84,278.57ZM439.93,424.4a11.77,11.77,0,0,1-16.64,16.66l-37.6-37.63-37.61,37.63a11.77,11.77,0,1,1-16.63-16.66l37.6-37.62-37.6-37.62a11.77,11.77,0,0,1,16.63-16.65l37.61,37.63,37.6-37.63a11.77,11.77,0,0,1,16.64,16.65l-37.61,37.62Z"/>
    </g>
    <path d="M361.19,262.59a9.62,9.62,0,0,0-8.78-5.74H67.35a9.62,9.62,0,0,0,0,19.24H324.82A126.48,126.48,0,0,1,361.19,262.59Z"/>
  </g>
</svg>
