<svg
  xmlns="http://www.w3.org/2000/svg"
  viewBox="0 0 500 500"
  width="500"
  height="500"
  fill="#ffffff"
>
  <path d="M352.34 101H210.18a9.62 9.62 0 0 1 0-19.23h142.16a9.62 9.62 0 0 1 0 19.23z" />
  <path d="M352.34 188.44H210.18a9.61 9.61 0 0 1 0-19.22h142.16a9.61 9.61 0 1 1 0 19.22z" />
  <path d="M194.5 363.32H67.34a9.61 9.61 0 0 1 0-19.22H194.5a9.61 9.61 0 1 1 0 19.22z" />
  <path d="M265.4 425.37H78.58A54.42 54.42 0 0 1 24.22 371V78.58a54.43 54.43 0 0 1 54.36-54.36H341.1a54.42 54.42 0 0 1 54.36 54.36v181.64a128 128 0 0 1 19.22 2.78V78.58A73.66 73.66 0 0 0 341.1 5H78.58A73.67 73.67 0 0 0 5 78.58V371a73.66 73.66 0 0 0 73.58 73.57h194.68a126.19 126.19 0 0 1-7.86-19.2z" />
  <path d="M387.8 278.74a108.12 108.12 0 0 0-109.07 109.07c.5 58.71 48.48 106.69 107.19 107.19A108.15 108.15 0 0 0 495 385.92c-.5-58.7-48.48-106.68-107.2-107.18zM363.09 430l-3.49 3.49-.73.73-3.46 3.46-24.85 3.88 3.88-24.85 3.46-3.46.73-.73 3.49-3.48 51.6-50.16 21 21zm65.69-63.86l-21-21 13.39-13c17 4.18 22 20 22 20z" />
  <path d="M163 192.38s-3.45-32.07-15.6-42.38-32.4-10.1-32.4-10.1-20.35-.3-32.47 10.1-15.62 42.42-15.62 42.42c50.4 12.75 96.09-.04 96.09-.04z" />
  <path d="M91.89 114.92a25.09 25.09 0 0 0 46.16 0 24.91 24.91 0 0 0 2-9.82v-.1a25.32 25.32 0 0 0-2-9.83 25.12 25.12 0 0 0-46.16 0 25.32 25.32 0 0 0-2 9.83v.09a25.27 25.27 0 0 0 2 9.82z" />
  <path d="M361.2 262.54a9.61 9.61 0 0 0-8.86-5.88h-285a9.61 9.61 0 0 0 0 19.22h257.53a126.72 126.72 0 0 1 36.33-13.34z" />
</svg>
