<svg xmlns="http://www.w3.org/2000/svg" viewBox="0 0 500 500">
  <g id="member-intake-draft">
    <path d="M352.34,101H210.18a9.62,9.62,0,0,1,0-19.23H352.34a9.62,9.62,0,0,1,0,19.23Z"/>
    <path d="M352.34,188.44H210.18a9.61,9.61,0,0,1,0-19.22H352.34a9.61,9.61,0,1,1,0,19.22Z"/>
    <path d="M194.5,363.32H67.34a9.61,9.61,0,0,1,0-19.22H194.5a9.61,9.61,0,1,1,0,19.22Z"/>
    <path d="M265.4,425.37H78.58A54.42,54.42,0,0,1,24.22,371V78.58A54.43,54.43,0,0,1,78.58,24.22H341.1a54.42,54.42,0,0,1,54.36,54.36V260.22A128,128,0,0,1,414.68,263V78.58A73.66,73.66,0,0,0,341.1,5H78.58A73.67,73.67,0,0,0,5,78.58V371a73.66,73.66,0,0,0,73.58,73.57H273.26A126.19,126.19,0,0,1,265.4,425.37Z"/>
    <path d="M387.8,278.74A108.12,108.12,0,0,0,278.73,387.81c.5,58.71,48.48,106.69,107.19,107.19A108.15,108.15,0,0,0,495,385.92C494.5,327.22,446.52,279.24,387.8,278.74ZM363.09,430l-3.49,3.49-.73.73-3.46,3.46-24.85,3.88,3.88-24.85,3.46-3.46.73-.73,3.49-3.48,51.6-50.16,21,21Zm65.69-63.86-21-21,13.39-13c17,4.18,22,20,22,20Z"/>
    <g id="body">
      <path d="M163,192.38S159.55,160.31,147.4,150,115,139.9,115,139.9,94.65,139.6,82.53,150s-15.62,42.42-15.62,42.42C117.31,205.17,163,192.38,163,192.38Z"/>
    </g>
    <g id="head">
      <path d="M91.89,114.92a25.09,25.09,0,0,0,46.16,0h0a24.91,24.91,0,0,0,2-9.82V105a25.32,25.32,0,0,0-2-9.83h0a25.12,25.12,0,0,0-46.16,0h0a25.32,25.32,0,0,0-2,9.83v.09a25.27,25.27,0,0,0,2,9.82Z"/>
    </g>
    <path d="M361.2,262.54a9.61,9.61,0,0,0-8.86-5.88h-285a9.61,9.61,0,0,0,0,19.22H324.87A126.72,126.72,0,0,1,361.2,262.54Z"/>
  </g>
</svg>
