<svg id="onboarding" xmlns="http://www.w3.org/2000/svg" viewBox="0 0 500 500">
  <path id="head" d="M299.9,122.1a103.4,103.4,0,0,0-8-39.6h-.2a101.2,101.2,0,0,0-186,0h-.2a103.5,103.5,0,0,0-8.1,39.6v.4a101.1,101.1,0,0,0,8.1,39.5h.2a101.1,101.1,0,0,0,186,0h.2a101,101,0,0,0,8-39.5Z"/>
  <path id="magnifying-glass" d="M329.6,185.4h-.3a103.4,103.4,0,0,0,.3,206.8h.3a103.4,103.4,0,0,0,59.3-18.9l8.9-6.3L482,451l13-13.1-84.3-84.2,5.7-8.8A101.7,101.7,0,0,0,433,288.5h0C432.9,231.6,386.5,185.4,329.6,185.4Zm61.5,161.9a85.2,85.2,0,1,1,23.6-58.8A85.1,85.1,0,0,1,391.1,347.3Z"/>
  <path id="body" d="M329.9,407c-65.8,0-119.3-53.3-119.5-118.9a120.7,120.7,0,0,1,7.8-42.8c-11.9-1-19.5-.9-19.5-.9s-81.9-1.2-130.8,40.5S5,455.9,5,455.9c203.1,51.5,387.3,0,387.3,0a535.5,535.5,0,0,0-10.9-60.8A117.9,117.9,0,0,1,329.9,407Z"/>
  <path id="body-inside" d="M329.3,357a69.4,69.4,0,0,0,37.5-11c-9.3-24.6-21.5-47.5-37.4-61.1-17.9-15.2-40.1-24.7-61.2-30.7A69.5,69.5,0,0,0,329.3,357Z"/>
</svg>
