<svg xmlns="http://www.w3.org/2000/svg" viewBox="0 0 500 500">
  <g id="member-intake-active">
    <path d="M352.31,101H210.16a9.62,9.62,0,0,1,0-19.23H352.31a9.62,9.62,0,0,1,0,19.23Z"/>
    <path d="M352.31,188.51H210.16a9.62,9.62,0,0,1,0-19.23H352.31a9.62,9.62,0,0,1,0,19.23Z"/>
    <path d="M194.48,363.47H67.33a9.62,9.62,0,0,1,0-19.24H194.48a9.62,9.62,0,0,1,0,19.24Z"/>
    <path d="M265.37,425.54H78.57a54.43,54.43,0,0,1-54.35-54.38V78.61A54.42,54.42,0,0,1,78.57,24.23h262.5a54.42,54.42,0,0,1,54.35,54.38V260.32a126.58,126.58,0,0,1,19.22,2.77V78.61A73.67,73.67,0,0,0,341.07,5H78.57A73.67,73.67,0,0,0,5,78.61V371.16a73.67,73.67,0,0,0,73.57,73.61H273.23A127.76,127.76,0,0,1,265.37,425.54Z"/>
    <g id="body">
      <path d="M163,192.45s-3.48-32.07-15.62-42.44S115,140,115,140s-20.32-.31-32.44,10-15.61,42.44-15.61,42.44C117.3,205.25,163,192.45,163,192.45Z"/>
    </g>
    <g id="head">
      <path d="M91.88,115A25.08,25.08,0,0,0,138,115h.05a25.32,25.32,0,0,0,2-9.83v-.09a25.32,25.32,0,0,0-2-9.83H138a25.11,25.11,0,0,0-46.15,0h0a25.32,25.32,0,0,0-2,9.83v.09a25.32,25.32,0,0,0,2,9.83Z"/>
    </g>
    <g>
      <polygon points="367.26 425.69 424.8 385.04 367.26 344.4 367.26 425.69"/>
      <path d="M386.87,278.65A108.18,108.18,0,1,0,495,386.82,108.15,108.15,0,0,0,386.87,278.65ZM439.3,398.34l-65.59,46.34A16.28,16.28,0,0,1,348,431.38V338.71a16.27,16.27,0,0,1,25.66-13.3l65.6,46.33a16.28,16.28,0,0,1,0,26.6Z"/>
    </g>
    <path d="M361.16,262.62a9.62,9.62,0,0,0-8.85-5.86h-285a9.62,9.62,0,0,0,0,19.23H325.07A126.18,126.18,0,0,1,361.16,262.62Z"/>
  </g>
</svg>
