<svg
  xmlns="http://www.w3.org/2000/svg"
  viewBox="0 0 500 500"
  width="500"
  height="500"
  fill="#ffffff"
>
  <path d="M443.7 328.3a51.4 51.4 0 0 0-49.6 38.3h-60.4a86.1 86.1 0 0 0-170.4.5H106a51.4 51.4 0 1 0 0 24.9h57.3a86.2 86.2 0 0 0 170.6-.4h60a51.3 51.3 0 1 0 49.8-63.3zM56.3 406a26.4 26.4 0 1 1 26.4-26.4A26.4 26.4 0 0 1 56.3 406zM298 354.5l-60.2 60.1a7.6 7.6 0 0 1-10.9 0l-31.8-31.8a7.6 7.6 0 0 1 0-10.9 7.7 7.7 0 0 1 10.9 0l26.3 26.3 54.7-54.7a7.8 7.8 0 0 1 11 11zM443.7 406a26.4 26.4 0 1 1 26.4-26.4 26.5 26.5 0 0 1-26.4 26.4z" />
  <polygon points="356.5 133.3 285.2 133.3 285.2 34.2 207.9 34.2 207.9 133.3 136.6 133.3 246.5 239.4 356.5 133.3" />
</svg>
