<svg xmlns="http://www.w3.org/2000/svg" viewBox="0 0 500 500">
  <g id="migration-split-pmt">
    <path d="M267.3,90.8a85.88,85.88,0,0,0-6.84-33.68h-.15a86.1,86.1,0,0,0-158.22,0H102A85.7,85.7,0,0,0,95.1,90.8s0,.1,0,.15,0,.1,0,.15A85.63,85.63,0,0,0,102,124.78h.14a86.1,86.1,0,0,0,158.22,0h.15A85.8,85.8,0,0,0,267.3,91.1v-.3Z"/>
    <path d="M460.19,420.77c0-48.21-.73-71.47-10.67-87.65-13.49-21.95-36.37-21.95-71.1-21.95-5,0-11.71-.77-15.2-4.4a14.7,14.7,0,0,1-3.46-8c.1-2,.08-3.53,0-4.51v-50h-.23v-.07h-39v50c0,1-.06,2.59.05,4.59-.35,2.28-1.2,5.6-3.35,7.92-3.46,3.73-10.24,4.52-15.44,4.52h-.19c-34.51,0-57.33,0-70.8,21.95-9.94,16.18-10.63,39.44-10.67,87.65H196.88L239.66,495l42.84-74.12H259.17c0-35,.46-60,4.91-67.24,2.05-3.34,20-3.36,37.6-3.36h.25c18.24,0,30.39-5.69,38.29-11.88,7.9,6.16,20,11.8,38.3,11.8,17.55,0,35.68,0,37.75,3.36,4.44,7.24,4.86,32.21,4.9,67.24H397.84l42.85,74.12,42.78-74.16Z"/>
    <path d="M197.57,312.77c20.49-33.35,52.57-39.28,83.95-40.32V221.21C239.73,193.92,181.2,194.8,181.2,194.8s-69.54-1.07-111.14,34.45S16.53,374.62,16.53,374.62c58.78,14.93,115.68,19.68,165.21,19.47C182.93,366.17,186.54,330.72,197.57,312.77Z"/>
  </g>
</svg>
