<svg xmlns="http://www.w3.org/2000/svg" viewBox="0 0 500 500">
  <g id="monthly">
    <path id="top-arrow" d="M115.8,115.8c42.6-42.6,99.6-62.7,152.5-55L250.1,95.6l102.1-4.4L297.4,5,278.2,41.7c-61.1-11.6-127.8,10.6-176.9,59.6-36.6,36.6-58.6,83.5-62.1,132s12.4,93.8,44.7,126.1l14.5-14.5c-28.1-28-41.8-67.2-38.8-110.2S82.7,148.9,115.8,115.8Z"/>
    <path id="bottom-arrow" d="M416.1,140.6l-14.5,14.5c28.1,28,41.8,67.2,38.8,110.2s-23.1,85.8-56.2,118.9c-42.6,42.6-99.6,62.7-152.5,55l18.1-34.8-102,4.4L202.6,495l19.2-36.7a175,175,0,0,0,32.3,3.1c51.6,0,104.1-22.2,144.6-62.7,36.6-36.6,58.6-83.5,62.1-132S448.4,172.9,416.1,140.6Z"/>
    <path id="calendar-outline" d="M188.9,356.1H309.5a45.8,45.8,0,0,0,45.8-45.8V189.7a45.8,45.8,0,0,0-45.8-45.8H298V123.6H277.6v20.3H222.4V123.6H201.9v20.3h-13a45.9,45.9,0,0,0-45.8,45.8V310.3A45.9,45.9,0,0,0,188.9,356.1ZM163.6,189.7a25.3,25.3,0,0,1,25.3-25.3H309.5a25.3,25.3,0,0,1,25.3,25.3V310.3a25.3,25.3,0,0,1-25.3,25.3H188.9a25.3,25.3,0,0,1-25.3-25.3Z"/>
    <path id="three" d="M206.6,275.5c-7.9,0-15.8-3.3-19.2-5.1l-4,14.5c4.8,3.1,13.9,5.9,24.6,5.9,21,0,33.8-10.7,33.8-25.4,0-10.8-8-18.3-17.9-20.1v-.2c10.2-3.6,15.1-10.5,15.1-19.2,0-11.4-9.8-20.7-27.5-20.7-10.7,0-20.6,3.1-25.5,6.3l3.9,14a37,37,0,0,1,17.3-5c8.2,0,12.2,3.7,12.2,8.7,0,7-8.2,9.4-14.7,9.5h-7.5v13.9H205c8.6,0,16.7,3.7,16.7,11.8C221.7,270.7,216.6,275.5,206.6,275.5Z"/>
    <polygon id="one" points="279 223.8 279.3 223.8 279.3 289.4 298 289.4 298 206.6 281.9 206.6 260 216.8 263.2 231.3 279 223.8"/>
  </g>
</svg>
