<svg xmlns="http://www.w3.org/2000/svg" viewBox="0 0 500 500" fill="#000000">
  <path
    d="M491.58 290.11a246.31 246.31 0 0 0 3.24-39.62c0-135.26-109.65-244.91-244.91-244.91S5 115.23 5 250.49a246.31 246.31 0 0 0 3.24 39.62z"
    fill="#ca99c5"
  />
  <path
    d="M12.53 310.23c26.91 106 123 184.49 237.38 184.49s210.47-78.46 237.38-184.49z"
    fill="#6666ad"
  />
  <path
    d="M495 239.05a244.44 244.44 0 0 0-10.48-60.84l-150.93 66.93a85.11 85.11 0 0 0-18.84-38.33l130.69-104.67a246.08 246.08 0 0 0-42.76-43.65L298.51 192.12A84.82 84.82 0 0 0 262.93 178L281.8 7.36a238.73 238.73 0 0 0-63.56.09l21.09 170.18a84.73 84.73 0 0 0-39.5 15.6L94.27 61.41a246.37 246.37 0 0 0-41.69 44l131.48 102.52a85 85 0 0 0-18 38.19L15.5 179.34a244.7 244.7 0 0 0-10.28 60l159.58 29.7a85.68 85.68 0 0 0 4.5 21.26h161.22a85.23 85.23 0 0 0 4.51-21.5z"
    fill="#faf39a"
  />
  <path
    d="M12.16 310.17h475c1.63-6.47 3-13.06 4.08-19.73H8.08c1.1 6.67 2.45 13.26 4.08 19.73z"
    fill="#fcf8cd"
  />
</svg>
