<svg
  xmlns="http://www.w3.org/2000/svg"
  viewBox="0 0 500 500"
  width="500"
  height="500"
  fill="#ffffff"
>
  <path d="M349.8 70.6h-.2a108.2 108.2 0 0 0-193.5-11.1l-28.8-28.8a19.6 19.6 0 0 0-27.7 27.7L135.2 94l-35.6 35.5a19.7 19.7 0 0 0 13.9 33.5 19.2 19.2 0 0 0 13.8-5.8l17.6-17.6a113.6 113.6 0 0 0 5.3 16.2h.2a108.3 108.3 0 0 0 199.2 0h.2a108.2 108.2 0 0 0 8.6-42.4v-.4a110.8 110.8 0 0 0-8.6-42.4zm-45.5 44H195.7a19.6 19.6 0 0 1 0-39.2h108.6a19.6 19.6 0 0 1 0 39.2z" />
  <path d="M390 287.4c-26.9-23-63.1-33.8-91.9-38.9l-48.4 83.7-48.2-83.6c-28.8 5.1-64.8 16-91.5 38.8-52.3 44.7-67.4 183.1-67.4 183.1 217.5 55.2 414.8 0 414.8 0s-15-138.4-67.4-183.1z" />
</svg>
