<svg xmlns="http://www.w3.org/2000/svg" viewBox="0 0 500 500">
  <g id="navbar-time">
    <path id="clock" d="M247.3,84.9C134,84.9,42.2,176.7,42.2,290S134,495,247.3,495s205-91.8,205-205S360.5,84.9,247.3,84.9Zm62.1,266.3a10,10,0,0,1-14.1,0l-58-58V207.5a10,10,0,0,1,20,0v77.4l52.1,52.2A10,10,0,0,1,309.4,351.2Z"/>
    <path id="top-button" d="M321,5H169.5a10,10,0,0,0,0,20h65.8V60.7h20V25H321a10,10,0,0,0,0-20Z"/>
    <path id="right-button" d="M453.1,160.1a10.1,10.1,0,0,1-7.1-2.9L377,88.3a10,10,0,0,1,14.2-14.2l68.9,69a10,10,0,0,1-7,17Z"/>
    <path id="left-button" d="M46.9,157a10,10,0,0,1-7-17.1L108.8,71A10,10,0,1,1,123,85.2L54,154.1A10.1,10.1,0,0,1,46.9,157Z"/>
  </g>
</svg>
