<svg xmlns="http://www.w3.org/2000/svg" viewBox="0 0 500 500">
  <g id="navbar-money">
    <path id="dollar-sign" d="M382.7,227.8A112.4,112.4,0,1,0,495,340.2,112.3,112.3,0,0,0,382.7,227.8Zm8.7,171.5V419h-19V400.6c-12.9-.5-25.5-4-32.8-8.3l5.8-22.6a67.5,67.5,0,0,0,32.1,8.5c11,0,18.5-4.2,18.5-12s-6.2-11.9-20.5-16.8c-20.6-6.9-34.7-16.6-34.7-35.3,0-17,11.9-30.3,32.6-34.4V261.3h18.9v17c13,.6,21.7,3.3,28.1,6.4l-5.7,21.9c-5-2.2-13.9-6.6-27.8-6.6s-16.6,5.4-16.6,10.8,6.8,10.4,23.2,16.6c23,8.1,32.3,18.8,32.3,36.1S413.6,395.4,391.4,399.3Z"/>
    <path id="coins" d="M253.2,356.1c-16.2-5.4-24.7-11.9-24.7-16.3V315.1a107.7,107.7,0,0,0,24.6,10.1,131.4,131.4,0,0,1,3.3-17.9c-18.2-5.5-27.9-12.6-27.9-17.3V265.4c10.1,5.9,23.6,10.4,39,13.5a122.5,122.5,0,0,1,10.4-16.4c-32.2-5.4-49.4-15.9-49.4-22.2V215.6c18.2,10.7,47.7,16.9,78.5,18.3A131.4,131.4,0,0,1,345.7,215c-7.7.7-15.9,1.1-24.9,1.1-59.7,0-92.3-16.9-92.3-25.5V166.2c20.8,12.2,56.7,18.5,92.3,18.5s71.5-6.3,92.3-18.5v24.4c0,5.2-12,13.4-34.7,19.1h4.3a129.5,129.5,0,0,1,48.6,9.5V190.8h-.1V141.1c0-28.7-55.6-43.7-110.5-43.7-37.1,0-74.6,6.9-94.9,20.2V91.2c0-28.7-55.6-43.7-110.5-43.7S5,62.5,5,91.2v49.7H5v49.8H5v49.7H5v49.8H5v49.5c0,28.6,55.6,43.6,110.4,43.6,42.6,0,85.5-9,102.7-26.4,8.1,8.3,22.1,14.7,39.2,19.2A133.8,133.8,0,0,1,253.2,356.1Zm67.6-240.6c59.7,0,92.3,16.9,92.3,25.6s-32.6,25.5-92.3,25.5-92.3-16.9-92.3-25.5S261.1,115.5,320.8,115.5ZM207.7,339.7c0,8.6-32.5,25.5-92.3,25.5s-92.3-16.9-92.3-25.5V315c20.9,12.3,56.7,18.6,92.3,18.6s71.5-6.3,92.3-18.6Zm0-49.8c0,8.7-32.5,25.6-92.3,25.6s-92.3-16.9-92.3-25.6V265.3c20.9,12.2,56.7,18.6,92.3,18.6s71.5-6.4,92.3-18.6Zm0-49.7c0,8.6-32.5,25.5-92.3,25.5s-92.3-16.9-92.3-25.5V215.5c20.9,12.3,56.7,18.6,92.3,18.6s71.5-6.3,92.3-18.6Zm0-49.8c0,8.7-32.5,25.6-92.3,25.6s-92.3-16.9-92.3-25.6V165.8C44,178,79.8,184.4,115.4,184.4s71.5-6.4,92.3-18.6Zm0-49.7c0,8.7-32.5,25.5-92.3,25.5s-92.3-16.8-92.3-25.5V116.3c20.9,12.3,56.7,18.6,92.3,18.6s71.5-6.3,92.3-18.6Zm-92.3-24c-59.7,0-92.3-16.8-92.3-25.5s32.6-25.6,92.3-25.6,92.3,16.9,92.3,25.6S175.2,116.7,115.4,116.7Z"/>
  </g>
</svg>
