<svg xmlns="http://www.w3.org/2000/svg" viewBox="0 0 500 500">
  <g id="navbar-admin">
    <path id="tower" d="M97.8,5V343.6H381.6V5Zm57.4,302.1H132V284h23.2ZM141.8,164.5V63.5a15.9,15.9,0,0,1,15.9-15.8H318a15.9,15.9,0,0,1,15.9,15.8v101A15.9,15.9,0,0,1,318,180.3H157.7A15.9,15.9,0,0,1,141.8,164.5Zm211.4,83.4v19.6h-57v-9.8H222.6V238.1H353.2Z"/>
    <path id="keyboard" d="M15.3,377.7V495H484.7V377.7Zm223.4,24.5h23.2v23.1H238.7Zm-62.7,0h23.2v23.1H176ZM73.8,470.5H50.6V447.3H73.8Zm0-45.2H50.6V402.2H73.8Zm62.7,45.2H113.3V447.3h23.2Zm0-45.2H113.3V402.2h23.2Zm188.2,45.2H176V447.3H324.7Zm0-45.2H301.5V402.2h23.2Zm62.7,45.2H364.2V447.3h23.2Zm0-45.2H364.2V402.2h23.2Zm62.7,45.2H426.9V447.3h23.2Zm0-45.2H426.9V402.2h23.2Z"/>
    <rect id="screen-line-bottom" x="185.4" y="102.2" width="104.9" height="19.6" transform="translate(-9.6 201) rotate(-45)"/>
    <rect id="screen-line-top" x="241.7" y="124.3" width="56.7" height="19.6" transform="translate(-15.7 230.2) rotate(-45)"/>
  </g>
</svg>
