<svg xmlns="http://www.w3.org/2000/svg" viewBox="0 0 500 500">
  <g id="navbar-notifications">
    <g id="notifications-2" data-name="notifications">
      <path id="bell-bottom" d="M438.9,353.8c-5.3-4.1-46.3-35.9-57.1-63.5A411.4,411.4,0,0,0,228.4,265,430.4,430.4,0,0,0,85.1,286.4c-8.5,30.2-58.9,67.8-58.9,67.8h.3A46.3,46.3,0,0,0,5,390.8C5.1,445.9,123.3,471,233.1,471a557.2,557.2,0,0,0,154.1-19.3c61-18.3,73.7-43.2,73.7-60.9A46.8,46.8,0,0,0,438.9,353.8ZM233,437.4h0c-128.2,0-194.3-32.6-194.2-46.6s66-46.5,194.1-46.5S427.1,377,427.1,390.9,361.1,437.4,233,437.4Z"/>
      <path id="bell-top" d="M227.9,231.2a474.6,474.6,0,0,1,150.6,22.1V243A146.1,146.1,0,0,0,249.1,97.8V92.9A16.9,16.9,0,0,0,232.3,76h-.1a16.9,16.9,0,0,0-16.8,16.9v5A146.2,146.2,0,0,0,86.1,243.1v7.4A493.1,493.1,0,0,1,227.9,231.2Z"/>
      <circle id="tongue" cx="232.3" cy="390.9" r="29.9"/>
    </g>
    <circle id="notification-status" cx="439.7" cy="84.2" r="55.3"/>
  </g>
</svg>
