<svg
  xmlns="http://www.w3.org/2000/svg"
  viewBox="0 0 500 500"
  width="500"
  height="500"
  fill="#ffffff"
>
  <path d="M218.7 325.5v-2.1h-9.3a99.8 99.8 0 0 1-69.9-170.5l11.4-10H86a81 81 0 0 0-.1 161.9h61.4a38.7 38.7 0 0 0-5.7 20.7v127.7a39.2 39.2 0 0 0 77.8 0z" />
  <path d="M410.1 180.8c27.8 0 50.7 16.3 50.7 37.1s-22.9 37.1-50.7 36.4z" />
  <path d="M494.3 226.1c0-102.5-17.9-213.4-59.9-213.4-18.6 0-32.8 19.7-44.2 58.6a340.8 340.8 0 0 1-111.3 77.1h-72.8a77.8 77.8 0 0 0-.7 155.5h72.8a420.2 420.2 0 0 1 113.4 84.8c7.8 24 17.8 41.7 30.6 47.4a24.9 24.9 0 0 0 10 2.1c42.1 0 62.1-110.3 62.1-212.1m-61.4 200.8c-27.7 0-50.6-90.5-49.9-202.2s23.5-201.4 51.4-201.4 50.6 90.4 49.9 202.1-22.9 201.5-51.4 201.5" />
</svg>
