<svg xmlns="http://www.w3.org/2000/svg" viewBox="0 0 500 500">
  <g id="navbar-notifications-empty">
    <path id="bell-bottom" d="M471.3,336.2c-5.7-4.4-49.8-38.5-61.3-68.2a443.7,443.7,0,0,0-164.9-27.2,462.7,462.7,0,0,0-154,23c-9.1,32.4-63.3,72.9-63.3,72.9h.3A49.6,49.6,0,0,0,5,375.9c.1,59.3,127.1,86.3,245.1,86.3a601.2,601.2,0,0,0,165.6-20.7C481.4,421.8,495,395,495,376A50.4,50.4,0,0,0,471.3,336.2ZM250,426h0C112.3,426.1,41.3,391,41.3,376s70.9-49.9,208.6-49.9,208.7,35,208.8,50S387.7,426.1,250,426Z"/>
    <path id="bell-top" d="M244.5,204.5a510.6,510.6,0,0,1,161.9,23.7V217.1a157.1,157.1,0,0,0-139-156V55.8a17.9,17.9,0,0,0-18-18.1h-.1a18.1,18.1,0,0,0-18.1,18.2v5.3a157,157,0,0,0-138.9,156v8A526.6,526.6,0,0,1,244.5,204.5Z"/>
    <circle id="tongue" cx="249.3" cy="376.1" r="32.1"/>
  </g>
</svg>
