<svg xmlns="http://www.w3.org/2000/svg" viewBox="0 0 500 500">
  <g id="navbar-messages">
    <g id="messages">
      <path id="top" d="M228.1,336.6l187-187.1a45.1,45.1,0,0,0-13.1-1.9H51.3a40.6,40.6,0,0,0-10.9,1.3Z"/>
      <path id="right" d="M444.7,463.3a46.6,46.6,0,0,0,3.5-17.7V193.8a47.2,47.2,0,0,0-5.4-21.8L298.2,316.7Z"/>
      <path id="left" d="M156.5,315.2l-145-145A45.2,45.2,0,0,0,5,193.7V445.6a46.6,46.6,0,0,0,3.5,17.7Z"/>
      <path id="bottom" d="M273.1,341.7,228,386.8l-46.5-46.5L33.6,488.3a46.4,46.4,0,0,0,17.6,3.5H402a45.7,45.7,0,0,0,17.6-3.5Z"/>
    </g>
    <circle id="notification-status" cx="436.2" cy="67" r="58.8"/>
  </g>
</svg>
