<svg xmlns="http://www.w3.org/2000/svg" viewBox="0 0 500 500">
  <g id="navbar-people">
    <circle id="head5" cx="449.3" cy="69.5" r="39.3"/>
    <circle id="head4" cx="349.6" cy="115.4" r="39.3"/>
    <circle id="head3" cx="250" cy="156.6" r="39.3"/>
    <circle id="head2" cx="150.4" cy="115.4" r="39.3"/>
    <circle id="head1" cx="50.7" cy="69.5" r="39.3"/>
    <path id="body5" d="M449.3,132a45.8,45.8,0,0,0-45.8,45.7v2.2a64.8,64.8,0,0,1,11.9,37.5v73.9a34.1,34.1,0,0,0,3.8,3.8v87.6h60.1V295.1A45.3,45.3,0,0,0,495,260.7v-83A45.8,45.8,0,0,0,449.3,132Z"/>
    <path id="body4" d="M349.6,177.9a45.8,45.8,0,0,0-45.7,45.7v2.2a64.8,64.8,0,0,1,11.9,37.5v74a33.2,33.2,0,0,0,3.8,3.7v87.6h60.1V341a45.3,45.3,0,0,0,15.7-34.4v-83A45.8,45.8,0,0,0,349.6,177.9Z"/>
    <path id="body3" d="M250,219.1a45.7,45.7,0,0,0-45.7,45.8v82.9a45.9,45.9,0,0,0,15.6,34.5v87.5h60.2V382.3a45.9,45.9,0,0,0,15.6-34.5V264.9A45.7,45.7,0,0,0,250,219.1Z"/>
    <path id="body2" d="M184.2,264.9a65.2,65.2,0,0,1,11.9-37.6v-3.7a45.8,45.8,0,0,0-91.5,0v83A45.3,45.3,0,0,0,120.3,341v87.6h60.1V341a33.2,33.2,0,0,0,3.8-3.7Z"/>
    <path id="body1" d="M84.6,218.9a64.8,64.8,0,0,1,11.9-37.5v-3.7a45.8,45.8,0,0,0-91.5,0v83a45.3,45.3,0,0,0,15.7,34.4v87.6H80.8V295.1a34.1,34.1,0,0,0,3.8-3.8Z"/>
  </g>
</svg>
