<svg
  xmlns="http://www.w3.org/2000/svg"
  viewBox="0 0 500 500"
  width="500"
  height="500"
  fill="#ffffff"
>
  <path d="M251.6 268.7L458.4 61.9a51 51 0 0 0-14.5-2.2H56.2a50.1 50.1 0 0 0-12.1 1.5z" />
  <path d="M491.1 408.8a50.7 50.7 0 0 0 3.9-19.5V110.8a51.8 51.8 0 0 0-6-24.1l-159.9 160z" />
  <path d="M172.5 245.1L12.2 84.7a50.9 50.9 0 0 0-7.2 26v278.6a50.7 50.7 0 0 0 3.9 19.5z" />
  <path d="M301.4 274.4l-49.8 49.8-51.4-51.4L36.6 436.4a50.3 50.3 0 0 0 19.5 3.9h387.8a50.3 50.3 0 0 0 19.5-3.9z" />
</svg>
