<svg
  xmlns="http://www.w3.org/2000/svg"
  viewBox="0 0 500 500"
  width="500"
  height="500"
  fill="#000000"
>
  <circle cx="449.3" cy="69.5" r="39.3" />
  <circle cx="349.6" cy="115.4" r="39.3" />
  <circle cx="250" cy="156.6" r="39.3" />
  <circle cx="150.4" cy="115.4" r="39.3" />
  <circle cx="50.7" cy="69.5" r="39.3" />
  <path d="M449.3 132a45.8 45.8 0 0 0-45.8 45.7v2.2a64.8 64.8 0 0 1 11.9 37.5v73.9a34.1 34.1 0 0 0 3.8 3.8v87.6h60.1v-87.6a45.3 45.3 0 0 0 15.7-34.4v-83a45.8 45.8 0 0 0-45.7-45.7z" />
  <path d="M349.6 177.9a45.8 45.8 0 0 0-45.7 45.7v2.2a64.8 64.8 0 0 1 11.9 37.5v74a33.2 33.2 0 0 0 3.8 3.7v87.6h60.1V341a45.3 45.3 0 0 0 15.7-34.4v-83a45.8 45.8 0 0 0-45.8-45.7z" />
  <path d="M250 219.1a45.7 45.7 0 0 0-45.7 45.8v82.9a45.9 45.9 0 0 0 15.6 34.5v87.5h60.2v-87.5a45.9 45.9 0 0 0 15.6-34.5v-82.9a45.7 45.7 0 0 0-45.7-45.8z" />
  <path d="M184.2 264.9a65.2 65.2 0 0 1 11.9-37.6v-3.7a45.8 45.8 0 0 0-91.5 0v83a45.3 45.3 0 0 0 15.7 34.4v87.6h60.1V341a33.2 33.2 0 0 0 3.8-3.7z" />
  <path d="M84.6 218.9a64.8 64.8 0 0 1 11.9-37.5v-3.7a45.8 45.8 0 0 0-91.5 0v83a45.3 45.3 0 0 0 15.7 34.4v87.6h60.1v-87.6a34.1 34.1 0 0 0 3.8-3.8z" />
</svg>
