<svg
  xmlns="http://www.w3.org/2000/svg"
  viewBox="0 0 500 500"
  width="500"
  height="500"
  fill="#000000"
>
  <g data-name="notifications">
    <path d="M438.9 353.8c-5.3-4.1-46.3-35.9-57.1-63.5A411.4 411.4 0 0 0 228.4 265a430.4 430.4 0 0 0-143.3 21.4c-8.5 30.2-58.9 67.8-58.9 67.8h.3A46.3 46.3 0 0 0 5 390.8c.1 55.1 118.3 80.2 228.1 80.2a557.2 557.2 0 0 0 154.1-19.3c61-18.3 73.7-43.2 73.7-60.9a46.8 46.8 0 0 0-22-37zM233 437.4c-128.2 0-194.3-32.6-194.2-46.6s66-46.5 194.1-46.5 194.2 32.7 194.2 46.6-66 46.5-194.1 46.5z" />
    <path d="M227.9 231.2a474.6 474.6 0 0 1 150.6 22.1V243A146.1 146.1 0 0 0 249.1 97.8v-4.9A16.9 16.9 0 0 0 232.3 76h-.1a16.9 16.9 0 0 0-16.8 16.9v5A146.2 146.2 0 0 0 86.1 243.1v7.4a493.1 493.1 0 0 1 141.8-19.3z" />
    <circle cx="232.3" cy="390.9" r="29.9" />
  </g>
  <circle cx="439.7" cy="84.2" r="55.3" />
</svg>
