<svg
  xmlns="http://www.w3.org/2000/svg"
  viewBox="0 0 500 500"
  width="500"
  height="500"
  fill="#000000"
>
  <path d="M247.3 84.9C134 84.9 42.2 176.7 42.2 290S134 495 247.3 495s205-91.8 205-205-91.8-205.1-205-205.1zm62.1 266.3a10 10 0 0 1-14.1 0l-58-58v-85.7a10 10 0 0 1 20 0v77.4l52.1 52.2a10 10 0 0 1 0 14.1z" />
  <path d="M321 5H169.5a10 10 0 0 0 0 20h65.8v35.7h20V25H321a10 10 0 0 0 0-20z" />
  <path d="M453.1 160.1a10.1 10.1 0 0 1-7.1-2.9l-69-68.9a10 10 0 0 1 14.2-14.2l68.9 69a10 10 0 0 1-7 17z" />
  <path d="M46.9 157a10 10 0 0 1-7-17.1L108.8 71A10 10 0 1 1 123 85.2l-69 68.9a10.1 10.1 0 0 1-7.1 2.9z" />
</svg>
