<svg xmlns="http://www.w3.org/2000/svg" viewBox="0 0 500 500">
  <g id="navbar-profile">
    <path id="head" d="M349.8,70.6h-.2A108.2,108.2,0,0,0,156.1,59.5L127.3,30.7A19.6,19.6,0,0,0,99.6,58.4L135.2,94,99.6,129.5A19.7,19.7,0,0,0,113.5,163a19.2,19.2,0,0,0,13.8-5.8l17.6-17.6a113.6,113.6,0,0,0,5.3,16.2h.2a108.3,108.3,0,0,0,199.2,0h.2a108.2,108.2,0,0,0,8.6-42.4V113A110.8,110.8,0,0,0,349.8,70.6Zm-45.5,44H195.7a19.6,19.6,0,0,1,0-39.2H304.3a19.6,19.6,0,0,1,0,39.2Z"/>
    <path id="body" d="M390,287.4c-26.9-23-63.1-33.8-91.9-38.9l-48.4,83.7-48.2-83.6c-28.8,5.1-64.8,16-91.5,38.8C57.7,332.1,42.6,470.5,42.6,470.5c217.5,55.2,414.8,0,414.8,0S442.4,332.1,390,287.4Z"/>
  </g>
</svg>
