<svg xmlns="http://www.w3.org/2000/svg" viewBox="0 0 500 500">
  <g id="new-expense">
    <rect x="19.69" y="213.37" width="469.15" height="212.46" rx="12" style="fill: #cccbcb"/>
    <path d="M454,439.06H46.36a41.06,41.06,0,0,1-41-41v-163a41.06,41.06,0,0,1,41-41H454a41.06,41.06,0,0,1,41,41V398A41.06,41.06,0,0,1,454,439.06ZM46.36,214.56a20.53,20.53,0,0,0-20.51,20.51V398a20.53,20.53,0,0,0,20.51,20.51H454A20.53,20.53,0,0,0,474.49,398v-163A20.53,20.53,0,0,0,454,214.56Z" style="fill: #666667"/>
    <path d="M454,390.7H46.36a41.06,41.06,0,0,1-41-41V249.15a41.06,41.06,0,0,1,41-41H454a41.06,41.06,0,0,1,41,41V349.68A41.06,41.06,0,0,1,454,390.7Zm-407.62-162a20.53,20.53,0,0,0-20.51,20.5V349.68a20.53,20.53,0,0,0,20.51,20.51H454a20.53,20.53,0,0,0,20.51-20.51V249.15A20.53,20.53,0,0,0,454,228.65Z" style="fill: #666667"/>
    <rect x="19.35" y="68.27" width="469.15" height="256.92" rx="38.98" style="fill: #cccbcb"/>
    <path d="M349.11,202.27a96.55,96.55,0,1,1-29.58-69.55A96.56,96.56,0,0,1,349.11,202.27Z" style="fill: #fff"/>
    <path d="M258.83,259.2V245c16.05-2.8,24.84-13.4,24.84-25.82s-6.7-20.23-23.3-26.09c-11.86-4.47-16.75-7.4-16.75-12,0-3.91,2.93-7.82,12-7.82,10,0,16.46,3.21,20.09,4.74l4-15.77c-4.6-2.23-10.88-4.18-20.23-4.6V145.33H245.86v13.26c-14.94,2.92-23.59,12.56-23.59,24.84,0,13.53,10.19,20.51,25.12,25.54,10.33,3.48,14.79,6.83,14.79,12.14,0,5.58-5.44,8.65-13.39,8.65a49.14,49.14,0,0,1-23.17-6.15l-4.19,16.33c5.3,3.08,14.37,5.59,23.73,6V259.2Z" style="fill: #666667"/>
    <path d="M453.64,338.42H46a41.06,41.06,0,0,1-41-41V206.27a10.26,10.26,0,1,1,20.51,0V297.4A20.53,20.53,0,0,0,46,317.91H453.64a20.53,20.53,0,0,0,20.51-20.51V102a20.53,20.53,0,0,0-20.51-20.5H146.23a10.26,10.26,0,1,1,0-20.51H453.64a41.06,41.06,0,0,1,41,41V297.4A41.06,41.06,0,0,1,453.64,338.42Z" style="fill: #666667"/>
    <path d="M96.71,123.33a27,27,0,1,1-8.27-19.44A27,27,0,0,1,96.71,123.33Z" style="fill: #666667"/>
    <path d="M96.71,271.8a27,27,0,1,1-8.27-19.44A27,27,0,0,1,96.71,271.8Z" style="fill: #666667"/>
    <path d="M457,123.33a27,27,0,1,1-8.26-19.44A27,27,0,0,1,457,123.33Z" style="fill: #666667"/>
    <path d="M457,271.8a27,27,0,1,1-8.26-19.44A27,27,0,0,1,457,271.8Z" style="fill: #666667"/>
    <path d="M116.07,71.38a10.44,10.44,0,1,1-3.2-7.52A10.44,10.44,0,0,1,116.07,71.38Z" style="fill: #666667"/>
  </g>
</svg>
