<svg xmlns="http://www.w3.org/2000/svg" viewBox="0 0 500 500">
  <g id="new-reimbursement">
    <g id="left-cuff">
      <path d="M136.76,440.55,82.69,472,17,358.91l36.26-21.08a21,21,0,0,1,28.44,7.44l55.1,95.28" style="fill: #cccbcb"/>
    </g>
    <g id="left-hand">
      <path d="M484.11,324.25a25.69,25.69,0,0,0-14.79-46.69,25,25,0,0,0-15.52,5.51l-.07-.12-1,.6c-8.54,6.84-79.28,64.86-83.26,67.36H300.58A11,11,0,0,1,292,341c-.87-8.42,8.46-14.67,8.46-14.67l58.66.11A25.83,25.83,0,1,0,363.79,275c-.57-.05-1.15-.08-1.72-.1l-2.86,0L232.09,275a53.64,53.64,0,0,0-23,7.95c-11.09,7.14-44,36.83-44,36.83l-44.17,26.59L160.74,414l4.27-3.09L239.52,412l116,1.79s12.66.42,22.78-5.54S471.93,334.16,484.11,324.25Z" style="fill: #666667"/>
    </g>
    <g id="left-cuff-2" data-name="left-cuff">
      <path d="M84.56,486.81a10.57,10.57,0,0,1-2.67-.34,10.44,10.44,0,0,1-6.37-4.86L6.42,362.75A10.46,10.46,0,1,1,24.5,352.24L88.35,462.06l38.77-22.54-52.7-91.13a11.62,11.62,0,0,0-15.64-4,10.46,10.46,0,0,1-10.41-18.15,32.66,32.66,0,0,1,44.08,11.53l58,100.29a10.44,10.44,0,0,1-3.8,14.27l-56.83,33A10.53,10.53,0,0,1,84.56,486.81Z" style="fill: #666667"/>
    </g>
    <circle cx="95.29" cy="437.39" r="8.47" style="fill: #666667"/>
    <path d="M86.63,215.92a10.46,10.46,0,0,1-8.45-4.28L48.07,170.52A10.46,10.46,0,1,1,65,158.16l30.11,41.12a10.47,10.47,0,0,1-8.43,16.64Z" style="fill: #666667"/>
    <path d="M440.06,215.35a10.47,10.47,0,0,1-8.19-16.95l31.6-40a10.46,10.46,0,1,1,16.41,13l-31.6,40A10.47,10.47,0,0,1,440.06,215.35Z" style="fill: #666667"/>
    <rect x="147.74" y="22.61" width="239.75" height="131.3" rx="29.98" style="fill: #cccbcb"/>
    <g>
      <path d="M308.22,88.26A40.61,40.61,0,1,1,295.78,59,40.6,40.6,0,0,1,308.22,88.26Z" style="fill: #fff"/>
      <path d="M271.23,121.14V112.7c9.52-1.66,14.73-8,14.73-15.31s-4-12-13.82-15.48c-7-2.65-9.94-4.39-9.94-7.12,0-2.32,1.74-4.63,7.12-4.63A27.46,27.46,0,0,1,281.24,73l2.4-9.35a29.53,29.53,0,0,0-12-2.73V53.6h-8.11v7.87c-8.86,1.73-14,7.45-14,14.73,0,8,6,12.17,14.9,15.15,6.13,2.06,8.77,4.05,8.77,7.2,0,3.31-3.22,5.13-7.94,5.13A29.13,29.13,0,0,1,251.53,100l-2.48,9.69c3.14,1.82,8.52,3.31,14.07,3.56v7.86Z" style="fill: #666667"/>
    </g>
    <path d="M359.35,165.4H175.19a38.3,38.3,0,0,1-38.25-38.26V92.65a10.46,10.46,0,1,1,20.91,0v34.49a17.36,17.36,0,0,0,17.34,17.34H359.35a17.36,17.36,0,0,0,17.34-17.34V51.44A17.36,17.36,0,0,0,359.35,34.1h-145a10.46,10.46,0,1,1,0-20.91h145a38.3,38.3,0,0,1,38.26,38.25v75.7A38.31,38.31,0,0,1,359.35,165.4Z" style="fill: #666667"/>
    <path d="M192.46,122a11.86,11.86,0,1,1-3.63-8.53A11.85,11.85,0,0,1,192.46,122Z" style="fill: #666667"/>
    <path d="M365.79,122a11.86,11.86,0,1,1-3.63-8.53A11.84,11.84,0,0,1,365.79,122Z" style="fill: #666667"/>
    <path d="M192.46,53.09a11.84,11.84,0,1,1-3.63-8.53A11.85,11.85,0,0,1,192.46,53.09Z" style="fill: #666667"/>
    <path d="M365.79,53.09a11.84,11.84,0,1,1-3.63-8.53A11.84,11.84,0,0,1,365.79,53.09Z" style="fill: #666667"/>
  </g>
</svg>
