<svg
  xmlns="http://www.w3.org/2000/svg"
  viewBox="0 0 500 500"
  width="500"
  height="500"
  fill="#ffffff"
>
  <path d="M146.18 452.58L96.6 481.4 36.33 377.73l33.25-19.33a19.22 19.22 0 0 1 26.07 6.82l50.53 87.36" />
  <path d="M464.65 346a23.56 23.56 0 0 0-13.56-42.81 23 23 0 0 0-14.24 5.05l-.06-.1-.92.54c-7.83 6.28-72.69 59.47-76.34 61.76h-63.16a10 10 0 0 1-7.86-9.11c-.8-7.72 7.76-13.46 7.76-13.46l53.78.11a23.68 23.68 0 1 0 4.28-47.17c-.52 0-1.05-.07-1.58-.09h-2.62l-116.55.08a49.16 49.16 0 0 0-21.11 7.3c-10.16 6.54-40.35 33.76-40.35 33.76l-40.5 24.38 36.54 62 3.91-2.83 68.32 1 106.32 1.65s11.61.38 20.88-5.08S453.48 355 464.65 346z" />
  <path d="M98.31 495a9.75 9.75 0 0 1-2.45-.32 9.54 9.54 0 0 1-5.86-4.45l-63.36-109a9.59 9.59 0 1 1 16.58-9.64l58.56 100.71 35.56-20.67L89 368.08a10.65 10.65 0 0 0-14.34-3.65 9.59 9.59 0 0 1-9.53-16.64 30 30 0 0 1 40.41 10.57l53.18 91.95a9.59 9.59 0 0 1-3.48 13.09l-52.11 30.3a9.62 9.62 0 0 1-4.82 1.3z" />
  <path d="M313.72 71.43A325.21 325.21 0 0 1 264.1 67a324.68 324.68 0 0 1-49.5 4.44c-27.45 0-44.67-5.31-52.74-16.23-3.79-5-9.06-15.9-1-31.7A32.64 32.64 0 0 1 183 6.2c14.58-3.61 33.95.91 59.06 13.85 7.5 3.95 14.94 8.21 22.04 12.82 7.15-4.61 14.54-8.9 22.06-12.81 6-3.1 12.42-6.3 18.49-8.77a9.59 9.59 0 1 1 7.21 17.77c-5.37 2.18-11.29 5.15-16.89 8-7.05 3.66-14 7.71-20.74 12.06a304 304 0 0 0 39.61 3.09c28.6 0 35.62-6.47 37.08-8.45.55-.72 1.2-1.58.91-4.16a9.59 9.59 0 1 1 19.06-2.16 24 24 0 0 1-4.62 17.82c-8 10.86-25.21 16.17-52.55 16.17zM193.33 24.2a24.85 24.85 0 0 0-5.93.65 13.78 13.78 0 0 0-9.38 7.3c-2.58 5-2.83 8.88-.8 11.56 1.53 2.07 8.54 8.54 37.26 8.54A303.57 303.57 0 0 0 254 49.16c-6.73-4.35-13.69-8.4-20.77-12.08C213.65 27 201.16 24.2 193.33 24.2z" />
  <circle cx="108.15" cy="449.69" r="7.77" />
  <rect x="174.46" y="131.97" width="177.46" height="119.19" />
  <rect x="162.18" y="94.23" width="202.05" height="37.78" />
  <circle cx="339.66" cy="14.82" r="9.33" />
  <path d="M356.83 85.11H223a9.59 9.59 0 0 0 0 19.18h10.53v140.58h-44.59a.42.42 0 0 1-.42-.42v-101a9.6 9.6 0 0 0-9.38-11.57h-11.47a.42.42 0 0 1-.43-.42v-26.7a.42.42 0 0 1 .43-.42h6.75a9.59 9.59 0 0 0 0-19.18h-6.75a19.62 19.62 0 0 0-19.6 19.6v26.7a19.63 19.63 0 0 0 19.6 19.6h1.67v93.44a19.63 19.63 0 0 0 19.6 19.6h146.62a19.63 19.63 0 0 0 19.6-19.6V151h1.67a19.63 19.63 0 0 0 19.6-19.6v-26.7a19.62 19.62 0 0 0-19.6-19.59zm.42 46.3a.42.42 0 0 1-.42.42h-11.47a9.53 9.53 0 0 0-9.36 11.55v101.07a.42.42 0 0 1-.42.42h-43.31V104.29h64.56a.42.42 0 0 1 .42.42z" />
  <path d="M100.2 246.62a9.57 9.57 0 0 1-7.74-3.93L64.86 205a9.59 9.59 0 0 1 15.47-11.33l27.6 37.7a9.59 9.59 0 0 1-7.73 15.26z" />
  <path d="M424.26 246.1a9.59 9.59 0 0 1-7.51-15.54l29-36.65a9.59 9.59 0 1 1 15 11.89l-29 36.65a9.55 9.55 0 0 1-7.49 3.65z" />
</svg>
