<svg
  xmlns="http://www.w3.org/2000/svg"
  viewBox="0 0 500 500"
  width="500"
  height="500"
  fill="#000000"
>
  <path d="M472.46 262.56C472.46 385.42 372.86 485 250 485S27.54 385.42 27.54 262.56 127.14 40.1 250 40.1a222.46 222.46 0 0 1 222.46 222.46z" />
  <path d="M161.48 466.68C48.78 417.75-2.93 286.73 46 174S225.94 9.63 338.64 58.55" />
  <path d="M351.31 53.31L362.13 5 250 40.1l86.45 79.57 10.36-46.29a211.49 211.49 0 0 1 115.66 189.18C462.47 379.71 367.16 475 250 475S37.53 379.71 37.53 262.56a10 10 0 1 0-20 0C17.56 390.73 121.83 495 250 495s232.44-104.27 232.44-232.44A231.36 231.36 0 0 0 351.31 53.31z" />
  <path d="M264.46 393.73V361c37-6.44 57.24-30.88 57.24-59.49 0-28.95-15.44-46.61-53.7-60.12-27.33-10.3-38.59-17.05-38.59-27.65 0-9 6.77-18 27.67-18 23.14 0 37.94 7.39 46.29 10.93l9.32-36.34c-10.6-5.14-25.08-9.64-46.62-10.6v-28.35h-31.5v30.54c-34.41 6.74-54.34 29-54.34 57.23 0 31.18 23.46 47.26 57.87 58.85 23.79 8 34.07 15.73 34.07 28 0 12.87-12.52 19.94-30.85 19.94-20.9 0-39.87-6.75-53.39-14.16l-9.63 37.63c12.2 7.08 33.1 12.87 54.67 13.83v30.53z" />
  <path d="M40.37 225.53a9.73 9.73 0 1 1-3-7 9.73 9.73 0 0 1 3 7z" />
</svg>
