<svg id="no-items-found" xmlns="http://www.w3.org/2000/svg" viewBox="0 0 500 500">
  <defs>
    <style>
      .cls-1 {
        fill: #e2e2e2;
      }

      .cls-2 {
        fill: #cccbcb;
      }

      .cls-3 {
        fill: #fff;
      }

      .cls-4 {
        fill: #666667;
      }
    </style>
  </defs>
  <circle id="backdrop" class="cls-1" cx="250" cy="250" r="245"/>
  <g id="no-items-found-box">
    <path class="cls-2" d="M382.81,161.9l36.56,60.32L382.74,240s.72,94.86,0,95.4S254.35,379,254.35,379l-3-158.33Z"/>
    <polyline class="cls-3" points="259 209.44 370.11 163.4 259.36 124.29 259 209.44"/>
    <polygon class="cls-2" points="260.03 215.4 260.03 118.33 125.45 167.43 251.03 215.4 260.03 215.4"/>
    <path class="cls-3" d="M406.27,226.94a5.52,5.52,0,0,1-4.79-2.76L386,197.53a5.54,5.54,0,0,1,9.58-5.56l15.45,26.66a5.53,5.53,0,0,1-4.79,8.31Z"/>
    <polygon class="cls-3" points="123.34 244.98 123.34 332.87 252.92 380.03 251.54 221.22 114.39 168.66 84.41 223.9 123.34 244.98"/>
    <path class="cls-4" d="M424.17,219.68,390.4,160.25h0a5.55,5.55,0,0,0-3-2.49L254.77,111a5.52,5.52,0,0,0-3.72,0L113.61,160.45a5.49,5.49,0,0,0-2.89,2.42h0L75.87,222.35a5.52,5.52,0,0,0,2.92,8l34.66,12.36V335a5.54,5.54,0,0,0,3.64,5.21L251,389a5.37,5.37,0,0,0,3.76,0h0l132.66-47.7a5.53,5.53,0,0,0,3.67-5.21V239.51l30.26-11.94a5.56,5.56,0,0,0,2.78-7.89ZM252.94,122.1l117.17,41.3L251,212.75,131.24,165.88ZM117.87,172.54l125.19,49-26.63,46.16L88.8,222.18ZM380.05,332.19,258.46,375.91V296.42a5.54,5.54,0,0,0-11.07,0v79.45L124.52,331.13V246.67l92.54,33a5.46,5.46,0,0,0,1.85.32,5.54,5.54,0,0,0,4.8-2.77l27.66-47.93,31.51,48.19a5.53,5.53,0,0,0,6.67,2.12l90.5-35.72Zm-90.37-64.55-30.32-46.36L383.19,170l28.2,49.64Z"/>
    <path class="cls-3" d="M380.56,180.25a5.51,5.51,0,0,1-3.9-1.64,4.23,4.23,0,0,1-.69-.83,5.17,5.17,0,0,1-.52-.95,6.84,6.84,0,0,1-.31-1,5.65,5.65,0,0,1-.11-1.08,5.76,5.76,0,0,1,.11-1.09,6.11,6.11,0,0,1,.31-1,4.59,4.59,0,0,1,.52-1,4.35,4.35,0,0,1,.69-.85,5.53,5.53,0,0,1,7.82,0,4.75,4.75,0,0,1,.69.85,5.12,5.12,0,0,1,.52,1,7.2,7.2,0,0,1,.31,1,5.76,5.76,0,0,1,.11,1.09,5.58,5.58,0,0,1-5.55,5.54Z"/>
    <path class="cls-4" d="M394.16,149.23a5.55,5.55,0,0,1-3.92-9.46l16.44-16.43a5.54,5.54,0,1,1,7.83,7.83L398.07,147.6A5.53,5.53,0,0,1,394.16,149.23Z"/>
    <path class="cls-4" d="M370.22,142.76a5.54,5.54,0,0,1-5.54-5.54V124.39a5.54,5.54,0,0,1,11.08,0v12.83A5.54,5.54,0,0,1,370.22,142.76Z"/>
  </g>
</svg>
