<svg xmlns="http://www.w3.org/2000/svg" viewBox="0 0 500 500">
  <g id="no-members-color">
    <path id="body" d="M370.18,294.29c-44.42-37.89-115.8-37.22-118.6-37.23-3,0-74.59-.66-118.94,37.23s-57,148.52-57.52,153.2l-1,9.37,9.13,2.32c59.29,15.05,116.4,20.07,166.24,20.07,96.76,0,166.07-18.93,170.38-20.14l8.86-2.47-1-9.15C427.21,442.81,414.77,332.32,370.18,294.29Z" style="fill: #989898"/>
    <circle id="head" cx="251.44" cy="117.96" r="95.05" style="fill: #989898"/>
    <path id="head-highlight" d="M182.75,176.76c-35-112.7,104-147,104-147a95,95,0,1,0-70.59,176.5Z" style="fill: #cccbcb"/>
    <path id="body-highlight" d="M80.58,409.84l8.09,0S161.25,305,331.72,271.76c3.35-.66-140.88-8.66-191.58,27.58" style="fill: #cccbcb"/>
    <path id="body-outline" d="M247.7,495c-39,0-81.31-1.07-125.72-8.83a18.2,18.2,0,0,1,6.27-35.86c41.68,7.28,82,8.28,119.45,8.28,77.56,0,136.57-12.76,155.42-17.38-4.47-33.36-19.65-106.25-49.18-131.44C317.45,278.64,257,277.71,250,277.71a3.2,3.2,0,0,1-.45,0c-6.3,0-67.7.79-104.27,32.05-17.93,15.32-33.2,49.44-43,96.07a18.21,18.21,0,0,1-35.63-7.5c11.77-56,30.27-95.13,55-116.25,47.08-40.22,120.14-40.73,128.26-40.77H250c13.58,0,82.17,2,127.61,40.76,48.19,41.1,61.22,149.49,62.55,161.71l2.63,24.29-23.52,6.57C416.26,475.46,345.37,495,247.7,495Z" style="fill: #333"/>
    <path id="head-outline" d="M249.71,231.67A113.38,113.38,0,0,1,183,210l-6.85-5.22a112.8,112.8,0,0,1-27.85-35.65,114.15,114.15,0,0,1-11.9-43.91,18.21,18.21,0,0,1,36.34-2.33,78.18,78.18,0,0,0,26.67,53.88l5.31,4a76.93,76.93,0,0,0,121.93-61.19l0-6.33a76.75,76.75,0,0,0-8-29.18A78,78,0,0,0,300,59.87l-5.31-4a76.86,76.86,0,0,0-49.33-14.33,18.2,18.2,0,1,1-2.09-36.34A113.39,113.39,0,0,1,316.32,26.6l6.91,5.26A114.35,114.35,0,0,1,363,111.44l0,1.07,0,7.22a113.19,113.19,0,0,1-106.6,111.74Q253.07,231.67,249.71,231.67Z" style="fill: #333"/>
    <circle id="outline-circle" cx="76.45" cy="455.47" r="19.19" style="fill: #333"/>
    <path id="question-mark" d="M234.29,391.65l-.19-5.08c-.59-10,2.73-20.14,11.53-30.69,6.25-7.43,11.34-13.69,11.34-20.33,0-6.84-4.5-11.34-14.27-11.73a37,37,0,0,0-19.35,5.86l-6.65-21.3c7-4.11,18.77-8,32.64-8,25.81,0,37.53,14.27,37.53,30.49,0,14.85-9.19,24.63-16.61,32.84-7.23,8-10.17,15.63-10,24.43v3.52Zm-5.08,27c0-10.36,7.23-17.78,17.4-17.78,10.55,0,17.39,7.42,17.59,17.78,0,10.16-7,17.79-17.59,17.79C236.25,436.41,229.21,428.78,229.21,418.62Z" style="fill: #333"/>
  </g>
</svg>
