<svg
  xmlns="http://www.w3.org/2000/svg"
  viewBox="0 0 500 500"
  width="500"
  height="500"
  fill="#ffffff"
>
  <path d="M73.4 331.5a14.3 14.3 0 0 0 0 28.6h112.3a14.3 14.3 0 0 0 0-28.6z" />
  <path d="M250 260.5H73.4a14.3 14.3 0 0 0 0 28.6h172.1z" />
  <path d="M261.1 189.6H73.4a14.3 14.3 0 0 0 0 28.6h183.2z" />
  <path d="M323.2 419.6H33.6V130h287l21.7-21.7a27.6 27.6 0 0 0-18.3-6.9H32.8A27.8 27.8 0 0 0 5 129.2v291.2a27.9 27.9 0 0 0 27.8 27.8H324a27.9 27.9 0 0 0 27.8-27.8V286l-28.6 4.5z" />
  <path d="M429.6 51.8l-.4.4-12.6 12.7-54.7 54.7h-.1L304.4 177l-10.9 10.8-2.3 2.3-10.8 10.8-12.1 77.5 77.5-12.1 10.8-10.8 2.3-2.3 10.8-10.9 11.9-11.8 100.3-100.2 12.7-12.7.4-.4c-16.3-54.6-65.4-65.4-65.4-65.4zM307.1 252.1c-1.3-8.7-7.1-11.8-12.5-12.6l4.8-30.9a94.1 94.1 0 0 1 38.6 38.7zm44.2-17.5a97.2 97.2 0 0 0-10.4-15.7l20.2-20.2 22.3-22.3-13.1-13.1-23.6 23.7-18.9 18.9a103.3 103.3 0 0 0-15.7-10.6l16.9-16.8h.1l41.3-41.4 39.2 39.2zm71.4-71.2l-39.2-39.3 13-13 39.3 39.2zm26.1-26.2L409.6 98l25.6-25.6a93.9 93.9 0 0 1 39.2 39.3z" />
</svg>
