<svg xmlns="http://www.w3.org/2000/svg" viewBox="0 0 500 500">
  <g id="notes">
    <g>
      <path id="line3" d="M73.4,331.5a14.3,14.3,0,0,0,0,28.6H185.7a14.3,14.3,0,0,0,0-28.6Z"/>
      <path id="line2" d="M250,260.5H73.4a14.3,14.3,0,0,0,0,28.6H245.5Z"/>
      <path id="line1" d="M261.1,189.6H73.4a14.3,14.3,0,0,0,0,28.6H256.6Z"/>
      <path id="outline" d="M323.2,419.6H33.6V130h287l21.7-21.7a27.6,27.6,0,0,0-18.3-6.9H32.8A27.8,27.8,0,0,0,5,129.2V420.4a27.9,27.9,0,0,0,27.8,27.8H324a27.9,27.9,0,0,0,27.8-27.8V286l-28.6,4.5Z"/>
      <path id="pencil" d="M429.6,51.8l-.4.4L416.6,64.9l-54.7,54.7h-.1L304.4,177l-10.9,10.8-2.3,2.3-10.8,10.8-12.1,77.5,77.5-12.1,10.8-10.8,2.3-2.3,10.8-10.9,11.9-11.8h0L481.9,130.3l12.7-12.7.4-.4C478.7,62.6,429.6,51.8,429.6,51.8ZM307.1,252.1c-1.3-8.7-7.1-11.8-12.5-12.6l4.8-30.9A94.1,94.1,0,0,1,338,247.3Zm44.2-17.5a97.2,97.2,0,0,0-10.4-15.7l20.2-20.2,22.3-22.3-13.1-13.1L346.7,187l-18.9,18.9a103.3,103.3,0,0,0-15.7-10.6L329,178.5h.1l41.3-41.4,39.2,39.2Zm71.4-71.2-39.2-39.3,13-13,39.3,39.2Zm26.1-26.2L409.6,98l25.6-25.6a93.9,93.9,0,0,1,39.2,39.3Z"/>
    </g>
  </g>
</svg>
