<svg xmlns="http://www.w3.org/2000/svg" viewBox="0 0 500 500">
  <g id="notifications">
    <path d="M179,440.9a45.8,45.8,0,0,0,28.2-58.2,46.8,46.8,0,0,0-7.2-13.2c-13.1,3.7-26.8,7.9-41.2,12.9s-27.8,10.1-40.4,15.3A45.5,45.5,0,0,0,179,440.9Z"/>
    <g>
      <path d="M456.9,302.3c-6.6-2.9-57.4-26.2-75.5-52.6-38.8-6.5-97.3-5.2-167.2,11.2-63.2,14.9-112.5,36.7-145,57.8-1.5,34-45.1,85.9-45.1,85.9h.3C9.9,422.1,8.3,437.2,10.9,448.3c13.6,58,143.8,55.2,258.9,28.1,60.8-14.3,116.6-34.9,156.9-58.2,59.5-34.3,66.8-63.7,62.4-82.3C485.5,320.8,474,309.8,456.9,302.3ZM261.5,441c-134.4,31.6-211.7,13.6-215.2-1s57.8-65.2,192.2-96.8,211.7-13.6,215.2,1S395.9,409.4,261.5,441Z"/>
      <path d="M205.9,225.5c59.2-13.9,117.1-18.8,163.8-14l-2.6-10.9A157.8,157.8,0,0,0,195.3,79.9l-1.2-5.1a18.2,18.2,0,1,0-35.5,8.3l1.3,5.2A157.9,157.9,0,0,0,59.8,272.9l1.8,7.7C100.3,257.8,150.9,238.4,205.9,225.5Z"/>
    </g>
    <path d="M371.8,130c-4.6-19.3-17.4-37.4-35.1-49.6S300.2,64,283.8,67.9l-4.4-18.7c21.6-5.1,46.4.5,68.1,15.4s37.3,37.1,43,61Z"/>
    <path d="M412.7,116.9C401.5,62.2,345.1,12.2,273.3,26.8L269.5,8c83.3-17.1,149,41.3,162,105.1Z"/>
  </g>
</svg>
