<svg xmlns="http://www.w3.org/2000/svg" viewBox="0 0 500 500">
  <g id="number">
    <path id="outline" d="M406.1,5H93.9A72.2,72.2,0,0,0,21.8,77.1V422.9A72.2,72.2,0,0,0,93.9,495H406.1a72.2,72.2,0,0,0,72.1-72.1V77.1A72.2,72.2,0,0,0,406.1,5Zm53.3,417.9a53.4,53.4,0,0,1-53.3,53.3H93.9a53.4,53.4,0,0,1-53.3-53.3V77.1A53.3,53.3,0,0,1,93.9,23.8H406.1a53.3,53.3,0,0,1,53.3,53.3Z"/>
    <path id="number-2" data-name="number" d="M175.9,404.3l12.4-93h-39V283.2h43.2l9.1-68.8H160.7v-28h45.1l12.4-90.7h27.5l-11.8,90.7h49.3l12.4-90.7h28l-11.9,90.7h39v28H307.5l-8.6,68.8h40.8v28.1H294.6l-12.3,93H253.8l12.3-93H216.8l-12.4,93Zm94.5-121.1,9-68.8H230.1L221,283.2Z"/>
  </g>
</svg>
