<svg xmlns="http://www.w3.org/2000/svg" viewBox="0 0 500 500">
  <g id="paid-status">
    <path id="outline" d="M250,5C114.69,5,5,114.69,5,250S114.69,495,250,495,495,385.31,495,250,385.31,5,250,5Zm21.52,391.39v48.77H224.66V399.73c-32.08-1.43-63.18-10-81.34-20.58l14.34-56c20.1,11,48.33,21.06,79.42,21.06,27.27,0,45.91-10.52,45.91-29.66,0-18.19-15.29-29.66-50.69-41.61-51.19-17.24-86.11-41.16-86.11-87.55,0-42.08,29.66-75.12,80.86-85.15V54.84h46.86V96.92c32,1.44,53.58,8.13,69.36,15.77l-13.86,54.07C317,161.5,295,150.51,260.53,150.51c-31.09,0-41.16,13.38-41.16,26.79,0,15.77,16.76,25.8,57.41,41.13,56.93,20.1,79.9,46.38,79.9,89.46C356.68,350.45,326.54,386.8,271.52,396.39Z"/>
  </g>
</svg>
