<svg
  xmlns="http://www.w3.org/2000/svg"
  viewBox="0 0 500 500"
  width="500"
  height="500"
  fill="#000000"
>
  <path d="M250 5C114.69 5 5 114.69 5 250s109.69 245 245 245 245-109.69 245-245S385.31 5 250 5zm21.52 391.39v48.77h-46.86v-45.43c-32.08-1.43-63.18-10-81.34-20.58l14.34-56c20.1 11 48.33 21.06 79.42 21.06 27.27 0 45.91-10.52 45.91-29.66 0-18.19-15.29-29.66-50.69-41.61-51.19-17.24-86.11-41.16-86.11-87.55 0-42.08 29.66-75.12 80.86-85.15v-45.4h46.86v42.08c32 1.44 53.58 8.13 69.36 15.77l-13.86 54.07C317 161.5 295 150.51 260.53 150.51c-31.09 0-41.16 13.38-41.16 26.79 0 15.77 16.76 25.8 57.41 41.13 56.93 20.1 79.9 46.38 79.9 89.46 0 42.56-30.14 78.91-85.16 88.5z" />
</svg>
