<svg
  xmlns="http://www.w3.org/2000/svg"
  viewBox="0 0 500 500"
  width="500"
  height="500"
  fill="#ffffff"
>
  <path d="M239.9 444.7v-18.2c-12.9-.5-25.3-4-32.6-8.2l5.8-22.4a67.3 67.3 0 0 0 31.7 8.4c11 0 18.4-4.2 18.4-11.9s-6.1-11.8-20.3-16.6c-20.5-6.9-34.4-16.5-34.4-35.1 0-16.8 11.8-30 32.3-34v-18.2h18.8v16.8c12.8.6 21.4 3.3 27.8 6.3l-5.6 21.7c-5-2.1-13.8-6.5-27.6-6.5s-16.4 5.3-16.4 10.7 6.7 10.3 22.9 16.5c22.8 8 32 18.5 32 35.8s-12.1 31.6-34.1 35.4v19.5z" />
  <path d="M250 229.4A112.2 112.2 0 0 1 149.4 167h-.2l-2.6-5.7a111.8 111.8 0 0 1-8.9-43.9v-.4a112.7 112.7 0 0 1 8.9-44l2.4-5.6h.4a112.3 112.3 0 0 1 201.2 0h.2l2.6 5.6a111 111 0 0 1 9 44v.4a110.2 110.2 0 0 1-9 43.9L351 167h-.4A112.2 112.2 0 0 1 250 229.4zm-88.2-80.2l2.1 4.8a93.7 93.7 0 0 0 172.2 0l2.1-4.8a93.6 93.6 0 0 0 5.5-31.5v-.9a94.4 94.4 0 0 0-6.1-33.3l-1.5-3a93.7 93.7 0 0 0-172.2 0l-2.1 4.7a93.8 93.8 0 0 0-5.5 31.6v1a93.6 93.6 0 0 0 5.5 31.4z" />
  <path d="M246.3 495c-59.1 0-126.5-5.9-195.7-23.4l-7.8-2 .9-8.1c.6-5.5 15.2-135.6 67.2-180S246.6 238 250.2 238s87-.8 138.9 43.5c52 44.4 66.6 174.5 67.2 180l.9 7.9-7.6 2.1c-1.3.4-85.9 23.5-203.3 23.5zM63.2 455.5c175.3 42.3 336.8 8.8 373.6 0-4-28.6-20.2-126.1-59.8-159.8-46.5-39.7-126-39.1-126.9-39.1s-80.6-.6-127.1 39.1c-39.6 33.8-55.8 131.1-59.8 159.8z" />
</svg>
