<svg xmlns="http://www.w3.org/2000/svg" viewBox="0 0 500 500">
  <g id="paid-as-team">
    <path id="middle-body" d="M249.4,432.9a348.4,348.4,0,0,1-113.1-18.4l-6.8-2.3.6-7.2c.3-4.2,8.6-103.2,38.4-137.4s78.3-34.7,82.2-34.5,52.2,0,82.2,34.5S371,400.8,371.4,405l.5,7-6.5,2.4C362.5,415.5,315.2,432.9,249.4,432.9ZM149.2,399.3c93.2,29.3,179,7.4,203.1,0-3.3-31.3-13.6-96.9-33.4-119.6-24.8-28.5-67.6-28.1-68-28.1h-.4c-.3,0-43.2-.4-68,28.1C162.7,302.4,152.4,368,149.2,399.3Z"/>
    <path id="middle-head" d="M250.3,224a78.5,78.5,0,1,1,78.4-78.5A78.5,78.5,0,0,1,250.3,224Zm0-138.4a59.9,59.9,0,1,0,59.9,59.9A59.9,59.9,0,0,0,250.3,85.6Z"/>
    <path id="left-head" d="M103.4,251.6A59.7,59.7,0,1,1,163,191.9,59.7,59.7,0,0,1,103.4,251.6Zm0-100.8a41.2,41.2,0,1,0,41.1,41.1A41.2,41.2,0,0,0,103.4,150.8Z"/>
    <path id="left-body" d="M88.5,414.5c-33.2,0-79.7-12.2-83.2-26a9.9,9.9,0,0,1,.4-5.9c1.1-12.3,7-68.6,25.1-94.9,20.8-30,54.4-30.4,57.8-30.3s28.2.3,48.4,19.4l5.3,5-3.6,6.4c-20.1,34.7-27.3,108.7-28,117l-.7,7.3-7.2,1A90,90,0,0,1,88.5,414.5ZM24.3,382.2C34.5,387.5,64.6,397.9,93,396c2.4-22.2,9.6-76.2,26-110.1a56.8,56.8,0,0,0-30.1-10h-.5c-1.4-.1-26.8-.1-42.3,22.4C32.8,317.4,26.2,362,24.3,382.2Z"/>
    <path id="right-head" d="M397.9,246.4a59.7,59.7,0,1,1,59.6-59.6A59.7,59.7,0,0,1,397.9,246.4Zm0-100.8A41.2,41.2,0,1,0,439,186.8,41.3,41.3,0,0,0,397.9,145.6Z"/>
    <path id="right-body" d="M412.9,414.6a98.4,98.4,0,0,1-15.7-1.1l-7.2-1-.7-7.3c-.7-8.3-7.9-82.3-28-117l-3.6-6.4,5.3-5c20.2-19.1,45.4-19.4,48.4-19.4s37,.3,57.8,30.3c18.1,26.3,24,82.6,25.1,94.9a9.9,9.9,0,0,1,.4,5.9C491.7,400.4,448.5,414.6,412.9,414.6ZM407,396c28.4,1.9,58.5-8.5,68.7-13.8-1.9-20.2-8.5-64.8-21.8-83.9-15.5-22.6-41.1-22.6-42.3-22.4a56.2,56.2,0,0,0-30.6,10C397.4,319.7,404.6,373.8,407,396Z"/>
    <path id="dollar-sign" d="M244.8,378.9V367.6c-8-.4-15.7-2.5-20.3-5.2l3.6-13.9a42.8,42.8,0,0,0,19.8,5.2c6.8,0,11.5-2.6,11.5-7.4s-3.8-7.4-12.7-10.3c-12.7-4.3-21.4-10.3-21.4-21.9s7.4-18.7,20.1-21.2V281.6h11.7v10.5c8,.3,13.4,2,17.3,3.9l-3.5,13.5c-3.1-1.3-8.5-4.1-17.1-4.1s-10.3,3.4-10.3,6.7,4.2,6.4,14.3,10.3c14.2,5,19.9,11.5,19.9,22.3s-7.5,19.7-21.2,22v12.2Z"/>
  </g>
</svg>
