<svg xmlns="http://www.w3.org/2000/svg" viewBox="0 0 500 500">
  <g id="partner">
    <circle id="left-head" cx="95.9" cy="120.8" r="61.1"/>
    <path id="left-body" d="M225.4,288.8a229.1,229.1,0,0,1-55.9-2.2c-3.4-13.8-7.5-25.9-12.2-34.3-23-40.5-61.4-39.3-61.4-39.3s-38.4-1.2-61.3,39.3S5,418.1,5,418.1c95.3,50,181.8,0,181.8,0s-1.4-27.2-5.3-60.3c7.8.6,15.9,1,24.5,1s16.1-.3,24.6-.9a34.6,34.6,0,0,0-5.2-69.1Z"/>
    <circle id="right-head" cx="404.1" cy="120.8" r="61.1"/>
    <path id="right-body" d="M465.4,252.3c-22.9-40.5-61.3-39.3-61.3-39.3s-38.4-1.2-61.4,39.3a108.2,108.2,0,0,0-8.4,20.7c-9.3,5.8-27.8,14.2-60.5,16.1a46,46,0,0,1-1,69.4,251.2,251.2,0,0,0,46.3-6c-4.3,35.5-5.9,65.6-5.9,65.6s86.5,50,181.8,0C495,418.1,488.4,292.8,465.4,252.3Z"/>
  </g>
</svg>
