<svg xmlns="http://www.w3.org/2000/svg" viewBox="0 0 500 500">
  <g id="past-7-days-color">
    <circle cx="253.08" cy="247.32" r="225.4" style="fill: #9797ca"/>
    <path d="M397.57,79.63c95.12,80.31,107.13,222.52,26.82,317.63S201.87,504.39,106.76,424.08" style="fill: #cdcae5"/>
    <path d="M249.94,495A245.18,245.18,0,0,1,16.39,176a19.6,19.6,0,1,1,37.37,11.84,205.83,205.83,0,1,0,402,60.76C455,135.58,362.83,44.2,250,44.2h-1.45a204.67,204.67,0,0,0-74.19,14.32A19.6,19.6,0,1,1,160,22.08,243.84,243.84,0,0,1,248.3,5H250c134.3,0,244,108.78,245,243.29A245,245,0,0,1,251.71,495Z" style="fill: #336"/>
    <circle cx="61.31" cy="128.35" r="20.15" style="fill: #336"/>
    <polygon points="344.46 354.19 237.19 248.4 236.28 117.22 260.78 117.05 261.62 238.08 361.67 336.75 344.46 354.19" style="fill: #336"/>
    <path d="M198.82,295.43,198.9,307,167,373.79l-19.43.14,31.91-63.09v-.25l-36,.25-.1-15Z" style="fill: #336"/>
  </g>
</svg>
