<svg
  xmlns="http://www.w3.org/2000/svg"
  viewBox="0 0 500 500"
  width="500"
  height="500"
  fill="#ffffff"
>
  <path d="M435.9 59.1H64.1C30.4 59.1 5 111.5 5 181.1v259.8h389.1V303.1h41.8c33.7 0 59.1-52.4 59.1-122s-25.4-122-59.1-122zM64.1 77.9c19.1 0 40.3 42.4 40.3 103.2S83.2 284.3 64.1 284.3s-40.3-42.4-40.3-103.2S45.1 77.9 64.1 77.9zm311.2 344.2H23.8V272c10.5 19.5 24.5 31.1 40.3 31.1h311.2zm60.6-137.8H96.6c16.3-21.3 26.7-58.7 26.7-103.2S112.9 99.2 96.6 77.9h339.3c19 0 40.3 42.4 40.3 103.2s-21.3 103.2-40.3 103.2z" />
  <path d="M298.4 168.3c-15.8-5.9-22.4-9.9-22.4-16s3.9-10.5 16.1-10.5 22.1 4.3 26.9 6.3l5.4-21.1c-6.1-3-14.5-5.6-27.1-6.2v-16.4H279v17.7c-20 4-31.6 16.9-31.6 33.3 0 18.2 13.6 27.5 33.7 34.3 13.8 4.6 19.8 9.1 19.8 16.2s-7.3 11.6-18 11.6a65.9 65.9 0 0 1-31-8.2l-5.6 21.9c7.1 4.1 19.2 7.4 31.8 8V257h18.3v-19.1c21.5-3.7 33.3-18 33.3-34.6s-9-27.1-31.3-35z" />
  <path d="M61.4 223.7c10.4 0 18.9-19.1 18.9-42.6s-8.5-42.6-18.9-42.6-18.8 19.1-18.8 42.6 8.5 42.6 18.8 42.6z" />
</svg>
