<svg xmlns="http://www.w3.org/2000/svg" viewBox="0 0 500 500">
  <g id="pay-period">
    <path id="arrow" d="M495,234.2C495,118,400.4,23.4,284.2,23.4S73.4,118,73.4,234.2H94C94,129.3,179.3,44,284.2,44s190.2,85.3,190.2,190.2S391.5,421.9,288.7,424.3V386l-78.5,45.3,78.5,45.3V444.9C402.9,442.5,495,348.9,495,234.2Z"/>
    <polygon id="clock-hands" points="273.9 121.4 273.9 241.6 370.6 338.2 385.2 323.7 294.5 233 294.5 121.4 273.9 121.4"/>
    <path id="dollar-sign-2" data-name="dollar-sign" d="M108.7,252.7A103.7,103.7,0,1,0,212.4,356.4,103.7,103.7,0,0,0,108.7,252.7Zm8,158.1v18.1H99.3V412.1c-11.9-.6-23.5-3.8-30.2-7.7l5.3-20.8a62.6,62.6,0,0,0,29.5,7.8c10.1,0,17.1-3.9,17.1-11s-5.7-11-18.9-15.4c-19-6.4-32-15.3-32-32.6,0-15.6,11-27.9,30.1-31.6V283.9h17.4v15.6c11.9.6,19.9,3.1,25.8,5.9l-5.2,20.1c-4.6-2-12.8-6-25.6-6s-15.3,4.9-15.3,9.9,6.2,9.6,21.3,15.3c21.2,7.5,29.7,17.2,29.7,33.2S137.1,407.3,116.7,410.8Z"/>
  </g>
</svg>
