<svg xmlns="http://www.w3.org/2000/svg" viewBox="0 0 500 500">
  <g id="pay-roll">
    <path id="roll" d="M435.9,59.1H64.1C30.4,59.1,5,111.5,5,181.1V440.9H394.1V303.1h41.8c33.7,0,59.1-52.4,59.1-122S469.6,59.1,435.9,59.1ZM64.1,77.9c19.1,0,40.3,42.4,40.3,103.2S83.2,284.3,64.1,284.3,23.8,241.9,23.8,181.1,45.1,77.9,64.1,77.9ZM375.3,422.1H23.8V272c10.5,19.5,24.5,31.1,40.3,31.1H375.3Zm60.6-137.8H96.6c16.3-21.3,26.7-58.7,26.7-103.2S112.9,99.2,96.6,77.9H435.9c19,0,40.3,42.4,40.3,103.2S454.9,284.3,435.9,284.3Z"/>
    <path id="dollar-sign" d="M298.4,168.3c-15.8-5.9-22.4-9.9-22.4-16s3.9-10.5,16.1-10.5,22.1,4.3,26.9,6.3l5.4-21.1c-6.1-3-14.5-5.6-27.1-6.2V104.4H279v17.7c-20,4-31.6,16.9-31.6,33.3,0,18.2,13.6,27.5,33.7,34.3,13.8,4.6,19.8,9.1,19.8,16.2s-7.3,11.6-18,11.6a65.9,65.9,0,0,1-31-8.2l-5.6,21.9c7.1,4.1,19.2,7.4,31.8,8V257h18.3V237.9c21.5-3.7,33.3-18,33.3-34.6S320.7,176.2,298.4,168.3Z"/>
    <path id="middle-roll" d="M61.4,223.7c10.4,0,18.9-19.1,18.9-42.6s-8.5-42.6-18.9-42.6-18.8,19.1-18.8,42.6S51.1,223.7,61.4,223.7Z"/>
  </g>
</svg>
