<svg
  xmlns="http://www.w3.org/2000/svg"
  viewBox="0 0 500 500"
  width="500"
  height="500"
  fill="#ffffff"
>
  <path d="M9.9 105.3v289.4a45.5 45.5 0 0 0 45.5 45.5h389.2a45.5 45.5 0 0 0 45.5-45.5V105.3a45.5 45.5 0 0 0-45.5-45.5H55.4a45.5 45.5 0 0 0-45.5 45.5zm295-23.7h139.7a23.7 23.7 0 0 1 23.6 23.7v289.4a23.7 23.7 0 0 1-23.6 23.7H55.4a23.7 23.7 0 0 1-23.6-23.7V105.3a23.7 23.7 0 0 1 23.6-23.7h249.5z" />
  <path d="M114.2 283.5l-9.8 35.1H72.3l41.9-137h40.6l42.5 137H164l-10.6-35.1zm34.7-23.2l-8.5-29.1c-2.4-8.1-4.9-18.3-6.9-26.4h-.4c-2.1 8.1-4.1 18.5-6.3 26.4l-8.2 29.1z" />
  <path d="M216.6 286.7c8.4 4.3 21.2 8.6 34.4 8.6s21.8-5.9 21.8-14.9-6.5-13.4-23-19.3c-22.8-7.9-37.6-20.6-37.6-40.5 0-23.4 19.5-41.3 51.8-41.3 15.5 0 26.9 3.3 35 6.9l-6.9 25.1a64.6 64.6 0 0 0-28.7-6.5c-13.4 0-19.9 6.1-19.9 13.2 0 8.7 7.7 12.6 25.4 19.3 24.2 8.9 35.6 21.5 35.6 40.9 0 22.9-17.7 42.5-55.3 42.5-15.7 0-31.1-4.1-38.9-8.4z" />
  <path d="M426.1 314.8c-5.7 2.8-18.5 5.9-35.2 5.9-47.4 0-71.8-29.5-71.8-68.6 0-46.7 33.4-72.8 74.9-72.8 16 0 28.2 3.3 33.7 6.1l-6.3 24.6a67.6 67.6 0 0 0-26-5c-24.6 0-43.7 14.8-43.7 45.3 0 27.5 16.2 44.7 43.9 44.7 9.4 0 19.7-2 25.8-4.4z" />
</svg>
