<svg xmlns="http://www.w3.org/2000/svg" viewBox="0 0 500 500">
  <g id="payment-type-asap">
    <path id="outline" d="M9.4,110.2V399.7a45.5,45.5,0,0,0,45.5,45.5H444.1a45.5,45.5,0,0,0,45.5-45.5V110.2a45.5,45.5,0,0,0-45.5-45.5H54.9A45.5,45.5,0,0,0,9.4,110.2Zm295-23.6H444.1a23.6,23.6,0,0,1,23.6,23.6V399.7a23.6,23.6,0,0,1-23.6,23.6H54.9a23.7,23.7,0,0,1-23.7-23.6V110.2A23.7,23.7,0,0,1,54.9,86.6H304.4Z"/>
    <path id="a" d="M105.4,279l-7.1,25.3h-23l30.1-98.5h29.2l30.5,98.5H141.2L133.6,279Zm24.9-16.7-6.1-20.9c-1.7-5.8-3.5-13.1-5-19h-.3c-1.4,5.9-2.9,13.3-4.5,19l-5.8,20.9Z"/>
    <path id="s" d="M179,281.3a56.4,56.4,0,0,0,24.7,6.1c10.2,0,15.6-4.2,15.6-10.6s-4.7-9.7-16.5-13.9c-16.4-5.7-27-14.8-27-29.1,0-16.8,14-29.6,37.2-29.6a61.5,61.5,0,0,1,25.2,4.9l-5,18a47.1,47.1,0,0,0-20.6-4.7c-9.6,0-14.3,4.4-14.3,9.5s5.5,9.1,18.2,13.9c17.4,6.4,25.6,15.5,25.6,29.4,0,16.5-12.7,30.5-39.7,30.5-11.3,0-22.4-2.9-27.9-6Z"/>
    <path id="a-2" data-name="a" d="M280.1,279l-7,25.3H250l30.1-98.5h29.2l30.5,98.5H315.9L308.3,279Zm25-16.7-6.2-20.9c-1.7-5.8-3.5-13.1-4.9-19h-.3c-1.5,5.9-2.9,13.3-4.5,19l-5.9,20.9Z"/>
    <path id="p" d="M353,207.1c6.9-1.2,16.5-2.1,30.1-2.1s23.5,2.7,30.1,7.9a28.8,28.8,0,0,1,10.5,22.8c0,9.7-3.2,17.9-9,23.4-7.6,7.2-18.9,10.4-32,10.4a52.6,52.6,0,0,1-7.6-.5v35.3H353Zm22.1,44.7a36,36,0,0,0,7.4.6c11.8,0,19.2-6,19.2-16.1s-6.3-14.4-17.4-14.4a40.8,40.8,0,0,0-9.2.8Z"/>
  </g>
</svg>
