<svg xmlns="http://www.w3.org/2000/svg" viewBox="0 0 500 500" fill="#000000">
  <path
    d="M86.32 51.24l339.8 2.69s52.27-3.16 45.33 113.61-63.58 91.33-63.58 91.33L379 260l1.65 26.77-.51 106.23-354.95 1.26 1.16-298.4L59.88 45z"
    fill="#989898"
  />
  <rect x="104.48" y="53.2" width="361.6" height="56.69" fill="#cccbcb" />
  <path
    d="M294.73 136.06c-15.1-5.64-21.41-9.46-21.41-15.29s3.73-10 15.39-10 21.12 4.1 25.7 6l5.16-20.17c-5.83-2.86-13.85-5.35-25.89-5.92V75h-17.49v16.91c-19.11 3.82-30.2 16.15-30.2 31.82 0 17.39 13 26.28 32.21 32.78 13.18 4.39 18.92 8.69 18.92 15.48s-7 11.08-17.2 11.08a63 63 0 0 1-29.63-7.83l-5.35 20.92c6.79 3.92 18.35 7.07 30.39 7.65v17h17.49v-18.25c20.54-3.53 31.82-17.2 31.82-33.06s-8.64-25.89-29.91-33.44z"
    fill="#333"
  />
  <path
    d="M83.51 150.42c0-17.5-6.33-31.73-14.08-31.73s-14 14.23-14 31.73 6.33 31.73 14 31.73 14.08-14.22 14.08-31.73z"
    fill="#333"
  />
  <path
    d="M105.45 324.66l15.61-15.61a9.36 9.36 0 0 0-13.24-13.24l-15.61 15.61-15.61-15.61a9.36 9.36 0 1 0-13.24 13.24L79 324.66l-15.64 15.61a9.37 9.37 0 0 0 13.24 13.25l15.61-15.61 15.61 15.61a9.37 9.37 0 0 0 13.24-13.25z"
    fill="#333"
  />
  <ellipse cx="381.43" cy="380.1" rx="89.46" ry="87.06" fill="#cccbcb" />
  <polygon
    points="365.43 326.59 365.43 388.36 407.93 430.86 421.17 417.61 384.16 380.6 384.16 326.59 365.43 326.59"
    fill="#333"
  />
  <path
    d="M468.22 359.51l-26.77 41.77h16.79a78.85 78.85 0 1 1-4.38-54.23l11.52-18a97.68 97.68 0 0 0-69.84-45.64v-9.2h30.58c38.15 0 65.84-53 65.84-125.94S464.27 22.35 426.12 22.35H70.84C32.69 22.35 5 75.32 5 148.29v257.62h208.1a18.35 18.35 0 0 0 0-36.69H41.69V262.49c8.83 7.68 18.74 11.74 29.15 11.74h288v11.3a97.5 97.5 0 1 0 118.72 115.75H495zm-397.38-122c-8.72 0-29.15-30.37-29.15-89.25S62.12 59 70.84 59 100 89.4 100 148.29s-20.44 89.25-29.16 89.25zm47.86 0c11.6-22.82 18.07-54.26 18.07-89.25S130.3 81.86 118.7 59h307.42c8.71 0 29.14 30.36 29.14 89.25s-20.43 89.25-29.14 89.25z"
    fill="#333"
  />
</svg>
