<?xml version="1.0" encoding="utf-8"?>
<!-- Generator: Adobe Illustrator 24.3.0, SVG Export Plug-In . SVG Version: 6.00 Build 0)  -->
<svg version="1.1" xmlns="http://www.w3.org/2000/svg" xmlns:xlink="http://www.w3.org/1999/xlink" x="0px" y="0px"
	 viewBox="0 0 500 500" style="enable-background:new 0 0 500 500;" xml:space="preserve">
<style type="text/css">
	.st0{fill:#231F20;}
</style>
<g id="slots">
</g>
<g id="work-state">
</g>
<g id="applicant-pool">
</g>
<g id="action-prioritize-posting">
</g>
<g id="recruitment-lead">
</g>
<g id="workers-comp-code">
</g>
<g id="post-to-applicant-pool">
</g>
<g id="grant-details">
</g>
<g id="check">
</g>
<g id="percentage">
	<g>
		<path d="M217,165.1C217,245.9,166,288,110.1,288C51.3,288,5,244.1,5,171.6C5,102.7,47.2,50.4,113.1,50.4
			C179.6,50.4,217,99.1,217,165.1z M72.1,169.2c0,40.4,13.7,69.5,39.8,69.5c25.5,0,38-26.1,38-69.5c0-39.2-10.7-69.5-38.6-69.5
			C84.6,99.7,72.1,130.6,72.1,169.2z M114.9,449.6L336.4,50.4h48.7L163,449.6H114.9z M495,325.4c0,80.8-51.1,122.9-106.9,122.9
			c-58.2,0-104.5-43.9-105.1-116.4c0-68.9,42.2-121.2,108.1-121.2C457.6,210.8,495,259.5,495,325.4z M350.7,329.6
			c-0.6,40.4,13.1,69.5,39.2,69.5c25.5,0,38-26.1,38-69.5c0-39.2-10.1-69.5-38-69.5C362.6,260.1,350.7,291,350.7,329.6z"/>
	</g>
</g>
<g id="Layer_11">
</g>
<g id="Layer_12">
</g>
</svg>
