<svg
  xmlns="http://www.w3.org/2000/svg"
  viewBox="0 0 500 500"
  width="500"
  height="500"
  fill="#ffffff"
>
  <path d="M217 165.1c0 80.8-51 122.9-106.9 122.9C51.3 288 5 244.1 5 171.6 5 102.7 47.2 50.4 113.1 50.4c66.5 0 103.9 48.7 103.9 114.7zm-144.9 4.1c0 40.4 13.7 69.5 39.8 69.5 25.5 0 38-26.1 38-69.5 0-39.2-10.7-69.5-38.6-69.5-26.7 0-39.2 30.9-39.2 69.5zm42.8 280.4L336.4 50.4h48.7L163 449.6h-48.1zM495 325.4c0 80.8-51.1 122.9-106.9 122.9-58.2 0-104.5-43.9-105.1-116.4 0-68.9 42.2-121.2 108.1-121.2 66.5.1 103.9 48.8 103.9 114.7zm-144.3 4.2c-.6 40.4 13.1 69.5 39.2 69.5 25.5 0 38-26.1 38-69.5 0-39.2-10.1-69.5-38-69.5-27.3 0-39.2 30.9-39.2 69.5z" />
</svg>
