<svg xmlns="http://www.w3.org/2000/svg" viewBox="0 0 500 500">
  <g id="permissions">
    <path id="key-eye" d="M72.5,284.9a37.2,37.2,0,1,0,37.1,37.2A37.3,37.3,0,0,0,72.5,284.9Zm0,56.9a19.7,19.7,0,1,1,19.6-19.7A19.7,19.7,0,0,1,72.5,341.8Z"/>
    <path id="key" d="M272.5,376.7l27.8-27.9,27.9,27.9h7.9L364,348.8V267.6H187.7a99.3,99.3,0,0,0-85.5-45c-51.7,1.2-94.3,42.5-97.1,94.1a99.5,99.5,0,0,0,182.6,60h21.1l27.9-27.9,27.8,27.9Zm-70.9-17.5H177.9l-2.6,4.3a82.3,82.3,0,0,1-70.7,40.7,82.1,82.1,0,0,1-82-86.5,82.3,82.3,0,0,1,80-77.6h1.9a82.2,82.2,0,0,1,70.8,40.7l2.6,4.3H346.5v56.6l-14.4,14.3-31.8-31.8-31.8,31.8-31.8-31.8Z"/>
    <path id="lock" d="M472.5,211.7h-192V177.6a92.7,92.7,0,0,1,162.7-60.8,8.8,8.8,0,1,0,13.2-11.5A110.2,110.2,0,0,0,263,177.6v34.1h0a22.5,22.5,0,0,0-22.2,22.5v15.9H381.5v106l-38.1,38.1H320.9l-20.6-20.6-20.6,20.6H257.3l-16.5-16.5V410a22.6,22.6,0,0,0,22.5,22.6H472.5A22.6,22.6,0,0,0,495,410V234.2A22.5,22.5,0,0,0,472.5,211.7Z"/>
  </g>
</svg>
