<svg
  xmlns="http://www.w3.org/2000/svg"
  viewBox="0 0 500 500"
  width="500"
  height="500"
  fill="#ffffff"
>
  <path d="M343.2 296.7a14.6 14.6 0 0 0-20.8 0l-60.7 60.7c-38.7-21.5-83.8-59.1-118.8-124.2l56.3-56.2a14.8 14.8 0 0 0 0-20.8l-84.6-84.6a14.8 14.8 0 0 0-20.8 0L9.3 156.2a14.6 14.6 0 0 0-2.4 17.6C81.7 439 280 482.9 327 489.7a15.4 15.4 0 0 0 8.2 1h1.6v-.5a14.4 14.4 0 0 0 6.4-3.7l84.6-84.5a14.7 14.7 0 0 0 0-20.7z" />
  <path d="M374.1 270.5h42C416.1 169.9 334.3 88 233.7 88v42c77.4 0 140.4 63 140.4 140.5z" />
  <path d="M233.7 9.1v42c120.9 0 219.3 98.4 219.3 219.4h42C495 126.4 377.8 9.1 233.7 9.1z" />
  <path d="M295.5 270.5h42a104 104 0 0 0-103.8-103.9v42a61.9 61.9 0 0 1 61.8 61.9z" />
</svg>
