<svg xmlns="http://www.w3.org/2000/svg" viewBox="0 0 500 500">
  <g id="phone">
    <path id="handle" d="M343.2,296.7a14.6,14.6,0,0,0-20.8,0l-60.7,60.7c-38.7-21.5-83.8-59.1-118.8-124.2L199.2,177a14.8,14.8,0,0,0,0-20.8L114.6,71.6a14.8,14.8,0,0,0-20.8,0L9.3,156.2a14.6,14.6,0,0,0-2.4,17.6C81.7,439,280,482.9,327,489.7a15.4,15.4,0,0,0,8.2,1h1.6v-.5a14.4,14.4,0,0,0,6.4-3.7L427.8,402a14.7,14.7,0,0,0,0-20.7Z"/>
    <path id="middlie-arch" d="M374.1,270.5h42C416.1,169.9,334.3,88,233.7,88v42C311.1,130,374.1,193,374.1,270.5Z"/>
    <path id="last-arch" d="M233.7,9.1v42C354.6,51.1,453,149.5,453,270.5h42C495,126.4,377.8,9.1,233.7,9.1Z"/>
    <path id="first-arch" d="M295.5,270.5h42A104,104,0,0,0,233.7,166.6v42A61.9,61.9,0,0,1,295.5,270.5Z"/>
  </g>
</svg>
