<svg xmlns="http://www.w3.org/2000/svg" viewBox="0 0 500 500">
  <g id="photos-favorite">
    <path id="heart" d="M363.32,35.17A131.63,131.63,0,0,0,251.53,97.49,133.06,133.06,0,0,0,138,33.77c-73.35,0-133,59.68-133,133a132.93,132.93,0,0,0,33.13,87.85L249.87,466.23l27.86-27.9,0,0L461.33,255.15l.89-1A131.94,131.94,0,0,0,495,167.1C495,94.35,435.93,35.17,363.32,35.17ZM433,227.71,249.8,410.43,67.33,228.15A93.61,93.61,0,1,1,231.64,166.8h0v.3h39.42c0-51,41.39-92.5,92.26-92.5s92.25,41.49,92.25,92.5A92.52,92.52,0,0,1,433,227.71Z"/>
  </g>
</svg>
