<svg xmlns="http://www.w3.org/2000/svg" viewBox="0 0 500 500">
  <defs>
    <style>
      .cls-1 {
        fill: #231f20;
      }
    </style>
  </defs>
  <g id="photo-alignment">
    <g>
      <path class="cls-1" d="M288.86,272.3a99.09,99.09,0,0,1,22.91-17.19l-6,30.12,106.84-36.05-84.63-74.51-7.32,36.47a133,133,0,0,0-58.4,34.51c-22.82,22.81-36.58,52.12-38.75,82.52-2.25,31.42,8,60.24,29,81.16l26.65-26.66c-13.07-13.07-19.47-31.47-18-51.81C262.58,309.5,272.45,288.7,288.86,272.3Z"/>
      <path class="cls-1" d="M431.1,294.38c13.07,13.07,19.47,31.47,18,51.81-1.52,21.36-11.4,42.16-27.8,58.56A99.42,99.42,0,0,1,398.4,422l6.05-30.13L297.61,427.87l84.63,74.51,7.32-36.47A133.08,133.08,0,0,0,448,431.4c22.82-22.81,36.58-52.11,38.75-82.52,2.24-31.42-8-60.24-29-81.15Z"/>
      <path class="cls-1" d="M5-2.38v490H172.08V163.81l322.92.95V-2.38ZM457.31,127l-53.53-.16V91.91H366.09v34.78l-43.52-.13V91.91H284.88v34.54l-43.52-.13V91.91H203.67v34.3l-69.28-.2v67H100.18v37.69h34.21v43.52H100.18V312h34.21v43.52H100.18v37.69h34.21v56.77H42.69V35.31H457.31Z"/>
    </g>
  </g>
</svg>
