<svg
  xmlns="http://www.w3.org/2000/svg"
  viewBox="0 0 500 500"
  width="500"
  height="500"
  fill="#000000"
>
  <path d="M250 5C114.91 5 5 114.91 5 250s109.91 245 245 245 245-109.91 245-245S385.09 5 250 5zm177.43 106.88A223.8 223.8 0 0 1 474.67 238c-106.18-80.5-191.19-61-212.22-54.2 25.77-27.45 75.68-63.01 164.98-71.92zm-15.9-18.28C329.1 104.65 280 137.46 252.15 165.45a73.43 73.43 0 0 0-28.32-27.85c11-31.84 31.69-68.73 68.94-108.47A224.78 224.78 0 0 1 411.53 93.6zM188.9 148.67a52.91 52.91 0 1 1-52.9 52.9 53 53 0 0 1 52.9-52.9zM250 25c6.3 0 12.53.33 18.7.84-33.44 37.94-53 73.38-63.92 104.62A72.3 72.3 0 0 0 135.6 152c-6.69-24.57-11.11-53.68-11.75-88.21A223.71 223.71 0 0 1 250 25zM104.37 78.69c1.88 37.77 8.26 69.13 17.09 95.28A72.78 72.78 0 0 0 188 274.43c3.81 3.08 7.46 5.79 10.86 8.1a61.05 61.05 0 0 0 7.92 10.3c-39.52 1.91-103.71-9.9-178.6-80a224.91 224.91 0 0 1 76.19-134.14zM66.14 379.45A223.64 223.64 0 0 1 25 250c0-4.24.14-8.44.37-12.62C95.31 298.7 156.78 313 198.83 313a171 171 0 0 0 35.67-3.65 60.54 60.54 0 0 0 14 2.07c-27.19 29.1-81.09 64.95-182.36 68.03zm15.28 19.33c122.94-7.78 177.39-63.18 198.82-95.31a61 61 0 0 0 14.46-11.59c2.41 39.27-8.55 104.31-79.67 180.39a224.85 224.85 0 0 1-133.61-73.49zM250 475c-3.43 0-6.84-.11-10.24-.26 86.29-98.76 78.89-180.57 70.15-214.49a60.11 60.11 0 0 0 .77-9.16c0-1.59-.12-3.15-.24-4.7 29.66 26.05 68.43 80.14 71.66 185.61A223.78 223.78 0 0 1 250 475zm151.39-58.69C392.64 279.57 324.77 227.7 296 211.77a60.65 60.65 0 0 0-14.46-12.24c31.34-6.16 104.33-9 193 63.87a224.53 224.53 0 0 1-73.15 152.91z" />
</svg>
