<svg xmlns="http://www.w3.org/2000/svg" viewBox="0 0 500 500">
  <g id="photos-times-favorited">
    <path id="heart" d="M236.83,433.32a18.37,18.37,0,0,0,25.94,0l.76-.76,184-183.46A112,112,0,0,0,475.4,175c0-62-50.16-112.27-112-112.27a112.1,112.1,0,0,0-107.49,80.63,52.32,52.32,0,0,0-6.55-.46c-.85,0-1.67.08-2.51.12A113.4,113.4,0,0,0,128.64,61.69c-55,4.41-99.58,49.2-103.71,104.25a113.07,113.07,0,0,0,27.9,83.61l184,183.77Z" style="fill: #ee3a39"/>
    <path id="outline" d="M249.81,458.26A37.89,37.89,0,0,1,223,447.19L38.11,262.5a132.26,132.26,0,0,1-32.72-98C10.23,99.91,62.54,47.32,127.08,42.16a133.92,133.92,0,0,1,124.45,63.41c23.63-37.95,65.82-62.45,111.85-62.45C436,43.12,495,102.28,495,175a131.88,131.88,0,0,1-32.77,87.06l-.88.94L276.58,447.23A37.8,37.8,0,0,1,249.81,458.26Zm.87-38.81ZM67.15,236.15,249.81,418.57,433.19,235.72A92.73,92.73,0,0,0,455.8,175c0-51.1-41.46-92.67-92.42-92.67a92.94,92.94,0,0,0-88.68,66.54L270,164.94l-16.62-2.15a30.75,30.75,0,0,0-4-.3l-1.61.1-15.41.71L228,148.48c-12.35-42.51-53.47-70.83-97.8-67.25-45.47,3.64-82.32,40.68-85.73,86.18A93.35,93.35,0,0,0,67.15,236.15Z" style="fill: #973693"/>
    <ellipse id="highlight" cx="104.49" cy="96.38" rx="31.42" ry="23.75" transform="translate(-37.38 87.41) rotate(-39.07)" style="fill: #fff"/>
  </g>
</svg>
