<svg
  xmlns="http://www.w3.org/2000/svg"
  viewBox="0 0 500 500"
  width="500"
  height="500"
  fill="#000000"
>
  <circle cx="250" cy="250" r="225.78" />
  <path d="M250 5C114.91 5 5 114.91 5 250s109.91 245 245 245 245-109.91 245-245S385.09 5 250 5zm159.25 113.58a205.62 205.62 0 0 1 46.46 113.13c-88.35-60.61-160.64-54.77-191.07-48.1 24.3-24.75 68.69-55.11 144.61-65.03zM110.89 97.44c10.64 135.42 82.35 181.59 105.7 193.1-35.54 3.69-97.58-3.25-171.22-68.45a206.24 206.24 0 0 1 65.52-124.65zM43.54 245.83c63.3 52.21 118.78 64.68 157.3 64.68 29.19 0 48.65-7.15 54.38-9.56-22.84 27.8-72.22 67.18-170.39 72.95A205.46 205.46 0 0 1 43.43 250c0-1.4.08-2.78.11-4.17zm351 151.58C380 244.3 286.34 209 282.09 207.52l-6.49 18.09c3.88 1.42 91.93 35.48 100.83 187.57A205.46 205.46 0 0 1 250 456.57c-.61 0-1.21 0-1.82-.05 96.92-118 55.86-208.66 53.94-212.72l-17.38 8.2c1.73 3.74 39.66 89.57-60.45 202.91a206.15 206.15 0 0 1-124-62.86c153.64-14.29 189-108.24 190.49-112.5l-18.1-6.45c-.11.32-4.35 11.5-16.17 26.3l-7.81-16.55c-1.11.51-9.33 4.16-23.27 6.51l4.93-13.73c-3.94-1.44-94-36.3-101.12-193A205.38 205.38 0 0 1 250 43.43c3.4 0 6.78.1 10.14.26-98.72 118.83-57.23 210.31-55.29 214.43l17.38-8.2c-1.74-3.75-39.87-90 61.17-203.75a206.11 206.11 0 0 1 110 55.33c-134.24 22.38-170.61 106.08-172.2 109.9l17.75 7.37c.12-.29 4-9.25 13.9-21.79l3.56 8.89c.9-.35 87.7-33.49 200 50a205.93 205.93 0 0 1-61.89 141.54z" />
  <circle cx="244.05" cy="246.6" r="63.58" />
  <circle cx="180.78" cy="198.14" r="47.87" />
  <path d="M180.78 255.62a57.48 57.48 0 1 1 57.48-57.48 57.54 57.54 0 0 1-57.48 57.48zm0-95.74A38.26 38.26 0 1 0 219 198.14a38.31 38.31 0 0 0-38.22-38.26z" />
</svg>
