<svg
  xmlns="http://www.w3.org/2000/svg"
  viewBox="0 0 500 500"
  width="500"
  height="500"
  fill="#ffffff"
>
  <path d="M341.77 96.77A152.42 152.42 0 0 0 250 127.38c-1-.72-2-1.4-2.94-2.1l-.56-.41c-1.72-1.21-3.45-2.39-5.22-3.53l-.81-.52a152.57 152.57 0 0 0-5.18-3.17c-.35-.21-.71-.41-1.07-.61-1.68-1-3.37-1.91-5.09-2.81l-1.38-.7c-1.65-.85-3.3-1.67-5-2.45-.55-.26-1.12-.51-1.68-.76-1.61-.73-3.22-1.44-4.86-2.11-.67-.28-1.34-.53-2-.8-1.56-.61-3.12-1.22-4.7-1.78-.79-.28-1.58-.54-2.37-.8-1.5-.51-3-1-4.52-1.47-.9-.28-1.82-.52-2.72-.78-1.44-.41-2.88-.82-4.33-1.18-1-.26-2.07-.48-3.11-.72-1.36-.31-2.72-.64-4.09-.91-1.18-.24-2.37-.43-3.56-.64s-2.51-.46-3.78-.65-2.73-.35-4.09-.52c-1.13-.14-2.25-.3-3.39-.42-1.61-.16-3.25-.26-4.87-.37-.92-.06-1.82-.15-2.74-.2q-3.83-.19-7.71-.2a152.59 152.59 0 0 0-102.18 39.17c-2.09 1.87-4.14 3.78-6.12 5.76s-3.89 4-5.77 6.12A152.61 152.61 0 0 0 5 250c0 84.49 68.74 153.23 153.22 153.23q3.89 0 7.71-.2c.92 0 1.82-.14 2.74-.2 1.63-.11 3.26-.21 4.87-.37 1.14-.12 2.26-.28 3.39-.42 1.37-.17 2.74-.32 4.09-.52s2.52-.43 3.78-.65 2.38-.4 3.56-.64c1.37-.27 2.73-.6 4.09-.91 1-.24 2.08-.46 3.11-.72 1.45-.36 2.89-.77 4.33-1.18.9-.26 1.82-.5 2.72-.78 1.52-.46 3-1 4.52-1.47.79-.27 1.58-.52 2.36-.8 1.59-.56 3.15-1.17 4.72-1.79.66-.26 1.33-.51 2-.79 1.64-.67 3.26-1.38 4.87-2.11l1.67-.76c1.69-.78 3.35-1.6 5-2.45l1.36-.7q2.59-1.35 5.11-2.81l1.06-.61q2.63-1.53 5.19-3.18l.79-.5q2.65-1.73 5.24-3.55l.54-.39c1-.7 2-1.38 2.95-2.11a152.42 152.42 0 0 0 91.77 30.61C426.26 403.23 495 334.49 495 250S426.26 96.77 341.77 96.77zM250 326.63a119.35 119.35 0 0 1 0-153.26 119.35 119.35 0 0 1 0 153.26zm91.77 43a119 119 0 0 1-66.86-20.48 152.79 152.79 0 0 0 0-198.3 119.61 119.61 0 1 1 66.86 218.78z" />
</svg>
