<svg
  xmlns="http://www.w3.org/2000/svg"
  viewBox="0 0 500 500"
  width="500"
  height="500"
  fill="#000000"
>
  <path d="M391.74 263.32V68.18A63.25 63.25 0 0 0 328.57 5H75.38a63.25 63.25 0 0 0-63.17 63.18v253.19a63.24 63.24 0 0 0 63.17 63.17h179a116.78 116.78 0 1 0 137.36-121.22zm-109.19 38.79l-39.39-39.39 48.38-48.38L342.23 265a117 117 0 0 0-59.68 37.11zM75.38 43.93h253.19a24.27 24.27 0 0 1 24.25 24.25v152.39l-61.28-61.28-75.91 75.9-104.31-104.31-60.19 60.19V68.18a24.27 24.27 0 0 1 24.25-24.25zM51.13 321.37v-75.25l60.19-60.18 150.62 150.61q-1.69 4.45-3 9.06H75.38a24.28 24.28 0 0 1-24.25-24.24zM371 456.07a77.86 77.86 0 1 1 77.86-77.85A77.93 77.93 0 0 1 371 456.07z" />
  <path d="M404.66 358H390.5v-14.2a19.46 19.46 0 1 0-38.92 0V358h-14.16a19.46 19.46 0 1 0 0 38.92h14.16V411a19.46 19.46 0 1 0 38.92 0v-14.12h14.16a19.46 19.46 0 1 0 0-38.92z" />
  <circle cx="232.78" cy="90.95" r="20.18" />
</svg>
