<svg
  xmlns="http://www.w3.org/2000/svg"
  viewBox="0 0 500 500"
  width="500"
  height="500"
  fill="#000000"
>
  <path d="M416.85 113h-46.69L311 53.82l-125.59.32L126.64 113h-7.77V96.45a18.64 18.64 0 0 0-18.61-18.62H79.14a18.64 18.64 0 0 0-18.62 18.62v18.25c0 .54.12 1 .16 1.57A78.26 78.26 0 0 0 5 191.09V368a78.23 78.23 0 0 0 78.14 78.15h333.71A78.24 78.24 0 0 0 495 368V191.09A78.23 78.23 0 0 0 416.85 113zM193.93 74.53l108.67-.27 35.34 35.34H158.87zm-113 23.72h17.53v14.65H80.94zm377.68 309.53H41.39a57.46 57.46 0 0 1-16-39.75V191.09a57.79 57.79 0 0 1 57.72-57.73h333.74a57.61 57.61 0 0 1 45.2 21.92h-60.8a24.66 24.66 0 0 0-24.64 24.64v4.62a24.66 24.66 0 0 0 24.64 24.64h73.33V368a57.46 57.46 0 0 1-15.97 39.78zm13.83-232.08a57.32 57.32 0 0 1 2 13.06h-73.19a4.22 4.22 0 0 1-4.22-4.22v-4.62a4.22 4.22 0 0 1 4.22-4.22z" />
  <path d="M255.31 138.76a130 130 0 0 0 0 259.94c71.67 0 130-58.3 130-130s-58.31-129.94-130-129.94zm60.37 221.3H196.55v1a109.51 109.51 0 1 1 119.13-1z" />
  <path d="M254.22 175.44a93.24 93.24 0 0 0-93.13 93.13h20.42a72.8 72.8 0 0 1 72.71-72.72z" />
  <path d="M255.31 248.07A20.66 20.66 0 1 0 276 268.73a20.69 20.69 0 0 0-20.69-20.66z" />
</svg>
