<svg
  xmlns="http://www.w3.org/2000/svg"
  viewBox="0 0 500 500"
  width="500"
  height="500"
  fill="#000000"
>
  <path d="M288.86 272.3a99.09 99.09 0 0 1 22.91-17.19l-6 30.12 106.84-36.05-84.63-74.51-7.32 36.47a133 133 0 0 0-58.4 34.51c-22.82 22.81-36.58 52.12-38.75 82.52-2.25 31.42 8 60.24 29 81.16l26.65-26.66c-13.07-13.07-19.47-31.47-18-51.81 1.42-21.36 11.29-42.16 27.7-58.56z" />
  <path d="M431.1 294.38c13.07 13.07 19.47 31.47 18 51.81-1.52 21.36-11.4 42.16-27.8 58.56A99.42 99.42 0 0 1 398.4 422l6.05-30.13-106.84 36 84.63 74.51 7.32-36.47A133.08 133.08 0 0 0 448 431.4c22.82-22.81 36.58-52.11 38.75-82.52 2.24-31.42-8-60.24-29-81.15z" />
  <path d="M5-2.38v490h167.08V163.81l322.92.95V-2.38zM457.31 127l-53.53-.16V91.91h-37.69v34.78l-43.52-.13V91.91h-37.69v34.54l-43.52-.13V91.91h-37.69v34.3l-69.28-.2v67h-34.21v37.69h34.21v43.52h-34.21V312h34.21v43.52h-34.21v37.69h34.21v56.77h-91.7V35.31h414.62z" />
</svg>
