<svg xmlns="http://www.w3.org/2000/svg" viewBox="0 0 500 500">
  <g id="photos-lens">
    <path id="lens" d="M250,5C114.91,5,5,114.91,5,250S114.91,495,250,495,495,385.09,495,250,385.09,5,250,5ZM427.43,111.88A223.8,223.8,0,0,1,474.67,238c-106.18-80.5-191.19-61-212.22-54.2C288.22,156.35,338.13,120.79,427.43,111.88ZM411.53,93.6C329.1,104.65,280,137.46,252.15,165.45a73.43,73.43,0,0,0-28.32-27.85c11-31.84,31.69-68.73,68.94-108.47A224.78,224.78,0,0,1,411.53,93.6ZM188.9,148.67A52.91,52.91,0,1,1,136,201.57,53,53,0,0,1,188.9,148.67ZM250,25c6.3,0,12.53.33,18.7.84-33.44,37.94-53,73.38-63.92,104.62A72.3,72.3,0,0,0,135.6,152c-6.69-24.57-11.11-53.68-11.75-88.21A223.71,223.71,0,0,1,250,25ZM104.37,78.69c1.88,37.77,8.26,69.13,17.09,95.28A72.78,72.78,0,0,0,188,274.43c3.81,3.08,7.46,5.79,10.86,8.1a61.05,61.05,0,0,0,7.92,10.3c-39.52,1.91-103.71-9.9-178.6-80A224.91,224.91,0,0,1,104.37,78.69ZM66.14,379.45A223.64,223.64,0,0,1,25,250c0-4.24.14-8.44.37-12.62C95.31,298.7,156.78,313,198.83,313a171,171,0,0,0,35.67-3.65,60.54,60.54,0,0,0,14,2.07C221.31,340.52,167.41,376.37,66.14,379.45Zm15.28,19.33C204.36,391,258.81,335.6,280.24,303.47a61,61,0,0,0,14.46-11.59c2.41,39.27-8.55,104.31-79.67,180.39A224.85,224.85,0,0,1,81.42,398.78ZM250,475c-3.43,0-6.84-.11-10.24-.26,86.29-98.76,78.89-180.57,70.15-214.49a60.11,60.11,0,0,0,.77-9.16c0-1.59-.12-3.15-.24-4.7C340.1,272.44,378.87,326.53,382.1,432A223.78,223.78,0,0,1,250,475Zm151.39-58.69C392.64,279.57,324.77,227.7,296,211.77a60.65,60.65,0,0,0-14.46-12.24c31.34-6.16,104.33-9,193,63.87A224.53,224.53,0,0,1,401.39,416.31Z"/>
  </g>
</svg>
