<svg
  xmlns="http://www.w3.org/2000/svg"
  viewBox="0 0 500 500"
  width="500"
  height="500"
  fill="#000000"
>
  <path d="M363.32 35.17a131.63 131.63 0 0 0-111.79 62.32A133.06 133.06 0 0 0 138 33.77c-73.35 0-133 59.68-133 133a132.93 132.93 0 0 0 33.13 87.85l211.74 211.61 27.86-27.9 183.6-183.18.89-1A131.94 131.94 0 0 0 495 167.1c0-72.75-59.07-131.93-131.68-131.93zM433 227.71L249.8 410.43 67.33 228.15a93.61 93.61 0 1 1 164.31-61.35v.3h39.42c0-51 41.39-92.5 92.26-92.5s92.25 41.49 92.25 92.5A92.52 92.52 0 0 1 433 227.71z" />
</svg>
