<svg
  xmlns="http://www.w3.org/2000/svg"
  viewBox="0 0 500 500"
  width="500"
  height="500"
  fill="#000000"
>
  <path d="M398.11 314.09a90.4 90.4 0 0 0-76 41.6l-136.18-70.23a89.82 89.82 0 0 0 3.89-59.75l139.32-71.85a91.32 91.32 0 1 0-18.24-34.7l-139.44 71.92a90.92 90.92 0 1 0-8.73 126.51l145.77 75.19a90.41 90.41 0 1 0 89.61-78.69zm0-269.89a51.26 51.26 0 1 1-51.26 51.26 51.31 51.31 0 0 1 51.26-51.26zm-295.8 257.37A51.68 51.68 0 1 1 154 249.89a51.73 51.73 0 0 1-51.69 51.68zm295.8 154.23a51.26 51.26 0 1 1 51.25-51.26 51.31 51.31 0 0 1-51.25 51.26z" />
</svg>
