<svg
  xmlns="http://www.w3.org/2000/svg"
  viewBox="0 0 500 500"
  width="500"
  height="500"
  fill="#ffffff"
>
  <path d="M437 118.9a75.26 75.26 0 0 0-54.16-55.46 63 63 0 0 0-62.71-58.36H67.93A63 63 0 0 0 5 68v252.2a63 63 0 0 0 58.52 62.7A75.26 75.26 0 0 0 119 437a75.19 75.19 0 0 0 73.06 58h227.83A75.2 75.2 0 0 0 495 419.8V192a75.19 75.19 0 0 0-58-73.1zM320.13 344.36h-2.51l-82.57-82.57 48.19-48.18 61 61v45.56a24.18 24.18 0 0 1-24.11 24.19zM67.93 43.86h252.2A24.18 24.18 0 0 1 344.28 68v151.8l-61-61-75.61 75.61-103.94-103.94-60 60V68a24.18 24.18 0 0 1 24.2-24.14zM43.77 320.21v-74.95l60-59.95 159 159.05H67.93a24.18 24.18 0 0 1-24.16-24.15zm61.57 62.93h214.79a63 63 0 0 0 62.92-62.93v-215a36.32 36.32 0 0 1 17.21 30.84v227.83a36.38 36.38 0 0 1-36.34 36.33H136.1a36.32 36.32 0 0 1-30.76-17.07zm350.89 36.66a36.38 36.38 0 0 1-36.34 36.34H192.06a36.29 36.29 0 0 1-30.8-17.14h202.66A75.2 75.2 0 0 0 439 363.88V161.15A36.32 36.32 0 0 1 456.23 192z" />
  <circle cx="224.71" cy="90.7" r="20.1" />
</svg>
