<svg xmlns="http://www.w3.org/2000/svg" viewBox="0 0 500 500">
  <g id="photos-times-added-to-gallery">
    <polygon id="string" points="337.89 168.9 250.33 81.34 162.77 168.9 133.63 139.76 250.33 23.06 367.03 139.76 337.89 168.9" style="fill: #666667"/>
    <rect id="sky" x="76.21" y="164.49" width="348.68" height="221.98" style="fill: #71c8f0"/>
    <polygon id="back-mountain" points="440.19 377.16 354.04 291.01 267.89 377.16 380.37 487.71 435.02 450.75 440.19 377.16" style="fill: #696"/>
    <polygon id="front-mountain" points="385.03 474.73 173.1 262.79 56.33 370.93 79.76 472.04 385.03 474.73" style="fill: #006635"/>
    <path id="frame" d="M389.83,495H110.17a67,67,0,0,1-66.88-66.88V203.48a67,67,0,0,1,66.88-66.88H389.83a67,67,0,0,1,66.88,66.88V428.12A67,67,0,0,1,389.83,495ZM110.17,177.81A25.7,25.7,0,0,0,84.5,203.48V428.12a25.7,25.7,0,0,0,25.67,25.67H389.83a25.7,25.7,0,0,0,25.67-25.67V203.48a25.7,25.7,0,0,0-25.67-25.67Z" style="fill: #640c0d"/>
    <circle id="sun" cx="284.46" cy="230.97" r="18.79" style="fill: #faf39a"/>
    <circle id="nail" cx="250.33" cy="33.48" r="28.48" style="fill: #333"/>
  </g>
</svg>
