<svg xmlns="http://www.w3.org/2000/svg" viewBox="0 0 500 500">
  <g id="photos-share">
    <path id="share-triangle" d="M398.11,314.09a90.4,90.4,0,0,0-76,41.6L185.93,285.46a89.82,89.82,0,0,0,3.89-59.75l139.32-71.85a91.32,91.32,0,1,0-18.24-34.7L171.46,191.08a90.92,90.92,0,1,0-8.73,126.51L308.5,392.78a90.41,90.41,0,1,0,89.61-78.69Zm0-269.89a51.26,51.26,0,1,1-51.26,51.26A51.31,51.31,0,0,1,398.11,44.2ZM102.31,301.57A51.68,51.68,0,1,1,154,249.89,51.73,51.73,0,0,1,102.31,301.57ZM398.11,455.8a51.26,51.26,0,1,1,51.25-51.26A51.31,51.31,0,0,1,398.11,455.8Z"/>
  </g>
</svg>
