<svg xmlns="http://www.w3.org/2000/svg" viewBox="0 0 500 500">
  <g id="photos-favorites">
    <path id="outline" d="M437,118.9a75.25,75.25,0,0,0-54.16-55.46A63,63,0,0,0,320.13,5.08H67.92A63,63,0,0,0,5,68v252.2a63,63,0,0,0,58.52,62.7A75.26,75.26,0,0,0,119,437a75.19,75.19,0,0,0,73.06,58H419.89A75.2,75.2,0,0,0,495,419.8V192A75.19,75.19,0,0,0,437,118.9ZM43.77,320.21V68A24.18,24.18,0,0,1,67.92,43.86H320.13A24.18,24.18,0,0,1,344.28,68v252.2a24.18,24.18,0,0,1-24.15,24.15H67.92A24.18,24.18,0,0,1,43.77,320.21Zm61.57,62.93H320.13a63,63,0,0,0,62.92-62.93v-215a36.32,36.32,0,0,1,17.21,30.84V363.88a36.38,36.38,0,0,1-36.34,36.33H136.1A36.32,36.32,0,0,1,105.34,383.14ZM456.23,419.8a36.38,36.38,0,0,1-36.34,36.34H192.06A36.29,36.29,0,0,1,161.26,439H363.92A75.2,75.2,0,0,0,439,363.88V161.15A36.32,36.32,0,0,1,456.23,192Z"/>
    <path id="heart" d="M182,300.83l14,13.84L308.77,202.21l.87-.93a76.8,76.8,0,0,0-114.89-102A77.44,77.44,0,1,0,78.37,201.52ZM136.54,111.68a38.73,38.73,0,0,1,38.68,38.69v.15H214a38,38,0,1,1,66.9,24.73l-85.24,85L107,175.34a38.69,38.69,0,0,1,29.55-63.66Z"/>
  </g>
</svg>
