<svg
  xmlns="http://www.w3.org/2000/svg"
  viewBox="0 0 500 500"
  width="500"
  height="500"
  fill="#ffffff"
>
  <path d="M194.82 150.16a99.34 99.34 0 1 0 99.34 99.34 99.45 99.45 0 0 0-99.34-99.34zm0 161.38a62 62 0 1 1 62-62 62.11 62.11 0 0 1-62 62z" />
  <circle cx="194.62" cy="246.47" r="24" />
  <path d="M392.3 255.89v-72.64l.18-118.88c0-5.23-3.77-9.47-8.43-9.47H318c-4.66 0-8.44 4.24-8.44 9.47V88h-8.06l-46.75-67.3-115.61.42L92.66 88h-6.94A80.81 80.81 0 0 0 5 168.71v161.66a80.81 80.81 0 0 0 80.72 80.72h194.34a111.91 111.91 0 1 0 112.24-155.2zM158.68 58.35l76.59-.28 19.81 28.52h-116zm112.49 309c0 2.15.07 4.28.19 6.4H85.72a43.46 43.46 0 0 1-43.41-43.42V168.71a43.45 43.45 0 0 1 43.41-43.41h225.86A43.45 43.45 0 0 1 355 168.71v90.34a112.1 112.1 0 0 0-83.83 108.34zM383.08 442a74.61 74.61 0 1 1 74.61-74.61A74.69 74.69 0 0 1 383.08 442z" />
  <path d="M415.33 348h-13.56v-13.59a18.66 18.66 0 0 0-37.31 0V348h-13.57a18.66 18.66 0 0 0 0 37.31h13.57v13.57a18.66 18.66 0 0 0 37.31 0v-13.59h13.56a18.66 18.66 0 1 0 0-37.31z" />
</svg>
