<svg xmlns="http://www.w3.org/2000/svg" viewBox="0 0 500 500">
  <g id="photos-camera">
    <path id="outline" d="M416.85,113H370.16L311,53.82l-125.59.32L126.64,113h-7.77V96.45a18.64,18.64,0,0,0-18.61-18.62H79.14A18.64,18.64,0,0,0,60.52,96.45V114.7c0,.54.12,1,.16,1.57A78.26,78.26,0,0,0,5,191.09V368a78.23,78.23,0,0,0,78.14,78.15H416.85A78.24,78.24,0,0,0,495,368V191.09A78.23,78.23,0,0,0,416.85,113ZM193.93,74.53l108.67-.27,35.34,35.34H158.87Zm-113,23.72H98.46V112.9H80.94ZM458.61,407.78H41.39a57.46,57.46,0,0,1-16-39.75V191.09a57.79,57.79,0,0,1,57.72-57.73H416.85a57.61,57.61,0,0,1,45.2,21.92h-60.8a24.66,24.66,0,0,0-24.64,24.64v4.62a24.66,24.66,0,0,0,24.64,24.64h73.33V368A57.46,57.46,0,0,1,458.61,407.78ZM472.44,175.7a57.32,57.32,0,0,1,2,13.06H401.25a4.22,4.22,0,0,1-4.22-4.22v-4.62a4.22,4.22,0,0,1,4.22-4.22Z"/>
    <path id="lens" d="M255.31,138.76a130,130,0,0,0,0,259.94c71.67,0,130-58.3,130-130S327,138.76,255.31,138.76Zm60.37,221.3H196.55v1a109.51,109.51,0,1,1,119.13-1Z"/>
    <path id="lens-arch" d="M254.22,175.44a93.24,93.24,0,0,0-93.13,93.13h20.42a72.8,72.8,0,0,1,72.71-72.72Z"/>
    <path id="lens-inside" d="M255.31,248.07A20.66,20.66,0,1,0,276,268.73,20.69,20.69,0,0,0,255.31,248.07Z"/>
  </g>
</svg>
