<svg
  xmlns="http://www.w3.org/2000/svg"
  viewBox="0 0 500 500"
  width="500"
  height="500"
  fill="#ffffff"
>
  <path d="M236.83 433.32a18.37 18.37 0 0 0 25.94 0l.76-.76 184-183.46A112 112 0 0 0 475.4 175c0-62-50.16-112.27-112-112.27a112.1 112.1 0 0 0-107.49 80.63 52.32 52.32 0 0 0-6.55-.46c-.85 0-1.67.08-2.51.12a113.4 113.4 0 0 0-118.21-81.33c-55 4.41-99.58 49.2-103.71 104.25a113.07 113.07 0 0 0 27.9 83.61l184 183.77z" />
  <path d="M249.81 458.26A37.89 37.89 0 0 1 223 447.19L38.11 262.5a132.26 132.26 0 0 1-32.72-98C10.23 99.91 62.54 47.32 127.08 42.16a133.92 133.92 0 0 1 124.45 63.41c23.63-37.95 65.82-62.45 111.85-62.45C436 43.12 495 102.28 495 175a131.88 131.88 0 0 1-32.77 87.06l-.88.94-184.77 184.23a37.8 37.8 0 0 1-26.77 11.03zm.87-38.81zM67.15 236.15l182.66 182.42 183.38-182.85A92.73 92.73 0 0 0 455.8 175c0-51.1-41.46-92.67-92.42-92.67a92.94 92.94 0 0 0-88.68 66.54l-4.7 16.07-16.62-2.15a30.75 30.75 0 0 0-4-.3l-1.61.1-15.41.71-4.36-14.82c-12.35-42.51-53.47-70.83-97.8-67.25-45.47 3.64-82.32 40.68-85.73 86.18a93.35 93.35 0 0 0 22.68 68.74z" />
  <ellipse
    cx="104.49"
    cy="96.38"
    rx="31.42"
    ry="23.75"
    transform="rotate(-39.07 104.49 96.382)"
  />
</svg>
