<svg xmlns="http://www.w3.org/2000/svg" viewBox="0 0 500 500" fill="#000000">
  <rect x="39.23" y="150.18" width="426.62" height="220.62" fill="#9594c8" />
  <polygon
    points="310.13 58.29 348.86 122.32 190.28 122.32 228.8 58.63 310.13 58.29"
    fill="#9594c8"
  />
  <rect x="37.94" y="361.12" width="426.62" height="75.18" fill="#669" />
  <circle cx="275.04" cy="284.48" r="118.17" fill="#669998" />
  <path
    d="M216 284.77h-39.22A99.29 99.29 0 0 1 276 185.59v39.19a60.06 60.06 0 0 0-60 59.99z"
    fill="#fff"
  />
  <path
    d="M275 310.88a29.63 29.63 0 1 1 29.63-29.63A29.67 29.67 0 0 1 275 310.88zm0-39.19a9.56 9.56 0 1 0 9.56 9.56 9.57 9.57 0 0 0-9.56-9.56z"
    fill="#336"
  />
  <path
    d="M345.39 353.57l-27.92-27.51a60.21 60.21 0 0 0 17.28-43.27l39.18-.73a99.49 99.49 0 0 1-28.54 71.51z"
    fill="#eecde1"
  />
  <path
    d="M455.81 360.41v16.15a45.65 45.65 0 0 1-45.6 45.6H278.44c74.4-1.81 134.37-62.85 134.37-137.68 0-76-61.8-137.77-137.77-137.77s-137.77 61.8-137.77 137.77c0 74.83 60 135.87 134.38 137.68H89.92a45.65 45.65 0 0 1-45.6-45.6v-16.15H5.13v16.15a84.88 84.88 0 0 0 84.79 84.79h320.29A84.88 84.88 0 0 0 495 376.56v-16.15zm-279.35-75.93A98.58 98.58 0 1 1 275 383.06a98.69 98.69 0 0 1-98.54-98.58z"
    fill="#336"
  />
  <path
    d="M494.94 93c0-4.79-3.61-8.67-8.07-8.67H394.1c-4.45 0-8.06 3.88-8.06 8.67v28.5h-14.78l-50.1-82.85-103.44.43-49.84 82.42H89.79A84.89 84.89 0 0 0 5 206.29V361.6h39.19V206.29a45.66 45.66 0 0 1 45.6-45.6h125.35a137.79 137.79 0 0 0-54.58 200.54h37.78l7-7a98.59 98.59 0 1 1 139.63 0l7 7h37.79a137.79 137.79 0 0 0-54.58-200.54h74.94a45.66 45.66 0 0 1 45.6 45.6v155.1h39.19V225.06c0-.25.07-.48.07-.74zM225 102.73l14.84-24.55 59.24-.25 15 24.8z"
    fill="#669"
  />
</svg>
