<svg xmlns="http://www.w3.org/2000/svg" viewBox="0 0 500 500">
  <defs>
    <style>
      .cls-1 {
        stroke: #000;
        stroke-miterlimit: 10;
      }
    </style>
  </defs>
  <g id="pin">
    <path id="outline" class="cls-1" d="M276.38,5,262.19,19.19c-20.66,20.66-23.57,57.17-8.43,97.39l-86.09,86.09C110.9,181.27,55,189.48,19.19,225.24L5,239.43,118.6,353l-98.8,98.8A20.06,20.06,0,1,0,48.18,480.2L147,381.4,260.57,495l14.19-14.18c36.83-36.83,46.09-94.88,25-150.92l83.46-83.46c40.09,16,75.9,13.07,97.59-8.63L495,223.62ZM431.07,216.51c-12.13,0-27.33-4.07-43.48-12l-13-6.42L262.21,310.7,252,321.07l5.88,12.62c16.79,36.1,16.6,74.86.78,102.62L63.78,241.45c26.49-14.62,63.07-13.82,100.23,3.14l12.59,5.75L282,145.08l19.71-19.33-6-12.87C288,96.22,284.55,81.33,284.35,69.72L431.14,216.51Z"/>
  </g>
</svg>
