<svg xmlns="http://www.w3.org/2000/svg" viewBox="0 0 500 500">
  <g id="placeholder">
    <path id="head" d="M153.6,157.3h.2a109.5,109.5,0,0,0,201.1,0h.2a109.5,109.5,0,0,0,8.7-42.8v-.4a108.7,108.7,0,0,0-8.7-42.8h-.2a109.4,109.4,0,0,0-201.1,0h-.2a108.7,108.7,0,0,0-8.7,42.8v.4A109.5,109.5,0,0,0,153.6,157.3ZM296,62.4c10.4,0,18.8,12.5,18.8,28.1s-8.4,28-18.8,28-18.8-12.5-18.8-28S285.6,62.4,296,62.4Zm-83.3,0c10.4,0,18.8,12.5,18.8,28.1s-8.4,28-18.8,28-18.8-12.5-18.8-28S202.3,62.4,212.7,62.4Z"/>
    <path id="body" d="M453.3,470.4h0s-.3-2.4-.9-6.8v-.2h0c-3.8-28.3-20.9-135.1-65.5-173.1-51.5-44-137.7-42.7-137.7-42.7s-86.2-1.3-137.7,42.7C62.9,331.8,47,454.9,45.3,469.1h0c-.1.8-.2,1.3-.2,1.3h.2l-.2,13.1s36.4,25.9,90.9,0,92.3,0,92.3,0,36.4,25.9,90.9,0,92.3,0,92.3,0,34.6,17.3,43.4-.3Z"/>
  </g>
</svg>
