<svg
  xmlns="http://www.w3.org/2000/svg"
  viewBox="0 0 500 500"
  width="500"
  height="500"
  fill="#ffffff"
>
  <path d="M191.5 158.4c13.2-2.3 31.8-3.9 58-3.9s45.3 5 57.9 15.2 20.3 25.3 20.3 43.9-6.2 34.3-17.4 45c-14.7 13.8-36.3 20-61.7 20a100.8 100.8 0 0 1-14.6-.9v67.8h-42.5zm42.5 86.1c3.7.9 8.2 1.1 14.4 1.1 22.7 0 36.8-11.5 36.8-30.9 0-17.5-12.1-27.9-33.5-27.9-8.7 0-14.6.9-17.7 1.7z" />
  <path d="M250 495C114.9 495 5 385.1 5 250S114.9 5 250 5s245 109.9 245 245-109.9 245-245 245zm0-470.8C125.5 24.2 24.2 125.5 24.2 250S125.5 475.8 250 475.8 475.8 374.5 475.8 250 374.5 24.2 250 24.2z" />
</svg>
