<svg xmlns="http://www.w3.org/2000/svg" viewBox="0 0 500 500">
  <defs>
    <style>
      .cls-1 {
        fill: #060606;
      }

      .cls-2 {
        fill: #c5a043;
      }

      .cls-3 {
        fill: #67a6d5;
      }

      .cls-4 {
        fill: #2c2c2c;
      }

      .cls-5 {
        fill: #d6d6d6;
      }
    </style>
  </defs>
  <g id="pohl-head">
    <path id="hair-background" class="cls-1" d="M69.09,390.29S65.68,289,122.59,240c0,0,11.38,8,43.26-22.77s89.92-28.45,116.1-23.9,105.87,19.35,105.87,19.35,58.05,84.23,53.5,159.36c0,0,22.76,3.42,43.25-11.38,0,0-10.41-10.24-4.23-27.87,0,0,19.74-10.55,13.41-45.52s-20-79.85-26.6-86.68c0,0,10.7-2,17.76,5.46,0,0,2.8-17.61-38.65-37.59s-25-46.94-25-46.94,4.06-1.9-11.24-1.32S400,98.89,398,93.12s-16.45-28-20.78-29.72-6.06,4.33-6.06,4.33,16.16,44.72,15.29,49.63-36.35-35.78-38.95-35.78-2.88,6.92,2.89,14.71a173.3,173.3,0,0,1,11.54,18.76s-17.31-7.22-24.24-12.12S295.75,75.21,237.05,67.65s-120.52,12-120.52,12-14.68,12-13.79,16c0,0,11.21-1.86,7.43,3.63S79.18,114,52,142.77,9.68,221.86,9.68,221.86s-12,35.15,2.4,66.3,24,33.55,8.78,88.67C20.86,376.83,31.84,379,69.09,390.29Z"/>
    <path id="hair" class="cls-2" d="M62.79,277.51s14.25,1.14,66.12-63.84c0,0,42.18-38.76,144.77-34.77,0,0,45,2.85,79.8,17.1,0,0,5.7,6.27,27.36-2.85,0,0,18.24-5.13,31.35,29.64s43.32,86.07,43.32,86.07,49.59-40.47-17.67-126c0,0-16,17.1-42.18,2.28s-31.35-10.83-49.59-50.72c0,0-31.92-50.16-129.39-53.58,0,0-34.76-9.12-116.27,43.32S44,212.53,44,212.53s-39.33,45.6-4.56,73.53C39.42,286.06,53.67,221.08,62.79,277.51Z"/>
    <polygon id="hair-sliver" class="cls-2" points="41.4 317.67 50.42 305.98 55.76 366.08 49.08 368.09 41.4 317.67"/>
    <path id="frames" class="cls-3" d="M437.15,318.42a234.47,234.47,0,0,0-48.21-10.91,215,215,0,0,0-60.42,1.62c-47.12,11.49-72,11.36-72,11.36h-.26s-24.87.12-72-11.36a214.91,214.91,0,0,0-60.42-1.62,234,234,0,0,0-48.21,10.91,6.63,6.63,0,0,0-4.42,6.27v14.64a6.86,6.86,0,0,0,2.53,5.39c3.76,3,11,11.23,15.23,33.42,5.32,27.68,17.88,41.15,17.88,41.15s13.39,17.2,46.94,18c42.52,1.05,60.77-18.89,60.77-18.89s14.73-14,23.77-42.55c3.47-10.95,7-17,9.81-20.31h15.48c3.38,3.33,7.34,9.36,10.81,20.32,9,28.54,23.78,42.54,23.78,42.54s18.24,19.94,60.77,18.89c33.54-.83,46.94-18,46.94-18s12.55-13.48,17.87-41.16c4.27-22.18,11.47-30.46,15.23-33.42a6.83,6.83,0,0,0,2.53-5.39V324.69A6.63,6.63,0,0,0,437.15,318.42Z"/>
    <path id="right-eyeglass" class="cls-4" d="M347.39,318.26s52.09.88,61.75,15.22,1.47,45.65,1.47,45.65-3.22,29.27-23.12,39.8-48.29,6.73-48.29,6.73S307.59,422.45,293,392s-12.29-45.07-12.29-45.07S278.32,322.06,347.39,318.26Z"/>
    <path id="left-eyeglass" class="cls-4" d="M164.17,318.26s-52.09.88-61.75,15.22S101,379.13,101,379.13s3.22,29.27,23.12,39.8,48.29,6.73,48.29,6.73S204,422.45,218.61,392s12.29-45.07,12.29-45.07S233.24,322.06,164.17,318.26Z"/>
    <path id="left-glint" class="cls-5" d="M118.77,336.57c.55,2,6.8,2.08,14,.15s14.06-6.79,12-7.16c-3.37-.6-6.8-2.08-14-.15S118.23,334.55,118.77,336.57Z"/>
    <path id="right-glint" class="cls-5" d="M300.56,339.61c.55,2,6.8,2.08,14,.14s14.06-6.78,12-7.15c-3.37-.6-6.8-2.08-14-.15S300,337.59,300.56,339.61Z"/>
    <polygon id="code-right-open-carrot" class="cls-5" points="324.02 397.76 298.57 372.3 322.96 347.91 331.59 356.54 315.82 372.3 332.65 389.13 324.02 397.76"/>
    <rect id="code-right-slash" class="cls-5" x="308.13" y="366.73" width="85.71" height="12.21" transform="translate(-120.95 571.53) rotate(-69.56)"/>
    <polygon id="code-right-close-carrot" class="cls-5" points="378.68 397.76 370.05 389.13 386.87 372.3 371.11 356.54 379.74 347.91 404.13 372.3 378.68 397.76"/>
    <polygon id="code-left-open-carrot" class="cls-5" points="135.1 397.89 109.64 372.44 134.03 348.05 142.66 356.68 126.9 372.44 143.73 389.26 135.1 397.89"/>
    <rect id="code-left-slash" class="cls-5" x="119.2" y="366.87" width="85.71" height="12.21" transform="translate(-244.02 394.59) rotate(-69.56)"/>
    <polygon id="code-left-close-carrot" class="cls-5" points="189.76 397.89 181.13 389.26 197.95 372.44 182.19 356.68 190.82 348.05 215.21 372.44 189.76 397.89"/>
  </g>
</svg>
