<svg
  xmlns="http://www.w3.org/2000/svg"
  viewBox="0 0 500 500"
  width="500"
  height="500"
  fill="#000000"
>
  <path d="M248.3 398.5c81.9 0 140.6-16 144.3-17.1l8-2.2-.9-8.2c-.4-4-11-97.6-48.9-130s-98.4-31.6-100.6-31.6-63.3-.6-101 31.6-48.5 126-48.9 130l-.9 8.4 8.2 2.1c50.2 12.8 98.5 17 140.7 17zm-86.4-142.6c31.4-26.8 85-27 88.1-26.9v149.7a557.5 557.5 0 0 1-129.1-14.1c4.2-29.6 17.1-88.2 41-108.7z" />
  <path d="M419.6 313.2l-9.8-3.1c2.2 7.4 4.2 14.7 5.8 21.7 38.3 13.1 60.6 30.2 60.6 46.3 0 33-92.9 69.7-226.2 69.7S23.8 411.1 23.8 378.1c0-16.1 22.3-33.2 60.6-46.4 1.6-6.9 3.6-14.2 5.8-21.6l-9.8 3.1C31.1 329.8 5 352.2 5 378.1s26.1 48.3 75.4 64.9c45.5 15.2 105.7 23.6 169.6 23.6s124.1-8.4 169.6-23.6c49.3-16.6 75.4-39 75.4-64.9s-26.1-48.3-75.4-64.9z" />
  <path d="M176.3 154.8h.3a83 83 0 0 0 146.8 0h.4l2.6-6a82 82 0 0 0 6.6-32.4v-.3a82.1 82.1 0 0 0-6.6-32.5l-2.7-5.9h-.3a83 83 0 0 0-146.8 0h-.4l-2.6 5.9a84.3 84.3 0 0 0-6.6 32.2v.5a82.1 82.1 0 0 0 6.6 32.5zm10.3-39.2a64.9 64.9 0 0 1 3.7-21l1.5-3.3A63.2 63.2 0 0 1 250 53v126.5a63.3 63.3 0 0 1-58.2-38.4l-1.1-2.5a61.5 61.5 0 0 1-4.1-21.7z" />
</svg>
