<svg
  xmlns="http://www.w3.org/2000/svg"
  viewBox="0 0 500 500"
  width="500"
  height="500"
  fill="#000000"
>
  <path d="M94.6 384.1s11.2-103.7 50.5-137.2S250 214.4 250 214.4s65.6-1 104.9 32.5 50.5 137.2 50.5 137.2-147.9 41.4-310.8 0z" />
  <path d="M419.6 311.3l-9.8-3.1c2.2 7.4 4.2 14.7 5.8 21.7 38.3 13.2 60.6 30.2 60.6 46.3 0 33-92.9 69.7-226.2 69.7S23.8 409.2 23.8 376.2c0-16.1 22.3-33.1 60.6-46.3 1.6-7 3.6-14.3 5.8-21.7l-9.8 3.1C31.1 327.9 5 350.3 5 376.2s26.1 48.3 75.4 64.9c45.5 15.3 105.7 23.7 169.6 23.7s124.1-8.4 169.6-23.7c49.3-16.6 75.4-39 75.4-64.9s-26.1-48.3-75.4-64.9z" />
  <path d="M331.3 116.2a80.3 80.3 0 0 0-6.5-31.8h-.1a81.3 81.3 0 0 0-149.4 0h-.1a80.3 80.3 0 0 0-6.5 31.8v.2a80.3 80.3 0 0 0 6.5 31.8h.1a81.3 81.3 0 0 0 149.4 0h.1a80.3 80.3 0 0 0 6.5-31.8v-.2z" />
</svg>
