<svg xmlns="http://www.w3.org/2000/svg" viewBox="0 0 500 500">
  <g id="pre-start-color">
    <g>
      <circle cx="253.1" cy="247.34" r="225.4" style="fill: #ffcc02"/>
      <path d="M398.75,80.66c94.56,81,105.58,223.26,24.61,317.82S200.1,504.05,105.55,423.08" style="fill: #faf39a"/>
      <path d="M250,495C114.91,495,5,385.09,5,250a244.83,244.83,0,0,1,11.91-75.65A19.6,19.6,0,1,1,54.2,186.44,205.5,205.5,0,0,0,44.2,250c0,113.48,92.32,205.8,205.8,205.8S455.8,363.48,455.8,250,363.48,44.2,250,44.2A205,205,0,0,0,175.71,58a19.6,19.6,0,0,1-14.15-36.56A244.12,244.12,0,0,1,250,5C385.09,5,495,114.91,495,250S385.09,495,250,495Z" style="fill: #981b1e"/>
      <circle cx="62.16" cy="127.04" r="20.15" style="fill: #981b1e"/>
    </g>
    <g>
      <path d="M358.08,231.8,202.47,121.93a15.81,15.81,0,0,0-24.92,12.92V354.57a15.8,15.8,0,0,0,24.92,12.91L358.08,257.62A15.8,15.8,0,0,0,358.08,231.8Z" style="fill: #faf39a"/>
      <path d="M193.37,380.19a25.66,25.66,0,0,1-25.62-25.62V134.85a25.61,25.61,0,0,1,40.38-20.92l155.6,109.86h0a25.61,25.61,0,0,1,0,41.84L208.13,375.49A25.57,25.57,0,0,1,193.37,380.19Zm0-251.37a6.27,6.27,0,0,0-2.83.69,5.89,5.89,0,0,0-3.24,5.34V354.57a6,6,0,0,0,9.47,4.9L352.43,249.62a6,6,0,0,0,0-9.82h0L196.82,129.94A5.78,5.78,0,0,0,193.42,128.82Z" style="fill: #981b1e"/>
    </g>
  </g>
</svg>
