<svg
  xmlns="http://www.w3.org/2000/svg"
  viewBox="0 0 500 500"
  width="500"
  height="500"
  fill="#ffffff"
>
  <circle cx="253.1" cy="247.34" r="225.4" />
  <path d="M398.75 80.66c94.56 81 105.58 223.26 24.61 317.82s-223.26 105.57-317.81 24.6" />
  <path d="M250 495C114.91 495 5 385.09 5 250a244.83 244.83 0 0 1 11.91-75.65 19.6 19.6 0 1 1 37.29 12.09 205.5 205.5 0 0 0-10 63.56c0 113.48 92.32 205.8 205.8 205.8S455.8 363.48 455.8 250 363.48 44.2 250 44.2A205 205 0 0 0 175.71 58a19.6 19.6 0 0 1-14.15-36.56A244.12 244.12 0 0 1 250 5c135.09 0 245 109.91 245 245S385.09 495 250 495z" />
  <circle cx="62.16" cy="127.04" r="20.15" />
  <path d="M358.08 231.8L202.47 121.93a15.81 15.81 0 0 0-24.92 12.92v219.72a15.8 15.8 0 0 0 24.92 12.91l155.61-109.86a15.8 15.8 0 0 0 0-25.82z" />
  <path d="M193.37 380.19a25.66 25.66 0 0 1-25.62-25.62V134.85a25.61 25.61 0 0 1 40.38-20.92l155.6 109.86a25.61 25.61 0 0 1 0 41.84l-155.6 109.86a25.57 25.57 0 0 1-14.76 4.7zm0-251.37a6.27 6.27 0 0 0-2.83.69 5.89 5.89 0 0 0-3.24 5.34v219.72a6 6 0 0 0 9.47 4.9l155.66-109.85a6 6 0 0 0 0-9.82L196.82 129.94a5.78 5.78 0 0 0-3.4-1.12z" />
</svg>
