<svg xmlns="http://www.w3.org/2000/svg" viewBox="0 0 500 500">
  <defs>
    <style>
      .cls-1 {
        fill: #005487;
      }
    </style>
  </defs>
  <g id="profile-default-1">
    <g>
      <path class="cls-1" d="M189.86,297.12c0,31,18.44,56.13,46,62.7a58.75,58.75,0,0,0,50.25-11.39,62.67,62.67,0,0,0,24-49.45v-2.06c-2.24-11.46-20.27-98.79-60.11-149.48C210.2,198.89,191.8,287.37,189.86,297.12ZM258,329a9.79,9.79,0,0,1-9.79,9.63h-.17c-20.28-.35-35.4-16.41-35.16-37.37a9.8,9.8,0,0,1,9.8-9.69h.11a9.79,9.79,0,0,1,9.68,9.91c-.09,8.32,4.85,17.37,15.9,17.56A9.8,9.8,0,0,1,258,329Z"/>
      <path class="cls-1" d="M250,71.48C151.56,71.48,71.48,151.56,71.48,250S151.56,428.52,250,428.52,428.52,348.44,428.52,250,348.44,71.48,250,71.48ZM329.73,299a82.2,82.2,0,0,1-31.46,64.84A78.84,78.84,0,0,1,249.36,381a77.53,77.53,0,0,1-18-2.13c-36.9-8.79-61.43-42-61-82.67l.21-2.07c.88-4.59,22.26-113.39,72.26-168.52l7.56-8.34,8,9.54c49.76,54.85,70.41,162.7,71.27,167.26l.19,2.06Z"/>
      <path class="cls-1" d="M250,5C114.69,5,5,114.69,5,250S114.69,495,250,495,495,385.31,495,250,385.31,5,250,5Zm0,443.12C140.75,448.12,51.88,359.25,51.88,250S140.75,51.88,250,51.88,448.12,140.75,448.12,250,359.24,448.12,250,448.12Z"/>
    </g>
  </g>
</svg>
