<svg xmlns="http://www.w3.org/2000/svg" viewBox="0 0 500 500">
  <defs>
    <style>
      .cls-1 {
        fill: #359846;
      }
    </style>
  </defs>
  <g id="profile-default-3">
    <g>
      <path class="cls-1" d="M257.5,138.47l-2.36-1.4c2.46,16.65-2.19,42-30.41,65.57-29.18,24.37-24.36,67.51-24.31,67.94l.07,1.19c0,23.71,18.85,43.55,43.92,48.4-.12-18.09,1.56-67.2,21.7-102.78l17.05,9.66c-11,19.43-15.73,44.39-17.73,64.4,3.85,1.94,12.62,5.32,22.07,1.85,12.71-4.67,23.36-20.59,30.8-46.05C334.57,191.59,291.4,158.51,257.5,138.47Z"/>
      <path class="cls-1" d="M250,71.48C151.56,71.48,71.47,151.56,71.47,250S151.56,428.52,250,428.52,428.52,348.44,428.52,250,348.44,71.48,250,71.48Zm87.11,181.27c-9.44,32.31-24,52.19-43.18,59.07a46,46,0,0,1-29.8.13c-.23,8.56,0,14,0,14.21l0,.49v53.11h-19.6V340c-35.81-5.15-63.37-33.44-63.67-67.66-.68-6.46-4.43-54.92,31.26-84.74,33.53-28,21.93-53.75,21.81-54-4.29-8.53-.82-15.18,3.45-18.27,7.46-5.41,19-2.59,25.42,3.45.75.52,2.81,1.74,4.63,2.82C328.57,157.72,352,201.84,337.11,252.75Z"/>
      <path class="cls-1" d="M250,5C114.69,5,5,114.69,5,250S114.69,495,250,495,495,385.31,495,250,385.31,5,250,5Zm0,443.12C140.75,448.12,51.87,359.25,51.87,250S140.75,51.88,250,51.88,448.12,140.75,448.12,250,359.24,448.12,250,448.12Z"/>
    </g>
  </g>
</svg>
