<svg
  xmlns="http://www.w3.org/2000/svg"
  viewBox="0 0 500 500"
  width="500"
  height="500"
  fill="#ffffff"
>
  <path d="M348.4 280.9c-36.8-31.3-95.9-30.8-98.3-30.8s-61.7-.5-98.4 30.8-47.2 123-47.7 126.9l-.8 7.7 7.6 2c49.1 12.4 96.3 16.6 137.6 16.6 80.1 0 137.5-15.7 141.1-16.7l7.3-2-.8-7.6c-.4-3.9-10.7-95.4-47.6-126.9z" />
  <path d="M178.5 183.5A80.5 80.5 0 0 0 250 227a80.7 80.7 0 0 0 71.5-43.5l2.7-5.4a80.1 80.1 0 0 0 6.4-31.6v-.2a79.2 79.2 0 0 0-6.4-31.5l-2.7-5.5a80.7 80.7 0 0 0-143 0l-2.7 5.5a81.2 81.2 0 0 0-6.4 31.7 80.1 80.1 0 0 0 6.4 31.6z" />
  <path d="M431.5 5h-363A63.6 63.6 0 0 0 5 68.5v363A63.6 63.6 0 0 0 68.5 495h363a63.6 63.6 0 0 0 63.5-63.5v-363A63.6 63.6 0 0 0 431.5 5zm44.7 426.5a44.8 44.8 0 0 1-44.7 44.7h-363a44.8 44.8 0 0 1-44.7-44.7v-363a44.8 44.8 0 0 1 44.7-44.7h363a44.8 44.8 0 0 1 44.7 44.7z" />
</svg>
