<svg
  xmlns="http://www.w3.org/2000/svg"
  viewBox="0 0 500 500"
  width="500"
  height="500"
  fill="#ffffff"
>
  <path d="M189.86 297.12c0 31 18.44 56.13 46 62.7a58.75 58.75 0 0 0 50.25-11.39 62.67 62.67 0 0 0 24-49.45v-2.06c-2.24-11.46-20.27-98.79-60.11-149.48-39.8 51.45-58.2 139.93-60.14 149.68zM258 329a9.79 9.79 0 0 1-9.79 9.63h-.17c-20.28-.35-35.4-16.41-35.16-37.37a9.8 9.8 0 0 1 9.8-9.69h.11a9.79 9.79 0 0 1 9.68 9.91c-.09 8.32 4.85 17.37 15.9 17.56A9.8 9.8 0 0 1 258 329z" />
  <path d="M250 71.48c-98.44 0-178.52 80.08-178.52 178.52S151.56 428.52 250 428.52 428.52 348.44 428.52 250 348.44 71.48 250 71.48zM329.73 299a82.2 82.2 0 0 1-31.46 64.84A78.84 78.84 0 0 1 249.36 381a77.53 77.53 0 0 1-18-2.13c-36.9-8.79-61.43-42-61-82.67l.21-2.07c.88-4.59 22.26-113.39 72.26-168.52l7.56-8.34 8 9.54c49.76 54.85 70.41 162.7 71.27 167.26l.19 2.06z" />
  <path d="M250 5C114.69 5 5 114.69 5 250s109.69 245 245 245 245-109.69 245-245S385.31 5 250 5zm0 443.12c-109.25 0-198.12-88.87-198.12-198.12S140.75 51.88 250 51.88 448.12 140.75 448.12 250 359.24 448.12 250 448.12z" />
</svg>
