<svg
  xmlns="http://www.w3.org/2000/svg"
  viewBox="0 0 500 500"
  width="500"
  height="500"
  fill="#ffffff"
>
  <path
    class="cls-1"
    d="M250 71.48c-98.44 0-178.52 80.08-178.52 178.52S151.56 428.52 250 428.52 428.52 348.44 428.52 250 348.44 71.48 250 71.48zm61.63 270.12h-52.56v53.11h-18.14V341.6h-51.26a15.86 15.86 0 0 1-13.79-23.7l23.63-41.64a15.85 15.85 0 0 1-12.23-23.6l38.1-67.13h-1.61a15.87 15.87 0 0 1-13.8-23.7l27.53-48.51a15.87 15.87 0 0 1 27.6 0l27.53 48.51a15.86 15.86 0 0 1-13.8 23.7h-1.61l38.11 67.13a15.86 15.86 0 0 1-13.49 23.68l23.59 41.56a15.87 15.87 0 0 1-13.8 23.7z"
  />
  <path
    class="cls-1"
    d="M250 5C114.69 5 5 114.69 5 250s109.69 245 245 245 245-109.69 245-245S385.31 5 250 5zm0 443.12c-109.24 0-198.12-88.87-198.12-198.12S140.76 51.88 250 51.88 448.12 140.75 448.12 250 359.25 448.12 250 448.12z"
  />
</svg>
