<svg xmlns="http://www.w3.org/2000/svg" viewBox="0 0 500 500">
  <defs>
    <style>
      .cls-1 {
        fill: #016a4c;
      }
    </style>
  </defs>
  <g id="profile-default-4">
    <g>
      <path class="cls-1" d="M250,71.48C151.56,71.48,71.48,151.56,71.48,250S151.56,428.52,250,428.52,428.52,348.44,428.52,250,348.44,71.48,250,71.48ZM311.63,341.6H259.07v53.11H240.93V341.6H189.67a15.86,15.86,0,0,1-13.79-23.7l23.63-41.64a15.85,15.85,0,0,1-12.23-23.6l38.1-67.13h-1.61a15.87,15.87,0,0,1-13.8-23.7l27.53-48.51a15.87,15.87,0,0,1,27.6,0l27.53,48.51a15.86,15.86,0,0,1-13.8,23.7h-1.61l38.11,67.13a15.86,15.86,0,0,1-13.49,23.68l23.59,41.56A15.87,15.87,0,0,1,311.63,341.6Z"/>
      <path class="cls-1" d="M250,5C114.69,5,5,114.69,5,250S114.69,495,250,495,495,385.31,495,250,385.31,5,250,5Zm0,443.12C140.76,448.12,51.88,359.25,51.88,250S140.76,51.88,250,51.88,448.12,140.75,448.12,250,359.25,448.12,250,448.12Z"/>
    </g>
  </g>
</svg>
