<svg xmlns="http://www.w3.org/2000/svg" viewBox="0 0 500 500">
  <defs>
    <style>
      .cls-1 {
        fill: #231f20;
      }
    </style>
  </defs>
  <g id="progress-report-approved">
    <rect id="bar-2" class="cls-1" x="217.19" y="153.01" width="20.12" height="144.64"/>
    <rect id="bar-3" class="cls-1" x="161.41" y="225.33" width="20.12" height="72.32"/>
    <rect id="bar-4" class="cls-1" x="105.62" y="262.18" width="20.12" height="35.47"/>
    <polygon id="arrow" class="cls-1" points="205.66 132.67 221.23 74.53 163.1 90.11 177.26 104.28 96.87 184.67 111.09 198.9 191.49 118.5 205.66 132.67"/>
    <path id="outline" class="cls-1" d="M44.75,305.51V82a56.94,56.94,0,0,1,56.88-56.88H296.55A56.94,56.94,0,0,1,353.43,82V255.82a132.67,132.67,0,0,1,13.59-.7q3.28,0,6.53.16V82a77.08,77.08,0,0,0-77-77H101.63a77.08,77.08,0,0,0-77,77V305.51a77.08,77.08,0,0,0,77,77H236a131.76,131.76,0,0,1,2.1-20.11H101.63A56.94,56.94,0,0,1,44.75,305.51Z"/>
    <path id="submitted" class="cls-1" d="M364.72,273.7A110.65,110.65,0,1,0,475.37,384.35,110.65,110.65,0,0,0,364.72,273.7Zm-11.91,89.18V332.34h23.82v30.54h22l-33.88,32.71-33.88-32.71ZM429,436.36H300.48V385.9H321.8L360,422.75h8.63l38.18-36.85H429Z"/>
    <path id="bar-1" class="cls-1" d="M293.1,278V97.45H273V294.52A131.3,131.3,0,0,1,293.1,278Z"/>
  </g>
</svg>
