<svg
  xmlns="http://www.w3.org/2000/svg"
  viewBox="0 0 500 500"
  width="500"
  height="500"
  fill="#000000"
>
  <rect x="216.42" y="152.57" width="20.02" height="144.23" />
  <rect x="160.78" y="224.69" width="20.02" height="72.11" />
  <rect x="105.16" y="261.43" width="20.02" height="35.37" />
  <polygon points="220.42 74.32 162.58 89.81 176.68 103.91 96.42 184.16 110.58 198.31 190.83 118.06 204.93 132.15 220.42 74.32" />
  <path d="M236.64 361.39H101a56.65 56.65 0 0 1-56.59-56.59V81.61A56.65 56.65 0 0 1 101 25h194.68a56.65 56.65 0 0 1 56.59 56.59v173a129.92 129.92 0 0 1 13-.65c2.35 0 4.69.07 7 .19V81.61A76.7 76.7 0 0 0 295.68 5H101a76.7 76.7 0 0 0-76.61 76.61V304.8A76.7 76.7 0 0 0 101 381.41h133.62a131.85 131.85 0 0 1 2.02-20.02z" />
  <path d="M365.27 274.32a110.34 110.34 0 1 0 110.34 110.34 110.34 110.34 0 0 0-110.34-110.34zm63.22 78.25l-76.93 76.93a9.9 9.9 0 0 1-14 0l-40.68-40.68a9.91 9.91 0 0 1 14-14l33.67 33.67 69.92-69.92a9.91 9.91 0 0 1 14 14z" />
  <path d="M292.06 276.19v-179h-20v196a131.47 131.47 0 0 1 20-17z" />
</svg>
