<svg
  xmlns="http://www.w3.org/2000/svg"
  viewBox="0 0 500 500"
  width="500"
  height="500"
  fill="#ffffff"
>
  <rect x="217.19" y="153.01" width="20.12" height="144.64" />
  <rect x="161.41" y="225.33" width="20.12" height="72.32" />
  <rect x="105.62" y="262.18" width="20.12" height="35.47" />
  <polygon points="205.66 132.67 221.23 74.53 163.1 90.11 177.26 104.28 96.87 184.67 111.09 198.9 191.49 118.5 205.66 132.67" />
  <path d="M44.75 305.51V82a56.94 56.94 0 0 1 56.88-56.88h194.92A56.94 56.94 0 0 1 353.43 82v173.82a132.67 132.67 0 0 1 13.59-.7q3.28 0 6.53.16V82a77.08 77.08 0 0 0-77-77H101.63a77.08 77.08 0 0 0-77 77v223.51a77.08 77.08 0 0 0 77 77H236a131.76 131.76 0 0 1 2.1-20.11H101.63a56.94 56.94 0 0 1-56.88-56.89z" />
  <path d="M364.72 273.7a110.65 110.65 0 1 0 110.65 110.65A110.65 110.65 0 0 0 364.72 273.7zm-11.91 89.18v-30.54h23.82v30.54h22l-33.88 32.71-33.88-32.71zM429 436.36H300.48V385.9h21.32l38.2 36.85h8.63l38.18-36.85H429z" />
  <path d="M293.1 278V97.45H273v197.07A131.3 131.3 0 0 1 293.1 278z" />
</svg>
