<svg xmlns="http://www.w3.org/2000/svg" viewBox="0 0 500 500">
  <defs>
    <style>
      .cls-1 {
        fill: #231f20;
      }
    </style>
  </defs>
  <g id="progress-report-rejected">
    <rect id="bar-2" class="cls-1" x="216.65" y="152.72" width="20.02" height="144.38"/>
    <rect id="bar-3" class="cls-1" x="160.96" y="224.91" width="20.02" height="72.19"/>
    <rect id="bar-4" class="cls-1" x="105.27" y="261.69" width="20.02" height="35.4"/>
    <polygon id="arrow" class="cls-1" points="220.65 74.38 162.81 89.87 176.91 103.97 96.53 184.35 110.68 198.5 191.06 118.12 205.15 132.22 220.65 74.38"/>
    <path id="outline" class="cls-1" d="M236.27,361.76H101a56.66,56.66,0,0,1-56.6-56.59V81.61A56.66,56.66,0,0,1,101,25h195a56.66,56.66,0,0,1,56.6,56.59V254.28c4.11-.38,8.26-.6,12.47-.6,2.53,0,5.05.09,7.55.23V81.61A76.7,76.7,0,0,0,296.05,5H101A76.7,76.7,0,0,0,24.43,81.61V305.17A76.7,76.7,0,0,0,101,381.78H234.32A130.58,130.58,0,0,1,236.27,361.76Z"/>
    <path id="cross" class="cls-1" d="M365.12,274.09A110.46,110.46,0,1,0,475.57,384.54,110.45,110.45,0,0,0,365.12,274.09ZM419.33,423a12,12,0,1,1-17,17l-38.4-38.41-38.41,38.41a12,12,0,1,1-17-17L347,384.54l-38.41-38.4a12,12,0,1,1,17-17l38.41,38.4,38.4-38.4a12,12,0,0,1,17,17l-38.4,38.4Z"/>
    <path id="bar-1" class="cls-1" d="M292.35,275.67V97.26h-20v195A131.76,131.76,0,0,1,292.35,275.67Z"/>
  </g>
</svg>
