<svg xmlns="http://www.w3.org/2000/svg" viewBox="0 0 500 500">
  <defs>
    <style>
      .cls-1 {
        fill: #231f20;
      }
    </style>
  </defs>
  <g id="progress-report-submitted">
    <rect id="bar-2" class="cls-1" x="216.42" y="152.57" width="20.02" height="144.23"/>
    <rect id="bar-3" class="cls-1" x="160.78" y="224.69" width="20.02" height="72.11"/>
    <rect id="bar-4" class="cls-1" x="105.16" y="261.43" width="20.02" height="35.37"/>
    <polygon id="arrow" class="cls-1" points="220.42 74.32 162.58 89.81 176.68 103.91 96.42 184.16 110.58 198.31 190.83 118.06 204.93 132.15 220.42 74.32"/>
    <path id="outline" class="cls-1" d="M236.64,361.39H101A56.65,56.65,0,0,1,44.41,304.8V81.61A56.65,56.65,0,0,1,101,25H295.68a56.65,56.65,0,0,1,56.59,56.59v173a129.92,129.92,0,0,1,13-.65c2.35,0,4.69.07,7,.19V81.61A76.7,76.7,0,0,0,295.68,5H101A76.7,76.7,0,0,0,24.39,81.61V304.8A76.7,76.7,0,0,0,101,381.41H234.62A131.85,131.85,0,0,1,236.64,361.39Z"/>
    <path id="check" class="cls-1" d="M365.27,274.32A110.34,110.34,0,1,0,475.61,384.66,110.34,110.34,0,0,0,365.27,274.32Zm63.22,78.25L351.56,429.5a9.9,9.9,0,0,1-14,0l-40.68-40.68a9.91,9.91,0,0,1,14-14l33.67,33.67,69.92-69.92a9.91,9.91,0,0,1,14,14Z"/>
    <path id="bar-1" class="cls-1" d="M292.06,276.19v-179h-20v196A131.47,131.47,0,0,1,292.06,276.19Z"/>
  </g>
</svg>
