<svg
  xmlns="http://www.w3.org/2000/svg"
  viewBox="0 0 500 500"
  width="500"
  height="500"
  fill="#ffffff"
>
  <rect x="138.1" y="5" width="23.6" height="40.72" />
  <rect x="338.3" y="5" width="23.6" height="40.72" />
  <path d="M378 62.4H122a88.4 88.4 0 0 0-88.3 88.3v256A88.4 88.4 0 0 0 122 495h256a88.4 88.4 0 0 0 88.3-88.3v-256A88.4 88.4 0 0 0 378 62.4zm64.7 344.3a64.7 64.7 0 0 1-64.7 64.7H122a64.7 64.7 0 0 1-64.7-64.7v-256A64.7 64.7 0 0 1 122 86h256a64.7 64.7 0 0 1 64.7 64.7z" />
  <rect x="113.9" y="143.8" width="72.1" height="72.13" />
  <rect x="213.9" y="143.8" width="72.1" height="72.13" />
  <rect x="314" y="143.8" width="72.1" height="72.13" />
  <rect x="113.9" y="242.6" width="72.1" height="72.13" />
  <rect x="213.9" y="242.6" width="72.1" height="72.13" />
  <rect x="314" y="242.6" width="72.1" height="72.13" />
  <rect x="113.9" y="341.5" width="72.1" height="72.13" />
</svg>
