<svg xmlns="http://www.w3.org/2000/svg" viewBox="0 0 500 500">
  <g id="project-weeks">
    <rect id="line2" x="138.1" y="5" width="23.6" height="40.72"/>
    <rect id="line1" x="338.3" y="5" width="23.6" height="40.72"/>
    <path id="outline" d="M378,62.4H122a88.4,88.4,0,0,0-88.3,88.3v256A88.4,88.4,0,0,0,122,495H378a88.4,88.4,0,0,0,88.3-88.3v-256A88.4,88.4,0,0,0,378,62.4Zm64.7,344.3A64.7,64.7,0,0,1,378,471.4H122a64.7,64.7,0,0,1-64.7-64.7v-256A64.7,64.7,0,0,1,122,86H378a64.7,64.7,0,0,1,64.7,64.7Z"/>
    <rect id="square1" x="113.9" y="143.8" width="72.1" height="72.13"/>
    <rect id="square2" x="213.9" y="143.8" width="72.1" height="72.13"/>
    <rect id="square3" x="314" y="143.8" width="72.1" height="72.13"/>
    <rect id="square4" x="113.9" y="242.6" width="72.1" height="72.13"/>
    <rect id="square5" x="213.9" y="242.6" width="72.1" height="72.13"/>
    <rect id="square6" x="314" y="242.6" width="72.1" height="72.13"/>
    <rect id="square7" x="113.9" y="341.5" width="72.1" height="72.13"/>
  </g>
</svg>
