<svg xmlns="http://www.w3.org/2000/svg" viewBox="0 0 500 500">
  <g id="project-unassignable">
    <polygon id="arrow" points="216 123.5 263.1 56.8 239.8 56.8 239.8 5 192.2 5 192.2 56.8 168.9 56.8 216 123.5"/>
    <path id="head" d="M151.1,229.5h.1a66.7,66.7,0,0,0,122.6,0h.1a66.5,66.5,0,0,0,5.3-26.1h0a66.5,66.5,0,0,0-5.3-26.1h-.1a66.7,66.7,0,0,0-122.6,0h-.1a66.5,66.5,0,0,0-5.3,26.1h0A66.5,66.5,0,0,0,151.1,229.5Z"/>
    <path id="body" d="M309.4,322.8a65.9,65.9,0,0,0-10.8-12.4c-32.2-27.5-86.1-26.7-86.1-26.7s-53.8-.8-86.1,26.7S85,423,85,423c56.6,14.4,110.9,16.6,154.8,14.4a95.8,95.8,0,0,1-3.1-23.5A93.6,93.6,0,0,1,309.4,322.8Z"/>
    <path id="cross-2" data-name="cross" d="M334.6,334.1A80.5,80.5,0,1,0,415,414.6,80.4,80.4,0,0,0,334.6,334.1Zm40.2,107.7a9.6,9.6,0,0,1,0,13.8,9.7,9.7,0,0,1-13.8,0l-27.3-27.2-27.2,27.2a9.7,9.7,0,0,1-13.8,0,9.6,9.6,0,0,1,0-13.8l27.2-27.2-27.2-27.3a9.6,9.6,0,0,1,0-13.8,9.8,9.8,0,0,1,13.8,0l27.2,27.2L361,373.5a9.8,9.8,0,0,1,13.8,0,9.6,9.6,0,0,1,0,13.8l-27.2,27.3Z"/>
  </g>
</svg>
