<svg
  xmlns="http://www.w3.org/2000/svg"
  viewBox="0 0 500 500"
  width="500"
  height="500"
  fill="#000000"
>
  <path d="M335.2 335.5a79.8 79.8 0 1 0 79.7 79.8 79.8 79.8 0 0 0-79.7-79.8zm49 60.8L327.5 453a9.8 9.8 0 0 1-13.9 0l-30-30a9.8 9.8 0 0 1 13.9-13.8l23.1 23 49.8-49.8a9.8 9.8 0 0 1 13.8 13.9z" />
  <polygon points="216.4 123.7 263.6 56.9 240.2 56.9 240.2 5 192.5 5 192.5 56.9 169.2 56.9 216.4 123.7" />
  <path d="M151.4 229.9h.1a66.9 66.9 0 0 0 122.8 0h.1a66.9 66.9 0 0 0 5.3-26.1v-.2a66.5 66.5 0 0 0-5.3-26.1h-.1a66.8 66.8 0 0 0-122.8 0h-.1a66.5 66.5 0 0 0-5.3 26.1v.2a66.9 66.9 0 0 0 5.3 26.1z" />
  <path d="M309.9 323.4a57.3 57.3 0 0 0-10.8-12.4c-32.3-27.6-86.2-26.8-86.2-26.8s-54-.8-86.3 26.8-41.5 112.8-41.5 112.8c56.7 14.4 111.1 16.6 155.1 14.3a95.2 95.2 0 0 1-3.1-23.5 93.8 93.8 0 0 1 72.8-91.2z" />
</svg>
