<svg
  xmlns="http://www.w3.org/2000/svg"
  viewBox="0 0 500 500"
  width="500"
  height="500"
  fill="#000000"
>
  <path d="M465.1 459H110.9L83 488.4a12.7 12.7 0 0 0 4.7.9h377.4c7.9 0 14.4-6.7 14.4-15.1S473 459 465.1 459z" />
  <rect
    x="180.3"
    y="139.1"
    width="16.7"
    height="95.81"
    transform="rotate(-45 188.557 186.997)"
  />
  <path d="M108 47.5L96.6 36l-.4-.3S52 45.4 37.3 94.6l.3.3 11.5 11.5 143.8 143.8 11.8-11.7-90.4-90.5 35.3-35.4 90.7 90.7 11.8-11.7zM55.9 89.6a85.5 85.5 0 0 1 35.3-35.4l23.1 23.1-35.4 35.3zm46.6 46.6l-11.8-11.8 35.4-35.3 11.7 11.8z" />
  <path d="M212.2 321l157.3-157.3-32.9-33-162 162a28.8 28.8 0 0 0-23.7 8.2L25.8 426a15.7 15.7 0 0 0-1.7 2.1l-.2-.2-18.7 18.7 20.6 20.5 7.3 7.4L53.7 495l18.6-18.6-.2-.2 2.1-1.7L191 357.6l8.3-8.3 20.6-20.5z" />
  <rect
    x="352.8"
    y="95.5"
    width="57.3"
    height="46.76"
    rx="1.6"
    transform="rotate(45 381.4 118.78)"
  />
  <rect
    x="396.3"
    y="66.6"
    width="46.6"
    height="28.04"
    transform="rotate(45 419.61 80.609)"
  />
  <path d="M420.8 141.7c66.6 66.5 74 148.1 74 148.1s-.7 4.6-4.7 1.6-22.8-71.4-87.4-131.6" />
  <path d="M358.1 79C291.5 12.4 210 5 210 5s-4.6.6-1.6 4.7S279.8 32.4 340 97.1" />
  <path d="M449.8 389.2l-9.8-9.7-2-2.1-9.8-9.8-119.5-119.5-11.8 11.8 124.3 124.3a84.1 84.1 0 0 0-14.1 9.4l-122-121.9-11.8 11.8 122 121.9a83.3 83.3 0 0 0-9.4 14.2L261.5 295.3 249.7 307l119.5 119.5 9.8 9.8 2.1 2.1 9.7 9.7 69.9 10.9zm-24.1 46.2l-27.8-4.4a84.8 84.8 0 0 1 34.7-34.9L437 424c-4.9.7-10.1 3.5-11.3 11.4z" />
</svg>
