<svg xmlns="http://www.w3.org/2000/svg" viewBox="0 0 500 500">
  <g id="projects">
    <path id="bottom-line" d="M465.1,459H110.9L83,488.4a12.7,12.7,0,0,0,4.7.9H465.1c7.9,0,14.4-6.7,14.4-15.1S473,459,465.1,459Z"/>
    <rect id="pencil-mid" x="180.3" y="139.1" width="16.7" height="95.81" transform="translate(-77 188.1) rotate(-45)"/>
    <path id="pencil-top" d="M108,47.5,96.6,36l-.4-.3S52,45.4,37.3,94.6l.3.3,11.5,11.5L192.9,250.2l11.8-11.7L114.3,148l35.3-35.4,90.7,90.7,11.8-11.7ZM55.9,89.6A85.5,85.5,0,0,1,91.2,54.2l23.1,23.1L78.9,112.6Zm46.6,46.6L90.7,124.4l35.4-35.3,11.7,11.8Z"/>
    <path id="pick-handle" d="M212.2,321,369.5,163.7l-32.9-33-162,162a28.8,28.8,0,0,0-23.7,8.2L25.8,426a15.7,15.7,0,0,0-1.7,2.1l-.2-.2L5.2,446.6l20.6,20.5,7.3,7.4L53.7,495l18.6-18.6-.2-.2,2.1-1.7L191,357.6l8.3-8.3,20.6-20.5Z"/>
    <rect id="pick-head" x="352.8" y="95.5" width="57.3" height="46.76" rx="1.6" transform="translate(195.7 -234.9) rotate(45)"/>
    <rect id="pick-top" x="396.3" y="66.6" width="46.6" height="28.04" transform="translate(179.9 -273.1) rotate(45)"/>
    <path id="pick-right" d="M420.8,141.7c66.6,66.5,74,148.1,74,148.1s-.7,4.6-4.7,1.6S467.3,220,402.7,159.8"/>
    <path id="pick-left" d="M358.1,79C291.5,12.4,210,5,210,5s-4.6.6-1.6,4.7S279.8,32.4,340,97.1"/>
    <path id="pencil-tip" d="M449.8,389.2l-9.8-9.7-2-2.1-9.8-9.8L308.7,248.1l-11.8,11.8L421.2,384.2a84.1,84.1,0,0,0-14.1,9.4l-122-121.9-11.8,11.8,122,121.9a83.3,83.3,0,0,0-9.4,14.2L261.5,295.3,249.7,307,369.2,426.5l9.8,9.8,2.1,2.1,9.7,9.7L460.7,459Zm-24.1,46.2L397.9,431a84.8,84.8,0,0,1,34.7-34.9L437,424C432.1,424.7,426.9,427.5,425.7,435.4Z"/>
  </g>
</svg>
