<svg xmlns="http://www.w3.org/2000/svg" viewBox="0 0 500 500" fill="#000000">
  <path
    class="cls-1"
    d="M421.2 327.41c-49.77-36.17-132.56-31.85-132.56-31.85L235 321a66.7 66.7 0 0 1-57.09-120.56l44.76-21.19 10.06-4.77c3-3.28 8.81-9.85 15.77-19.13a302.76 302.76 0 0 0 11.3-16.18c3.79-5.81 7.65-12.2 11.41-19.1 11.72-21.47 22.44-47.88 26.47-77.14"
    fill="#fff"
  />
  <path
    class="cls-2"
    d="M395.54 91a559.33 559.33 0 0 1 34 65.42c39.14 88.5 50.14 169.41 24.59 180.71s-78-51.28-117.15-139.78-50.11-169.42-24.55-180.72c9.58-4.24 22.95 1.91 38 15.92"
    fill="#cccbcb"
  />
  <path
    class="cls-1"
    d="M258.47 346.89l13.66 28.85 30 63.41a31.92 31.92 0 0 1-57.7 27.32l-15-31.7-17.05-36-10.94-26.13z"
    fill="#fff"
  />
  <path
    class="cls-1"
    d="M376.53 274.85s119.9 99.79-10.44-223.53c0 0 151.28 185.42 90.33 282.8-15.85 25.32-78.91-52.3-79.89-59.27z"
    fill="#fff"
  />
  <path
    class="cls-3"
    d="M436.76 152.26a567.27 567.27 0 0 0-34.66-66.63 10.26 10.26 0 0 0-17.5 10.72 549 549 0 0 1 33.4 64.21c40.1 90.69 44.5 160.68 29.82 167.18-4.19 1.84-18.25-2-41.47-29.67-21.52-25.69-43.59-62.93-62.14-104.88C304.1 102.5 299.7 32.51 314.39 26c3.68-1.64 12.91 1.07 26.83 14.05a10.26 10.26 0 1 0 14-15C336.13 7.25 319.6 1.26 306.09 7.24c-36.54 16.16-17.93 110 19.35 194.25 16 36.18 34.63 69.11 53.48 94.78-44-13.1-88.26-11.09-90.81-11a10.42 10.42 0 0 0-3.87 1l-53.68 25.43a56.43 56.43 0 1 1-48.31-102l54.82-26a10.41 10.41 0 0 0 3.17-2.33c3-3.27 9.13-10.2 16.42-19.93 4.06-5.42 8-11 11.69-16.73a10.26 10.26 0 1 0-17.2-11.19c-3.45 5.3-7.12 10.55-10.91 15.61-5.81 7.74-10.77 13.52-13.79 16.89l-53 25.09a77 77 0 1 0 65.87 139.1l51.77-24.51c12.5-.31 81.94-.65 124.05 30 .12.08.24.13.36.21 11 8.46 21.06 12.78 30.06 12.78a25.88 25.88 0 0 0 10.54-2.19c36.56-16.15 17.9-109.94-19.34-194.24z"
    fill="#666667"
  />
  <path
    class="cls-3"
    d="M387.1 203.82A28.69 28.69 0 1 0 362.54 152v.09a3.72 3.72 0 0 0-.93.29c-5 2.35-3.54 15.87 3.23 30.19s16.28 24 21.26 21.68z"
    fill="#666667"
  />
  <path
    class="cls-3"
    d="M274.31 495a42.25 42.25 0 0 1-38.19-24.13l-32.07-67.73a10.26 10.26 0 0 1 18.55-8.78l32.07 67.73a21.66 21.66 0 1 0 39.16-18.54l-39.3-83-18.34 8.68a10.26 10.26 0 0 1-8.78-18.55L255 337.62a10.26 10.26 0 0 1 13.66 4.88l43.69 92.26A42.19 42.19 0 0 1 274.31 495z"
    fill="#666667"
  />
  <path
    class="cls-3"
    d="M112.77 306.29a76.19 76.19 0 0 1 6.8-76.73l-57.29 27.12a66.7 66.7 0 0 0 57.09 120.56l58.23-27.58a76.1 76.1 0 0 1-64.83-43.37z"
    fill="#666667"
  />
  <circle class="cls-3" cx="370.66" cy="54.97" r="10.45" fill="#666667" />
</svg>
