<svg
  xmlns="http://www.w3.org/2000/svg"
  viewBox="0 0 500 500"
  width="500"
  height="500"
  fill="#ffffff"
>
  <polygon points="220.45 183.56 268.36 154.04 354.99 174.85 387.9 221.31 319.18 244.54 258.08 205.51 215.13 258.58 195.77 247.93 192.38 226.63 220.45 183.56" />
  <path d="M68.56 250.3a10.39 10.39 0 0 1-5.63-1.64L9.85 214.83a10.47 10.47 0 0 1-3.17-14.53l24-37.18 29.64-46.51.22-.34 6.46-10.1a10.48 10.48 0 1 1 17.7 11.27l-6.59 10.33-.2.3-29.55 46.37L30 202.82l35.41 22.57 16.11-24.88 31.91-50.06a15.59 15.59 0 0 0-4.76-21.5l-2.51-1.6a10.49 10.49 0 0 1 11.09-17.8l.48.32 2.2 1.4a36.58 36.58 0 0 1 11.18 50.44l-31.94 50.13-21.81 33.68a10.45 10.45 0 0 1-8.8 4.78z" />
  <circle cx="58.76" cy="195.64" r="8.49" />
  <polyline points="99.45 305.51 107.02 284.74 122.92 275.35 163.94 292.96 198.46 316.33 224.78 342.12 232.05 348.29 231.31 355.83 115.74 310.13 99.45 305.51" />
  <path d="M206.66 398.68a30.15 30.15 0 0 1-19.66-7.32 30.72 30.72 0 0 1-9.18-13.72 33.34 33.34 0 0 1-19.58-7.72 34 34 0 0 1-10.29-15 33.19 33.19 0 0 1-22-7.75 33.94 33.94 0 0 1-10.72-16.46A30.22 30.22 0 0 1 99 323.57a31 31 0 0 1-4.77-41.77l7.05-9.28a30.09 30.09 0 0 1 50.06 2.59 33 33 0 0 1 27.24 7.16 33.84 33.84 0 0 1 10.26 15 33.25 33.25 0 0 1 22.04 7.73A33.85 33.85 0 0 1 222 322.79a30.13 30.13 0 0 1 15.37 7A30.75 30.75 0 0 1 248 350.7a30.74 30.74 0 0 1-5.1 19.78l-.16.23-.23.34-.21.28-11.64 15.47c-6.31 7.98-21.21 11.88-24 11.88zm-19.81-43.15A10.49 10.49 0 0 1 197.29 367a9 9 0 0 0 0 1.72 9.92 9.92 0 0 0 3.4 6.76 9.12 9.12 0 0 0 4.95 2.2c2.78-.82 7.22-2.65 8.54-3.81l11.35-15.06a9.87 9.87 0 0 0 1.62-6.32 9.9 9.9 0 0 0-3.4-6.75 9 9 0 0 0-6.81-2.22 5 5 0 0 0-1 .27 10.48 10.48 0 0 1-13.93-11 13.81 13.81 0 0 0 0-2.78 13.15 13.15 0 0 0-4.64-8.88 12.23 12.23 0 0 0-12.94-1.76 10.48 10.48 0 0 1-14.77-10.1 13.18 13.18 0 0 0-4.6-10.91 12.27 12.27 0 0 0-14.43-.89 10.48 10.48 0 0 1-16-7.56 9.57 9.57 0 0 0-10.12-8.54 9.23 9.23 0 0 0-6.58 3.75l-7 9.2a10.08 10.08 0 0 0 1.6 13.37 9.19 9.19 0 0 0 6.8 2.22 9 9 0 0 0 1.85-.36 10.49 10.49 0 0 1 13.5 10.59 13.18 13.18 0 0 0 4.6 10.94 12.17 12.17 0 0 0 7.89 2.88 12.33 12.33 0 0 0 5-1.11 10.47 10.47 0 0 1 14.74 10.1 13.17 13.17 0 0 0 4.65 10.9 12.19 12.19 0 0 0 7.89 2.88 12.41 12.41 0 0 0 3.94-.64 10.27 10.27 0 0 1 3.46-.56zm47.34 9.15z" />
  <path d="M258.08 205.51s93.85 44.15 113.6 11.44l15.15 23.36L376 268z" />
  <path d="M202.2 233.37a8.7 8.7 0 0 0-.34 1.31c0 3.44.55 8.15 3.46 10 3.28 2.11 5.63 1.68 7 1l24.51-30c.22-.27.46-.52.7-.77L252.45 200a10.5 10.5 0 0 1 13.14-1.38c.58.38 58.6 38.08 88.42 56.71 10.76 6.71 19.31 7.09 23.91 6.57l8.91-21.54-38.13-58.84a10.48 10.48 0 1 1 17.58-11.41l41.14 63.41a10.5 10.5 0 0 1 .89 9.71l-13.06 31.55a10.47 10.47 0 0 1-5.53 5.61 39.24 39.24 0 0 1-14.87 2.61c-8.26 0-19.36-2.08-31.94-9.94-23.72-14.81-65.07-41.56-81.62-52.29l-8.53 8.56-2.84 3.47 93 58.68c12.89 4.53 35 11.07 43.92 6.25 0 0 4.31 11.93 0 21.45a2.4 2.4 0 0 1-.54.74c-4.13 5.4-13 9.43-20.06 7.35l-1-.58c1 4.21-.92 10.73-3.22 14.34-3.56 5.59-12.83 9.92-20 8.81l-8-5.31c.95 4.28-.65 11.53-3 15.21-3.5 5.5-12.21 10.22-19 9.4l-7.62-5c.14 2.27-1.65 6.93-2.83 8.78-3.66 5.74-12.82 6.45-20.47 1.57-1.65-1.05-12.69-7-17.71-10.78l1-1.7c8.86-36.42-28.14-51.15-28.14-51.15a26.12 26.12 0 0 0-9.11-22.5 24.78 24.78 0 0 0-25.14-4.13 23.08 23.08 0 0 0 0-2.35 24.1 24.1 0 0 0-9.23-16.66c-8.48-6.67-23-8.71-31.9-3.58-1.54-12-10-16.89-22.91-18.27 0 0-22.1-3.16-28.63 7.32-3.67-5.41-1.92-10.2-.68-14l44.83-69.94 31.85-17.48 30.38-4.57a78.08 78.08 0 0 1 12 5.07l-28.21 17.87 10.77 13.86 3-4.57a10.51 10.51 0 0 1 3.5-3.36L264 145.84a10.45 10.45 0 0 1 7.42-1.22l46.1 9.51a10.48 10.48 0 0 1-4.24 20.53L271 166l-41.6 24.43z" />
  <line x1="221.91" y1="322.91" x2="221.91" y2="322.91" />
  <path d="M464.9 174.12l-29.67-46.56a.76.76 0 0 1-.08-.11l-13.93-21.86-28.6 18.22-2.51 1.6a26.06 26.06 0 0 0-8 36l31.95 50.13 27.83 40.71L495 218.4z" />
  <circle cx="454.73" cy="212.05" r="8.49" />
</svg>
