<svg
  xmlns="http://www.w3.org/2000/svg"
  viewBox="0 0 500 500"
  width="500"
  height="500"
  fill="#000000"
>
  <path d="M174.09 27.33S377.82 136.6 474.48 332.62c0 0 36.61-69.16-74.25-206C357.11 73.38 286 31.27 174.09 27.33z" />
  <path d="M457.46 311.83a10.36 10.36 0 0 1-9.35-5.89C368.4 139.25 173.28 35.6 171.32 34.57a10.35 10.35 0 0 1 5-19.53C280 16.83 362.38 53.76 421.15 124.8c57.53 69.55 70.71 146.3 73.38 168.17a10.36 10.36 0 1 1-20.53 2.51c-10.73-87.9-76.71-233.11-254.39-256.55C282.44 78.67 405.45 168.71 466.8 297a10.35 10.35 0 0 1-9.34 14.82z" />
  <path d="M436.8 108.14a10.32 10.32 0 0 1-6.82-2.57l-42.22-37A10.36 10.36 0 0 1 401.42 53l42.22 37a10.36 10.36 0 0 1-6.84 18.14z" />
  <polygon points="83.5 135.69 31.6 82.85 66.13 45.21 118.68 98.63 83.5 135.69" />
  <path d="M75.53 141.28l207.66 211.6 109.45 101.7S423.47 411.9 438 409.5c4.28-.71-314.33-316.25-314.33-316.25z" />
  <path d="M403.44 465.44s8.63-60 45.54-46.33l4.43 51.82z" />
  <path d="M462.47 476a10.8 10.8 0 0 0 .78-1.77c.08-.24.11-.5.17-.75a9.26 9.26 0 0 0 .25-1.07v-1.17a9.37 9.37 0 0 0 0-1.06.33.33 0 0 0 0-.1l-4.92-56.47a.29.29 0 0 1 0-.09v-.08c0-.17-.08-.32-.1-.49a10.58 10.58 0 0 0-.28-1.36c-.08-.26-.19-.51-.28-.76s-.27-.69-.44-1a8.15 8.15 0 0 0-.44-.75 8.42 8.42 0 0 0-.6-.87c-.17-.23-.36-.44-.55-.65a4.71 4.71 0 0 0-.36-.42L289.51 243.77 334.28 199a10.36 10.36 0 0 0 0-14.65l-31.06-31.06a10.37 10.37 0 0 0-7.33-3 10.38 10.38 0 0 0-7.34 3.08l-44.84 45.45-30.5-30a10.36 10.36 0 0 0-14.51 14.78l30.46 29.92L196 247.08 68.88 120l33-33.9 39.59 39.59A10.36 10.36 0 0 0 156.08 111L77.46 32.41a10.35 10.35 0 0 0-9.74-2.75c-36.25 8.7-52.3 51.27-53 53.08a10.17 10.17 0 0 0-.43 5.44 10.36 10.36 0 0 0 2.82 9.37l164.32 164.28L7.59 438a10.36 10.36 0 0 0 0 14.6L37 481.93a10.39 10.39 0 0 0 7.33 3 10.35 10.35 0 0 0 7.32-3l174.82-175.06 20.45 20.45a10.36 10.36 0 1 0 14.65-14.65l-20.46-20.45 33.76-33.8 152.82 150.13c-20.23 7.32-29.4 21.44-33.47 33.55L308.91 364a10.35 10.35 0 0 0-14 15.27l99.47 91.11a10 10 0 0 0 3.31 2 10.34 10.34 0 0 0 4.63 1.92l49.66 6.9a10 10 0 0 0 1.44.1h.89c.14 0 .27-.06.41-.08a9.27 9.27 0 0 0 1.19-.23c.26-.06.52-.13.77-.21a9.63 9.63 0 0 0 1.05-.43 7.21 7.21 0 0 0 .74-.36c.32-.18.63-.4.93-.61s.44-.3.64-.46a11 11 0 0 0 .91-.9c.14-.15.3-.28.43-.44a10.35 10.35 0 0 0 1.06-1.55zM67.28 51.52l19.91 19.91-33 33.9-18.62-18.66c3.59-7.87 14.17-27.91 31.71-35.15zm371.88 375.15l2.84 32.21-29.85-4.15c1.38-8.73 6.85-22.56 27.01-28.06z" />
  <circle cx="172.08" cy="140.04" r="10.12" />
  <circle cx="476.16" cy="328.35" r="10.12" />
</svg>
