<svg
  xmlns="http://www.w3.org/2000/svg"
  viewBox="0 0 500 500"
  width="500"
  height="500"
  fill="#ffffff"
>
  <path d="M374 295.83c-46-39.21-119.83-38.51-122.73-38.52-3.11 0-77.18-.69-123.07 38.53s-59 153.67-59.52 158.52l-1.06 9.69 9.46 2.41c61.34 15.57 120.44 20.76 172 20.76 100.12 0 171.84-19.59 176.31-20.84l9.16-2.56-1-9.46c-.55-4.84-13.4-119.17-59.55-158.53z" />
  <circle cx="251.14" cy="113.37" r="98.35" />
  <path d="M180.07 172.81C143.8 56.19 287.68 20.67 287.68 20.67a98.35 98.35 0 1 0-73 182.63z" />
  <path d="M74.34 415.39l7.33.05S147.35 302 301.65 266c3-.7-127.51-9.37-173.4 29.85" />
  <path d="M438.9 460.69l-1-9.25c-1.33-12.31-14.43-121.39-61.78-161.78-44.78-38.2-113.23-40.14-126.69-40.14-8.12-.05-80.8.6-127.09 40.16C88.08 319 71.79 380.63 64.16 427.22a10.32 10.32 0 0 0 20.37 3.33c5.79-35.35 20.15-98.62 51.22-125.18 21.49-18.37 50.38-26.94 70.83-30.89a234.07 234.07 0 0 1 42.78-4.32h.26c7.35 0 73 1 113.11 35.21 8.11 6.92 15.24 16.9 21.45 28.57.38 38.92-27.88 99.2-183.87 139.6-29.91-1.21-60.94-4.07-92.5-10.62a10.32 10.32 0 0 0-4.19 20.21C153.89 493.56 202.37 495 247.27 495c99.84 0 172.17-19.91 175.2-20.75l8.95-2.51a10.3 10.3 0 0 0 7.48-11.05z" />
  <path d="M358.06 107.77v-.61a108.41 108.41 0 0 0-11.28-41.93 109.59 109.59 0 0 0-26.88-34.48c-.16-.14-.33-.27-.5-.4l-6.13-4.62a108.94 108.94 0 0 0-70.13-20.55 10.32 10.32 0 0 0 1.18 20.6A88.34 88.34 0 0 1 301 42.31l5.72 4.32a89.92 89.92 0 0 1 26.45 39.61c-8 26.93-38.21 90.9-144.06 92a87.71 87.71 0 0 1-18.63-25l-.15-.29a88.42 88.42 0 0 1-9.15-34 10.32 10.32 0 1 0-20.59 1.32 108.91 108.91 0 0 0 11.27 41.88l.15.3a108.58 108.58 0 0 0 26.73 34.22c.16.13.31.26.48.38l6.1 4.61a108.82 108.82 0 0 0 64.05 20.84c2.14 0 4.29-.07 6.44-.19a108.78 108.78 0 0 0 102.28-107.07z" />
  <circle cx="71.05" cy="464.2" r="10.01" />
  <circle cx="210.22" cy="23.44" r="10.01" />
</svg>
