<svg xmlns="http://www.w3.org/2000/svg" viewBox="0 0 500 500">
  <g id="quote-proposal">
    <path id="quote-left" d="M240.4,133.2V94.9H202.3v38.3h19.1c-.4,12.3-6.8,18.6-19.1,19v19.2Q240.4,167.1,240.4,133.2Z"/>
    <path id="quote-right" d="M297.7,133.2V94.9H259.6v38.3h19.2c-.5,12.3-6.9,18.6-19.2,19v19.2Q297.7,167.1,297.7,133.2Z"/>
    <path id="outline" d="M397.7,5H102.3A46.5,46.5,0,0,0,55.9,51.5v397A46.5,46.5,0,0,0,102.3,495H397.7a46.5,46.5,0,0,0,46.4-46.5V51.5A46.5,46.5,0,0,0,397.7,5Zm24.1,298.9V448.5a24.1,24.1,0,0,1-24.1,24.2H102.3a24.1,24.1,0,0,1-24.1-24.2V51.5a24.1,24.1,0,0,1,24.1-24.2H397.7a24.1,24.1,0,0,1,24.1,24.2V303.9Z"/>
    <rect id="line4" x="108.9" y="387.1" width="156.4" height="23.59" rx="11.3"/>
    <rect id="line3" x="108.2" y="339.9" width="291.2" height="23.59" rx="11.3"/>
    <path id="line2" d="M122.3,313.8h263a11.5,11.5,0,0,0,11.6-11.5h0a11.6,11.6,0,0,0-11.6-11.6h-263a11.6,11.6,0,0,0-11.6,11.6h0A11.5,11.5,0,0,0,122.3,313.8Z"/>
    <path id="line1" d="M122.3,267.5h263a11.6,11.6,0,0,0,11.6-11.6h0a11.6,11.6,0,0,0-11.6-11.6h-263a11.6,11.6,0,0,0-11.6,11.6h0A11.6,11.6,0,0,0,122.3,267.5Z"/>
  </g>
</svg>
