<svg xmlns="http://www.w3.org/2000/svg" viewBox="0 0 500 500" fill="#000000">
  <circle cx="253.1" cy="247.34" r="225.4" fill="#ffcc02" />
  <path
    d="M398.76 80.66c94.55 81 105.57 223.26 24.6 317.82s-223.25 105.57-317.81 24.6"
    fill="#faf39a"
  />
  <path
    d="M250 495C114.91 495 5 385.09 5 250a244.83 244.83 0 0 1 11.91-75.65 19.6 19.6 0 1 1 37.29 12.09 205.5 205.5 0 0 0-10 63.56c0 113.48 92.32 205.8 205.8 205.8S455.8 363.48 455.8 250 363.48 44.2 250 44.2A204.91 204.91 0 0 0 175.72 58a19.6 19.6 0 1 1-14.16-36.55A243.88 243.88 0 0 1 250 5c135.09 0 245 109.91 245 245S385.09 495 250 495z"
    fill="#981b1e"
  />
  <circle cx="62.16" cy="127.04" r="20.15" fill="#981b1e" />
  <polygon
    points="276.24 156.08 274.87 242.82 323.05 252.45 314.79 281.36 287.22 303.54 276.24 343.32 362.98 299.26 371.24 160.21 276.24 156.08"
    fill="#faf39a"
  />
  <path
    d="M267.05 257.26h46.38c-3.71 17.44-15.26 25.7-36.34 26.41l-10 .35v69.3l11.54-1.32c86-9.88 104-62.62 104-105.11V141.25H267.05zM287.83 162h74v84.85c0 46.73-24.25 73.9-74 82.78v-26.09c29.57-4.43 46.37-24.1 47.62-56.26l.43-10.79h-48.05z"
    fill="#981b1e"
  />
  <polygon
    points="134.44 156.08 133.06 242.82 181.25 252.45 172.99 281.36 145.42 303.54 134.44 343.32 221.17 299.26 229.43 160.21 134.44 156.08"
    fill="#faf39a"
  />
  <path
    d="M124.64 257.26H171c-3.7 17.44-15.24 25.7-36.33 26.41l-10 .35v69.3l11.55-1.32c85.95-9.88 104-62.62 104-105.11V141.25H124.64zM145.42 162h74v84.85c0 46.73-24.24 73.9-74 82.78v-26.09c29.56-4.43 46.36-24.1 47.61-56.26l.42-10.79h-48z"
    fill="#981b1e"
  />
</svg>
