<svg
  xmlns="http://www.w3.org/2000/svg"
  viewBox="0 0 500 500"
  width="500"
  height="500"
  fill="#000000"
>
  <path d="M240.4 133.2V94.9h-38.1v38.3h19.1c-.4 12.3-6.8 18.6-19.1 19v19.2q38.1-4.3 38.1-38.2z" />
  <path d="M297.7 133.2V94.9h-38.1v38.3h19.2c-.5 12.3-6.9 18.6-19.2 19v19.2q38.1-4.3 38.1-38.2z" />
  <path d="M397.7 5H102.3a46.5 46.5 0 0 0-46.4 46.5v397a46.5 46.5 0 0 0 46.4 46.5h295.4a46.5 46.5 0 0 0 46.4-46.5v-397A46.5 46.5 0 0 0 397.7 5zm24.1 298.9v144.6a24.1 24.1 0 0 1-24.1 24.2H102.3a24.1 24.1 0 0 1-24.1-24.2v-397a24.1 24.1 0 0 1 24.1-24.2h295.4a24.1 24.1 0 0 1 24.1 24.2v252.4z" />
  <rect x="108.9" y="387.1" width="156.4" height="23.59" rx="11.3" />
  <rect x="108.2" y="339.9" width="291.2" height="23.59" rx="11.3" />
  <path d="M122.3 313.8h263a11.5 11.5 0 0 0 11.6-11.5 11.6 11.6 0 0 0-11.6-11.6h-263a11.6 11.6 0 0 0-11.6 11.6 11.5 11.5 0 0 0 11.6 11.5z" />
  <path d="M122.3 267.5h263a11.6 11.6 0 0 0 11.6-11.6 11.6 11.6 0 0 0-11.6-11.6h-263a11.6 11.6 0 0 0-11.6 11.6 11.6 11.6 0 0 0 11.6 11.6z" />
</svg>
