<svg
  xmlns="http://www.w3.org/2000/svg"
  viewBox="0 0 500 500"
  width="500"
  height="500"
  fill="#ffffff"
>
  <path d="M489.33 229.89L380 120.24a19.41 19.41 0 1 0-27.48 27.41l83.75 84a58.65 58.65 0 0 0-10.58 8.21 86.4 86.4 0 0 0-141 19.22 68.08 68.08 0 0 0-69.15.49 86.38 86.38 0 0 0-141.19-19.75 58.65 58.65 0 0 0-10.58-8.21l83.75-84A19.41 19.41 0 1 0 120 120.24L10.67 229.89a19.38 19.38 0 0 0 20.67 31.8 17.85 17.85 0 0 0 2.44.25 19.13 19.13 0 0 1 19.06 19.16c0 .4.1.78.12 1.17A86.69 86.69 0 0 0 222.35 319a19.28 19.28 0 0 0 3.59-11.18c0-10.39 11.27-19.17 24.61-19.17s24.62 8.78 24.62 19.17a19.4 19.4 0 0 0 1.65 7.78A86.73 86.73 0 0 0 447 282.27c0-.39.12-.77.12-1.17a19.13 19.13 0 0 1 19.06-19.16 17.85 17.85 0 0 0 2.44-.25 19.38 19.38 0 0 0 20.67-31.8zm-351.2 116.76a48.11 48.11 0 1 1 47.94-48.11 48.07 48.07 0 0 1-47.94 48.11zm223.74 0a48.11 48.11 0 1 1 47.93-48.11 48.08 48.08 0 0 1-47.93 48.11z" />
</svg>
