<svg xmlns="http://www.w3.org/2000/svg" viewBox="0 0 500 500">
  <g id="recruitment-lead">
    <path id="magnifying-glass" d="M493.89,479,360.75,345.9a203.1,203.1,0,0,0,53.07-137C413.82,96.45,322.37,5,210,5S6.11,96.45,6.11,208.85,97.56,412.71,210,412.71a203,203,0,0,0,134.66-51L477.92,495ZM210,390.12c-100,0-181.27-81.31-181.27-181.27S110,27.58,210,27.58,391.24,108.9,391.24,208.85,309.92,390.12,210,390.12Z"/>
    <path id="body" d="M275.48,229.46c-24.5-20.9-63.87-20.53-65.41-20.54s-41.14-.36-65.6,20.54S113,311.37,112.75,314l-.57,5.17,5,1.28a373.72,373.72,0,0,0,91.68,11.06c53.36,0,91.59-10.43,94-11.1l4.88-1.37-.54-5C306.93,311.37,300.07,250.43,275.48,229.46Z"/>
    <path id="head" d="M162.34,164.58a53.65,53.65,0,0,0,95.25,0l1.81-3.65a53.47,53.47,0,0,0,4.26-21v-.18a53.68,53.68,0,0,0-4.25-21l-1.82-3.66a53.7,53.7,0,0,0-95.24,0l-1.82,3.66a54.28,54.28,0,0,0,0,42.16Z"/>
  </g>
</svg>
