<svg
  xmlns="http://www.w3.org/2000/svg"
  viewBox="0 0 500 500"
  width="500"
  height="500"
  fill="#000000"
>
  <path d="M180.3 142.3a36.3 36.3 0 0 0-36.3 36.2v137.9a36.3 36.3 0 0 0 36.3 36.2h124.2a36.2 36.2 0 0 0 36.2-36.2V178.5a36.3 36.3 0 0 0-36.2-36.2zm142.3 36.2v137.9a18.1 18.1 0 0 1-18.1 18.1H180.3a18.1 18.1 0 0 1-18.1-18.1V178.5a18.1 18.1 0 0 1 18.1-18.1h124.2a18.1 18.1 0 0 1 18.1 18.1z" />
  <path d="M184.4 177.4a9.1 9.1 0 0 0 0 18.1h116a9.1 9.1 0 0 0 0-18.1z" />
  <path d="M300.4 217.4h-116a9.1 9.1 0 0 0 0 18.1h116a9.1 9.1 0 0 0 0-18.1z" />
  <path d="M300.4 257.4h-116a9.1 9.1 0 0 0 0 18.1h116a9.1 9.1 0 0 0 0-18.1z" />
  <path d="M242.6 297.4h-58.2a9.1 9.1 0 0 0 0 18.1h58.2a9.1 9.1 0 0 0 0-18.1z" />
  <path d="M294.5 59.9l-23 37.5 108.4 2.9L328.3 5l-23.9 38.9A204 204 0 0 0 97.8 382.4l12.8-12.8A185.8 185.8 0 0 1 294.5 59.9z" />
  <path d="M402.3 117.6l-12.8 12.8c72.4 72.5 72.4 190.4 0 262.9a185.4 185.4 0 0 1-183.9 46.8l23-37.5-108.4-2.9 51.6 95.3 24-38.9a203.5 203.5 0 0 0 206.5-50c79.5-79.6 79.5-209 0-288.5z" />
</svg>
