<svg
  xmlns="http://www.w3.org/2000/svg"
  viewBox="0 0 500 500"
  width="500"
  height="500"
  fill="#ffffff"
>
  <path d="M250 5C114.7 5 5 114.7 5 250s109.7 245 245 245 245-109.7 245-245S385.3 5 250 5zm149.9 356.1a49.3 49.3 0 0 1-49.2 49.2H149.3a49.3 49.3 0 0 1-49.2-49.2V138.9a49.3 49.3 0 0 1 49.2-49.2h201.4a49.3 49.3 0 0 1 49.2 49.2z" />
  <path d="M350.7 119.1H149.3a19.8 19.8 0 0 0-19.8 19.8v222.2a19.8 19.8 0 0 0 19.8 19.8h201.4a19.8 19.8 0 0 0 19.8-19.8V138.9a19.8 19.8 0 0 0-19.8-19.8zM241 341.5h-74.5a14.7 14.7 0 1 1 0-29.4H241a14.7 14.7 0 1 1 0 29.4zm92.5-51.2h-167a14.7 14.7 0 1 1 0-29.4h167a14.7 14.7 0 0 1 0 29.4zm0-51.2h-167a14.7 14.7 0 1 1 0-29.4h167a14.7 14.7 0 0 1 0 29.4zm0-51.2h-167a14.7 14.7 0 1 1 0-29.4h167a14.7 14.7 0 0 1 0 29.4z" />
</svg>
