<svg xmlns="http://www.w3.org/2000/svg" viewBox="0 0 500 500">
  <g id="report-cycle">
    <path id="outline" d="M180.3,142.3A36.3,36.3,0,0,0,144,178.5V316.4a36.3,36.3,0,0,0,36.3,36.2H304.5a36.2,36.2,0,0,0,36.2-36.2V178.5a36.3,36.3,0,0,0-36.2-36.2Zm142.3,36.2V316.4a18.1,18.1,0,0,1-18.1,18.1H180.3a18.1,18.1,0,0,1-18.1-18.1V178.5a18.1,18.1,0,0,1,18.1-18.1H304.5A18.1,18.1,0,0,1,322.6,178.5Z"/>
    <path id="line1" d="M184.4,177.4a9.1,9.1,0,0,0,0,18.1h116a9.1,9.1,0,0,0,0-18.1Z"/>
    <path id="line2" d="M300.4,217.4h-116a9.1,9.1,0,0,0,0,18.1h116a9.1,9.1,0,0,0,0-18.1Z"/>
    <path id="line3" d="M300.4,257.4h-116a9.1,9.1,0,0,0,0,18.1h116a9.1,9.1,0,0,0,0-18.1Z"/>
    <path id="line4" d="M242.6,297.4H184.4a9.1,9.1,0,0,0,0,18.1h58.2a9.1,9.1,0,0,0,0-18.1Z"/>
    <path id="top-arrow" d="M294.5,59.9l-23,37.5,108.4,2.9L328.3,5,304.4,43.9A204,204,0,0,0,97.8,382.4l12.8-12.8A185.8,185.8,0,0,1,294.5,59.9Z"/>
    <path id="bottom-arrow" d="M402.3,117.6l-12.8,12.8c72.4,72.5,72.4,190.4,0,262.9a185.4,185.4,0,0,1-183.9,46.8l23-37.5-108.4-2.9L171.8,495l24-38.9a203.5,203.5,0,0,0,206.5-50C481.8,326.5,481.8,197.1,402.3,117.6Z"/>
  </g>
</svg>
