<svg xmlns="http://www.w3.org/2000/svg" viewBox="0 0 500 500">
  <g id="reporting-submitted">
    <path id="outline" d="M250,5C114.7,5,5,114.7,5,250S114.7,495,250,495,495,385.3,495,250,385.3,5,250,5ZM399.9,361.1a49.3,49.3,0,0,1-49.2,49.2H149.3a49.3,49.3,0,0,1-49.2-49.2V138.9a49.3,49.3,0,0,1,49.2-49.2H350.7a49.3,49.3,0,0,1,49.2,49.2Z"/>
    <path id="report" d="M350.7,119.1H149.3a19.8,19.8,0,0,0-19.8,19.8V361.1a19.8,19.8,0,0,0,19.8,19.8H350.7a19.8,19.8,0,0,0,19.8-19.8V138.9A19.8,19.8,0,0,0,350.7,119.1ZM241,341.5H166.5a14.7,14.7,0,1,1,0-29.4H241a14.7,14.7,0,1,1,0,29.4Zm92.5-51.2h-167a14.7,14.7,0,1,1,0-29.4h167a14.7,14.7,0,0,1,0,29.4Zm0-51.2h-167a14.7,14.7,0,1,1,0-29.4h167a14.7,14.7,0,0,1,0,29.4Zm0-51.2h-167a14.7,14.7,0,1,1,0-29.4h167a14.7,14.7,0,0,1,0,29.4Z"/>
  </g>
</svg>
