<svg
  xmlns="http://www.w3.org/2000/svg"
  viewBox="0 0 500 500"
  width="500"
  height="500"
  fill="#ffffff"
>
  <path d="M456.7 282H331a36.7 36.7 0 0 0-36.7 36.7v139.6A36.7 36.7 0 0 0 331 495h125.7a36.8 36.8 0 0 0 36.7-36.7V318.7a36.8 36.8 0 0 0-36.7-36.7zm18.4 176.3a18.5 18.5 0 0 1-18.4 18.4H331a18.5 18.5 0 0 1-18.4-18.4V318.7a18.4 18.4 0 0 1 18.4-18.3h125.7a18.4 18.4 0 0 1 18.4 18.3z" />
  <rect x="70.1" y="136.6" width="43.4" height="40.03" />
  <rect x="173" y="136.6" width="43.4" height="40.03" />
  <rect x="275.9" y="136.6" width="43.4" height="40.03" />
  <rect x="70.1" y="217.7" width="43.4" height="40.03" />
  <rect x="173" y="217.7" width="43.4" height="40.03" />
  <rect x="275.9" y="217.7" width="43.4" height="40.03" />
  <rect x="70.1" y="298.8" width="43.4" height="40.05" />
  <rect x="173" y="298.8" width="43.4" height="40.05" />
  <path d="M452.5 317.6H335.1a9.2 9.2 0 0 0 0 18.3h117.4a9.2 9.2 0 1 0 0-18.3z" />
  <path d="M452.5 358.1H335.1a9.2 9.2 0 0 0 0 18.3h117.4a9.2 9.2 0 1 0 0-18.3z" />
  <path d="M452.5 398.5H335.1a9.2 9.2 0 0 0 0 18.4h117.4a9.2 9.2 0 1 0 0-18.4z" />
  <path d="M394 439h-58.9a9.2 9.2 0 0 0 0 18.4H394a9.2 9.2 0 1 0 0-18.4z" />
  <path d="M23.9 377V96.8a28.6 28.6 0 0 1 28.5-28.5h280.2a28.6 28.6 0 0 1 28.6 28.5v167.9h17.2V96.8A45.8 45.8 0 0 0 332.6 51h-66.4V5H249v46H132.8V5h-17.3v46H52.4A45.8 45.8 0 0 0 6.6 96.8V377a45.8 45.8 0 0 0 45.8 45.8h223.5v-17.2H52.4A28.6 28.6 0 0 1 23.9 377z" />
</svg>
