<svg
  xmlns="http://www.w3.org/2000/svg"
  viewBox="0 0 500 500"
  width="500"
  height="500"
  fill="#000000"
>
  <path d="M382.5 47.2h-16.7V5h-24.4v42.2H158.6V5h-24.4v42.2h-16.7a91.5 91.5 0 0 0-91.4 91.4v265a91.5 91.5 0 0 0 91.4 91.4h265a91.5 91.5 0 0 0 91.4-91.4v-265a91.5 91.5 0 0 0-91.4-91.4zm67 356.4a67.1 67.1 0 0 1-67 67h-265a67.1 67.1 0 0 1-67-67v-265c0-2.2.1-4.3.3-6.4h398.4c.2 2.1.3 4.2.3 6.4z" />
  <path
    data-name="3"
    d="M95.3 351.6c5.6 3.5 18.6 9.1 32.3 9.1 25.3 0 33.1-16.1 32.9-28.2-.3-20.3-18.6-29.1-37.6-29.1h-11v-14.7h11c14.3 0 32.4-7.4 32.4-24.7 0-11.6-7.4-21.9-25.5-21.9-11.6 0-22.8 5.1-29.1 9.6l-5.1-14.3c7.6-5.6 22.3-11.2 38-11.2 28.7 0 41.6 17 41.6 34.7 0 15-8.9 27.8-26.8 34.2v.5c17.9 3.6 32.4 17 32.4 37.4 0 23.3-18.1 43.6-53 43.6-16.4 0-30.7-5.1-37.8-9.8z"
  />
  <path
    data-name="6"
    d="M288.5 242.5a72.9 72.9 0 0 0-14.8.9c-30.9 5.2-47.2 27.8-50.6 51.7h.7c6.9-9.1 19-16.7 35.2-16.7 25.7 0 43.8 18.5 43.8 47 0 26.6-18.1 51.2-48.3 51.2s-51.5-24.2-51.5-62c0-28.6 10.3-51.2 24.6-65.6 12.1-11.8 28.2-19.2 46.6-21.5a92.9 92.9 0 0 1 14.3-1.1zm-5.6 84c0-20.8-11.9-33.4-30-33.4-11.9 0-22.8 7.4-28.2 17.9a17.6 17.6 0 0 0-2.2 8.8c.4 23.9 11.4 41.6 32 41.6 17 0 28.4-14.1 28.4-34.9z"
  />
  <path
    data-name="5"
    d="M407.1 245.2h-55.5l-5.6 37.4a85.2 85.2 0 0 1 11.9-.9c11.2 0 22.4 2.5 31.3 7.8 11.4 6.5 20.8 19.1 20.8 37.4 0 28.5-22.6 49.7-54.1 49.7-15.9 0-29.4-4.5-36.3-8.9l4.9-15c6.1 3.6 17.9 8 31.1 8 18.6 0 34.5-12.1 34.5-31.5s-12.7-32.3-41.8-32.3a146.2 146.2 0 0 0-20.2 1.6l9.4-69.8h69.6z"
  />
</svg>
