<svg
  xmlns="http://www.w3.org/2000/svg"
  viewBox="0 0 500 500"
  width="500"
  height="500"
  fill="#ffffff"
>
  <path d="M467.4 87.6H327.9V68.9a25.9 25.9 0 0 0-25.8-25.8H197.9a25.9 25.9 0 0 0-25.8 25.8v18.7H32.6A27.7 27.7 0 0 0 5 115.2v135a27.7 27.7 0 0 0 24.8 27.5v156.5a22.7 22.7 0 0 0 22.7 22.7h395a22.7 22.7 0 0 0 22.7-22.7V277.7a27.7 27.7 0 0 0 24.8-27.5v-135a27.7 27.7 0 0 0-27.6-27.6zM193.6 68.9a4.4 4.4 0 0 1 4.3-4.4h104.2a4.4 4.4 0 0 1 4.3 4.4v18.7H193.6zm253.9 366.6h-395a1.3 1.3 0 0 1-1.3-1.3V280.3l120.9 15v18.2a25.8 25.8 0 0 0 25.8 25.8h104.2a25.8 25.8 0 0 0 25.8-25.8v-16.8l120.9-16.2v153.7a1.3 1.3 0 0 1-1.3 1.3zm-253.9-122v-36.7a4.3 4.3 0 0 1 4.3-4.3h104.2a4.3 4.3 0 0 1 4.3 4.3v36.7a4.4 4.4 0 0 1-4.3 4.4H197.9a4.4 4.4 0 0 1-4.3-4.4zm280-63.3a6.2 6.2 0 0 1-6.2 6.2l-139.6 18.7a25.8 25.8 0 0 0-25.7-24H197.9a25.8 25.8 0 0 0-25.6 22.6L33.9 256.5h-1.3a6.2 6.2 0 0 1-6.2-6.2v-135a6.2 6.2 0 0 1 6.2-6.2h434.8a6.2 6.2 0 0 1 6.2 6.2z" />
</svg>
