<svg xmlns="http://www.w3.org/2000/svg" viewBox="0 0 500 500">
  <g id="service">
    <path id="suitcase" d="M467.4,87.6H327.9V68.9a25.9,25.9,0,0,0-25.8-25.8H197.9a25.9,25.9,0,0,0-25.8,25.8V87.6H32.6A27.7,27.7,0,0,0,5,115.2v135a27.7,27.7,0,0,0,24.8,27.5V434.2a22.7,22.7,0,0,0,22.7,22.7h395a22.7,22.7,0,0,0,22.7-22.7V277.7A27.7,27.7,0,0,0,495,250.2v-135A27.7,27.7,0,0,0,467.4,87.6ZM193.6,68.9a4.4,4.4,0,0,1,4.3-4.4H302.1a4.4,4.4,0,0,1,4.3,4.4V87.6H193.6ZM447.5,435.5H52.5a1.3,1.3,0,0,1-1.3-1.3V280.3l120.9,15v18.2a25.8,25.8,0,0,0,25.8,25.8H302.1a25.8,25.8,0,0,0,25.8-25.8V296.7l120.9-16.2V434.2A1.3,1.3,0,0,1,447.5,435.5Zm-253.9-122V276.8a4.3,4.3,0,0,1,4.3-4.3H302.1a4.3,4.3,0,0,1,4.3,4.3v36.7a4.4,4.4,0,0,1-4.3,4.4H197.9A4.4,4.4,0,0,1,193.6,313.5Zm280-63.3a6.2,6.2,0,0,1-6.2,6.2L327.8,275.1a25.8,25.8,0,0,0-25.7-24H197.9a25.8,25.8,0,0,0-25.6,22.6L33.9,256.5H32.6a6.2,6.2,0,0,1-6.2-6.2v-135a6.2,6.2,0,0,1,6.2-6.2H467.4a6.2,6.2,0,0,1,6.2,6.2Z"/>
  </g>
</svg>
