<svg
  xmlns="http://www.w3.org/2000/svg"
  viewBox="0 0 500 500"
  width="500"
  height="500"
  fill="#ffffff"
>
  <path d="M9.9 105.3v289.4a45.5 45.5 0 0 0 45.5 45.5h389.2a45.5 45.5 0 0 0 45.5-45.5V105.3a45.5 45.5 0 0 0-45.5-45.5H55.4a45.5 45.5 0 0 0-45.5 45.5zm295-23.7h139.7a23.7 23.7 0 0 1 23.6 23.7v289.4a23.7 23.7 0 0 1-23.6 23.7H55.4a23.7 23.7 0 0 1-23.6-23.7V105.3a23.7 23.7 0 0 1 23.6-23.7h249.5z" />
  <path d="M137.1 321.5V288H74.9v-21.5l53.2-85.6h40.2v82.4h16.9V288h-16.9v33.5zm0-58.2v-31.1c0-8.5.5-17.1 1.1-26.2h-.8c-4.6 9.1-8.3 17.3-13 26.2l-18.8 30.7v.4z" />
  <path d="M199 321.5v-19.9l18.1-16.5c30.7-27.4 45.7-43.2 46.1-59.6 0-11.5-6.9-20.6-23.1-20.6-12.2 0-22.8 6.1-30.1 11.7l-9.3-23.6c10.6-8 27-14.5 46.1-14.5 31.7 0 49.3 18.6 49.3 44.1 0 23.6-17.1 42.4-37.4 60.6l-13 10.8v.4h53v27.1z" />
  <path d="M377.1 321.5V288h-62.3v-21.5l53.2-85.6h40.3v82.4h16.8V288h-16.8v33.5zm0-58.2v-31.1c0-8.5.5-17.1 1.1-26.2h-.9c-4.5 9.1-8.2 17.3-12.9 26.2l-18.8 30.7v.4z" />
</svg>
