<svg
  xmlns="http://www.w3.org/2000/svg"
  viewBox="0 0 500 500"
  width="500"
  height="500"
  fill="#000000"
>
  <path
    class="cls-1"
    d="M102.52 198.35c8.49 4.34 21.55 8.67 35 8.67 14.51 0 22.17-6 22.17-15.07 0-8.68-6.62-13.63-23.41-19.62C113.1 164.27 98 151.47 98 131.23c0-23.75 19.88-41.93 52.83-41.93 15.75 0 27.35 3.31 35.64 7l-7 25.4a66.52 66.52 0 0 0-29.22-6.61c-13.68 0-20.3 6.2-20.3 13.43 0 8.88 7.87 12.8 25.89 19.62 24.67 9.08 36.27 21.89 36.27 41.51 0 23.33-18 43.16-56.36 43.16-16 0-31.7-4.13-39.58-8.47z"
  />
  <path
    class="cls-1"
    d="M213.39 91.58h85.38v25.81H245.1v31.81h50.14v25.61H245.1v56h-31.71z"
  />
  <path
    class="cls-1"
    d="M236.91 361.05H101a56.66 56.66 0 0 1-56.59-56.59V81.6A56.66 56.66 0 0 1 101 25h194.41A56.65 56.65 0 0 1 352 81.6v173.23a133.38 133.38 0 0 1 13.33-.67q3.36 0 6.68.17V81.6A76.68 76.68 0 0 0 295.41 5H101a76.68 76.68 0 0 0-76.6 76.6v222.86a76.69 76.69 0 0 0 76.6 76.6h133.82a131.59 131.59 0 0 1 2.09-20.01z"
  />
  <path
    class="cls-1"
    d="M366.29 274.54A110.22 110.22 0 0 0 255.1 385.73c.51 59.85 49.42 108.76 109.27 109.27a110.24 110.24 0 0 0 111.19-111.19c-.51-59.81-49.42-108.76-109.27-109.27zm-25.2 154.2l-3.55 3.55-.75.75-3.53 3.53-25.32 3.95 3.95-25.33 3.53-3.52.75-.75 3.55-3.55 52.6-51.13 21.37 21.36zm67-65.11l-21.39-21.36L400.34 329c17.37 4.26 22.38 20.37 22.38 20.37z"
  />
  <path
    class="cls-1"
    d="M294.29 274.58H86.44v20h183.22a130.86 130.86 0 0 1 24.63-20z"
  />
</svg>
