<svg
  xmlns="http://www.w3.org/2000/svg"
  viewBox="0 0 500 500"
  width="500"
  height="500"
  fill="#ffffff"
>
  <path
    class="cls-1"
    d="M102.32 198.08c8.49 4.34 21.55 8.68 35 8.68 14.5 0 22.17-6 22.17-15.08 0-8.67-6.63-13.63-23.41-19.62C112.89 164 97.76 151.2 97.76 131c0-23.79 19.89-42 52.84-42 15.75 0 27.35 3.3 35.64 7l-7 25.4a66.66 66.66 0 0 0-29.24-6.55c-13.68 0-20.31 6.2-20.31 13.43 0 8.88 7.88 12.8 25.9 19.62 24.66 9.08 36.27 21.89 36.27 41.51 0 23.34-18 43.17-56.37 43.17-16 0-31.7-4.14-39.58-8.47z"
  />
  <path
    class="cls-1"
    d="M213.19 91.31h85.38v25.81H244.9v31.81H295v25.61h-50.1v56h-31.71z"
  />
  <path
    class="cls-1"
    d="M236.89 361.19H100.94a56.65 56.65 0 0 1-56.59-56.59v-223A56.65 56.65 0 0 1 100.94 25h194.49A56.65 56.65 0 0 1 352 81.6v173.14a131.38 131.38 0 0 1 13.37-.68q3.35 0 6.65.17V81.6A76.69 76.69 0 0 0 295.43 5H100.94a76.69 76.69 0 0 0-76.61 76.6v223a76.69 76.69 0 0 0 76.61 76.6h133.88a130.46 130.46 0 0 1 2.07-20.01z"
  />
  <path
    class="cls-1"
    d="M350.32 337.82a32.49 32.49 0 1 0 0 65 32.5 32.5 0 0 0 32.49-32.48 32.53 32.53 0 0 0-32.49-32.52z"
  />
  <path
    class="cls-1"
    d="M365.39 274.44a110.28 110.28 0 1 0 110.28 110.28 110.28 110.28 0 0 0-110.28-110.28zm53.36 177l-38.35-38.35a51.75 51.75 0 0 1-30.08 9.52 52.3 52.3 0 1 1 43.84-23.78l38.6 38.6z"
  />
  <path
    class="cls-1"
    d="M295.23 274.32h-209v20h184.61a130.76 130.76 0 0 1 24.39-20z"
  />
</svg>
