<svg
  xmlns="http://www.w3.org/2000/svg"
  viewBox="0 0 500 500"
  width="500"
  height="500"
  fill="#ffffff"
>
  <path d="M102.44 198.15c8.49 4.34 21.55 8.67 35 8.67 14.51 0 22.17-6 22.17-15.08 0-8.67-6.63-13.62-23.41-19.61-23.2-8.06-38.32-20.87-38.32-41.13 0-23.75 19.9-41.92 52.84-41.92 15.75 0 27.36 3.3 35.64 7l-7 25.4a66.62 66.62 0 0 0-29.22-6.61c-13.68 0-20.31 6.2-20.31 13.43 0 8.88 7.88 12.8 25.91 19.62 24.66 9.09 36.26 21.89 36.26 41.51 0 23.34-18 43.17-56.36 43.17-16 0-31.71-4.13-39.58-8.47z" />
  <path d="M213.32 91.37h85.37v25.82H245V149h50.15v25.6H245v56h-31.7z" />
  <path d="M236.64 361.39H101a56.65 56.65 0 0 1-56.59-56.59V81.61A56.65 56.65 0 0 1 101 25h194.68a56.65 56.65 0 0 1 56.59 56.59v173q6.42-.63 13-.64c2.35 0 4.69.07 7 .19V81.61A76.69 76.69 0 0 0 295.68 5H101a76.69 76.69 0 0 0-76.61 76.61V304.8A76.69 76.69 0 0 0 101 381.4h133.62a130.58 130.58 0 0 1 2.02-20.01z" />
  <path d="M365.26 274.32a110.34 110.34 0 1 0 110.35 110.34 110.34 110.34 0 0 0-110.35-110.34zm63.23 78.25l-76.93 76.93a9.9 9.9 0 0 1-14 0l-40.68-40.68a9.91 9.91 0 0 1 14-14l33.67 33.68 69.92-69.93a9.91 9.91 0 0 1 14 14z" />
  <path d="M293.19 274.38H86.36v20H269a131.12 131.12 0 0 1 24.19-20z" />
</svg>
