<svg xmlns="http://www.w3.org/2000/svg" viewBox="0 0 500 500">
  <defs>
    <style>
      .cls-1 {
        fill: #231f20;
      }
    </style>
  </defs>
  <g id="sf425-draft">
    <path id="s" class="cls-1" d="M102.52,198.35c8.49,4.34,21.55,8.67,35,8.67,14.51,0,22.17-6,22.17-15.07,0-8.68-6.62-13.63-23.41-19.62C113.1,164.27,98,151.47,98,131.23c0-23.75,19.88-41.93,52.83-41.93,15.75,0,27.35,3.31,35.64,7l-7,25.4a66.52,66.52,0,0,0-29.22-6.61c-13.68,0-20.3,6.2-20.3,13.43,0,8.88,7.87,12.8,25.89,19.62,24.67,9.08,36.27,21.89,36.27,41.51,0,23.33-18,43.16-56.36,43.16-16,0-31.7-4.13-39.58-8.47Z"/>
    <path id="f" class="cls-1" d="M213.39,91.58h85.38v25.81H245.1V149.2h50.14v25.61H245.1v56H213.39Z"/>
    <path id="outline" class="cls-1" d="M236.91,361.05H101a56.66,56.66,0,0,1-56.59-56.59V81.6A56.66,56.66,0,0,1,101,25H295.41A56.65,56.65,0,0,1,352,81.6V254.83a133.38,133.38,0,0,1,13.33-.67q3.36,0,6.68.17V81.6A76.68,76.68,0,0,0,295.41,5H101a76.68,76.68,0,0,0-76.6,76.6V304.46a76.69,76.69,0,0,0,76.6,76.6H234.82A131.59,131.59,0,0,1,236.91,361.05Z"/>
    <path id="draft" class="cls-1" d="M366.29,274.54A110.22,110.22,0,0,0,255.1,385.73c.51,59.85,49.42,108.76,109.27,109.27A110.24,110.24,0,0,0,475.56,383.81C475.05,324,426.14,275.05,366.29,274.54Zm-25.2,154.2-3.55,3.55-.75.75-3.53,3.53-25.32,3.95,3.95-25.33,3.53-3.52.75-.75,3.55-3.55,52.6-51.13,21.37,21.36Zm67-65.11L386.7,342.27,400.34,329c17.37,4.26,22.38,20.37,22.38,20.37Z"/>
    <path id="bar" class="cls-1" d="M294.29,274.58H86.44v20H269.66A130.86,130.86,0,0,1,294.29,274.58Z"/>
  </g>
</svg>
