<svg xmlns="http://www.w3.org/2000/svg" viewBox="0 0 500 500">
  <defs>
    <style>
      .cls-1 {
        fill: #231f20;
      }
    </style>
  </defs>
  <g id="sf425-approved">
    <path id="s" class="cls-1" d="M102.92,198.67c8.52,4.35,21.62,8.7,35.13,8.7,14.55,0,22.25-6,22.25-15.12,0-8.7-6.66-13.67-23.5-19.68-23.28-8.09-38.46-20.93-38.46-41.24,0-23.83,20-42.06,53-42.06,15.8,0,27.45,3.31,35.76,7l-7.06,25.49a66.91,66.91,0,0,0-29.32-6.63c-13.72,0-20.37,6.22-20.37,13.47,0,8.91,7.9,12.84,26,19.68,24.75,9.12,36.38,22,36.38,41.65,0,23.41-18.08,43.31-56.54,43.31-16,0-31.81-4.15-39.71-8.5Z"/>
    <path id="f" class="cls-1" d="M214.15,91.55H299.8v25.9H246v31.91h50.31v25.69H246V231.2H214.15Z"/>
    <path id="outline" class="cls-1" d="M236.25,361.71H101.34a56.83,56.83,0,0,1-56.78-56.77V81.85a56.84,56.84,0,0,1,56.78-56.77H295.89a56.84,56.84,0,0,1,56.77,56.77V254.31c4.09-.38,8.22-.6,12.41-.6,2.58,0,5.13.09,7.67.24V81.85A76.94,76.94,0,0,0,295.89,5H101.34A77,77,0,0,0,24.48,81.85V304.94a76.94,76.94,0,0,0,76.86,76.85h133A132.76,132.76,0,0,1,236.25,361.71Z"/>
    <path id="submitted" class="cls-1" d="M475.52,384.56A110.45,110.45,0,1,0,365.07,495,110.44,110.44,0,0,0,475.52,384.56ZM331.26,363.14h21.93V332.65H377v30.49h21.93l-33.82,32.64ZM301,436.47V386.11h21.27l38.11,36.78H369l38.11-36.78h22.13v50.36Z"/>
    <path id="bar" class="cls-1" d="M295.55,275.15H86.78v20.08h184A131.55,131.55,0,0,1,295.55,275.15Z"/>
  </g>
</svg>
