<svg xmlns="http://www.w3.org/2000/svg" viewBox="0 0 500 500">
  <g id="shrink">
    <g id="shrinkIcon">
      <path id="downArrow" d="M243,61.9c-16.5-13.7-35.1-2.1-35.1,13.8v103L32.7,5,4.5,33,179.6,206.6H77.3a19.8,19.8,0,1,0,0,39.5v.2H227.1a20.3,20.3,0,0,0,20.3-20.4V71.2A12,12,0,0,0,243,61.9Z"/>
      <path id="upArrow" d="M321.9,291.7H422.8c10.8,0,19.9-8.4,20.3-19.1a19.8,19.8,0,0,0-19.8-20.5H288.5a34.2,34.2,0,0,0-34.2,34.2V422.2h.1c0,.1-.1.2-.1.3a19.8,19.8,0,1,0,39.6,0v-.3h0V319.8L467.6,495l27.9-28.2Z"/>
    </g>
  </g>
</svg>
