<svg
  xmlns="http://www.w3.org/2000/svg"
  viewBox="0 0 500 500"
  width="500"
  height="500"
  fill="#ffffff"
>
  <path d="M380.79 180.36c-5.49-23-16.47-41.93-21.46-48.92-9-10.49-13-14.48-42.44-14.48h-31.95v234.63c0 41.93 5 44.93 49.43 48.42v18.47H168.63V400c42.43-3.49 46.93-6.49 46.93-48.42V117H185.1c-27.95 0-35.94 4.49-45.42 16.47-7 9.49-14 27.46-20.47 47.43h-19c3.49-36.44 7-75.38 8-99.34h15C130.69 93 136.68 94 151.66 94h199.68c13.48 0 20.47-3 29-12.47h14.47c.5 21 2.5 64.89 5 97.34z" />
  <path d="M419.2 495H80.8A75.88 75.88 0 0 1 5 419.2V80.8A75.88 75.88 0 0 1 80.8 5h338.4A75.88 75.88 0 0 1 495 80.8v338.4a75.88 75.88 0 0 1-75.8 75.8zM80.8 44.2a36.64 36.64 0 0 0-36.6 36.6v338.4a36.64 36.64 0 0 0 36.6 36.6h338.4a36.64 36.64 0 0 0 36.6-36.6V80.8a36.64 36.64 0 0 0-36.6-36.6z" />
</svg>
