<svg xmlns="http://www.w3.org/2000/svg" viewBox="0 0 500 500">
  <g id="signature-draw">
    <path id="line" d="M476.35,435.67H5v38.16L476.35,475c10.3,0,18.65-8.81,18.65-19.67S486.65,435.67,476.35,435.67Z"/>
    <path id="pencil" d="M450.06,333.34l-12.62-12.62L434.77,318l-12.71-12.71L133.61,25C59.81,36,53.54,97.87,53.54,97.87l292,283.93,12.71,12.71,2.67,2.68,12.62,12.62L464.21,424Zm-368-240C94.37,66.37,105,57.44,127.87,47.37L157.8,77.3l-45.88,45.88Zm60.46,60.45L130,142l45.88-45.88,12.53,11.75ZM418.85,393.24l-36.14-5.64a110.21,110.21,0,0,1,45.12-45.25l5.64,36.13C427.14,379.47,420.35,383,418.85,393.24Z"/>
  </g>
</svg>
