<svg xmlns="http://www.w3.org/2000/svg" viewBox="0 0 500 500">
  <g id="signature-type">
    <path id="text-t" d="M380.79,180.36c-5.49-23-16.47-41.93-21.46-48.92-9-10.49-13-14.48-42.44-14.48H284.94V351.59c0,41.93,5,44.93,49.43,48.42v18.47H168.63V400c42.43-3.49,46.93-6.49,46.93-48.42V117H185.1c-27.95,0-35.94,4.49-45.42,16.47-7,9.49-14,27.46-20.47,47.43h-19c3.49-36.44,7-75.38,8-99.34h15C130.69,93,136.68,94,151.66,94H351.34c13.48,0,20.47-3,29-12.47h14.47c.5,21,2.5,64.89,5,97.34Z"/>
    <path id="signature-type-outline" d="M419.2,495H80.8A75.88,75.88,0,0,1,5,419.2V80.8A75.88,75.88,0,0,1,80.8,5H419.2A75.88,75.88,0,0,1,495,80.8V419.2A75.88,75.88,0,0,1,419.2,495ZM80.8,44.2A36.64,36.64,0,0,0,44.2,80.8V419.2a36.64,36.64,0,0,0,36.6,36.6H419.2a36.64,36.64,0,0,0,36.6-36.6V80.8a36.64,36.64,0,0,0-36.6-36.6Z"/>
  </g>
</svg>
