<svg
  xmlns="http://www.w3.org/2000/svg"
  viewBox="0 0 500 500"
  width="500"
  height="500"
  fill="#000000"
>
  <path d="M476.35 435.67H5v38.16L476.35 475c10.3 0 18.65-8.81 18.65-19.67s-8.35-19.66-18.65-19.66z" />
  <path d="M450.06 333.34l-12.62-12.62-2.67-2.72-12.71-12.71L133.61 25c-73.8 11-80.07 72.87-80.07 72.87l292 283.93 12.71 12.71 2.67 2.68 12.62 12.62L464.21 424zm-368-240c12.31-26.97 22.94-35.9 45.81-45.97L157.8 77.3l-45.88 45.88zm60.46 60.45L130 142l45.88-45.88 12.53 11.75zm276.33 239.45l-36.14-5.64a110.21 110.21 0 0 1 45.12-45.25l5.64 36.13c-6.33.99-13.12 4.52-14.62 14.76z" />
</svg>
