<svg
  xmlns="http://www.w3.org/2000/svg"
  viewBox="0 0 500 500"
  width="500"
  height="500"
  fill="#000000"
>
  <path d="M373.6 109.9h-28.3c0-.4.1-.7.1-1.1V78.1c0-12 .1-24.3-19.5-41.1a77 77 0 0 0-33.8-16.5v89.4h-17.2v-95a10 10 0 0 0-10-9.9h-29.8a10 10 0 0 0-10 9.9v3.6c0 .1 0 .1-.1.1v91.3h-17.3V20.6A74.9 74.9 0 0 0 174 37c-19.6 16.8-19.5 29.4-19.5 41.1v30.7c0 .4.1.7.1 1.1h-28.2l-.2.2v37.4l.2.2h247.2l.2-.2v-37.4z" />
  <path d="M173.2 165.1a82.3 82.3 0 0 0-6.7 32.6 83.5 83.5 0 0 0 167 0 82.3 82.3 0 0 0-6.7-32.6z" />
  <path d="M359.6 332.5c-41.1-35-109.6-34-109.6-34s-68.6-1-109.6 34-52.7 143.3-52.7 143.3c170.2 43.2 324.6 0 324.6 0s-11.7-108.3-52.7-143.3zM250 483.1l-22.7-59.2 16.5-69.3v-.2a79.8 79.8 0 0 1 12.6.4l13.8 67.9zm15.7-141.8c-13.5-2.5-24.1-2.1-31.8-.8l-16.5-23.4s31.2-19.3 65.2 0z" />
</svg>
