<svg xmlns="http://www.w3.org/2000/svg" viewBox="0 0 500 500">
  <g id="site-manager">
    <path id="hat" d="M373.6,109.9H345.3c0-.4.1-.7.1-1.1V78.1c0-12,.1-24.3-19.5-41.1a77,77,0,0,0-33.8-16.5v89.4H274.9V18.5h0V14.9a10,10,0,0,0-10-9.9H235.1a10,10,0,0,0-10,9.9v3.6c0,.1,0,.1-.1.1v91.3H207.7V20.6A74.9,74.9,0,0,0,174,37c-19.6,16.8-19.5,29.4-19.5,41.1v30.7c0,.4.1.7.1,1.1H126.4l-.2.2v37.4l.2.2H373.6l.2-.2V110.1Z"/>
    <path id="head" d="M173.2,165.1a82.3,82.3,0,0,0-6.7,32.6,83.5,83.5,0,0,0,167,0,82.3,82.3,0,0,0-6.7-32.6Z"/>
    <path id="body" d="M359.6,332.5c-41.1-35-109.6-34-109.6-34s-68.6-1-109.6,34S87.7,475.8,87.7,475.8c170.2,43.2,324.6,0,324.6,0S400.6,367.5,359.6,332.5ZM250,483.1l-22.7-59.2,16.5-69.3v-.2a79.8,79.8,0,0,1,12.6.4h0l13.8,67.9Zm15.7-141.8c-13.5-2.5-24.1-2.1-31.8-.8l-16.5-23.4s31.2-19.3,65.2,0Z"/>
  </g>
</svg>
