<svg xmlns="http://www.w3.org/2000/svg" viewBox="0 0 500 500">
  <defs>
    <style>
      .cls-1 {
        fill: #e2e2e2;
      }

      .cls-2 {
        fill: #cccbcb;
      }

      .cls-3 {
        fill: #fff;
      }

      .cls-4 {
        fill: #666667;
      }
    </style>
  </defs>
  <g id="something-went-wrong">
    <circle class="cls-1" cx="250" cy="250" r="245"/>
    <g>
      <polygon class="cls-2" points="396.77 157.79 394.89 328.49 373.54 320.58 373.54 150.83 396.77 157.79"/>
      <polygon class="cls-3" points="380.1 218.55 340.17 204.8 338.16 174.21 375.6 186.73 380.1 218.55"/>
      <polygon class="cls-3" points="331.43 132.71 331.43 245.44 317.47 239.56 317.47 130.84 331.43 132.71"/>
      <path class="cls-3" d="M288.41,293.82,326.75,308l3.82-29.18c.13-.4-38.92-16.54-38.92-16.54Z"/>
      <path class="cls-3" d="M198.86,259.43c9.52,0,9.48-9.49,9.48-9.49s0,9.49,9.49,9.49c-9.52,0-9.49,9.48-9.49,9.48S208.38,259.43,198.86,259.43Z"/>
      <path class="cls-3" d="M145.06,216.19c39.86,0,39.7-39.7,39.7-39.7s-.16,39.7,39.7,39.7c-39.86,0-39.7,39.7-39.7,39.7S184.92,216.19,145.06,216.19Z"/>
      <polygon class="cls-2" points="332.39 305.78 375.29 293.29 381.31 278.29 372.95 259.43 332.01 272.48 332.39 305.78"/>
      <path class="cls-4" d="M143.23,207.22a5.67,5.67,0,0,1-.91-.07l-14.59-2.4a5.54,5.54,0,1,1,1.8-10.93l14.59,2.4a5.54,5.54,0,0,1-.89,11Z"/>
      <g>
        <path class="cls-4" d="M337.78,214.72l36.61,13.07a5.48,5.48,0,0,0,5.88-1.41c18.22-19.24,1.33-45.33.6-46.43a5.49,5.49,0,0,0-2.62-2.11l-35.16-13.6a5.52,5.52,0,0,0-5.47.85c-18,14.48-3.61,45.47-3,46.78A5.51,5.51,0,0,0,337.78,214.72Zm4.71-38.84,30,11.6a43.4,43.4,0,0,1,4.24,10.8c1.66,7,.88,12.94-2.3,17.76L343.8,205.11C341.62,199.58,336.43,184.14,342.49,175.88Z"/>
        <path class="cls-4" d="M401.05,151.06,320.13,119.9a5.54,5.54,0,0,0-7.53,5.17v11.82a5.54,5.54,0,0,0,11.08,0v-3.76L393.53,160V325.35l-43-16.54,27.4-8.95a5.52,5.52,0,0,0,2.3-1.46c18.22-19.24,1.33-45.33.6-46.43a5.57,5.57,0,0,0-2.62-2.12l-35.16-13.6a5.59,5.59,0,0,0-3.72-.1l-15.69,5.13V181.91a5.54,5.54,0,0,0-11.08,0v63l-23,7.5a5.58,5.58,0,0,0-2.88,2.2h0c-.57.85-10.87,16.78-6.92,32.87a53.81,53.81,0,0,1-26.29-3.77C237.6,276.77,226,261,219,236.82c-.06-.21-.12-.51-.2-.88-.86-3.85-3.15-14.1-11.91-20.12a5.53,5.53,0,1,0-6.27,9.12c5.17,3.56,6.65,10.22,7.37,13.41.14.66.27,1.19.37,1.55,8,27.55,21.72,45.71,40.89,54a62.54,62.54,0,0,0,24.94,5,77.9,77.9,0,0,0,10.72-.77,31.41,31.41,0,0,0,2.46,2.94,5.47,5.47,0,0,0,2,1.36L324.53,316h0a5.43,5.43,0,0,0,2,.38,5.71,5.71,0,0,0,1.72-.27l5.69-1.86c.08,0,.15.09.24.12l62.89,24.22a5.53,5.53,0,0,0,7.53-5.17V156.23A5.54,5.54,0,0,0,401.05,151.06ZM324.73,304.21l-24.79-9.62a75.28,75.28,0,0,0,10.4-4.14,5.54,5.54,0,0,0-5.06-9.86,73.16,73.16,0,0,1-14.38,5,24.6,24.6,0,0,1,0-12.68,42,42,0,0,1,3-8.33l28.87,11.17C325.25,280.14,331.67,293.55,324.73,304.21Zm3.8-38.11-20.69-8,33.09-10.81,31.56,12.21c2.63,4.65,9.68,19.4.62,30.29L338,301.26c4.07-16.15-6.31-32.19-6.88-33.05A5.66,5.66,0,0,0,328.53,266.1Z"/>
        <path class="cls-4" d="M173.74,242.37c-.05-.07-5.11-7.75-1.41-13a5.54,5.54,0,0,0-9-6.42c-6.51,9.17-2.29,20.36,1.27,25.58,26.94,41.48,36.33,79.37,25.14,101.36-6,11.8-17.9,18.5-34.4,19.37-18.64,1-40.23-7-51.08-15a5.54,5.54,0,1,0-6.58,8.91c12,8.84,34,17.25,54.47,17.25,1.26,0,2.52,0,3.78-.1,20.67-1.1,35.78-9.88,43.68-25.4,13.21-26,3.82-67-25.76-112.48A.83.83,0,0,0,173.74,242.37Z"/>
      </g>
      <path class="cls-4" d="M208.34,187.45a5.54,5.54,0,0,1-3.91-9.46l16.11-16.11a5.54,5.54,0,0,1,7.83,7.83l-16.11,16.12A5.53,5.53,0,0,1,208.34,187.45Z"/>
      <path class="cls-3" d="M217.29,201.21c16.31,0,16.25-16.24,16.25-16.24s-.07,16.24,16.24,16.24c-16.31,0-16.24,16.25-16.24,16.25S233.6,201.21,217.29,201.21Z"/>
      <path class="cls-3" d="M249,223.52c7.72,0,7.69-7.69,7.69-7.69s0,7.69,7.7,7.69c-7.73,0-7.7,7.7-7.7,7.7S256.71,223.52,249,223.52Z"/>
      <path class="cls-4" d="M168.41,179.85a5.54,5.54,0,0,1-5.32-4l-7.47-25.93a5.54,5.54,0,0,1,10.64-3.06l7.47,25.93a5.53,5.53,0,0,1-3.79,6.85A5.44,5.44,0,0,1,168.41,179.85Z"/>
      <path class="cls-3" d="M154.61,185a3.08,3.08,0,0,0,3.16-3.17,3.1,3.1,0,0,0,3.17,3.17,3.09,3.09,0,0,0-3.17,3.16A3.08,3.08,0,0,0,154.61,185Z"/>
    </g>
  </g>
</svg>
