<svg
  xmlns="http://www.w3.org/2000/svg"
  viewBox="0 0 500 500"
  width="500"
  height="500"
  fill="#ffffff"
>
  <path d="M358.4 113a109.2 109.2 0 0 0-8.6-42.4h-.2a108.4 108.4 0 0 0-199.2 0h-.2a109.2 109.2 0 0 0-8.6 42.4v.4a108.5 108.5 0 0 0 8.6 42.4h.2a108.3 108.3 0 0 0 199.2 0h.2a108.5 108.5 0 0 0 8.6-42.4v-.4z" />
  <path d="M390 287.4C337.6 242.7 250 244 250 244s-87.6-1.3-140 43.4-67.4 183.1-67.4 183.1c217.5 55.2 414.8 0 414.8 0S442.3 332.1 390 287.4zM248.3 412.6l-1.5-37.9c-.4-11.9-.9-26.3-.9-40.7h-.4c-3.1 12.6-7.2 26.8-11 38.4L222.4 411h-17.5l-10.6-38.3c-3.2-11.6-6.6-25.8-8.9-38.7h-.3c-.6 13.4-1 28.7-1.8 41l-1.7 37.6h-20.8l6.4-99H197l9.7 33c3.1 11.5 6.2 23.9 8.4 35.5h.4c2.8-11.5 6.2-24.6 9.4-35.6l10.6-32.9h29.3l5.4 99zm63.4 1.5c-11.4 0-22.5-2.9-28.1-6l4.5-18.5a57.4 57.4 0 0 0 24.9 6.1c10.3 0 15.7-4.2 15.7-10.7s-4.7-9.7-16.6-13.9c-16.5-5.8-27.2-14.9-27.2-29.3 0-16.9 14.1-29.8 37.5-29.8 11.2 0 19.4 2.3 25.3 5l-5 18a47.8 47.8 0 0 0-20.8-4.7c-9.7 0-14.4 4.4-14.4 9.6s5.6 9.1 18.4 13.9c17.5 6.5 25.7 15.6 25.7 29.6 0 16.6-12.8 30.7-39.9 30.7z" />
</svg>
