<svg xmlns="http://www.w3.org/2000/svg" viewBox="0 0 500 500">
  <g id="staff-partner">
    <path id="head" d="M358.4,113a109.2,109.2,0,0,0-8.6-42.4h-.2a108.4,108.4,0,0,0-199.2,0h-.2a109.2,109.2,0,0,0-8.6,42.4v.4a108.5,108.5,0,0,0,8.6,42.4h.2a108.3,108.3,0,0,0,199.2,0h.2a108.5,108.5,0,0,0,8.6-42.4V113Z"/>
    <path id="inside" d="M248.2,320.5a44.4,44.4,0,0,0-10.8,1.1v34.1a40.5,40.5,0,0,0,8.7.7c13.9,0,22.5-7,22.5-18.9S261.2,320.5,248.2,320.5Z"/>
    <path id="body" d="M390,287.4C337.6,242.7,250,244,250,244s-87.6-1.3-140,43.4S42.6,470.5,42.6,470.5c217.5,55.2,414.8,0,414.8,0S442.3,332.1,390,287.4ZM283.9,364.3c-8.9,8.4-22.1,12.2-37.6,12.2a56.6,56.6,0,0,1-8.9-.6v41.4H211.5V303.2c8.1-1.4,19.4-2.4,35.3-2.4s27.6,3.1,35.4,9.3,12.3,15.4,12.3,26.7S290.7,357.8,283.9,364.3Z"/>
  </g>
</svg>
