<svg
  xmlns="http://www.w3.org/2000/svg"
  viewBox="0 0 500 500"
  width="500"
  height="500"
  fill="#000000"
>
  <path d="M358.4 113a109.2 109.2 0 0 0-8.6-42.4h-.2a108.4 108.4 0 0 0-199.2 0h-.2a109.2 109.2 0 0 0-8.6 42.4v.4a108.5 108.5 0 0 0 8.6 42.4h.2a108.3 108.3 0 0 0 199.2 0h.2a108.5 108.5 0 0 0 8.6-42.4v-.4z" />
  <path d="M390 287.4C337.6 242.7 250 244 250 244s-87.6-1.3-140 43.4-67.4 183.1-67.4 183.1c217.5 55.2 414.8 0 414.8 0S442.3 332.1 390 287.4zM288.3 419.8l-1.8-44.2c-.5-13.9-1-30.7-1-47.5h-.5c-3.6 14.7-8.4 31.2-12.9 44.7l-14 45.2h-20.4l-12.4-44.8c-3.8-13.6-7.7-30-10.5-45.1h-.3c-.7 15.6-1.2 33.4-2.1 47.8l-2 43.9h-24.2l7.4-115.6h34.8l11.3 38.6c3.6 13.4 7.2 27.8 9.8 41.4h.5c3.3-13.4 7.2-28.7 11-41.5l12.3-38.5h34.2l6.3 115.6z" />
</svg>
