<svg xmlns="http://www.w3.org/2000/svg" viewBox="0 0 500 500">
  <g id="staff-staff">
    <path id="head" d="M358.4,113a109.2,109.2,0,0,0-8.6-42.4h-.2a108.4,108.4,0,0,0-199.2,0h-.2a109.2,109.2,0,0,0-8.6,42.4v.4a108.5,108.5,0,0,0,8.6,42.4h.2a108.3,108.3,0,0,0,199.2,0h.2a108.5,108.5,0,0,0,8.6-42.4V113Z"/>
    <path id="body" d="M390,287.4C337.6,242.7,250,244,250,244s-87.6-1.3-140,43.4S42.6,470.5,42.6,470.5c217.5,55.2,414.8,0,414.8,0S442.3,332.1,390,287.4ZM243.3,421.6c-13.2,0-26.2-3.5-32.7-7.1l5.3-21.6a66.5,66.5,0,0,0,29,7.2c12,0,18.3-5,18.3-12.5s-5.5-11.3-19.4-16.3c-19.2-6.7-31.7-17.3-31.7-34.1,0-19.8,16.5-34.9,43.7-34.9,13.1,0,22.7,2.8,29.5,5.9l-5.8,21.1a54,54,0,0,0-24.2-5.5c-11.3,0-16.8,5.1-16.8,11.1s6.5,10.7,21.5,16.3c20.4,7.6,30,18.2,30,34.5C290,405.1,275,421.6,243.3,421.6Z"/>
  </g>
</svg>
