<svg
  xmlns="http://www.w3.org/2000/svg"
  viewBox="0 0 500 500"
  width="500"
  height="500"
  fill="#ffffff"
>
  <path d="M259.5 54.6V43.2h-19v11.4a122.5 122.5 0 0 0-112.9 122.1h244.9a122.5 122.5 0 0 0-113-122.1z" />
  <rect x="18.4" y="437.8" width="463.6" height="19.04" />
  <polygon points="327 215.7 352.6 225.7 371.7 233 371.7 215.7 384.8 215.7 384.8 196.7 277.9 196.7 327 215.7" />
  <polygon points="127.8 233.2 146.9 225.8 172.8 215.7 221.8 196.7 115.3 196.7 115.3 215.7 127.8 215.7 127.8 233.2" />
  <path d="M372.3 253.7l-122.5-47.5-122.1 47.5H5v19.1h13.2v146h463.6v-146H495v-19.1zM73.9 399.2H43.1v-82.7h30.8zm53.3 0H96.4v-82.7h30.8zM259 377.8v19.9h-19.1v-18.5c-13-.6-25.7-4.1-33.1-8.4l5.9-22.7a69.2 69.2 0 0 0 32.3 8.5c11 0 18.6-4.3 18.6-12s-6.2-12.1-20.6-17c-20.8-7-35-16.7-35-35.5 0-17.2 12.1-30.6 32.9-34.7V239h19v17.1c13.1.6 21.8 3.3 28.2 6.4l-5.6 22c-5.1-2.2-14-6.6-28-6.6s-16.7 5.4-16.7 10.9 6.8 10.5 23.3 16.7c23.1 8.1 32.5 18.8 32.5 36.3s-12.3 32.1-34.6 36zm144.4 21.4h-30.7v-82.7h30.7zm52.4 0H425v-82.7h30.8z" />
</svg>
