<svg
  xmlns="http://www.w3.org/2000/svg"
  viewBox="0 0 500 500"
  width="500"
  height="500"
  fill="#000000"
>
  <rect x="313.4" y="321.7" width="15.6" height="87.5" />
  <rect x="349.6" y="321.7" width="15" height="87.5" />
  <path d="M215.6 69.2a17.4 17.4 0 0 0-15.8 10.2h31.6a17.4 17.4 0 0 0-15.8-10.2z" />
  <path d="M250 5C114.7 5 5 114.7 5 250s109.7 245 245 245 245-109.7 245-245S385.3 5 250 5zM112.8 415.5a31.6 31.6 0 0 1-31.5-31.6V114.5A31.5 31.5 0 0 1 112.8 83H184a31.8 31.8 0 0 1 63.2 0h66a31.6 31.6 0 0 1 31.6 31.5v160.7a77 77 0 0 0-8.1-.4c-2.4 0-4.8.1-7.1.3V114.5a16.3 16.3 0 0 0-16.4-16.4H112.8a16.4 16.4 0 0 0-16.4 16.4v269.4a16.4 16.4 0 0 0 16.4 16.4h141a89.2 89.2 0 0 0 8.2 15.2zm133.9-47.3h-65.3a7.7 7.7 0 0 1-7.7-7.7v-.7a7.6 7.6 0 0 1 7.7-7.6h66.1a90.7 90.7 0 0 0-.9 12.8c0 1 0 2.1.1 3.2zm-65.1-34.6a7.9 7.9 0 0 1-7.9-7.9 8 8 0 0 1 7.9-7.9h78.3a92.8 92.8 0 0 0-7.8 15.8zm.2-61.4a4.3 4.3 0 0 1-1.6 0 7.9 7.9 0 0 1-7.2-8.8 8 8 0 0 1 8.8-7.2h90.1a8 8 0 0 1 0 16zM173 167.4a8 8 0 0 1 8.8-7.2h90.1a8 8 0 0 1 0 16h-91.7a7.9 7.9 0 0 1-7.2-8.8zm8.6 70.2a7.9 7.9 0 0 1 0-15.8h126.6a7.9 7.9 0 1 1 0 15.8zm126.6-96H180a7.9 7.9 0 0 1-7-8.7 7.8 7.8 0 0 1 8.6-7h126.6a4.3 4.3 0 0 1 1.6 0 7.8 7.8 0 0 1 7 8.6 7.9 7.9 0 0 1-8.6 7.1zM109.9 272.2v-50.4h50.4v50.4zm50.4 45.6v50.4h-50.4v-50.4zm-50.4-141.6v-50.3h50.4v50.3zM339.3 445a79.5 79.5 0 1 1 0-158.9 79.3 79.3 0 0 1 79.4 79.4 79.5 79.5 0 0 1-79.4 79.5z" />
</svg>
