<svg
  xmlns="http://www.w3.org/2000/svg"
  viewBox="0 0 500 500"
  width="500"
  height="500"
  fill="#ffffff"
>
  <path d="M215.3 69.3a17.4 17.4 0 0 0-15.9 10.2h31.8a17.5 17.5 0 0 0-15.9-10.2z" />
  <polygon points="324.4 340.7 324.4 356.5 302.3 356.5 302.3 373.7 324.4 373.7 324.4 389.6 348 365.1 324.4 340.7" />
  <path d="M250 5C114.7 5 5 114.7 5 250s109.7 245 245 245 245-109.7 245-245S385.3 5 250 5zM112 417.4a31.6 31.6 0 0 1-31.7-31.7V114.8A31.7 31.7 0 0 1 112 83.1h71.5a32 32 0 0 1 63.6 0h66.4a31.8 31.8 0 0 1 31.7 31.7v161.5c-2.7-.1-5.4-.3-8.1-.3s-4.8.1-7.1.3V114.8a16.5 16.5 0 0 0-16.5-16.5H112a16.5 16.5 0 0 0-16.5 16.5v270.9a16.5 16.5 0 0 0 16.5 16.5h141.7a89 89 0 0 0 8.3 15.2zm134.5-47.5h-65.7a7.7 7.7 0 0 1-7.6-7.7v-.7a7.6 7.6 0 0 1 7.7-7.7h66.5a110.3 110.3 0 0 0-1 12.8c0 1.1.1 2.2.1 3.3zm-73.3-201.1a8 8 0 0 1 8.1-8h90.6a7.9 7.9 0 0 1 8 8 8 8 0 0 1-8 8.1h-90.6a8.2 8.2 0 0 1-8.1-8.1zm7.9 166.3a8 8 0 0 1 0-15.9h78.7a89.6 89.6 0 0 0-7.7 15.9zm.2-61.7a8.1 8.1 0 1 1 0-16.1h90.6a8.1 8.1 0 0 1 0 16.1zm-.2-34.8a8 8 0 0 1 0-15.9h127.4a8 8 0 0 1 0 15.9zM308.5 142H181.1a7.9 7.9 0 0 1-7.9-7.9 7.9 7.9 0 0 1 7.9-7.9h127.4a7.8 7.8 0 0 1 7.8 7.9 7.8 7.8 0 0 1-7.8 7.9zM109 273.3v-50.6h50.7v50.6zm50.7 45.9v50.7H109v-50.7zM109 176.8v-50.6h50.7v50.6zM339.8 445a79.9 79.9 0 0 1 0-159.8h.2a79.9 79.9 0 0 1-.2 159.8z" />
  <polygon points="340.9 334.8 367.5 362.3 367.5 368.5 340.9 396.1 340.9 411.5 377.4 411.5 377.4 318.8 340.9 318.8 340.9 334.8" />
</svg>
