<svg
  xmlns="http://www.w3.org/2000/svg"
  viewBox="0 0 500 500"
  width="500"
  height="500"
  fill="#ffffff"
>
  <path d="M402 387.4a19.1 19.1 0 1 0 24.5 11.4 19.1 19.1 0 0 0-24.5-11.4z" />
  <path d="M325.7 388.6a19.1 19.1 0 1 0 11.4 24.5 19.1 19.1 0 0 0-11.4-24.5z" />
  <path d="M363.8 294.8A100.1 100.1 0 1 0 464 394.9a100.1 100.1 0 0 0-100.2-100.1zm56 141.4A32.5 32.5 0 0 1 376 408h-.1l-.7-14.3c-9.2-6-18.1-2.1-22.7.9l-.7 13.3v1.3h-.1a32.2 32.2 0 0 1-1.8 8.6 32.8 32.8 0 0 1-61.6-22.4 33.6 33.6 0 0 1 4.2-7.7h-.1l22.9-30.2h.1a8.5 8.5 0 0 1 3.5-3.8c4.5-2.7 12-2.9 19.5-.1 9.7 3.5 15.9 10.6 15.3 16.7 4.6-2.7 12.3-5.5 20.4-.9a7.4 7.4 0 0 1 .3-4.4c1.7-4.9 7.3-9.9 14.9-12.7 9.8-3.6 19.5-2 22.7 3.4h.1l22.3 29.6.4.5.5.6h-.1a30.5 30.5 0 0 1 4.1 7.8 32.7 32.7 0 0 1-19.5 42z" />
  <path d="M322.1 94.6H162.5a9.9 9.9 0 0 0 0 19.8h159.6a9.9 9.9 0 0 0 0-19.8z" />
  <rect x="72.1" y="94.6" width="63.5" height="63.46" />
  <path d="M162.7 158h113.6a10.1 10.1 0 1 0 0-20.1H162.7a10.1 10.1 0 1 0 0 20.1z" />
  <path d="M332 225.5a9.9 9.9 0 0 0-9.9-9.9H162.5a9.9 9.9 0 0 0 0 19.8h159.6a9.9 9.9 0 0 0 9.9-9.9z" />
  <rect x="72.1" y="215.6" width="63.5" height="63.46" />
  <path d="M286.4 268.9a10.1 10.1 0 0 0-10.1-10H162.7a10.1 10.1 0 1 0 0 20.1h113.6a10.1 10.1 0 0 0 10.1-10.1z" />
  <rect x="72.1" y="336.6" width="63.5" height="63.46" />
  <path d="M162.2 379.9a9.6 9.6 0 0 0-9.6 9.6v.9a9.6 9.6 0 0 0 9.6 9.6h82.3c-.1-1.3-.1-2.7-.1-4a120.9 120.9 0 0 1 1.1-16.1z" />
  <path d="M261.1 336.6h-98.6a9.9 9.9 0 0 0 0 19.8h88.9a117.2 117.2 0 0 1 9.7-19.8z" />
  <path d="M75.8 440.6a20.7 20.7 0 0 1-20.7-20.7V80.3a20.7 20.7 0 0 1 20.7-20.7h252.6A20.7 20.7 0 0 1 349 80.3v202.4c3-.2 6-.4 9-.4s6.8.2 10.1.5V80.3a39.7 39.7 0 0 0-39.7-39.7h-83.3a40 40 0 0 0-79.6 0H75.8A39.8 39.8 0 0 0 36 80.3v339.6a39.8 39.8 0 0 0 39.8 39.7h188.1a102.9 102.9 0 0 1-10.4-19zM205.3 23.2A21.9 21.9 0 0 1 225.2 36h-39.8a21.9 21.9 0 0 1 19.9-12.8z" />
</svg>
