<svg
  xmlns="http://www.w3.org/2000/svg"
  viewBox="0 0 500 500"
  width="500"
  height="500"
  fill="#000000"
>
  <path d="M400.1 337.6a66.8 66.8 0 0 0-122.7 0L276 341a68.7 68.7 0 0 0-4 22.4v.8a69.9 69.9 0 0 0 4.4 23.5l1 2.2a66.8 66.8 0 0 0 122.7 0l1.4-3.3a63.8 63.8 0 0 0 4-22.4v-.8a65.3 65.3 0 0 0-4.4-23.5zm-35.8 63.8l-37.5-37.5V318h14.6v39.9l33.3 33.2z" />
  <path d="M250 5C114.7 5 5 114.7 5 250s109.7 245 245 245 245-109.7 245-245S385.3 5 250 5zM111.3 414a31.4 31.4 0 0 1-31.4-31.3v-268a31.4 31.4 0 0 1 31.4-31.3H182a31.6 31.6 0 0 1 62.8 0h65.7a31.3 31.3 0 0 1 31.3 31.3v159.8a72.1 72.1 0 0 0-7.9-.4c-2.4 0-4.7.1-7.1.3V114.7a16.3 16.3 0 0 0-16.3-16.3H111.3A16.3 16.3 0 0 0 95 114.7v268a16.3 16.3 0 0 0 16.3 16.3h140.1a94.8 94.8 0 0 0 8.2 15zm133.1-47h-65a7.6 7.6 0 0 1-7.6-7.6v-.7a7.7 7.7 0 0 1 7.6-7.7h65.7a110 110 0 0 0-.8 12.8c0 1.1 0 2.1.1 3.2zm-64.8-34.4a7.9 7.9 0 0 1 0-15.7h77.9a91.4 91.4 0 0 0-7.7 15.7zm.2-61.1a7.9 7.9 0 0 1-8-7.9 8 8 0 0 1 8-8h89.6a8 8 0 0 1 8 8 7.9 7.9 0 0 1-8 7.9zm-.2-34.4a7.9 7.9 0 0 1 0-15.7h126.1a7.9 7.9 0 0 1 7.7 7.9 7.8 7.8 0 0 1-7.8 7.8zm-7.8-69a8 8 0 0 1 8-8h89.6a8 8 0 0 1 8 8 7.9 7.9 0 0 1-8 7.9h-89.6a7.9 7.9 0 0 1-8-7.9zm141.6-34.3a7.8 7.8 0 0 1-7.8 7.8h-126a7.8 7.8 0 0 1 0-15.6h126a7.8 7.8 0 0 1 7.8 7.8zm-205 137.7v-50.1h50.1v50.1zm50.1 45.4V367h-50.1v-50.1zm-50.1-140.8V126h50.1v50.1zm311.7 187.8a80.8 80.8 0 0 1-6.5 31.8l-1.9 4.4a81.7 81.7 0 0 1-145.8 0l-2-4.4a79.4 79.4 0 0 1-6.4-31.9v-.2a78.9 78.9 0 0 1 6.4-31.8l1.9-4.5a81.8 81.8 0 0 1 145.8 0l2 4.5a81.1 81.1 0 0 1 6.5 31.8z" />
  <path d="M213.4 69.7a17.4 17.4 0 0 0-15.7 10.1h31.5a17.5 17.5 0 0 0-15.8-10.1z" />
</svg>
