<svg xmlns="http://www.w3.org/2000/svg" viewBox="0 0 500 500">
  <g id="term-expired">
    <path id="top-line1" d="M329.7,103.7a9.8,9.8,0,0,0-9.8-9.8H161.5a9.8,9.8,0,0,0-9.8,9.8h0a9.8,9.8,0,0,0,9.8,9.8H319.9a9.8,9.8,0,0,0,9.8-9.8Z"/>
    <rect id="top-square" x="71.9" y="93.9" width="63" height="62.96"/>
    <path id="top-line2" d="M161.7,156.8H274.4a10,10,0,0,0,0-20H161.7a10,10,0,0,0,0,20Z"/>
    <path id="middle-line1" d="M329.7,223.8a9.8,9.8,0,0,0-9.8-9.9H161.5a9.9,9.9,0,0,0,0,19.7H319.9A9.8,9.8,0,0,0,329.7,223.8Z"/>
    <rect id="middle-square" x="71.9" y="213.9" width="63" height="62.96"/>
    <path id="middle-line1-2" data-name="middle-line1" d="M284.4,266.9a10,10,0,0,0-10-10H161.7a10,10,0,0,0,0,20H274.4A10,10,0,0,0,284.4,266.9Z"/>
    <rect id="bottom-square" x="71.9" y="334" width="63" height="62.96"/>
    <path id="bottom-line2" d="M161.2,376.9a9.6,9.6,0,0,0-9.5,9.6v.9a9.6,9.6,0,0,0,9.5,9.6h81.7c-.1-1.4-.1-2.7-.1-4.1a121.7,121.7,0,0,1,1.1-16Z"/>
    <path id="bottom-line1" d="M259.4,334H161.5a9.9,9.9,0,0,0,0,19.7h88.3A115.8,115.8,0,0,1,259.4,334Z"/>
    <path id="outline" d="M75.5,437.2A20.5,20.5,0,0,1,55,416.7V79.7A20.5,20.5,0,0,1,75.5,59.2H326.1a20.5,20.5,0,0,1,20.5,20.5V280.5c3-.2,5.9-.3,8.9-.3s6.7.1,10,.4V79.7a39.4,39.4,0,0,0-39.4-39.4H243.5a39.7,39.7,0,0,0-79,0h-89A39.4,39.4,0,0,0,36.1,79.7v337a39.4,39.4,0,0,0,39.4,39.4H262.1a111.5,111.5,0,0,1-10.3-18.9ZM204,23.1a21.8,21.8,0,0,1,19.8,12.7H184.2A21.8,21.8,0,0,1,204,23.1Z"/>
    <path id="circle" d="M455.8,352.7l-2.5-5.6a102.8,102.8,0,0,0-183.4,0l-2.4,5.6a101.4,101.4,0,0,0-8.1,40v.3a101.9,101.9,0,0,0,8.1,40.1l2.5,5.5a102.7,102.7,0,0,0,183.4,0l2.4-5.5a101.8,101.8,0,0,0,8.1-40v-.4A101.8,101.8,0,0,0,455.8,352.7Zm-10.2,40.7a81.7,81.7,0,0,1-5,28.2l-1.8,4.2a83.9,83.9,0,0,1-154.3,0l-1.3-2.8a85.3,85.3,0,0,1-5.5-29.6h0v-.9a84.1,84.1,0,0,1,5-28.2l1.8-4.3a84,84,0,0,1,154.3,0l1.3,2.9a82.7,82.7,0,0,1,5.5,29.6h0Z"/>
    <polygon id="hands" points="365 335.3 346.6 335.3 346.6 393.1 393.8 440.3 406.8 427.3 365 385.5 365 335.3"/>
  </g>
</svg>
