<svg xmlns="http://www.w3.org/2000/svg" viewBox="0 0 500 500">
  <g id="terms">
    <rect id="bottom-square" x="110" y="362.4" width="68.3" height="68.39"/>
    <path id="bottom-line2" d="M330,409.1H207.6a10.9,10.9,0,1,0,0,21.7H330a10.9,10.9,0,0,0,0-21.7Z"/>
    <path id="bottom-line1" d="M379.5,362.4H207.4a10.8,10.8,0,0,0-9.7,11.7,11,11,0,0,0,9.7,9.7h172A10.6,10.6,0,0,0,390,373.1,10.5,10.5,0,0,0,379.5,362.4Z"/>
    <rect id="middle-square" x="109.9" y="231.9" width="68.3" height="68.39"/>
    <path id="middle-line2" d="M207.5,300.4H329.9a10.9,10.9,0,1,0,0-21.8H207.5a10.9,10.9,0,0,0,0,21.8Z"/>
    <path id="middle-line1" d="M207.3,253.4h172a10.8,10.8,0,0,0,.1-21.5H207.3a10.8,10.8,0,0,0,0,21.5Z"/>
    <rect id="top-squre" x="109.9" y="101.6" width="68.3" height="68.39"/>
    <path id="top-line2" d="M329.9,169.9a10.9,10.9,0,1,0,0-21.7H207.5a10.9,10.9,0,0,0,0,21.7Z"/>
    <path id="top-line1" d="M207.3,122.9h172a10.7,10.7,0,1,0,0-21.3h-172a10.7,10.7,0,0,0,0,21.3Z"/>
    <path id="outline" d="M386.1,43.4H296.3a43.1,43.1,0,0,0-85.7,0H113.9A42.7,42.7,0,0,0,71.1,86.2v366A42.8,42.8,0,0,0,113.9,495H386.1a42.8,42.8,0,0,0,42.8-42.8V86.2A42.8,42.8,0,0,0,386.1,43.4ZM253.5,24.6a24,24,0,0,1,21.4,13.8H232A23.8,23.8,0,0,1,253.5,24.6ZM408.4,452.2a22.2,22.2,0,0,1-22.3,22.2H113.9a22.2,22.2,0,0,1-22.3-22.2V86.2a22.3,22.3,0,0,1,22.3-22.3H386.1a22.3,22.3,0,0,1,22.3,22.3Z"/>
  </g>
</svg>
