<svg
  xmlns="http://www.w3.org/2000/svg"
  viewBox="0 0 500 500"
  width="500"
  height="500"
  fill="#ffffff"
>
  <path d="M373.7 331.2l-50 50.1-23.9-23.8a.1.1 0 0 1-.1-.1 7.9 7.9 0 0 0-11.1.1 8 8 0 0 0 0 11.1l29.5 29.4a7.8 7.8 0 0 0 11.1 0l55.7-55.6a7.9 7.9 0 0 0-11.2-11.2z" />
  <path d="M214.5 69.3a17.4 17.4 0 0 0-15.9 10.1h31.7a17.3 17.3 0 0 0-15.8-10.1z" />
  <path d="M250 5C114.7 5 5 114.7 5 250s109.7 245 245 245 245-109.7 245-245S385.3 5 250 5zM111.2 417.2a31.7 31.7 0 0 1-31.7-31.7V114.8a31.7 31.7 0 0 1 31.7-31.7h71.5a32 32 0 0 1 63.6 0h66.3a31.8 31.8 0 0 1 31.7 31.7v161.4q-4.1-.3-8.1-.3c-2.4 0-4.8.1-7.1.3V114.8a16.5 16.5 0 0 0-16.5-16.5H111.2a16.5 16.5 0 0 0-16.5 16.5v270.7a16.5 16.5 0 0 0 16.5 16.5h141.7a96.8 96.8 0 0 0 8.2 15.2zm134.5-47.5h-65.6a7.7 7.7 0 0 1-7.7-7.7v-.7a7.8 7.8 0 0 1 7.7-7.7h66.4a93.2 93.2 0 0 0-.9 12.9c0 1 0 2.1.1 3.2zM180.3 335a8 8 0 0 1 0-15.9h78.6a89.4 89.4 0 0 0-7.6 15.9zm.2-61.7a8.1 8.1 0 1 1 0-16.1H271a8.1 8.1 0 1 1 0 16.1zm-.2-34.8a8 8 0 0 1-7.9-7.9 7.9 7.9 0 0 1 7.9-7.9h127.3a8 8 0 0 1 0 15.9zm-7.9-69.8a8 8 0 0 1 8.1-8H271a8 8 0 1 1 0 16h-90.5a8 8 0 0 1-8.1-8zM307.6 142H180.3a7.9 7.9 0 0 1 0-15.8h127.3a7.9 7.9 0 0 1 0 15.8zM108.3 273.2v-50.6h50.5v50.6zm50.5 45.9v50.6h-50.5v-50.6zm-50.5-142.3v-50.6h50.5v50.6zm312.2 188.4a79.9 79.9 0 1 1 0-.1z" />
</svg>
