<svg xmlns="http://www.w3.org/2000/svg" viewBox="0 0 500 500">
  <g id="term-suspended">
    <path id="top-line1" d="M323.1,94.3h-159a9.9,9.9,0,1,0,0,19.7h159a9.9,9.9,0,1,0,0-19.7Z"/>
    <rect id="top-square" x="74.1" y="94.3" width="63.2" height="63.23"/>
    <path id="top-line2" d="M164.3,157.5H277.5a10.1,10.1,0,0,0,0-20.1H164.3a10.1,10.1,0,1,0,0,20.1Z"/>
    <path id="middle-line1" d="M333,224.7h0a9.9,9.9,0,0,0-9.9-9.9h-159a9.9,9.9,0,0,0,0,19.8h159A9.9,9.9,0,0,0,333,224.7Z"/>
    <rect id="middle-square" x="74.1" y="214.8" width="63.2" height="63.23"/>
    <path id="middle-line2" d="M287.5,268a10,10,0,0,0-10-10H164.3a10.1,10.1,0,1,0,0,20.1H277.5A10.1,10.1,0,0,0,287.5,268Z"/>
    <rect id="bottom-square" x="74.1" y="335.4" width="63.2" height="63.23"/>
    <path id="bottom-line2" d="M163.8,378.5a9.6,9.6,0,0,0-9.6,9.6v.9a9.6,9.6,0,0,0,9.6,9.6h82c-.1-1.3-.1-2.7-.1-4a122,122,0,0,1,1.1-16.1Z"/>
    <path id="bottom-line1" d="M262.4,335.4H164.1a9.9,9.9,0,1,0,0,19.8h88.6A113.6,113.6,0,0,1,262.4,335.4Z"/>
    <path id="outline" d="M77.7,439a20.6,20.6,0,0,1-20.6-20.6V80A20.6,20.6,0,0,1,77.7,59.4H329.4A20.7,20.7,0,0,1,350,80V281.7c2.9-.2,5.9-.4,8.9-.4s6.8.2,10.1.5V80a39.7,39.7,0,0,0-39.6-39.6H246.5a40,40,0,0,0-79.4,0H77.7A39.7,39.7,0,0,0,38.1,80V418.4A39.7,39.7,0,0,0,77.7,458H265.1a108.7,108.7,0,0,1-10.3-19ZM206.8,23.1a21.8,21.8,0,0,1,19.8,12.8H186.9A22.1,22.1,0,0,1,206.8,23.1Z"/>
    <path id="pause" d="M362.1,295.5a99.8,99.8,0,1,0,99.8,99.7A99.7,99.7,0,0,0,362.1,295.5ZM349.2,450.2H329.6V340.3h19.6Zm44.7,0H375.1V340.3h18.8Z"/>
  </g>
</svg>
