<svg xmlns="http://www.w3.org/2000/svg" viewBox="0 0 500 500">
  <g id="term-suspended-status">
    <rect id="line1" x="313.4" y="321.7" width="15.6" height="87.5"/>
    <rect id="line2" x="349.6" y="321.7" width="15" height="87.5"/>
    <path id="inside-outline" d="M215.6,69.2a17.4,17.4,0,0,0-15.8,10.2h31.6A17.4,17.4,0,0,0,215.6,69.2Z"/>
    <path id="outline" d="M250,5C114.7,5,5,114.7,5,250S114.7,495,250,495,495,385.3,495,250,385.3,5,250,5ZM112.8,415.5a31.6,31.6,0,0,1-31.5-31.6V114.5A31.5,31.5,0,0,1,112.8,83H184a31.8,31.8,0,0,1,63.2,0h66a31.6,31.6,0,0,1,31.6,31.5V275.2a77,77,0,0,0-8.1-.4c-2.4,0-4.8.1-7.1.3V114.5a16.3,16.3,0,0,0-16.4-16.4H112.8a16.4,16.4,0,0,0-16.4,16.4V383.9a16.4,16.4,0,0,0,16.4,16.4h141a89.2,89.2,0,0,0,8.2,15.2Zm133.9-47.3H181.4a7.7,7.7,0,0,1-7.7-7.7v-.7a7.6,7.6,0,0,1,7.7-7.6h66.1a90.7,90.7,0,0,0-.9,12.8C246.6,366,246.6,367.1,246.7,368.2Zm-65.1-34.6h0a7.9,7.9,0,0,1-7.9-7.9,8,8,0,0,1,7.9-7.9h78.3a92.8,92.8,0,0,0-7.8,15.8Zm.2-61.4a4.3,4.3,0,0,1-1.6,0,7.9,7.9,0,0,1-7.2-8.8,8,8,0,0,1,8.8-7.2h90.1a8,8,0,0,1,0,16ZM173,167.4a8,8,0,0,1,8.8-7.2h90.1a8,8,0,0,1,0,16H180.2A7.9,7.9,0,0,1,173,167.4Zm8.6,70.2a7.9,7.9,0,0,1,0-15.8H308.2a7.9,7.9,0,1,1,0,15.8Zm126.6-96H180a7.9,7.9,0,0,1-7-8.7,7.8,7.8,0,0,1,8.6-7H308.2a4.3,4.3,0,0,1,1.6,0,7.8,7.8,0,0,1,7,8.6A7.9,7.9,0,0,1,308.2,141.6ZM109.9,272.2V221.8h50.4v50.4Zm50.4,45.6v50.4H109.9V317.8ZM109.9,176.2V125.9h50.4v50.3ZM339.3,445a79.5,79.5,0,1,1,0-158.9h0a79.3,79.3,0,0,1,79.4,79.4h0A79.5,79.5,0,0,1,339.3,445Z"/>
  </g>
</svg>
