<svg xmlns="http://www.w3.org/2000/svg" viewBox="0 0 500 500">
  <g id="term-no-show-status">
    <path id="binoculars" d="M378.9,334.2h-.1c-2.5-4.3-10.2-5.5-18-2.7-6.1,2.2-10.5,6.2-11.9,10.1a6,6,0,0,0-.2,3.5c-6.5-3.6-12.6-1.4-16.2.7.4-4.8-4.5-10.5-12.2-13.2-6-2.3-11.9-2.1-15.5,0a7,7,0,0,0-2.8,3.1h-.1l-18.2,24h.1a24,24,0,0,0-3.3,6.1,26,26,0,0,0,48.9,17.8,26.7,26.7,0,0,0,1.5-6.8h.1v-1.1l.5-10.5c3.7-2.4,10.7-5.5,18.1-.8l.5,11.4h.1a26.5,26.5,0,0,0,1.6,7.3A25.8,25.8,0,0,0,385,398.2h.1a25.9,25.9,0,0,0,15.4-33.4,21.5,21.5,0,0,0-3.2-6.2h.1l-.4-.4-.4-.4Zm-59.6,45.7a15.2,15.2,0,1,1-9.1-19.5h0A15.3,15.3,0,0,1,319.3,379.9Zm62,8.1a15.2,15.2,0,0,1-10.4-28.6h0A15.2,15.2,0,1,1,381.3,388Z"/>
    <path id="inside-outline" d="M214.5,69.8A17.5,17.5,0,0,0,198.6,80h31.7A17.5,17.5,0,0,0,214.5,69.8Z"/>
    <path id="outline" d="M250,5C114.7,5,5,114.7,5,250S114.7,495,250,495,495,385.3,495,250,385.3,5,250,5ZM111.5,416.8a31.7,31.7,0,0,1-31.7-31.5V115.2a31.8,31.8,0,0,1,31.7-31.6h71.3a31.8,31.8,0,0,1,63.3,0h66.2a31.6,31.6,0,0,1,31.6,31.6v161c-2.6-.2-5.6-.4-8-.4s-4.8.2-7.2.4v-161a16.5,16.5,0,0,0-16.4-16.5H111.5A16.5,16.5,0,0,0,95,115.2V385.3a16.4,16.4,0,0,0,16.5,16.4H252.8a76.3,76.3,0,0,0,8.3,15.1Zm134.1-47.3H180.2a7.8,7.8,0,0,1-7.7-7.7v-.7a7.7,7.7,0,0,1,7.7-7.6h66.2a108.6,108.6,0,0,0-.9,12.8C245.5,367.3,245.5,368.4,245.6,369.5Zm-65.2-34.7a7.9,7.9,0,0,1,0-15.8h78.4a100.4,100.4,0,0,0-7.7,15.8Zm.2-61.6a4.3,4.3,0,0,1-1.6,0,8,8,0,0,1,1.6-16h90.3a8,8,0,0,1,0,16Zm-8.8-105a8.1,8.1,0,0,1,8.8-7.2h91.9a8,8,0,1,1-1.6,16H179A8,8,0,0,1,171.8,168.2Zm8.6,70.4a7.9,7.9,0,0,1,0-15.8H307.3a7.9,7.9,0,0,1,0,15.8Zm126.9-96.3H180.4a7.9,7.9,0,1,1,0-15.7H307.3a7.9,7.9,0,1,1,0,15.7Zm-198.8,131V222.8H159v50.5ZM159,319v50.5H108.5V319ZM108.5,177V126.6H159V177ZM340.7,445a79.6,79.6,0,1,1-.2-159.2h.1a79.6,79.6,0,0,1,.1,159.2Z"/>
  </g>
</svg>
