<svg
  xmlns="http://www.w3.org/2000/svg"
  viewBox="0 0 500 500"
  width="500"
  height="500"
  fill="#000000"
>
  <path d="M323.1 94.3h-159a9.9 9.9 0 1 0 0 19.7h159a9.9 9.9 0 1 0 0-19.7z" />
  <rect x="74.1" y="94.3" width="63.2" height="63.23" />
  <path d="M164.3 157.5h113.2a10.1 10.1 0 0 0 0-20.1H164.3a10.1 10.1 0 1 0 0 20.1z" />
  <path d="M333 224.7a9.9 9.9 0 0 0-9.9-9.9h-159a9.9 9.9 0 0 0 0 19.8h159a9.9 9.9 0 0 0 9.9-9.9z" />
  <rect x="74.1" y="214.8" width="63.2" height="63.23" />
  <path d="M287.5 268a10 10 0 0 0-10-10H164.3a10.1 10.1 0 1 0 0 20.1h113.2a10.1 10.1 0 0 0 10-10.1z" />
  <rect x="74.1" y="335.4" width="63.2" height="63.23" />
  <path d="M163.8 378.5a9.6 9.6 0 0 0-9.6 9.6v.9a9.6 9.6 0 0 0 9.6 9.6h82c-.1-1.3-.1-2.7-.1-4a122 122 0 0 1 1.1-16.1z" />
  <path d="M262.4 335.4h-98.3a9.9 9.9 0 1 0 0 19.8h88.6a113.6 113.6 0 0 1 9.7-19.8z" />
  <path d="M77.7 439a20.6 20.6 0 0 1-20.6-20.6V80a20.6 20.6 0 0 1 20.6-20.6h251.7A20.7 20.7 0 0 1 350 80v201.7c2.9-.2 5.9-.4 8.9-.4s6.8.2 10.1.5V80a39.7 39.7 0 0 0-39.6-39.6h-82.9a40 40 0 0 0-79.4 0H77.7A39.7 39.7 0 0 0 38.1 80v338.4A39.7 39.7 0 0 0 77.7 458h187.4a108.7 108.7 0 0 1-10.3-19zM206.8 23.1a21.8 21.8 0 0 1 19.8 12.8h-39.7a22.1 22.1 0 0 1 19.9-12.8z" />
  <path d="M362.1 295.5a99.8 99.8 0 1 0 99.8 99.7 99.7 99.7 0 0 0-99.8-99.7zm-12.9 154.7h-19.6V340.3h19.6zm44.7 0h-18.8V340.3h18.8z" />
</svg>
