<svg xmlns="http://www.w3.org/2000/svg" viewBox="0 0 500 500">
  <g id="term-in-service">
    <rect id="top-square" x="72.2" y="94.7" width="63.5" height="63.54"/>
    <path id="top-line2" d="M322.5,94.7H162.7a9.9,9.9,0,1,0,0,19.8H322.5a9.9,9.9,0,0,0,0-19.8Z"/>
    <path id="top-line1" d="M162.9,158.2H276.6a10.1,10.1,0,0,0,0-20.2H162.9a10.1,10.1,0,0,0,0,20.2Z"/>
    <rect id="middle-square" x="72.2" y="215.8" width="63.5" height="63.54"/>
    <path id="middle-line1" d="M332.4,225.8a9.9,9.9,0,0,0-9.9-10H162.7a10,10,0,0,0,0,19.9H322.5A9.9,9.9,0,0,0,332.4,225.8Z"/>
    <path id="middle-line2" d="M286.7,269.3a10.1,10.1,0,0,0-10.1-10.1H162.9a10.1,10.1,0,0,0,0,20.2H276.6A10.1,10.1,0,0,0,286.7,269.3Z"/>
    <rect id="bottom-square" x="72.2" y="337" width="63.5" height="63.54"/>
    <path id="bottom-line2" d="M162.4,380.3a9.7,9.7,0,0,0-9.6,9.7v.9a9.6,9.6,0,0,0,9.6,9.6h82.4c-.1-1.3-.1-2.7-.1-4a123.6,123.6,0,0,1,1.1-16.2Z"/>
    <path id="bottom-line1" d="M261.4,337H162.7a10,10,0,0,0,0,19.9h89.1A114.2,114.2,0,0,1,261.4,337Z"/>
    <path id="outline" d="M75.9,441.1a20.7,20.7,0,0,1-20.7-20.7V80.4A20.7,20.7,0,0,1,75.9,59.7H328.8a20.7,20.7,0,0,1,20.7,20.7V283.1a87.7,87.7,0,0,1,9-.4c3.4,0,6.7.1,10.1.4V80.4a39.9,39.9,0,0,0-39.8-39.8H245.4a40.1,40.1,0,0,0-79.7,0H75.9A39.8,39.8,0,0,0,36.1,80.4v340a39.8,39.8,0,0,0,39.8,39.8H264.2a121.4,121.4,0,0,1-10.4-19.1ZM205.6,23.2A22.1,22.1,0,0,1,225.5,36H185.6A22.1,22.1,0,0,1,205.6,23.2Z"/>
    <path id="play" d="M364,294.5A100.3,100.3,0,1,0,464.3,394.8,100.3,100.3,0,0,0,364,294.5ZM333.9,452.2V337.3l81.4,57.4Z"/>
  </g>
</svg>
