<svg
  xmlns="http://www.w3.org/2000/svg"
  viewBox="0 0 500 500"
  width="500"
  height="500"
  fill="#ffffff"
>
  <path d="M378.9 334.2h-.1c-2.5-4.3-10.2-5.5-18-2.7-6.1 2.2-10.5 6.2-11.9 10.1a6 6 0 0 0-.2 3.5c-6.5-3.6-12.6-1.4-16.2.7.4-4.8-4.5-10.5-12.2-13.2-6-2.3-11.9-2.1-15.5 0a7 7 0 0 0-2.8 3.1h-.1l-18.2 24h.1a24 24 0 0 0-3.3 6.1 26 26 0 0 0 48.9 17.8 26.7 26.7 0 0 0 1.5-6.8h.1v-1.1l.5-10.5c3.7-2.4 10.7-5.5 18.1-.8l.5 11.4h.1a26.5 26.5 0 0 0 1.6 7.3 25.8 25.8 0 0 0 33.2 15.1h.1a25.9 25.9 0 0 0 15.4-33.4 21.5 21.5 0 0 0-3.2-6.2h.1l-.4-.4-.4-.4zm-59.6 45.7a15.2 15.2 0 1 1-9.1-19.5 15.3 15.3 0 0 1 9.1 19.5zm62 8.1a15.2 15.2 0 0 1-10.4-28.6 15.2 15.2 0 1 1 10.4 28.6z" />
  <path d="M214.5 69.8A17.5 17.5 0 0 0 198.6 80h31.7a17.5 17.5 0 0 0-15.8-10.2z" />
  <path d="M250 5C114.7 5 5 114.7 5 250s109.7 245 245 245 245-109.7 245-245S385.3 5 250 5zM111.5 416.8a31.7 31.7 0 0 1-31.7-31.5V115.2a31.8 31.8 0 0 1 31.7-31.6h71.3a31.8 31.8 0 0 1 63.3 0h66.2a31.6 31.6 0 0 1 31.6 31.6v161c-2.6-.2-5.6-.4-8-.4s-4.8.2-7.2.4v-161a16.5 16.5 0 0 0-16.4-16.5H111.5A16.5 16.5 0 0 0 95 115.2v270.1a16.4 16.4 0 0 0 16.5 16.4h141.3a76.3 76.3 0 0 0 8.3 15.1zm134.1-47.3h-65.4a7.8 7.8 0 0 1-7.7-7.7v-.7a7.7 7.7 0 0 1 7.7-7.6h66.2a108.6 108.6 0 0 0-.9 12.8c0 1 0 2.1.1 3.2zm-65.2-34.7a7.9 7.9 0 0 1 0-15.8h78.4a100.4 100.4 0 0 0-7.7 15.8zm.2-61.6a4.3 4.3 0 0 1-1.6 0 8 8 0 0 1 1.6-16h90.3a8 8 0 0 1 0 16zm-8.8-105a8.1 8.1 0 0 1 8.8-7.2h91.9a8 8 0 1 1-1.6 16H179a8 8 0 0 1-7.2-8.8zm8.6 70.4a7.9 7.9 0 0 1 0-15.8h126.9a7.9 7.9 0 0 1 0 15.8zm126.9-96.3H180.4a7.9 7.9 0 1 1 0-15.7h126.9a7.9 7.9 0 1 1 0 15.7zm-198.8 131v-50.5H159v50.5zM159 319v50.5h-50.5V319zm-50.5-142v-50.4H159V177zm232.2 268a79.6 79.6 0 1 1-.2-159.2h.1a79.6 79.6 0 0 1 .1 159.2z" />
</svg>
