<svg xmlns="http://www.w3.org/2000/svg" viewBox="0 0 500 500">
  <g id="term-enrolling">
    <path id="ellipses" d="M364.9,296.7A99.2,99.2,0,1,0,464,395.8,99.2,99.2,0,0,0,364.9,296.7ZM305,414.4a18.6,18.6,0,1,1,18.5-18.6A18.6,18.6,0,0,1,305,414.4Zm58.9,0a18.6,18.6,0,1,1,18.5-18.6A18.6,18.6,0,0,1,363.9,414.4Zm58.9,0a18.6,18.6,0,1,1,18.5-18.6A18.6,18.6,0,0,1,422.8,414.4Z"/>
    <path id="top-line1" d="M323.2,94.9H162.9a10,10,0,0,0,0,19.9H323.2a10,10,0,0,0,0-19.9Z"/>
    <rect id="top-square" x="72.2" y="94.9" width="63.7" height="63.71"/>
    <path id="top-line2" d="M163.1,158.7H277.2a10.2,10.2,0,0,0,0-20.3H163.1a10.2,10.2,0,0,0,0,20.3Z"/>
    <path id="middle-line1" d="M333.1,226.4a9.9,9.9,0,0,0-9.9-10H162.9a10,10,0,0,0,0,19.9H323.2A9.9,9.9,0,0,0,333.1,226.4Z"/>
    <rect id="middle-square" x="72.2" y="216.4" width="63.7" height="63.71"/>
    <path id="middle-line2" d="M287.3,270a10.1,10.1,0,0,0-10.1-10.1H163.1a10.1,10.1,0,1,0,0,20.2H277.2A10.1,10.1,0,0,0,287.3,270Z"/>
    <rect id="bottom-square" x="72.2" y="337.9" width="63.7" height="63.71"/>
    <path id="bottom-line2" d="M162.7,381.4A9.6,9.6,0,0,0,153,391v1a9.6,9.6,0,0,0,9.7,9.6h82.6c-.1-1.3-.2-2.7-.2-4.1a123.3,123.3,0,0,1,1.2-16.1Z"/>
    <path id="bottom-line1" d="M262,337.9H162.9a10,10,0,0,0,0,19.9h89.4A111,111,0,0,1,262,337.9Z"/>
    <path id="outline" d="M75.9,442.3a20.8,20.8,0,0,1-20.8-20.7V80.6A20.8,20.8,0,0,1,75.9,59.9H329.5a20.7,20.7,0,0,1,20.7,20.7V283.8c3-.2,6-.4,9-.4s6.8.2,10.2.5V80.6a39.9,39.9,0,0,0-39.9-39.9H245.9a40.3,40.3,0,0,0-80,0h-90A39.9,39.9,0,0,0,36,80.6v341a39.9,39.9,0,0,0,39.9,39.9H264.7a118.1,118.1,0,0,1-10.4-19.2Zm130-419a22,22,0,0,1,20,12.8h-40A22.2,22.2,0,0,1,205.9,23.3Z"/>
  </g>
</svg>
