<svg
  xmlns="http://www.w3.org/2000/svg"
  viewBox="0 0 500 500"
  width="500"
  height="500"
  fill="#000000"
>
  <path d="M347.5 110h-195a19 19 0 0 0-19 19v18.69c3.27 10.76 59.66 59.91 106.89 95.78v13.1c-47.23 35.87-103.63 85-106.89 95.78V371a19 19 0 0 0 19 19h195a19 19 0 0 0 19-19v-18.64c-3.7-11.94-69.68-68.86-106.89-96v-12.74c37.21-27.13 103.19-84 106.89-96V129a19 19 0 0 0-19-19zM165.31 360.4l-8.94-12.4c4.26-3.27 82.82-68.22 86.83-72.22v18.86c-25.2 21.66-77.89 65.76-77.89 65.76zm75.9-133l-10.06-9.91c.44-.45 48.36-41.58 74-62.74h22.28c-4.63 3.3-82.27 69.02-86.22 72.67z" />
  <path d="M250 5C114.69 5 5 114.69 5 250s109.69 245 245 245 245-109.69 245-245S385.31 5 250 5zM125.79 66.25h248.42v13.09H125.79zm248.42 367.5H125.79v-13.09h248.42zM381.1 148c0 4.39 0 12.56-46.7 53.66-20.42 18-43.38 36.52-59 48.38 25.69 19.85 105.7 83.11 105.7 101.96v19a33.63 33.63 0 0 1-33.6 33.6h-195a33.63 33.63 0 0 1-33.6-33.6v-19c0-4.42 0-12.65 47.22-53.77 21.43-18.67 44.46-37.07 58.82-48.2-14.35-11.13-37.38-29.53-58.82-48.2-47.22-41.15-47.22-49.38-47.22-53.83v-19a33.64 33.64 0 0 1 33.6-33.6h195a33.64 33.64 0 0 1 33.6 33.6z" />
</svg>
