<svg xmlns="http://www.w3.org/2000/svg" viewBox="0 0 500 500">
  <g id="timesheet-approved-filled">
    <g>
      <path id="timesheet-check" d="M383.5,322.3l-49.8,49.8-24-24a7.06,7.06,0,0,0-10,10l29,29a7.38,7.38,0,0,0,5,2,7.06,7.06,0,0,0,4.95-2l54.83-54.82a7.06,7.06,0,1,0-10-10Z"/>
      <path id="timesheet-outline" d="M250,5C114.69,5,5,114.69,5,250S114.69,495,250,495,495,385.31,495,250,385.31,5,250,5ZM106.53,66.25h240.3V78.91H106.53Zm-4.2,277.35c0-13.72,71.62-79.27,100.57-100.27-28-21.23-98.1-85.58-98.1-99.68V124.9A25.94,25.94,0,0,1,130.67,99H322.53A25.87,25.87,0,0,1,348.4,124.9v18.75c0,13.65-71.55,79.27-100.57,100.28,10.65,8,27.22,22.2,43.8,37.5a88.22,88.22,0,0,0-10.06,9.07c-18.89-17.62-37.87-34-46.64-39.3V236.43c18.37-10.2,93.82-80.7,99.82-93.6V124.9a12.23,12.23,0,0,0-12.22-12.23H130.67a12.23,12.23,0,0,0-12.22,12.23v18c5.85,12.9,78.82,82.35,98,93.45v14.18c-11,5.7-45.75,36.52-71.47,61.72h28.42l4.5-3.67c17-13.88,38.25-31.13,40.88-34.2v18.3L195,312.25h71.1a91.67,91.67,0,0,0-10.35,42.38,92.66,92.66,0,0,0,6.3,33.6H128.2a26,26,0,0,1-25.87-25.88Zm115.8-121.5-9.68-9.6c.38-.37,46.73-40.12,71.55-60.67h21.45C297,155,222,218.58,218.13,222.1ZM106.53,419.35V406.68H271.68A94.38,94.38,0,0,0,282,419.35Zm242,14.4a78.6,78.6,0,0,1-.15-157.2h.08a78.6,78.6,0,0,1,.07,157.2Z"/>
    </g>
  </g>
</svg>
