<svg xmlns="http://www.w3.org/2000/svg" viewBox="0 0 500 500">
  <g id="timesheet-unsubmitted-filled">
    <path id="hourglass" d="M347.5,110h-195a19,19,0,0,0-19,19v18.69c3.27,10.76,59.66,59.91,106.89,95.78v13.1c-47.23,35.87-103.63,85-106.89,95.78V371a19,19,0,0,0,19,19h195a19,19,0,0,0,19-19V352.36c-3.7-11.94-69.68-68.86-106.89-96V243.62c37.21-27.13,103.19-84,106.89-96V129A19,19,0,0,0,347.5,110ZM165.31,360.4,156.37,348c4.26-3.27,82.82-68.22,86.83-72.22v18.86C218,316.3,165.31,360.4,165.31,360.4Zm75.9-133-10.06-9.91c.44-.45,48.36-41.58,74-62.74h22.28C322.8,158.05,245.16,223.77,241.21,227.42Z"/>
    <path id="timesheet-outline" d="M250,5C114.69,5,5,114.69,5,250S114.69,495,250,495,495,385.31,495,250,385.31,5,250,5ZM125.79,66.25H374.21V79.34H125.79Zm248.42,367.5H125.79V420.66H374.21ZM381.1,148c0,4.39,0,12.56-46.7,53.66-20.42,18-43.38,36.52-59,48.38C301.09,269.89,381.1,333.15,381.1,352v19a33.63,33.63,0,0,1-33.6,33.6h-195A33.63,33.63,0,0,1,118.9,371V352c0-4.42,0-12.65,47.22-53.77,21.43-18.67,44.46-37.07,58.82-48.2-14.35-11.13-37.38-29.53-58.82-48.2C118.9,160.68,118.9,152.45,118.9,148V129a33.64,33.64,0,0,1,33.6-33.6h195A33.64,33.64,0,0,1,381.1,129Z"/>
  </g>
</svg>
