<svg xmlns="http://www.w3.org/2000/svg" viewBox="0 0 500 500">
  <g id="timesheets">
    <path id="clock" d="M416.7,5H83.3A78.4,78.4,0,0,0,5,83.3V416.7A78.4,78.4,0,0,0,83.3,495H416.7A78.4,78.4,0,0,0,495,416.7V83.3A78.4,78.4,0,0,0,416.7,5Zm-8.2,247.8c0,87.4-71.1,158.5-158.5,158.5S91.5,340.2,91.5,252.8,162.6,94.3,250,94.3,408.5,165.4,408.5,252.8Z"/>
    <path id="clock-hands" d="M264.9,175.7a14.9,14.9,0,0,0-29.8,0v89.8l74.3,74.2a14.8,14.8,0,0,0,21-21l-65.5-65.5Z"/>
    <path id="right-dot" d="M377.9,269a16.2,16.2,0,1,0-16.2-16.2A16.3,16.3,0,0,0,377.9,269Z"/>
    <path id="bottom-dot" d="M250,397.3a16.2,16.2,0,1,0-16.2-16.2A16.3,16.3,0,0,0,250,397.3Z"/>
    <path id="left-dot" d="M125.9,236.6a16.2,16.2,0,1,0,16.2,16.2A16.3,16.3,0,0,0,125.9,236.6Z"/>
    <path id="top-dot" d="M250,136.2A16.2,16.2,0,1,0,233.8,120,16.2,16.2,0,0,0,250,136.2Z"/>
  </g>
</svg>
