<svg
  xmlns="http://www.w3.org/2000/svg"
  viewBox="0 0 500 500"
  width="500"
  height="500"
  fill="#ffffff"
>
  <rect x="39.1" y="5" width="320.4" height="16.88" />
  <path d="M270.4 119.1c-33.1 27.4-94.9 80.4-95.4 80.9l12.9 12.8c5.1-4.7 105.2-89.5 111.1-93.7h-28.6z" />
  <path d="M361.6 285.4a104.8 104.8 0 1 0 104.9 104.8 104.8 104.8 0 0 0-104.9-104.8zm60.1 74.3l-73.1 73.1a9.4 9.4 0 0 1-6.6 2.7 9.8 9.8 0 0 1-6.7-2.7l-38.6-38.7a9.4 9.4 0 0 1 13.3-13.3l32 32 66.4-66.4a9.4 9.4 0 0 1 13.3 13.3z" />
  <path d="M238 389.5a122.3 122.3 0 0 1 13.8-56.5H157l31.7-26.1v-24.4c-3.5 4.1-31.8 27.1-54.5 45.6l-6 4.9H90.3c34.3-33.6 80.6-74.7 95.3-82.3v-18.9C160.1 217 62.8 124.4 55 107.2v-24a16.3 16.3 0 0 1 16.3-16.3h255.8a16.3 16.3 0 0 1 16.3 16.3v23.9c-8 17.2-108.6 111.2-133.1 124.8v19.7c11.7 7.1 37 28.9 62.2 52.4a119 119 0 0 1 13.4-12.1c-22.1-20.4-44.2-39.3-58.4-50 38.7-28 134.1-115.5 134.1-133.7v-25a34.5 34.5 0 0 0-34.5-34.5H71.3a34.6 34.6 0 0 0-34.5 34.5v25c0 18.8 93.5 104.6 130.8 132.9-38.6 28-134.1 115.4-134.1 133.7v25A34.6 34.6 0 0 0 68 434.3h178.4a123.4 123.4 0 0 1-8.4-44.8z" />
  <path d="M259.3 458.9H39.1v16.9h234a125.5 125.5 0 0 1-13.8-16.9z" />
</svg>
