<svg xmlns="http://www.w3.org/2000/svg" viewBox="0 0 500 500">
  <g id="timesheet-unsubmitted-color">
    <circle cx="253.1" cy="247.34" r="225.4" style="fill: #ffcc02"/>
    <path d="M398.75,80.66l-67,78.28,2-5.15-162.22-1.64-1.32,30.93,60.55,68.44-59.56,62.19,2,30.28.09,0-67.74,79.11c94.55,81,236.84,69.95,317.81-24.61S493.31,161.63,398.75,80.66Z" style="fill: #faf39a"/>
    <path d="M317.71,359.36H185.39a27.67,27.67,0,0,1-27.64-27.64V318.8c0-15,42.67-53.05,62.1-69.59-19.43-16.3-62.1-53.83-62.1-68.8V167.49a27.67,27.67,0,0,1,27.64-27.64H317.71a27.67,27.67,0,0,1,27.64,27.64v12.92c0,15-43.56,52.71-63.56,69.19,20,16.49,63.56,54.16,63.56,69.2v12.92A27.67,27.67,0,0,1,317.71,359.36ZM177.35,319.85v11.87a8,8,0,0,0,8,8H317.71a8,8,0,0,0,8-8V320c-4.83-9.82-45.49-48-65.3-62.43l-10.25-7.44L241.12,257C221.07,272.16,181.8,310.23,177.35,319.85Zm148.65.66h0Zm-148.86-.15Zm.21-141c4.47,9.52,42.64,46,63.77,62l9.68,7.33,9.65-7c19.81-14.38,60.47-52.6,65.3-62.42V167.49a8,8,0,0,0-8-8H185.39a8,8,0,0,0-8,8Z" style="fill: #981b1e"/>
    <path d="M250,495C114.91,495,5,385.09,5,250a244.83,244.83,0,0,1,11.91-75.65A19.6,19.6,0,1,1,54.2,186.44,205.5,205.5,0,0,0,44.2,250c0,113.48,92.32,205.8,205.8,205.8S455.8,363.48,455.8,250,363.48,44.2,250,44.2A205,205,0,0,0,175.71,58a19.6,19.6,0,0,1-14.15-36.56A244.12,244.12,0,0,1,250,5C385.09,5,495,114.91,495,250S385.09,495,250,495Z" style="fill: #981b1e"/>
    <circle cx="62.16" cy="127.04" r="20.15" style="fill: #981b1e"/>
  </g>
</svg>
