<svg xmlns="http://www.w3.org/2000/svg" viewBox="0 0 500 500">
  <g id="timesheet-ac">
    <path id="a" d="M106.3,124.6,29.5,375.8H88.4l17.9-64.5h71.9l19.4,64.5h61.2L180.9,124.6Zm8.2,144.2,14.9-53.3c4.1-14.5,7.8-33.5,11.6-48.4h.7c3.7,14.9,8.2,33.5,12.7,48.4L170,268.8Z"/>
    <path id="c" d="M411.2,167.4a123,123,0,0,1,47.7,9.3l11.6-45.1c-10.1-5.2-32.4-11.1-61.9-11.1-76,0-137.2,47.7-137.2,133.4,0,71.6,44.8,125.6,131.6,125.6,30.6,0,54.1-5.5,64.5-10.8l-8.6-44.3c-11.1,4.4-30.2,8.2-47.3,8.2-50.7,0-80.5-31.7-80.5-82C331.1,194.6,366.1,167.4,411.2,167.4Z"/>
    <path id="box" d="M435.3,5H64.7A59.8,59.8,0,0,0,5,64.7V435.3A59.8,59.8,0,0,0,64.7,495H435.3A59.8,59.8,0,0,0,495,435.3V64.7A59.8,59.8,0,0,0,435.3,5Zm40.9,430.3a41,41,0,0,1-40.9,40.9H64.7a41,41,0,0,1-40.9-40.9V64.7A41,41,0,0,1,64.7,23.8H435.3a41,41,0,0,1,40.9,40.9Z"/>
  </g>
</svg>
