<?xml version="1.0" encoding="utf-8"?>
<!-- Generator: Adobe Illustrator 24.0.2, SVG Export Plug-In . SVG Version: 6.00 Build 0)  -->
<svg version="1.1" id="Layer_1" xmlns="http://www.w3.org/2000/svg" xmlns:xlink="http://www.w3.org/1999/xlink" x="0px" y="0px"
	 viewBox="0 0 500 500" style="enable-background:new 0 0 500 500;" xml:space="preserve">
<g id="timesheet-unapproved">
	<rect id="top-line" x="85" y="5" width="333.4" height="17.6"/>
	<rect id="bottom-line" x="85" y="477.4" width="333.4" height="17.6"/>
	<path id="diagonal" d="M325.7,123.8c-34.4,28.4-98.7,83.6-99.3,84.2l13.5,13.3c5.3-4.9,109.5-93.1,115.7-97.5H325.7z"/>
	<path id="hour-glass" d="M420.7,112.4v-26c0-19.8-16.1-35.9-35.9-35.9H118.6c-19.8,0-35.9,16.1-35.9,35.9l0,0v26
		c0,19.5,97.3,108.9,136.1,138.3C178.6,279.9,79.3,370.9,79.3,389.8v26.1c0.1,19.8,16.1,35.8,35.9,35.9h266.2
		c19.8-0.1,35.8-16.1,35.9-35.9v-26.1c0-19.5-97.3-108.8-136.1-138.2C321.4,222.4,420.7,131.4,420.7,112.4z M263.3,241.2v20.5
		c17.1,10.3,62.3,51.1,95.8,84.6H207.8c14.9-12.1,25.5-20.9,32.9-27.1v-25.4c-3.6,4.3-33,28.2-56.7,47.5l-6.2,5h-39.4
		c35.6-34.9,83.8-77.7,99.1-85.6V241C211,225.7,109.7,129.3,101.6,111.3V86.4c0-9.4,7.6-17,17-17h266.2c9.4,0,17,7.6,17,17v24.9
		C393.5,129.2,288.7,227,263.3,241.2z"/>
</g>
</svg>
