<svg xmlns="http://www.w3.org/2000/svg" viewBox="0 0 500 500">
  <g id="timesheet-non-ac">
    <path id="a-top" d="M93.3,368.8,108,315.9h38.2l69.6-69.6-35-112.9H108L32.9,378.9H83.2Zm37.3-146.5c4-14.2,7.6-32.8,11.3-47.4h.7c3.6,14.6,8,32.8,12.4,47.4l15.3,52H116Z"/>
    <polygon id="a-bottom" points="188.4 349.5 197.2 378.9 257 378.9 233.8 304.1 188.4 349.5"/>
    <path id="c" d="M405.9,175.3a118.5,118.5,0,0,1,46.6,9.1l11.3-44.1c-9.2-4.8-29.1-10.2-55.3-10.9L269.6,268.3C273,334,316.5,382.5,397.9,382.5c29.9,0,52.8-5.4,63-10.5l-8.4-43.4c-10.9,4.4-29.5,8-46.2,8-49.6,0-78.7-30.9-78.7-80.1C327.6,201.9,361.8,175.3,405.9,175.3Z"/>
    <path id="box" d="M435.3,5H64.7A59.8,59.8,0,0,0,5,64.7V435.3A59.8,59.8,0,0,0,64.7,495H435.3A59.8,59.8,0,0,0,495,435.3V64.7A59.8,59.8,0,0,0,435.3,5ZM23.8,64.7A41,41,0,0,1,64.7,23.8H435.3a40.4,40.4,0,0,1,21.8,6.4L30.2,457.2a41,41,0,0,1-6.4-21.9ZM476.2,435.3a41,41,0,0,1-40.9,40.9H64.7a41,41,0,0,1-21.9-6.4l427-426.9a40.4,40.4,0,0,1,6.4,21.8Z"/>
  </g>
</svg>
