<svg xmlns="http://www.w3.org/2000/svg" viewBox="0 0 500 500" fill="#000000">
  <ellipse cx="254.22" cy="247.34" rx="226.42" ry="225.4" fill="#478ecc" />
  <path
    d="M400.53 80.66c95 81 106.05 223.26 24.72 317.82S201 504.05 106 423.08"
    fill="#9ec8ea"
  />
  <path
    d="M251.11 495C115.4 495 5 385.09 5 250a243.7 243.7 0 0 1 12-75.65 19.68 19.68 0 0 1 37.46 12.09 204.94 204.94 0 0 0-10 63.56c0 113.48 92.73 205.8 206.73 205.8S457.83 363.48 457.83 250 365.1 44.2 251.11 44.2A206.77 206.77 0 0 0 176.48 58a19.61 19.61 0 1 1-14.21-36.56A246.17 246.17 0 0 1 251.11 5c135.7 0 246.1 109.91 246.1 245s-110.4 245-246.1 245z"
    fill="#1c3664"
  />
  <ellipse cx="62.42" cy="127.04" rx="20.24" ry="20.15" fill="#1c3664" />
  <path
    d="M238.53 323.38a12.33 12.33 0 0 1-7.95-2.9l-67-56.5a12.2 12.2 0 0 1-1.44-17.26 12.35 12.35 0 0 1 17.35-1.43l57.6 48.58 103.43-121.56a12.34 12.34 0 0 1 17.34-1.42 12.2 12.2 0 0 1 1.44 17.26l-111.38 130.9a12.32 12.32 0 0 1-8.37 4.29c-.34.03-.68.04-1.02.04z"
    fill="#1c3664"
  />
</svg>
