<svg
  xmlns="http://www.w3.org/2000/svg"
  viewBox="0 0 500 500"
  width="500"
  height="500"
  fill="#ffffff"
>
  <rect x="85" y="5" width="333.4" height="17.6" />
  <rect x="85" y="477.4" width="333.4" height="17.6" />
  <path d="M325.7 123.8c-34.4 28.4-98.7 83.6-99.3 84.2l13.5 13.3c5.3-4.9 109.5-93.1 115.7-97.5h-29.9z" />
  <path d="M420.7 112.4v-26c0-19.8-16.1-35.9-35.9-35.9H118.6c-19.8 0-35.9 16.1-35.9 35.9v26c0 19.5 97.3 108.9 136.1 138.3-40.2 29.2-139.5 120.2-139.5 139.1v26.1c.1 19.8 16.1 35.8 35.9 35.9h266.2c19.8-.1 35.8-16.1 35.9-35.9v-26.1c0-19.5-97.3-108.8-136.1-138.2 40.2-29.2 139.5-120.2 139.5-139.2zM263.3 241.2v20.5c17.1 10.3 62.3 51.1 95.8 84.6H207.8c14.9-12.1 25.5-20.9 32.9-27.1v-25.4c-3.6 4.3-33 28.2-56.7 47.5l-6.2 5h-39.4c35.6-34.9 83.8-77.7 99.1-85.6V241C211 225.7 109.7 129.3 101.6 111.3V86.4c0-9.4 7.6-17 17-17h266.2c9.4 0 17 7.6 17 17v24.9c-8.3 17.9-113.1 115.7-138.5 129.9z" />
</svg>
