<svg
  xmlns="http://www.w3.org/2000/svg"
  viewBox="0 0 500 500"
  width="500"
  height="500"
  fill="#000000"
>
  <path d="M106.3 124.6L29.5 375.8h58.9l17.9-64.5h71.9l19.4 64.5h61.2l-77.9-251.2zm8.2 144.2l14.9-53.3c4.1-14.5 7.8-33.5 11.6-48.4h.7c3.7 14.9 8.2 33.5 12.7 48.4l15.6 53.3z" />
  <path d="M411.2 167.4a123 123 0 0 1 47.7 9.3l11.6-45.1c-10.1-5.2-32.4-11.1-61.9-11.1-76 0-137.2 47.7-137.2 133.4 0 71.6 44.8 125.6 131.6 125.6 30.6 0 54.1-5.5 64.5-10.8l-8.6-44.3c-11.1 4.4-30.2 8.2-47.3 8.2-50.7 0-80.5-31.7-80.5-82 0-56 35-83.2 80.1-83.2z" />
  <path d="M435.3 5H64.7A59.8 59.8 0 0 0 5 64.7v370.6A59.8 59.8 0 0 0 64.7 495h370.6a59.8 59.8 0 0 0 59.7-59.7V64.7A59.8 59.8 0 0 0 435.3 5zm40.9 430.3a41 41 0 0 1-40.9 40.9H64.7a41 41 0 0 1-40.9-40.9V64.7a41 41 0 0 1 40.9-40.9h370.6a41 41 0 0 1 40.9 40.9z" />
</svg>
