<svg xmlns="http://www.w3.org/2000/svg" viewBox="0 0 500 500">
  <g id="timesheet-paid-color">
    <circle cx="253.1" cy="247.34" r="225.4" style="fill: #009949"/>
    <path d="M398.75,80.66c94.56,81,105.58,223.26,24.61,317.82S200.1,504.05,105.55,423.08" style="fill: #70bf66"/>
    <path d="M250,495C114.91,495,5,385.09,5,250a244.83,244.83,0,0,1,11.91-75.65A19.6,19.6,0,1,1,54.2,186.44,205.5,205.5,0,0,0,44.2,250c0,113.48,92.32,205.8,205.8,205.8S455.8,363.48,455.8,250,363.48,44.2,250,44.2A204.91,204.91,0,0,0,175.72,58a19.6,19.6,0,1,1-14.16-36.55A243.88,243.88,0,0,1,250,5C385.09,5,495,114.91,495,250S385.09,495,250,495Z" style="fill: #183319"/>
    <circle cx="62.16" cy="127.04" r="20.15" style="fill: #183319"/>
    <path d="M266,347.65V321.43c34.43-5.15,53.29-24.69,53.29-47.56,0-23.15-14.37-37.28-50-48.08-25.43-8.24-35.92-13.63-35.92-22.11,0-7.2,6.3-14.39,25.76-14.39,21.55,0,35.32,5.9,43.09,8.73L310.9,169c-9.87-4.11-23.35-7.7-43.4-8.47V137.87H238.18v24.41c-32,5.4-50.6,23.15-50.6,45.77,0,24.93,21.85,37.79,53.89,47,22.14,6.42,31.71,12.59,31.71,22.36,0,10.29-11.66,16-28.72,16a119.28,119.28,0,0,1-49.7-11.32l-9,30.08c11.36,5.67,30.82,10.29,50.89,11.06v24.42Z" style="fill: #183319"/>
  </g>
</svg>
