<svg xmlns="http://www.w3.org/2000/svg" viewBox="0 0 500 500">
  <g id="timesheet-approved">
    <rect id="top-line" x="39.1" y="5" width="320.4" height="16.88"/>
    <path id="diagonal-line" d="M270.4,119.1c-33.1,27.4-94.9,80.4-95.4,80.9l12.9,12.8c5.1-4.7,105.2-89.5,111.1-93.7H270.4Z"/>
    <path id="check" d="M361.6,285.4A104.8,104.8,0,1,0,466.5,390.2,104.8,104.8,0,0,0,361.6,285.4Zm60.1,74.3-73.1,73.1a9.4,9.4,0,0,1-6.6,2.7,9.8,9.8,0,0,1-6.7-2.7l-38.6-38.7A9.4,9.4,0,0,1,310,380.8l32,32,66.4-66.4a9.4,9.4,0,0,1,13.3,13.3Z"/>
    <path id="hour-glass" d="M238,389.5A122.3,122.3,0,0,1,251.8,333H157l31.7-26.1V282.5c-3.5,4.1-31.8,27.1-54.5,45.6l-6,4.9H90.3c34.3-33.6,80.6-74.7,95.3-82.3V231.8C160.1,217,62.8,124.4,55,107.2v-24A16.3,16.3,0,0,1,71.3,66.9H327.1a16.3,16.3,0,0,1,16.3,16.3v23.9c-8,17.2-108.6,111.2-133.1,124.8v19.7c11.7,7.1,37,28.9,62.2,52.4a119,119,0,0,1,13.4-12.1c-22.1-20.4-44.2-39.3-58.4-50,38.7-28,134.1-115.5,134.1-133.7v-25a34.5,34.5,0,0,0-34.5-34.5H71.3A34.6,34.6,0,0,0,36.8,83.2v25c0,18.8,93.5,104.6,130.8,132.9C129,269.1,33.5,356.5,33.5,374.8v25A34.6,34.6,0,0,0,68,434.3H246.4A123.4,123.4,0,0,1,238,389.5Z"/>
    <path id="bottom-line" d="M259.3,458.9H39.1v16.9h234A125.5,125.5,0,0,1,259.3,458.9Z"/>
  </g>
</svg>
