<svg xmlns="http://www.w3.org/2000/svg" viewBox="0 0 500 500">
  <g id="timesheet-submitted-color">
    <circle cx="253.1" cy="247.34" r="225.4" style="fill: #00a69c"/>
    <path d="M398.75,80.66l-67,78.28,2.06-5.15-162.23-1.64-1.32,30.93,60.55,68.44-59.56,62.2,2,30.27.09,0-67.74,79.11c94.55,81,236.84,69.95,317.81-24.6S493.31,161.63,398.75,80.66Z" style="fill: #69c8c9"/>
    <path d="M250,495C114.91,495,5,385.09,5,250a244.83,244.83,0,0,1,11.91-75.65A19.6,19.6,0,1,1,54.2,186.44,205.5,205.5,0,0,0,44.2,250c0,113.48,92.32,205.8,205.8,205.8S455.8,363.48,455.8,250,363.48,44.2,250,44.2A205,205,0,0,0,175.71,58a19.6,19.6,0,0,1-14.15-36.56A244.12,244.12,0,0,1,250,5C385.09,5,495,114.91,495,250S385.09,495,250,495Z" style="fill: #003334"/>
    <circle cx="62.16" cy="127.04" r="20.15" style="fill: #003334"/>
    <path d="M345.35,180.41V167.49a27.67,27.67,0,0,0-27.64-27.64H185.39a27.67,27.67,0,0,0-27.64,27.64v12.92c0,15,42.67,52.5,62.1,68.8-19.43,16.54-62.1,54.59-62.1,69.59v12.92a27.67,27.67,0,0,0,27.64,27.64H317.71a27.67,27.67,0,0,0,27.64-27.64V318.8c0-15-43.56-52.71-63.56-69.2C301.79,233.12,345.35,195.45,345.35,180.41ZM311.07,302.62a20.71,20.71,0,0,0-4.48-.51H191.92c14.44-15.2,36-35.13,49.2-45.15l9.08-6.89,10.25,7.45C273.66,267.13,296.12,287.31,311.07,302.62Zm-50.62-61-9.65,7-9.68-7.33c-21.13-16-59.3-52.49-63.77-62V167.49a8,8,0,0,1,8-8H317.71a8,8,0,0,1,8,8v11.76C320.92,189.07,280.26,227.29,260.45,241.67Z" style="fill: #003334"/>
  </g>
</svg>
