<svg xmlns="http://www.w3.org/2000/svg" viewBox="0 0 500 500" fill="#000000">
  <circle cx="253.1" cy="247.34" r="225.4" fill="#ffcc02" />
  <path
    d="M398.75 80.66l-67 78.28 2-5.15-162.22-1.64-1.32 30.93 60.55 68.44-59.56 62.19 2 30.28h.09l-67.74 79.11c94.55 81 236.84 69.95 317.81-24.61s69.95-236.86-24.61-317.83z"
    fill="#faf39a"
  />
  <path
    d="M317.71 359.36H185.39a27.67 27.67 0 0 1-27.64-27.64V318.8c0-15 42.67-53.05 62.1-69.59-19.43-16.3-62.1-53.83-62.1-68.8v-12.92a27.67 27.67 0 0 1 27.64-27.64h132.32a27.67 27.67 0 0 1 27.64 27.64v12.92c0 15-43.56 52.71-63.56 69.19 20 16.49 63.56 54.16 63.56 69.2v12.92a27.67 27.67 0 0 1-27.64 27.64zm-140.36-39.51v11.87a8 8 0 0 0 8 8h132.36a8 8 0 0 0 8-8V320c-4.83-9.82-45.49-48-65.3-62.43l-10.25-7.44-9.04 6.87c-20.05 15.16-59.32 53.23-63.77 62.85zm148.65.66zm-148.86-.15zm.21-141c4.47 9.52 42.64 46 63.77 62l9.68 7.33 9.65-7c19.81-14.38 60.47-52.6 65.3-62.42v-11.78a8 8 0 0 0-8-8H185.39a8 8 0 0 0-8 8z"
    fill="#981b1e"
  />
  <path
    d="M250 495C114.91 495 5 385.09 5 250a244.83 244.83 0 0 1 11.91-75.65 19.6 19.6 0 1 1 37.29 12.09 205.5 205.5 0 0 0-10 63.56c0 113.48 92.32 205.8 205.8 205.8S455.8 363.48 455.8 250 363.48 44.2 250 44.2A205 205 0 0 0 175.71 58a19.6 19.6 0 0 1-14.15-36.56A244.12 244.12 0 0 1 250 5c135.09 0 245 109.91 245 245S385.09 495 250 495z"
    fill="#981b1e"
  />
  <circle cx="62.16" cy="127.04" r="20.15" fill="#981b1e" />
</svg>
