<svg
  xmlns="http://www.w3.org/2000/svg"
  viewBox="0 0 500 500"
  width="500"
  height="500"
  fill="#000000"
>
  <rect x="84.4" y="5" width="331.2" height="17.46" />
  <path d="M323.5 123c-34.2 28.2-98 83.1-98.6 83.7l13.4 13.2c5.2-4.9 108.8-92.5 114.9-96.9z" />
  <rect data-name="top-line" x="84.4" y="477.5" width="331.2" height="17.46" />
  <path d="M240.9 309.5c-33.5 28.9-103.8 87.7-103.8 87.7l-11.9-16.6c5.6-4.3 110.4-90.9 115.7-96.3z" />
  <path d="M424.8 114V88.6A44.9 44.9 0 0 0 380 43.8H120a44.9 44.9 0 0 0-44.8 44.8V114c0 5.9 0 16.9 63 71.7 28.5 24.9 59.2 49.5 78.4 64.3-19.2 14.8-49.9 39.4-78.4 64.3-63 54.8-63 65.8-63 71.7v25.4a44.9 44.9 0 0 0 44.8 44.8h260a44.9 44.9 0 0 0 44.8-44.8V386c0-25.1-106.7-109.5-140.9-135.9 20.8-15.8 51.4-40.6 78.6-64.5 62.3-54.8 62.3-65.7 62.3-71.6zm-19.5 272.5v24.9a25.3 25.3 0 0 1-25.3 25.3H120a25.3 25.3 0 0 1-25.3-25.3v-25c4.3-14.3 79.5-79.8 142.5-127.7v-17.4C174.2 193.4 99 127.9 94.7 113.6v-25A25.3 25.3 0 0 1 120 63.3h260a25.3 25.3 0 0 1 25.3 25.3v24.9c-4.9 15.9-92.9 91.8-142.5 128v17c49.6 36.2 137.6 112.1 142.5 128z" />
</svg>
