<svg
  xmlns="http://www.w3.org/2000/svg"
  viewBox="0 0 500 500"
  width="500"
  height="500"
  fill="#000000"
>
  <circle cx="253.1" cy="247.34" r="225.4" />
  <path d="M398.75 80.66l-67 78.28 2.06-5.15-162.23-1.64-1.32 30.93 60.55 68.44-59.56 62.2 2 30.27h.09L105.6 423.1c94.55 81 236.84 69.95 317.81-24.6s69.9-236.87-24.66-317.84z" />
  <path d="M250 495C114.91 495 5 385.09 5 250a244.83 244.83 0 0 1 11.91-75.65 19.6 19.6 0 1 1 37.29 12.09 205.5 205.5 0 0 0-10 63.56c0 113.48 92.32 205.8 205.8 205.8S455.8 363.48 455.8 250 363.48 44.2 250 44.2A205 205 0 0 0 175.71 58a19.6 19.6 0 0 1-14.15-36.56A244.12 244.12 0 0 1 250 5c135.09 0 245 109.91 245 245S385.09 495 250 495z" />
  <circle cx="62.16" cy="127.04" r="20.15" />
  <path d="M345.35 180.41v-12.92a27.67 27.67 0 0 0-27.64-27.64H185.39a27.67 27.67 0 0 0-27.64 27.64v12.92c0 15 42.67 52.5 62.1 68.8-19.43 16.54-62.1 54.59-62.1 69.59v12.92a27.67 27.67 0 0 0 27.64 27.64h132.32a27.67 27.67 0 0 0 27.64-27.64V318.8c0-15-43.56-52.71-63.56-69.2 20-16.48 63.56-54.15 63.56-69.19zm-34.28 122.21a20.71 20.71 0 0 0-4.48-.51H191.92c14.44-15.2 36-35.13 49.2-45.15l9.08-6.89 10.25 7.45c13.21 9.61 35.67 29.79 50.62 45.1zm-50.62-61l-9.65 7-9.68-7.33c-21.13-16-59.3-52.49-63.77-62v-11.8a8 8 0 0 1 8-8h132.36a8 8 0 0 1 8 8v11.76c-4.79 9.82-45.45 48.04-65.26 62.42z" />
</svg>
