<svg
  xmlns="http://www.w3.org/2000/svg"
  viewBox="0 0 500 500"
  width="500"
  height="500"
  fill="#000000"
>
  <path d="M416.7 5H83.3A78.4 78.4 0 0 0 5 83.3v333.4A78.4 78.4 0 0 0 83.3 495h333.4a78.4 78.4 0 0 0 78.3-78.3V83.3A78.4 78.4 0 0 0 416.7 5zm-8.2 247.8c0 87.4-71.1 158.5-158.5 158.5S91.5 340.2 91.5 252.8 162.6 94.3 250 94.3s158.5 71.1 158.5 158.5z" />
  <path d="M264.9 175.7a14.9 14.9 0 0 0-29.8 0v89.8l74.3 74.2a14.8 14.8 0 0 0 21-21l-65.5-65.5z" />
  <path d="M377.9 269a16.2 16.2 0 1 0-16.2-16.2 16.3 16.3 0 0 0 16.2 16.2z" />
  <path d="M250 397.3a16.2 16.2 0 1 0-16.2-16.2 16.3 16.3 0 0 0 16.2 16.2z" />
  <path d="M125.9 236.6a16.2 16.2 0 1 0 16.2 16.2 16.3 16.3 0 0 0-16.2-16.2z" />
  <path d="M250 136.2a16.2 16.2 0 1 0-16.2-16.2 16.2 16.2 0 0 0 16.2 16.2z" />
</svg>
