<svg xmlns="http://www.w3.org/2000/svg" viewBox="0 0 500 500">
  <g id="transition-icon">
    <g id="transition">
      <path id="frontSquare" d="M317.3,226.6V418.8a40.8,40.8,0,0,1-40.7,40.7H78.7A40.8,40.8,0,0,1,38,418.8V220.9a40.7,40.7,0,0,1,40.7-40.7H264l30.6-30.7a71,71,0,0,0-18-2.3H78.7A73.8,73.8,0,0,0,5,220.9V418.8a73.8,73.8,0,0,0,73.7,73.7H276.6a73.8,73.8,0,0,0,73.7-73.7V220.9a72.2,72.2,0,0,0-3.9-23.4Z"/>
      <path id="upArrow" d="M261.5,92.3A16.7,16.7,0,0,0,278.2,109h85.7L214.2,258.7l23.7,23.6L387.5,132.6v85.7h.1a16.7,16.7,0,0,0,33.4,0c0-.2-.1-.3-.1-.5V104.2a28.6,28.6,0,0,0-28.6-28.6H278.2A16.7,16.7,0,0,0,261.5,92.3Z"/>
      <path id="behindSquare" d="M421.3,7.5H223.4a73.8,73.8,0,0,0-73.7,73.7v28h33v-28a40.7,40.7,0,0,1,40.7-40.7H421.3A40.8,40.8,0,0,1,462,81.2V279.1a40.7,40.7,0,0,1-40.7,40.7H388v33h33.3A73.8,73.8,0,0,0,495,279.1V81.2A73.8,73.8,0,0,0,421.3,7.5Z"/>
    </g>
  </g>
</svg>
