<svg
  xmlns="http://www.w3.org/2000/svg"
  viewBox="0 0 500 500"
  width="500"
  height="500"
  fill="#000000"
>
  <path d="M317.3 226.6v192.2a40.8 40.8 0 0 1-40.7 40.7H78.7A40.8 40.8 0 0 1 38 418.8V220.9a40.7 40.7 0 0 1 40.7-40.7H264l30.6-30.7a71 71 0 0 0-18-2.3H78.7A73.8 73.8 0 0 0 5 220.9v197.9a73.8 73.8 0 0 0 73.7 73.7h197.9a73.8 73.8 0 0 0 73.7-73.7V220.9a72.2 72.2 0 0 0-3.9-23.4z" />
  <path d="M261.5 92.3a16.7 16.7 0 0 0 16.7 16.7h85.7L214.2 258.7l23.7 23.6 149.6-149.7v85.7h.1a16.7 16.7 0 0 0 33.4 0c0-.2-.1-.3-.1-.5V104.2a28.6 28.6 0 0 0-28.6-28.6H278.2a16.7 16.7 0 0 0-16.7 16.7z" />
  <path d="M421.3 7.5H223.4a73.8 73.8 0 0 0-73.7 73.7v28h33v-28a40.7 40.7 0 0 1 40.7-40.7h197.9A40.8 40.8 0 0 1 462 81.2v197.9a40.7 40.7 0 0 1-40.7 40.7H388v33h33.3a73.8 73.8 0 0 0 73.7-73.7V81.2a73.8 73.8 0 0 0-73.7-73.7z" />
</svg>
