<svg xmlns="http://www.w3.org/2000/svg" viewBox="0 0 500 500">
  <g id="unassigned-color">
    <path id="body" d="M370.19,294.29c-44.43-37.89-115.81-37.22-118.61-37.23-3,0-74.59-.66-118.93,37.24-44.5,38-57,148.51-57.53,153.19l-1,9.37,9.14,2.33c59.28,15,116.39,20.06,166.23,20.06,96.76,0,166.07-18.93,170.38-20.13l8.86-2.48-1-9.14C427.21,442.81,414.77,332.33,370.19,294.29Z" style="fill: #cb3233"/>
    <circle id="head" cx="251.44" cy="117.96" r="95.05" style="fill: #cb3233"/>
    <path id="head-highlight" d="M182.76,176.76c-35-112.7,104-147,104-147a95,95,0,1,0-70.59,176.5Z" style="fill: #f59698"/>
    <path id="body-highlight" d="M80.59,409.84l8.08,0S161.25,305,331.72,271.76c3.35-.65-140.88-8.66-191.58,27.58" style="fill: #f59698"/>
    <path id="body-outline" d="M247.7,495c-39,0-81.3-1.07-125.71-8.82a18.2,18.2,0,1,1,6.26-35.86c41.68,7.27,82,8.27,119.45,8.27,77.59,0,136.6-12.76,155.44-17.38-5-38.2-20.42-106.9-49.2-131.44-36.49-31.13-96.94-32-103.94-32h-.45c-6.3,0-67.69.78-104.27,32-17.93,15.32-33.2,49.44-43,96.06a18.2,18.2,0,1,1-35.63-7.49c11.78-56,30.27-95.14,55-116.25,47.06-40.22,120.09-40.7,128.25-40.78H250c13.57,0,82.16,2,127.61,40.76,48.16,41.09,61.21,149.48,62.54,161.71l2.63,24.29-23.52,6.57C416.26,475.47,345.39,495,247.7,495Z" style="fill: #640c0d"/>
    <path id="head-outline" d="M249.72,231.67A113.44,113.44,0,0,1,183,210l-6.87-5.23a114.58,114.58,0,0,1-39.73-79.55,18.2,18.2,0,1,1,36.33-2.33,78.22,78.22,0,0,0,26.66,53.87l5.32,4a76.74,76.74,0,0,0,102.54-11.32,75.72,75.72,0,0,0,19.39-49.86l0-6.33a76.75,76.75,0,0,0-8-29.19A77.61,77.61,0,0,0,300,59.87l-5.31-4a77.12,77.12,0,0,0-49.33-14.34,18.2,18.2,0,1,1-2.08-36.34,113.48,113.48,0,0,1,73.08,21.42l6.9,5.25A114.41,114.41,0,0,1,363,111.44l0,1.07,0,7.23A113.16,113.16,0,0,1,256.44,231.47C254.2,231.6,252,231.67,249.72,231.67Z" style="fill: #640c0d"/>
    <circle id="outline-circle" cx="76.45" cy="455.48" r="19.19" style="fill: #640c0d"/>
    <path id="cross" d="M263.49,374.35,298,339.84a11.38,11.38,0,1,0-16.09-16.09L247.4,358.26l-34.51-34.51a11.38,11.38,0,1,0-16.09,16.09l34.51,34.51L196.8,408.86A11.38,11.38,0,0,0,212.89,425l34.51-34.51L281.91,425A11.38,11.38,0,0,0,298,408.86Z" style="fill: #640c0d"/>
  </g>
</svg>
