<svg
  xmlns="http://www.w3.org/2000/svg"
  viewBox="0 0 500 500"
  width="500"
  height="500"
  fill="#ffffff"
>
  <path d="M404.5 495h-309a53.31 53.31 0 0 1-53.24-53.24v-30.18c0-29.32 107.4-126.77 151-162.63-41-33.62-151-130.46-151-160.53V58.24A53.31 53.31 0 0 1 95.5 5h309a53.31 53.31 0 0 1 53.24 53.24v30.18c0 29.66-111.14 126.91-154.56 161.58 43.42 34.66 154.56 131.91 154.56 161.58v30.18A53.31 53.31 0 0 1 404.5 495zM95.5 28.14a30.14 30.14 0 0 0-30.1 30.1v30.18c3.39 17.43 99.42 110.4 153.4 151.31L231 249l-12.17 9.22C166.22 298 68.83 393.58 65.37 412.08v29.68a30.14 30.14 0 0 0 30.1 30.1h309a30.14 30.14 0 0 0 30.1-30.1V412c-4.68-19.33-105.25-114.94-157.16-152.64L264.55 250l12.89-9.36C329.36 202.93 429.92 107.32 434.6 88V58.24a30.14 30.14 0 0 0-30.1-30.1z" />
</svg>
