<svg
  xmlns="http://www.w3.org/2000/svg"
  viewBox="0 0 500 500"
  width="500"
  height="500"
  fill="#000000"
>
  <rect x="73.08" y="327.04" width="46.53" height="42.93" />
  <rect x="73.08" y="153.2" width="46.53" height="42.91" />
  <rect x="183.38" y="153.2" width="46.53" height="42.91" />
  <rect x="293.68" y="153.2" width="46.53" height="42.91" />
  <rect x="73.09" y="240.13" width="46.53" height="42.91" />
  <rect x="183.39" y="240.13" width="46.53" height="42.91" />
  <rect x="293.69" y="240.13" width="46.53" height="42.91" />
  <rect x="184.74" y="316.78" width="45.6" height="42.07" />
  <path d="M54.08 440.36a30.62 30.62 0 0 1-30.58-30.59V109.41a30.62 30.62 0 0 1 30.58-30.59h300.37A30.62 30.62 0 0 1 385 109.41v158.36c2.32-.13 4.65-.21 7-.21 3.88 0 7.71.2 11.5.56V109.41a49.14 49.14 0 0 0-49.09-49.09h-71.12V12.11h-18.51v48.21H140.23V12.11h-18.5v48.21H54.08A49.14 49.14 0 0 0 5 109.41v300.36a49.14 49.14 0 0 0 49.08 49.09h238.64a122.42 122.42 0 0 1-10.72-18.5z" />
  <path
    data-name="cross"
    d="M393.88 285.66A101.12 101.12 0 1 0 495 386.77a101.11 101.11 0 0 0-101.12-101.11zm49.63 136.26A11 11 0 1 1 428 437.48l-35.2-35.16-35.15 35.16a11 11 0 1 1-15.55-15.56l35.15-35.15-35.15-35.16a11 11 0 0 1 15.55-15.55l35.15 35.16 35.2-35.16a11 11 0 0 1 15.55 15.55l-35.15 35.16z"
  />
</svg>
