<svg
  xmlns="http://www.w3.org/2000/svg"
  viewBox="0 0 500 500"
  width="500"
  height="500"
  fill="#ffffff"
>
  <path d="M240.6 195.6v-14c-9.9-.4-19.5-3.1-25.1-6.3L220 158a52 52 0 0 0 24.5 6.5c8.4 0 14.1-3.3 14.1-9.2s-4.7-9.1-15.6-12.8c-15.8-5.3-26.6-12.7-26.6-27s9.2-23.2 25-26.3V75.1h14.4v13c9.9.5 16.6 2.5 21.4 4.9l-4.2 16.7c-3.9-1.6-10.7-5-21.3-5S239 108.8 239 113s5.2 7.9 17.7 12.6c17.6 6.3 24.7 14.4 24.7 27.7s-9.3 24.3-26.3 27.3v15z" />
  <rect
    x="-53.1"
    y="238.4"
    width="606.3"
    height="20.16"
    transform="rotate(-45 250.044 248.528)"
  />
  <path d="M323.6 357.5h-72.1a10.1 10.1 0 0 1 0-20.2h72.1a10.1 10.1 0 1 1 0 20.2z" />
  <path d="M323.6 298.1H243l-20.1 20.2h100.7a10.1 10.1 0 0 0 0-20.2z" />
  <path d="M323.6 258.8h-41.2l-20.2 20.1h61.4a10.1 10.1 0 1 0 0-20.1z" />
  <path d="M173.3 240h44.9l20.2-20.2h-65.1a10.1 10.1 0 0 0 0 20.2z" />
  <path d="M173.3 276h6.7l20.2-20.2h-26.9a10.1 10.1 0 0 0 0 20.2z" />
  <path
    data-name="line2"
    d="M371.7 86.7l19.7-19.8c.4-18.2-23.4-34.9-36-36.8H89C61.8 30 50 53.8 47.6 66.4l-.2 50.2h58.3V350l20.2-20.2V71.5a52.3 52.3 0 0 0-5.3-21.4h232.3c4.4.9 18.8 5.3 18.8 23.3z"
  />
  <polygon points="371.7 169.3 371.7 379.5 391.8 379.5 391.8 149.1 371.7 169.3" />
  <path
    data-name="line1"
    d="M458.3 398.1H173.1l.5 10.6c.4 7.4-.8 28.8-10.3 38.8-3.4 3.6-7.6 5.3-13.1 5.3a17.8 17.8 0 0 1-13.6-5.5c-7.5-7.8-10-22.5-10.6-32.3l-17.9 17.9c2.2 9.7 6.3 20.4 13.9 28.3s17.1 11.7 28.2 11.7h264.6c13.1 0 24.1-4.6 31.7-13.5 15.3-17.6 12.6-45.8 11.8-51.7z"
  />
</svg>
