<svg xmlns="http://www.w3.org/2000/svg" viewBox="0 0 500 500">
  <g id="uninvoiced-status">
    <path id="unInvoicedStatusIcon" d="M250,5C114.7,5,5,114.7,5,250S114.7,495,250,495,495,385.3,495,250,385.3,5,250,5ZM105.9,119.3c1.7-8.9,10.1-25.9,29.5-25.9H325c9,1.4,26,13.2,25.7,26.2l-14.1,14v-9.4c0-12.8-10.2-15.9-13.4-16.6H157.9a38.1,38.1,0,0,1,3.8,15.2V306.8l-14.4,14.4V155H105.8Zm119.6,77.5,3.1-12.3a37.3,37.3,0,0,0,17.5,4.6c6,0,10-2.3,10-6.5s-3.3-6.5-11.1-9.1c-11.2-3.8-18.9-9.1-18.9-19.3s6.5-16.5,17.8-18.7v-10h10.3v9.3a37.3,37.3,0,0,1,15.2,3.5l-3.1,11.8a35.5,35.5,0,0,0-15.1-3.5c-6.8,0-9,2.9-9,5.9s3.7,5.6,12.6,9c12.5,4.4,17.5,10.2,17.5,19.6s-6.6,17.4-18.7,19.5v10.7H243.3v-10C236.3,201,229.5,199.1,225.5,196.8Zm-30.1,46.1a7.2,7.2,0,1,1,0-14.4h46.3l-14.3,14.4Zm19.2,11.2-14.4,14.4h-4.8a7.2,7.2,0,0,1,0-14.4Zm175.3,145c-5.4,6.3-13.3,9.6-22.6,9.6H179a27,27,0,0,1-20.1-8.4c-5.4-5.6-8.3-13.2-9.9-20.1l12.8-12.8c.4,7,2.1,17.5,7.5,23,2.5,2.7,5.6,3.9,9.7,3.9a12.1,12.1,0,0,0,9.3-3.7c6.8-7.1,7.6-22.4,7.3-27.7l-.3-7.5h203v6.8C398.8,366.4,400.8,386.5,389.9,399.1ZM302.4,284.2a7.2,7.2,0,1,1,0,14.4H230.7L245,284.2Zm-43.7-13.6,14.4-14.4h29.3a7.2,7.2,0,1,1,0,14.4Zm50.9,48.7a7.2,7.2,0,0,1-7.2,7.2H251a7.2,7.2,0,0,1,0-14.4h51.4A7.2,7.2,0,0,1,309.6,319.3Zm27,22.9V192.5L351,178.2v164ZM102.5,406.6,92.4,396.4,397.5,91.3l10.1,10.2Z"/>
  </g>
</svg>
