<svg
  xmlns="http://www.w3.org/2000/svg"
  viewBox="0 0 500 500"
  width="500"
  height="500"
  fill="#ffffff"
>
  <rect x="5" y="270" width="225" height="225.04" rx="10.1" />
  <rect x="270" y="6.8" width="225" height="225.04" rx="10.1" />
  <path d="M180.8 6.8H54.3A49.3 49.3 0 0 0 5 56v126.5a49.3 49.3 0 0 0 49.3 49.3h126.5a49.3 49.3 0 0 0 49.2-49.3V56a49.2 49.2 0 0 0-49.2-49.2zm13.2 161a27.9 27.9 0 0 1-27.9 28H69a28 28 0 0 1-28-28V70.7a27.9 27.9 0 0 1 28-27.9h97.1A27.9 27.9 0 0 1 194 70.7z" />
  <path d="M445.7 270H319.2a49.3 49.3 0 0 0-49.2 49.3v126.5a49.2 49.2 0 0 0 49.2 49.2h126.5a49.3 49.3 0 0 0 49.3-49.2V319.3a49.3 49.3 0 0 0-49.3-49.3zM459 431.1a27.9 27.9 0 0 1-28 27.9h-97.1a27.9 27.9 0 0 1-27.9-27.9V334a27.9 27.9 0 0 1 27.9-28H431a28 28 0 0 1 28 28z" />
</svg>
