<svg xmlns="http://www.w3.org/2000/svg" viewBox="0 0 500 500">
  <g id="unit">
    <rect id="filledBox2" x="5" y="270" width="225" height="225.04" rx="10.1"/>
    <rect id="filledBox1" x="270" y="6.8" width="225" height="225.04" rx="10.1"/>
    <path id="outlineBox2" d="M180.8,6.8H54.3A49.3,49.3,0,0,0,5,56V182.5a49.3,49.3,0,0,0,49.3,49.3H180.8A49.3,49.3,0,0,0,230,182.5V56A49.2,49.2,0,0,0,180.8,6.8Zm13.2,161a27.9,27.9,0,0,1-27.9,28H69a28,28,0,0,1-28-28V70.7A27.9,27.9,0,0,1,69,42.8h97.1A27.9,27.9,0,0,1,194,70.7Z"/>
    <path id="outlineBox1" d="M445.7,270H319.2A49.3,49.3,0,0,0,270,319.3V445.8A49.2,49.2,0,0,0,319.2,495H445.7A49.3,49.3,0,0,0,495,445.8V319.3A49.3,49.3,0,0,0,445.7,270ZM459,431.1A27.9,27.9,0,0,1,431,459H333.9A27.9,27.9,0,0,1,306,431.1V334a27.9,27.9,0,0,1,27.9-28H431a28,28,0,0,1,28,28Z"/>
  </g>
</svg>
