<svg xmlns="http://www.w3.org/2000/svg" viewBox="0 0 500 500">
  <g id="weekly-assignment-projects">
    <polygon points="54.3 114.64 71.11 69.8 115.95 120.24 77.49 150.54 54.3 114.64" style="fill: #9ec8ea"/>
    <g>
      <path d="M193.56,39.83S381.71,140.73,471,321.76c0,0,27.44-125.32-61.25-218.33C334.83,24.9,219.16,25,193.56,39.83Z" style="fill: #9ec8ea"/>
      <path d="M471,341.67a19.91,19.91,0,0,1-17.85-11.11C367.67,157.27,186,58.35,184.15,57.37a19.91,19.91,0,0,1-.58-34.76c33-19.14,158.13-19.35,240.55,67.08C519,189.21,491.63,320.48,490.42,326a19.91,19.91,0,0,1-17,15.5A19.61,19.61,0,0,1,471,341.67ZM251.44,52.35c53,36,138.62,103.65,202.46,200-3.54-40-17.22-91.82-58.59-135.2C350.91,70.6,292.51,55.05,251.44,52.35Z" style="fill: #1c3664"/>
    </g>
    <path d="M421.62,407c4-.6-299.64-300.8-299.64-300.8L77.49,150.54l198,201.22L394,470l41.45-30.3Z" style="fill: #478ecc"/>
    <path d="M469.5,103.72a19.86,19.86,0,0,1-13.86-5.62L414.16,57.88A19.91,19.91,0,0,1,441.88,29.3l41.48,40.22a19.91,19.91,0,0,1-13.86,34.2Z" style="fill: #1c3664"/>
    <polygon points="359.28 435.49 394.77 399.06 431.9 429.66 384.26 461.18 359.28 435.49" style="fill: #9ec8ea"/>
    <path d="M451.21,403.23,299.9,254.58l34-34a19.9,19.9,0,0,0,0-28.14l-28.69-28.69a19.86,19.86,0,0,0-14.07-5.83H291a19.92,19.92,0,0,0-14.1,5.92l-34.05,34.51L87.42,42.88,75.25,47.73C38,62.58,15,101.81,12.46,106.23L5,119.4l158.94,159L17.5,426.78a19.89,19.89,0,0,0,.09,28.05L44.66,481.9a19.92,19.92,0,0,0,14.08,5.83h0a19.92,19.92,0,0,0,14.08-5.83L220.08,334.48,295.58,410a19.91,19.91,0,0,0,28.15-28.15l-75.52-75.52,23.55-23.57L412.83,421.33l3.91,44.84a19.91,19.91,0,0,0,19.81,18.17c.58,0,1.16,0,1.75-.07a19.91,19.91,0,0,0,18.1-21.56ZM191.9,250,55.5,113.61C61.42,106,69.6,97.13,79,90.72L191.4,203.16a19.94,19.94,0,0,0,2.67,3.26l20.74,20.38Z" style="fill: #1c3664"/>
    <path d="M436.6,484.34a20,20,0,0,1-2.77-.19L388,477.78a19.91,19.91,0,0,1,5.49-39.44l45.85,6.38a19.9,19.9,0,0,1-2.71,39.62Z" style="fill: #1c3664"/>
  </g>
</svg>
