<svg
  xmlns="http://www.w3.org/2000/svg"
  viewBox="0 0 500 500"
  width="500"
  height="500"
  fill="#000000"
>
  <path d="M115.9 115.8c42.6-42.6 99.6-62.7 152.4-55l-18.1 34.8 102-4.4L297.4 5l-19.1 36.7c-61.2-11.6-127.8 10.6-176.9 59.6-36.6 36.6-58.7 83.5-62.1 132S51.6 327.1 84 359.4l14.5-14.5c-28.1-28-41.9-67.2-38.8-110.2s23.1-85.8 56.2-118.9z" />
  <path d="M416.1 140.6l-14.4 14.5c58.3 58.3 50.5 161.1-17.5 229.1-42.6 42.6-99.5 62.7-152.4 55l18.1-34.8-102 4.4 54.8 86.2 19.1-36.7a176.1 176.1 0 0 0 32.4 3.1c51.5 0 104-22.2 144.5-62.7 76-76 83.8-191.8 17.4-258.1z" />
  <path d="M188.5 356.1h120.6a45.8 45.8 0 0 0 45.8-45.8V189.7a45.8 45.8 0 0 0-45.8-45.8h-11v-20.3h-20.5v20.3h-55.1v-20.3H202v20.3h-13.5a45.9 45.9 0 0 0-45.8 45.8v120.6a45.9 45.9 0 0 0 45.8 45.8zm-25.3-166.4a25.3 25.3 0 0 1 25.3-25.3h120.6a25.3 25.3 0 0 1 25.3 25.3v120.6a25.3 25.3 0 0 1-25.3 25.3H188.5a25.3 25.3 0 0 1-25.3-25.3z" />
  <polygon points="257.7 225.7 223.5 292.3 244 292.3 278.1 221.8 278.1 209.6 219.7 209.6 219.7 225.5 257.7 225.5 257.7 225.7" />
</svg>
