<svg xmlns="http://www.w3.org/2000/svg" viewBox="0 0 500 500">
  <g id="weekly-assignment-leaders">
    <path d="M172.85,164.79a78.22,78.22,0,1,0,152.61,0Z" style="fill: #478ecc"/>
    <path d="M226.19,164.8H172.83c-11.86,31,27.67,75,88.95,98.71l-45.75-28C187.6,197.15,201.49,176.21,226.19,164.8Z" style="fill: #9ec8ea"/>
    <g id="body">
      <path d="M347.06,326.53c-36.56-31.18-95.3-30.62-97.61-30.63-2.47,0-61.38-.55-97.87,30.64s-46.92,122.21-47.34,126.07l-.84,7.71,7.52,1.91c48.79,12.38,95.79,16.51,136.8,16.51,79.62,0,136.66-15.57,140.21-16.57l7.29-2-.82-7.53C394,448.76,383.75,357.83,347.06,326.53Z" style="fill: #478ecc"/>
    </g>
    <g id="body-2" data-name="body">
      <path d="M108.74,421.62l6.66,0s59.72-86.29,200-113.67c2.76-.53-115.93-7.13-157.65,22.7" style="fill: #9ec8ea"/>
    </g>
    <g id="body-3" data-name="body">
      <path d="M246.26,495c-32.24,0-67.13-.84-103.86-6.92a18.28,18.28,0,1,1,6-36.06c34.12,5.65,67.21,6.42,97.89,6.42,59.53,0,105.81-8.72,124.06-12.75-4.21-26.84-16.24-77.95-38.4-95.87-29.26-23.66-78.3-24.35-83.79-24.35-2.51,0-54.2-.12-84.38,24.34-14.06,11.39-26.12,37.16-34,72.58a18.28,18.28,0,0,1-35.69-7.92c9.91-44.7,25.61-76,46.65-93.07,39.56-32,100.43-32.41,107.34-32.48,11.17,0,68.6,1.56,106.82,32.47,40.88,33.05,51.85,119.29,53,129l2.59,22.69L388.06,479C381.88,480.67,325.43,495,246.26,495Z" style="fill: #1c3664"/>
    </g>
    <circle cx="105.33" cy="459.18" r="15.79" style="fill: #1c3664"/>
    <path d="M343.46,173.63c-.19-3-.54-5.9-1-8.81h-37.3a58.66,58.66,0,0,1,1.77,10.6l0,4.9A57.22,57.22,0,0,1,292.3,218a57.7,57.7,0,0,1-40.05,19.44,57,57,0,0,1-37.42-10.84l-4.16-3.15a59.12,59.12,0,0,1-20.09-40.68,18.28,18.28,0,1,0-36.48,2.34,95.69,95.69,0,0,0,33.21,66.47L193,256a94.71,94.71,0,0,0,55.77,18.16c1.87,0,3.75-.06,5.62-.17a94.7,94.7,0,0,0,89.09-93.43l0-5.8Z" style="fill: #1c3664"/>
    <g id="hat">
      <path d="M371.68,107.11H344.11c0-.37.11-.72.11-1.1V79.71l-.06-3.58c0-12.68.22-23.62-18.81-40a74,74,0,0,0-32.91-16v87H275.55v-89s0,0,0,0V14.68A9.69,9.69,0,0,0,265.85,5h-29a9.68,9.68,0,0,0-9.68,9.68v3.46c0,.05-.06.07-.11.1v88.91H210.14v-87a74,74,0,0,0-32.83,16c-19,16.35-18.88,28.27-18.88,40l0,3.58V106c0,.38.08.73.11,1.1H131a.17.17,0,0,0-.17.17v36.47a.17.17,0,0,0,.17.18H371.68a.18.18,0,0,0,.17-.18V107.28A.18.18,0,0,0,371.68,107.11Z" style="fill: #1c3664"/>
    </g>
  </g>
</svg>
