<svg
  xmlns="http://www.w3.org/2000/svg"
  viewBox="0 0 500 500"
  width="500"
  height="500"
  fill="#ffffff"
>
  <path d="M370.19 294.29c-44.43-37.89-115.81-37.22-118.61-37.23-3 0-74.59-.66-118.94 37.23s-57 148.52-57.52 153.2l-1 9.37 9.14 2.32c59.28 15.05 116.39 20.07 166.23 20.07 96.76 0 166.07-18.93 170.38-20.14l8.86-2.47-1-9.14c-.52-4.69-12.96-115.18-57.54-153.21z" />
  <circle cx="251.44" cy="117.96" r="95.05" />
  <path d="M182.76 176.76c-35-112.7 104-147 104-147a95 95 0 1 0-70.59 176.5z" />
  <path
    d="M80.58 409.84h8.09S161.25 305 331.72 271.76c3.35-.66-140.88-8.66-191.58 27.58"
    data-name="body"
  />
  <path
    d="M247.7 495c-39 0-81.3-1.07-125.71-8.83a18.2 18.2 0 1 1 6.26-35.86c41.68 7.28 82 8.28 119.45 8.28 77.53 0 136.56-12.75 155.42-17.38-4.47-33.36-19.65-106.26-49.18-131.44C317.45 278.64 257 277.71 250 277.71h-.45c-6.3 0-67.7.79-104.27 32.05-17.93 15.32-33.2 49.44-43 96.07a18.21 18.21 0 0 1-35.63-7.5c11.78-56 30.27-95.13 55-116.25 47.06-40.22 120.11-40.79 128.25-40.77h.1c13.57 0 82.16 2 127.61 40.76 48.18 41.09 61.21 149.49 62.54 161.71l2.63 24.29-23.52 6.57c-3 .83-73.92 20.36-171.56 20.36z"
    data-name="body"
  />
  <path d="M249.71 231.67A113.4 113.4 0 0 1 183 210l-6.85-5.22a114.53 114.53 0 0 1-39.74-79.56 18.2 18.2 0 1 1 36.33-2.32 78.07 78.07 0 0 0 26.67 53.87l5.31 4a76.93 76.93 0 0 0 121.93-61.19v-6.33a76.75 76.75 0 0 0-8-29.18A78 78 0 0 0 300 59.87l-5.31-4a76.74 76.74 0 0 0-49.33-14.33 18.2 18.2 0 1 1-2.09-36.34 113.59 113.59 0 0 1 73.06 21.4l6.91 5.26a114.26 114.26 0 0 1 28 35.89A113 113 0 0 1 363 111.44v8.29a113.16 113.16 0 0 1-106.6 111.74q-3.33.2-6.69.2z" />
  <circle cx="76.45" cy="455.47" r="19.19" />
</svg>
