<svg
  xmlns="http://www.w3.org/2000/svg"
  viewBox="0 0 500 500"
  width="500"
  height="500"
  fill="#ffffff"
>
  <path d="M385.3 452.2s-6.6-60.7-26.5-111.7C428.2 306.3 495 248.9 495 165a51 51 0 0 0-102 0c0 42.8-59 77.4-108.5 96.4-43.2-17.5-89.3-16.9-89.3-16.9s-80.5-1.2-128.4 39.8S5 452.2 5 452.2c199.4 50.6 380.3 0 380.3 0z" />
  <path d="M103.8 163.6a99.3 99.3 0 0 0 182.7 0h.2a99.6 99.6 0 0 0 7.8-38.8v-.4a101.6 101.6 0 0 0-7.8-38.9h-.2a99.4 99.4 0 0 0-182.7 0h-.1a99.8 99.8 0 0 0-7.9 38.9v.4a97.9 97.9 0 0 0 7.9 38.8z" />
</svg>
