<svg
  xmlns="http://www.w3.org/2000/svg"
  viewBox="0 0 500 500"
  width="500"
  height="500"
  fill="#000000"
>
  <path d="M433 442.69v-151.2a35.11 35.11 0 0 0-21.64-62.56c-4.51-77.52-62.21-140.94-137-154.31v-22.4a14.19 14.19 0 0 0-14.17-14.17h-5.4V14.8a9.8 9.8 0 0 0-19.6 0v23.25h-5.4a14.18 14.18 0 0 0-14.17 14.17v22.4C140.19 88.08 82.19 152.29 78.39 230.54a35.1 35.1 0 0 0-9.66 62.22V442a21.49 21.49 0 0 0-14.93 20.4v11.2A21.42 21.42 0 0 0 75.2 495h349.6a21.42 21.42 0 0 0 21.4-21.4v-11.2a21.49 21.49 0 0 0-13.2-19.71zm-19.6-5.9l-38.15-11.09V299.2h35.81c.78 0 1.55-.06 2.32-.11zM184.18 299.2v109.22l-38.12 11.09V299.2zm19.6 0h36.42v92.93l-36.42 10.59zm56 0h38.12v104l-38.1-11.07zm57.72 0h38.13V420l-38.13-11.09zM235.15 57.65h19.54v14.64c-3.24-.19-6.49-.31-9.77-.31s-6.54.12-9.77.31zm9.77 33.93c77.83 0 141.7 60.76 146.77 137.34H98.15c5.06-76.58 68.93-137.34 146.77-137.34zm-156 156.94h322.14a15.54 15.54 0 1 1 0 31.08H88.94a15.54 15.54 0 1 1 0-31.08zm0 50.68h37.52v126l-38.11 11.1V299.17c.2.01.4.03.61.03zM426.6 473.6a1.81 1.81 0 0 1-1.8 1.8H75.2a1.81 1.81 0 0 1-1.8-1.8v-11.2a1.8 1.8 0 0 1 1.3-1.72l174.8-50.84a2 2 0 0 1 .49-.07 1.74 1.74 0 0 1 .5.08l174.81 50.84a1.8 1.8 0 0 1 1.29 1.72z" />
</svg>
