<svg xmlns="http://www.w3.org/2000/svg" viewBox="0 0 500 500">
  <g id="work-state">
    <path id="capitol-building" d="M433,442.69V291.49a35.11,35.11,0,0,0-21.64-62.56c-4.51-77.52-62.21-140.94-137-154.31V52.22a14.19,14.19,0,0,0-14.17-14.17h-5.4V14.8a9.8,9.8,0,0,0-19.6,0V38.05h-5.4a14.18,14.18,0,0,0-14.17,14.17v22.4C140.19,88.08,82.19,152.29,78.39,230.54a35.1,35.1,0,0,0-9.66,62.22V442A21.49,21.49,0,0,0,53.8,462.4v11.2A21.42,21.42,0,0,0,75.2,495H424.8a21.42,21.42,0,0,0,21.4-21.4V462.4A21.49,21.49,0,0,0,433,442.69Zm-19.6-5.9L375.25,425.7V299.2h35.81c.78,0,1.55-.06,2.32-.11ZM184.18,299.2V408.42l-38.12,11.09V299.2Zm19.6,0H240.2v92.93l-36.42,10.59Zm56,0h38.12v104L259.8,392.13Zm57.72,0h38.13V420l-38.13-11.09ZM235.15,57.65h19.54V72.29c-3.24-.19-6.49-.31-9.77-.31s-6.54.12-9.77.31Zm9.77,33.93c77.83,0,141.7,60.76,146.77,137.34H98.15C103.21,152.34,167.08,91.58,244.92,91.58Zm-156,156.94H411.06a15.54,15.54,0,1,1,0,31.08H88.94a15.54,15.54,0,1,1,0-31.08Zm0,50.68h37.52v126L88.33,436.3V299.17C88.53,299.18,88.73,299.2,88.94,299.2ZM426.6,473.6a1.81,1.81,0,0,1-1.8,1.8H75.2a1.81,1.81,0,0,1-1.8-1.8V462.4a1.8,1.8,0,0,1,1.3-1.72l174.8-50.84h0a2,2,0,0,1,.49-.07,1.74,1.74,0,0,1,.5.08l174.81,50.84a1.8,1.8,0,0,1,1.29,1.72Z"/>
  </g>
</svg>
