<svg xmlns="http://www.w3.org/2000/svg" viewBox="0 0 500 500">
  <g id="work">
    <path id="handle" d="M207.8,322.2a97.9,97.9,0,0,1-42.2-9.6,98.9,98.9,0,0,1-27.3-159.5,105.4,105.4,0,0,1,11.5-9.7H85.4A80.2,80.2,0,1,0,85,303.6l60.7.2a37.9,37.9,0,0,0-5.9,20.2l-.3,126.8a38.6,38.6,0,1,0,77.1.2l.4-126.8c0-.8-.2-1.6-.2-2.4C213.8,322,210.8,322.2,207.8,322.2Z"/>
    <path id="back-end" d="M410.6,178.8c-31.4,32.7-.2,73.1-.2,73.1,27.8.1,50.4-16.2,50.5-36.4S438.4,178.9,410.6,178.8Z"/>
    <path id="horn" d="M434.7,10.5c-18.1-.1-32.9,19.7-43.9,58.8-53.8,55.2-109.2,76.2-110.3,76.6l-69.8-.2h-2.4a77.7,77.7,0,0,0-78,77.4,77.8,77.8,0,0,0,77.5,78l3-.2,69.1.2s58,27,112.7,84.6c7.7,24.1,17.9,41.5,30.6,47.5a22.8,22.8,0,0,0,10.2,2.4c41.9.1,61.3-110,61.6-212.3S476.5,10.6,434.7,10.5Zm-1.2,398c-21.6,0-49.8-113.5-49.8-185.6,0-74.5,34.7-190.2,50.9-190.2,27.8,0,41.9,132.1,41.9,190.3C476.5,295,461.3,408.5,433.5,408.5Z"/>
  </g>
</svg>
