<svg xmlns="http://www.w3.org/2000/svg" viewBox="0 0 500 500">
  <g id="workers-comp-code">
    <path id="head" d="M154.34,162.35a107.76,107.76,0,0,0,191.32,0l3.63-7.33a107.55,107.55,0,0,0,8.56-42.17v-.36a108.09,108.09,0,0,0-8.55-42.15L345.64,63a107.85,107.85,0,0,0-191.28,0l-3.65,7.34a109,109,0,0,0,0,84.68Z"/>
    <path id="body" d="M445.31,459.83c-.57-5.19-14.34-127.58-63.73-169.71a145.43,145.43,0,0,0-35.77-22c-12.49,36.13-47.46,78.49-73.55,106.7h19.57a48,48,0,0,1,47.9,51.2c-1.65,25.51-24,44.81-49.54,44.81L90.18,468a17.64,17.64,0,0,1-17.54-19.61c4.93-43.79,17.36-142.53,93-172.66l27.82,99.15h50.3c24.69-25.32,69.8-75.22,82.78-114-38.31-12.27-74.25-12-76.32-12-3.34,0-82.63-.73-131.75,41.25C69.17,332.25,55.3,454.64,54.73,459.82L53.6,470.2l10.12,2.58C129.39,489.44,192.65,495,247.86,495c107.18,0,184-21,188.74-22.3l9.8-2.74Z"/>
  </g>
</svg>
