<svg xmlns="http://www.w3.org/2000/svg" viewBox="0 0 500 500">
  <g id="workforce-development">
    <path id="left-arrow" d="M45.7,79.1A20.7,20.7,0,0,1,66.4,58.4H185.9V90.5L260,47.7,185.9,5V37H66.4A42.1,42.1,0,0,0,24.3,79.1V272.7H45.7Z"/>
    <path id="right-arrow" d="M212.4,471.3H405.9a20.6,20.6,0,0,0,20.7-20.7V331.2h-32l42.7-74.1L480,331.2H448.1V450.6a42.3,42.3,0,0,1-42.2,42.2H212.4Z"/>
    <path id="left-body" d="M20,485.4s5.9-54.2,26.4-71.7,54.8-17,54.8-17,34.3-.5,54.9,17,26.4,71.7,26.4,71.7S105.2,507,20,485.4Z"/>
    <path id="left-head" d="M143.7,345.4a43.3,43.3,0,0,0-3.4-16.7h-.1a42.5,42.5,0,0,0-78,0h-.1a43.3,43.3,0,0,0-3.3,16.7h0a42.8,42.8,0,0,0,3.3,16.6h.1a42.4,42.4,0,0,0,78,0h.1a42.9,42.9,0,0,0,3.4-16.6Z"/>
    <circle id="right-head" cx="378.3" cy="69.3" r="42.5"/>
    <path id="right-body" d="M433.1,137.6c-20.5-17.6-54.8-17-54.8-17s-34.3-.6-54.8,17-26.3,71.6-26.3,71.6c85.1,21.6,162.3,0,162.3,0S453.6,155.1,433.1,137.6Zm-54.8,75.3L367,183.3l8.2-34.7h0a44.2,44.2,0,0,1,6.3.2h0l6.9,33.9Zm7.9-70.9a43.3,43.3,0,0,0-15.9-.4L362,129.8s15.6-9.6,32.6,0Z"/>
  </g>
</svg>
