<svg xmlns="http://www.w3.org/2000/svg" viewBox="0 0 500 500">
  <g id="work-schedule">
    <path id="arrow" d="M293.3,32.5C181.5,32.2,90.4,123.1,90.4,234.8h19.8c0-100.8,82.1-182.8,183-182.5s181.1,81.2,182,180.8S396.3,414.9,297,417.3V380.5L221.7,424,297,467.5V437c108.9-2.3,197-91,198-200.3C496,124.9,405.1,32.8,293.3,32.5Z"/>
    <polygon id="clock-hands" points="282 126.8 282 242.1 376 334.9 390.2 320.9 302 233.9 302 126.8 282 126.8"/>
    <path id="outline" d="M156.5,266.8H139v-15H119v15H77v-15H57v15H40.5A35.5,35.5,0,0,0,5,302.3v116a35.4,35.4,0,0,0,35.5,35.5h116A35.4,35.4,0,0,0,192,418.3v-116A35.5,35.5,0,0,0,156.5,266.8Zm-.2,168H39.8A15.7,15.7,0,0,1,24,419.1V302.6a15.8,15.8,0,0,1,15.8-15.8H156.3A15.7,15.7,0,0,1,172,302.6V419.1A15.7,15.7,0,0,1,156.3,434.8Z"/>
    <rect id="square1" x="42" y="314.8" width="20" height="18"/>
    <rect id="square2" x="88" y="314.8" width="20" height="18"/>
    <rect id="square3" x="135" y="314.8" width="20" height="18"/>
    <rect id="square4" x="42" y="351.8" width="20" height="18"/>
    <rect id="square5" x="88" y="351.8" width="20" height="18"/>
    <rect id="square6" x="135" y="351.8" width="20" height="18"/>
    <rect id="square7" x="42" y="387.8" width="20" height="18"/>
    <rect id="square8" x="88" y="387.8" width="20" height="18"/>
    <rect id="square9" x="135" y="387.8" width="20" height="18"/>
  </g>
</svg>
