<svg
  xmlns="http://www.w3.org/2000/svg"
  viewBox="0 0 500 500"
  width="500"
  height="500"
  fill="#000000"
>
  <path d="M293.3 32.5c-111.8-.3-202.9 90.6-202.9 202.3h19.8c0-100.8 82.1-182.8 183-182.5s181.1 81.2 182 180.8S396.3 414.9 297 417.3v-36.8L221.7 424l75.3 43.5V437c108.9-2.3 197-91 198-200.3 1-111.8-89.9-203.9-201.7-204.2z" />
  <polygon points="282 126.8 282 242.1 376 334.9 390.2 320.9 302 233.9 302 126.8 282 126.8" />
  <path d="M156.5 266.8H139v-15h-20v15H77v-15H57v15H40.5A35.5 35.5 0 0 0 5 302.3v116a35.4 35.4 0 0 0 35.5 35.5h116a35.4 35.4 0 0 0 35.5-35.5v-116a35.5 35.5 0 0 0-35.5-35.5zm-.2 168H39.8A15.7 15.7 0 0 1 24 419.1V302.6a15.8 15.8 0 0 1 15.8-15.8h116.5a15.7 15.7 0 0 1 15.7 15.8v116.5a15.7 15.7 0 0 1-15.7 15.7z" />
  <rect x="42" y="314.8" width="20" height="18" />
  <rect x="88" y="314.8" width="20" height="18" />
  <rect x="135" y="314.8" width="20" height="18" />
  <rect x="42" y="351.8" width="20" height="18" />
  <rect x="88" y="351.8" width="20" height="18" />
  <rect x="135" y="351.8" width="20" height="18" />
  <rect x="42" y="387.8" width="20" height="18" />
  <rect x="88" y="387.8" width="20" height="18" />
  <rect x="135" y="387.8" width="20" height="18" />
</svg>
