<svg
  xmlns="http://www.w3.org/2000/svg"
  viewBox="0 0 500 500"
  width="500"
  height="500"
  fill="#ffffff"
>
  <path d="M45.7 79.1a20.7 20.7 0 0 1 20.7-20.7h119.5v32.1L260 47.7 185.9 5v32H66.4a42.1 42.1 0 0 0-42.1 42.1v193.6h21.4z" />
  <path d="M212.4 471.3h193.5a20.6 20.6 0 0 0 20.7-20.7V331.2h-32l42.7-74.1 42.7 74.1h-31.9v119.4a42.3 42.3 0 0 1-42.2 42.2H212.4z" />
  <path d="M20 485.4s5.9-54.2 26.4-71.7 54.8-17 54.8-17 34.3-.5 54.9 17 26.4 71.7 26.4 71.7-77.3 21.6-162.5 0z" />
  <path d="M143.7 345.4a43.3 43.3 0 0 0-3.4-16.7h-.1a42.5 42.5 0 0 0-78 0h-.1a43.3 43.3 0 0 0-3.3 16.7 42.8 42.8 0 0 0 3.3 16.6h.1a42.4 42.4 0 0 0 78 0h.1a42.9 42.9 0 0 0 3.4-16.6z" />
  <circle cx="378.3" cy="69.3" r="42.5" />
  <path d="M433.1 137.6c-20.5-17.6-54.8-17-54.8-17s-34.3-.6-54.8 17-26.3 71.6-26.3 71.6c85.1 21.6 162.3 0 162.3 0s-5.9-54.1-26.4-71.6zm-54.8 75.3L367 183.3l8.2-34.7a44.2 44.2 0 0 1 6.3.2l6.9 33.9zm7.9-70.9a43.3 43.3 0 0 0-15.9-.4l-8.3-11.8s15.6-9.6 32.6 0z" />
</svg>
